%TF.GenerationSoftware,Altium Limited,Altium Designer,20.1.8 (145)*%
G04 Layer_Physical_Order=1*
G04 Layer_Color=255*
%FSLAX44Y44*%
%MOMM*%
%TF.SameCoordinates,26FE9753-2FEF-45A6-A292-D601E9B90E6C*%
%TF.FilePolarity,Positive*%
%TF.FileFunction,Copper,L1,Top,Signal*%
%TF.Part,Single*%
G01*
G75*
%TA.AperFunction,SMDPad,CuDef*%
G04:AMPARAMS|DCode=10|XSize=0.9mm|YSize=0.65mm|CornerRadius=0.0033mm|HoleSize=0mm|Usage=FLASHONLY|Rotation=0.000|XOffset=0mm|YOffset=0mm|HoleType=Round|Shape=RoundedRectangle|*
%AMROUNDEDRECTD10*
21,1,0.9000,0.6435,0,0,0.0*
21,1,0.8935,0.6500,0,0,0.0*
1,1,0.0065,0.4467,-0.3218*
1,1,0.0065,-0.4467,-0.3218*
1,1,0.0065,-0.4467,0.3218*
1,1,0.0065,0.4467,0.3218*
%
%ADD10ROUNDEDRECTD10*%
G04:AMPARAMS|DCode=11|XSize=0.9mm|YSize=0.65mm|CornerRadius=0.0033mm|HoleSize=0mm|Usage=FLASHONLY|Rotation=90.000|XOffset=0mm|YOffset=0mm|HoleType=Round|Shape=RoundedRectangle|*
%AMROUNDEDRECTD11*
21,1,0.9000,0.6435,0,0,90.0*
21,1,0.8935,0.6500,0,0,90.0*
1,1,0.0065,0.3218,0.4467*
1,1,0.0065,0.3218,-0.4467*
1,1,0.0065,-0.3218,-0.4467*
1,1,0.0065,-0.3218,0.4467*
%
%ADD11ROUNDEDRECTD11*%
G04:AMPARAMS|DCode=12|XSize=0.9mm|YSize=0.7mm|CornerRadius=0.0035mm|HoleSize=0mm|Usage=FLASHONLY|Rotation=180.000|XOffset=0mm|YOffset=0mm|HoleType=Round|Shape=RoundedRectangle|*
%AMROUNDEDRECTD12*
21,1,0.9000,0.6930,0,0,180.0*
21,1,0.8930,0.7000,0,0,180.0*
1,1,0.0070,-0.4465,0.3465*
1,1,0.0070,0.4465,0.3465*
1,1,0.0070,0.4465,-0.3465*
1,1,0.0070,-0.4465,-0.3465*
%
%ADD12ROUNDEDRECTD12*%
G04:AMPARAMS|DCode=13|XSize=0.9mm|YSize=0.7mm|CornerRadius=0.0035mm|HoleSize=0mm|Usage=FLASHONLY|Rotation=90.000|XOffset=0mm|YOffset=0mm|HoleType=Round|Shape=RoundedRectangle|*
%AMROUNDEDRECTD13*
21,1,0.9000,0.6930,0,0,90.0*
21,1,0.8930,0.7000,0,0,90.0*
1,1,0.0070,0.3465,0.4465*
1,1,0.0070,0.3465,-0.4465*
1,1,0.0070,-0.3465,-0.4465*
1,1,0.0070,-0.3465,0.4465*
%
%ADD13ROUNDEDRECTD13*%
G04:AMPARAMS|DCode=14|XSize=0.6mm|YSize=1mm|CornerRadius=0.003mm|HoleSize=0mm|Usage=FLASHONLY|Rotation=270.000|XOffset=0mm|YOffset=0mm|HoleType=Round|Shape=RoundedRectangle|*
%AMROUNDEDRECTD14*
21,1,0.6000,0.9940,0,0,270.0*
21,1,0.5940,1.0000,0,0,270.0*
1,1,0.0060,-0.4970,-0.2970*
1,1,0.0060,-0.4970,0.2970*
1,1,0.0060,0.4970,0.2970*
1,1,0.0060,0.4970,-0.2970*
%
%ADD14ROUNDEDRECTD14*%
%ADD15O,1.1500X0.4000*%
G04:AMPARAMS|DCode=16|XSize=3.25mm|YSize=2.15mm|CornerRadius=0.0108mm|HoleSize=0mm|Usage=FLASHONLY|Rotation=90.000|XOffset=0mm|YOffset=0mm|HoleType=Round|Shape=RoundedRectangle|*
%AMROUNDEDRECTD16*
21,1,3.2500,2.1285,0,0,90.0*
21,1,3.2285,2.1500,0,0,90.0*
1,1,0.0215,1.0642,1.6143*
1,1,0.0215,1.0642,-1.6143*
1,1,0.0215,-1.0642,-1.6143*
1,1,0.0215,-1.0642,1.6143*
%
%ADD16ROUNDEDRECTD16*%
G04:AMPARAMS|DCode=17|XSize=1mm|YSize=2.15mm|CornerRadius=0.005mm|HoleSize=0mm|Usage=FLASHONLY|Rotation=90.000|XOffset=0mm|YOffset=0mm|HoleType=Round|Shape=RoundedRectangle|*
%AMROUNDEDRECTD17*
21,1,1.0000,2.1400,0,0,90.0*
21,1,0.9900,2.1500,0,0,90.0*
1,1,0.0100,1.0700,0.4950*
1,1,0.0100,1.0700,-0.4950*
1,1,0.0100,-1.0700,-0.4950*
1,1,0.0100,-1.0700,0.4950*
%
%ADD17ROUNDEDRECTD17*%
G04:AMPARAMS|DCode=18|XSize=0.35mm|YSize=2mm|CornerRadius=0.175mm|HoleSize=0mm|Usage=FLASHONLY|Rotation=180.000|XOffset=0mm|YOffset=0mm|HoleType=Round|Shape=RoundedRectangle|*
%AMROUNDEDRECTD18*
21,1,0.3500,1.6500,0,0,180.0*
21,1,0.0000,2.0000,0,0,180.0*
1,1,0.3500,0.0000,0.8250*
1,1,0.3500,0.0000,0.8250*
1,1,0.3500,0.0000,-0.8250*
1,1,0.3500,0.0000,-0.8250*
%
%ADD18ROUNDEDRECTD18*%
G04:AMPARAMS|DCode=19|XSize=1.6mm|YSize=1.6mm|CornerRadius=0.008mm|HoleSize=0mm|Usage=FLASHONLY|Rotation=180.000|XOffset=0mm|YOffset=0mm|HoleType=Round|Shape=RoundedRectangle|*
%AMROUNDEDRECTD19*
21,1,1.6000,1.5840,0,0,180.0*
21,1,1.5840,1.6000,0,0,180.0*
1,1,0.0160,-0.7920,0.7920*
1,1,0.0160,0.7920,0.7920*
1,1,0.0160,0.7920,-0.7920*
1,1,0.0160,-0.7920,-0.7920*
%
%ADD19ROUNDEDRECTD19*%
G04:AMPARAMS|DCode=20|XSize=1.65mm|YSize=0.8mm|CornerRadius=0.004mm|HoleSize=0mm|Usage=FLASHONLY|Rotation=0.000|XOffset=0mm|YOffset=0mm|HoleType=Round|Shape=RoundedRectangle|*
%AMROUNDEDRECTD20*
21,1,1.6500,0.7920,0,0,0.0*
21,1,1.6420,0.8000,0,0,0.0*
1,1,0.0080,0.8210,-0.3960*
1,1,0.0080,-0.8210,-0.3960*
1,1,0.0080,-0.8210,0.3960*
1,1,0.0080,0.8210,0.3960*
%
%ADD20ROUNDEDRECTD20*%
G04:AMPARAMS|DCode=21|XSize=0.8mm|YSize=0.7mm|CornerRadius=0.0035mm|HoleSize=0mm|Usage=FLASHONLY|Rotation=180.000|XOffset=0mm|YOffset=0mm|HoleType=Round|Shape=RoundedRectangle|*
%AMROUNDEDRECTD21*
21,1,0.8000,0.6930,0,0,180.0*
21,1,0.7930,0.7000,0,0,180.0*
1,1,0.0070,-0.3965,0.3465*
1,1,0.0070,0.3965,0.3465*
1,1,0.0070,0.3965,-0.3465*
1,1,0.0070,-0.3965,-0.3465*
%
%ADD21ROUNDEDRECTD21*%
G04:AMPARAMS|DCode=22|XSize=1.65mm|YSize=0.8mm|CornerRadius=0.004mm|HoleSize=0mm|Usage=FLASHONLY|Rotation=90.000|XOffset=0mm|YOffset=0mm|HoleType=Round|Shape=RoundedRectangle|*
%AMROUNDEDRECTD22*
21,1,1.6500,0.7920,0,0,90.0*
21,1,1.6420,0.8000,0,0,90.0*
1,1,0.0080,0.3960,0.8210*
1,1,0.0080,0.3960,-0.8210*
1,1,0.0080,-0.3960,-0.8210*
1,1,0.0080,-0.3960,0.8210*
%
%ADD22ROUNDEDRECTD22*%
%TA.AperFunction,ConnectorPad*%
G04:AMPARAMS|DCode=23|XSize=2mm|YSize=1mm|CornerRadius=0.005mm|HoleSize=0mm|Usage=FLASHONLY|Rotation=270.000|XOffset=0mm|YOffset=0mm|HoleType=Round|Shape=RoundedRectangle|*
%AMROUNDEDRECTD23*
21,1,2.0000,0.9900,0,0,270.0*
21,1,1.9900,1.0000,0,0,270.0*
1,1,0.0100,-0.4950,-0.9950*
1,1,0.0100,-0.4950,0.9950*
1,1,0.0100,0.4950,0.9950*
1,1,0.0100,0.4950,-0.9950*
%
%ADD23ROUNDEDRECTD23*%
G04:AMPARAMS|DCode=24|XSize=2mm|YSize=1mm|CornerRadius=0.005mm|HoleSize=0mm|Usage=FLASHONLY|Rotation=0.000|XOffset=0mm|YOffset=0mm|HoleType=Round|Shape=RoundedRectangle|*
%AMROUNDEDRECTD24*
21,1,2.0000,0.9900,0,0,0.0*
21,1,1.9900,1.0000,0,0,0.0*
1,1,0.0100,0.9950,-0.4950*
1,1,0.0100,-0.9950,-0.4950*
1,1,0.0100,-0.9950,0.4950*
1,1,0.0100,0.9950,0.4950*
%
%ADD24ROUNDEDRECTD24*%
%TA.AperFunction,SMDPad,CuDef*%
G04:AMPARAMS|DCode=25|XSize=0.35mm|YSize=0.7mm|CornerRadius=0.0018mm|HoleSize=0mm|Usage=FLASHONLY|Rotation=90.000|XOffset=0mm|YOffset=0mm|HoleType=Round|Shape=RoundedRectangle|*
%AMROUNDEDRECTD25*
21,1,0.3500,0.6965,0,0,90.0*
21,1,0.3465,0.7000,0,0,90.0*
1,1,0.0035,0.3483,0.1733*
1,1,0.0035,0.3483,-0.1733*
1,1,0.0035,-0.3483,-0.1733*
1,1,0.0035,-0.3483,0.1733*
%
%ADD25ROUNDEDRECTD25*%
G04:AMPARAMS|DCode=26|XSize=0.55mm|YSize=0.7mm|CornerRadius=0.0028mm|HoleSize=0mm|Usage=FLASHONLY|Rotation=180.000|XOffset=0mm|YOffset=0mm|HoleType=Round|Shape=RoundedRectangle|*
%AMROUNDEDRECTD26*
21,1,0.5500,0.6945,0,0,180.0*
21,1,0.5445,0.7000,0,0,180.0*
1,1,0.0055,-0.2723,0.3473*
1,1,0.0055,0.2723,0.3473*
1,1,0.0055,0.2723,-0.3473*
1,1,0.0055,-0.2723,-0.3473*
%
%ADD26ROUNDEDRECTD26*%
G04:AMPARAMS|DCode=27|XSize=0.4mm|YSize=0.3mm|CornerRadius=0.0015mm|HoleSize=0mm|Usage=FLASHONLY|Rotation=0.000|XOffset=0mm|YOffset=0mm|HoleType=Round|Shape=RoundedRectangle|*
%AMROUNDEDRECTD27*
21,1,0.4000,0.2970,0,0,0.0*
21,1,0.3970,0.3000,0,0,0.0*
1,1,0.0030,0.1985,-0.1485*
1,1,0.0030,-0.1985,-0.1485*
1,1,0.0030,-0.1985,0.1485*
1,1,0.0030,0.1985,0.1485*
%
%ADD27ROUNDEDRECTD27*%
%TA.AperFunction,Conductor*%
%ADD28C,0.1524*%
%ADD29C,0.2540*%
%TA.AperFunction,ComponentPad*%
%ADD30C,1.2500*%
%ADD31C,1.0000*%
%ADD32C,1.8000*%
%ADD33O,3.5000X5.0000*%
G04:AMPARAMS|DCode=34|XSize=3.5mm|YSize=5mm|CornerRadius=1.75mm|HoleSize=0mm|Usage=FLASHONLY|Rotation=180.000|XOffset=0mm|YOffset=0mm|HoleType=Round|Shape=RoundedRectangle|*
%AMROUNDEDRECTD34*
21,1,3.5000,1.5000,0,0,180.0*
21,1,0.0000,5.0000,0,0,180.0*
1,1,3.5000,0.0000,0.7500*
1,1,3.5000,0.0000,0.7500*
1,1,3.5000,0.0000,-0.7500*
1,1,3.5000,0.0000,-0.7500*
%
%ADD34ROUNDEDRECTD34*%
%ADD35O,1.5000X2.0000*%
G04:AMPARAMS|DCode=36|XSize=1.25mm|YSize=1.25mm|CornerRadius=0.625mm|HoleSize=0mm|Usage=FLASHONLY|Rotation=90.000|XOffset=0mm|YOffset=0mm|HoleType=Round|Shape=RoundedRectangle|*
%AMROUNDEDRECTD36*
21,1,1.2500,0.0000,0,0,90.0*
21,1,0.0000,1.2500,0,0,90.0*
1,1,1.2500,0.0000,0.0000*
1,1,1.2500,0.0000,0.0000*
1,1,1.2500,0.0000,0.0000*
1,1,1.2500,0.0000,0.0000*
%
%ADD36ROUNDEDRECTD36*%
G04:AMPARAMS|DCode=37|XSize=1.25mm|YSize=1.25mm|CornerRadius=0.0625mm|HoleSize=0mm|Usage=FLASHONLY|Rotation=90.000|XOffset=0mm|YOffset=0mm|HoleType=Round|Shape=RoundedRectangle|*
%AMROUNDEDRECTD37*
21,1,1.2500,1.1250,0,0,90.0*
21,1,1.1250,1.2500,0,0,90.0*
1,1,0.1250,0.5625,0.5625*
1,1,0.1250,0.5625,-0.5625*
1,1,0.1250,-0.5625,-0.5625*
1,1,0.1250,-0.5625,0.5625*
%
%ADD37ROUNDEDRECTD37*%
%TA.AperFunction,ViaPad*%
%ADD38C,0.6000*%
G36*
X1717961Y842039D02*
X1202039D01*
Y1267961D01*
X1717961D01*
Y842039D01*
D02*
G37*
%LPC*%
G36*
X1652570Y1264055D02*
X1642670D01*
X1642056Y1263933D01*
X1641535Y1263585D01*
X1641187Y1263064D01*
X1641065Y1262450D01*
Y1254831D01*
X1619924D01*
Y1256965D01*
X1619803Y1257573D01*
X1619459Y1258089D01*
X1618943Y1258434D01*
X1618335Y1258555D01*
X1611405D01*
X1610797Y1258434D01*
X1610281Y1258089D01*
X1609937Y1257573D01*
X1609816Y1256965D01*
Y1248035D01*
X1609937Y1247427D01*
X1610281Y1246911D01*
X1610797Y1246566D01*
X1611405Y1246445D01*
X1618335D01*
X1618943Y1246566D01*
X1619459Y1246911D01*
X1619803Y1247427D01*
X1619924Y1248035D01*
Y1250169D01*
X1641065D01*
Y1242550D01*
X1641187Y1241936D01*
X1641535Y1241415D01*
X1642056Y1241067D01*
X1642670Y1240945D01*
X1652570D01*
X1653184Y1241067D01*
X1653705Y1241415D01*
X1654053Y1241936D01*
X1654175Y1242550D01*
Y1262450D01*
X1654053Y1263064D01*
X1653705Y1263585D01*
X1653184Y1263933D01*
X1652570Y1264055D01*
D02*
G37*
G36*
X1276374Y1265410D02*
X1274018Y1265100D01*
X1271823Y1264191D01*
X1269938Y1262744D01*
X1268491Y1260859D01*
X1267582Y1258664D01*
X1267272Y1256308D01*
Y1251308D01*
X1267582Y1248952D01*
X1268491Y1246757D01*
X1269938Y1244872D01*
X1271823Y1243426D01*
X1274018Y1242516D01*
X1276374Y1242206D01*
X1278729Y1242516D01*
X1280924Y1243426D01*
X1282809Y1244872D01*
X1284256Y1246757D01*
X1285165Y1248952D01*
X1285475Y1251308D01*
Y1256308D01*
X1285165Y1258664D01*
X1284256Y1260859D01*
X1282809Y1262744D01*
X1280924Y1264191D01*
X1278729Y1265100D01*
X1276374Y1265410D01*
D02*
G37*
G36*
X1219773D02*
X1217418Y1265100D01*
X1215223Y1264191D01*
X1213337Y1262744D01*
X1211891Y1260859D01*
X1210982Y1258664D01*
X1210672Y1256308D01*
Y1251308D01*
X1210982Y1248952D01*
X1211891Y1246757D01*
X1213337Y1244872D01*
X1215223Y1243426D01*
X1217418Y1242516D01*
X1219773Y1242206D01*
X1222129Y1242516D01*
X1224324Y1243426D01*
X1226209Y1244872D01*
X1227656Y1246757D01*
X1228565Y1248952D01*
X1228875Y1251308D01*
Y1256308D01*
X1228565Y1258664D01*
X1227656Y1260859D01*
X1226209Y1262744D01*
X1224324Y1264191D01*
X1222129Y1265100D01*
X1219773Y1265410D01*
D02*
G37*
G36*
X1604335Y1258555D02*
X1597405D01*
X1596797Y1258434D01*
X1596281Y1258089D01*
X1595936Y1257573D01*
X1595815Y1256965D01*
Y1248035D01*
X1595936Y1247427D01*
X1596281Y1246911D01*
X1596797Y1246566D01*
X1597405Y1246445D01*
X1598539D01*
Y1244269D01*
X1596905D01*
X1596297Y1244148D01*
X1595781Y1243804D01*
X1595437Y1243288D01*
X1595316Y1242680D01*
Y1239013D01*
X1594142Y1238527D01*
X1591021Y1241648D01*
X1590264Y1242153D01*
X1589373Y1242331D01*
X1489174D01*
X1488282Y1242153D01*
X1487526Y1241648D01*
X1474346Y1228468D01*
X1473841Y1227712D01*
X1473663Y1226820D01*
Y1206959D01*
X1462317Y1195613D01*
X1411118D01*
X1402541Y1204191D01*
X1401784Y1204696D01*
X1400892Y1204874D01*
X1399626D01*
Y1213656D01*
X1399459Y1214494D01*
X1398984Y1215205D01*
X1398273Y1215680D01*
X1397435Y1215847D01*
X1386185D01*
X1385346Y1215680D01*
X1384635Y1215205D01*
X1384160Y1214494D01*
X1383993Y1213656D01*
Y1212971D01*
X1364721D01*
Y1213595D01*
X1364601Y1214200D01*
X1364258Y1214713D01*
X1363745Y1215056D01*
X1363139Y1215177D01*
X1357695D01*
X1357089Y1215056D01*
X1356576Y1214713D01*
X1356233Y1214200D01*
X1356113Y1213595D01*
Y1206650D01*
X1356233Y1206044D01*
X1356576Y1205531D01*
X1357089Y1205188D01*
X1357695Y1205068D01*
X1363139D01*
X1363745Y1205188D01*
X1364258Y1205531D01*
X1364601Y1206044D01*
X1364721Y1206650D01*
Y1207273D01*
X1368551D01*
Y1200677D01*
X1362947D01*
X1362341Y1200556D01*
X1361827Y1200213D01*
X1361483Y1199699D01*
X1361363Y1199092D01*
Y1193152D01*
X1361483Y1192546D01*
X1361827Y1192032D01*
X1362341Y1191688D01*
X1362947Y1191568D01*
X1372887D01*
X1373493Y1191688D01*
X1374007Y1192032D01*
X1374351Y1192546D01*
X1374471Y1193152D01*
Y1199092D01*
X1374351Y1199699D01*
X1374248Y1199853D01*
Y1207273D01*
X1383993D01*
Y1202406D01*
X1384160Y1201567D01*
X1384635Y1200856D01*
X1385346Y1200381D01*
X1386185Y1200215D01*
X1397284D01*
X1397298Y1200212D01*
X1399927D01*
X1408505Y1191634D01*
X1409261Y1191129D01*
X1410153Y1190952D01*
X1463282D01*
X1464174Y1191129D01*
X1464930Y1191634D01*
X1477642Y1204346D01*
X1478147Y1205102D01*
X1478325Y1205994D01*
Y1225855D01*
X1490139Y1237669D01*
X1588407D01*
X1594296Y1231781D01*
X1595052Y1231276D01*
X1595944Y1231098D01*
X1605039D01*
X1612571Y1223566D01*
X1613327Y1223061D01*
X1614219Y1222883D01*
X1618210D01*
X1618565Y1222450D01*
Y1216669D01*
X1615639D01*
X1615639Y1216669D01*
X1614548Y1216452D01*
X1613624Y1215834D01*
X1613624Y1215834D01*
X1611852Y1214062D01*
X1603719D01*
Y1217661D01*
X1604835D01*
X1605443Y1217782D01*
X1605959Y1218126D01*
X1606304Y1218642D01*
X1606425Y1219250D01*
Y1226180D01*
X1606304Y1226788D01*
X1605959Y1227304D01*
X1605443Y1227649D01*
X1604835Y1227770D01*
X1596905D01*
X1596297Y1227649D01*
X1595781Y1227304D01*
X1595437Y1226788D01*
X1595316Y1226180D01*
Y1219250D01*
X1595437Y1218642D01*
X1595781Y1218126D01*
X1596297Y1217782D01*
X1596905Y1217661D01*
X1598021D01*
Y1207028D01*
X1597545Y1206934D01*
X1597030Y1206590D01*
X1596686Y1206075D01*
X1596566Y1205468D01*
Y1205099D01*
X1593086D01*
Y1210460D01*
X1592964Y1211070D01*
X1592619Y1211588D01*
X1592101Y1211933D01*
X1591491Y1212055D01*
X1583571D01*
X1582961Y1211933D01*
X1582444Y1211588D01*
X1582098Y1211070D01*
X1581976Y1210460D01*
Y1199641D01*
X1581952Y1199520D01*
X1581952Y1199520D01*
Y1190439D01*
X1576430Y1184917D01*
X1461824D01*
Y1187018D01*
X1461702Y1187633D01*
X1461354Y1188153D01*
X1460833Y1188501D01*
X1460219Y1188623D01*
X1438819D01*
X1438205Y1188501D01*
X1437684Y1188153D01*
X1437336Y1187633D01*
X1437214Y1187018D01*
Y1184917D01*
X1431472D01*
Y1186028D01*
X1431350Y1186638D01*
X1431005Y1187156D01*
X1430487Y1187502D01*
X1429877Y1187623D01*
X1413457D01*
X1412847Y1187502D01*
X1412329Y1187156D01*
X1411984Y1186638D01*
X1411862Y1186028D01*
Y1178901D01*
X1411848Y1178830D01*
Y1176898D01*
X1394725Y1159774D01*
X1345512D01*
Y1161908D01*
X1345391Y1162517D01*
X1345047Y1163033D01*
X1344531Y1163377D01*
X1343923Y1163498D01*
X1336993D01*
X1336384Y1163377D01*
X1335869Y1163033D01*
X1335524Y1162517D01*
X1335403Y1161908D01*
Y1152979D01*
X1335524Y1152370D01*
X1335869Y1151854D01*
X1336384Y1151510D01*
X1336993Y1151389D01*
X1343923D01*
X1344531Y1151510D01*
X1345047Y1151854D01*
X1345391Y1152370D01*
X1345512Y1152979D01*
Y1155113D01*
X1395690D01*
X1396582Y1155290D01*
X1397338Y1155795D01*
X1415827Y1174284D01*
X1416332Y1175040D01*
X1416510Y1175932D01*
Y1176514D01*
X1429877D01*
X1430487Y1176635D01*
X1431005Y1176981D01*
X1431350Y1177498D01*
X1431472Y1178108D01*
Y1179220D01*
X1437214D01*
Y1177118D01*
X1437336Y1176504D01*
X1437684Y1175984D01*
X1438205Y1175636D01*
X1438819Y1175514D01*
X1460219D01*
X1460833Y1175636D01*
X1461354Y1175984D01*
X1461702Y1176504D01*
X1461824Y1177118D01*
Y1179220D01*
X1493180D01*
Y1113175D01*
X1474450D01*
X1474115Y1113772D01*
X1473933Y1114445D01*
X1474605Y1115451D01*
X1474879Y1116826D01*
X1474605Y1118201D01*
X1473876Y1119292D01*
X1473715Y1119654D01*
Y1120498D01*
X1473876Y1120861D01*
X1474605Y1121951D01*
X1474879Y1123326D01*
X1474605Y1124701D01*
X1473826Y1125867D01*
X1473715Y1125941D01*
Y1127211D01*
X1473826Y1127286D01*
X1474605Y1128451D01*
X1474879Y1129826D01*
X1474605Y1131201D01*
X1473826Y1132367D01*
X1472661Y1133146D01*
X1471286Y1133419D01*
X1463786D01*
X1462411Y1133146D01*
X1461245Y1132367D01*
X1460815Y1131723D01*
X1457136D01*
X1454381Y1134478D01*
X1453625Y1134983D01*
X1452733Y1135161D01*
X1302047D01*
X1298017Y1139191D01*
Y1149260D01*
X1313839Y1165083D01*
X1359897D01*
X1360789Y1165260D01*
X1361545Y1165766D01*
X1365327Y1169548D01*
X1365832Y1170304D01*
X1366010Y1171196D01*
Y1172568D01*
X1372887D01*
X1373493Y1172688D01*
X1374007Y1173032D01*
X1374351Y1173546D01*
X1374471Y1174152D01*
Y1180092D01*
X1374351Y1180699D01*
X1374007Y1181213D01*
X1373493Y1181556D01*
X1372887Y1181677D01*
X1362947D01*
X1362341Y1181556D01*
X1361827Y1181213D01*
X1361483Y1180699D01*
X1361363Y1180092D01*
Y1174956D01*
X1361348Y1174884D01*
Y1172162D01*
X1358931Y1169745D01*
X1312874D01*
X1311982Y1169567D01*
X1311226Y1169062D01*
X1294038Y1151874D01*
X1293532Y1151117D01*
X1293355Y1150226D01*
Y1138225D01*
X1293532Y1137334D01*
X1294038Y1136577D01*
X1299433Y1131182D01*
X1300189Y1130677D01*
X1301081Y1130499D01*
X1451767D01*
X1454523Y1127744D01*
X1455279Y1127239D01*
X1456171Y1127061D01*
X1459380D01*
X1460073Y1125791D01*
X1460013Y1125698D01*
X1459924Y1125657D01*
X1453986D01*
X1451791Y1127853D01*
X1451035Y1128358D01*
X1450143Y1128535D01*
X1289378D01*
X1288486Y1128358D01*
X1287730Y1127853D01*
X1270110Y1110232D01*
X1269604Y1109476D01*
X1269427Y1108584D01*
Y1059724D01*
X1269604Y1058832D01*
X1270110Y1058076D01*
X1288955Y1039230D01*
Y1009751D01*
X1278352Y999148D01*
X1277847Y998392D01*
X1277669Y997500D01*
Y919305D01*
X1275535D01*
X1274927Y919184D01*
X1274411Y918839D01*
X1274066Y918323D01*
X1273945Y917715D01*
Y916831D01*
X1271323D01*
Y917718D01*
X1271202Y918325D01*
X1270859Y918840D01*
X1270344Y919184D01*
X1269736Y919305D01*
X1260801D01*
X1260194Y919184D01*
X1259679Y918840D01*
X1259335Y918325D01*
X1259214Y917718D01*
Y911283D01*
X1259335Y910675D01*
X1259679Y910160D01*
X1260194Y909816D01*
X1260801Y909696D01*
X1269736D01*
X1270344Y909816D01*
X1270859Y910160D01*
X1271202Y910675D01*
X1271323Y911283D01*
Y912169D01*
X1273945D01*
Y910785D01*
X1274066Y910177D01*
X1274411Y909661D01*
X1274927Y909316D01*
X1275535Y909195D01*
X1284465D01*
X1285073Y909316D01*
X1285589Y909661D01*
X1285934Y910177D01*
X1286055Y910785D01*
Y917715D01*
X1285934Y918323D01*
X1285589Y918839D01*
X1285073Y919184D01*
X1284465Y919305D01*
X1282331D01*
Y996535D01*
X1292934Y1007138D01*
X1293439Y1007894D01*
X1293617Y1008786D01*
Y1040196D01*
X1293439Y1041088D01*
X1292934Y1041844D01*
X1274089Y1060689D01*
Y1107619D01*
X1290344Y1123874D01*
X1449177D01*
X1451373Y1121678D01*
X1452129Y1121173D01*
X1453021Y1120995D01*
X1460235D01*
X1460748Y1119768D01*
X1460689Y1119648D01*
X1460204Y1119157D01*
X1451315D01*
X1449136Y1121337D01*
X1448380Y1121842D01*
X1447488Y1122020D01*
X1296034D01*
X1295142Y1121842D01*
X1294386Y1121337D01*
X1282944Y1109895D01*
X1282438Y1109138D01*
X1282261Y1108247D01*
Y1062860D01*
X1282438Y1061968D01*
X1282944Y1061212D01*
X1295195Y1048961D01*
Y927474D01*
X1295372Y926582D01*
X1295878Y925826D01*
X1313955Y907749D01*
Y869208D01*
X1314133Y868316D01*
X1314638Y867560D01*
X1323846Y858352D01*
X1324602Y857847D01*
X1325494Y857669D01*
X1466535D01*
X1479519Y844684D01*
X1480276Y844179D01*
X1481167Y844002D01*
X1610896D01*
X1611788Y844179D01*
X1612544Y844684D01*
X1672822Y904962D01*
X1673327Y905718D01*
X1673504Y906610D01*
Y909983D01*
X1675094Y910642D01*
X1676718Y911888D01*
X1677964Y913512D01*
X1678748Y915403D01*
X1679015Y917432D01*
X1678748Y919462D01*
X1677964Y921353D01*
X1677186Y922368D01*
X1677812Y923638D01*
X1699053D01*
X1699946Y923815D01*
X1700702Y924320D01*
X1713506Y937125D01*
X1714011Y937881D01*
X1714189Y938773D01*
Y1133262D01*
X1714175Y1133332D01*
Y1147450D01*
X1714053Y1148064D01*
X1713705Y1148585D01*
X1713184Y1148933D01*
X1712570Y1149055D01*
X1702670D01*
X1702056Y1148933D01*
X1701535Y1148585D01*
X1701187Y1148064D01*
X1701065Y1147450D01*
Y1127550D01*
X1701187Y1126936D01*
X1701535Y1126415D01*
X1702056Y1126067D01*
X1702670Y1125945D01*
X1709527D01*
Y939738D01*
X1698088Y928299D01*
X1685762D01*
X1685276Y929473D01*
X1706713Y950909D01*
X1707218Y951665D01*
X1707395Y952557D01*
Y1116452D01*
X1707218Y1117345D01*
X1706713Y1118101D01*
X1699189Y1125624D01*
Y1133262D01*
X1699175Y1133332D01*
Y1147450D01*
X1699053Y1148064D01*
X1698705Y1148585D01*
X1698184Y1148933D01*
X1697570Y1149055D01*
X1687670D01*
X1687056Y1148933D01*
X1686535Y1148585D01*
X1686187Y1148064D01*
X1686065Y1147450D01*
Y1127550D01*
X1686187Y1126936D01*
X1686535Y1126415D01*
X1687056Y1126067D01*
X1687670Y1125945D01*
X1694527D01*
Y1124659D01*
X1694705Y1123767D01*
X1695210Y1123011D01*
X1702734Y1115487D01*
Y953522D01*
X1680559Y931347D01*
X1676716D01*
X1676230Y932521D01*
X1686948Y943239D01*
X1687454Y943995D01*
X1687631Y944887D01*
Y1021835D01*
X1700613Y1034817D01*
X1701118Y1035573D01*
X1701295Y1036465D01*
Y1108808D01*
X1701118Y1109700D01*
X1700613Y1110456D01*
X1684189Y1126880D01*
Y1133262D01*
X1684175Y1133332D01*
Y1147450D01*
X1684053Y1148064D01*
X1683705Y1148585D01*
X1683184Y1148933D01*
X1682570Y1149055D01*
X1672670D01*
X1672056Y1148933D01*
X1671535Y1148585D01*
X1671187Y1148064D01*
X1671065Y1147450D01*
Y1127550D01*
X1671187Y1126936D01*
X1671535Y1126415D01*
X1672056Y1126067D01*
X1672670Y1125945D01*
X1679527D01*
Y1125915D01*
X1679705Y1125023D01*
X1680210Y1124267D01*
X1696634Y1107842D01*
Y1037430D01*
X1683652Y1024448D01*
X1683147Y1023692D01*
X1682970Y1022800D01*
Y945853D01*
X1680255Y943139D01*
X1678914Y943594D01*
X1678748Y944862D01*
X1677964Y946753D01*
X1676718Y948377D01*
X1675094Y949623D01*
X1673203Y950406D01*
X1671174Y950674D01*
X1669144Y950406D01*
X1667554Y949748D01*
X1650157Y967145D01*
Y987445D01*
X1649980Y988337D01*
X1649474Y989093D01*
X1581428Y1057140D01*
Y1119124D01*
X1581251Y1120016D01*
X1580745Y1120772D01*
X1570043Y1131474D01*
X1569287Y1131980D01*
X1568395Y1132157D01*
X1530836D01*
X1530323Y1133384D01*
X1530382Y1133505D01*
X1530867Y1133996D01*
X1571051D01*
X1588269Y1116778D01*
Y1057804D01*
X1588446Y1056912D01*
X1588951Y1056156D01*
X1654570Y990537D01*
Y982505D01*
X1654747Y981613D01*
X1655253Y980857D01*
X1664258Y971852D01*
X1663600Y970262D01*
X1663333Y968232D01*
X1663600Y966203D01*
X1664383Y964312D01*
X1665629Y962688D01*
X1667253Y961442D01*
X1669144Y960659D01*
X1671174Y960391D01*
X1673203Y960659D01*
X1675094Y961442D01*
X1676718Y962688D01*
X1677964Y964312D01*
X1678748Y966203D01*
X1679015Y968232D01*
X1678748Y970262D01*
X1677964Y972153D01*
X1676718Y973777D01*
X1675094Y975023D01*
X1673203Y975806D01*
X1671174Y976074D01*
X1669144Y975806D01*
X1667554Y975148D01*
X1659232Y983471D01*
Y991502D01*
X1659054Y992394D01*
X1658549Y993150D01*
X1592930Y1058769D01*
Y1117743D01*
X1592753Y1118635D01*
X1592247Y1119391D01*
X1573665Y1137974D01*
X1572908Y1138480D01*
X1572016Y1138657D01*
X1529966D01*
X1529826Y1138867D01*
X1528661Y1139646D01*
X1527286Y1139919D01*
X1519786D01*
X1518411Y1139646D01*
X1517245Y1138867D01*
X1516466Y1137701D01*
X1516192Y1136326D01*
X1516466Y1134951D01*
X1517195Y1133861D01*
X1517356Y1133498D01*
Y1132654D01*
X1517195Y1132292D01*
X1516466Y1131201D01*
X1516192Y1129826D01*
X1516466Y1128451D01*
X1517245Y1127286D01*
X1517356Y1127211D01*
Y1125941D01*
X1517245Y1125867D01*
X1516466Y1124701D01*
X1516192Y1123326D01*
X1516466Y1121951D01*
X1517195Y1120861D01*
X1517356Y1120498D01*
Y1119654D01*
X1517195Y1119292D01*
X1516466Y1118201D01*
X1516192Y1116826D01*
X1516466Y1115451D01*
X1517138Y1114445D01*
X1516956Y1113772D01*
X1516621Y1113175D01*
X1498878D01*
Y1179220D01*
X1577610D01*
X1577610Y1179220D01*
X1578701Y1179436D01*
X1579625Y1180054D01*
X1586815Y1187245D01*
X1587433Y1188169D01*
X1587650Y1189259D01*
X1587650Y1189259D01*
Y1192445D01*
X1591491D01*
X1592101Y1192567D01*
X1592619Y1192912D01*
X1592964Y1193430D01*
X1593086Y1194040D01*
Y1199401D01*
X1596566D01*
Y1199033D01*
X1596686Y1198425D01*
X1597030Y1197910D01*
X1597545Y1197566D01*
X1598152Y1197446D01*
X1605036D01*
X1605108Y1197431D01*
X1606705D01*
X1610571Y1193566D01*
X1611327Y1193061D01*
X1612219Y1192883D01*
X1618210D01*
X1618565Y1192450D01*
Y1185593D01*
X1616241D01*
X1615349Y1185415D01*
X1614593Y1184910D01*
X1598203Y1168520D01*
X1597698Y1167764D01*
X1597520Y1166872D01*
Y1064955D01*
X1597698Y1064063D01*
X1598203Y1063307D01*
X1664258Y997252D01*
X1663600Y995662D01*
X1663333Y993633D01*
X1663600Y991603D01*
X1664383Y989712D01*
X1665629Y988088D01*
X1667253Y986842D01*
X1669144Y986059D01*
X1671174Y985791D01*
X1673203Y986059D01*
X1675094Y986842D01*
X1676718Y988088D01*
X1677964Y989712D01*
X1678748Y991603D01*
X1679015Y993633D01*
X1678748Y995662D01*
X1677964Y997553D01*
X1676718Y999177D01*
X1675094Y1000423D01*
X1673203Y1001206D01*
X1671174Y1001474D01*
X1669144Y1001206D01*
X1667554Y1000548D01*
X1602182Y1065920D01*
Y1165906D01*
X1617207Y1180931D01*
X1625882D01*
X1625952Y1180945D01*
X1640070D01*
X1640684Y1181067D01*
X1641205Y1181415D01*
X1641553Y1181936D01*
X1641675Y1182550D01*
Y1192450D01*
X1642030Y1192883D01*
X1643804D01*
X1647324Y1189363D01*
Y1159797D01*
X1634849Y1147321D01*
X1634343Y1146565D01*
X1634166Y1145673D01*
Y1112386D01*
X1634343Y1111494D01*
X1634849Y1110738D01*
X1652003Y1093584D01*
X1652759Y1093079D01*
X1653651Y1092902D01*
X1663725D01*
X1664383Y1091312D01*
X1665629Y1089688D01*
X1667253Y1088442D01*
X1669144Y1087658D01*
X1671174Y1087391D01*
X1673203Y1087658D01*
X1675094Y1088442D01*
X1676718Y1089688D01*
X1677964Y1091312D01*
X1678748Y1093203D01*
X1679015Y1095232D01*
X1678748Y1097262D01*
X1677964Y1099153D01*
X1676718Y1100777D01*
X1675094Y1102023D01*
X1673203Y1102806D01*
X1671174Y1103074D01*
X1669144Y1102806D01*
X1667253Y1102023D01*
X1665629Y1100777D01*
X1664383Y1099153D01*
X1663725Y1097563D01*
X1654616D01*
X1638828Y1113352D01*
Y1144708D01*
X1639892Y1145772D01*
X1641065Y1145286D01*
Y1127550D01*
X1641187Y1126936D01*
X1641535Y1126415D01*
X1642056Y1126067D01*
X1642670Y1125945D01*
X1649527D01*
Y1123231D01*
X1649705Y1122339D01*
X1650210Y1121582D01*
X1661940Y1109853D01*
X1662696Y1109347D01*
X1663588Y1109170D01*
X1674012D01*
X1680472Y1102711D01*
Y1085307D01*
X1672645Y1077480D01*
X1671174Y1077673D01*
X1669144Y1077406D01*
X1667253Y1076623D01*
X1665629Y1075377D01*
X1664383Y1073753D01*
X1663600Y1071862D01*
X1663333Y1069833D01*
X1663600Y1067803D01*
X1664383Y1065912D01*
X1665629Y1064288D01*
X1667253Y1063042D01*
X1669144Y1062259D01*
X1671174Y1061991D01*
X1673203Y1062259D01*
X1675094Y1063042D01*
X1676718Y1064288D01*
X1677964Y1065912D01*
X1678748Y1067803D01*
X1679015Y1069833D01*
X1678748Y1071862D01*
X1677964Y1073753D01*
X1676899Y1075142D01*
X1684451Y1082693D01*
X1684956Y1083449D01*
X1685133Y1084341D01*
Y1103676D01*
X1684956Y1104568D01*
X1684451Y1105324D01*
X1676626Y1113149D01*
X1675870Y1113654D01*
X1674978Y1113831D01*
X1664553D01*
X1654189Y1124196D01*
Y1133262D01*
X1654175Y1133332D01*
Y1147450D01*
X1654053Y1148064D01*
X1653705Y1148585D01*
X1653184Y1148933D01*
X1652570Y1149055D01*
X1644834D01*
X1644348Y1150228D01*
X1651303Y1157183D01*
X1651808Y1157939D01*
X1651985Y1158831D01*
Y1190329D01*
X1651808Y1191221D01*
X1651303Y1191977D01*
X1646418Y1196862D01*
X1645661Y1197367D01*
X1644769Y1197545D01*
X1641679D01*
X1641675Y1197550D01*
Y1204407D01*
X1644769D01*
X1645661Y1204585D01*
X1646418Y1205090D01*
X1649268Y1207941D01*
X1649773Y1208697D01*
X1649951Y1209589D01*
Y1222211D01*
X1649773Y1223103D01*
X1649268Y1223859D01*
X1646265Y1226862D01*
X1645509Y1227367D01*
X1644617Y1227545D01*
X1615185D01*
X1607652Y1235077D01*
X1606896Y1235582D01*
X1606481Y1235665D01*
X1606425Y1235750D01*
Y1242680D01*
X1606304Y1243288D01*
X1605959Y1243804D01*
X1605443Y1244148D01*
X1604835Y1244269D01*
X1603201D01*
Y1246445D01*
X1604335D01*
X1604943Y1246566D01*
X1605459Y1246911D01*
X1605804Y1247427D01*
X1605925Y1248035D01*
Y1256965D01*
X1605804Y1257573D01*
X1605459Y1258089D01*
X1604943Y1258434D01*
X1604335Y1258555D01*
D02*
G37*
G36*
X1261074Y1239146D02*
X1259796Y1238892D01*
X1258713Y1238168D01*
X1258587Y1237980D01*
X1257060D01*
X1256934Y1238168D01*
X1255851Y1238892D01*
X1254574Y1239146D01*
X1253296Y1238892D01*
X1252213Y1238168D01*
X1252087Y1237980D01*
X1250560D01*
X1250434Y1238168D01*
X1249351Y1238892D01*
X1248074Y1239146D01*
X1246796Y1238892D01*
X1245713Y1238168D01*
X1245587Y1237980D01*
X1244060D01*
X1243934Y1238168D01*
X1242851Y1238892D01*
X1241573Y1239146D01*
X1240296Y1238892D01*
X1239213Y1238168D01*
X1238489Y1237085D01*
X1238235Y1235808D01*
Y1219308D01*
X1238489Y1218031D01*
X1239213Y1216948D01*
X1240296Y1216224D01*
X1241573Y1215970D01*
X1242851Y1216224D01*
X1243934Y1216948D01*
X1244060Y1217136D01*
X1245587D01*
X1245713Y1216948D01*
X1246796Y1216224D01*
X1248074Y1215970D01*
X1249351Y1216224D01*
X1250434Y1216948D01*
X1250560Y1217136D01*
X1252087D01*
X1252213Y1216948D01*
X1253296Y1216224D01*
X1254574Y1215970D01*
X1255851Y1216224D01*
X1256934Y1216948D01*
X1256955Y1216979D01*
X1258225Y1216594D01*
Y1212915D01*
X1257911Y1212785D01*
X1257423Y1211607D01*
Y1208637D01*
X1257911Y1207459D01*
X1259089Y1206971D01*
X1263058D01*
X1263788Y1207273D01*
X1271120D01*
Y1206162D01*
X1271241Y1205552D01*
X1271587Y1205035D01*
X1272104Y1204689D01*
X1272714Y1204568D01*
X1289134D01*
X1289745Y1204689D01*
X1290262Y1205035D01*
X1290608Y1205552D01*
X1290729Y1206162D01*
Y1207273D01*
X1300845D01*
Y1206905D01*
X1300966Y1206297D01*
X1301310Y1205782D01*
X1301825Y1205439D01*
X1302432Y1205318D01*
X1311367D01*
X1311974Y1205439D01*
X1312489Y1205782D01*
X1312833Y1206297D01*
X1312954Y1206905D01*
Y1207273D01*
X1317159D01*
Y1206657D01*
X1317280Y1206049D01*
X1317625Y1205533D01*
X1318141Y1205189D01*
X1318749Y1205068D01*
X1327679D01*
X1328287Y1205189D01*
X1328803Y1205533D01*
X1329147Y1206049D01*
X1329268Y1206657D01*
Y1207273D01*
X1337113D01*
Y1206650D01*
X1337233Y1206044D01*
X1337576Y1205531D01*
X1338089Y1205188D01*
X1338568Y1205093D01*
Y1200677D01*
X1336447D01*
X1335841Y1200556D01*
X1335327Y1200213D01*
X1334983Y1199699D01*
X1334863Y1199092D01*
Y1193152D01*
X1334983Y1192546D01*
X1335327Y1192032D01*
X1335841Y1191688D01*
X1336447Y1191568D01*
X1346387D01*
X1346993Y1191688D01*
X1347507Y1192032D01*
X1347851Y1192546D01*
X1347971Y1193152D01*
Y1199092D01*
X1347851Y1199699D01*
X1347507Y1200213D01*
X1346993Y1200556D01*
X1346387Y1200677D01*
X1344266D01*
Y1205093D01*
X1344745Y1205188D01*
X1345258Y1205531D01*
X1345601Y1206044D01*
X1345721Y1206650D01*
Y1213595D01*
X1345601Y1214200D01*
X1345258Y1214713D01*
X1344745Y1215056D01*
X1344140Y1215177D01*
X1338694D01*
X1338089Y1215056D01*
X1337576Y1214713D01*
X1337233Y1214200D01*
X1337113Y1213595D01*
Y1212971D01*
X1329268D01*
Y1213587D01*
X1329147Y1214195D01*
X1328803Y1214711D01*
X1328287Y1215056D01*
X1327679Y1215177D01*
X1318749D01*
X1318141Y1215056D01*
X1317625Y1214711D01*
X1317280Y1214195D01*
X1317159Y1213587D01*
Y1212971D01*
X1312954D01*
Y1213340D01*
X1312833Y1213947D01*
X1312489Y1214462D01*
X1311974Y1214806D01*
X1311367Y1214927D01*
X1309748D01*
Y1227818D01*
X1310382D01*
X1310983Y1227938D01*
X1311493Y1228278D01*
X1311834Y1228788D01*
X1311954Y1229390D01*
Y1232855D01*
X1311834Y1233456D01*
X1311493Y1233966D01*
X1310983Y1234307D01*
X1310382Y1234426D01*
X1303417D01*
X1302816Y1234307D01*
X1302306Y1233966D01*
X1301965Y1233456D01*
X1301845Y1232855D01*
Y1229390D01*
X1301965Y1228788D01*
X1302306Y1228278D01*
X1302816Y1227938D01*
X1303417Y1227818D01*
X1304051D01*
Y1214927D01*
X1302432D01*
X1301825Y1214806D01*
X1301310Y1214462D01*
X1300966Y1213947D01*
X1300845Y1213340D01*
Y1212971D01*
X1290729D01*
Y1214082D01*
X1290608Y1214693D01*
X1290262Y1215210D01*
X1289745Y1215555D01*
X1289134Y1215677D01*
X1272714D01*
X1272104Y1215555D01*
X1271587Y1215210D01*
X1271241Y1214693D01*
X1271120Y1214082D01*
Y1212971D01*
X1263922D01*
Y1217679D01*
X1264157Y1218031D01*
X1264412Y1219308D01*
Y1226433D01*
X1265682Y1227067D01*
X1266503Y1226517D01*
X1268074Y1226205D01*
X1269644Y1226517D01*
X1270975Y1227407D01*
X1271248Y1227816D01*
X1272518Y1227431D01*
Y1220388D01*
X1272643Y1219762D01*
X1272997Y1219232D01*
X1273528Y1218877D01*
X1274154Y1218753D01*
X1289993D01*
X1290619Y1218877D01*
X1291150Y1219232D01*
X1291504Y1219762D01*
X1291629Y1220388D01*
Y1236228D01*
X1291504Y1236854D01*
X1291150Y1237384D01*
X1290619Y1237739D01*
X1289993Y1237863D01*
X1274154D01*
X1273528Y1237739D01*
X1272997Y1237384D01*
X1272643Y1236854D01*
X1272518Y1236228D01*
Y1233185D01*
X1271248Y1232800D01*
X1270975Y1233209D01*
X1269644Y1234099D01*
X1268074Y1234411D01*
X1266503Y1234099D01*
X1265682Y1233549D01*
X1264412Y1234183D01*
Y1235808D01*
X1264157Y1237085D01*
X1263434Y1238168D01*
X1262351Y1238892D01*
X1261074Y1239146D01*
D02*
G37*
G36*
X1221993Y1237863D02*
X1206153D01*
X1205528Y1237739D01*
X1204997Y1237384D01*
X1204642Y1236854D01*
X1204518Y1236228D01*
Y1220388D01*
X1204642Y1219762D01*
X1204997Y1219232D01*
X1205528Y1218877D01*
X1206153Y1218753D01*
X1221993D01*
X1222619Y1218877D01*
X1223150Y1219232D01*
X1223504Y1219762D01*
X1223629Y1220388D01*
Y1227431D01*
X1224899Y1227816D01*
X1225172Y1227407D01*
X1226503Y1226517D01*
X1228074Y1226205D01*
X1229643Y1226517D01*
X1230975Y1227407D01*
X1231864Y1228738D01*
X1232176Y1230308D01*
X1231864Y1231878D01*
X1230975Y1233209D01*
X1229643Y1234099D01*
X1228074Y1234411D01*
X1226503Y1234099D01*
X1225172Y1233209D01*
X1224899Y1232800D01*
X1223629Y1233185D01*
Y1236228D01*
X1223504Y1236854D01*
X1223150Y1237384D01*
X1222619Y1237739D01*
X1221993Y1237863D01*
D02*
G37*
G36*
X1263058Y1204273D02*
X1261835D01*
Y1201884D01*
X1264724D01*
Y1202607D01*
X1264236Y1203785D01*
X1263058Y1204273D01*
D02*
G37*
G36*
X1260312D02*
X1259089D01*
X1257911Y1203785D01*
X1257423Y1202607D01*
Y1201884D01*
X1260312D01*
Y1204273D01*
D02*
G37*
G36*
X1402443Y1250655D02*
X1402443Y1250655D01*
X1380326D01*
X1379236Y1250438D01*
X1378311Y1249821D01*
X1378311Y1249821D01*
X1362462Y1233971D01*
X1355221D01*
Y1234595D01*
X1355101Y1235200D01*
X1354758Y1235713D01*
X1354245Y1236056D01*
X1353640Y1236177D01*
X1348194D01*
X1347589Y1236056D01*
X1347076Y1235713D01*
X1346733Y1235200D01*
X1346613Y1234595D01*
Y1233971D01*
X1333486D01*
X1332983Y1234307D01*
X1332382Y1234426D01*
X1325417D01*
X1324816Y1234307D01*
X1324306Y1233966D01*
X1323965Y1233456D01*
X1323845Y1232855D01*
Y1229390D01*
X1323965Y1228788D01*
X1324306Y1228278D01*
X1324816Y1227938D01*
X1325417Y1227818D01*
X1332382D01*
X1332983Y1227938D01*
X1333486Y1228273D01*
X1346613D01*
Y1227650D01*
X1346733Y1227044D01*
X1347076Y1226531D01*
X1347589Y1226188D01*
X1348194Y1226068D01*
X1353640D01*
X1354245Y1226188D01*
X1354758Y1226531D01*
X1355101Y1227044D01*
X1355221Y1227650D01*
Y1228273D01*
X1363642D01*
X1363642Y1228273D01*
X1364732Y1228490D01*
X1365656Y1229108D01*
X1381506Y1244958D01*
X1401263D01*
X1412197Y1234024D01*
Y1230798D01*
X1412197Y1230798D01*
X1412221Y1230677D01*
Y1224108D01*
X1412342Y1223498D01*
X1412688Y1222981D01*
X1413205Y1222635D01*
X1413816Y1222514D01*
X1430236D01*
X1430846Y1222635D01*
X1431363Y1222981D01*
X1431709Y1223498D01*
X1431830Y1224108D01*
Y1225220D01*
X1437214D01*
Y1223118D01*
X1437336Y1222504D01*
X1437684Y1221984D01*
X1438205Y1221636D01*
X1438819Y1221514D01*
X1446670D01*
Y1211623D01*
X1438819D01*
X1438205Y1211501D01*
X1437684Y1211153D01*
X1437336Y1210632D01*
X1437214Y1210018D01*
Y1200118D01*
X1437336Y1199504D01*
X1437684Y1198984D01*
X1438205Y1198636D01*
X1438819Y1198513D01*
X1460219D01*
X1460833Y1198636D01*
X1461354Y1198984D01*
X1461702Y1199504D01*
X1461824Y1200118D01*
Y1210018D01*
X1461702Y1210632D01*
X1461354Y1211153D01*
X1460833Y1211501D01*
X1460219Y1211623D01*
X1452368D01*
Y1221514D01*
X1460219D01*
X1460833Y1221636D01*
X1461354Y1221984D01*
X1461702Y1222504D01*
X1461824Y1223118D01*
Y1233018D01*
X1461702Y1233633D01*
X1461354Y1234153D01*
X1460833Y1234501D01*
X1460219Y1234623D01*
X1438819D01*
X1438205Y1234501D01*
X1437684Y1234153D01*
X1437336Y1233633D01*
X1437214Y1233018D01*
Y1230917D01*
X1431830D01*
Y1232028D01*
X1431709Y1232639D01*
X1431363Y1233156D01*
X1430846Y1233502D01*
X1430236Y1233623D01*
X1417894D01*
Y1235204D01*
X1417894Y1235204D01*
X1417677Y1236294D01*
X1417060Y1237219D01*
X1417060Y1237219D01*
X1404458Y1249821D01*
X1403534Y1250438D01*
X1402443Y1250655D01*
D02*
G37*
G36*
X1264724Y1200360D02*
X1261835D01*
Y1197971D01*
X1263058D01*
X1264236Y1198459D01*
X1264724Y1199637D01*
Y1200360D01*
D02*
G37*
G36*
X1260312D02*
X1257423D01*
Y1199637D01*
X1257911Y1198459D01*
X1259089Y1197971D01*
X1260312D01*
Y1200360D01*
D02*
G37*
G36*
X1327679Y1201177D02*
X1323976D01*
Y1196884D01*
X1329268D01*
Y1199587D01*
X1329147Y1200195D01*
X1328803Y1200711D01*
X1328287Y1201056D01*
X1327679Y1201177D01*
D02*
G37*
G36*
X1322452D02*
X1318749D01*
X1318141Y1201056D01*
X1317625Y1200711D01*
X1317280Y1200195D01*
X1317159Y1199587D01*
Y1196884D01*
X1322452D01*
Y1201177D01*
D02*
G37*
G36*
X1311367Y1200427D02*
X1307661D01*
Y1196384D01*
X1312954D01*
Y1198840D01*
X1312833Y1199447D01*
X1312489Y1199962D01*
X1311974Y1200306D01*
X1311367Y1200427D01*
D02*
G37*
G36*
X1306138D02*
X1302432D01*
X1301825Y1200306D01*
X1301310Y1199962D01*
X1300966Y1199447D01*
X1300845Y1198840D01*
Y1196384D01*
X1306138D01*
Y1200427D01*
D02*
G37*
G36*
X1329268Y1195360D02*
X1323976D01*
Y1191068D01*
X1327679D01*
X1328287Y1191189D01*
X1328803Y1191533D01*
X1329147Y1192049D01*
X1329268Y1192657D01*
Y1195360D01*
D02*
G37*
G36*
X1322452D02*
X1317159D01*
Y1192657D01*
X1317280Y1192049D01*
X1317625Y1191533D01*
X1318141Y1191189D01*
X1318749Y1191068D01*
X1322452D01*
Y1195360D01*
D02*
G37*
G36*
X1312954Y1194860D02*
X1307661D01*
Y1190818D01*
X1311367D01*
X1311974Y1190938D01*
X1312489Y1191283D01*
X1312833Y1191797D01*
X1312954Y1192405D01*
Y1194860D01*
D02*
G37*
G36*
X1306138D02*
X1300845D01*
Y1192405D01*
X1300966Y1191797D01*
X1301310Y1191283D01*
X1301825Y1190938D01*
X1302432Y1190818D01*
X1306138D01*
Y1194860D01*
D02*
G37*
G36*
X1607088Y1192554D02*
X1603382D01*
Y1188512D01*
X1608674D01*
Y1190967D01*
X1608554Y1191575D01*
X1608210Y1192090D01*
X1607695Y1192434D01*
X1607088Y1192554D01*
D02*
G37*
G36*
X1601858D02*
X1598152D01*
X1597545Y1192434D01*
X1597030Y1192090D01*
X1596686Y1191575D01*
X1596566Y1190967D01*
Y1188512D01*
X1601858D01*
Y1192554D01*
D02*
G37*
G36*
X1608674Y1186988D02*
X1603382D01*
Y1182945D01*
X1607088D01*
X1607695Y1183066D01*
X1608210Y1183410D01*
X1608554Y1183925D01*
X1608674Y1184532D01*
Y1186988D01*
D02*
G37*
G36*
X1601858D02*
X1596566D01*
Y1184532D01*
X1596686Y1183925D01*
X1597030Y1183410D01*
X1597545Y1183066D01*
X1598152Y1182945D01*
X1601858D01*
Y1186988D01*
D02*
G37*
G36*
X1314281Y1183177D02*
X1311577D01*
Y1177884D01*
X1315870D01*
Y1181587D01*
X1315749Y1182196D01*
X1315404Y1182711D01*
X1314889Y1183056D01*
X1314281Y1183177D01*
D02*
G37*
G36*
X1310054D02*
X1307350D01*
X1306742Y1183056D01*
X1306227Y1182711D01*
X1305882Y1182196D01*
X1305761Y1181587D01*
Y1177884D01*
X1310054D01*
Y1183177D01*
D02*
G37*
G36*
X1328280D02*
X1321351D01*
X1320742Y1183056D01*
X1320226Y1182711D01*
X1319882Y1182196D01*
X1319761Y1181587D01*
Y1172657D01*
X1319882Y1172049D01*
X1320226Y1171533D01*
X1320742Y1171189D01*
X1321351Y1171068D01*
X1328280D01*
X1328889Y1171189D01*
X1329404Y1171533D01*
X1329749Y1172049D01*
X1329870Y1172657D01*
Y1174791D01*
X1334863D01*
Y1174152D01*
X1334983Y1173546D01*
X1335327Y1173032D01*
X1335841Y1172688D01*
X1336447Y1172568D01*
X1346387D01*
X1346993Y1172688D01*
X1347507Y1173032D01*
X1347851Y1173546D01*
X1347971Y1174152D01*
Y1180092D01*
X1347851Y1180699D01*
X1347507Y1181213D01*
X1346993Y1181556D01*
X1346387Y1181677D01*
X1336447D01*
X1335841Y1181556D01*
X1335327Y1181213D01*
X1334983Y1180699D01*
X1334863Y1180092D01*
Y1179453D01*
X1329870D01*
Y1181587D01*
X1329749Y1182196D01*
X1329404Y1182711D01*
X1328889Y1183056D01*
X1328280Y1183177D01*
D02*
G37*
G36*
X1315870Y1176360D02*
X1311577D01*
Y1171068D01*
X1314281D01*
X1314889Y1171189D01*
X1315404Y1171533D01*
X1315749Y1172049D01*
X1315870Y1172657D01*
Y1176360D01*
D02*
G37*
G36*
X1310054D02*
X1305761D01*
Y1172657D01*
X1305882Y1172049D01*
X1306227Y1171533D01*
X1306742Y1171189D01*
X1307350Y1171068D01*
X1310054D01*
Y1176360D01*
D02*
G37*
G36*
X1329923Y1163498D02*
X1322993D01*
X1322384Y1163377D01*
X1321869Y1163033D01*
X1321524Y1162517D01*
X1321403Y1161908D01*
Y1152979D01*
X1321524Y1152370D01*
X1321869Y1151854D01*
X1322384Y1151510D01*
X1322993Y1151389D01*
X1324127D01*
Y1148555D01*
X1323240D01*
X1322633Y1148434D01*
X1322118Y1148090D01*
X1321774Y1147575D01*
X1321653Y1146967D01*
Y1144831D01*
X1308062D01*
X1307440Y1145762D01*
X1305943Y1146761D01*
X1304178Y1147113D01*
X1302413Y1146761D01*
X1300917Y1145762D01*
X1299917Y1144265D01*
X1299566Y1142500D01*
X1299917Y1140735D01*
X1300917Y1139238D01*
X1302413Y1138239D01*
X1304178Y1137887D01*
X1305943Y1138239D01*
X1307440Y1139238D01*
X1308062Y1140169D01*
X1321653D01*
Y1138033D01*
X1321774Y1137425D01*
X1322118Y1136910D01*
X1322633Y1136566D01*
X1323240Y1136445D01*
X1329675D01*
X1330283Y1136566D01*
X1330797Y1136910D01*
X1331142Y1137425D01*
X1331262Y1138033D01*
Y1146967D01*
X1331142Y1147575D01*
X1330797Y1148090D01*
X1330283Y1148434D01*
X1329675Y1148555D01*
X1328788D01*
Y1151389D01*
X1329923D01*
X1330531Y1151510D01*
X1331047Y1151854D01*
X1331391Y1152370D01*
X1331512Y1152979D01*
Y1161908D01*
X1331391Y1162517D01*
X1331047Y1163033D01*
X1330531Y1163377D01*
X1329923Y1163498D01*
D02*
G37*
G36*
X1344175Y1148555D02*
X1341720D01*
Y1143262D01*
X1345762D01*
Y1146967D01*
X1345641Y1147575D01*
X1345297Y1148090D01*
X1344783Y1148434D01*
X1344175Y1148555D01*
D02*
G37*
G36*
X1340196D02*
X1337740D01*
X1337133Y1148434D01*
X1336618Y1148090D01*
X1336274Y1147575D01*
X1336153Y1146967D01*
Y1143262D01*
X1340196D01*
Y1148555D01*
D02*
G37*
G36*
X1345762Y1141738D02*
X1341720D01*
Y1136445D01*
X1344175D01*
X1344783Y1136566D01*
X1345297Y1136910D01*
X1345641Y1137425D01*
X1345762Y1138033D01*
Y1141738D01*
D02*
G37*
G36*
X1340196D02*
X1336153D01*
Y1138033D01*
X1336274Y1137425D01*
X1336618Y1136910D01*
X1337133Y1136566D01*
X1337740Y1136445D01*
X1340196D01*
Y1141738D01*
D02*
G37*
G36*
X1667570Y1149055D02*
X1657670D01*
X1657056Y1148933D01*
X1656535Y1148585D01*
X1656187Y1148064D01*
X1656065Y1147450D01*
Y1127550D01*
X1656187Y1126936D01*
X1656535Y1126415D01*
X1657056Y1126067D01*
X1657670Y1125945D01*
X1664527D01*
Y1122847D01*
X1664705Y1121955D01*
X1665210Y1121199D01*
X1668554Y1117855D01*
X1669310Y1117349D01*
X1670202Y1117172D01*
X1677842D01*
X1690289Y1104725D01*
Y1065844D01*
X1675419Y1050974D01*
X1675094Y1051223D01*
X1673203Y1052006D01*
X1671174Y1052273D01*
X1669144Y1052006D01*
X1667253Y1051223D01*
X1665629Y1049977D01*
X1664383Y1048353D01*
X1663600Y1046462D01*
X1663333Y1044433D01*
X1663600Y1042403D01*
X1664383Y1040512D01*
X1665629Y1038888D01*
X1667253Y1037642D01*
X1669144Y1036859D01*
X1671174Y1036591D01*
X1673203Y1036859D01*
X1675094Y1037642D01*
X1676718Y1038888D01*
X1677964Y1040512D01*
X1678748Y1042403D01*
X1679015Y1044433D01*
X1678748Y1046462D01*
X1678382Y1047344D01*
X1694268Y1063230D01*
X1694773Y1063987D01*
X1694951Y1064879D01*
Y1105691D01*
X1694773Y1106582D01*
X1694268Y1107339D01*
X1680456Y1121151D01*
X1679700Y1121656D01*
X1678808Y1121833D01*
X1671167D01*
X1669189Y1123812D01*
Y1133262D01*
X1669175Y1133332D01*
Y1147450D01*
X1669053Y1148064D01*
X1668705Y1148585D01*
X1668184Y1148933D01*
X1667570Y1149055D01*
D02*
G37*
G36*
X1640070Y1179055D02*
X1620170D01*
X1619556Y1178933D01*
X1619035Y1178585D01*
X1618687Y1178064D01*
X1618565Y1177450D01*
Y1170593D01*
X1615930D01*
X1615038Y1170415D01*
X1614282Y1169910D01*
X1607671Y1163299D01*
X1607166Y1162543D01*
X1606988Y1161651D01*
Y1080887D01*
X1607166Y1079995D01*
X1607671Y1079239D01*
X1664258Y1022652D01*
X1663600Y1021062D01*
X1663333Y1019033D01*
X1663600Y1017003D01*
X1664383Y1015112D01*
X1665629Y1013488D01*
X1667253Y1012242D01*
X1669144Y1011459D01*
X1671174Y1011191D01*
X1673203Y1011459D01*
X1675094Y1012242D01*
X1676718Y1013488D01*
X1677964Y1015112D01*
X1678748Y1017003D01*
X1679015Y1019033D01*
X1678748Y1021062D01*
X1677964Y1022953D01*
X1676718Y1024577D01*
X1675094Y1025823D01*
X1673203Y1026606D01*
X1671174Y1026873D01*
X1669144Y1026606D01*
X1667554Y1025948D01*
X1611650Y1081853D01*
Y1160686D01*
X1616895Y1165931D01*
X1625882D01*
X1625952Y1165945D01*
X1640070D01*
X1640684Y1166067D01*
X1641205Y1166415D01*
X1641553Y1166936D01*
X1641675Y1167550D01*
Y1177450D01*
X1641553Y1178064D01*
X1641205Y1178585D01*
X1640684Y1178933D01*
X1640070Y1179055D01*
D02*
G37*
G36*
X1269736Y904805D02*
X1266031D01*
Y900762D01*
X1271323D01*
Y903217D01*
X1271202Y903825D01*
X1270859Y904340D01*
X1270344Y904684D01*
X1269736Y904805D01*
D02*
G37*
G36*
X1264507D02*
X1260801D01*
X1260194Y904684D01*
X1259679Y904340D01*
X1259335Y903825D01*
X1259214Y903217D01*
Y900762D01*
X1264507D01*
Y904805D01*
D02*
G37*
G36*
X1271323Y899238D02*
X1266031D01*
Y895195D01*
X1269736D01*
X1270344Y895316D01*
X1270859Y895660D01*
X1271202Y896175D01*
X1271323Y896783D01*
Y899238D01*
D02*
G37*
G36*
X1264507D02*
X1259214D01*
Y896783D01*
X1259335Y896175D01*
X1259679Y895660D01*
X1260194Y895316D01*
X1260801Y895195D01*
X1264507D01*
Y899238D01*
D02*
G37*
G36*
X1284465Y905305D02*
X1275535D01*
X1274927Y905184D01*
X1274411Y904839D01*
X1274066Y904323D01*
X1273945Y903715D01*
Y896785D01*
X1274066Y896177D01*
X1274411Y895661D01*
X1274927Y895316D01*
X1275535Y895195D01*
X1277669D01*
Y890308D01*
X1277253Y890253D01*
X1274693Y889193D01*
X1272494Y887506D01*
X1270807Y885307D01*
X1269747Y882747D01*
X1269385Y880000D01*
X1269747Y877253D01*
X1270807Y874693D01*
X1272494Y872494D01*
X1274693Y870807D01*
X1277253Y869747D01*
X1280000Y869385D01*
X1282747Y869747D01*
X1285307Y870807D01*
X1287506Y872494D01*
X1289193Y874693D01*
X1290253Y877253D01*
X1290615Y880000D01*
X1290253Y882747D01*
X1289193Y885307D01*
X1287506Y887506D01*
X1285307Y889193D01*
X1282747Y890253D01*
X1282331Y890308D01*
Y895195D01*
X1284465D01*
X1285073Y895316D01*
X1285589Y895661D01*
X1285934Y896177D01*
X1286055Y896785D01*
Y903715D01*
X1285934Y904323D01*
X1285589Y904839D01*
X1285073Y905184D01*
X1284465Y905305D01*
D02*
G37*
%LPD*%
G36*
X1645289Y1221245D02*
Y1210554D01*
X1643804Y1209069D01*
X1634358D01*
X1634288Y1209055D01*
X1620170D01*
X1619556Y1208933D01*
X1619035Y1208585D01*
X1618687Y1208064D01*
X1618565Y1207450D01*
Y1197550D01*
X1618561Y1197545D01*
X1613184D01*
X1609319Y1201410D01*
X1608674Y1201841D01*
Y1205468D01*
X1608554Y1206075D01*
X1608210Y1206590D01*
X1607695Y1206934D01*
X1607088Y1207055D01*
X1603719D01*
Y1208364D01*
X1613032D01*
X1613032Y1208364D01*
X1614122Y1208581D01*
X1615046Y1209199D01*
X1616819Y1210971D01*
X1620039D01*
X1620170Y1210945D01*
X1640070D01*
X1640684Y1211067D01*
X1641205Y1211415D01*
X1641553Y1211936D01*
X1641675Y1212550D01*
Y1222450D01*
X1642030Y1222883D01*
X1643651D01*
X1645289Y1221245D01*
D02*
G37*
G36*
X1448702Y1115178D02*
X1449458Y1114673D01*
X1450350Y1114495D01*
X1461105D01*
X1461245Y1114286D01*
X1461356Y1114211D01*
Y1112941D01*
X1461245Y1112867D01*
X1460466Y1111701D01*
X1460193Y1110326D01*
X1460466Y1108951D01*
X1461195Y1107861D01*
X1461356Y1107498D01*
Y1107323D01*
X1460204Y1106157D01*
X1455041D01*
X1446377Y1114821D01*
X1445621Y1115326D01*
X1444729Y1115504D01*
X1306152D01*
X1305260Y1115326D01*
X1304504Y1114821D01*
X1290994Y1101311D01*
X1290489Y1100555D01*
X1290311Y1099663D01*
Y1071735D01*
X1290489Y1070843D01*
X1290994Y1070087D01*
X1301529Y1059552D01*
Y1008640D01*
X1301706Y1007748D01*
X1302212Y1006992D01*
X1312669Y996535D01*
Y955000D01*
X1312847Y954108D01*
X1313352Y953352D01*
X1341669Y925035D01*
Y920786D01*
X1341033D01*
X1340425Y920665D01*
X1339910Y920321D01*
X1339566Y919806D01*
X1339445Y919199D01*
Y910264D01*
X1339566Y909656D01*
X1339910Y909141D01*
X1340425Y908798D01*
X1341033Y908677D01*
X1341669D01*
Y906055D01*
X1340535D01*
X1339927Y905934D01*
X1339411Y905589D01*
X1339066Y905073D01*
X1338945Y904465D01*
Y895535D01*
X1339066Y894927D01*
X1339411Y894411D01*
X1339927Y894066D01*
X1340535Y893945D01*
X1347465D01*
X1348073Y894066D01*
X1348589Y894411D01*
X1348934Y894927D01*
X1349055Y895535D01*
Y904465D01*
X1348934Y905073D01*
X1348589Y905589D01*
X1348073Y905934D01*
X1347465Y906055D01*
X1346331D01*
Y908677D01*
X1347467D01*
X1348075Y908798D01*
X1348590Y909141D01*
X1348934Y909656D01*
X1349055Y910264D01*
Y919199D01*
X1348934Y919806D01*
X1348590Y920321D01*
X1348075Y920665D01*
X1347467Y920786D01*
X1346331D01*
Y926000D01*
X1346153Y926892D01*
X1345648Y927648D01*
X1317331Y955965D01*
Y997500D01*
X1317153Y998392D01*
X1316648Y999148D01*
X1306190Y1009606D01*
Y1060518D01*
X1306013Y1061409D01*
X1305508Y1062166D01*
X1294973Y1072701D01*
Y1098698D01*
X1307117Y1110842D01*
X1443763D01*
X1452427Y1102178D01*
X1453184Y1101673D01*
X1454075Y1101496D01*
X1460235D01*
X1460748Y1100268D01*
X1460689Y1100148D01*
X1460204Y1099657D01*
X1445205D01*
X1436388Y1108474D01*
X1435632Y1108980D01*
X1434740Y1109157D01*
X1311913D01*
X1311021Y1108980D01*
X1310265Y1108474D01*
X1302212Y1100421D01*
X1301706Y1099665D01*
X1301529Y1098773D01*
Y1072726D01*
X1301706Y1071834D01*
X1302212Y1071078D01*
X1314928Y1058361D01*
X1315685Y1057856D01*
X1316577Y1057679D01*
X1352478D01*
X1361919Y1048238D01*
Y1046055D01*
X1361033D01*
X1360425Y1045934D01*
X1359910Y1045590D01*
X1359566Y1045075D01*
X1359445Y1044467D01*
Y1035533D01*
X1359566Y1034925D01*
X1359910Y1034410D01*
X1360425Y1034066D01*
X1361033Y1033945D01*
X1361919D01*
Y1031055D01*
X1360535D01*
X1359927Y1030934D01*
X1359411Y1030589D01*
X1359066Y1030073D01*
X1358945Y1029465D01*
Y1020535D01*
X1359066Y1019927D01*
X1359411Y1019411D01*
X1359927Y1019066D01*
X1360535Y1018945D01*
X1367465D01*
X1368073Y1019066D01*
X1368589Y1019411D01*
X1368934Y1019927D01*
X1369055Y1020535D01*
Y1029465D01*
X1368934Y1030073D01*
X1368589Y1030589D01*
X1368073Y1030934D01*
X1367465Y1031055D01*
X1366581D01*
Y1033945D01*
X1367467D01*
X1368075Y1034066D01*
X1368590Y1034410D01*
X1368934Y1034925D01*
X1369055Y1035533D01*
Y1044467D01*
X1368934Y1045075D01*
X1368590Y1045590D01*
X1368075Y1045934D01*
X1367467Y1046055D01*
X1366581D01*
Y1049203D01*
X1366403Y1050095D01*
X1365898Y1050851D01*
X1355092Y1061658D01*
X1354335Y1062163D01*
X1353443Y1062340D01*
X1317542D01*
X1306190Y1073692D01*
Y1097807D01*
X1312879Y1104495D01*
X1433775D01*
X1442592Y1095678D01*
X1443348Y1095173D01*
X1444240Y1094995D01*
X1460235D01*
X1460748Y1093768D01*
X1460689Y1093648D01*
X1460204Y1093157D01*
X1434083D01*
X1425213Y1102028D01*
X1424456Y1102533D01*
X1423564Y1102710D01*
X1316414D01*
X1315522Y1102533D01*
X1314765Y1102028D01*
X1309310Y1096572D01*
X1308805Y1095816D01*
X1308627Y1094924D01*
Y1074760D01*
X1308805Y1073868D01*
X1309310Y1073112D01*
X1317514Y1064908D01*
X1318271Y1064403D01*
X1319162Y1064225D01*
X1371145D01*
X1392105Y1043265D01*
Y952939D01*
X1392282Y952047D01*
X1392787Y951291D01*
X1492512Y851567D01*
X1493268Y851061D01*
X1494160Y850884D01*
X1601505D01*
X1602397Y851061D01*
X1603153Y851567D01*
X1663788Y912201D01*
X1665363Y912234D01*
X1665629Y911888D01*
X1667253Y910642D01*
X1668843Y909983D01*
Y907576D01*
X1609931Y848663D01*
X1482133D01*
X1469148Y861648D01*
X1468392Y862153D01*
X1467500Y862331D01*
X1326459D01*
X1318617Y870173D01*
Y876662D01*
X1319887Y876915D01*
X1320807Y874693D01*
X1322494Y872494D01*
X1324693Y870807D01*
X1327253Y869747D01*
X1330000Y869385D01*
X1332747Y869747D01*
X1335307Y870807D01*
X1337506Y872494D01*
X1339193Y874693D01*
X1340253Y877253D01*
X1340615Y880000D01*
X1340253Y882747D01*
X1339193Y885307D01*
X1337506Y887506D01*
X1335307Y889193D01*
X1332747Y890253D01*
X1332331Y890308D01*
Y893945D01*
X1333465D01*
X1334073Y894066D01*
X1334589Y894411D01*
X1334933Y894927D01*
X1335054Y895535D01*
Y904465D01*
X1334933Y905073D01*
X1334589Y905589D01*
X1334073Y905934D01*
X1333465Y906055D01*
X1326535D01*
X1325927Y905934D01*
X1325411Y905589D01*
X1325066Y905073D01*
X1324945Y904465D01*
Y895535D01*
X1325066Y894927D01*
X1325411Y894411D01*
X1325927Y894066D01*
X1326535Y893945D01*
X1327669D01*
Y890308D01*
X1327253Y890253D01*
X1324693Y889193D01*
X1322494Y887506D01*
X1320807Y885307D01*
X1319887Y883085D01*
X1318617Y883338D01*
Y908714D01*
X1318439Y909606D01*
X1317934Y910362D01*
X1299856Y928440D01*
Y1049926D01*
X1299679Y1050818D01*
X1299174Y1051574D01*
X1286922Y1063826D01*
Y1107281D01*
X1296999Y1117358D01*
X1446522D01*
X1448702Y1115178D01*
D02*
G37*
G36*
X1431470Y1089178D02*
X1432226Y1088673D01*
X1433118Y1088495D01*
X1460235D01*
X1460748Y1087268D01*
X1460689Y1087148D01*
X1460204Y1086657D01*
X1424479D01*
X1417009Y1094127D01*
X1416252Y1094633D01*
X1415360Y1094810D01*
X1321849D01*
X1320957Y1094633D01*
X1320201Y1094127D01*
X1316603Y1090529D01*
X1316098Y1089773D01*
X1315920Y1088881D01*
Y1079678D01*
X1316098Y1078787D01*
X1316603Y1078030D01*
X1321281Y1073352D01*
X1322037Y1072847D01*
X1322929Y1072669D01*
X1391304D01*
X1403319Y1060654D01*
Y958479D01*
X1403497Y957588D01*
X1404002Y956831D01*
X1503009Y857824D01*
X1503765Y857319D01*
X1504657Y857142D01*
X1592776D01*
X1593668Y857319D01*
X1594424Y857824D01*
X1660076Y923476D01*
X1660990Y922616D01*
X1660484Y921860D01*
X1660307Y920968D01*
Y915313D01*
X1600540Y855546D01*
X1495126D01*
X1396766Y953905D01*
Y1044231D01*
X1396589Y1045123D01*
X1396084Y1045879D01*
X1373758Y1068204D01*
X1373002Y1068709D01*
X1372110Y1068887D01*
X1320128D01*
X1313289Y1075726D01*
Y1093959D01*
X1317379Y1098049D01*
X1422599D01*
X1431470Y1089178D01*
D02*
G37*
G36*
X1421865Y1082678D02*
X1422621Y1082173D01*
X1423513Y1081995D01*
X1460235D01*
X1460748Y1080768D01*
X1460689Y1080648D01*
X1460204Y1080157D01*
X1402635D01*
X1397314Y1085478D01*
X1396558Y1085983D01*
X1395666Y1086161D01*
X1330341D01*
X1329719Y1087091D01*
X1328223Y1088091D01*
X1326458Y1088442D01*
X1324693Y1088091D01*
X1323196Y1087091D01*
X1322196Y1085595D01*
X1321845Y1083830D01*
X1322196Y1082065D01*
X1323196Y1080568D01*
X1324693Y1079568D01*
X1326458Y1079217D01*
X1328223Y1079568D01*
X1329719Y1080568D01*
X1330341Y1081499D01*
X1394700D01*
X1400021Y1076178D01*
X1400777Y1075673D01*
X1401669Y1075496D01*
X1412669D01*
Y967253D01*
X1412847Y966361D01*
X1413352Y965605D01*
X1515080Y863876D01*
X1515836Y863371D01*
X1516729Y863193D01*
X1583519D01*
X1584410Y863371D01*
X1585167Y863876D01*
X1651024Y929734D01*
X1658082D01*
X1658568Y928560D01*
X1591811Y861803D01*
X1505622D01*
X1407981Y959445D01*
Y1061619D01*
X1407803Y1062511D01*
X1407298Y1063268D01*
X1393918Y1076648D01*
X1393161Y1077153D01*
X1392270Y1077331D01*
X1323895D01*
X1320582Y1080644D01*
Y1087916D01*
X1322814Y1090148D01*
X1414395D01*
X1421865Y1082678D01*
D02*
G37*
G36*
X1576767Y1118159D02*
Y1056174D01*
X1576944Y1055282D01*
X1577449Y1054526D01*
X1645495Y986480D01*
Y966180D01*
X1645673Y965288D01*
X1646178Y964532D01*
X1664258Y946452D01*
X1663600Y944862D01*
X1663333Y942832D01*
X1663600Y940803D01*
X1664383Y938912D01*
X1665629Y937288D01*
X1667253Y936042D01*
X1668162Y935665D01*
X1667910Y934395D01*
X1650059D01*
X1649167Y934218D01*
X1648411Y933713D01*
X1582553Y867855D01*
X1517694D01*
X1417331Y968218D01*
Y1075496D01*
X1461105D01*
X1461245Y1075286D01*
X1462411Y1074507D01*
X1463786Y1074233D01*
X1471286D01*
X1472661Y1074507D01*
X1473826Y1075286D01*
X1474605Y1076451D01*
X1474879Y1077826D01*
X1474605Y1079201D01*
X1473876Y1080292D01*
X1473715Y1080655D01*
Y1081498D01*
X1473876Y1081861D01*
X1474605Y1082951D01*
X1474879Y1084326D01*
X1474605Y1085701D01*
X1473826Y1086867D01*
X1473715Y1086941D01*
Y1088211D01*
X1473826Y1088286D01*
X1474605Y1089451D01*
X1474879Y1090826D01*
X1474605Y1092201D01*
X1473876Y1093292D01*
X1473715Y1093654D01*
Y1094498D01*
X1473876Y1094861D01*
X1474605Y1095951D01*
X1474879Y1097326D01*
X1474605Y1098701D01*
X1473826Y1099867D01*
X1473715Y1099941D01*
Y1101211D01*
X1473826Y1101286D01*
X1474605Y1102451D01*
X1474879Y1103826D01*
X1474605Y1105201D01*
X1473933Y1106208D01*
X1474115Y1106880D01*
X1474450Y1107478D01*
X1480641D01*
Y1071217D01*
X1473892Y1064468D01*
X1436785D01*
X1435695Y1064251D01*
X1434771Y1063634D01*
X1434771Y1063634D01*
X1421668Y1050531D01*
X1421050Y1049607D01*
X1420833Y1048517D01*
X1420833Y1048516D01*
Y1026590D01*
X1420833Y1026590D01*
X1421050Y1025500D01*
X1421668Y1024576D01*
X1424958Y1021286D01*
X1424958Y1021286D01*
X1425882Y1020668D01*
X1426972Y1020451D01*
X1428546D01*
X1428728Y1020010D01*
X1429774Y1018647D01*
X1431076Y1017648D01*
X1431176Y1016963D01*
Y1016937D01*
X1431076Y1016252D01*
X1429774Y1015253D01*
X1428728Y1013890D01*
X1428071Y1012303D01*
X1427847Y1010600D01*
X1428071Y1008897D01*
X1428728Y1007310D01*
X1429774Y1005947D01*
X1431076Y1004948D01*
X1431176Y1004263D01*
Y1004237D01*
X1431076Y1003552D01*
X1429774Y1002553D01*
X1428728Y1001190D01*
X1428071Y999603D01*
X1427847Y997900D01*
X1428071Y996197D01*
X1428728Y994610D01*
X1429774Y993247D01*
X1431137Y992201D01*
X1432724Y991544D01*
X1434427Y991320D01*
X1436130Y991544D01*
X1437717Y992201D01*
X1439080Y993247D01*
X1440126Y994610D01*
X1440523Y995569D01*
X1445088D01*
Y992673D01*
X1445209Y992065D01*
X1445553Y991549D01*
X1446069Y991205D01*
X1446677Y991084D01*
X1453607D01*
X1454216Y991205D01*
X1454731Y991549D01*
X1455076Y992065D01*
X1455197Y992673D01*
Y1001603D01*
X1455076Y1002211D01*
X1454731Y1002727D01*
X1454216Y1003072D01*
X1453607Y1003193D01*
X1446677D01*
X1446069Y1003072D01*
X1445553Y1002727D01*
X1445209Y1002211D01*
X1445088Y1001603D01*
Y1000231D01*
X1440523D01*
X1440126Y1001190D01*
X1439080Y1002553D01*
X1437778Y1003552D01*
X1437678Y1004237D01*
Y1004263D01*
X1437778Y1004948D01*
X1439080Y1005947D01*
X1440126Y1007310D01*
X1440523Y1008269D01*
X1445088D01*
Y1006897D01*
X1445209Y1006289D01*
X1445553Y1005773D01*
X1446069Y1005428D01*
X1446677Y1005307D01*
X1453607D01*
X1454216Y1005428D01*
X1454731Y1005773D01*
X1455076Y1006289D01*
X1455197Y1006897D01*
Y1015827D01*
X1455076Y1016435D01*
X1454731Y1016951D01*
X1454216Y1017296D01*
X1453607Y1017417D01*
X1446677D01*
X1446069Y1017296D01*
X1445553Y1016951D01*
X1445209Y1016435D01*
X1445088Y1015827D01*
Y1012931D01*
X1440523D01*
X1440126Y1013890D01*
X1439080Y1015253D01*
X1437778Y1016252D01*
X1437678Y1016937D01*
Y1016963D01*
X1437778Y1017648D01*
X1439080Y1018647D01*
X1440126Y1020010D01*
X1440783Y1021597D01*
X1441007Y1023300D01*
X1440783Y1025003D01*
X1440126Y1026590D01*
X1439080Y1027953D01*
X1437778Y1028952D01*
X1437678Y1029637D01*
Y1029663D01*
X1437778Y1030348D01*
X1439080Y1031347D01*
X1440126Y1032710D01*
X1440523Y1033669D01*
X1445088D01*
Y1031535D01*
X1445209Y1030927D01*
X1445553Y1030411D01*
X1446069Y1030067D01*
X1446677Y1029946D01*
X1453607D01*
X1454216Y1030067D01*
X1454731Y1030411D01*
X1455076Y1030927D01*
X1455197Y1031535D01*
Y1040465D01*
X1455076Y1041073D01*
X1454731Y1041589D01*
X1454216Y1041934D01*
X1453607Y1042055D01*
X1446677D01*
X1446069Y1041934D01*
X1445553Y1041589D01*
X1445209Y1041073D01*
X1445088Y1040465D01*
Y1038331D01*
X1440523D01*
X1440126Y1039290D01*
X1439080Y1040653D01*
X1437717Y1041699D01*
X1436130Y1042356D01*
X1434427Y1042580D01*
X1432724Y1042356D01*
X1431137Y1041699D01*
X1429774Y1040653D01*
X1428728Y1039290D01*
X1428071Y1037703D01*
X1427847Y1036000D01*
X1428071Y1034297D01*
X1428728Y1032710D01*
X1429774Y1031347D01*
X1431076Y1030348D01*
X1431176Y1029663D01*
Y1029637D01*
X1431076Y1028952D01*
X1429774Y1027953D01*
X1429060Y1027023D01*
X1427758Y1026783D01*
X1427458Y1026843D01*
X1426531Y1027770D01*
Y1047337D01*
X1437965Y1058771D01*
X1475072D01*
X1475072Y1058771D01*
X1476163Y1058988D01*
X1477087Y1059605D01*
X1485504Y1068023D01*
X1485505Y1068023D01*
X1486122Y1068947D01*
X1486339Y1070037D01*
X1486339Y1070038D01*
Y1107478D01*
X1517706D01*
X1518411Y1107007D01*
X1519786Y1106733D01*
X1527286D01*
X1528661Y1107007D01*
X1529227Y1107385D01*
X1541021D01*
Y1105053D01*
X1541142Y1104446D01*
X1541485Y1103931D01*
X1542000Y1103587D01*
X1542608Y1103466D01*
X1551543D01*
X1552150Y1103587D01*
X1552665Y1103931D01*
X1553009Y1104446D01*
X1553130Y1105053D01*
Y1111488D01*
X1553009Y1112095D01*
X1552665Y1112610D01*
X1552150Y1112954D01*
X1551543Y1113075D01*
X1545150D01*
X1545112Y1113083D01*
X1545112Y1113083D01*
X1531680D01*
X1530995Y1114353D01*
X1531069Y1114465D01*
X1531139Y1114495D01*
X1554979D01*
X1557027Y1112447D01*
Y1066730D01*
X1554893D01*
X1554285Y1066609D01*
X1553769Y1066265D01*
X1553424Y1065749D01*
X1553303Y1065141D01*
Y1064007D01*
X1551174D01*
Y1064893D01*
X1551053Y1065501D01*
X1550710Y1066016D01*
X1550195Y1066360D01*
X1549587Y1066480D01*
X1540652D01*
X1540045Y1066360D01*
X1539530Y1066016D01*
X1539186Y1065501D01*
X1539065Y1064893D01*
Y1058458D01*
X1539186Y1057851D01*
X1539530Y1057336D01*
X1540045Y1056992D01*
X1540652Y1056871D01*
X1549587D01*
X1550195Y1056992D01*
X1550710Y1057336D01*
X1551053Y1057851D01*
X1551174Y1058458D01*
Y1059345D01*
X1553303D01*
Y1058211D01*
X1553424Y1057603D01*
X1553769Y1057087D01*
X1554285Y1056742D01*
X1554893Y1056621D01*
X1563823D01*
X1564431Y1056742D01*
X1564947Y1057087D01*
X1565291Y1057603D01*
X1565412Y1058211D01*
Y1065141D01*
X1565291Y1065749D01*
X1564947Y1066265D01*
X1564431Y1066609D01*
X1563823Y1066730D01*
X1561689D01*
Y1113412D01*
X1561511Y1114304D01*
X1561006Y1115061D01*
X1557592Y1118474D01*
X1556836Y1118980D01*
X1555944Y1119157D01*
X1530836D01*
X1530323Y1120384D01*
X1530382Y1120505D01*
X1530867Y1120995D01*
X1562192D01*
X1568244Y1114943D01*
Y1052430D01*
X1568421Y1051538D01*
X1568927Y1050782D01*
X1587169Y1032540D01*
Y920786D01*
X1586283D01*
X1585675Y920665D01*
X1585160Y920321D01*
X1584816Y919806D01*
X1584695Y919199D01*
Y910264D01*
X1584816Y909656D01*
X1585160Y909141D01*
X1585675Y908798D01*
X1586283Y908677D01*
X1587169D01*
Y906055D01*
X1585535D01*
X1584927Y905934D01*
X1584411Y905589D01*
X1584066Y905073D01*
X1583945Y904465D01*
Y895535D01*
X1584066Y894927D01*
X1584411Y894411D01*
X1584927Y894066D01*
X1585535Y893945D01*
X1592465D01*
X1593073Y894066D01*
X1593589Y894411D01*
X1593934Y894927D01*
X1594055Y895535D01*
Y904465D01*
X1593934Y905073D01*
X1593589Y905589D01*
X1593073Y905934D01*
X1592465Y906055D01*
X1591831D01*
Y908677D01*
X1592717D01*
X1593325Y908798D01*
X1593840Y909141D01*
X1594184Y909656D01*
X1594305Y910264D01*
Y919199D01*
X1594184Y919806D01*
X1593840Y920321D01*
X1593325Y920665D01*
X1592717Y920786D01*
X1591831D01*
Y1033505D01*
X1591653Y1034397D01*
X1591148Y1035153D01*
X1572905Y1053396D01*
Y1115909D01*
X1572728Y1116801D01*
X1572223Y1117557D01*
X1564805Y1124974D01*
X1564049Y1125480D01*
X1563157Y1125657D01*
X1530836D01*
X1530323Y1126884D01*
X1530382Y1127005D01*
X1530867Y1127495D01*
X1567430D01*
X1576767Y1118159D01*
D02*
G37*
%LPC*%
G36*
X1352968Y1046055D02*
X1350512D01*
Y1040762D01*
X1354554D01*
Y1044467D01*
X1354434Y1045075D01*
X1354090Y1045590D01*
X1353575Y1045934D01*
X1352968Y1046055D01*
D02*
G37*
G36*
X1348988D02*
X1346532D01*
X1345925Y1045934D01*
X1345410Y1045590D01*
X1345066Y1045075D01*
X1344946Y1044467D01*
Y1040762D01*
X1348988D01*
Y1046055D01*
D02*
G37*
G36*
X1354554Y1039238D02*
X1350512D01*
Y1033945D01*
X1352968D01*
X1353575Y1034066D01*
X1354090Y1034410D01*
X1354434Y1034925D01*
X1354554Y1035533D01*
Y1039238D01*
D02*
G37*
G36*
X1348988D02*
X1344946D01*
Y1035533D01*
X1345066Y1034925D01*
X1345410Y1034410D01*
X1345925Y1034066D01*
X1346532Y1033945D01*
X1348988D01*
Y1039238D01*
D02*
G37*
G36*
X1330000Y1035615D02*
X1327253Y1035253D01*
X1324693Y1034193D01*
X1322494Y1032506D01*
X1320807Y1030307D01*
X1319747Y1027747D01*
X1319385Y1025000D01*
X1319747Y1022253D01*
X1320807Y1019693D01*
X1322494Y1017494D01*
X1324693Y1015807D01*
X1327253Y1014747D01*
X1330000Y1014385D01*
X1332747Y1014747D01*
X1335307Y1015807D01*
X1337506Y1017494D01*
X1339193Y1019693D01*
X1340253Y1022253D01*
X1340308Y1022669D01*
X1344946D01*
Y1020535D01*
X1345067Y1019927D01*
X1345411Y1019411D01*
X1345927Y1019066D01*
X1346535Y1018945D01*
X1353465D01*
X1354073Y1019066D01*
X1354589Y1019411D01*
X1354933Y1019927D01*
X1355054Y1020535D01*
Y1029465D01*
X1354933Y1030073D01*
X1354589Y1030589D01*
X1354073Y1030934D01*
X1353465Y1031055D01*
X1346535D01*
X1345927Y1030934D01*
X1345411Y1030589D01*
X1345067Y1030073D01*
X1344946Y1029465D01*
Y1027331D01*
X1340308D01*
X1340253Y1027747D01*
X1339193Y1030307D01*
X1337506Y1032506D01*
X1335307Y1034193D01*
X1332747Y1035253D01*
X1330000Y1035615D01*
D02*
G37*
G36*
X1332968Y920786D02*
X1330512D01*
Y915493D01*
X1334554D01*
Y919199D01*
X1334434Y919806D01*
X1334090Y920321D01*
X1333575Y920665D01*
X1332968Y920786D01*
D02*
G37*
G36*
X1328988D02*
X1326532D01*
X1325925Y920665D01*
X1325410Y920321D01*
X1325066Y919806D01*
X1324946Y919199D01*
Y915493D01*
X1328988D01*
Y920786D01*
D02*
G37*
G36*
X1334554Y913969D02*
X1330512D01*
Y908677D01*
X1332968D01*
X1333575Y908798D01*
X1334090Y909141D01*
X1334434Y909656D01*
X1334554Y910264D01*
Y913969D01*
D02*
G37*
G36*
X1328988D02*
X1324946D01*
Y910264D01*
X1325066Y909656D01*
X1325410Y909141D01*
X1325925Y908798D01*
X1326532Y908677D01*
X1328988D01*
Y913969D01*
D02*
G37*
G36*
X1551543Y1098575D02*
X1547837D01*
Y1094533D01*
X1553130D01*
Y1096988D01*
X1553009Y1097596D01*
X1552665Y1098110D01*
X1552150Y1098454D01*
X1551543Y1098575D01*
D02*
G37*
G36*
X1546313D02*
X1542608D01*
X1542000Y1098454D01*
X1541485Y1098110D01*
X1541142Y1097596D01*
X1541021Y1096988D01*
Y1094533D01*
X1546313D01*
Y1098575D01*
D02*
G37*
G36*
X1553130Y1093009D02*
X1547837D01*
Y1088966D01*
X1551543D01*
X1552150Y1089087D01*
X1552665Y1089431D01*
X1553009Y1089946D01*
X1553130Y1090553D01*
Y1093009D01*
D02*
G37*
G36*
X1546313D02*
X1541021D01*
Y1090553D01*
X1541142Y1089946D01*
X1541485Y1089431D01*
X1542000Y1089087D01*
X1542608Y1088966D01*
X1546313D01*
Y1093009D01*
D02*
G37*
G36*
X1549587Y1051980D02*
X1545882D01*
Y1047938D01*
X1551174D01*
Y1050393D01*
X1551053Y1051001D01*
X1550710Y1051516D01*
X1550195Y1051860D01*
X1549587Y1051980D01*
D02*
G37*
G36*
X1544358D02*
X1540652D01*
X1540045Y1051860D01*
X1539530Y1051516D01*
X1539186Y1051001D01*
X1539065Y1050393D01*
Y1047938D01*
X1544358D01*
Y1051980D01*
D02*
G37*
G36*
X1551174Y1046414D02*
X1545882D01*
Y1042371D01*
X1549587D01*
X1550195Y1042492D01*
X1550710Y1042836D01*
X1551053Y1043351D01*
X1551174Y1043958D01*
Y1046414D01*
D02*
G37*
G36*
X1544358D02*
X1539065D01*
Y1043958D01*
X1539186Y1043351D01*
X1539530Y1042836D01*
X1540045Y1042492D01*
X1540652Y1042371D01*
X1544358D01*
Y1046414D01*
D02*
G37*
G36*
X1563823Y1052730D02*
X1554893D01*
X1554285Y1052609D01*
X1553769Y1052265D01*
X1553424Y1051749D01*
X1553303Y1051141D01*
Y1044211D01*
X1553424Y1043603D01*
X1553769Y1043087D01*
X1554285Y1042742D01*
X1554893Y1042621D01*
X1557027D01*
Y1040642D01*
X1557204Y1039750D01*
X1557710Y1038994D01*
X1566063Y1030641D01*
X1565807Y1030307D01*
X1564747Y1027747D01*
X1564385Y1025000D01*
X1564747Y1022253D01*
X1565807Y1019693D01*
X1567494Y1017494D01*
X1569693Y1015807D01*
X1572253Y1014747D01*
X1575000Y1014385D01*
X1577747Y1014747D01*
X1580307Y1015807D01*
X1582506Y1017494D01*
X1584193Y1019693D01*
X1585253Y1022253D01*
X1585615Y1025000D01*
X1585253Y1027747D01*
X1584193Y1030307D01*
X1582506Y1032506D01*
X1580307Y1034193D01*
X1577747Y1035253D01*
X1575000Y1035615D01*
X1572253Y1035253D01*
X1569693Y1034193D01*
X1569359Y1033937D01*
X1561945Y1041351D01*
X1562307Y1042621D01*
X1563823D01*
X1564431Y1042742D01*
X1564947Y1043087D01*
X1565291Y1043603D01*
X1565412Y1044211D01*
Y1051141D01*
X1565291Y1051749D01*
X1564947Y1052265D01*
X1564431Y1052609D01*
X1563823Y1052730D01*
D02*
G37*
G36*
X1578217Y920786D02*
X1575762D01*
Y915493D01*
X1579805D01*
Y919199D01*
X1579684Y919806D01*
X1579340Y920321D01*
X1578825Y920665D01*
X1578217Y920786D01*
D02*
G37*
G36*
X1574238D02*
X1571783D01*
X1571175Y920665D01*
X1570660Y920321D01*
X1570316Y919806D01*
X1570195Y919199D01*
Y915493D01*
X1574238D01*
Y920786D01*
D02*
G37*
G36*
X1528217D02*
X1525762D01*
Y915493D01*
X1529805D01*
Y919199D01*
X1529684Y919806D01*
X1529340Y920321D01*
X1528825Y920665D01*
X1528217Y920786D01*
D02*
G37*
G36*
X1524238D02*
X1521783D01*
X1521175Y920665D01*
X1520660Y920321D01*
X1520316Y919806D01*
X1520195Y919199D01*
Y915493D01*
X1524238D01*
Y920786D01*
D02*
G37*
G36*
X1579805Y913969D02*
X1575762D01*
Y908677D01*
X1578217D01*
X1578825Y908798D01*
X1579340Y909141D01*
X1579684Y909656D01*
X1579805Y910264D01*
Y913969D01*
D02*
G37*
G36*
X1574238D02*
X1570195D01*
Y910264D01*
X1570316Y909656D01*
X1570660Y909141D01*
X1571175Y908798D01*
X1571783Y908677D01*
X1574238D01*
Y913969D01*
D02*
G37*
G36*
X1529805Y913969D02*
X1525762D01*
Y908677D01*
X1528217D01*
X1528825Y908798D01*
X1529340Y909141D01*
X1529684Y909656D01*
X1529805Y910264D01*
Y913969D01*
D02*
G37*
G36*
X1524238D02*
X1520195D01*
Y910264D01*
X1520316Y909656D01*
X1520660Y909141D01*
X1521175Y908798D01*
X1521783Y908677D01*
X1524238D01*
Y913969D01*
D02*
G37*
G36*
X1527286Y1100919D02*
X1519786D01*
X1518411Y1100646D01*
X1517245Y1099867D01*
X1517105Y1099657D01*
X1509696D01*
X1508804Y1099480D01*
X1508048Y1098974D01*
X1491324Y1082251D01*
X1490819Y1081495D01*
X1490642Y1080603D01*
Y1057269D01*
X1471704Y1038331D01*
X1469197D01*
Y1040465D01*
X1469076Y1041073D01*
X1468731Y1041589D01*
X1468216Y1041934D01*
X1467607Y1042055D01*
X1460677D01*
X1460069Y1041934D01*
X1459553Y1041589D01*
X1459209Y1041073D01*
X1459088Y1040465D01*
Y1031535D01*
X1459209Y1030927D01*
X1459553Y1030411D01*
X1460069Y1030067D01*
X1460677Y1029946D01*
X1467607D01*
X1468216Y1030067D01*
X1468731Y1030411D01*
X1469076Y1030927D01*
X1469197Y1031535D01*
Y1033669D01*
X1472669D01*
X1473561Y1033847D01*
X1474317Y1034352D01*
X1494621Y1054656D01*
X1495126Y1055412D01*
X1495303Y1056304D01*
Y1079637D01*
X1510661Y1094995D01*
X1516235D01*
X1516748Y1093768D01*
X1516689Y1093648D01*
X1516204Y1093157D01*
X1512310D01*
X1511418Y1092980D01*
X1510662Y1092474D01*
X1500300Y1082112D01*
X1499794Y1081356D01*
X1499617Y1080464D01*
Y1040808D01*
X1472501Y1013693D01*
X1469197D01*
Y1015827D01*
X1469076Y1016435D01*
X1468731Y1016951D01*
X1468216Y1017296D01*
X1467607Y1017417D01*
X1460677D01*
X1460069Y1017296D01*
X1459553Y1016951D01*
X1459209Y1016435D01*
X1459088Y1015827D01*
Y1006897D01*
X1459209Y1006289D01*
X1459553Y1005773D01*
X1460069Y1005428D01*
X1460677Y1005307D01*
X1467607D01*
X1468216Y1005428D01*
X1468731Y1005773D01*
X1469076Y1006289D01*
X1469197Y1006897D01*
Y1009031D01*
X1473467D01*
X1474359Y1009209D01*
X1475115Y1009714D01*
X1503596Y1038195D01*
X1504101Y1038951D01*
X1504279Y1039843D01*
Y1079498D01*
X1513276Y1088495D01*
X1516235D01*
X1516748Y1087268D01*
X1516689Y1087148D01*
X1516204Y1086657D01*
X1514553D01*
X1513661Y1086480D01*
X1512905Y1085974D01*
X1507543Y1080612D01*
X1507038Y1079856D01*
X1506860Y1078964D01*
Y1029502D01*
X1476826Y999469D01*
X1469197D01*
Y1001603D01*
X1469076Y1002211D01*
X1468731Y1002727D01*
X1468216Y1003072D01*
X1467607Y1003193D01*
X1460677D01*
X1460069Y1003072D01*
X1459553Y1002727D01*
X1459209Y1002211D01*
X1459088Y1001603D01*
Y992673D01*
X1459209Y992065D01*
X1459553Y991549D01*
X1460069Y991205D01*
X1460677Y991084D01*
X1467607D01*
X1468216Y991205D01*
X1468731Y991549D01*
X1469076Y992065D01*
X1469197Y992673D01*
Y994807D01*
X1477792D01*
X1478684Y994985D01*
X1479440Y995490D01*
X1510839Y1026889D01*
X1511344Y1027645D01*
X1511522Y1028537D01*
Y1077999D01*
X1515519Y1081995D01*
X1517105D01*
X1517245Y1081786D01*
X1517356Y1081711D01*
Y1080655D01*
X1517195Y1080292D01*
X1516466Y1079201D01*
X1516192Y1077826D01*
X1516466Y1076451D01*
X1517245Y1075286D01*
X1518411Y1074507D01*
X1519786Y1074233D01*
X1521205D01*
Y1050384D01*
X1521382Y1049492D01*
X1521888Y1048736D01*
X1537169Y1033454D01*
Y920786D01*
X1536283D01*
X1535675Y920665D01*
X1535160Y920321D01*
X1534816Y919806D01*
X1534695Y919199D01*
Y910264D01*
X1534816Y909656D01*
X1535160Y909141D01*
X1535675Y908798D01*
X1536283Y908677D01*
X1536669D01*
Y906055D01*
X1535535D01*
X1534927Y905934D01*
X1534411Y905589D01*
X1534066Y905073D01*
X1533945Y904465D01*
Y895535D01*
X1534066Y894927D01*
X1534411Y894411D01*
X1534927Y894066D01*
X1535535Y893945D01*
X1542465D01*
X1543073Y894066D01*
X1543589Y894411D01*
X1543934Y894927D01*
X1544055Y895535D01*
Y904465D01*
X1543934Y905073D01*
X1543589Y905589D01*
X1543073Y905934D01*
X1542465Y906055D01*
X1541331D01*
Y908677D01*
X1542717D01*
X1543325Y908798D01*
X1543840Y909141D01*
X1544184Y909656D01*
X1544305Y910264D01*
Y919199D01*
X1544184Y919806D01*
X1543840Y920321D01*
X1543325Y920665D01*
X1542717Y920786D01*
X1541831D01*
Y1034419D01*
X1541653Y1035311D01*
X1541148Y1036067D01*
X1525866Y1051349D01*
Y1074233D01*
X1527286D01*
X1528661Y1074507D01*
X1529826Y1075286D01*
X1530605Y1076451D01*
X1530879Y1077826D01*
X1530605Y1079201D01*
X1529877Y1080292D01*
X1529715Y1080655D01*
Y1081498D01*
X1529877Y1081861D01*
X1530605Y1082951D01*
X1530879Y1084326D01*
X1530605Y1085701D01*
X1529826Y1086867D01*
X1529715Y1086941D01*
Y1088211D01*
X1529826Y1088286D01*
X1530605Y1089451D01*
X1530879Y1090826D01*
X1530605Y1092201D01*
X1529877Y1093292D01*
X1529715Y1093654D01*
Y1094498D01*
X1529877Y1094861D01*
X1530605Y1095951D01*
X1530879Y1097326D01*
X1530605Y1098701D01*
X1529826Y1099867D01*
X1528661Y1100646D01*
X1527286Y1100919D01*
D02*
G37*
G36*
X1578465Y906055D02*
X1571535D01*
X1570927Y905934D01*
X1570411Y905589D01*
X1570066Y905073D01*
X1569945Y904465D01*
Y895535D01*
X1570066Y894927D01*
X1570411Y894411D01*
X1570927Y894066D01*
X1571535Y893945D01*
X1572669D01*
Y890308D01*
X1572253Y890253D01*
X1569693Y889193D01*
X1567494Y887506D01*
X1565807Y885307D01*
X1564747Y882747D01*
X1564385Y880000D01*
X1564747Y877253D01*
X1565807Y874693D01*
X1567494Y872494D01*
X1569693Y870807D01*
X1572253Y869747D01*
X1575000Y869385D01*
X1577747Y869747D01*
X1580307Y870807D01*
X1582506Y872494D01*
X1584193Y874693D01*
X1585253Y877253D01*
X1585615Y880000D01*
X1585253Y882747D01*
X1584193Y885307D01*
X1582506Y887506D01*
X1580307Y889193D01*
X1577747Y890253D01*
X1577331Y890308D01*
Y893945D01*
X1578465D01*
X1579073Y894066D01*
X1579589Y894411D01*
X1579933Y894927D01*
X1580054Y895535D01*
Y904465D01*
X1579933Y905073D01*
X1579589Y905589D01*
X1579073Y905934D01*
X1578465Y906055D01*
D02*
G37*
G36*
X1528465Y906055D02*
X1521535D01*
X1520927Y905934D01*
X1520411Y905589D01*
X1520067Y905073D01*
X1519945Y904465D01*
Y895535D01*
X1520067Y894927D01*
X1520411Y894411D01*
X1520927Y894066D01*
X1521535Y893945D01*
X1522669D01*
Y890308D01*
X1522253Y890253D01*
X1519693Y889193D01*
X1517494Y887506D01*
X1515807Y885307D01*
X1514747Y882747D01*
X1514385Y880000D01*
X1514747Y877253D01*
X1515807Y874693D01*
X1517494Y872494D01*
X1519693Y870807D01*
X1522253Y869747D01*
X1525000Y869385D01*
X1527747Y869747D01*
X1530307Y870807D01*
X1532506Y872494D01*
X1534193Y874693D01*
X1535253Y877253D01*
X1535615Y880000D01*
X1535253Y882747D01*
X1534193Y885307D01*
X1532506Y887506D01*
X1530307Y889193D01*
X1527747Y890253D01*
X1527331Y890308D01*
Y893945D01*
X1528465D01*
X1529073Y894066D01*
X1529589Y894411D01*
X1529933Y894927D01*
X1530054Y895535D01*
Y904465D01*
X1529933Y905073D01*
X1529589Y905589D01*
X1529073Y905934D01*
X1528465Y906055D01*
D02*
G37*
%LPD*%
D10*
X1306900Y1195622D02*
D03*
Y1210122D02*
D03*
X1602620Y1187750D02*
D03*
Y1202250D02*
D03*
X1265269Y900000D02*
D03*
Y914500D02*
D03*
X1545120Y1047176D02*
D03*
Y1061676D02*
D03*
X1547075Y1093771D02*
D03*
Y1108271D02*
D03*
D11*
X1364250Y1040000D02*
D03*
X1349750D02*
D03*
X1344250Y914731D02*
D03*
X1329750D02*
D03*
X1539500D02*
D03*
X1525000D02*
D03*
X1575000D02*
D03*
X1589500D02*
D03*
X1326458Y1142500D02*
D03*
X1340958D02*
D03*
D12*
X1323214Y1196122D02*
D03*
Y1210122D02*
D03*
X1280000Y914250D02*
D03*
Y900250D02*
D03*
X1559358Y1047676D02*
D03*
Y1061676D02*
D03*
D13*
X1614870Y1252500D02*
D03*
X1600870D02*
D03*
X1450142Y1036000D02*
D03*
X1464142D02*
D03*
Y1011362D02*
D03*
X1450142D02*
D03*
X1450142Y997138D02*
D03*
X1464142D02*
D03*
X1344000Y900000D02*
D03*
X1330000D02*
D03*
X1575000D02*
D03*
X1589000D02*
D03*
X1525000Y900000D02*
D03*
X1539000D02*
D03*
X1364000Y1025000D02*
D03*
X1350000D02*
D03*
X1326458Y1157443D02*
D03*
X1340458D02*
D03*
X1310815Y1177122D02*
D03*
X1324816D02*
D03*
D14*
X1341417D02*
D03*
Y1196122D02*
D03*
X1367917D02*
D03*
X1367917Y1186622D02*
D03*
Y1177122D02*
D03*
D15*
X1467536Y1136326D02*
D03*
Y1129826D02*
D03*
Y1123326D02*
D03*
Y1116826D02*
D03*
Y1110326D02*
D03*
Y1103826D02*
D03*
Y1097326D02*
D03*
Y1090826D02*
D03*
Y1084326D02*
D03*
Y1077826D02*
D03*
X1523536Y1136326D02*
D03*
Y1129826D02*
D03*
Y1123326D02*
D03*
Y1116826D02*
D03*
Y1110326D02*
D03*
Y1103826D02*
D03*
Y1097326D02*
D03*
Y1090826D02*
D03*
Y1084326D02*
D03*
Y1077826D02*
D03*
D16*
X1508019Y1205068D02*
D03*
D17*
X1449519Y1182068D02*
D03*
Y1205068D02*
D03*
Y1228068D02*
D03*
D18*
X1254574Y1227558D02*
D03*
X1261074D02*
D03*
X1248074D02*
D03*
X1241573D02*
D03*
X1235073D02*
D03*
D19*
X1282074Y1228308D02*
D03*
X1214073D02*
D03*
D20*
X1422026Y1228068D02*
D03*
Y1199568D02*
D03*
X1421667Y1182068D02*
D03*
Y1153568D02*
D03*
X1280924Y1210122D02*
D03*
Y1181622D02*
D03*
D21*
X1600870Y1239215D02*
D03*
Y1222715D02*
D03*
D22*
X1559031Y1202250D02*
D03*
X1587531D02*
D03*
D23*
X1707620Y1137500D02*
D03*
X1692620D02*
D03*
X1677620D02*
D03*
X1662620D02*
D03*
X1647620D02*
D03*
Y1252500D02*
D03*
X1662620D02*
D03*
X1677620D02*
D03*
X1692620D02*
D03*
X1707620D02*
D03*
D24*
X1630120Y1157500D02*
D03*
Y1172500D02*
D03*
Y1187500D02*
D03*
Y1202500D02*
D03*
Y1217500D02*
D03*
Y1232500D02*
D03*
D25*
X1306900Y1231122D02*
D03*
X1328900D02*
D03*
D26*
X1341417Y1210122D02*
D03*
X1360417Y1210122D02*
D03*
X1350917Y1231122D02*
D03*
D27*
X1261074Y1201122D02*
D03*
Y1210122D02*
D03*
D28*
X1651858Y1123231D02*
Y1133262D01*
X1663588Y1111501D02*
X1674978D01*
X1651858Y1123231D02*
X1663588Y1111501D01*
X1647620Y1137500D02*
X1651858Y1133262D01*
X1609319Y1080887D02*
Y1161651D01*
X1615930Y1168262D02*
X1625882D01*
X1609319Y1161651D02*
X1615930Y1168262D01*
X1625882D02*
X1630120Y1172500D01*
X1475994Y1226820D02*
X1489174Y1240000D01*
X1589373D01*
X1475994Y1205994D02*
Y1226820D01*
X1463282Y1193282D02*
X1475994Y1205994D01*
X1301081Y1132830D02*
X1452733D01*
X1295686Y1138225D02*
Y1150226D01*
Y1138225D02*
X1301081Y1132830D01*
X1295686Y1150226D02*
X1312874Y1167414D01*
X1359897D01*
X1363679Y1171196D02*
Y1174884D01*
X1359897Y1167414D02*
X1363679Y1171196D01*
X1365917Y1177122D02*
X1367917D01*
X1363679Y1174884D02*
X1365917Y1177122D01*
X1324816D02*
X1341417D01*
X1477792Y997138D02*
X1509191Y1028537D01*
X1464142Y997138D02*
X1477792D01*
X1464142Y1011362D02*
X1473467D01*
X1501948Y1039843D01*
X1449380Y997900D02*
X1450142Y997138D01*
X1434427Y997900D02*
X1449380D01*
X1449380Y1010600D02*
X1450142Y1011362D01*
X1434427Y1010600D02*
X1449380D01*
X1304178Y1142500D02*
X1326458D01*
X1340458Y1157443D02*
X1395690D01*
X1414179Y1175932D02*
Y1178830D01*
X1395690Y1157443D02*
X1414179Y1175932D01*
X1523536Y1116826D02*
X1555944D01*
X1559358Y1061676D02*
Y1113412D01*
X1555944Y1116826D02*
X1559358Y1113412D01*
X1481167Y846332D02*
X1610896D01*
X1671174Y906610D02*
Y917432D01*
X1610896Y846332D02*
X1671174Y906610D01*
X1444729Y1113173D02*
X1454075Y1103826D01*
X1306152Y1113173D02*
X1444729D01*
X1454075Y1103826D02*
X1467536D01*
X1467500Y860000D02*
X1481167Y846332D01*
X1325494Y860000D02*
X1467500D01*
X1316286Y869208D02*
X1325494Y860000D01*
X1494160Y853215D02*
X1601505D01*
X1662638Y914347D01*
Y920968D01*
X1667638Y925968D01*
X1592776Y859473D02*
X1662320Y929016D01*
X1681524D01*
X1504657Y859473D02*
X1592776D01*
X1650059Y932065D02*
X1672477D01*
X1516729Y865524D02*
X1583519D01*
X1650059Y932065D01*
X1292642Y1071735D02*
X1303860Y1060518D01*
X1292642Y1099663D02*
X1306152Y1113173D01*
X1292642Y1071735D02*
Y1099663D01*
X1271758Y1059724D02*
X1291286Y1040196D01*
X1271758Y1108584D02*
X1289378Y1126205D01*
X1271758Y1059724D02*
Y1108584D01*
X1705065Y952557D02*
Y1116452D01*
X1681524Y929016D02*
X1705065Y952557D01*
X1699053Y925968D02*
X1711858Y938773D01*
Y1133262D01*
X1667638Y925968D02*
X1699053D01*
X1568395Y1129826D02*
X1579097Y1119124D01*
Y1056174D02*
X1647826Y987445D01*
X1579097Y1056174D02*
Y1119124D01*
X1303860Y1008640D02*
Y1060518D01*
X1297526Y927474D02*
Y1049926D01*
X1284592Y1062860D02*
X1297526Y1049926D01*
X1284592Y1062860D02*
Y1108247D01*
X1291286Y1008786D02*
Y1040196D01*
X1405650Y958479D02*
Y1061619D01*
X1322929Y1075000D02*
X1392270D01*
X1405650Y1061619D01*
X1415360Y1092479D02*
X1423513Y1084326D01*
X1321849Y1092479D02*
X1415360D01*
X1423513Y1084326D02*
X1467536D01*
X1316414Y1100379D02*
X1423564D01*
X1433118Y1090826D02*
X1467536D01*
X1423564Y1100379D02*
X1433118Y1090826D01*
X1311913Y1106826D02*
X1434740D01*
X1444240Y1097326D02*
X1467536D01*
X1434740Y1106826D02*
X1444240Y1097326D01*
X1405650Y958479D02*
X1504657Y859473D01*
X1644769Y1195214D02*
X1649655Y1190329D01*
X1636497Y1145673D02*
X1649655Y1158831D01*
Y1190329D01*
X1666858Y1122847D02*
Y1133262D01*
X1670202Y1119503D02*
X1678808D01*
X1666858Y1122847D02*
X1670202Y1119503D01*
X1662620Y1137500D02*
X1666858Y1133262D01*
X1671174Y1044433D02*
X1672174D01*
X1692620Y1064879D01*
Y1105691D01*
X1678808Y1119503D02*
X1692620Y1105691D01*
X1653651Y1095232D02*
X1671174D01*
X1636497Y1112386D02*
X1653651Y1095232D01*
X1682802Y1084341D02*
Y1103676D01*
X1674978Y1111501D02*
X1682802Y1103676D01*
X1698965Y1036465D02*
Y1108808D01*
X1707620Y1137500D02*
X1711858Y1133262D01*
X1647826Y966180D02*
Y987445D01*
X1590599Y1057804D02*
X1656901Y991502D01*
Y982505D02*
X1671174Y968232D01*
X1656901Y982505D02*
Y991502D01*
X1590599Y1057804D02*
Y1117743D01*
X1570575Y1052430D02*
X1589500Y1033505D01*
X1570575Y1052430D02*
Y1115909D01*
X1589500Y914731D02*
Y1033505D01*
X1647826Y966180D02*
X1671174Y942832D01*
X1685300Y944887D02*
Y1022800D01*
X1698965Y1036465D01*
X1681858Y1125915D02*
X1698965Y1108808D01*
X1696858Y1124659D02*
X1705065Y1116452D01*
X1681858Y1125915D02*
Y1133262D01*
X1677620Y1137500D02*
X1681858Y1133262D01*
X1672477Y932065D02*
X1685300Y944887D01*
X1671174Y1072713D02*
X1682802Y1084341D01*
X1696858Y1124659D02*
Y1133262D01*
X1671174Y1069833D02*
Y1072713D01*
X1692620Y1137500D02*
X1696858Y1133262D01*
X1636497Y1112386D02*
Y1145673D01*
X1612219Y1195214D02*
X1644769D01*
X1501948Y1039843D02*
Y1080464D01*
X1464142Y1036000D02*
X1472669D01*
X1492973Y1056304D02*
Y1080603D01*
X1472669Y1036000D02*
X1492973Y1056304D01*
X1509191Y1078964D02*
X1514553Y1084326D01*
X1509191Y1028537D02*
Y1078964D01*
X1501948Y1080464D02*
X1512310Y1090826D01*
X1492973Y1080603D02*
X1509696Y1097326D01*
X1415000Y967253D02*
X1516729Y865524D01*
X1284592Y1108247D02*
X1296034Y1119689D01*
X1318251Y1079678D02*
Y1088881D01*
Y1079678D02*
X1322929Y1075000D01*
X1316286Y869208D02*
Y908714D01*
X1415000Y967253D02*
Y1077826D01*
X1401669D02*
X1415000D01*
X1467536D01*
X1394435Y952939D02*
X1494160Y853215D01*
X1372110Y1066556D02*
X1394435Y1044231D01*
Y952939D02*
Y1044231D01*
X1395666Y1083830D02*
X1401669Y1077826D01*
X1326458Y1083830D02*
X1395666D01*
X1318251Y1088881D02*
X1321849Y1092479D01*
X1310958Y1074760D02*
Y1094924D01*
X1319162Y1066556D02*
X1372110D01*
X1310958Y1074760D02*
X1319162Y1066556D01*
X1316577Y1060010D02*
X1353443D01*
X1303860Y1072726D02*
Y1098773D01*
Y1072726D02*
X1316577Y1060010D01*
X1310958Y1094924D02*
X1316414Y1100379D01*
X1353443Y1060010D02*
X1364250Y1049203D01*
Y1040000D02*
Y1049203D01*
X1303860Y1098773D02*
X1311913Y1106826D01*
X1452733Y1132830D02*
X1456171Y1129392D01*
X1467101D01*
X1467536Y1129826D01*
X1289378Y1126205D02*
X1450143D01*
X1453021Y1123326D02*
X1467536D01*
X1450143Y1126205D02*
X1453021Y1123326D01*
X1447488Y1119689D02*
X1450350Y1116826D01*
X1467536D01*
X1296034Y1119689D02*
X1447488D01*
X1303860Y1008640D02*
X1315000Y997500D01*
X1297526Y927474D02*
X1316286Y908714D01*
X1326458Y1142500D02*
Y1157443D01*
X1280000Y914250D02*
Y997500D01*
X1291286Y1008786D01*
X1315000Y955000D02*
X1344000Y926000D01*
X1315000Y955000D02*
Y997500D01*
X1344000Y914981D02*
Y926000D01*
Y900000D02*
Y914481D01*
X1344250Y914731D01*
X1344000Y914981D02*
X1344250Y914731D01*
X1599851Y1064955D02*
Y1166872D01*
Y1064955D02*
X1671174Y993633D01*
X1599851Y1166872D02*
X1616241Y1183262D01*
X1563157Y1123326D02*
X1570575Y1115909D01*
X1572016Y1136326D02*
X1590599Y1117743D01*
X1609319Y1080887D02*
X1671174Y1019033D01*
X1397298Y1202543D02*
X1400892D01*
X1410153Y1193282D02*
X1463282D01*
X1400892Y1202543D02*
X1410153Y1193282D01*
X1391810Y1208031D02*
X1397298Y1202543D01*
X1600870Y1239215D02*
Y1252500D01*
X1364250Y1025250D02*
Y1040000D01*
X1364000Y1025000D02*
X1364250Y1025250D01*
X1607671Y1199762D02*
X1612219Y1195214D01*
X1605108Y1199762D02*
X1607671D01*
X1602620Y1202250D02*
X1605108Y1199762D01*
X1434427Y1036000D02*
X1450142D01*
X1417417Y1182068D02*
X1421667D01*
X1414179Y1178830D02*
X1417417Y1182068D01*
X1614219Y1225214D02*
X1644617D01*
X1606004Y1233429D02*
X1614219Y1225214D01*
X1595944Y1233429D02*
X1606004D01*
X1589373Y1240000D02*
X1595944Y1233429D01*
X1330000Y1025000D02*
X1350000D01*
X1280000Y880000D02*
Y900250D01*
X1265269Y914500D02*
X1279750D01*
X1280000Y914250D01*
X1330000Y880000D02*
Y900000D01*
X1539000Y900000D02*
Y914231D01*
X1539500Y914731D01*
X1525000Y880000D02*
Y900000D01*
X1589500Y900500D02*
Y914731D01*
X1589000Y900000D02*
X1589500Y900500D01*
X1575000Y880000D02*
Y900000D01*
X1575000Y900000D02*
X1575000Y900000D01*
X1523536Y1050384D02*
Y1077826D01*
X1539500Y914731D02*
Y1034419D01*
X1523536Y1050384D02*
X1539500Y1034419D01*
X1545120Y1061676D02*
X1559358D01*
Y1040642D02*
Y1047676D01*
Y1040642D02*
X1575000Y1025000D01*
X1514553Y1084326D02*
X1523536D01*
X1509696Y1097326D02*
X1523536D01*
X1512310Y1090826D02*
X1523536D01*
Y1123326D02*
X1563157D01*
X1523536Y1129826D02*
X1568395D01*
X1523536Y1136326D02*
X1572016D01*
X1616241Y1183262D02*
X1625882D01*
X1630120Y1187500D01*
X1647620Y1209589D02*
Y1222211D01*
X1634358Y1206738D02*
X1644769D01*
X1647620Y1209589D01*
X1644617Y1225214D02*
X1647620Y1222211D01*
X1630120Y1202500D02*
X1634358Y1206738D01*
X1614870Y1252500D02*
X1647620D01*
D29*
X1360417Y1210122D02*
X1371399D01*
X1367917Y1196122D02*
X1369669D01*
X1371399Y1210122D02*
X1389718D01*
X1371399Y1197852D02*
Y1210122D01*
X1369669Y1196122D02*
X1371399Y1197852D01*
X1341417Y1196122D02*
Y1210122D01*
X1496029Y1110326D02*
X1523536D01*
X1523628Y1110234D01*
X1545112D01*
X1547075Y1108271D01*
X1496029Y1182068D02*
X1577610D01*
X1584801Y1189259D02*
Y1199520D01*
X1577610Y1182068D02*
X1584801Y1189259D01*
Y1199520D02*
X1587531Y1202250D01*
X1602620D01*
X1436785Y1061619D02*
X1475072D01*
X1483490Y1070037D01*
X1423682Y1048517D02*
X1436785Y1061619D01*
X1423682Y1026590D02*
Y1048517D01*
X1483490Y1070037D02*
Y1110326D01*
X1496029D01*
X1467536D02*
X1483490D01*
X1363642Y1231122D02*
X1380326Y1247806D01*
X1402443D02*
X1415046Y1235204D01*
X1380326Y1247806D02*
X1402443D01*
X1350917Y1231122D02*
X1363642D01*
X1415046Y1230798D02*
Y1235204D01*
Y1230798D02*
X1417776Y1228068D01*
X1449519D01*
X1328900Y1231122D02*
X1350917D01*
X1600870Y1211213D02*
Y1222715D01*
X1615639Y1213820D02*
X1626440D01*
X1600870Y1211213D02*
X1613032D01*
X1615639Y1213820D01*
X1421667Y1182068D02*
X1449519D01*
Y1205068D02*
Y1228068D01*
X1389718Y1210122D02*
X1391810Y1208031D01*
X1323214Y1210122D02*
X1341417D01*
X1306900D02*
X1323214D01*
X1306900D02*
Y1231122D01*
X1280924Y1210122D02*
X1306900D01*
X1261074D02*
X1280924D01*
X1261074D02*
Y1227558D01*
X1423682Y1026590D02*
X1426972Y1023300D01*
X1434427D01*
X1496029Y1110326D02*
Y1182068D01*
X1449519D02*
X1496029D01*
X1600870Y1204000D02*
Y1211213D01*
Y1204000D02*
X1602620Y1202250D01*
X1626440Y1213820D02*
X1630120Y1217500D01*
D30*
X1671174Y917432D02*
D03*
Y942832D02*
D03*
Y968232D02*
D03*
Y993633D02*
D03*
Y1019033D02*
D03*
Y1044433D02*
D03*
Y1069833D02*
D03*
Y1095232D02*
D03*
Y892032D02*
D03*
Y866632D02*
D03*
D31*
X1434427Y1036000D02*
D03*
X1434427Y1023300D02*
D03*
Y1010600D02*
D03*
Y997900D02*
D03*
D32*
X1330000Y880000D02*
D03*
X1280000D02*
D03*
X1305000D02*
D03*
X1330000Y1025000D02*
D03*
X1280000D02*
D03*
X1575000Y880000D02*
D03*
X1525000D02*
D03*
X1550000D02*
D03*
X1575000Y1025000D02*
D03*
X1525000D02*
D03*
D33*
X1245000Y955000D02*
D03*
X1490000D02*
D03*
D34*
X1365000D02*
D03*
X1610000D02*
D03*
D35*
X1276374Y1253808D02*
D03*
X1219773D02*
D03*
D36*
X1391810Y1233431D02*
D03*
D37*
Y1208031D02*
D03*
D38*
X1304178Y1142500D02*
D03*
X1301998Y1177168D02*
D03*
X1268074Y1181622D02*
D03*
X1389718Y1173657D02*
D03*
X1565086Y1070572D02*
D03*
X1618667Y846332D02*
D03*
X1608197Y851618D02*
D03*
X1599420Y858605D02*
D03*
X1590828Y865000D02*
D03*
X1472980Y846076D02*
D03*
X1278415Y1076280D02*
D03*
X1298289Y1074239D02*
D03*
X1298351Y1094530D02*
D03*
X1298034Y1113562D02*
D03*
X1278336Y1090784D02*
D03*
X1276019Y1122676D02*
D03*
X1287145Y1135222D02*
D03*
X1330008Y846321D02*
D03*
X1545120Y1038195D02*
D03*
X1584915Y1060047D02*
D03*
X1596265Y1029217D02*
D03*
X1599885Y1056969D02*
D03*
X1608990Y1070023D02*
D03*
X1312247Y1010570D02*
D03*
X1304492Y999043D02*
D03*
X1290240Y998414D02*
D03*
X1291465Y1048045D02*
D03*
X1298293Y1057758D02*
D03*
X1312498Y1054548D02*
D03*
X1362352Y1060604D02*
D03*
X1379639Y1068639D02*
D03*
X1409344Y1071439D02*
D03*
X1413970Y1084587D02*
D03*
X1425538Y1090257D02*
D03*
X1435895Y1097135D02*
D03*
X1446616Y1103810D02*
D03*
X1456973Y1110567D02*
D03*
X1507953Y866076D02*
D03*
X1412791Y960484D02*
D03*
X1664587Y907499D02*
D03*
X1656934Y916119D02*
D03*
X1692620Y1047344D02*
D03*
X1685300Y1072713D02*
D03*
X1652506Y926678D02*
D03*
X1691152Y947760D02*
D03*
X1622500Y1120000D02*
D03*
X1401071Y954549D02*
D03*
X1406629Y927240D02*
D03*
X1685300Y919462D02*
D03*
X1660864Y937996D02*
D03*
X1647620Y1113822D02*
D03*
X1630120Y1103203D02*
D03*
X1692088Y931674D02*
D03*
X1709951Y925968D02*
D03*
X1387500Y887500D02*
D03*
X1210000Y1198459D02*
D03*
Y1150000D02*
D03*
Y1050000D02*
D03*
Y850000D02*
D03*
X1407500Y875000D02*
D03*
X1705000Y860000D02*
D03*
X1485822Y852295D02*
D03*
X1495730Y859940D02*
D03*
X1710000Y1172500D02*
D03*
X1613842Y1204370D02*
D03*
X1492809Y1200118D02*
D03*
X1323214Y1187794D02*
D03*
X1306900D02*
D03*
X1615185Y1232500D02*
D03*
X1611551Y1219508D02*
D03*
X1525000Y925394D02*
D03*
X1575000D02*
D03*
X1255706Y900000D02*
D03*
X1320807Y914731D02*
D03*
X1340807Y1039750D02*
D03*
X1537208Y1093771D02*
D03*
X1457000Y1136326D02*
D03*
X1294000Y1181622D02*
D03*
X1350917Y1142500D02*
D03*
X1399626Y1191797D02*
D03*
X1235073Y1212785D02*
D03*
Y1204568D02*
D03*
Y1243426D02*
D03*
X1252213Y1201122D02*
D03*
X1235073Y1251308D02*
D03*
X1434000Y1153568D02*
D03*
X1417636Y1207784D02*
D03*
X1426411Y1207888D02*
D03*
X1396582Y1182068D02*
D03*
X1524417Y1205068D02*
D03*
X1492809Y1210018D02*
D03*
X1508019Y1225252D02*
D03*
X1533832Y1103826D02*
D03*
X1512770D02*
D03*
X1551411Y1215062D02*
D03*
X1543000Y1202250D02*
D03*
X1615225Y1157500D02*
D03*
X1630120Y1147450D02*
D03*
Y1241415D02*
D03*
X1647620Y1233000D02*
D03*
X1707620Y1238000D02*
D03*
X1692620D02*
D03*
X1677620D02*
D03*
X1662620D02*
D03*
X1592620Y1187750D02*
D03*
X1576000Y1166000D02*
D03*
X1566000D02*
D03*
X1547075Y1085178D02*
D03*
X1536274Y1260000D02*
D03*
X1560000D02*
D03*
X1440000D02*
D03*
X1300000Y1262744D02*
D03*
X1326458Y1083830D02*
D03*
%TF.MD5,c548d835a7a3d233907b9f05b494678c*%
M02*
