%TF.GenerationSoftware,Altium Limited,Altium Designer,20.1.8 (145)*%
G04 Layer_Physical_Order=4*
G04 Layer_Color=16729670*
%FSLAX44Y44*%
%MOMM*%
%TF.SameCoordinates,602AE14E-E67F-4A72-A58A-C630FF545DDC*%
%TF.FilePolarity,Positive*%
%TF.FileFunction,Copper,L4,Bot,Signal*%
%TF.Part,Single*%
G01*
G75*
%TA.AperFunction,Conductor*%
%ADD10C,0.1270*%
%ADD11C,0.2540*%
%ADD12C,0.1524*%
%ADD46C,0.3048*%
%ADD47C,0.2032*%
%ADD48C,0.1778*%
%TA.AperFunction,NonConductor*%
%ADD49C,0.2540*%
%TA.AperFunction,ComponentPad*%
G04:AMPARAMS|DCode=50|XSize=1.5mm|YSize=1.5mm|CornerRadius=0.1875mm|HoleSize=0mm|Usage=FLASHONLY|Rotation=270.000|XOffset=0mm|YOffset=0mm|HoleType=Round|Shape=RoundedRectangle|*
%AMROUNDEDRECTD50*
21,1,1.5000,1.1250,0,0,270.0*
21,1,1.1250,1.5000,0,0,270.0*
1,1,0.3750,-0.5625,-0.5625*
1,1,0.3750,-0.5625,0.5625*
1,1,0.3750,0.5625,0.5625*
1,1,0.3750,0.5625,-0.5625*
%
%ADD50ROUNDEDRECTD50*%
%ADD51C,1.5000*%
G04:AMPARAMS|DCode=52|XSize=1.5mm|YSize=1.5mm|CornerRadius=0.15mm|HoleSize=0mm|Usage=FLASHONLY|Rotation=180.000|XOffset=0mm|YOffset=0mm|HoleType=Round|Shape=RoundedRectangle|*
%AMROUNDEDRECTD52*
21,1,1.5000,1.2000,0,0,180.0*
21,1,1.2000,1.5000,0,0,180.0*
1,1,0.3000,-0.6000,0.6000*
1,1,0.3000,0.6000,0.6000*
1,1,0.3000,0.6000,-0.6000*
1,1,0.3000,-0.6000,-0.6000*
%
%ADD52ROUNDEDRECTD52*%
%TA.AperFunction,ViaPad*%
%ADD53C,5.5000*%
%TA.AperFunction,ComponentPad*%
%ADD54C,0.5600*%
%ADD55O,2.2000X1.1000*%
%ADD56O,1.9000X1.1000*%
%TA.AperFunction,ViaPad*%
%ADD57C,0.7600*%
%ADD58C,0.4600*%
%ADD59C,0.9000*%
%ADD60C,1.5000*%
%TA.AperFunction,SMDPad,CuDef*%
G04:AMPARAMS|DCode=62|XSize=1.1mm|YSize=2.3mm|CornerRadius=0.0055mm|HoleSize=0mm|Usage=FLASHONLY|Rotation=270.000|XOffset=0mm|YOffset=0mm|HoleType=Round|Shape=RoundedRectangle|*
%AMROUNDEDRECTD62*
21,1,1.1000,2.2890,0,0,270.0*
21,1,1.0890,2.3000,0,0,270.0*
1,1,0.0110,-1.1445,-0.5445*
1,1,0.0110,-1.1445,0.5445*
1,1,0.0110,1.1445,0.5445*
1,1,0.0110,1.1445,-0.5445*
%
%ADD62ROUNDEDRECTD62*%
G04:AMPARAMS|DCode=63|XSize=1.1mm|YSize=2.3mm|CornerRadius=0.0055mm|HoleSize=0mm|Usage=FLASHONLY|Rotation=180.000|XOffset=0mm|YOffset=0mm|HoleType=Round|Shape=RoundedRectangle|*
%AMROUNDEDRECTD63*
21,1,1.1000,2.2890,0,0,180.0*
21,1,1.0890,2.3000,0,0,180.0*
1,1,0.0110,-0.5445,1.1445*
1,1,0.0110,0.5445,1.1445*
1,1,0.0110,0.5445,-1.1445*
1,1,0.0110,-0.5445,-1.1445*
%
%ADD63ROUNDEDRECTD63*%
G04:AMPARAMS|DCode=64|XSize=2.1mm|YSize=1mm|CornerRadius=0.05mm|HoleSize=0mm|Usage=FLASHONLY|Rotation=180.000|XOffset=0mm|YOffset=0mm|HoleType=Round|Shape=RoundedRectangle|*
%AMROUNDEDRECTD64*
21,1,2.1000,0.9000,0,0,180.0*
21,1,2.0000,1.0000,0,0,180.0*
1,1,0.1000,-1.0000,0.4500*
1,1,0.1000,1.0000,0.4500*
1,1,0.1000,1.0000,-0.4500*
1,1,0.1000,-1.0000,-0.4500*
%
%ADD64ROUNDEDRECTD64*%
G04:AMPARAMS|DCode=65|XSize=0.85mm|YSize=0.5mm|CornerRadius=0.0025mm|HoleSize=0mm|Usage=FLASHONLY|Rotation=0.000|XOffset=0mm|YOffset=0mm|HoleType=Round|Shape=RoundedRectangle|*
%AMROUNDEDRECTD65*
21,1,0.8500,0.4950,0,0,0.0*
21,1,0.8450,0.5000,0,0,0.0*
1,1,0.0050,0.4225,-0.2475*
1,1,0.0050,-0.4225,-0.2475*
1,1,0.0050,-0.4225,0.2475*
1,1,0.0050,0.4225,0.2475*
%
%ADD65ROUNDEDRECTD65*%
G04:AMPARAMS|DCode=66|XSize=0.5mm|YSize=0.8mm|CornerRadius=0.0025mm|HoleSize=0mm|Usage=FLASHONLY|Rotation=180.000|XOffset=0mm|YOffset=0mm|HoleType=Round|Shape=RoundedRectangle|*
%AMROUNDEDRECTD66*
21,1,0.5000,0.7950,0,0,180.0*
21,1,0.4950,0.8000,0,0,180.0*
1,1,0.0050,-0.2475,0.3975*
1,1,0.0050,0.2475,0.3975*
1,1,0.0050,0.2475,-0.3975*
1,1,0.0050,-0.2475,-0.3975*
%
%ADD66ROUNDEDRECTD66*%
G04:AMPARAMS|DCode=67|XSize=0.85mm|YSize=0.6mm|CornerRadius=0.003mm|HoleSize=0mm|Usage=FLASHONLY|Rotation=270.000|XOffset=0mm|YOffset=0mm|HoleType=Round|Shape=RoundedRectangle|*
%AMROUNDEDRECTD67*
21,1,0.8500,0.5940,0,0,270.0*
21,1,0.8440,0.6000,0,0,270.0*
1,1,0.0060,-0.2970,-0.4220*
1,1,0.0060,-0.2970,0.4220*
1,1,0.0060,0.2970,0.4220*
1,1,0.0060,0.2970,-0.4220*
%
%ADD67ROUNDEDRECTD67*%
G04:AMPARAMS|DCode=68|XSize=1mm|YSize=1.25mm|CornerRadius=0.005mm|HoleSize=0mm|Usage=FLASHONLY|Rotation=180.000|XOffset=0mm|YOffset=0mm|HoleType=Round|Shape=RoundedRectangle|*
%AMROUNDEDRECTD68*
21,1,1.0000,1.2400,0,0,180.0*
21,1,0.9900,1.2500,0,0,180.0*
1,1,0.0100,-0.4950,0.6200*
1,1,0.0100,0.4950,0.6200*
1,1,0.0100,0.4950,-0.6200*
1,1,0.0100,-0.4950,-0.6200*
%
%ADD68ROUNDEDRECTD68*%
G04:AMPARAMS|DCode=69|XSize=0.85mm|YSize=0.6mm|CornerRadius=0.003mm|HoleSize=0mm|Usage=FLASHONLY|Rotation=180.000|XOffset=0mm|YOffset=0mm|HoleType=Round|Shape=RoundedRectangle|*
%AMROUNDEDRECTD69*
21,1,0.8500,0.5940,0,0,180.0*
21,1,0.8440,0.6000,0,0,180.0*
1,1,0.0060,-0.4220,0.2970*
1,1,0.0060,0.4220,0.2970*
1,1,0.0060,0.4220,-0.2970*
1,1,0.0060,-0.4220,-0.2970*
%
%ADD69ROUNDEDRECTD69*%
G04:AMPARAMS|DCode=70|XSize=2.1mm|YSize=1mm|CornerRadius=0.05mm|HoleSize=0mm|Usage=FLASHONLY|Rotation=270.000|XOffset=0mm|YOffset=0mm|HoleType=Round|Shape=RoundedRectangle|*
%AMROUNDEDRECTD70*
21,1,2.1000,0.9000,0,0,270.0*
21,1,2.0000,1.0000,0,0,270.0*
1,1,0.1000,-0.4500,-1.0000*
1,1,0.1000,-0.4500,1.0000*
1,1,0.1000,0.4500,1.0000*
1,1,0.1000,0.4500,-1.0000*
%
%ADD70ROUNDEDRECTD70*%
G04:AMPARAMS|DCode=71|XSize=0.85mm|YSize=0.5mm|CornerRadius=0.0025mm|HoleSize=0mm|Usage=FLASHONLY|Rotation=270.000|XOffset=0mm|YOffset=0mm|HoleType=Round|Shape=RoundedRectangle|*
%AMROUNDEDRECTD71*
21,1,0.8500,0.4950,0,0,270.0*
21,1,0.8450,0.5000,0,0,270.0*
1,1,0.0050,-0.2475,-0.4225*
1,1,0.0050,-0.2475,0.4225*
1,1,0.0050,0.2475,0.4225*
1,1,0.0050,0.2475,-0.4225*
%
%ADD71ROUNDEDRECTD71*%
G04:AMPARAMS|DCode=72|XSize=0.8mm|YSize=0.8mm|CornerRadius=0.004mm|HoleSize=0mm|Usage=FLASHONLY|Rotation=270.000|XOffset=0mm|YOffset=0mm|HoleType=Round|Shape=RoundedRectangle|*
%AMROUNDEDRECTD72*
21,1,0.8000,0.7920,0,0,270.0*
21,1,0.7920,0.8000,0,0,270.0*
1,1,0.0080,-0.3960,-0.3960*
1,1,0.0080,-0.3960,0.3960*
1,1,0.0080,0.3960,0.3960*
1,1,0.0080,0.3960,-0.3960*
%
%ADD72ROUNDEDRECTD72*%
G04:AMPARAMS|DCode=73|XSize=1.65mm|YSize=0.95mm|CornerRadius=0.0048mm|HoleSize=0mm|Usage=FLASHONLY|Rotation=270.000|XOffset=0mm|YOffset=0mm|HoleType=Round|Shape=RoundedRectangle|*
%AMROUNDEDRECTD73*
21,1,1.6500,0.9405,0,0,270.0*
21,1,1.6405,0.9500,0,0,270.0*
1,1,0.0095,-0.4703,-0.8203*
1,1,0.0095,-0.4703,0.8203*
1,1,0.0095,0.4703,0.8203*
1,1,0.0095,0.4703,-0.8203*
%
%ADD73ROUNDEDRECTD73*%
G04:AMPARAMS|DCode=74|XSize=1.5mm|YSize=1.5mm|CornerRadius=0.1875mm|HoleSize=0mm|Usage=FLASHONLY|Rotation=180.000|XOffset=0mm|YOffset=0mm|HoleType=Round|Shape=RoundedRectangle|*
%AMROUNDEDRECTD74*
21,1,1.5000,1.1250,0,0,180.0*
21,1,1.1250,1.5000,0,0,180.0*
1,1,0.3750,-0.5625,0.5625*
1,1,0.3750,0.5625,0.5625*
1,1,0.3750,0.5625,-0.5625*
1,1,0.3750,-0.5625,-0.5625*
%
%ADD74ROUNDEDRECTD74*%
%ADD75O,1.0000X2.0000*%
%ADD76O,2.0000X1.0000*%
G04:AMPARAMS|DCode=77|XSize=0.55mm|YSize=0.7mm|CornerRadius=0.0028mm|HoleSize=0mm|Usage=FLASHONLY|Rotation=0.000|XOffset=0mm|YOffset=0mm|HoleType=Round|Shape=RoundedRectangle|*
%AMROUNDEDRECTD77*
21,1,0.5500,0.6945,0,0,0.0*
21,1,0.5445,0.7000,0,0,0.0*
1,1,0.0055,0.2723,-0.3473*
1,1,0.0055,-0.2723,-0.3473*
1,1,0.0055,-0.2723,0.3473*
1,1,0.0055,0.2723,0.3473*
%
%ADD77ROUNDEDRECTD77*%
%ADD78O,1.2000X0.4000*%
G04:AMPARAMS|DCode=79|XSize=3.355mm|YSize=4.12mm|CornerRadius=0.2852mm|HoleSize=0mm|Usage=FLASHONLY|Rotation=0.000|XOffset=0mm|YOffset=0mm|HoleType=Round|Shape=RoundedRectangle|*
%AMROUNDEDRECTD79*
21,1,3.3550,3.5497,0,0,0.0*
21,1,2.7847,4.1200,0,0,0.0*
1,1,0.5704,1.3923,-1.7748*
1,1,0.5704,-1.3923,-1.7748*
1,1,0.5704,-1.3923,1.7748*
1,1,0.5704,1.3923,1.7748*
%
%ADD79ROUNDEDRECTD79*%
%ADD80O,1.1500X0.4000*%
G04:AMPARAMS|DCode=81|XSize=1mm|YSize=2.15mm|CornerRadius=0.005mm|HoleSize=0mm|Usage=FLASHONLY|Rotation=0.000|XOffset=0mm|YOffset=0mm|HoleType=Round|Shape=RoundedRectangle|*
%AMROUNDEDRECTD81*
21,1,1.0000,2.1400,0,0,0.0*
21,1,0.9900,2.1500,0,0,0.0*
1,1,0.0100,0.4950,-1.0700*
1,1,0.0100,-0.4950,-1.0700*
1,1,0.0100,-0.4950,1.0700*
1,1,0.0100,0.4950,1.0700*
%
%ADD81ROUNDEDRECTD81*%
G04:AMPARAMS|DCode=82|XSize=3.25mm|YSize=2.15mm|CornerRadius=0.0108mm|HoleSize=0mm|Usage=FLASHONLY|Rotation=0.000|XOffset=0mm|YOffset=0mm|HoleType=Round|Shape=RoundedRectangle|*
%AMROUNDEDRECTD82*
21,1,3.2500,2.1285,0,0,0.0*
21,1,3.2285,2.1500,0,0,0.0*
1,1,0.0215,1.6143,-1.0642*
1,1,0.0215,-1.6143,-1.0642*
1,1,0.0215,-1.6143,1.0642*
1,1,0.0215,1.6143,1.0642*
%
%ADD82ROUNDEDRECTD82*%
G04:AMPARAMS|DCode=83|XSize=0.55mm|YSize=0.7mm|CornerRadius=0.0028mm|HoleSize=0mm|Usage=FLASHONLY|Rotation=270.000|XOffset=0mm|YOffset=0mm|HoleType=Round|Shape=RoundedRectangle|*
%AMROUNDEDRECTD83*
21,1,0.5500,0.6945,0,0,270.0*
21,1,0.5445,0.7000,0,0,270.0*
1,1,0.0055,-0.3473,-0.2723*
1,1,0.0055,-0.3473,0.2723*
1,1,0.0055,0.3473,0.2723*
1,1,0.0055,0.3473,-0.2723*
%
%ADD83ROUNDEDRECTD83*%
G04:AMPARAMS|DCode=84|XSize=0.45mm|YSize=1.5mm|CornerRadius=0.1125mm|HoleSize=0mm|Usage=FLASHONLY|Rotation=180.000|XOffset=0mm|YOffset=0mm|HoleType=Round|Shape=RoundedRectangle|*
%AMROUNDEDRECTD84*
21,1,0.4500,1.2750,0,0,180.0*
21,1,0.2250,1.5000,0,0,180.0*
1,1,0.2250,-0.1125,0.6375*
1,1,0.2250,0.1125,0.6375*
1,1,0.2250,0.1125,-0.6375*
1,1,0.2250,-0.1125,-0.6375*
%
%ADD84ROUNDEDRECTD84*%
%TA.AperFunction,Conductor*%
%ADD85C,0.9144*%
%ADD86C,0.4064*%
%ADD87C,0.5080*%
G36*
X-243088Y184750D02*
X-238611Y183551D01*
X-234329Y181777D01*
X-230315Y179460D01*
X-226639Y176639D01*
X-223361Y173361D01*
X-220540Y169685D01*
X-218223Y165671D01*
X-216449Y161389D01*
X-215250Y156912D01*
X-214645Y152317D01*
Y147683D01*
X-215250Y143088D01*
X-216449Y138611D01*
X-218223Y134329D01*
X-220540Y130316D01*
X-223361Y126639D01*
X-226639Y123361D01*
X-230315Y120540D01*
X-234329Y118223D01*
X-238611Y116449D01*
X-243088Y115250D01*
X-247049Y114728D01*
X-248319Y115632D01*
Y137397D01*
X-246042D01*
X-245234Y137732D01*
X-244899Y138540D01*
Y146460D01*
X-245234Y147268D01*
X-246042Y147603D01*
X-253962D01*
X-254770Y147268D01*
X-255105Y146460D01*
Y138540D01*
X-254770Y137732D01*
X-253962Y137397D01*
X-251686D01*
Y115635D01*
X-252955Y114729D01*
X-256912Y115250D01*
X-261389Y116449D01*
X-265671Y118223D01*
X-269685Y120540D01*
X-270639Y121272D01*
Y121615D01*
X-275991D01*
Y122123D01*
X-276499D01*
Y126499D01*
X-276639Y126639D01*
X-279460Y130316D01*
X-281777Y134329D01*
X-283551Y138611D01*
X-284750Y143088D01*
X-285355Y147683D01*
Y152317D01*
X-284750Y156912D01*
X-283551Y161389D01*
X-281777Y165671D01*
X-279460Y169685D01*
X-276639Y173361D01*
X-273361Y176639D01*
X-269685Y179460D01*
X-265671Y181777D01*
X-261389Y183551D01*
X-256912Y184750D01*
X-252317Y185355D01*
X-247683D01*
X-243088Y184750D01*
D02*
G37*
G36*
X-223226Y-209698D02*
X-222837Y-210637D01*
X-223183Y-210983D01*
X-223632Y-211655D01*
X-223790Y-212448D01*
X-223790Y-212448D01*
Y-263842D01*
X-223790Y-263842D01*
X-223632Y-264635D01*
X-223183Y-265307D01*
X-197717Y-290774D01*
X-197045Y-291223D01*
X-196252Y-291380D01*
X-196252Y-291380D01*
X-189124D01*
X-189056Y-291483D01*
X-188291Y-291994D01*
X-188218Y-292297D01*
Y-292820D01*
X-188291Y-293123D01*
X-189056Y-293634D01*
X-189384Y-294125D01*
X-190188D01*
X-190832Y-294253D01*
X-191378Y-294618D01*
X-192276Y-295516D01*
X-192641Y-296062D01*
X-192769Y-296707D01*
Y-298168D01*
X-211349Y-316748D01*
X-211714Y-317294D01*
X-211842Y-317938D01*
Y-349915D01*
X-213332Y-351405D01*
X-213697Y-351951D01*
X-213738Y-352156D01*
X-219024D01*
X-220201Y-352390D01*
X-221198Y-353056D01*
X-221865Y-354054D01*
X-222099Y-355231D01*
X-221865Y-356408D01*
X-221198Y-357405D01*
X-220433Y-357916D01*
X-220361Y-358219D01*
Y-358743D01*
X-220433Y-359045D01*
X-221198Y-359556D01*
X-221865Y-360554D01*
X-222099Y-361731D01*
X-221865Y-362907D01*
X-221198Y-363905D01*
X-220433Y-364416D01*
X-220361Y-364719D01*
Y-365243D01*
X-220433Y-365545D01*
X-221198Y-366056D01*
X-221526Y-366547D01*
X-221659D01*
X-222303Y-366675D01*
X-222849Y-367040D01*
X-223865Y-368056D01*
X-224230Y-368602D01*
X-224358Y-369247D01*
Y-415243D01*
X-224230Y-415887D01*
X-223865Y-416433D01*
X-221726Y-418572D01*
X-221180Y-418937D01*
X-220536Y-419065D01*
X-208552D01*
X-205020Y-422597D01*
X-204474Y-422962D01*
X-203830Y-423090D01*
X-131484D01*
X-118846Y-435728D01*
Y-437988D01*
X-118718Y-438632D01*
X-118353Y-439178D01*
X-114888Y-442642D01*
X-114342Y-443007D01*
X-114240Y-443383D01*
X-115001Y-444399D01*
X-147669D01*
Y-441422D01*
X-145729Y-440618D01*
X-143950Y-439253D01*
X-142585Y-437474D01*
X-141727Y-435403D01*
X-141434Y-433180D01*
X-141727Y-430956D01*
X-142585Y-428885D01*
X-143950Y-427106D01*
X-145729Y-425741D01*
X-147800Y-424883D01*
X-150023Y-424590D01*
X-152247Y-424883D01*
X-154318Y-425741D01*
X-156097Y-427106D01*
X-157462Y-428885D01*
X-158320Y-430956D01*
X-158613Y-433180D01*
X-158320Y-435403D01*
X-157462Y-437474D01*
X-156097Y-439253D01*
X-154318Y-440618D01*
X-152331Y-441441D01*
Y-444399D01*
X-279650D01*
X-294399Y-429650D01*
Y-396302D01*
X-291102D01*
Y-397201D01*
X-290771Y-398001D01*
X-289970Y-398333D01*
X-281530D01*
X-280729Y-398001D01*
X-280398Y-397201D01*
Y-396302D01*
X-277267D01*
X-277198Y-396405D01*
X-276433Y-396916D01*
X-276361Y-397219D01*
Y-397743D01*
X-276433Y-398045D01*
X-277198Y-398556D01*
X-277865Y-399554D01*
X-278099Y-400731D01*
X-277865Y-401908D01*
X-277198Y-402905D01*
X-276433Y-403416D01*
X-276361Y-403719D01*
Y-404243D01*
X-276433Y-404545D01*
X-277198Y-405056D01*
X-277865Y-406054D01*
X-278099Y-407231D01*
X-277865Y-408408D01*
X-277198Y-409405D01*
X-276433Y-409916D01*
X-276361Y-410219D01*
Y-410743D01*
X-276433Y-411045D01*
X-277198Y-411556D01*
X-277865Y-412554D01*
X-278099Y-413731D01*
X-277865Y-414907D01*
X-277198Y-415905D01*
X-276201Y-416572D01*
X-275024Y-416806D01*
X-267524D01*
X-266347Y-416572D01*
X-265349Y-415905D01*
X-264683Y-414907D01*
X-264449Y-413731D01*
X-264683Y-412554D01*
X-265349Y-411556D01*
X-266114Y-411045D01*
X-266187Y-410743D01*
Y-410219D01*
X-266114Y-409916D01*
X-265349Y-409405D01*
X-264683Y-408408D01*
X-264449Y-407231D01*
X-264683Y-406054D01*
X-265349Y-405056D01*
X-266114Y-404545D01*
X-266187Y-404243D01*
Y-403719D01*
X-266114Y-403416D01*
X-265349Y-402905D01*
X-264683Y-401908D01*
X-264449Y-400731D01*
X-264683Y-399554D01*
X-265349Y-398556D01*
X-266114Y-398045D01*
X-266187Y-397743D01*
Y-397219D01*
X-266114Y-396916D01*
X-265349Y-396405D01*
X-264683Y-395407D01*
X-264449Y-394231D01*
X-264683Y-393054D01*
X-265349Y-392056D01*
X-266114Y-391545D01*
X-266187Y-391243D01*
Y-390719D01*
X-266114Y-390416D01*
X-265349Y-389905D01*
X-264683Y-388908D01*
X-264550Y-388239D01*
X-271273D01*
X-277998D01*
X-277865Y-388908D01*
X-277198Y-389905D01*
X-276433Y-390416D01*
X-276361Y-390719D01*
Y-391243D01*
X-276433Y-391545D01*
X-277198Y-392056D01*
X-277267Y-392159D01*
X-280398D01*
Y-391261D01*
X-280729Y-390460D01*
X-281530Y-390129D01*
X-289970D01*
X-290771Y-390460D01*
X-291102Y-391261D01*
Y-392159D01*
X-294399D01*
Y-335515D01*
X-294277Y-335393D01*
X-293172D01*
Y-336798D01*
X-292841Y-337598D01*
X-292040Y-337930D01*
X-286100D01*
X-285299Y-337598D01*
X-284968Y-336798D01*
Y-328358D01*
X-285299Y-327557D01*
X-286100Y-327225D01*
X-288243D01*
Y-321844D01*
X-284562D01*
X-283385Y-321610D01*
X-282622Y-321100D01*
X-279526D01*
X-278634Y-320923D01*
X-277878Y-320417D01*
X-239561Y-282100D01*
X-237502D01*
X-236971Y-282455D01*
X-236899Y-282757D01*
Y-283281D01*
X-236971Y-283584D01*
X-237736Y-284095D01*
X-238065Y-284586D01*
X-238672D01*
X-239316Y-284714D01*
X-239862Y-285079D01*
X-240606Y-285823D01*
X-240971Y-286369D01*
X-241099Y-287013D01*
Y-301124D01*
X-255856Y-315882D01*
X-256221Y-316428D01*
X-256349Y-317072D01*
Y-347923D01*
X-261974Y-353547D01*
X-265021D01*
X-265349Y-353056D01*
X-266347Y-352390D01*
X-267524Y-352156D01*
X-275024D01*
X-276201Y-352390D01*
X-277198Y-353056D01*
X-277865Y-354054D01*
X-278099Y-355231D01*
X-277865Y-356408D01*
X-277198Y-357405D01*
X-276433Y-357916D01*
X-276361Y-358219D01*
Y-358743D01*
X-276433Y-359045D01*
X-277198Y-359556D01*
X-277865Y-360554D01*
X-278099Y-361731D01*
X-277865Y-362907D01*
X-277198Y-363905D01*
X-276433Y-364416D01*
X-276361Y-364719D01*
Y-365243D01*
X-276433Y-365545D01*
X-277198Y-366056D01*
X-277865Y-367054D01*
X-278099Y-368231D01*
X-277865Y-369408D01*
X-277198Y-370405D01*
X-276433Y-370916D01*
X-276361Y-371219D01*
Y-371743D01*
X-276433Y-372045D01*
X-277198Y-372556D01*
X-277865Y-373554D01*
X-278099Y-374731D01*
X-277865Y-375908D01*
X-277198Y-376905D01*
X-276433Y-377416D01*
X-276361Y-377719D01*
Y-378243D01*
X-276433Y-378545D01*
X-277198Y-379056D01*
X-277526Y-379547D01*
X-283158D01*
X-283720Y-378707D01*
X-284560Y-378146D01*
Y-376697D01*
X-282023D01*
X-281222Y-376365D01*
X-280891Y-375565D01*
Y-369625D01*
X-281222Y-368824D01*
X-282023Y-368493D01*
X-290463D01*
X-291264Y-368824D01*
X-291595Y-369625D01*
Y-375565D01*
X-291264Y-376365D01*
X-290463Y-376697D01*
X-287926D01*
Y-378146D01*
X-288766Y-378707D01*
X-289540Y-379865D01*
X-289811Y-381231D01*
X-289540Y-382596D01*
X-288766Y-383754D01*
X-287609Y-384528D01*
X-286243Y-384799D01*
X-284877Y-384528D01*
X-283720Y-383754D01*
X-283158Y-382914D01*
X-277526D01*
X-277198Y-383405D01*
X-276433Y-383916D01*
X-276361Y-384219D01*
Y-384743D01*
X-276433Y-385045D01*
X-277198Y-385556D01*
X-277865Y-386554D01*
X-277998Y-387223D01*
X-271273D01*
X-264550D01*
X-264683Y-386554D01*
X-265349Y-385556D01*
X-266114Y-385045D01*
X-266187Y-384743D01*
Y-384219D01*
X-266114Y-383916D01*
X-265349Y-383405D01*
X-264683Y-382407D01*
X-264449Y-381231D01*
X-264683Y-380054D01*
X-265349Y-379056D01*
X-266114Y-378545D01*
X-266187Y-378243D01*
Y-377719D01*
X-266114Y-377416D01*
X-265349Y-376905D01*
X-265021Y-376414D01*
X-263850D01*
X-263206Y-376286D01*
X-262659Y-375921D01*
X-261301Y-374563D01*
X-260936Y-374017D01*
X-260808Y-373372D01*
Y-370309D01*
X-220116Y-329617D01*
X-219751Y-329071D01*
X-219623Y-328427D01*
Y-293513D01*
X-219751Y-292869D01*
X-220116Y-292323D01*
X-220860Y-291579D01*
X-221406Y-291214D01*
X-222050Y-291086D01*
X-225060D01*
X-225388Y-290595D01*
X-226153Y-290084D01*
X-226225Y-289781D01*
Y-289257D01*
X-226153Y-288955D01*
X-225388Y-288444D01*
X-224721Y-287446D01*
X-224487Y-286269D01*
X-224721Y-285092D01*
X-225388Y-284095D01*
X-226153Y-283584D01*
X-226225Y-283281D01*
Y-282757D01*
X-226153Y-282455D01*
X-225388Y-281944D01*
X-224721Y-280946D01*
X-224487Y-279769D01*
X-224721Y-278592D01*
X-225388Y-277595D01*
X-226385Y-276928D01*
X-227562Y-276694D01*
X-235562D01*
X-236739Y-276928D01*
X-237502Y-277438D01*
X-240526D01*
X-241418Y-277616D01*
X-242174Y-278121D01*
X-280492Y-316438D01*
X-282622D01*
X-283153Y-316084D01*
X-283225Y-315781D01*
Y-315257D01*
X-283153Y-314955D01*
X-282388Y-314444D01*
X-281721Y-313446D01*
X-281487Y-312269D01*
X-281721Y-311092D01*
X-282388Y-310095D01*
X-283153Y-309584D01*
X-283225Y-309281D01*
Y-308757D01*
X-283153Y-308455D01*
X-282388Y-307944D01*
X-282059Y-307453D01*
X-281982D01*
X-281338Y-307324D01*
X-280792Y-306959D01*
X-257078Y-283246D01*
X-256713Y-282700D01*
X-256585Y-282055D01*
Y-222261D01*
X-245138Y-210813D01*
X-238827D01*
X-238498Y-211304D01*
X-237733Y-211816D01*
X-237661Y-212118D01*
Y-212642D01*
X-237733Y-212945D01*
X-238498Y-213456D01*
X-239165Y-214453D01*
X-239298Y-215122D01*
X-232325D01*
X-225350D01*
X-225483Y-214453D01*
X-226150Y-213456D01*
X-226915Y-212945D01*
X-226987Y-212642D01*
Y-212118D01*
X-226915Y-211816D01*
X-226150Y-211304D01*
X-225483Y-210307D01*
X-225362Y-209698D01*
X-223226D01*
D02*
G37*
G36*
X297961Y-230692D02*
X270145Y-230693D01*
Y-186182D01*
X297961Y-186182D01*
Y-230692D01*
D02*
G37*
G36*
X-266528Y-209698D02*
X-265421Y-209918D01*
X-264314Y-209698D01*
X-256577D01*
X-256188Y-210637D01*
X-264031Y-218479D01*
X-264396Y-219025D01*
X-264524Y-219670D01*
Y-246188D01*
X-265420Y-246667D01*
X-265610Y-246540D01*
X-266975Y-246269D01*
X-268341Y-246540D01*
X-269499Y-247314D01*
X-270272Y-248472D01*
X-270544Y-249837D01*
X-270272Y-251203D01*
X-269499Y-252360D01*
X-268659Y-252922D01*
Y-253624D01*
X-268531Y-254268D01*
X-268166Y-254814D01*
X-266810Y-256170D01*
Y-278517D01*
X-272878Y-284586D01*
X-282059D01*
X-282388Y-284095D01*
X-283153Y-283584D01*
X-283225Y-283281D01*
Y-282757D01*
X-283153Y-282455D01*
X-282388Y-281944D01*
X-281721Y-280946D01*
X-281487Y-279769D01*
X-281721Y-278592D01*
X-282388Y-277595D01*
X-283385Y-276928D01*
X-284562Y-276694D01*
X-285972D01*
Y-273114D01*
X-285592D01*
X-284792Y-272783D01*
X-284460Y-271982D01*
Y-263542D01*
X-284792Y-262742D01*
X-284849Y-262555D01*
X-284958Y-261573D01*
X-284025Y-260177D01*
X-283652Y-258298D01*
X-284025Y-256419D01*
X-285090Y-254826D01*
X-286683Y-253762D01*
X-288562Y-253388D01*
X-290441Y-253762D01*
X-292034Y-254826D01*
X-293099Y-256419D01*
X-293472Y-258298D01*
X-293099Y-260177D01*
X-292166Y-261573D01*
X-292275Y-262555D01*
X-292333Y-262742D01*
X-292664Y-263542D01*
Y-271982D01*
X-292333Y-272783D01*
X-291532Y-273114D01*
X-291152D01*
Y-276694D01*
X-292562D01*
X-293739Y-276928D01*
X-294666Y-277547D01*
X-295031Y-277466D01*
X-295682Y-277181D01*
Y-244904D01*
X-294666Y-244361D01*
X-294501Y-244471D01*
X-293324Y-244705D01*
X-285324D01*
X-284147Y-244471D01*
X-283150Y-243804D01*
X-282822Y-243313D01*
X-282458D01*
X-281814Y-243185D01*
X-281267Y-242820D01*
X-268365Y-229918D01*
X-268001Y-229372D01*
X-267872Y-228728D01*
Y-209698D01*
X-266528D01*
D02*
G37*
G36*
X-132673Y-255558D02*
X-132722Y-255632D01*
X-132956Y-256809D01*
X-132722Y-257985D01*
X-132056Y-258983D01*
X-131291Y-259494D01*
X-131218Y-259797D01*
Y-260320D01*
X-131291Y-260623D01*
X-132056Y-261134D01*
X-132722Y-262132D01*
X-132956Y-263309D01*
X-132722Y-264485D01*
X-132056Y-265483D01*
X-131291Y-265994D01*
X-131218Y-266297D01*
Y-266821D01*
X-131291Y-267123D01*
X-132056Y-267634D01*
X-132722Y-268632D01*
X-132956Y-269809D01*
X-132722Y-270985D01*
X-132056Y-271983D01*
X-131291Y-272494D01*
X-131218Y-272797D01*
Y-273321D01*
X-131291Y-273623D01*
X-132056Y-274134D01*
X-132722Y-275132D01*
X-132956Y-276309D01*
X-132722Y-277485D01*
X-132056Y-278483D01*
X-131291Y-278994D01*
X-131218Y-279297D01*
Y-279820D01*
X-131291Y-280123D01*
X-132056Y-280634D01*
X-132722Y-281632D01*
X-132956Y-282809D01*
X-132722Y-283985D01*
X-132056Y-284983D01*
X-131291Y-285494D01*
X-131218Y-285797D01*
Y-286320D01*
X-131291Y-286623D01*
X-132056Y-287134D01*
X-132722Y-288132D01*
X-132956Y-289309D01*
X-132722Y-290485D01*
X-132056Y-291483D01*
X-131291Y-291994D01*
X-131218Y-292297D01*
Y-292820D01*
X-131291Y-293123D01*
X-132056Y-293634D01*
X-132384Y-294125D01*
X-133184D01*
X-133828Y-294253D01*
X-134374Y-294618D01*
X-135272Y-295516D01*
X-135637Y-296063D01*
X-135765Y-296707D01*
Y-299358D01*
X-156870Y-320463D01*
X-159963D01*
X-160442Y-319567D01*
X-160315Y-319377D01*
X-160043Y-318012D01*
X-160315Y-316646D01*
X-161088Y-315488D01*
X-161928Y-314927D01*
Y-313859D01*
X-162057Y-313215D01*
X-162421Y-312669D01*
X-167472Y-307618D01*
X-168018Y-307253D01*
X-168662Y-307125D01*
X-176379D01*
X-176707Y-306634D01*
X-177472Y-306123D01*
X-177544Y-305821D01*
Y-305297D01*
X-177472Y-304994D01*
X-176707Y-304483D01*
X-176040Y-303485D01*
X-175806Y-302309D01*
X-176040Y-301132D01*
X-176707Y-300134D01*
X-177472Y-299623D01*
X-177544Y-299321D01*
Y-298797D01*
X-177472Y-298494D01*
X-176707Y-297983D01*
X-176040Y-296985D01*
X-175806Y-295809D01*
X-176040Y-294632D01*
X-176707Y-293634D01*
X-177472Y-293123D01*
X-177544Y-292820D01*
Y-292297D01*
X-177472Y-291994D01*
X-176707Y-291483D01*
X-176040Y-290485D01*
X-175806Y-289309D01*
X-176040Y-288132D01*
X-176707Y-287134D01*
X-177472Y-286623D01*
X-177544Y-286320D01*
Y-285797D01*
X-177472Y-285494D01*
X-176707Y-284983D01*
X-176040Y-283985D01*
X-175806Y-282809D01*
X-176040Y-281632D01*
X-176707Y-280634D01*
X-177472Y-280123D01*
X-177544Y-279820D01*
Y-279297D01*
X-177472Y-278994D01*
X-176707Y-278483D01*
X-176040Y-277485D01*
X-175806Y-276309D01*
X-176040Y-275132D01*
X-176707Y-274134D01*
X-177472Y-273623D01*
X-177544Y-273321D01*
Y-272797D01*
X-177472Y-272494D01*
X-176707Y-271983D01*
X-176040Y-270985D01*
X-175806Y-269809D01*
X-176040Y-268632D01*
X-176707Y-267634D01*
X-177472Y-267123D01*
X-177544Y-266821D01*
Y-266297D01*
X-177472Y-265994D01*
X-176707Y-265483D01*
X-176040Y-264485D01*
X-175806Y-263309D01*
X-176040Y-262132D01*
X-176707Y-261134D01*
X-177472Y-260623D01*
X-177544Y-260320D01*
Y-259797D01*
X-177472Y-259494D01*
X-176707Y-258983D01*
X-176040Y-257985D01*
X-175806Y-256809D01*
X-176040Y-255632D01*
X-176090Y-255558D01*
X-175547Y-254542D01*
X-133216D01*
X-132673Y-255558D01*
D02*
G37*
G36*
X58734Y-291650D02*
Y-293231D01*
X58095D01*
X57294Y-293562D01*
X56962Y-294363D01*
Y-302803D01*
X57294Y-303603D01*
X58095Y-303935D01*
X58734D01*
Y-362693D01*
X57838Y-363172D01*
X57660Y-363053D01*
X56294Y-362781D01*
X54929Y-363053D01*
X53771Y-363826D01*
X52998Y-364984D01*
X52726Y-366350D01*
X52998Y-367715D01*
X52728Y-368367D01*
X52643Y-368383D01*
X51485Y-369157D01*
X50712Y-370315D01*
X50440Y-371680D01*
X50712Y-373046D01*
X51485Y-374204D01*
X52643Y-374977D01*
X54008Y-375249D01*
X54174Y-375385D01*
Y-436528D01*
X50863Y-439840D01*
X-95211D01*
X-95347Y-439674D01*
X-95618Y-438308D01*
X-96392Y-437151D01*
X-97550Y-436377D01*
X-97821Y-435287D01*
X-97633Y-434344D01*
X-97905Y-432978D01*
X-98678Y-431820D01*
X-99836Y-431047D01*
X-101201Y-430775D01*
X-102567Y-431047D01*
X-102745Y-431165D01*
X-103641Y-430686D01*
Y-425266D01*
X-103001D01*
X-102201Y-424935D01*
X-101869Y-424134D01*
Y-415694D01*
X-102201Y-414893D01*
X-103001Y-414562D01*
X-103641D01*
Y-412791D01*
X-101021D01*
X-100205Y-412453D01*
X-99868Y-411637D01*
Y-390237D01*
X-100205Y-389421D01*
X-101021Y-389083D01*
X-110921D01*
X-111737Y-389421D01*
X-112075Y-390237D01*
Y-411637D01*
X-111737Y-412453D01*
X-110921Y-412791D01*
X-108302D01*
Y-414562D01*
X-108941D01*
X-109742Y-414893D01*
X-110074Y-415694D01*
Y-417583D01*
X-111202D01*
X-123550Y-405234D01*
Y-330845D01*
X-122911D01*
X-122111Y-330513D01*
X-121779Y-329712D01*
Y-321272D01*
X-122111Y-320472D01*
X-122911Y-320140D01*
X-123550D01*
Y-318384D01*
X-121881D01*
X-120704Y-318150D01*
X-119707Y-317483D01*
X-119040Y-316485D01*
X-118806Y-315309D01*
X-119040Y-314132D01*
X-119707Y-313134D01*
X-120472Y-312623D01*
X-120544Y-312320D01*
Y-311797D01*
X-120472Y-311494D01*
X-119707Y-310983D01*
X-119379Y-310492D01*
X-117978D01*
Y-313034D01*
X-117648Y-313830D01*
X-116852Y-314160D01*
X-111902D01*
X-111105Y-313830D01*
X-110775Y-313034D01*
Y-304584D01*
X-111105Y-303787D01*
X-111902Y-303457D01*
X-116852D01*
X-117648Y-303787D01*
X-117978Y-304584D01*
Y-307125D01*
X-119379D01*
X-119707Y-306634D01*
X-120472Y-306123D01*
X-120544Y-305821D01*
Y-305297D01*
X-120472Y-304994D01*
X-119707Y-304483D01*
X-119040Y-303485D01*
X-118806Y-302309D01*
X-119040Y-301132D01*
X-119707Y-300134D01*
X-120472Y-299623D01*
X-120544Y-299321D01*
Y-298797D01*
X-120472Y-298494D01*
X-119707Y-297983D01*
X-119040Y-296985D01*
X-118806Y-295809D01*
X-119040Y-294632D01*
X-119707Y-293634D01*
X-120472Y-293123D01*
X-120544Y-292820D01*
Y-292297D01*
X-120472Y-291994D01*
X-119707Y-291483D01*
X-119638Y-291380D01*
X-70301D01*
X-70301Y-291380D01*
X-70088Y-291338D01*
X6281D01*
X8971Y-294029D01*
X9374Y-294298D01*
Y-295646D01*
X8298D01*
X7484Y-295984D01*
X7146Y-296798D01*
Y-313202D01*
X7484Y-314016D01*
X8298Y-314354D01*
X9892D01*
Y-323186D01*
X9812Y-323257D01*
X8876Y-323636D01*
X8460Y-323358D01*
X7625Y-323192D01*
X5375D01*
X4540Y-323358D01*
X3832Y-323831D01*
X2668D01*
X1960Y-323358D01*
X1125Y-323192D01*
X-1125D01*
X-1960Y-323358D01*
X-2668Y-323831D01*
X-3832D01*
X-4540Y-323358D01*
X-5375Y-323192D01*
X-7625D01*
X-8460Y-323358D01*
X-9169Y-323831D01*
X-9642Y-324540D01*
X-9808Y-325375D01*
Y-338125D01*
X-9642Y-338960D01*
X-9169Y-339669D01*
X-8460Y-340142D01*
X-7625Y-340308D01*
X-5375D01*
X-4540Y-340142D01*
X-3832Y-339669D01*
X-2668D01*
X-1960Y-340142D01*
X-1125Y-340308D01*
X1125D01*
X1960Y-340142D01*
X2668Y-339669D01*
X3832D01*
X4540Y-340142D01*
X5375Y-340308D01*
X7625D01*
X8460Y-340142D01*
X9168Y-339669D01*
X9747D01*
X10669Y-340545D01*
Y-341331D01*
X10847Y-342223D01*
X11352Y-342979D01*
X12413Y-344040D01*
Y-353099D01*
X5902Y-359610D01*
X-31220D01*
X-32112Y-359788D01*
X-32868Y-360293D01*
X-57889Y-385314D01*
X-58395Y-386070D01*
X-58572Y-386962D01*
Y-389083D01*
X-64921D01*
X-65737Y-389421D01*
X-66075Y-390237D01*
Y-398555D01*
X-76868D01*
Y-390237D01*
X-77206Y-389421D01*
X-78021Y-389083D01*
X-87921D01*
X-88737Y-389421D01*
X-89075Y-390237D01*
Y-411637D01*
X-88737Y-412453D01*
X-87921Y-412791D01*
X-78021D01*
X-77206Y-412453D01*
X-76868Y-411637D01*
Y-403217D01*
X-66075D01*
Y-411637D01*
X-65737Y-412453D01*
X-64921Y-412791D01*
X-62602D01*
Y-414562D01*
X-62941D01*
X-63742Y-414893D01*
X-64074Y-415694D01*
Y-424134D01*
X-63742Y-424935D01*
X-62941Y-425266D01*
X-62602D01*
Y-429346D01*
X-63444Y-429908D01*
X-64508Y-431501D01*
X-64882Y-433380D01*
X-64508Y-435259D01*
X-63444Y-436852D01*
X-61851Y-437916D01*
X-59971Y-438290D01*
X-58092Y-437916D01*
X-56499Y-436852D01*
X-55435Y-435259D01*
X-55061Y-433380D01*
X-55435Y-431501D01*
X-56499Y-429908D01*
X-57941Y-428945D01*
Y-425266D01*
X-57001D01*
X-56201Y-424935D01*
X-55869Y-424134D01*
Y-415694D01*
X-56201Y-414893D01*
X-57001Y-414562D01*
X-57941D01*
Y-412791D01*
X-55021D01*
X-54205Y-412453D01*
X-53868Y-411637D01*
Y-390237D01*
X-53911Y-390133D01*
Y-387928D01*
X-30255Y-364272D01*
X6867D01*
X7759Y-364094D01*
X8515Y-363589D01*
X16392Y-355713D01*
X16897Y-354957D01*
X17074Y-354065D01*
Y-343074D01*
X16897Y-342182D01*
X16392Y-341426D01*
X15736Y-340771D01*
X15668Y-339669D01*
X16142Y-338960D01*
X16308Y-338125D01*
Y-325375D01*
X16142Y-324540D01*
X16108Y-324489D01*
Y-314354D01*
X17702D01*
X18516Y-314016D01*
X18854Y-313202D01*
Y-296798D01*
X18516Y-295984D01*
X17702Y-295646D01*
X16626D01*
Y-294298D01*
X17029Y-294029D01*
X18264Y-292180D01*
X18431Y-291338D01*
X58477D01*
X58734Y-291650D01*
D02*
G37*
G36*
X-131291Y-304994D02*
X-131218Y-305297D01*
Y-305821D01*
X-131291Y-306123D01*
X-132056Y-306634D01*
X-132722Y-307632D01*
X-132956Y-308809D01*
X-132722Y-309985D01*
X-132056Y-310983D01*
X-131291Y-311494D01*
X-131218Y-311797D01*
Y-312320D01*
X-131291Y-312623D01*
X-132056Y-313134D01*
X-132722Y-314132D01*
X-132956Y-315309D01*
X-132722Y-316485D01*
X-132056Y-317483D01*
X-131058Y-318150D01*
X-129881Y-318384D01*
X-128212D01*
Y-320140D01*
X-128851D01*
X-129652Y-320472D01*
X-129983Y-321272D01*
Y-329712D01*
X-129652Y-330513D01*
X-128851Y-330845D01*
X-128212D01*
Y-406200D01*
X-128034Y-407092D01*
X-127529Y-407848D01*
X-113815Y-421562D01*
X-113059Y-422067D01*
X-112167Y-422245D01*
X-110074D01*
Y-424134D01*
X-109742Y-424935D01*
X-108941Y-425266D01*
X-108302D01*
Y-430822D01*
X-109241Y-431211D01*
X-110124Y-430327D01*
X-110670Y-429963D01*
X-111315Y-429834D01*
X-113513D01*
X-131572Y-411775D01*
Y-399148D01*
X-131700Y-398504D01*
X-132065Y-397957D01*
X-142916Y-387106D01*
X-142585Y-386674D01*
X-141727Y-384603D01*
X-141434Y-382380D01*
X-141727Y-380157D01*
X-142585Y-378085D01*
X-143950Y-376306D01*
X-145729Y-374941D01*
X-147800Y-374083D01*
X-150023Y-373790D01*
X-152247Y-374083D01*
X-154318Y-374941D01*
X-156097Y-376306D01*
X-157462Y-378085D01*
X-158320Y-380157D01*
X-158613Y-382380D01*
X-158320Y-384603D01*
X-157462Y-386674D01*
X-156097Y-388453D01*
X-154318Y-389818D01*
X-152247Y-390676D01*
X-150023Y-390969D01*
X-147800Y-390676D01*
X-145729Y-389818D01*
X-145297Y-389487D01*
X-134939Y-399845D01*
Y-412472D01*
X-134810Y-413117D01*
X-134446Y-413663D01*
X-131610Y-416499D01*
X-131999Y-417437D01*
X-161415D01*
Y-394705D01*
X-161543Y-394061D01*
X-161908Y-393515D01*
X-168316Y-387106D01*
X-167985Y-386674D01*
X-167127Y-384603D01*
X-166834Y-382380D01*
X-167127Y-380157D01*
X-167985Y-378085D01*
X-169350Y-376306D01*
X-171129Y-374941D01*
X-173200Y-374083D01*
X-175424Y-373790D01*
X-177647Y-374083D01*
X-179718Y-374941D01*
X-181497Y-376306D01*
X-182862Y-378085D01*
X-183720Y-380157D01*
X-184013Y-382380D01*
X-183720Y-384603D01*
X-182862Y-386674D01*
X-181497Y-388453D01*
X-179718Y-389818D01*
X-177647Y-390676D01*
X-175424Y-390969D01*
X-173200Y-390676D01*
X-171129Y-389818D01*
X-170697Y-389487D01*
X-164781Y-395402D01*
Y-417437D01*
X-202185D01*
X-207082Y-412540D01*
X-207628Y-412175D01*
X-208273Y-412047D01*
X-209021D01*
X-209349Y-411556D01*
X-210114Y-411045D01*
X-210187Y-410743D01*
Y-410219D01*
X-210114Y-409916D01*
X-209349Y-409405D01*
X-209021Y-408914D01*
X-208563D01*
X-207918Y-408786D01*
X-207372Y-408421D01*
X-186001Y-387049D01*
X-185636Y-386503D01*
X-185508Y-385859D01*
Y-378541D01*
X-178060Y-371093D01*
X-158092D01*
X-157448Y-370965D01*
X-156902Y-370600D01*
X-153631Y-367329D01*
X-153266Y-366783D01*
X-153138Y-366139D01*
Y-365552D01*
X-144398D01*
X-143271Y-365328D01*
X-142314Y-364689D01*
X-141675Y-363733D01*
X-141451Y-362605D01*
Y-351355D01*
X-141675Y-350227D01*
X-142314Y-349270D01*
X-143271Y-348631D01*
X-144398Y-348407D01*
X-155648D01*
X-156777Y-348631D01*
X-157733Y-349270D01*
X-158372Y-350227D01*
X-158596Y-351355D01*
Y-362605D01*
X-158372Y-363733D01*
X-157733Y-364689D01*
X-157407Y-364907D01*
X-157253Y-366190D01*
X-158789Y-367726D01*
X-178757D01*
X-179402Y-367855D01*
X-179948Y-368219D01*
X-186855Y-375127D01*
X-187794Y-374738D01*
Y-371730D01*
X-180150Y-364087D01*
X-179718Y-364418D01*
X-177647Y-365276D01*
X-175424Y-365569D01*
X-173200Y-365276D01*
X-171129Y-364418D01*
X-169350Y-363053D01*
X-167985Y-361274D01*
X-167127Y-359203D01*
X-166834Y-356980D01*
X-167127Y-354757D01*
X-167985Y-352685D01*
X-169350Y-350906D01*
X-171129Y-349541D01*
X-173200Y-348683D01*
X-175424Y-348390D01*
X-177647Y-348683D01*
X-179718Y-349541D01*
X-181497Y-350906D01*
X-182862Y-352685D01*
X-183720Y-354757D01*
X-184013Y-356980D01*
X-183720Y-359203D01*
X-182862Y-361274D01*
X-182531Y-361706D01*
X-189141Y-368317D01*
X-190080Y-367928D01*
Y-354801D01*
X-167768Y-332489D01*
X-165850D01*
X-165206Y-332361D01*
X-164660Y-331996D01*
X-164603Y-331939D01*
X-163612Y-332136D01*
X-162246Y-331865D01*
X-161088Y-331091D01*
X-160315Y-329933D01*
X-160043Y-328568D01*
X-160315Y-327202D01*
X-160442Y-327012D01*
X-159963Y-326116D01*
X-155226D01*
X-154582Y-325988D01*
X-154036Y-325623D01*
X-133125Y-304712D01*
X-132056Y-304483D01*
X-131291Y-304994D01*
D02*
G37*
G36*
X-237736Y-307944D02*
X-236971Y-308455D01*
X-236899Y-308757D01*
Y-309281D01*
X-236971Y-309584D01*
X-237736Y-310095D01*
X-238403Y-311092D01*
X-238637Y-312269D01*
X-238403Y-313446D01*
X-237736Y-314444D01*
X-236971Y-314955D01*
X-236899Y-315257D01*
Y-315781D01*
X-236971Y-316084D01*
X-237736Y-316595D01*
X-238403Y-317592D01*
X-238536Y-318261D01*
X-231562D01*
Y-318769D01*
X-231054D01*
Y-321844D01*
X-227562D01*
X-226385Y-321610D01*
X-226292Y-321548D01*
X-225276Y-322091D01*
Y-326783D01*
X-264621Y-366128D01*
X-265350Y-366056D01*
X-266114Y-365545D01*
X-266187Y-365243D01*
Y-364719D01*
X-266114Y-364416D01*
X-265349Y-363905D01*
X-265021Y-363414D01*
X-264544D01*
X-263900Y-363286D01*
X-263354Y-362921D01*
X-251190Y-350757D01*
X-250825Y-350211D01*
X-250697Y-349567D01*
Y-318716D01*
X-239433Y-307453D01*
X-238065D01*
X-237736Y-307944D01*
D02*
G37*
G36*
X-189056Y-304483D02*
X-188291Y-304994D01*
X-188218Y-305297D01*
Y-305821D01*
X-188291Y-306123D01*
X-189056Y-306634D01*
X-189722Y-307632D01*
X-189956Y-308809D01*
X-189722Y-309985D01*
X-189056Y-310983D01*
X-188058Y-311650D01*
X-186881Y-311884D01*
X-178881D01*
X-177704Y-311650D01*
X-176707Y-310983D01*
X-176379Y-310492D01*
X-169359D01*
X-165784Y-314067D01*
X-165891Y-315325D01*
X-166135Y-315488D01*
X-166909Y-316646D01*
X-167180Y-318012D01*
X-166909Y-319377D01*
X-166804Y-319533D01*
X-166916Y-320592D01*
X-167462Y-320956D01*
X-197525Y-351020D01*
X-197890Y-351566D01*
X-198018Y-352210D01*
Y-375832D01*
X-201734Y-379547D01*
X-209021D01*
X-209349Y-379056D01*
X-210114Y-378545D01*
X-210187Y-378243D01*
Y-377719D01*
X-210114Y-377416D01*
X-209349Y-376905D01*
X-209021Y-376414D01*
X-206961D01*
X-206400Y-377254D01*
X-205242Y-378028D01*
X-203877Y-378299D01*
X-202511Y-378028D01*
X-201353Y-377254D01*
X-200580Y-376096D01*
X-200308Y-374731D01*
X-200580Y-373365D01*
X-201353Y-372207D01*
X-202511Y-371434D01*
X-203877Y-371162D01*
X-205242Y-371434D01*
X-206400Y-372207D01*
X-206961Y-373047D01*
X-209021D01*
X-209349Y-372556D01*
X-210114Y-372045D01*
X-210187Y-371743D01*
Y-371219D01*
X-210114Y-370916D01*
X-209349Y-370405D01*
X-208683Y-369408D01*
X-208449Y-368231D01*
X-208683Y-367054D01*
X-209349Y-366056D01*
X-210114Y-365545D01*
X-210187Y-365243D01*
Y-364719D01*
X-210114Y-364416D01*
X-209349Y-363905D01*
X-209021Y-363414D01*
X-208915D01*
X-208271Y-363286D01*
X-207725Y-362921D01*
X-206683Y-361878D01*
X-206318Y-361332D01*
X-206189Y-360688D01*
Y-319583D01*
X-190584Y-303978D01*
X-189393D01*
X-189056Y-304483D01*
D02*
G37*
%LPC*%
G36*
X-246042Y162603D02*
X-249494D01*
Y158008D01*
X-244899D01*
Y161460D01*
X-245234Y162268D01*
X-246042Y162603D01*
D02*
G37*
G36*
X-250510D02*
X-253962D01*
X-254770Y162268D01*
X-255105Y161460D01*
Y158008D01*
X-250510D01*
Y162603D01*
D02*
G37*
G36*
X-244899Y156992D02*
X-249494D01*
Y152397D01*
X-246042D01*
X-245234Y152732D01*
X-244899Y153540D01*
Y156992D01*
D02*
G37*
G36*
X-250510D02*
X-255105D01*
Y153540D01*
X-254770Y152732D01*
X-253962Y152397D01*
X-250510D01*
Y156992D01*
D02*
G37*
G36*
X-271771Y126225D02*
X-275483D01*
Y122631D01*
X-270639D01*
Y125093D01*
X-270970Y125893D01*
X-271771Y126225D01*
D02*
G37*
G36*
X-225350Y-216138D02*
X-232325D01*
X-239298D01*
X-239165Y-216807D01*
X-238498Y-217804D01*
X-237733Y-218316D01*
X-237661Y-218618D01*
Y-219142D01*
X-237733Y-219445D01*
X-238498Y-219956D01*
X-239165Y-220953D01*
X-239298Y-221622D01*
X-232325D01*
X-225350D01*
X-225483Y-220953D01*
X-226150Y-219956D01*
X-226915Y-219445D01*
X-226987Y-219142D01*
Y-218618D01*
X-226915Y-218316D01*
X-226150Y-217804D01*
X-225483Y-216807D01*
X-225350Y-216138D01*
D02*
G37*
G36*
Y-222638D02*
X-232325D01*
X-239298D01*
X-239165Y-223307D01*
X-238498Y-224304D01*
X-237733Y-224816D01*
X-237661Y-225118D01*
Y-225642D01*
X-237733Y-225944D01*
X-238498Y-226456D01*
X-238827Y-226947D01*
X-244039D01*
X-244683Y-227075D01*
X-245229Y-227440D01*
X-252967Y-235177D01*
X-253332Y-235723D01*
X-253460Y-236368D01*
Y-237961D01*
X-254300Y-238522D01*
X-255073Y-239680D01*
X-255345Y-241046D01*
X-255073Y-242411D01*
X-254300Y-243569D01*
X-253142Y-244343D01*
X-251777Y-244614D01*
X-250411Y-244343D01*
X-249253Y-243569D01*
X-248479Y-242411D01*
X-248208Y-241046D01*
X-248479Y-239680D01*
X-249253Y-238522D01*
X-249982Y-238035D01*
X-250042Y-237014D01*
X-243342Y-230313D01*
X-238827D01*
X-238498Y-230804D01*
X-237733Y-231315D01*
X-237661Y-231618D01*
Y-232142D01*
X-237728Y-232420D01*
X-238615Y-232879D01*
X-239346Y-232396D01*
X-240188Y-231833D01*
X-241554Y-231561D01*
X-242920Y-231833D01*
X-244077Y-232607D01*
X-244851Y-233764D01*
X-245123Y-235130D01*
X-244851Y-236496D01*
X-244077Y-237653D01*
X-242920Y-238427D01*
X-241554Y-238699D01*
X-240188Y-238427D01*
X-239346Y-237864D01*
X-238615Y-237381D01*
X-237728Y-237840D01*
X-237661Y-238118D01*
Y-238642D01*
X-237733Y-238944D01*
X-238498Y-239456D01*
X-239165Y-240453D01*
X-239298Y-241122D01*
X-232325D01*
X-225350D01*
X-225483Y-240453D01*
X-226150Y-239456D01*
X-226915Y-238944D01*
X-226987Y-238642D01*
Y-238118D01*
X-226915Y-237816D01*
X-226150Y-237304D01*
X-225483Y-236307D01*
X-225249Y-235130D01*
X-225483Y-233953D01*
X-226150Y-232956D01*
X-226915Y-232444D01*
X-226987Y-232142D01*
Y-231618D01*
X-226915Y-231315D01*
X-226150Y-230804D01*
X-225483Y-229807D01*
X-225249Y-228630D01*
X-225483Y-227453D01*
X-226150Y-226456D01*
X-226915Y-225944D01*
X-226987Y-225642D01*
Y-225118D01*
X-226915Y-224816D01*
X-226150Y-224304D01*
X-225483Y-223307D01*
X-225350Y-222638D01*
D02*
G37*
G36*
X-225350Y-242138D02*
X-231817D01*
Y-244705D01*
X-228324D01*
X-227147Y-244471D01*
X-226150Y-243804D01*
X-225483Y-242807D01*
X-225350Y-242138D01*
D02*
G37*
G36*
X-232833D02*
X-239298D01*
X-239165Y-242807D01*
X-238498Y-243804D01*
X-237501Y-244471D01*
X-236324Y-244705D01*
X-232833D01*
Y-242138D01*
D02*
G37*
G36*
X-241280Y-246400D02*
X-243742D01*
Y-251244D01*
X-240148D01*
Y-247532D01*
X-240480Y-246731D01*
X-241280Y-246400D01*
D02*
G37*
G36*
X-244758D02*
X-247220D01*
X-248021Y-246731D01*
X-248352Y-247532D01*
Y-251244D01*
X-244758D01*
Y-246400D01*
D02*
G37*
G36*
X-240148Y-252260D02*
X-243742D01*
Y-257104D01*
X-241280D01*
X-240480Y-256773D01*
X-240148Y-255972D01*
Y-252260D01*
D02*
G37*
G36*
X-244758D02*
X-248352D01*
Y-255972D01*
X-248021Y-256773D01*
X-247220Y-257104D01*
X-244758D01*
Y-252260D01*
D02*
G37*
G36*
X-241275Y-258952D02*
X-243243D01*
Y-263796D01*
X-240149D01*
Y-260078D01*
X-240478Y-259282D01*
X-241275Y-258952D01*
D02*
G37*
G36*
X-244259D02*
X-246225D01*
X-247022Y-259282D01*
X-247352Y-260078D01*
Y-263796D01*
X-244259D01*
Y-258952D01*
D02*
G37*
G36*
X-240149Y-264812D02*
X-243243D01*
Y-269655D01*
X-241275D01*
X-240478Y-269325D01*
X-240149Y-268528D01*
Y-264812D01*
D02*
G37*
G36*
X-244259D02*
X-247352D01*
Y-268528D01*
X-247022Y-269325D01*
X-246225Y-269655D01*
X-244259D01*
Y-264812D01*
D02*
G37*
G36*
X-226780Y-246400D02*
X-232720D01*
X-233521Y-246731D01*
X-233852Y-247532D01*
Y-255972D01*
X-233521Y-256773D01*
X-232720Y-257104D01*
X-231434D01*
Y-258952D01*
X-232225D01*
X-233022Y-259282D01*
X-233352Y-260078D01*
Y-268528D01*
X-233022Y-269325D01*
X-232225Y-269655D01*
X-232055D01*
X-231450Y-270671D01*
X-231656Y-271708D01*
X-231385Y-273073D01*
X-230611Y-274231D01*
X-229454Y-275005D01*
X-228088Y-275276D01*
X-226722Y-275005D01*
X-225564Y-274231D01*
X-225003Y-273391D01*
X-223725D01*
X-213011Y-284105D01*
Y-285365D01*
X-213675Y-285497D01*
X-215665Y-286827D01*
X-216995Y-288817D01*
X-217462Y-291164D01*
Y-301164D01*
X-216995Y-303511D01*
X-215665Y-305501D01*
X-213675Y-306831D01*
X-211328Y-307298D01*
X-208981Y-306831D01*
X-206991Y-305501D01*
X-205661Y-303511D01*
X-205194Y-301164D01*
Y-298722D01*
X-204178Y-298414D01*
X-203995Y-298687D01*
X-202838Y-299461D01*
X-201472Y-299733D01*
X-200106Y-299461D01*
X-198949Y-298687D01*
X-198175Y-297530D01*
X-197903Y-296164D01*
X-198175Y-294798D01*
X-198949Y-293641D01*
X-200106Y-292867D01*
X-201472Y-292595D01*
X-202838Y-292867D01*
X-203995Y-293641D01*
X-204178Y-293914D01*
X-205194Y-293606D01*
Y-291164D01*
X-205661Y-288817D01*
X-206991Y-286827D01*
X-208981Y-285497D01*
X-209645Y-285365D01*
Y-283407D01*
X-209773Y-282763D01*
X-210138Y-282217D01*
X-221837Y-270517D01*
X-222383Y-270152D01*
X-223028Y-270024D01*
X-225003D01*
X-225564Y-269184D01*
X-226235Y-268736D01*
X-226148Y-268528D01*
Y-260078D01*
X-226479Y-259282D01*
X-227275Y-258952D01*
X-228067D01*
Y-257104D01*
X-226780D01*
X-225980Y-256773D01*
X-225648Y-255972D01*
Y-247532D01*
X-225980Y-246731D01*
X-226780Y-246400D01*
D02*
G37*
G36*
X-271600Y-327225D02*
X-274062D01*
Y-332070D01*
X-270468D01*
Y-328358D01*
X-270800Y-327557D01*
X-271600Y-327225D01*
D02*
G37*
G36*
X-275078D02*
X-277540D01*
X-278341Y-327557D01*
X-278672Y-328358D01*
Y-332070D01*
X-275078D01*
Y-327225D01*
D02*
G37*
G36*
X-270468Y-333086D02*
X-274062D01*
Y-337930D01*
X-271600D01*
X-270800Y-337598D01*
X-270468Y-336798D01*
Y-333086D01*
D02*
G37*
G36*
X-275078D02*
X-278672D01*
Y-336798D01*
X-278341Y-337598D01*
X-277540Y-337930D01*
X-275078D01*
Y-333086D01*
D02*
G37*
G36*
X-282023Y-353993D02*
X-285735D01*
Y-357587D01*
X-280891D01*
Y-355125D01*
X-281222Y-354324D01*
X-282023Y-353993D01*
D02*
G37*
G36*
X-286751D02*
X-290463D01*
X-291264Y-354324D01*
X-291595Y-355125D01*
Y-357587D01*
X-286751D01*
Y-353993D01*
D02*
G37*
G36*
X-280891Y-358603D02*
X-285735D01*
Y-362197D01*
X-282023D01*
X-281222Y-361865D01*
X-280891Y-361065D01*
Y-358603D01*
D02*
G37*
G36*
X-286751D02*
X-291595D01*
Y-361065D01*
X-291264Y-361865D01*
X-290463Y-362197D01*
X-286751D01*
Y-358603D01*
D02*
G37*
G36*
X-281530Y-404628D02*
X-285242D01*
Y-408223D01*
X-280398D01*
Y-405761D01*
X-280729Y-404960D01*
X-281530Y-404628D01*
D02*
G37*
G36*
X-286258D02*
X-289970D01*
X-290771Y-404960D01*
X-291102Y-405761D01*
Y-408223D01*
X-286258D01*
Y-404628D01*
D02*
G37*
G36*
X-280398Y-409239D02*
X-285242D01*
Y-412833D01*
X-281530D01*
X-280729Y-412501D01*
X-280398Y-411701D01*
Y-409239D01*
D02*
G37*
G36*
X-286258D02*
X-291102D01*
Y-411701D01*
X-290771Y-412501D01*
X-289970Y-412833D01*
X-286258D01*
Y-409239D01*
D02*
G37*
G36*
X-175424Y-424590D02*
X-177647Y-424883D01*
X-179718Y-425741D01*
X-181497Y-427106D01*
X-182862Y-428885D01*
X-183720Y-430956D01*
X-184013Y-433180D01*
X-183720Y-435403D01*
X-182862Y-437474D01*
X-181497Y-439253D01*
X-179718Y-440618D01*
X-177647Y-441476D01*
X-175424Y-441769D01*
X-173200Y-441476D01*
X-171129Y-440618D01*
X-169350Y-439253D01*
X-167985Y-437474D01*
X-167127Y-435403D01*
X-166834Y-433180D01*
X-167127Y-430956D01*
X-167985Y-428885D01*
X-169350Y-427106D01*
X-171129Y-425741D01*
X-173200Y-424883D01*
X-175424Y-424590D01*
D02*
G37*
G36*
X281085Y-190398D02*
X277368D01*
Y-193492D01*
X282212D01*
Y-191525D01*
X281882Y-190728D01*
X281085Y-190398D01*
D02*
G37*
G36*
X276352D02*
X272635D01*
X271838Y-190728D01*
X271508Y-191525D01*
Y-193492D01*
X276352D01*
Y-190398D01*
D02*
G37*
G36*
X282212Y-194508D02*
X277368D01*
Y-197602D01*
X281085D01*
X281882Y-197272D01*
X282212Y-196475D01*
Y-194508D01*
D02*
G37*
G36*
X276352D02*
X271508D01*
Y-196475D01*
X271838Y-197272D01*
X272635Y-197602D01*
X276352D01*
Y-194508D01*
D02*
G37*
G36*
X-271092Y-262410D02*
X-273554D01*
Y-267253D01*
X-269960D01*
Y-263542D01*
X-270292Y-262742D01*
X-271092Y-262410D01*
D02*
G37*
G36*
X-274570D02*
X-277032D01*
X-277833Y-262742D01*
X-278164Y-263542D01*
Y-267253D01*
X-274570D01*
Y-262410D01*
D02*
G37*
G36*
X-269960Y-268270D02*
X-273554D01*
Y-273114D01*
X-271092D01*
X-270292Y-272783D01*
X-269960Y-271982D01*
Y-268270D01*
D02*
G37*
G36*
X-274570D02*
X-278164D01*
Y-271982D01*
X-277833Y-272783D01*
X-277032Y-273114D01*
X-274570D01*
Y-268270D01*
D02*
G37*
G36*
X49535Y-293231D02*
X47073D01*
Y-298075D01*
X50667D01*
Y-294363D01*
X50335Y-293562D01*
X49535Y-293231D01*
D02*
G37*
G36*
X46057D02*
X43594D01*
X42794Y-293562D01*
X42462Y-294363D01*
Y-298075D01*
X46057D01*
Y-293231D01*
D02*
G37*
G36*
X50667Y-299091D02*
X47073D01*
Y-303935D01*
X49535D01*
X50335Y-303603D01*
X50667Y-302803D01*
Y-299091D01*
D02*
G37*
G36*
X46057D02*
X42462D01*
Y-302803D01*
X42794Y-303603D01*
X43594Y-303935D01*
X46057D01*
Y-299091D01*
D02*
G37*
G36*
X-97902Y-303457D02*
X-99869D01*
Y-308300D01*
X-96775D01*
Y-304584D01*
X-97105Y-303787D01*
X-97902Y-303457D01*
D02*
G37*
G36*
X-100885D02*
X-102852D01*
X-103648Y-303787D01*
X-103978Y-304584D01*
Y-308300D01*
X-100885D01*
Y-303457D01*
D02*
G37*
G36*
X-96775Y-309316D02*
X-99869D01*
Y-314160D01*
X-97902D01*
X-97105Y-313830D01*
X-96775Y-313034D01*
Y-309316D01*
D02*
G37*
G36*
X-100885D02*
X-103978D01*
Y-313034D01*
X-103648Y-313830D01*
X-102852Y-314160D01*
X-100885D01*
Y-309316D01*
D02*
G37*
G36*
X-108411Y-320140D02*
X-110873D01*
Y-324985D01*
X-107279D01*
Y-321272D01*
X-107611Y-320472D01*
X-108411Y-320140D01*
D02*
G37*
G36*
X-111889D02*
X-114351D01*
X-115152Y-320472D01*
X-115483Y-321272D01*
Y-324985D01*
X-111889D01*
Y-320140D01*
D02*
G37*
G36*
X-107279Y-326001D02*
X-110873D01*
Y-330845D01*
X-108411D01*
X-107611Y-330513D01*
X-107279Y-329712D01*
Y-326001D01*
D02*
G37*
G36*
X-111889D02*
X-115483D01*
Y-329712D01*
X-115152Y-330513D01*
X-114351Y-330845D01*
X-111889D01*
Y-326001D01*
D02*
G37*
G36*
X-88501Y-414562D02*
X-90964D01*
Y-419406D01*
X-87369D01*
Y-415694D01*
X-87701Y-414893D01*
X-88501Y-414562D01*
D02*
G37*
G36*
X-71501D02*
X-73963D01*
Y-419406D01*
X-70369D01*
Y-415694D01*
X-70701Y-414893D01*
X-71501Y-414562D01*
D02*
G37*
G36*
X-74979D02*
X-77441D01*
X-78242Y-414893D01*
X-78574Y-415694D01*
Y-419406D01*
X-74979D01*
Y-414562D01*
D02*
G37*
G36*
X-91980D02*
X-94441D01*
X-95242Y-414893D01*
X-95574Y-415694D01*
Y-419406D01*
X-91980D01*
Y-414562D01*
D02*
G37*
G36*
X-70369Y-420422D02*
X-73963D01*
Y-425266D01*
X-71501D01*
X-70701Y-424935D01*
X-70369Y-424134D01*
Y-420422D01*
D02*
G37*
G36*
X-74979D02*
X-78574D01*
Y-424134D01*
X-78242Y-424935D01*
X-77441Y-425266D01*
X-74979D01*
Y-420422D01*
D02*
G37*
G36*
X-87369D02*
X-90964D01*
Y-425266D01*
X-88501D01*
X-87701Y-424935D01*
X-87369Y-424134D01*
Y-420422D01*
D02*
G37*
G36*
X-91980D02*
X-95574D01*
Y-424134D01*
X-95242Y-424935D01*
X-94441Y-425266D01*
X-91980D01*
Y-420422D01*
D02*
G37*
G36*
X-175424Y-399190D02*
X-177647Y-399483D01*
X-179718Y-400341D01*
X-181497Y-401706D01*
X-182862Y-403485D01*
X-183720Y-405556D01*
X-184013Y-407780D01*
X-183720Y-410003D01*
X-182862Y-412074D01*
X-181497Y-413853D01*
X-179718Y-415218D01*
X-177647Y-416076D01*
X-175424Y-416369D01*
X-173200Y-416076D01*
X-171129Y-415218D01*
X-169350Y-413853D01*
X-167985Y-412074D01*
X-167127Y-410003D01*
X-166834Y-407780D01*
X-167127Y-405556D01*
X-167985Y-403485D01*
X-169350Y-401706D01*
X-171129Y-400341D01*
X-173200Y-399483D01*
X-175424Y-399190D01*
D02*
G37*
G36*
X-232070Y-319277D02*
X-238536D01*
X-238403Y-319946D01*
X-237736Y-320944D01*
X-236739Y-321610D01*
X-235562Y-321844D01*
X-232070D01*
Y-319277D01*
D02*
G37*
%LPD*%
D10*
X211718Y26020D02*
X213106D01*
X206011Y15834D02*
X209109D01*
X209853Y16578D01*
Y24155D02*
X211718Y26020D01*
X209853Y16578D02*
Y24155D01*
X213106Y33182D02*
Y40020D01*
X203609Y33182D02*
X213106D01*
X282869D01*
X262548Y-162034D02*
Y-78034D01*
Y-174840D02*
Y-162034D01*
X259944Y-177444D02*
X262548Y-174840D01*
X228214Y-175914D02*
X237922D01*
X217548Y-166957D02*
Y-162034D01*
Y-166957D02*
X221913Y-171322D01*
X223622D01*
X228214Y-175914D01*
X217548Y-77634D02*
Y-77214D01*
X213183Y-72849D02*
X217548Y-77214D01*
X201168Y-72849D02*
X213183D01*
X231635Y-96649D02*
X239213D01*
X189736Y-97043D02*
X231241D01*
X231635Y-96649D01*
X175540Y-82846D02*
X189736Y-97043D01*
X190683Y-94757D02*
X230294D01*
X179675Y-83749D02*
X190683Y-94757D01*
X230294D02*
X233034Y-92017D01*
X246111D01*
X191630Y-92471D02*
X229347D01*
X235150Y-86668D01*
X181961Y-82802D02*
X191630Y-92471D01*
X192577Y-90185D02*
X228400D01*
X184247Y-81855D02*
X192577Y-90185D01*
X228400D02*
X232864Y-85721D01*
X267782Y19880D02*
X276786Y10875D01*
X214438Y19880D02*
X267782D01*
X271121Y-34304D02*
X290205Y-15220D01*
X206502Y-34304D02*
X271121D01*
X290205Y-15220D02*
Y104580D01*
X195092Y-29153D02*
X201351D01*
X206502Y-34304D01*
X204359Y14182D02*
X206011Y15834D01*
X203609Y14182D02*
X204359D01*
X73040Y-348742D02*
X73152Y-348630D01*
X61206Y-348742D02*
X73040D01*
X-96507Y-441523D02*
X51560D01*
X55858Y-437226D02*
Y-374430D01*
X51560Y-441523D02*
X55858Y-437226D01*
X58144Y-438172D02*
Y-368759D01*
X-100628Y-443809D02*
X52507D01*
X58144Y-438172D01*
X54008Y-372581D02*
Y-371680D01*
Y-372581D02*
X55858Y-374430D01*
X56294Y-366910D02*
Y-366350D01*
Y-366910D02*
X58144Y-368759D01*
X-98915Y-439674D02*
X-98356D01*
X-96507Y-441523D01*
X66272Y-368063D02*
X69970Y-371760D01*
Y-375343D02*
Y-371760D01*
X63986Y-371782D02*
Y-363690D01*
Y-371782D02*
X65834Y-373630D01*
X63986Y-363690D02*
X70806Y-356870D01*
X66272Y-364637D02*
X71753Y-359156D01*
X66272Y-368063D02*
Y-364637D01*
X64240Y-422140D02*
X77500Y-435400D01*
X64240Y-422140D02*
Y-381073D01*
X69970Y-375343D01*
X-103050Y-441387D02*
Y-436658D01*
Y-441387D02*
X-100628Y-443809D01*
X107327Y266823D02*
Y269430D01*
X109142Y271245D01*
X97994Y262458D02*
X102962D01*
X107327Y266823D01*
X262548Y168070D02*
Y181990D01*
Y97990D02*
Y100306D01*
X266024Y103782D01*
X277096D01*
X168496Y262458D02*
X181994D01*
X109142Y271245D02*
Y275028D01*
X283583Y111202D02*
X290205Y104580D01*
X199274Y208142D02*
X260404D01*
X181994Y217458D02*
X185691Y213761D01*
X193655D01*
X199274Y208142D01*
X97994Y217458D02*
X181994D01*
X157652Y179277D02*
Y198195D01*
X154714Y176339D02*
X157652Y179277D01*
X154714Y144738D02*
Y176339D01*
X142000Y132024D02*
X154714Y144738D01*
X158176Y-16504D02*
X170387D01*
X157000Y-17680D02*
X158176Y-16504D01*
X170387D02*
X174149Y-12743D01*
X171178Y-4453D02*
Y-782D01*
X176993Y5032D01*
Y44283D01*
X168892Y165D02*
X174707Y5979D01*
X168892Y-5400D02*
Y165D01*
X174707Y5979D02*
Y45230D01*
X166607Y-6347D02*
Y1112D01*
X172421Y6926D02*
Y46177D01*
X166607Y1112D02*
X172421Y6926D01*
X166471Y4209D02*
X170135Y7873D01*
X161365Y4209D02*
X166471D01*
X170135Y7873D02*
Y47124D01*
X271801Y51784D02*
X283712Y39873D01*
Y39873D02*
Y39873D01*
X184494Y51784D02*
X271801D01*
X266209Y54070D02*
X282599Y70460D01*
X183547Y54070D02*
X266209D01*
X202219Y70762D02*
X209454Y77997D01*
Y93127D01*
X208252Y94329D02*
X209454Y93127D01*
X208252Y94329D02*
Y107257D01*
X199209Y70366D02*
X199605Y70762D01*
X202219D01*
X209192Y67943D02*
X209232Y67984D01*
X205867Y67943D02*
X209192D01*
X196565Y58642D02*
X205867Y67943D01*
X181653Y58642D02*
X196565D01*
X171000Y53968D02*
X171330Y54298D01*
X174076D01*
X180706Y60928D02*
X195619D01*
X174076Y54298D02*
X180706Y60928D01*
X195619D02*
X208036Y73345D01*
X170135Y47124D02*
X181653Y58642D01*
X249531Y56356D02*
X270835Y77661D01*
X182600Y56356D02*
X249531D01*
X172421Y46177D02*
X182600Y56356D01*
X174707Y45230D02*
X183547Y54070D01*
X176993Y44283D02*
X184494Y51784D01*
X246634Y-228596D02*
Y-187267D01*
X129794Y-242096D02*
X233134D01*
X246634Y-228596D01*
Y-187267D02*
X256458Y-177444D01*
X259944D01*
X235150Y-86668D02*
Y-80826D01*
X236999Y-78977D01*
Y-74725D01*
X175633Y-90006D02*
X179414D01*
X211182Y-139778D02*
Y-121773D01*
X179414Y-90006D02*
X211182Y-121773D01*
X104373Y-284007D02*
Y-271094D01*
X109620Y-265847D02*
Y-261908D01*
X104373Y-271094D02*
X109620Y-265847D01*
Y-261908D02*
X129794D01*
X83837Y-309808D02*
X107006D01*
X114774Y-302040D02*
X129794D01*
X107006Y-309808D02*
X114774Y-302040D01*
X129794D02*
X175548D01*
X73152Y-320493D02*
X83837Y-309808D01*
X73152Y-334630D02*
Y-320493D01*
X262162Y-182153D02*
X292491Y-151824D01*
X248920Y-188214D02*
X254981Y-182153D01*
X262162D01*
X292491Y-151824D02*
Y108142D01*
X248920Y-229543D02*
Y-188214D01*
X264922Y-257562D02*
Y-182626D01*
X294777Y-152771D02*
Y111704D01*
X264922Y-182626D02*
X294777Y-152771D01*
X212604Y-309880D02*
X264922Y-257562D01*
X196743Y-281720D02*
X248920Y-229543D01*
X129794Y-281720D02*
X196743D01*
X268462Y-182852D02*
X271314Y-180000D01*
X268462Y-234079D02*
X271553Y-237171D01*
X268462Y-234079D02*
Y-182852D01*
X175548Y-302040D02*
X183388Y-309880D01*
X212604D01*
X217548Y97990D02*
Y110141D01*
X275843D01*
X217548D02*
Y181990D01*
X287718Y112915D02*
X292491Y108142D01*
X283583Y111202D02*
Y181730D01*
X281297Y110255D02*
Y180783D01*
Y110255D02*
X287919Y103633D01*
Y38233D02*
Y103633D01*
X258510Y203570D02*
X281297Y180783D01*
X259457Y205856D02*
X283583Y181730D01*
X81221Y-315657D02*
X84784Y-312094D01*
X81221Y-351918D02*
Y-315657D01*
X84784Y-312094D02*
X100658D01*
X76269Y-356870D02*
X81221Y-351918D01*
X70806Y-356870D02*
X76269D01*
X77216Y-359156D02*
X83507Y-352865D01*
Y-316604D02*
X85731Y-314380D01*
X83507Y-352865D02*
Y-316604D01*
X71753Y-359156D02*
X77216D01*
X95373Y-284007D02*
Y-276983D01*
X100222Y-291217D02*
Y-284751D01*
X95373Y-284007D02*
X99478D01*
X100222Y-284751D01*
X175540Y-82846D02*
Y-77212D01*
X85731Y-314380D02*
X99711D01*
X224438Y-292198D02*
X230632Y-286004D01*
X101204Y-292198D02*
X224438D01*
X205149Y-320802D02*
X264331Y-261620D01*
X157537Y-371647D02*
X247464Y-281720D01*
X146994Y-314380D02*
X153416Y-320802D01*
X102944Y-314380D02*
X146994D01*
X100658Y-312094D02*
X102944Y-314380D01*
X99711D02*
X101035Y-315704D01*
Y-318416D02*
X103075Y-320456D01*
X101035Y-318416D02*
Y-315704D01*
X259425Y-46451D02*
X263436D01*
X232864Y-73013D02*
X259425Y-46451D01*
X232864Y-85721D02*
Y-73013D01*
X39745Y210039D02*
Y214763D01*
X-10165Y264673D02*
Y291073D01*
Y264673D02*
X39745Y214763D01*
X33717Y210219D02*
Y215711D01*
X-19985Y269413D02*
Y285802D01*
Y269413D02*
X33717Y215711D01*
Y210219D02*
X33945Y209991D01*
X-47773D02*
Y215413D01*
X-63565Y231205D02*
Y254945D01*
Y231205D02*
X-47773Y215413D01*
X94116Y-261908D02*
X95373D01*
X92251Y-263773D02*
X94116Y-261908D01*
X92251Y-273861D02*
X95373Y-276983D01*
X92251Y-273861D02*
Y-263773D01*
X241735Y-293297D02*
X250224Y-301786D01*
X102900Y-371647D02*
X157537D01*
X247464Y-281720D02*
X283750D01*
X100222Y-291217D02*
X101204Y-292198D01*
X250224Y-301786D02*
X283750D01*
X50115Y-152073D02*
Y-150070D01*
X46283Y-155905D02*
X50115Y-152073D01*
X21572Y-155905D02*
X46283D01*
X40943Y-187796D02*
X52903Y-175837D01*
Y-155578D01*
X52749Y-234709D02*
X58055Y-229403D01*
X54250Y-140320D02*
X58055Y-144125D01*
Y-229403D02*
Y-144125D01*
X52749Y-237974D02*
Y-234709D01*
X7377Y-154230D02*
X40943Y-187796D01*
X-9028Y-154230D02*
X7377D01*
X-297365Y-317871D02*
Y121379D01*
X-296621Y122123D02*
X-275991D01*
X-297365Y121379D02*
X-296621Y122123D01*
X88900Y-361730D02*
Y-348230D01*
Y-369959D02*
Y-361730D01*
X-289333Y100509D02*
X-253455D01*
X-250002Y103961D01*
Y142500D01*
X-201946Y-296164D02*
X-201472Y-295690D01*
X-243007Y-151781D02*
Y-118689D01*
X-239014Y-114696D02*
X-176236D01*
X-243007Y-118689D02*
X-239014Y-114696D01*
X-272104Y-143336D02*
X-268017Y-147423D01*
Y-150849D02*
Y-147423D01*
X-272152Y-143336D02*
X-272104D01*
X-265731Y-151796D02*
Y-143882D01*
X-272076Y-137536D02*
X-265731Y-143882D01*
X-107390Y137657D02*
X-81281D01*
X-70156Y126531D01*
X-109340Y135707D02*
X-107390Y137657D01*
X-80334Y139943D02*
X-78384Y137993D01*
X-48384D02*
X-39613Y129221D01*
X-110287Y137993D02*
X-108337Y139943D01*
X-78384Y137993D02*
X-48384D01*
X-108337Y139943D02*
X-80334D01*
X-63500Y121320D02*
Y122167D01*
X-67865Y126531D02*
X-63500Y122167D01*
X-70156Y126531D02*
X-67865D01*
X-259556Y-4869D02*
X-187066D01*
X-186322Y-4125D01*
Y21896D01*
X-104667Y-21655D02*
X-100532Y-17520D01*
X-87331D01*
X-135193Y-21655D02*
X-104667D01*
X-189685Y-76147D02*
X-135193Y-21655D01*
X-227105Y-76147D02*
X-189685D01*
X-87331Y-17520D02*
X-87066Y-17255D01*
X-276736Y95182D02*
X-274887Y93333D01*
X-280166Y95182D02*
X-276736D01*
X-274887Y93333D02*
X-252632D01*
X-295079Y70849D02*
Y90689D01*
X-292657Y93111D01*
X-289231D01*
X-287167Y91047D01*
Y91047D02*
X-251685D01*
X-290944Y88976D02*
X-290729Y88761D01*
X-250738D01*
X-287597Y86475D02*
X-249791D01*
X-292793Y81280D02*
X-287597Y86475D01*
X-286651Y84189D02*
X-248844D01*
X-290507Y80333D02*
X-286651Y84189D01*
X-250738Y88761D02*
X-138215Y201284D01*
X-280986Y-198292D02*
Y69069D01*
X-286372Y74456D02*
X-286372D01*
X-280986Y69069D01*
X-278700Y-199239D02*
Y73896D01*
X-284858Y80054D02*
X-278700Y73896D01*
X-283272Y-144922D02*
Y65507D01*
X-290507Y72743D02*
Y80333D01*
Y72743D02*
X-283272Y65507D01*
X-285558Y-139122D02*
Y64561D01*
X-292793Y71796D02*
X-285558Y64561D01*
X-287844Y-135127D02*
Y63614D01*
X-295079Y70849D02*
X-287844Y63614D01*
X-292793Y71796D02*
Y81280D01*
X-283446Y-208025D02*
X-281673Y-206252D01*
Y-202212D01*
X-278700Y-199239D01*
X-285324Y-202630D02*
X-280986Y-198292D01*
X-285121Y-149136D02*
X-284600Y-148615D01*
Y-146250D01*
X-283272Y-144922D01*
X-287534Y-143336D02*
X-286949Y-142752D01*
Y-140514D01*
X-285558Y-139122D01*
X-289820Y-137536D02*
Y-137104D01*
X-287844Y-135127D01*
X-276414Y-200186D02*
Y-21727D01*
X-284585Y-222130D02*
X-282220Y-219765D01*
X-278836D02*
X-276414Y-217343D01*
Y-21727D02*
X-259556Y-4869D01*
X-282220Y-219765D02*
X-278836D01*
X-276414Y-217343D02*
Y-213917D01*
X-279387Y-210944D02*
X-276414Y-213917D01*
X-279387Y-203159D02*
X-276414Y-200186D01*
X-289324Y-222130D02*
X-284585D01*
X-279387Y-210944D02*
Y-203159D01*
X-289324Y-202630D02*
X-285324D01*
X-283481Y-208025D02*
X-283446D01*
X-289324Y-209130D02*
X-284585D01*
X-283481Y-208025D01*
X-252632Y93333D02*
X-140109Y205856D01*
X-251685Y91047D02*
X-139162Y203570D01*
X-249791Y86475D02*
X-137268Y198998D01*
X-248844Y84189D02*
X-136321Y196712D01*
X-140109Y205856D02*
X259457D01*
X-139162Y203570D02*
X258510D01*
X-138215Y201284D02*
X38498D01*
X-136321Y196712D02*
X-86299D01*
X-137268Y198998D02*
X-46592D01*
X76854Y170415D02*
X78157Y169112D01*
X75075Y172194D02*
X76854Y170415D01*
X-208273Y-413731D02*
X-202883Y-419121D01*
X-163098D01*
X-133255Y-412472D02*
Y-399148D01*
X-150023Y-382380D02*
X-133255Y-399148D01*
Y-412472D02*
X-114210Y-431518D01*
X-175424Y-382380D02*
X-163098Y-394705D01*
Y-419121D02*
X-129840D01*
X-163098D02*
Y-394705D01*
X67589Y172194D02*
X75075D01*
X38498Y201284D02*
X67589Y172194D01*
X85561Y169112D02*
X86972Y167701D01*
X78157Y169112D02*
X85561D01*
X85680Y185409D02*
X86972Y186701D01*
X77849Y185409D02*
X85680D01*
X76854Y184415D02*
X77849Y185409D01*
X279333Y-237171D02*
X284004Y-241842D01*
X271553Y-237171D02*
X279333D01*
X271314Y-180000D02*
X276860D01*
X285869Y120611D02*
X294777Y111704D01*
X285869Y120611D02*
Y182677D01*
X260404Y208142D02*
X285869Y182677D01*
X223105Y73345D02*
X230122Y80362D01*
X208036Y73345D02*
X223105D01*
X-112000Y2180D02*
X-109220Y-600D01*
Y-10662D02*
Y-600D01*
X-11849Y128925D02*
Y130261D01*
X-8107Y125183D02*
X-4891D01*
X-11849Y128925D02*
X-8107Y125183D01*
X-9563Y129872D02*
Y131208D01*
Y129872D02*
X-7160Y127469D01*
X-3944D01*
X-9091Y133969D02*
X-7812D01*
X-5447Y131604D01*
X-14893Y139771D02*
X-9091Y133969D01*
X-22107Y139771D02*
X-14893D01*
X-28085Y133793D02*
X-22107Y139771D01*
X-6604Y116184D02*
Y121048D01*
X-3944Y127469D02*
X2205Y121320D01*
X-2469Y111319D02*
Y122761D01*
X-4891Y125183D02*
X-2469Y122761D01*
X-15840Y137485D02*
X-9563Y131208D01*
X-16787Y135199D02*
X-11849Y130261D01*
X2205Y121320D02*
X18500D01*
X-21160Y137485D02*
X-15840D01*
X-27138Y131507D02*
X-21160Y137485D01*
X-20213Y135199D02*
X-16787D01*
X-26191Y129221D02*
X-20213Y135199D01*
X-6604Y116184D02*
X-4755Y114335D01*
Y110372D02*
Y114335D01*
Y110372D02*
X-1243Y106860D01*
Y99022D02*
Y106860D01*
X2892Y95904D02*
Y105958D01*
X-2469Y111319D02*
X2892Y105958D01*
X-108776Y-137216D02*
X-107719Y-138273D01*
Y-145728D02*
Y-138273D01*
Y-145728D02*
X-106236Y-147211D01*
X-123824Y-138264D02*
X-122776Y-137216D01*
X-125236Y-147211D02*
X-123824Y-145799D01*
Y-138264D01*
X-147867Y-137216D02*
X-122776D01*
X142000Y121320D02*
Y132024D01*
X157000Y130625D02*
Y175392D01*
Y121320D02*
Y130625D01*
Y175392D02*
X166279Y184671D01*
X175260Y124995D02*
X192475D01*
X88902Y-383543D02*
X99109Y-393751D01*
X75217Y-366350D02*
X88902Y-380035D01*
Y-383543D02*
Y-380035D01*
X70406Y-366350D02*
X75217D01*
X103075Y-320456D02*
X128399D01*
X104765Y-331747D02*
X142471D01*
X102900Y-334730D02*
Y-333612D01*
X104765Y-331747D01*
X84234Y-143739D02*
X84234D01*
X100417Y-159922D01*
X177612D01*
X-48936Y-255864D02*
Y-174543D01*
X-32809Y-271991D02*
X-11875D01*
X-48936Y-255864D02*
X-32809Y-271991D01*
X-251777Y-236368D02*
X-244039Y-228630D01*
X-251777Y-241046D02*
Y-236368D01*
X-244039Y-228630D02*
X-232324D01*
X-265126Y-279215D02*
Y-255473D01*
X-266975Y-253624D02*
Y-249837D01*
Y-253624D02*
X-265126Y-255473D01*
X-272181Y-286269D02*
X-265126Y-279215D01*
X-258268Y-221563D02*
X-245835Y-209130D01*
X-258268Y-282055D02*
Y-221563D01*
X-281982Y-305769D02*
X-258268Y-282055D01*
X-260554Y-220617D02*
X-242568Y-202630D01*
X-260554Y-281108D02*
Y-220617D01*
X-278715Y-299269D02*
X-260554Y-281108D01*
X-275448Y-292769D02*
X-262840Y-280162D01*
Y-219670D02*
X-239301Y-196130D01*
X-262840Y-280162D02*
Y-219670D01*
X38025Y178891D02*
Y195910D01*
X70953Y132501D02*
Y145963D01*
X38025Y178891D02*
X70953Y145963D01*
X74484Y125336D02*
Y128970D01*
X70953Y132501D02*
X74484Y128970D01*
Y125336D02*
X78500Y121320D01*
X-51509Y147583D02*
Y185846D01*
Y147583D02*
X-37719Y133793D01*
X-51509Y185846D02*
X-49983Y187372D01*
Y193624D01*
X-35907Y216058D02*
Y255489D01*
X-41973Y209991D02*
X-35907Y216058D01*
X-263365Y-67952D02*
X-252416Y-57004D01*
X-207676D01*
X-267094Y-116136D02*
X-227105Y-76147D01*
X173691Y-69516D02*
Y-49086D01*
X175540Y-47237D01*
X173691Y-69516D02*
X179675Y-75500D01*
X175540Y-47237D02*
Y-46871D01*
X184247Y-81855D02*
Y-58623D01*
X177826Y-52202D02*
X184247Y-58623D01*
X181961Y-82802D02*
Y-68624D01*
X177826Y-64489D02*
X181961Y-68624D01*
X-174045Y136681D02*
X-164299Y126935D01*
X-161365D01*
X-174045Y136681D02*
Y142200D01*
X45545Y209991D02*
X54035D01*
X92066Y248022D02*
X100207D01*
X54035Y209991D02*
X92066Y248022D01*
X-86299Y196712D02*
X-81280Y191694D01*
Y189788D02*
Y191694D01*
Y189788D02*
X-79165Y187673D01*
X-67462D01*
X-45848Y182437D02*
Y198254D01*
X-46592Y198998D02*
X-45848Y198254D01*
X-170135Y1492D02*
Y95136D01*
Y1492D02*
X-167323Y-1320D01*
X-150345D01*
X-116040Y140321D02*
X-113713Y137993D01*
X-156604Y140321D02*
X-116040D01*
X-116987Y138035D02*
X-114660Y135707D01*
X-142000Y138035D02*
X-116987D01*
X-113713Y137993D02*
X-110287D01*
X-114660Y135707D02*
X-109340D01*
X-228088Y-271708D02*
Y-265966D01*
X-223028Y-271708D02*
X-211328Y-283407D01*
X-228088Y-271708D02*
X-223028D01*
X-211328Y-296164D02*
Y-283407D01*
Y-296164D02*
X-211328Y-296164D01*
X-229750Y-264303D02*
X-228088Y-265966D01*
X-229750Y-264303D02*
Y-251752D01*
X-211328Y-296164D02*
X-201946D01*
X170665Y-99591D02*
X171196Y-99060D01*
X164374Y-136888D02*
X170203Y-131059D01*
Y-102668D02*
X170665Y-102205D01*
Y-99591D01*
X170203Y-131059D02*
Y-102668D01*
X157000Y-136888D02*
X164374D01*
X-55783Y148624D02*
Y193624D01*
Y148624D02*
X-38666Y131507D01*
X-297365Y-317871D02*
X-296467Y-318769D01*
X-289899D01*
X-155226Y-324433D02*
X-133102Y-302309D01*
X-165324Y-324433D02*
X-155226D01*
X-166271Y-322147D02*
X-156173D01*
X-134082Y-300056D01*
Y-296707D01*
X-133184Y-295809D01*
X-125881D01*
X-207873Y-360688D02*
Y-318885D01*
X-208915Y-361731D02*
X-207873Y-360688D01*
Y-318885D02*
X-191282Y-302294D01*
X-215274Y-361731D02*
X-208915D01*
X-221306Y-328427D02*
Y-293513D01*
X-262492Y-373372D02*
Y-369612D01*
X-263850Y-374731D02*
X-262492Y-373372D01*
Y-369612D02*
X-221306Y-328427D01*
X-271274Y-368231D02*
X-264343D01*
X-223592Y-327480D02*
Y-300013D01*
X-264343Y-368231D02*
X-223592Y-327480D01*
X32225Y165343D02*
Y195910D01*
X59365Y125456D02*
Y138203D01*
X32225Y165343D02*
X59365Y138203D01*
X-263445Y-122997D02*
X-222336Y-81889D01*
X-263445Y-152742D02*
Y-122997D01*
X-261159Y-123944D02*
X-247775Y-110561D01*
X-261159Y-153689D02*
Y-123944D01*
X-274128Y-221170D02*
Y-153727D01*
X-281588Y-228630D02*
X-274128Y-221170D01*
X-269556Y-228728D02*
Y-155620D01*
X-282458Y-241630D02*
X-269556Y-228728D01*
X-271842Y-154674D02*
X-268017Y-150849D01*
X-271842Y-225360D02*
Y-154674D01*
X-281611Y-235130D02*
X-271842Y-225360D01*
X-274128Y-153727D02*
X-272472Y-152071D01*
Y-149456D02*
X-272152Y-149136D01*
X-272472Y-152071D02*
Y-149456D01*
X-222336Y-81889D02*
X-122741D01*
X-264984Y-157514D02*
X-261159Y-153689D01*
X-267270Y-156567D02*
X-263445Y-152742D01*
X-269556Y-155620D02*
X-265731Y-151796D01*
X-264984Y-197379D02*
Y-157514D01*
X-263135Y-199681D02*
Y-199228D01*
X-264984Y-197379D02*
X-263135Y-199228D01*
X-267270Y-201394D02*
Y-156567D01*
Y-201394D02*
X-265421Y-203242D01*
Y-206350D02*
Y-203242D01*
X-174523Y-110561D02*
X-147867Y-137216D01*
X-247775Y-110561D02*
X-174523D01*
X-172318Y-135979D02*
Y-128071D01*
X-167022Y-150387D02*
Y-141276D01*
X-172318Y-135979D02*
X-167022Y-141276D01*
X-211845Y-39539D02*
X-211720Y-39413D01*
X-264562Y-39539D02*
X-211845D01*
X-258932Y-19369D02*
X-105613D01*
X-262260Y-16041D02*
X-262260D01*
X-258932Y-19369D01*
X-105613D02*
X-101479Y-15234D01*
X-90893D01*
X-176344Y101345D02*
X-170135Y95136D01*
X-220050Y101345D02*
X-176344D01*
X-175442Y97210D02*
X-172421Y94189D01*
X-218337Y97210D02*
X-175442D01*
X-204144Y94924D02*
X-176389D01*
X-174707Y93242D01*
X-205042Y79736D02*
Y94026D01*
X-204144Y94924D01*
X-174707Y-401D02*
Y93242D01*
X-172421Y545D02*
Y94189D01*
X-229946Y44697D02*
X-226729Y47914D01*
Y94666D02*
X-220050Y101345D01*
X-226729Y47914D02*
Y94666D01*
X179675Y-83749D02*
Y-75500D01*
X-47358Y180927D02*
X-46082Y179650D01*
Y171958D02*
Y179650D01*
X32225Y195910D02*
X32225Y195910D01*
X-47358Y180927D02*
X-45848Y182437D01*
X202300Y88395D02*
X205319Y91414D01*
X196380Y88395D02*
X202300D01*
X-187191Y-377843D02*
X-178757Y-369410D01*
X-158092D02*
X-154821Y-366139D01*
X-178757Y-369410D02*
X-158092D01*
X-154821Y-361777D02*
X-150023Y-356980D01*
X-154821Y-366139D02*
Y-361777D01*
X-191763Y-354104D02*
X-168465Y-330806D01*
X-165850D02*
X-163612Y-328568D01*
X-168465Y-330806D02*
X-165850D01*
X-191763Y-381153D02*
Y-354104D01*
X142471Y-331747D02*
X153416Y-320802D01*
X113681Y-357011D02*
X125076D01*
X104765Y-351784D02*
X108453D01*
X113681Y-357011D01*
X125076D02*
X129794Y-361730D01*
X102900Y-349919D02*
Y-348230D01*
Y-349919D02*
X104765Y-351784D01*
X88900Y-334730D02*
Y-320281D01*
Y-348230D02*
Y-334730D01*
X153416Y-320802D02*
X205149D01*
X128399Y-320456D02*
X129794Y-321852D01*
X102900Y-371647D02*
Y-361730D01*
Y-384600D02*
Y-371647D01*
X102900Y-371647D01*
X-212142Y-353970D02*
Y-352596D01*
X-210159Y-350613D02*
Y-317938D01*
X-215274Y-355231D02*
X-213403D01*
X-212142Y-353970D01*
Y-352596D02*
X-210159Y-350613D01*
Y-317938D02*
X-191086Y-298866D01*
X-190188Y-295809D02*
X-182881D01*
X-191086Y-296707D02*
X-190188Y-295809D01*
X-191086Y-298866D02*
Y-296707D01*
X-44801Y-254080D02*
X-13163Y-222442D01*
Y-144233D01*
X-191282Y-302294D02*
X-182881D01*
X118390Y-388518D02*
X243010D01*
X89177Y-398323D02*
X108584D01*
X118390Y-388518D01*
X243010D02*
X269798Y-361730D01*
X283750D01*
X106691Y-393751D02*
X122967Y-377474D01*
X201905D02*
X257782Y-321598D01*
X122967Y-377474D02*
X201905D01*
X224063Y-383533D02*
X265678Y-341918D01*
X107637Y-396037D02*
X120141Y-383533D01*
X224063D01*
X264331Y-261620D02*
X283971D01*
X265678Y-341918D02*
X283750D01*
X257782Y-321598D02*
X283750D01*
X-182119Y-140357D02*
Y-126546D01*
Y-140357D02*
X-179609Y-142867D01*
X-263578Y-68166D02*
X-263365Y-67952D01*
X73490Y-169634D02*
X99878Y-196021D01*
X-163492Y147209D02*
X-156604Y140321D01*
X-162590Y143074D02*
X-157551Y138035D01*
X-165205Y143074D02*
X-162590D01*
X110195Y-177726D02*
X153100D01*
X-190822Y127503D02*
Y131271D01*
X-149447Y-7429D02*
X-147655Y-9221D01*
X-150345Y-1320D02*
X-149447Y-2218D01*
Y-7429D02*
Y-2218D01*
X-147655Y-9221D02*
X-144755D01*
X-110933Y-14797D02*
X-107507D01*
X-130895Y-9221D02*
X-116509D01*
X-110933Y-14797D01*
X-163601Y-11507D02*
X-157439D01*
X-155590Y-13356D02*
X-152600D01*
X-157439Y-11507D02*
X-155590Y-13356D01*
X-174707Y-401D02*
X-163601Y-11507D01*
X-144755Y-9221D02*
X-142332Y-11643D01*
Y-12373D02*
X-139903Y-14803D01*
X-142332Y-12373D02*
Y-11643D01*
X-162655Y-9221D02*
X-150887D01*
X-146753Y-13356D02*
X-146467D01*
X-150887Y-9221D02*
X-146753Y-13356D01*
X-139903Y-14803D02*
X-136477D01*
X-130895Y-9221D01*
X-138190Y-10668D02*
Y-5130D01*
X-142000Y-1320D02*
X-138190Y-5130D01*
X-118222Y-13356D02*
X-118222D01*
X-114494Y-17083D02*
X-106560D01*
X-118222Y-13356D02*
X-114494Y-17083D01*
X-172421Y545D02*
X-162655Y-9221D01*
X-88778Y-13120D02*
X-85353D01*
X-90893Y-15234D02*
X-88778Y-13120D01*
X-85353D02*
X-81306Y-17167D01*
Y-17938D02*
Y-17167D01*
X-92786Y-10662D02*
X-88706Y-6582D01*
X-103372Y-10662D02*
X-92786D01*
X-88706Y-6582D02*
X-82865D01*
X-91840Y-12948D02*
X-88112Y-9221D01*
X-102425Y-12948D02*
X-91840D01*
X-88112Y-9221D02*
X-62659D01*
X-106560Y-17083D02*
X-102425Y-12948D01*
X-107507Y-14797D02*
X-103372Y-10662D01*
X-62659Y-9221D02*
X-61761Y-10119D01*
Y-16782D02*
Y-10119D01*
X-60863Y-17680D02*
X-54250D01*
X-61761Y-16782D02*
X-60863Y-17680D01*
X468Y93480D02*
X2892Y95904D01*
X-243007Y-151781D02*
X-242966Y-151822D01*
X-241554Y-235130D02*
X-232324D01*
X131100Y-169947D02*
X201209D01*
X214244Y-182982D01*
X-239301Y-196130D02*
X-232324D01*
X-245835Y-209130D02*
X-232324D01*
X-242568Y-202630D02*
X-232324D01*
X166607Y-6347D02*
X167407Y-7148D01*
Y-9763D02*
X167728Y-10083D01*
X167407Y-9763D02*
Y-7148D01*
X168892Y-5400D02*
X171863Y-8370D01*
X171178Y-4453D02*
X174149Y-7423D01*
Y-12743D02*
Y-7423D01*
X169440Y-14218D02*
X171863Y-11796D01*
Y-8370D01*
X166015Y-14218D02*
X169440D01*
X163651Y-11854D02*
Y-10775D01*
Y-11854D02*
X166015Y-14218D01*
X162655Y-9779D02*
X163651Y-10775D01*
X151345Y-9779D02*
X162655D01*
X-157551Y138035D02*
X-142000D01*
X112000Y121320D02*
Y131070D01*
X-13163Y-144233D02*
X-9250Y-140320D01*
X-50062Y-147775D02*
X-43608Y-154230D01*
X-17298D01*
X104473Y-142085D02*
X106238Y-140320D01*
X104473Y-146583D02*
Y-142085D01*
X106238Y-140320D02*
X112000D01*
X100985Y-150070D02*
X104473Y-146583D01*
X96413Y-150070D02*
X100985D01*
X33500Y121320D02*
Y143927D01*
X-142000Y121320D02*
Y138035D01*
X-142000Y138035D02*
X-142000Y138035D01*
X-175758Y146335D02*
X-168466D01*
X-165205Y143074D01*
X-37719Y133793D02*
X-28085D01*
X-38666Y131507D02*
X-27138D01*
X-39613Y129221D02*
X-26191D01*
X-18500Y121320D02*
Y131064D01*
X-117162Y-437988D02*
X-113698Y-441452D01*
X-130787Y-421407D02*
X-117162Y-435031D01*
X-203830Y-421407D02*
X-130787D01*
X-117162Y-437988D02*
Y-435031D01*
X-113698Y-441452D02*
X-110741D01*
X-113308Y-435653D02*
X-113027D01*
X-129840Y-419121D02*
X-113308Y-435653D01*
X-207854Y-417382D02*
X-203830Y-421407D01*
X43933Y-152408D02*
X44570Y-151770D01*
X42150Y-152408D02*
X43933D01*
X40963Y-153595D02*
X42150Y-152408D01*
X34285Y-153595D02*
X40963D01*
X-189477Y-371033D02*
X-175424Y-356980D01*
X-189477Y-383438D02*
Y-371033D01*
X-187191Y-385859D02*
Y-377843D01*
X-208563Y-407231D02*
X-187191Y-385859D01*
X-289324Y-235130D02*
X-281611D01*
X-289324Y-228630D02*
X-281588D01*
X-289324Y-241630D02*
X-282458D01*
X-78500Y-2217D02*
Y-1320D01*
X-82865Y-6582D02*
X-78500Y-2217D01*
X157000Y-1320D02*
Y-156D01*
X161365Y4209D01*
X146365Y-12274D02*
X148851D01*
X151345Y-9779D01*
X142000Y-17680D02*
Y-16639D01*
X146365Y-12274D01*
X-196335Y-352210D02*
X-166271Y-322147D01*
X-196335Y-376529D02*
Y-352210D01*
X-201037Y-381231D02*
X-196335Y-376529D01*
X-194049Y-353157D02*
X-165324Y-324433D01*
X-194049Y-378605D02*
Y-353157D01*
X-203175Y-387731D02*
X-194049Y-378605D01*
X77500Y-410000D02*
X89177Y-398323D01*
X282869Y33182D02*
X287919Y38233D01*
X-157000Y121320D02*
Y122570D01*
X-161365Y126935D02*
X-157000Y122570D01*
X-114210Y-431518D02*
X-111315D01*
X-182881Y-308809D02*
X-168662D01*
X-163612Y-318012D02*
Y-313859D01*
X-168662Y-308809D02*
X-163612Y-313859D01*
X-110741Y-441452D02*
X-108892Y-439603D01*
X-111315Y-431518D02*
X-108892Y-433940D01*
Y-439603D02*
Y-433940D01*
X59365Y125456D02*
X63500Y121320D01*
X-44942Y131318D02*
X-40559Y126935D01*
X-68834Y131318D02*
X-44942D01*
X-182119Y-126546D02*
X-179358Y-123785D01*
X-50062Y-147775D02*
Y-144508D01*
X-54250Y-140320D02*
X-50062Y-144508D01*
X13415Y-147748D02*
X21572Y-155905D01*
X77500Y-384600D02*
X88937Y-396037D01*
X107637D01*
X99109Y-393751D02*
X106691D01*
X77500Y-384600D02*
Y-384600D01*
X-271274Y-374731D02*
X-263850D01*
X-215274Y-400731D02*
X-206770D01*
X-189477Y-383438D01*
X-215274Y-394231D02*
X-204841D01*
X-191763Y-381153D01*
X-215274Y-387731D02*
X-203175D01*
X-179358Y-123785D02*
X-176227D01*
X69250Y-140320D02*
X73490Y-144560D01*
Y-169634D02*
Y-144560D01*
X-69250Y-154230D02*
X-48936Y-174543D01*
X9250Y-140320D02*
X13415Y-144485D01*
Y-147748D02*
Y-144485D01*
X24250Y-140320D02*
X28426Y-144496D01*
Y-147736D02*
Y-144496D01*
Y-147736D02*
X34285Y-153595D01*
X78504Y-146034D02*
Y-142842D01*
Y-146034D02*
X110195Y-177726D01*
X-190822Y131271D02*
X-175758Y146335D01*
X-234081Y27791D02*
Y46410D01*
Y27791D02*
X-215174Y8883D01*
X-234081Y46410D02*
X-231820Y48671D01*
X127456Y-173591D02*
X131100Y-169947D01*
X153100Y-177726D02*
X156744Y-174082D01*
X-254666Y-348620D02*
Y-317072D01*
X-286243Y-381231D02*
Y-372595D01*
X-220536Y-417382D02*
X-207854D01*
X-222675Y-415243D02*
X-220536Y-417382D01*
X-222675Y-415243D02*
Y-369247D01*
X-231562Y-292769D02*
X-222050D01*
X-231562Y-299269D02*
X-224336D01*
X-215274Y-381231D02*
X-201037D01*
X-286243D02*
X-271274D01*
X-78760Y168673D02*
X-76763Y170669D01*
X-74151D01*
X-72858Y171962D02*
X-69173D01*
X-74151Y170669D02*
X-72858Y171962D01*
X-69173D02*
X-67462Y173673D01*
X-97000Y121320D02*
Y133522D01*
X-221659Y-368231D02*
X-215274D01*
X-222675Y-369247D02*
X-221659Y-368231D01*
X-215274Y-374731D02*
X-203877D01*
X-122741Y-67889D02*
X-120790Y-65938D01*
Y-60130D01*
X-122741Y-81889D02*
X-121390Y-80538D01*
X-113788D01*
X-112380Y-79130D01*
X-201530Y23104D02*
X-200322Y21896D01*
X-207637Y23104D02*
X-201530D01*
X-187356Y22929D02*
X-186322Y21896D01*
X-187356Y22929D02*
Y30273D01*
X-188636Y31554D02*
X-187356Y30273D01*
X-46082Y171958D02*
X-44961Y170837D01*
X-33358Y180927D02*
X-25961D01*
X191624Y-19464D02*
X193358Y-21199D01*
Y-27419D02*
Y-21199D01*
Y-27419D02*
X195092Y-29153D01*
X205624Y-19464D02*
X212631D01*
X94950Y-138270D02*
X97000Y-140320D01*
X86166Y-138270D02*
X94950D01*
X-33500Y121320D02*
Y122570D01*
X-37865Y126935D02*
X-33500Y122570D01*
X-40559Y126935D02*
X-37865D01*
X-231820Y48671D02*
Y75323D01*
X-112000Y121320D02*
Y131572D01*
X206756Y47649D02*
X234202D01*
X-133102Y-302309D02*
X-125881D01*
Y-308809D02*
X-114377D01*
X-238672Y-286269D02*
X-231562D01*
X-254666Y-317072D02*
X-239416Y-301822D01*
Y-287013D02*
X-238672Y-286269D01*
X-239416Y-301822D02*
Y-287013D01*
X-222050Y-292769D02*
X-221306Y-293513D01*
X-224336Y-299269D02*
X-223592Y-300013D01*
X-289832Y-286269D02*
X-272181D01*
X-289832Y-292769D02*
X-275448D01*
X-289832Y-299269D02*
X-278715D01*
X-288562Y-305769D02*
X-281982D01*
X-252380Y-349567D02*
Y-318019D01*
X-240130Y-305769D01*
X-232832D01*
X-271274Y-355231D02*
X-261277D01*
X-254666Y-348620D01*
X-264544Y-361731D02*
X-252380Y-349567D01*
X-271274Y-361731D02*
X-264544D01*
X-215274Y-407231D02*
X-208563D01*
X-103050Y-436658D02*
X-101201Y-434809D01*
Y-434344D01*
X-213664Y-413731D02*
X-208273D01*
X-289324Y-215630D02*
X-280549D01*
X283971Y-261620D02*
X284004Y-261654D01*
D11*
X180380Y-10642D02*
Y-2742D01*
X170770Y-20252D02*
X180380Y-10642D01*
X170770Y-91888D02*
Y-20252D01*
X-275991Y122123D02*
X-269037D01*
X-275991D02*
Y130155D01*
X61065Y-291650D02*
X68708Y-284007D01*
X61065Y-298583D02*
Y-291650D01*
Y-446476D02*
Y-298837D01*
Y-446476D02*
X61318Y-446730D01*
X91570D01*
X-105971D02*
X61318D01*
X68708Y-284007D02*
X77373D01*
Y-259685D01*
X181262Y38298D02*
X188077Y45113D01*
X181128Y38164D02*
X181262Y38298D01*
X180380Y4318D02*
Y22202D01*
Y-2742D02*
Y4318D01*
X188077Y45113D02*
X192808D01*
X181128Y25162D02*
X182608Y23682D01*
X182609D01*
X181128Y25162D02*
Y38164D01*
X95373Y-247762D02*
X109620D01*
X-295242Y-333062D02*
X-289070D01*
X89265Y-247792D02*
X95343D01*
X77373Y-259685D02*
X89265Y-247792D01*
X109620Y-247762D02*
Y-222030D01*
X-296730Y-430615D02*
Y-394231D01*
Y-430615D02*
X-280615Y-446730D01*
X-150000D01*
X-56241Y-386962D02*
X-31220Y-361941D01*
X6867D02*
X14743Y-354065D01*
X-31220Y-361941D02*
X6867D01*
X-125881Y-406200D02*
X-112167Y-419914D01*
X-105971D01*
X-125881Y-406200D02*
Y-325492D01*
X192358Y-58849D02*
X204592D01*
X-150000Y-446730D02*
X-105971D01*
Y-419914D01*
X-296730Y-394231D02*
Y-334550D01*
X-295242Y-333062D01*
X204592Y-58849D02*
X219964D01*
X-213868Y62992D02*
X-198137D01*
X109620Y-222030D02*
X129794D01*
X170770Y-91888D02*
X175966Y-97084D01*
X173124Y-103878D02*
X175966Y-101036D01*
Y-97084D01*
X162918Y-148856D02*
X173124Y-138649D01*
Y-103878D01*
X-83058Y-141142D02*
Y-69630D01*
Y-141142D02*
X-74740Y-149460D01*
X-83020Y-69630D02*
Y-26610D01*
X-76536Y-20126D01*
X-91380Y-69630D02*
X-83020D01*
X-91380D02*
Y-43154D01*
X-133350Y-178218D02*
X-115736D01*
X-105410D01*
X-198137Y52554D02*
Y62992D01*
X180380Y4318D02*
X187706D01*
X180380Y4318D02*
X180380Y4318D01*
X-91380Y-92202D02*
Y-69630D01*
X-127000Y121320D02*
X-124206Y124114D01*
Y132479D01*
X-76536Y-20126D02*
Y-15127D01*
X-77750Y-13913D02*
X-76536Y-15127D01*
X-77750Y-13913D02*
Y-13356D01*
X-74740Y-149460D02*
X-61750D01*
X175313Y-2740D02*
X175315Y-2742D01*
X180380D01*
Y22203D02*
X181859Y23682D01*
X14743Y-354065D02*
Y-343074D01*
X-56241Y-397207D02*
Y-386962D01*
X-59971Y-400937D02*
X-56241Y-397207D01*
X91570Y-446730D02*
X102900Y-435400D01*
X-125881Y-325492D02*
Y-315309D01*
X136082Y-148856D02*
X162918D01*
X-39250Y-149460D02*
Y-140320D01*
X204592Y-58849D02*
Y-50153D01*
X134714Y-147488D02*
X136082Y-148856D01*
X127000Y-140320D02*
X132918D01*
X134714Y-147488D02*
Y-142116D01*
X132918Y-140320D02*
X134714Y-142116D01*
X-60023Y-400886D02*
X-59971Y-400937D01*
X127000Y-17680D02*
Y-1320D01*
Y-17680D02*
X127000Y-17680D01*
X39250Y-149460D02*
Y-140320D01*
X13000Y-341331D02*
Y-331750D01*
Y-341331D02*
X14743Y-343074D01*
X-60271Y-433080D02*
Y-420214D01*
X-82920Y-400886D02*
X-60023D01*
X-60271Y-419614D02*
X-59971Y-419914D01*
X-60271Y-401237D02*
X-59971Y-400937D01*
X-60271Y-420214D02*
X-59971Y-419914D01*
X-60271Y-419614D02*
Y-401237D01*
X-82971Y-400937D02*
X-82920Y-400886D01*
X-60271Y-433080D02*
X-59971Y-433380D01*
X-290574Y-331074D02*
X-289070Y-332578D01*
X-290574Y-331074D02*
Y-319444D01*
X-289899Y-318769D01*
X-288562D01*
X-279526D01*
X-240526Y-279769D02*
X-232832D01*
X-279526Y-318769D02*
X-240526Y-279769D01*
X-150023Y-433180D02*
X-150000Y-433203D01*
Y-446730D02*
Y-433203D01*
X-105971Y-419914D02*
Y-400937D01*
D12*
X40943Y-273957D02*
Y-187796D01*
X-236429Y90757D02*
X-233808Y93378D01*
Y95814D02*
X-178151Y151471D01*
X-233808Y93378D02*
Y95814D01*
X-178151Y151471D02*
X-161726D01*
X-115041Y142734D02*
X-114435Y142128D01*
X-152989Y142734D02*
X-115041D01*
X-161726Y151471D02*
X-152989Y142734D01*
X-114435Y142128D02*
X-112000D01*
D46*
X199918Y-9682D02*
X200168Y-9932D01*
X185956Y-9682D02*
X199918D01*
X195021Y14182D02*
X203609D01*
X184980Y-17765D02*
Y-10658D01*
X183641Y-19104D02*
X184980Y-17765D01*
X183641Y-31243D02*
Y-19104D01*
X202278Y13579D02*
X202882Y14182D01*
X200168Y4568D02*
X200802D01*
X202278Y6044D01*
Y13579D01*
X213393Y4568D02*
X223778D01*
X228346Y0D01*
X213393Y4568D02*
Y12192D01*
X212631Y-19464D02*
Y-9932D01*
X213340Y-27466D02*
X214560Y-28686D01*
X126645Y152120D02*
X137672D01*
X78616Y-219026D02*
X81620Y-222030D01*
X74348Y-199967D02*
X78616Y-212852D01*
X72129Y-306547D02*
X83612D01*
X69558Y-309118D02*
X72129Y-306547D01*
X83612D02*
X85397Y-304762D01*
Y-300983D01*
X86373Y-300007D01*
X68326Y-309118D02*
X69558D01*
X86373Y-300007D02*
X95373D01*
X68326Y-317754D02*
Y-309118D01*
X-283687Y107623D02*
X-275991D01*
X202882Y14182D02*
X203609D01*
X184980Y-10658D02*
X185956Y-9682D01*
X212631Y-19464D02*
X212631Y-19464D01*
X-14224Y172841D02*
Y180229D01*
X-11461Y182992D02*
Y191262D01*
X-14224Y180229D02*
X-11461Y182992D01*
X-25961Y180927D02*
Y191262D01*
X-14224Y172841D02*
X1564D01*
X-14224Y163837D02*
Y172841D01*
X62716Y186436D02*
Y195326D01*
X77216D02*
X86972D01*
X-77216Y145214D02*
X-68326D01*
X-78760Y159713D02*
X-68326D01*
X-193137Y1016D02*
Y9652D01*
X-207637D02*
Y23104D01*
X-84256Y-178036D02*
Y-171674D01*
X-88392Y-167538D02*
Y-160994D01*
Y-167538D02*
X-84256Y-171674D01*
Y-178036D02*
X-84074Y-178218D01*
X-98925Y-146494D02*
X-88392D01*
X-112380Y-35030D02*
X-102108D01*
X-112380Y-60130D02*
Y-49530D01*
X117920Y152753D02*
X126012D01*
X117287Y153386D02*
X117920Y152753D01*
X126012D02*
X126645Y152120D01*
X137672D02*
X138938Y153386D01*
X192358Y-72849D02*
X201168D01*
X-118182Y159223D02*
X-103122D01*
X-101308Y161038D01*
X-119968Y157438D02*
X-118182Y159223D01*
X-119968Y148312D02*
Y157438D01*
X-101308Y178173D02*
X-99760D01*
X-109474D02*
X-101308D01*
X86972Y186701D02*
Y195326D01*
X-105877Y-146852D02*
X-99284D01*
X-106236Y-147211D02*
X-105877Y-146852D01*
X-99284D02*
X-98925Y-146494D01*
X-123474Y169277D02*
Y178173D01*
X-137668D02*
X-123474D01*
X-101308Y161038D02*
Y176947D01*
X-100082Y178173D01*
X107972Y177201D02*
X117287D01*
Y167386D02*
Y177201D01*
X133604D01*
X-206931Y52554D02*
X-198137D01*
X78616Y-219026D02*
Y-212852D01*
X-99760Y178173D02*
Y186861D01*
X-95359Y191261D01*
X-91410Y-178218D02*
X-84074D01*
Y-194564D02*
Y-178218D01*
X-184137Y71882D02*
Y84836D01*
X-105380Y-115062D02*
Y-101346D01*
X180594Y-34290D02*
X183641Y-31243D01*
X-14224Y149837D02*
X4064D01*
X-105380Y-101346D02*
Y-92202D01*
X-184137Y62992D02*
Y71882D01*
X-35461Y149837D02*
X-14224D01*
X-120790Y-60130D02*
X-112380D01*
X-115736Y-178218D02*
Y-168211D01*
X-207637Y23104D02*
Y31554D01*
X-25961Y170837D02*
Y180927D01*
X-35461Y139244D02*
Y149837D01*
X213340Y-27466D02*
Y-20173D01*
X212631Y-19464D02*
X213340Y-20173D01*
X-78760Y159713D02*
Y168673D01*
X-288562Y-267762D02*
Y-258298D01*
X-289324Y-189808D02*
Y-182996D01*
Y-196130D02*
Y-189808D01*
X-288562Y-279769D02*
Y-267762D01*
X-289324Y-167746D02*
Y-160444D01*
D47*
X95343Y-247792D02*
X95373Y-247762D01*
X109620Y-247908D02*
Y-247762D01*
X-221718Y-212448D02*
X-213007Y-203736D01*
X-221718Y-263842D02*
Y-212448D01*
X-213007Y-203736D02*
Y-198632D01*
X-191045Y-248872D02*
Y-237900D01*
X-180521Y-227376D01*
Y-191032D01*
X-186036Y-223331D02*
Y-192187D01*
X-196157Y-252165D02*
Y-233452D01*
X-186036Y-223331D01*
X-182881Y-243809D02*
Y-239193D01*
X-175006Y-231318D02*
Y-189830D01*
X-182881Y-239193D02*
X-175006Y-231318D01*
X-201269Y-228694D02*
X-191551Y-218976D01*
Y-192157D01*
X-201269Y-254169D02*
Y-228694D01*
X-206382Y-257229D02*
Y-224607D01*
X-197066Y-215291D02*
Y-192153D01*
X-206382Y-224607D02*
X-197066Y-215291D01*
X-202581Y-211605D02*
Y-194358D01*
X-211494Y-259088D02*
Y-220519D01*
X-202581Y-211605D01*
X-216606Y-261722D02*
Y-216071D01*
X-208095Y-207561D02*
Y-196321D01*
X-216606Y-216071D02*
X-208095Y-207561D01*
X-197463Y-186244D02*
X-191551Y-192157D01*
X-228328Y-148278D02*
X-197463Y-179143D01*
Y-186244D02*
Y-179143D01*
X-216782Y-172437D02*
X-197106Y-192113D01*
X-197106D02*
X-197066Y-192153D01*
X-192724Y-185499D02*
X-186036Y-192187D01*
X-192724Y-185499D02*
Y-166549D01*
X-180030Y-184806D02*
Y-184806D01*
Y-184806D02*
X-175006Y-189830D01*
X-188208Y-183344D02*
X-188208D01*
X-180521Y-191032D01*
X-215833Y-181105D02*
X-202581Y-194358D01*
X-215833Y-181105D02*
X-215833D01*
X-196157Y-252165D02*
X-191514Y-256809D01*
X-201269Y-254169D02*
X-192130Y-263309D01*
X-206382Y-257229D02*
X-193802Y-269809D01*
X-211494Y-259088D02*
X-194274Y-276309D01*
X-216606Y-261722D02*
X-195519Y-282809D01*
X-214576Y-189841D02*
X-214576D01*
X-208095Y-196321D01*
X-221718Y-263842D02*
X-196252Y-289309D01*
X-193802Y-269809D02*
X-182881D01*
X-194274Y-276309D02*
X-182881D01*
X-191514Y-256809D02*
X-182881D01*
X-192130Y-263309D02*
X-182881D01*
X-195519Y-282809D02*
X-182881D01*
X-238872Y-120401D02*
X-192724Y-166549D01*
X-196252Y-289309D02*
X-182881D01*
X-85702Y-248872D02*
Y-233382D01*
X-101074Y-227016D02*
X-92067D01*
X-85702Y-233382D01*
X-125881Y-250309D02*
X-87138D01*
X-85702Y-248872D01*
X-125881Y-289309D02*
X-70301D01*
X-56034Y-275041D01*
Y-220458D01*
X-125881Y-282809D02*
X-73609D01*
X-61006Y-270206D02*
Y-216312D01*
X-73609Y-282809D02*
X-61006Y-270206D01*
X-65933Y-265028D02*
Y-221957D01*
X-125881Y-276309D02*
X-77214D01*
X-65933Y-265028D01*
X-125881Y-269809D02*
X-79729D01*
X-70817Y-260896D02*
Y-227566D01*
X-79729Y-269809D02*
X-70817Y-260896D01*
X-125881Y-263309D02*
X-82741D01*
X-76020Y-256587D01*
Y-229990D01*
X-125881Y-256809D02*
X-86049D01*
X-81117Y-251876D01*
Y-231438D01*
X-53223Y-217647D02*
Y-213465D01*
X-56034Y-220458D02*
X-53223Y-217647D01*
X11302Y-9278D02*
Y-1748D01*
X359Y58872D02*
Y86985D01*
X-105896Y-219545D02*
X-93009D01*
X-81117Y-231438D01*
X-77230Y-221153D02*
X-70817Y-227566D01*
X-94010Y-212000D02*
X-76020Y-229990D01*
X-69012Y-218878D02*
X-65933Y-221957D01*
X-238872Y-120401D02*
X-238872D01*
X-191045Y-248872D02*
X-189608Y-250309D01*
X-182881D01*
X-110353Y-212000D02*
X-94010D01*
X-285750Y-394231D02*
X-271274D01*
X-296730D02*
X-285750D01*
X-296730Y-394231D02*
X-296730Y-394231D01*
X-110358Y-211996D02*
X-110353Y-212000D01*
X-125881Y-243809D02*
X-92193D01*
X-90757Y-242372D01*
Y-236429D01*
X359Y9195D02*
Y16385D01*
Y9195D02*
X11302Y-1748D01*
D48*
X-659Y-9525D02*
X39210D01*
X40910Y-7824D01*
Y-3021D01*
X42611Y-1320D01*
X-5339Y-4845D02*
X-659Y-9525D01*
X42611Y-1320D02*
X48500D01*
X-2762Y-455D02*
X1627Y-4845D01*
X6786D01*
X-9728Y-3027D02*
X-7157Y-455D01*
X-2762D01*
X-9728Y-8268D02*
Y-3027D01*
X-34043Y-9525D02*
X-10985D01*
X-35139Y-13569D02*
Y-10621D01*
X-39250Y-17680D02*
X-35139Y-13569D01*
Y-10621D02*
X-34043Y-9525D01*
X-39250Y-21180D02*
Y-17680D01*
X-10985Y-9525D02*
X-9728Y-8268D01*
D49*
X-164458Y282048D02*
Y292204D01*
X-169536Y287126D01*
X-162765D01*
D50*
X-150023Y-356980D02*
D03*
D51*
Y-382380D02*
D03*
Y-407780D02*
D03*
Y-433180D02*
D03*
X-175424Y-356980D02*
D03*
Y-382380D02*
D03*
Y-407780D02*
D03*
Y-433180D02*
D03*
X102900Y-435400D02*
D03*
Y-384600D02*
D03*
X77500D02*
D03*
Y-410000D02*
D03*
Y-435400D02*
D03*
D52*
X102900Y-410000D02*
D03*
D53*
X0Y-405000D02*
D03*
X255000Y255000D02*
D03*
X-255000D02*
D03*
D54*
X-168351Y-297339D02*
D03*
X-140411D02*
D03*
X-159461D02*
D03*
X-168351Y-261779D02*
D03*
X-140411D02*
D03*
X-159461D02*
D03*
X-168351Y-279559D02*
D03*
Y-288449D02*
D03*
Y-270669D02*
D03*
X-140411Y-279559D02*
D03*
Y-288449D02*
D03*
Y-270669D02*
D03*
X-149301Y-261779D02*
D03*
Y-297339D02*
D03*
D55*
X0Y-350750D02*
D03*
D56*
X28000Y-329250D02*
D03*
X-28000D02*
D03*
D57*
X213393Y12192D02*
D03*
X53340Y-319690D02*
D03*
Y-309372D02*
D03*
X68326Y-317754D02*
D03*
Y-309118D02*
D03*
X62716Y186436D02*
D03*
X-77216Y145214D02*
D03*
X-193137Y1016D02*
D03*
X-102108Y-35030D02*
D03*
X126645Y151612D02*
D03*
X-14224Y172841D02*
D03*
X201168Y-72849D02*
D03*
X86972Y195326D02*
D03*
X-98925Y-146494D02*
D03*
X-119968Y148312D02*
D03*
X-123474Y169277D02*
D03*
X117287Y177201D02*
D03*
X-206931Y52554D02*
D03*
X195021Y14182D02*
D03*
X-95359Y191261D02*
D03*
X-242825Y-432562D02*
D03*
X-265684D02*
D03*
X-219456D02*
D03*
Y-423418D02*
D03*
X-242825Y-422148D02*
D03*
X-265684Y-422656D02*
D03*
X-84074Y-178218D02*
D03*
X183641Y-20336D02*
D03*
X-105380Y-101346D02*
D03*
X-184137Y71882D02*
D03*
X-251154Y-264303D02*
D03*
X-252153Y-251752D02*
D03*
X-120790Y-60130D02*
D03*
X-207637Y23104D02*
D03*
X-25961Y180927D02*
D03*
X212631Y-19464D02*
D03*
X-78760Y159713D02*
D03*
X-35461Y139244D02*
D03*
X-115736Y-178218D02*
D03*
X204592Y-58849D02*
D03*
X-91471Y-429514D02*
D03*
X-82971D02*
D03*
X-74471D02*
D03*
X-83058Y-419914D02*
D03*
X-288562Y-258298D02*
D03*
X-289324Y-189808D02*
D03*
Y-160444D02*
D03*
X-171704Y-315309D02*
D03*
X-252730Y-387858D02*
D03*
X-260604Y-387731D02*
D03*
X-124206Y132479D02*
D03*
X-193802Y-315309D02*
D03*
X-243840Y-222892D02*
D03*
X-59971Y-433380D02*
D03*
X274457Y-210047D02*
D03*
X293319D02*
D03*
X-92964Y-308809D02*
D03*
X-286243Y-350012D02*
D03*
X-243586Y-214614D02*
D03*
X-32721Y-352980D02*
D03*
X-22911D02*
D03*
X-32721Y-343020D02*
D03*
X-22911D02*
D03*
X284004Y-210047D02*
D03*
X287274Y-194000D02*
D03*
X-103378Y-325492D02*
D03*
X-49832Y-313395D02*
D03*
Y-303077D02*
D03*
X-59792Y-313395D02*
D03*
Y-303077D02*
D03*
X-39872D02*
D03*
Y-313395D02*
D03*
X-29912Y-303077D02*
D03*
Y-313395D02*
D03*
X-285750Y-416560D02*
D03*
X-274570Y-341884D02*
D03*
X-231562Y-325882D02*
D03*
X-274062Y-258572D02*
D03*
X-243078Y-242392D02*
D03*
D58*
X214438Y19880D02*
D03*
X54008Y-371680D02*
D03*
X56294Y-366350D02*
D03*
X277096Y103782D02*
D03*
X109142Y275028D02*
D03*
X237922Y-175914D02*
D03*
X287718Y112915D02*
D03*
X230632Y-286004D02*
D03*
X181262Y38298D02*
D03*
X241735Y-293297D02*
D03*
X52903Y-155578D02*
D03*
X-283687Y107623D02*
D03*
X-289333Y100509D02*
D03*
X-280166Y95182D02*
D03*
X-290944Y88976D02*
D03*
X-284858Y80054D02*
D03*
X-286372Y74456D02*
D03*
X230122Y80362D02*
D03*
X-6604Y121048D02*
D03*
X-5447Y131604D02*
D03*
X-48500Y117820D02*
D03*
X1778Y112919D02*
D03*
X175260Y124995D02*
D03*
X157000Y130625D02*
D03*
X275843Y110141D02*
D03*
X70406Y-366350D02*
D03*
X88900Y-369959D02*
D03*
X-112000Y2180D02*
D03*
X-207676Y-57004D02*
D03*
X45545Y209991D02*
D03*
X39745Y210039D02*
D03*
X33945Y209991D02*
D03*
X-41973D02*
D03*
X-47773D02*
D03*
X-228088Y-271708D02*
D03*
X-201472Y-296164D02*
D03*
X-112000Y142128D02*
D03*
X-55783Y193624D02*
D03*
X-49983D02*
D03*
X263436Y-46451D02*
D03*
X-243070Y51666D02*
D03*
X-202319Y209508D02*
D03*
X-272152Y-143336D02*
D03*
X-285121Y-149136D02*
D03*
X-263135Y-199681D02*
D03*
X-265421Y-206350D02*
D03*
X-289820Y-137536D02*
D03*
X-272076D02*
D03*
X-267094Y-116136D02*
D03*
X-211720Y-39413D02*
D03*
X38025Y195910D02*
D03*
X32225D02*
D03*
X-53223Y-213465D02*
D03*
X99878Y-196021D02*
D03*
X-163492Y147209D02*
D03*
X-205042Y79736D02*
D03*
X-177984Y-129313D02*
D03*
X209232Y67984D02*
D03*
X192475Y124995D02*
D03*
X134897Y-185669D02*
D03*
X-153566Y-170552D02*
D03*
X-179609Y-142867D02*
D03*
X-190822Y127503D02*
D03*
X220986Y40957D02*
D03*
X-152600Y-13356D02*
D03*
X-146467D02*
D03*
X-118222D02*
D03*
X-87066Y-17255D02*
D03*
X-109220Y-10662D02*
D03*
X-81306Y-17938D02*
D03*
X-77750Y-13356D02*
D03*
X-1243Y99022D02*
D03*
X468Y93480D02*
D03*
X-176236Y-114696D02*
D03*
X175633Y-90006D02*
D03*
X175540Y-77212D02*
D03*
X236999Y-74725D02*
D03*
X-251777Y-241046D02*
D03*
X175313Y-2740D02*
D03*
X167728Y-10083D02*
D03*
X112000Y131070D02*
D03*
X-9028Y-154230D02*
D03*
X-17298D02*
D03*
X96413Y-150070D02*
D03*
X33500Y143927D02*
D03*
X48500Y117820D02*
D03*
X-18500Y131064D02*
D03*
X-241554Y-235130D02*
D03*
X-188208Y-183344D02*
D03*
X-180030Y-184806D02*
D03*
X-238872Y-120401D02*
D03*
X-253772Y-122405D02*
D03*
X-228328Y-148278D02*
D03*
X-216782Y-172437D02*
D03*
X-215833Y-181105D02*
D03*
X-214576Y-189841D02*
D03*
X-213007Y-198632D02*
D03*
X-110741Y-441452D02*
D03*
X-113027Y-435653D02*
D03*
X-61006Y-216312D02*
D03*
X-69012Y-218878D02*
D03*
X-77230Y-221153D02*
D03*
X171000Y53968D02*
D03*
X-61750Y-149460D02*
D03*
X-39250D02*
D03*
X-229946Y44697D02*
D03*
X181141Y163101D02*
D03*
X-105896Y-219545D02*
D03*
X-236429Y90757D02*
D03*
X-63565Y254945D02*
D03*
X221415Y-112817D02*
D03*
X-101074Y-227016D02*
D03*
X-286243Y-381231D02*
D03*
X44570Y-151770D02*
D03*
X-203877Y-374731D02*
D03*
X-215174Y8883D02*
D03*
X262548Y168070D02*
D03*
X97989Y-269222D02*
D03*
X283712Y39873D02*
D03*
X270835Y77661D02*
D03*
X276786Y10875D02*
D03*
X127456Y-173591D02*
D03*
X84234Y-143739D02*
D03*
X78504Y-142842D02*
D03*
X50115Y-150070D02*
D03*
X86166Y-138270D02*
D03*
X-24250Y-136820D02*
D03*
X-69250Y-154230D02*
D03*
X168496Y262458D02*
D03*
X-112000Y131572D02*
D03*
X-97000Y133522D02*
D03*
X-68834Y131318D02*
D03*
X196380Y88395D02*
D03*
X97000Y117820D02*
D03*
X206756Y47649D02*
D03*
X-167022Y-150387D02*
D03*
X-137689Y-189512D02*
D03*
X-172318Y-128071D02*
D03*
X-176227Y-123785D02*
D03*
X-97000Y2180D02*
D03*
X-138190Y-10668D02*
D03*
X177826Y-64489D02*
D03*
Y-52202D02*
D03*
X175540Y-46871D02*
D03*
X199209Y70366D02*
D03*
X234202Y47649D02*
D03*
X214244Y-182982D02*
D03*
X171196Y-99060D02*
D03*
X127000Y2180D02*
D03*
X142000D02*
D03*
X112000D02*
D03*
X112000Y-21180D02*
D03*
X97000D02*
D03*
X97434Y2180D02*
D03*
X63500D02*
D03*
X69250Y-21180D02*
D03*
X18500Y2180D02*
D03*
X33500D02*
D03*
X-5339Y-4845D02*
D03*
X6786D02*
D03*
X-157000Y117820D02*
D03*
X-63500Y2180D02*
D03*
X-48500D02*
D03*
X-11875Y-271991D02*
D03*
X52749Y-237974D02*
D03*
X100207Y248022D02*
D03*
X-35907Y255489D02*
D03*
X239213Y-96649D02*
D03*
X-44801Y-254080D02*
D03*
X-257843Y-9004D02*
D03*
X-241457Y-162865D02*
D03*
X19654Y281064D02*
D03*
X282599Y70460D02*
D03*
X113800Y-268097D02*
D03*
X-149305Y238938D02*
D03*
X68162Y-273381D02*
D03*
X-10165Y291073D02*
D03*
X-287534Y-143336D02*
D03*
X-90757Y-236429D02*
D03*
X157652Y198195D02*
D03*
X166279Y184671D02*
D03*
X-231820Y75323D02*
D03*
X205319Y91414D02*
D03*
X211182Y-139778D02*
D03*
X197198Y-143273D02*
D03*
X112375Y-194639D02*
D03*
X40943Y-273957D02*
D03*
X11668Y-267245D02*
D03*
X-18328Y-262110D02*
D03*
X-110358Y-211996D02*
D03*
X-242966Y-151822D02*
D03*
X-259458Y-97008D02*
D03*
X-263578Y-68166D02*
D03*
X-264562Y-39539D02*
D03*
X-262260Y-16041D02*
D03*
X-250132Y39617D02*
D03*
X-218337Y97210D02*
D03*
X-198655Y124134D02*
D03*
X-174045Y142200D02*
D03*
X-197570Y194152D02*
D03*
X-176387Y225765D02*
D03*
X-100884Y252868D02*
D03*
X-92586Y250966D02*
D03*
X-19985Y285802D02*
D03*
X46910Y272999D02*
D03*
X73900Y262029D02*
D03*
X122340Y232530D02*
D03*
X114110Y231393D02*
D03*
X193355Y140481D02*
D03*
X208252Y107257D02*
D03*
X156744Y-174082D02*
D03*
X177612Y-159922D02*
D03*
X246111Y-92017D02*
D03*
X271742Y-16621D02*
D03*
X-272152Y-149136D02*
D03*
X359Y16385D02*
D03*
X39250Y-21180D02*
D03*
X359Y58872D02*
D03*
X-39250Y-21180D02*
D03*
X-163612Y-318012D02*
D03*
Y-328568D02*
D03*
X-101201Y-434344D02*
D03*
X-69250Y-21180D02*
D03*
X65834Y-373630D02*
D03*
X-266975Y-249837D02*
D03*
X-98915Y-439674D02*
D03*
X-4500Y32224D02*
D03*
X-127000Y2180D02*
D03*
X-280549Y-215630D02*
D03*
X359Y86985D02*
D03*
X39250Y-149460D02*
D03*
X24250Y-21180D02*
D03*
X157000Y-136888D02*
D03*
X-69250Y-136820D02*
D03*
X-24250Y-21180D02*
D03*
X-9250D02*
D03*
X9250D02*
D03*
X54250D02*
D03*
X142000Y-136888D02*
D03*
X127000Y117820D02*
D03*
X-33500Y2180D02*
D03*
X-78500Y117820D02*
D03*
D59*
X74348Y-199967D02*
D03*
D60*
X0Y-164793D02*
D03*
D62*
X129794Y-361730D02*
D03*
Y-242096D02*
D03*
X284004Y-221776D02*
D03*
X129794Y-341918D02*
D03*
Y-321852D02*
D03*
Y-302040D02*
D03*
Y-281720D02*
D03*
Y-261908D02*
D03*
Y-222030D02*
D03*
X284004Y-241842D02*
D03*
Y-261654D02*
D03*
X283750Y-281720D02*
D03*
Y-301786D02*
D03*
Y-321598D02*
D03*
Y-341918D02*
D03*
Y-361730D02*
D03*
D63*
X156734Y-202202D02*
D03*
X176546D02*
D03*
X196358D02*
D03*
X216678D02*
D03*
X236490D02*
D03*
X256810D02*
D03*
D64*
X181994Y262458D02*
D03*
X97994D02*
D03*
X181994Y217458D02*
D03*
X97994D02*
D03*
D65*
X73152Y-334630D02*
D03*
Y-348630D02*
D03*
X95373Y-261908D02*
D03*
Y-247908D02*
D03*
X109620Y-261908D02*
D03*
Y-247908D02*
D03*
X-14224Y163837D02*
D03*
Y149837D02*
D03*
X117287Y167386D02*
D03*
Y153386D02*
D03*
X192358Y-58849D02*
D03*
Y-72849D02*
D03*
X187706Y-9682D02*
D03*
Y4318D02*
D03*
X276860Y-194000D02*
D03*
Y-180000D02*
D03*
X76854Y184415D02*
D03*
Y170415D02*
D03*
X-67462Y173673D02*
D03*
Y187673D02*
D03*
X213106Y26020D02*
D03*
Y40020D02*
D03*
X-122741Y-67889D02*
D03*
Y-81889D02*
D03*
D66*
X77373Y-300007D02*
D03*
X104373D02*
D03*
X95373D02*
D03*
X86373D02*
D03*
X77373Y-284007D02*
D03*
X104373D02*
D03*
X95373D02*
D03*
X86373D02*
D03*
D67*
X61065Y-298583D02*
D03*
X46564D02*
D03*
X62716Y195326D02*
D03*
X77216D02*
D03*
X-11461Y191262D02*
D03*
X-25961D02*
D03*
X-193137Y9652D02*
D03*
X-207637D02*
D03*
X-59971Y-419914D02*
D03*
X-74471D02*
D03*
X-111381Y-325492D02*
D03*
X-125881D02*
D03*
X-91471Y-419914D02*
D03*
X-105971D02*
D03*
X-274570Y-332578D02*
D03*
X-289070D02*
D03*
X-274062Y-267762D02*
D03*
X-288562D02*
D03*
X-244250Y-251752D02*
D03*
X-229750D02*
D03*
D68*
X-97000Y121320D02*
D03*
X-157000D02*
D03*
X-127000D02*
D03*
X-142000D02*
D03*
X-112000D02*
D03*
X-97000Y-1320D02*
D03*
X-157000D02*
D03*
X-142000D02*
D03*
X-127000D02*
D03*
X-112000D02*
D03*
X-33500D02*
D03*
X-48500D02*
D03*
X-63500D02*
D03*
X-78500D02*
D03*
X-18500D02*
D03*
X-33500Y121320D02*
D03*
X-63500D02*
D03*
X-48500D02*
D03*
X-78500D02*
D03*
X-18500D02*
D03*
X142000Y-1320D02*
D03*
X127000D02*
D03*
X112000D02*
D03*
X97000D02*
D03*
X157000D02*
D03*
X142000Y121320D02*
D03*
X112000D02*
D03*
X127000D02*
D03*
X97000D02*
D03*
X157000D02*
D03*
X63500Y-1320D02*
D03*
X48500D02*
D03*
X33500D02*
D03*
X18500D02*
D03*
X78500D02*
D03*
X63500Y121320D02*
D03*
X33500D02*
D03*
X48500D02*
D03*
X18500D02*
D03*
X78500D02*
D03*
X142000Y-140320D02*
D03*
X127000D02*
D03*
X112000D02*
D03*
X97000D02*
D03*
X157000D02*
D03*
X142000Y-17680D02*
D03*
X112000D02*
D03*
X127000D02*
D03*
X97000D02*
D03*
X157000D02*
D03*
X54250Y-140320D02*
D03*
X39250D02*
D03*
X24250D02*
D03*
X9250D02*
D03*
X69250D02*
D03*
X54250Y-17680D02*
D03*
X24250D02*
D03*
X39250D02*
D03*
X9250D02*
D03*
X69250D02*
D03*
X-9250D02*
D03*
X-69250D02*
D03*
X-39250D02*
D03*
X-54250D02*
D03*
X-24250D02*
D03*
X-9250Y-140320D02*
D03*
X-69250D02*
D03*
X-54250D02*
D03*
X-39250D02*
D03*
X-24250D02*
D03*
D69*
X-112380Y-35030D02*
D03*
Y-49530D02*
D03*
X-88392Y-160994D02*
D03*
Y-146494D02*
D03*
X213393Y4568D02*
D03*
Y-9932D02*
D03*
X200168D02*
D03*
Y4568D02*
D03*
X-68326Y145214D02*
D03*
Y159713D02*
D03*
X-275991Y107623D02*
D03*
Y122123D02*
D03*
X-289324Y-167746D02*
D03*
Y-182246D02*
D03*
X-285750Y-408731D02*
D03*
Y-394231D02*
D03*
X-286243Y-358095D02*
D03*
Y-372595D02*
D03*
D70*
X262548Y-162034D02*
D03*
Y-78034D02*
D03*
X217548Y-162034D02*
D03*
Y-78034D02*
D03*
Y181990D02*
D03*
Y97990D02*
D03*
X262548Y181990D02*
D03*
Y97990D02*
D03*
D71*
X88900Y-320281D02*
D03*
X102900D02*
D03*
X88900Y-334730D02*
D03*
X102900D02*
D03*
X-91410Y-178218D02*
D03*
X-105410D02*
D03*
X-105380Y-92202D02*
D03*
X-91380D02*
D03*
X-198137Y62992D02*
D03*
X-184137D02*
D03*
X-109474Y178173D02*
D03*
X-123474D02*
D03*
X102900Y-348230D02*
D03*
X88900D02*
D03*
X-108776Y-137216D02*
D03*
X-122776D02*
D03*
X-200322Y21896D02*
D03*
X-186322D02*
D03*
X-100377Y-308809D02*
D03*
X-114377D02*
D03*
X102900Y-361730D02*
D03*
X88900D02*
D03*
X205624Y-19464D02*
D03*
X191624D02*
D03*
X-33358Y180927D02*
D03*
X-47358D02*
D03*
X-229750Y-264303D02*
D03*
X-243750D02*
D03*
D72*
X-250002Y142500D02*
D03*
Y157500D02*
D03*
D73*
X81620Y-222030D02*
D03*
X109620D02*
D03*
X-15000Y-305000D02*
D03*
X13000D02*
D03*
D74*
X-75438Y-308102D02*
D03*
X228346Y0D02*
D03*
X-277368Y-432562D02*
D03*
X-254254D02*
D03*
X-231140D02*
D03*
X-208026D02*
D03*
X-84074Y-194564D02*
D03*
X180594Y-34290D02*
D03*
X138938Y153386D02*
D03*
X1564Y172841D02*
D03*
X-137668Y178173D02*
D03*
X-105380Y-115062D02*
D03*
X-184137Y84836D02*
D03*
X-196088Y-331724D02*
D03*
D75*
X0Y-240242D02*
D03*
X-91380Y-43154D02*
D03*
X-211328Y-296164D02*
D03*
D76*
X133604Y177201D02*
D03*
X219964Y-58849D02*
D03*
X-133350Y-178218D02*
D03*
X-213868Y62992D02*
D03*
X-105893Y159375D02*
D03*
X4064Y149837D02*
D03*
X192808Y45113D02*
D03*
D77*
X-188636Y31554D02*
D03*
X-207637D02*
D03*
X-198137Y52554D02*
D03*
X204592Y-50153D02*
D03*
X214092Y-29153D02*
D03*
X195092D02*
D03*
X-115736Y-168211D02*
D03*
X-106236Y-147211D02*
D03*
X-125236D02*
D03*
X-35461Y149837D02*
D03*
X-25961Y170837D02*
D03*
X-44961D02*
D03*
D78*
X-232324Y-196130D02*
D03*
Y-202630D02*
D03*
Y-209130D02*
D03*
Y-215630D02*
D03*
Y-222130D02*
D03*
Y-228630D02*
D03*
Y-235130D02*
D03*
Y-241630D02*
D03*
X-289324Y-196130D02*
D03*
Y-202630D02*
D03*
Y-209130D02*
D03*
Y-215630D02*
D03*
Y-222130D02*
D03*
Y-228630D02*
D03*
Y-235130D02*
D03*
Y-241630D02*
D03*
X-182881Y-315309D02*
D03*
Y-308809D02*
D03*
Y-302309D02*
D03*
Y-295809D02*
D03*
Y-289309D02*
D03*
Y-282809D02*
D03*
Y-276309D02*
D03*
Y-269809D02*
D03*
Y-263309D02*
D03*
Y-256809D02*
D03*
Y-250309D02*
D03*
Y-243809D02*
D03*
X-125881Y-315309D02*
D03*
Y-308809D02*
D03*
Y-302309D02*
D03*
Y-295809D02*
D03*
Y-289309D02*
D03*
Y-282809D02*
D03*
Y-276309D02*
D03*
Y-269809D02*
D03*
Y-263309D02*
D03*
Y-256809D02*
D03*
Y-250309D02*
D03*
Y-243809D02*
D03*
X-288562Y-318769D02*
D03*
Y-312269D02*
D03*
Y-305769D02*
D03*
Y-299269D02*
D03*
Y-292769D02*
D03*
Y-286269D02*
D03*
Y-279769D02*
D03*
X-231562Y-318769D02*
D03*
Y-312269D02*
D03*
Y-305769D02*
D03*
Y-299269D02*
D03*
Y-292769D02*
D03*
Y-286269D02*
D03*
Y-279769D02*
D03*
D79*
X-154381Y-279559D02*
D03*
D80*
X-215274Y-355231D02*
D03*
Y-361731D02*
D03*
Y-368231D02*
D03*
Y-374731D02*
D03*
Y-381231D02*
D03*
Y-387731D02*
D03*
Y-394231D02*
D03*
Y-400731D02*
D03*
Y-407231D02*
D03*
Y-413731D02*
D03*
X-271274Y-355231D02*
D03*
Y-361731D02*
D03*
Y-368231D02*
D03*
Y-374731D02*
D03*
Y-381231D02*
D03*
Y-387731D02*
D03*
Y-394231D02*
D03*
Y-400731D02*
D03*
Y-407231D02*
D03*
Y-413731D02*
D03*
D81*
X-59971Y-400937D02*
D03*
X-82971D02*
D03*
X-105971D02*
D03*
D82*
X-82971Y-342437D02*
D03*
D83*
X107972Y177201D02*
D03*
X86972Y186701D02*
D03*
Y167701D02*
D03*
X-99760Y178173D02*
D03*
X-78760Y168673D02*
D03*
Y187673D02*
D03*
X182609Y23682D02*
D03*
X203609Y14182D02*
D03*
Y33182D02*
D03*
X-91380Y-69630D02*
D03*
X-112380Y-60130D02*
D03*
Y-79130D02*
D03*
D84*
X0Y-331750D02*
D03*
X-13000D02*
D03*
X-6500D02*
D03*
X13000D02*
D03*
X6500D02*
D03*
D85*
X0Y-240242D02*
Y-164793D01*
Y-277000D02*
Y-240242D01*
Y-277000D02*
X13000Y-290000D01*
D86*
Y-331750D02*
Y-305000D01*
D87*
Y-290000D01*
%TF.MD5,1405e132adcade56853e0015589d6eb5*%
M02*
