%TF.GenerationSoftware,Altium Limited,Altium Designer,20.1.8 (145)*%
G04 Layer_Color=0*
%FSLAX44Y44*%
%MOMM*%
%TF.SameCoordinates,602AE14E-E67F-4A72-A58A-C630FF545DDC*%
%TF.FilePolarity,Positive*%
%TF.FileFunction,Profile,NP*%
%TF.Part,Single*%
G01*
G75*
%TA.AperFunction,Profile*%
%ADD158C,0.0254*%
G36*
X86500Y-129000D02*
Y-129497D01*
X86881Y-130416D01*
X87584Y-131119D01*
X88503Y-131500D01*
X89000D01*
D01*
X165000D01*
X165497D01*
X166416Y-131119D01*
X167119Y-130416D01*
X167500Y-129497D01*
Y-129000D01*
D01*
Y-29000D01*
Y-28503D01*
X167119Y-27584D01*
X166416Y-26881D01*
X165497Y-26500D01*
X165000D01*
D01*
X89000D01*
X88503D01*
X87584Y-26881D01*
X86881Y-27584D01*
X86500Y-28503D01*
Y-29000D01*
D01*
Y-129000D01*
D02*
G37*
G36*
X-79750Y-129000D02*
Y-29000D01*
Y-28503D01*
X-79369Y-27584D01*
X-78666Y-26881D01*
X-77747Y-26500D01*
X-77250D01*
D01*
X77250D01*
X77747D01*
X78666Y-26881D01*
X79369Y-27584D01*
X79750Y-28503D01*
Y-29000D01*
D01*
Y-129000D01*
Y-129497D01*
X79369Y-130416D01*
X78666Y-131119D01*
X77747Y-131500D01*
X77250D01*
D01*
X-77250D01*
X-77747D01*
X-78666Y-131119D01*
X-79369Y-130416D01*
X-79750Y-129497D01*
Y-129000D01*
D01*
D02*
G37*
G36*
X10500Y7500D02*
X10003D01*
X9084Y7881D01*
X8381Y8584D01*
X8000Y9503D01*
Y10000D01*
D01*
Y110000D01*
Y110497D01*
X8381Y111416D01*
X9084Y112119D01*
X10003Y112500D01*
X10500D01*
D01*
X165000D01*
X165497D01*
X166416Y112119D01*
X167119Y111416D01*
X167500Y110497D01*
Y110000D01*
D01*
Y10000D01*
Y9503D01*
X167119Y8584D01*
X166416Y7881D01*
X165497Y7500D01*
X165000D01*
D01*
X10500D01*
D02*
G37*
G36*
X-167500Y10000D02*
Y110000D01*
Y110497D01*
X-167119Y111416D01*
X-166416Y112119D01*
X-165497Y112500D01*
X-165000D01*
D01*
X-10500D01*
X-10003D01*
X-9084Y112119D01*
X-8381Y111416D01*
X-8000Y110497D01*
Y110000D01*
D01*
Y10000D01*
Y9503D01*
X-8381Y8584D01*
X-9084Y7881D01*
X-10003Y7500D01*
X-10500D01*
D01*
X-165000D01*
X-165497D01*
X-166416Y7881D01*
X-167119Y8584D01*
X-167500Y9503D01*
Y10000D01*
D01*
D02*
G37*
G36*
X10500Y7500D02*
X10003D01*
X9084Y7881D01*
X8381Y8584D01*
X8000Y9503D01*
Y10000D01*
D01*
Y110000D01*
Y110497D01*
X8381Y111416D01*
X9084Y112119D01*
X10003Y112500D01*
X10500D01*
D01*
X165000D01*
X165497D01*
X166416Y112119D01*
X167119Y111416D01*
X167500Y110497D01*
Y110000D01*
D01*
Y10000D01*
Y9503D01*
X167119Y8584D01*
X166416Y7881D01*
X165497Y7500D01*
X165000D01*
D01*
X10500D01*
D02*
G37*
G36*
X-167500Y10000D02*
Y110000D01*
Y110497D01*
X-167119Y111416D01*
X-166416Y112119D01*
X-165497Y112500D01*
X-165000D01*
D01*
X-10500D01*
X-10003D01*
X-9084Y112119D01*
X-8381Y111416D01*
X-8000Y110497D01*
Y110000D01*
D01*
Y10000D01*
Y9503D01*
X-8381Y8584D01*
X-9084Y7881D01*
X-10003Y7500D01*
X-10500D01*
D01*
X-165000D01*
X-165497D01*
X-166416Y7881D01*
X-167119Y8584D01*
X-167500Y9503D01*
Y10000D01*
D01*
D02*
G37*
G36*
X10500Y7500D02*
X10003D01*
X9084Y7881D01*
X8381Y8584D01*
X8000Y9503D01*
Y10000D01*
D01*
Y110000D01*
Y110497D01*
X8381Y111416D01*
X9084Y112119D01*
X10003Y112500D01*
X10500D01*
D01*
X165000D01*
X165497D01*
X166416Y112119D01*
X167119Y111416D01*
X167500Y110497D01*
Y110000D01*
D01*
Y10000D01*
Y9503D01*
X167119Y8584D01*
X166416Y7881D01*
X165497Y7500D01*
X165000D01*
D01*
X10500D01*
D02*
G37*
G36*
X-167500Y10000D02*
Y110000D01*
Y110497D01*
X-167119Y111416D01*
X-166416Y112119D01*
X-165497Y112500D01*
X-165000D01*
D01*
X-10500D01*
X-10003D01*
X-9084Y112119D01*
X-8381Y111416D01*
X-8000Y110497D01*
Y110000D01*
D01*
Y10000D01*
Y9503D01*
X-8381Y8584D01*
X-9084Y7881D01*
X-10003Y7500D01*
X-10500D01*
D01*
X-165000D01*
X-165497D01*
X-166416Y7881D01*
X-167119Y8584D01*
X-167500Y9503D01*
Y10000D01*
D01*
D02*
G37*
D158*
X-300000Y-430000D02*
G03*
X-280000Y-450000I20000J0D01*
G01*
X280000D01*
D02*
G03*
X300000Y-430000I0J20000D01*
G01*
Y255000D01*
D02*
G03*
X255000Y300000I-45000J0D01*
G01*
X-255000D01*
D02*
G03*
X-300000Y255000I0J-45000D01*
G01*
Y-430000D01*
%TF.MD5,ee8f2a79197826ff03af9679ab92f042*%
M02*
