%TF.GenerationSoftware,Altium Limited,Altium Designer,20.1.8 (145)*%
G04 Layer_Physical_Order=1*
G04 Layer_Color=2232046*
%FSLAX45Y45*%
%MOMM*%
%TF.SameCoordinates,AAA92F62-078A-4BA5-AC62-85BA00B65713*%
%TF.FilePolarity,Positive*%
%TF.FileFunction,Copper,L1,Top,Signal*%
%TF.Part,Single*%
G01*
G75*
%TA.AperFunction,SMDPad,CuDef*%
G04:AMPARAMS|DCode=10|XSize=0.9mm|YSize=0.65mm|CornerRadius=0.00325mm|HoleSize=0mm|Usage=FLASHONLY|Rotation=90.000|XOffset=0mm|YOffset=0mm|HoleType=Round|Shape=RoundedRectangle|*
%AMROUNDEDRECTD10*
21,1,0.90000,0.64350,0,0,90.0*
21,1,0.89350,0.65000,0,0,90.0*
1,1,0.00650,0.32175,0.44675*
1,1,0.00650,0.32175,-0.44675*
1,1,0.00650,-0.32175,-0.44675*
1,1,0.00650,-0.32175,0.44675*
%
%ADD10ROUNDEDRECTD10*%
G04:AMPARAMS|DCode=11|XSize=0.9mm|YSize=0.65mm|CornerRadius=0.00325mm|HoleSize=0mm|Usage=FLASHONLY|Rotation=0.000|XOffset=0mm|YOffset=0mm|HoleType=Round|Shape=RoundedRectangle|*
%AMROUNDEDRECTD11*
21,1,0.90000,0.64350,0,0,0.0*
21,1,0.89350,0.65000,0,0,0.0*
1,1,0.00650,0.44675,-0.32175*
1,1,0.00650,-0.44675,-0.32175*
1,1,0.00650,-0.44675,0.32175*
1,1,0.00650,0.44675,0.32175*
%
%ADD11ROUNDEDRECTD11*%
G04:AMPARAMS|DCode=12|XSize=1.275mm|YSize=0.9mm|CornerRadius=0.0045mm|HoleSize=0mm|Usage=FLASHONLY|Rotation=90.000|XOffset=0mm|YOffset=0mm|HoleType=Round|Shape=RoundedRectangle|*
%AMROUNDEDRECTD12*
21,1,1.27500,0.89100,0,0,90.0*
21,1,1.26600,0.90000,0,0,90.0*
1,1,0.00900,0.44550,0.63300*
1,1,0.00900,0.44550,-0.63300*
1,1,0.00900,-0.44550,-0.63300*
1,1,0.00900,-0.44550,0.63300*
%
%ADD12ROUNDEDRECTD12*%
G04:AMPARAMS|DCode=13|XSize=1.275mm|YSize=0.9mm|CornerRadius=0.0045mm|HoleSize=0mm|Usage=FLASHONLY|Rotation=0.000|XOffset=0mm|YOffset=0mm|HoleType=Round|Shape=RoundedRectangle|*
%AMROUNDEDRECTD13*
21,1,1.27500,0.89100,0,0,0.0*
21,1,1.26600,0.90000,0,0,0.0*
1,1,0.00900,0.63300,-0.44550*
1,1,0.00900,-0.63300,-0.44550*
1,1,0.00900,-0.63300,0.44550*
1,1,0.00900,0.63300,0.44550*
%
%ADD13ROUNDEDRECTD13*%
G04:AMPARAMS|DCode=14|XSize=0.5mm|YSize=0.5mm|CornerRadius=0.0025mm|HoleSize=0mm|Usage=FLASHONLY|Rotation=90.000|XOffset=0mm|YOffset=0mm|HoleType=Round|Shape=RoundedRectangle|*
%AMROUNDEDRECTD14*
21,1,0.50000,0.49500,0,0,90.0*
21,1,0.49500,0.50000,0,0,90.0*
1,1,0.00500,0.24750,0.24750*
1,1,0.00500,0.24750,-0.24750*
1,1,0.00500,-0.24750,-0.24750*
1,1,0.00500,-0.24750,0.24750*
%
%ADD14ROUNDEDRECTD14*%
G04:AMPARAMS|DCode=15|XSize=0.5mm|YSize=0.5mm|CornerRadius=0.0025mm|HoleSize=0mm|Usage=FLASHONLY|Rotation=180.000|XOffset=0mm|YOffset=0mm|HoleType=Round|Shape=RoundedRectangle|*
%AMROUNDEDRECTD15*
21,1,0.50000,0.49500,0,0,180.0*
21,1,0.49500,0.50000,0,0,180.0*
1,1,0.00500,-0.24750,0.24750*
1,1,0.00500,0.24750,0.24750*
1,1,0.00500,0.24750,-0.24750*
1,1,0.00500,-0.24750,-0.24750*
%
%ADD15ROUNDEDRECTD15*%
G04:AMPARAMS|DCode=16|XSize=0.35mm|YSize=0.6mm|CornerRadius=0.00175mm|HoleSize=0mm|Usage=FLASHONLY|Rotation=90.000|XOffset=0mm|YOffset=0mm|HoleType=Round|Shape=RoundedRectangle|*
%AMROUNDEDRECTD16*
21,1,0.35000,0.59650,0,0,90.0*
21,1,0.34650,0.60000,0,0,90.0*
1,1,0.00350,0.29825,0.17325*
1,1,0.00350,0.29825,-0.17325*
1,1,0.00350,-0.29825,-0.17325*
1,1,0.00350,-0.29825,0.17325*
%
%ADD16ROUNDEDRECTD16*%
%ADD17O,0.40000X1.15000*%
G04:AMPARAMS|DCode=18|XSize=1mm|YSize=1.5mm|CornerRadius=0.005mm|HoleSize=0mm|Usage=FLASHONLY|Rotation=90.000|XOffset=0mm|YOffset=0mm|HoleType=Round|Shape=RoundedRectangle|*
%AMROUNDEDRECTD18*
21,1,1.00000,1.49000,0,0,90.0*
21,1,0.99000,1.50000,0,0,90.0*
1,1,0.01000,0.74500,0.49500*
1,1,0.01000,0.74500,-0.49500*
1,1,0.01000,-0.74500,-0.49500*
1,1,0.01000,-0.74500,0.49500*
%
%ADD18ROUNDEDRECTD18*%
G04:AMPARAMS|DCode=19|XSize=0.8mm|YSize=0.5mm|CornerRadius=0.0025mm|HoleSize=0mm|Usage=FLASHONLY|Rotation=270.000|XOffset=0mm|YOffset=0mm|HoleType=Round|Shape=RoundedRectangle|*
%AMROUNDEDRECTD19*
21,1,0.80000,0.49500,0,0,270.0*
21,1,0.79500,0.50000,0,0,270.0*
1,1,0.00500,-0.24750,-0.39750*
1,1,0.00500,-0.24750,0.39750*
1,1,0.00500,0.24750,0.39750*
1,1,0.00500,0.24750,-0.39750*
%
%ADD19ROUNDEDRECTD19*%
G04:AMPARAMS|DCode=20|XSize=0.59mm|YSize=1.15mm|CornerRadius=0.177mm|HoleSize=0mm|Usage=FLASHONLY|Rotation=0.000|XOffset=0mm|YOffset=0mm|HoleType=Round|Shape=RoundedRectangle|*
%AMROUNDEDRECTD20*
21,1,0.59000,0.79600,0,0,0.0*
21,1,0.23600,1.15000,0,0,0.0*
1,1,0.35400,0.11800,-0.39800*
1,1,0.35400,-0.11800,-0.39800*
1,1,0.35400,-0.11800,0.39800*
1,1,0.35400,0.11800,0.39800*
%
%ADD20ROUNDEDRECTD20*%
G04:AMPARAMS|DCode=21|XSize=0.59mm|YSize=1.15mm|CornerRadius=0.118mm|HoleSize=0mm|Usage=FLASHONLY|Rotation=0.000|XOffset=0mm|YOffset=0mm|HoleType=Round|Shape=RoundedRectangle|*
%AMROUNDEDRECTD21*
21,1,0.59000,0.91400,0,0,0.0*
21,1,0.35400,1.15000,0,0,0.0*
1,1,0.23600,0.17700,-0.45700*
1,1,0.23600,-0.17700,-0.45700*
1,1,0.23600,-0.17700,0.45700*
1,1,0.23600,0.17700,0.45700*
%
%ADD21ROUNDEDRECTD21*%
G04:AMPARAMS|DCode=22|XSize=0.3mm|YSize=1.15mm|CornerRadius=0.0015mm|HoleSize=0mm|Usage=FLASHONLY|Rotation=0.000|XOffset=0mm|YOffset=0mm|HoleType=Round|Shape=RoundedRectangle|*
%AMROUNDEDRECTD22*
21,1,0.30000,1.14700,0,0,0.0*
21,1,0.29700,1.15000,0,0,0.0*
1,1,0.00300,0.14850,-0.57350*
1,1,0.00300,-0.14850,-0.57350*
1,1,0.00300,-0.14850,0.57350*
1,1,0.00300,0.14850,0.57350*
%
%ADD22ROUNDEDRECTD22*%
G04:AMPARAMS|DCode=23|XSize=0.85mm|YSize=1.4mm|CornerRadius=0.00425mm|HoleSize=0mm|Usage=FLASHONLY|Rotation=180.000|XOffset=0mm|YOffset=0mm|HoleType=Round|Shape=RoundedRectangle|*
%AMROUNDEDRECTD23*
21,1,0.85000,1.39150,0,0,180.0*
21,1,0.84150,1.40000,0,0,180.0*
1,1,0.00850,-0.42075,0.69575*
1,1,0.00850,0.42075,0.69575*
1,1,0.00850,0.42075,-0.69575*
1,1,0.00850,-0.42075,-0.69575*
%
%ADD23ROUNDEDRECTD23*%
G04:AMPARAMS|DCode=24|XSize=0.35mm|YSize=0.7mm|CornerRadius=0.00175mm|HoleSize=0mm|Usage=FLASHONLY|Rotation=90.000|XOffset=0mm|YOffset=0mm|HoleType=Round|Shape=RoundedRectangle|*
%AMROUNDEDRECTD24*
21,1,0.35000,0.69650,0,0,90.0*
21,1,0.34650,0.70000,0,0,90.0*
1,1,0.00350,0.34825,0.17325*
1,1,0.00350,0.34825,-0.17325*
1,1,0.00350,-0.34825,-0.17325*
1,1,0.00350,-0.34825,0.17325*
%
%ADD24ROUNDEDRECTD24*%
G04:AMPARAMS|DCode=25|XSize=0.55mm|YSize=0.9mm|CornerRadius=0.00275mm|HoleSize=0mm|Usage=FLASHONLY|Rotation=270.000|XOffset=0mm|YOffset=0mm|HoleType=Round|Shape=RoundedRectangle|*
%AMROUNDEDRECTD25*
21,1,0.55000,0.89450,0,0,270.0*
21,1,0.54450,0.90000,0,0,270.0*
1,1,0.00550,-0.44725,-0.27225*
1,1,0.00550,-0.44725,0.27225*
1,1,0.00550,0.44725,0.27225*
1,1,0.00550,0.44725,-0.27225*
%
%ADD25ROUNDEDRECTD25*%
G04:AMPARAMS|DCode=26|XSize=0.55mm|YSize=0.9mm|CornerRadius=0.00275mm|HoleSize=0mm|Usage=FLASHONLY|Rotation=180.000|XOffset=0mm|YOffset=0mm|HoleType=Round|Shape=RoundedRectangle|*
%AMROUNDEDRECTD26*
21,1,0.55000,0.89450,0,0,180.0*
21,1,0.54450,0.90000,0,0,180.0*
1,1,0.00550,-0.27225,0.44725*
1,1,0.00550,0.27225,0.44725*
1,1,0.00550,0.27225,-0.44725*
1,1,0.00550,-0.27225,-0.44725*
%
%ADD26ROUNDEDRECTD26*%
G04:AMPARAMS|DCode=27|XSize=0.6mm|YSize=1mm|CornerRadius=0.003mm|HoleSize=0mm|Usage=FLASHONLY|Rotation=270.000|XOffset=0mm|YOffset=0mm|HoleType=Round|Shape=RoundedRectangle|*
%AMROUNDEDRECTD27*
21,1,0.60000,0.99400,0,0,270.0*
21,1,0.59400,1.00000,0,0,270.0*
1,1,0.00600,-0.49700,-0.29700*
1,1,0.00600,-0.49700,0.29700*
1,1,0.00600,0.49700,0.29700*
1,1,0.00600,0.49700,-0.29700*
%
%ADD27ROUNDEDRECTD27*%
G04:AMPARAMS|DCode=28|XSize=2mm|YSize=1mm|CornerRadius=0.005mm|HoleSize=0mm|Usage=FLASHONLY|Rotation=0.000|XOffset=0mm|YOffset=0mm|HoleType=Round|Shape=RoundedRectangle|*
%AMROUNDEDRECTD28*
21,1,2.00000,0.99000,0,0,0.0*
21,1,1.99000,1.00000,0,0,0.0*
1,1,0.01000,0.99500,-0.49500*
1,1,0.01000,-0.99500,-0.49500*
1,1,0.01000,-0.99500,0.49500*
1,1,0.01000,0.99500,0.49500*
%
%ADD28ROUNDEDRECTD28*%
G04:AMPARAMS|DCode=29|XSize=2mm|YSize=1mm|CornerRadius=0.005mm|HoleSize=0mm|Usage=FLASHONLY|Rotation=90.000|XOffset=0mm|YOffset=0mm|HoleType=Round|Shape=RoundedRectangle|*
%AMROUNDEDRECTD29*
21,1,2.00000,0.99000,0,0,90.0*
21,1,1.99000,1.00000,0,0,90.0*
1,1,0.01000,0.49500,0.99500*
1,1,0.01000,0.49500,-0.99500*
1,1,0.01000,-0.49500,-0.99500*
1,1,0.01000,-0.49500,0.99500*
%
%ADD29ROUNDEDRECTD29*%
%ADD30C,1.00000*%
%TA.AperFunction,Conductor*%
%ADD31C,0.12700*%
%ADD32C,0.25400*%
%ADD33C,0.15240*%
%TA.AperFunction,ComponentPad*%
%ADD34O,1.00000X1.80000*%
%ADD35O,1.00000X2.10000*%
%ADD36C,0.65000*%
%ADD37O,0.86000X1.00000*%
%ADD38C,1.10000*%
%ADD39C,1.25000*%
%ADD40C,2.46000*%
%TA.AperFunction,ViaPad*%
%ADD41C,0.60000*%
G36*
X3159609Y440919D02*
X3141829Y431416D01*
X3123587Y443605D01*
X3122687Y444049D01*
X3121815Y444552D01*
X3089967Y457744D01*
X3088996Y458004D01*
X3088045Y458327D01*
X3054235Y465052D01*
X3053233Y465117D01*
X3052236Y465249D01*
X3035000D01*
X3034996Y465248D01*
X3017764Y465248D01*
X3016768Y465117D01*
X3015765Y465052D01*
X2981955Y458326D01*
X2981003Y458003D01*
X2980033Y457743D01*
X2948185Y444552D01*
X2947313Y444048D01*
X2946413Y443604D01*
X2917751Y424453D01*
X2916995Y423791D01*
X2916197Y423178D01*
X2891822Y398803D01*
X2891210Y398006D01*
X2890548Y397250D01*
X2871396Y368588D01*
X2870952Y367688D01*
X2870449Y366816D01*
X2857257Y334968D01*
X2856997Y333997D01*
X2856674Y333046D01*
X2849949Y299236D01*
X2849883Y298233D01*
X2849752Y297237D01*
X2849752Y280001D01*
X2849752Y262764D01*
X2849883Y261768D01*
X2849949Y260765D01*
X2856674Y226956D01*
X2856997Y226003D01*
X2857257Y225033D01*
X2870448Y193185D01*
X2870951Y192315D01*
X2871395Y191414D01*
X2890547Y162752D01*
X2891209Y161997D01*
X2891821Y161199D01*
X2916196Y136823D01*
X2916993Y136212D01*
X2917749Y135549D01*
X2946411Y116397D01*
X2947311Y115954D01*
X2948183Y115450D01*
X2980031Y102259D01*
X2981002Y101999D01*
X2981953Y101675D01*
X3015763Y94951D01*
X3016766Y94885D01*
X3017762Y94754D01*
X3034997Y94754D01*
X3052234Y94753D01*
X3053230Y94884D01*
X3054233Y94950D01*
X3088043Y101675D01*
X3088994Y101998D01*
X3089966Y102258D01*
X3121814Y115450D01*
X3122684Y115952D01*
X3123586Y116397D01*
X3141829Y128586D01*
X3159609Y119082D01*
Y20391D01*
X20391D01*
Y2144050D01*
X1680000Y2144050D01*
X1680497Y2144149D01*
X1680999Y2144074D01*
X1688350Y2144435D01*
X1689818Y2144802D01*
X1691329D01*
X1705749Y2147671D01*
X1707605Y2148439D01*
X1709574Y2148831D01*
X1723157Y2154457D01*
X1724828Y2155573D01*
X1726683Y2156342D01*
X1738908Y2164510D01*
X1740327Y2165930D01*
X1741998Y2167046D01*
X1752393Y2177442D01*
X1753509Y2179111D01*
X1754929Y2180532D01*
X1763098Y2192757D01*
X1763867Y2194612D01*
X1764982Y2196282D01*
X1770609Y2209865D01*
X1771001Y2211835D01*
X1771769Y2213691D01*
X1774638Y2228111D01*
Y2229623D01*
X1775005Y2231089D01*
X1775366Y2238440D01*
X1775291Y2238942D01*
X1775390Y2239440D01*
Y2579609D01*
X3159609D01*
Y440919D01*
D02*
G37*
G36*
X3086046Y448276D02*
X3117894Y435084D01*
X3146556Y415933D01*
X3159609Y402879D01*
Y157122D01*
X3146556Y144069D01*
X3117893Y124917D01*
X3086044Y111726D01*
X3052234Y105001D01*
X3034998Y105002D01*
X3034997D01*
X3017762Y105001D01*
X2983952Y111726D01*
X2952105Y124918D01*
X2923442Y144069D01*
X2899067Y168445D01*
X2879916Y197107D01*
X2866725Y228955D01*
X2860000Y262764D01*
X2860000Y280000D01*
Y280001D01*
X2860000Y297237D01*
X2866725Y331047D01*
X2879917Y362895D01*
X2899068Y391557D01*
X2923444Y415932D01*
X2952106Y435084D01*
X2983954Y448276D01*
X3017764Y455001D01*
X3035000Y455001D01*
X3035000Y455001D01*
X3052236D01*
X3086046Y448276D01*
D02*
G37*
%LPC*%
G36*
X2685656Y2459419D02*
X1967839D01*
X1964602Y2459100D01*
X1961490Y2458156D01*
X1958622Y2456623D01*
X1956108Y2454560D01*
X1886081Y2384534D01*
X1884018Y2382020D01*
X1882485Y2379152D01*
X1881541Y2376039D01*
X1881222Y2372803D01*
Y2255845D01*
X1839266Y2213889D01*
X1835536Y2215155D01*
X1830372Y2216182D01*
X1825119Y2216526D01*
X1819866Y2216182D01*
X1814702Y2215155D01*
X1809717Y2213463D01*
X1804996Y2211134D01*
X1800619Y2208209D01*
X1796661Y2204738D01*
X1793190Y2200780D01*
X1790265Y2196403D01*
X1787936Y2191682D01*
X1786244Y2186697D01*
X1785217Y2181533D01*
X1784873Y2176280D01*
X1785217Y2171027D01*
X1786244Y2165864D01*
X1787936Y2160879D01*
X1790265Y2156157D01*
X1793190Y2151780D01*
X1796661Y2147822D01*
X1800619Y2144351D01*
X1804996Y2141426D01*
X1809717Y2139098D01*
X1814702Y2137405D01*
X1819866Y2136379D01*
X1825119Y2136034D01*
X1830372Y2136379D01*
X1835536Y2137405D01*
X1840521Y2139098D01*
X1845242Y2141426D01*
X1849619Y2144351D01*
X1853577Y2147822D01*
X1857048Y2151780D01*
X1859973Y2156157D01*
X1862302Y2160879D01*
X1863994Y2165864D01*
X1865021Y2171027D01*
X1865365Y2176280D01*
X1865021Y2181533D01*
X1863994Y2186697D01*
X1862728Y2190427D01*
X1909542Y2237241D01*
X1909543Y2237242D01*
X1911606Y2239756D01*
X1913139Y2242625D01*
X1914084Y2245737D01*
X1914402Y2248973D01*
Y2365931D01*
X1974711Y2426239D01*
X2678784D01*
X2716604Y2388419D01*
X2716605Y2388417D01*
X2719119Y2386354D01*
X2721988Y2384821D01*
X2725100Y2383877D01*
X2728336Y2383558D01*
X2775636D01*
Y2356748D01*
X2775994Y2354031D01*
X2777042Y2351498D01*
X2778711Y2349324D01*
X2780886Y2347655D01*
X2783418Y2346606D01*
X2786136Y2346249D01*
X2835636D01*
X2838353Y2346606D01*
X2840886Y2347655D01*
X2843060Y2349324D01*
X2844729Y2351498D01*
X2845778Y2354031D01*
X2846136Y2356748D01*
Y2406248D01*
X2845778Y2408966D01*
X2844729Y2411498D01*
X2843060Y2413673D01*
X2840886Y2415342D01*
X2838353Y2416390D01*
X2835636Y2416748D01*
X2786136D01*
X2786060Y2416738D01*
X2735208D01*
X2697387Y2454560D01*
X2694872Y2456623D01*
X2692004Y2458156D01*
X2688892Y2459100D01*
X2685656Y2459419D01*
D02*
G37*
G36*
X2935396Y2416748D02*
X2885896D01*
X2883178Y2416390D01*
X2880646Y2415342D01*
X2878471Y2413673D01*
X2876802Y2411498D01*
X2875754Y2408966D01*
X2875396Y2406248D01*
Y2356748D01*
X2875754Y2354031D01*
X2876802Y2351498D01*
X2878471Y2349324D01*
X2880646Y2347655D01*
X2883178Y2346606D01*
X2885896Y2346249D01*
X2935396D01*
X2938113Y2346606D01*
X2940646Y2347655D01*
X2942820Y2349324D01*
X2944489Y2351498D01*
X2945538Y2354031D01*
X2945875Y2356592D01*
X2986625D01*
Y2336749D01*
X2986983Y2334032D01*
X2988032Y2331500D01*
X2989701Y2329325D01*
X2991875Y2327656D01*
X2994408Y2326607D01*
X2997125Y2326250D01*
X3046625D01*
X3049343Y2326607D01*
X3051875Y2327656D01*
X3054050Y2329325D01*
X3055719Y2331500D01*
X3056767Y2334032D01*
X3057125Y2336749D01*
Y2386249D01*
X3056767Y2388967D01*
X3055719Y2391499D01*
X3054050Y2393674D01*
X3051875Y2395343D01*
X3049343Y2396391D01*
X3046625Y2396749D01*
X2997125D01*
X2994408Y2396391D01*
X2991875Y2395343D01*
X2989701Y2393674D01*
X2988032Y2391499D01*
X2987317Y2389772D01*
X2945896D01*
Y2406248D01*
X2945538Y2408966D01*
X2944489Y2411498D01*
X2942820Y2413673D01*
X2940646Y2415342D01*
X2938113Y2416390D01*
X2935396Y2416748D01*
D02*
G37*
G36*
X2637720Y2196520D02*
X2619320D01*
Y2167620D01*
X2648220D01*
Y2186020D01*
X2647862Y2188738D01*
X2646813Y2191270D01*
X2645144Y2193445D01*
X2642970Y2195113D01*
X2640437Y2196162D01*
X2637720Y2196520D01*
D02*
G37*
G36*
X2606620D02*
X2588220D01*
X2585502Y2196162D01*
X2582970Y2195113D01*
X2580795Y2193445D01*
X2579127Y2191270D01*
X2578078Y2188738D01*
X2577720Y2186020D01*
Y2167620D01*
X2606620D01*
Y2196520D01*
D02*
G37*
G36*
X1993978Y2404464D02*
X1990742Y2404145D01*
X1987630Y2403200D01*
X1984761Y2401667D01*
X1982247Y2399604D01*
X1982246Y2399603D01*
X1938882Y2356239D01*
X1936819Y2353725D01*
X1935286Y2350857D01*
X1934342Y2347744D01*
X1934023Y2344508D01*
Y2202501D01*
X1847347Y2115826D01*
X1657091D01*
X1653854Y2115507D01*
X1650742Y2114563D01*
X1647874Y2113030D01*
X1645360Y2110967D01*
X1645359Y2110965D01*
X1498714Y1964321D01*
X1409452D01*
Y2022360D01*
X1409086Y2025143D01*
X1408012Y2027736D01*
X1406303Y2029963D01*
X1404076Y2031671D01*
X1401483Y2032745D01*
X1398701Y2033112D01*
X1199700D01*
X1196917Y2032745D01*
X1194324Y2031671D01*
X1192097Y2029963D01*
X1190389Y2027736D01*
X1189315Y2025143D01*
X1188948Y2022360D01*
Y1923360D01*
X1189315Y1920577D01*
X1190389Y1917984D01*
X1192097Y1915757D01*
X1194324Y1914048D01*
X1196917Y1912974D01*
X1199700Y1912608D01*
X1398701D01*
X1401483Y1912974D01*
X1404076Y1914048D01*
X1406303Y1915757D01*
X1408012Y1917984D01*
X1409086Y1920577D01*
X1409452Y1923360D01*
Y1931141D01*
X1505586D01*
X1508822Y1931460D01*
X1511935Y1932404D01*
X1514803Y1933937D01*
X1517317Y1936000D01*
X1663963Y2082646D01*
X1854219D01*
X1857456Y2082965D01*
X1860568Y2083909D01*
X1863436Y2085442D01*
X1865950Y2087505D01*
X1962344Y2183898D01*
X1964407Y2186412D01*
X1965940Y2189281D01*
X1966884Y2192393D01*
X1967203Y2195629D01*
X1967203Y2195632D01*
Y2337636D01*
X2000850Y2371283D01*
X2313467D01*
X2500119Y2184632D01*
Y2104862D01*
X2363266D01*
X2361549Y2108343D01*
X2358624Y2112720D01*
X2355153Y2116678D01*
X2351195Y2120149D01*
X2346818Y2123074D01*
X2342097Y2125402D01*
X2337112Y2127095D01*
X2331948Y2128121D01*
X2326695Y2128466D01*
X2321442Y2128121D01*
X2316279Y2127095D01*
X2311294Y2125402D01*
X2306572Y2123074D01*
X2302195Y2120149D01*
X2298237Y2116678D01*
X2294766Y2112720D01*
X2291841Y2108343D01*
X2289513Y2103621D01*
X2287820Y2098636D01*
X2286793Y2093473D01*
X2286449Y2088220D01*
X2286793Y2082967D01*
X2287820Y2077803D01*
X2289513Y2072818D01*
X2291841Y2068097D01*
X2294766Y2063720D01*
X2298237Y2059762D01*
X2302195Y2056291D01*
X2306572Y2053366D01*
X2311294Y2051037D01*
X2316279Y2049345D01*
X2321442Y2048318D01*
X2326695Y2047974D01*
X2331948Y2048318D01*
X2337112Y2049345D01*
X2342097Y2051037D01*
X2346818Y2053366D01*
X2351195Y2056291D01*
X2355153Y2059762D01*
X2358624Y2063720D01*
X2361549Y2068097D01*
X2363317Y2071682D01*
X2659311D01*
X2662548Y2072000D01*
X2665660Y2072945D01*
X2668528Y2074478D01*
X2671042Y2076541D01*
X2699049Y2104548D01*
X2699051Y2104549D01*
X2701114Y2107063D01*
X2702647Y2109932D01*
X2703591Y2113044D01*
X2703910Y2116280D01*
Y2126020D01*
X2730720D01*
X2733438Y2126378D01*
X2735970Y2127427D01*
X2738145Y2129096D01*
X2739813Y2131270D01*
X2740862Y2133803D01*
X2741220Y2136520D01*
Y2144680D01*
X2767570D01*
Y2136520D01*
X2767928Y2133803D01*
X2768977Y2131270D01*
X2770645Y2129096D01*
X2772820Y2127427D01*
X2775352Y2126378D01*
X2778070Y2126020D01*
X2827570D01*
X2830287Y2126378D01*
X2832820Y2127427D01*
X2834994Y2129096D01*
X2836663Y2131270D01*
X2837712Y2133803D01*
X2838070Y2136520D01*
Y2186020D01*
X2837712Y2188738D01*
X2836663Y2191270D01*
X2834994Y2193445D01*
X2832820Y2195113D01*
X2830287Y2196162D01*
X2827570Y2196520D01*
X2778070D01*
X2775352Y2196162D01*
X2772820Y2195113D01*
X2770645Y2193445D01*
X2768977Y2191270D01*
X2767928Y2188738D01*
X2767570Y2186020D01*
Y2177860D01*
X2741220D01*
Y2186020D01*
X2740862Y2188738D01*
X2739813Y2191270D01*
X2738145Y2193445D01*
X2735970Y2195113D01*
X2733438Y2196162D01*
X2730720Y2196520D01*
X2681220D01*
X2678503Y2196162D01*
X2675970Y2195113D01*
X2673796Y2193445D01*
X2672127Y2191270D01*
X2671078Y2188738D01*
X2670720Y2186020D01*
Y2136520D01*
X2670730Y2136447D01*
Y2123152D01*
X2652439Y2104862D01*
X2533299D01*
Y2191501D01*
X2533299Y2191503D01*
X2532980Y2194740D01*
X2532036Y2197852D01*
X2530503Y2200720D01*
X2528440Y2203234D01*
X2528438Y2203236D01*
X2332070Y2399604D01*
X2329556Y2401667D01*
X2326687Y2403200D01*
X2323575Y2404145D01*
X2320339Y2404463D01*
X1993981D01*
X1993978Y2404464D01*
D02*
G37*
G36*
X2648220Y2154920D02*
X2619320D01*
Y2126020D01*
X2637720D01*
X2640437Y2126378D01*
X2642970Y2127427D01*
X2645144Y2129096D01*
X2646813Y2131270D01*
X2647862Y2133803D01*
X2648220Y2136520D01*
Y2154920D01*
D02*
G37*
G36*
X2606620D02*
X2577720D01*
Y2136520D01*
X2578078Y2133803D01*
X2579127Y2131270D01*
X2580795Y2129096D01*
X2582970Y2127427D01*
X2585502Y2126378D01*
X2588220Y2126020D01*
X2606620D01*
Y2154920D01*
D02*
G37*
G36*
X1171661Y2096496D02*
X1168425Y2096177D01*
X1165312Y2095233D01*
X1162444Y2093700D01*
X1159930Y2091637D01*
X1159929Y2091635D01*
X1132276Y2063983D01*
X1130213Y2061469D01*
X1128680Y2058601D01*
X1127736Y2055489D01*
X1127417Y2052252D01*
Y1894332D01*
X1127736Y1891096D01*
X1128680Y1887984D01*
X1130213Y1885115D01*
X1132276Y1882601D01*
X1160097Y1854781D01*
X1160099Y1854779D01*
X1162612Y1852716D01*
X1165481Y1851183D01*
X1168593Y1850239D01*
X1171830Y1849920D01*
X1188948D01*
Y1773360D01*
X1189315Y1770577D01*
X1190389Y1767984D01*
X1192097Y1765757D01*
X1194324Y1764049D01*
X1196917Y1762974D01*
X1199700Y1762608D01*
X1398701D01*
X1401483Y1762974D01*
X1404076Y1764049D01*
X1406303Y1765757D01*
X1408012Y1767984D01*
X1409086Y1770577D01*
X1409452Y1773360D01*
Y1872360D01*
X1409086Y1875143D01*
X1408012Y1877736D01*
X1406303Y1879963D01*
X1404076Y1881671D01*
X1401483Y1882746D01*
X1398701Y1883112D01*
X1199700D01*
X1199612Y1883100D01*
X1178701D01*
X1160597Y1901204D01*
Y2045380D01*
X1178533Y2063316D01*
X1406902D01*
X1431920Y2038298D01*
X1430654Y2034568D01*
X1429627Y2029405D01*
X1429282Y2024151D01*
X1429627Y2018898D01*
X1430654Y2013735D01*
X1432346Y2008750D01*
X1434674Y2004029D01*
X1437599Y1999651D01*
X1441070Y1995693D01*
X1445028Y1992222D01*
X1449405Y1989297D01*
X1454127Y1986969D01*
X1459112Y1985277D01*
X1464275Y1984250D01*
X1469528Y1983905D01*
X1474782Y1984250D01*
X1479945Y1985277D01*
X1484930Y1986969D01*
X1489652Y1989297D01*
X1494029Y1992222D01*
X1497987Y1995693D01*
X1501458Y1999651D01*
X1504383Y2004029D01*
X1506711Y2008750D01*
X1508403Y2013735D01*
X1509430Y2018898D01*
X1509774Y2024151D01*
X1509430Y2029405D01*
X1508403Y2034568D01*
X1506711Y2039553D01*
X1504383Y2044274D01*
X1501458Y2048652D01*
X1497987Y2052610D01*
X1494029Y2056081D01*
X1489652Y2059006D01*
X1484930Y2061334D01*
X1479945Y2063026D01*
X1474782Y2064053D01*
X1469528Y2064397D01*
X1464275Y2064053D01*
X1459112Y2063026D01*
X1455382Y2061760D01*
X1425505Y2091637D01*
X1422991Y2093700D01*
X1420123Y2095233D01*
X1417010Y2096177D01*
X1413774Y2096496D01*
X1171664D01*
X1171661Y2096496D01*
D02*
G37*
G36*
X2927330Y2196520D02*
X2877830D01*
X2875112Y2196162D01*
X2872580Y2195113D01*
X2870405Y2193445D01*
X2868737Y2191270D01*
X2867688Y2188738D01*
X2867330Y2186020D01*
Y2136520D01*
X2867688Y2133803D01*
X2868737Y2131270D01*
X2870405Y2129096D01*
X2872580Y2127427D01*
X2875112Y2126378D01*
X2877830Y2126020D01*
X2880910D01*
Y2090843D01*
X2879915Y2090556D01*
X2874398Y2088271D01*
X2869173Y2085383D01*
X2864303Y2081928D01*
X2859851Y2077949D01*
X2855872Y2073497D01*
X2852417Y2068627D01*
X2849529Y2063402D01*
X2847244Y2057885D01*
X2845591Y2052148D01*
X2844591Y2046261D01*
X2844256Y2040300D01*
Y2026300D01*
X2844591Y2020339D01*
X2845591Y2014452D01*
X2847244Y2008715D01*
X2849529Y2003198D01*
X2852417Y1997973D01*
X2855872Y1993103D01*
X2859851Y1988651D01*
X2864303Y1984672D01*
X2869173Y1981217D01*
X2874398Y1978329D01*
X2879915Y1976044D01*
X2885652Y1974391D01*
X2891539Y1973391D01*
X2897500Y1973056D01*
X2903461Y1973391D01*
X2909348Y1974391D01*
X2915085Y1976044D01*
X2920601Y1978329D01*
X2925827Y1981217D01*
X2930697Y1984672D01*
X2935149Y1988651D01*
X2939127Y1993103D01*
X2942583Y1997973D01*
X2945471Y2003198D01*
X2947756Y2008715D01*
X2949409Y2014452D01*
X2950409Y2020339D01*
X2950744Y2026300D01*
Y2040300D01*
X2950409Y2046261D01*
X2949409Y2052148D01*
X2947756Y2057885D01*
X2945471Y2063402D01*
X2942583Y2068627D01*
X2939127Y2073497D01*
X2935149Y2077949D01*
X2930697Y2081928D01*
X2925827Y2085383D01*
X2920601Y2088271D01*
X2915085Y2090556D01*
X2914090Y2090843D01*
Y2126020D01*
X2927330D01*
X2930047Y2126378D01*
X2932580Y2127427D01*
X2934754Y2129096D01*
X2936423Y2131270D01*
X2937472Y2133803D01*
X2937830Y2136520D01*
Y2186020D01*
X2937472Y2188738D01*
X2936423Y2191270D01*
X2934754Y2193445D01*
X2932580Y2195113D01*
X2930047Y2196162D01*
X2927330Y2196520D01*
D02*
G37*
G36*
X2922250Y1954635D02*
X2903850D01*
Y1925735D01*
X2932750D01*
Y1944135D01*
X2932392Y1946853D01*
X2931343Y1949385D01*
X2929674Y1951559D01*
X2927500Y1953228D01*
X2924967Y1954277D01*
X2922250Y1954635D01*
D02*
G37*
G36*
X2891150D02*
X2872750D01*
X2870032Y1954277D01*
X2867500Y1953228D01*
X2865325Y1951559D01*
X2863657Y1949385D01*
X2862608Y1946853D01*
X2862250Y1944135D01*
Y1925735D01*
X2891150D01*
Y1954635D01*
D02*
G37*
G36*
X2932750Y1913035D02*
X2903850D01*
Y1884135D01*
X2922250D01*
X2924967Y1884493D01*
X2927500Y1885542D01*
X2929674Y1887211D01*
X2931343Y1889385D01*
X2932392Y1891917D01*
X2932750Y1894635D01*
Y1913035D01*
D02*
G37*
G36*
X2891150D02*
X2862250D01*
Y1894635D01*
X2862608Y1891917D01*
X2863657Y1889385D01*
X2865325Y1887211D01*
X2867500Y1885542D01*
X2870032Y1884493D01*
X2872750Y1884135D01*
X2891150D01*
Y1913035D01*
D02*
G37*
G36*
X1802855Y1908264D02*
X1777030D01*
Y1859364D01*
X1813430D01*
Y1897689D01*
X1813070Y1900426D01*
X1812013Y1902976D01*
X1810333Y1905167D01*
X1808142Y1906847D01*
X1805592Y1907904D01*
X1802855Y1908264D01*
D02*
G37*
G36*
X1764330D02*
X1738505D01*
X1735768Y1907904D01*
X1733217Y1906847D01*
X1731027Y1905167D01*
X1729346Y1902976D01*
X1728290Y1900426D01*
X1727929Y1897689D01*
Y1859364D01*
X1764330D01*
Y1908264D01*
D02*
G37*
G36*
X1813430Y1846664D02*
X1777030D01*
Y1797763D01*
X1802855D01*
X1805592Y1798124D01*
X1808142Y1799180D01*
X1810333Y1800861D01*
X1812013Y1803051D01*
X1813070Y1805602D01*
X1813430Y1808339D01*
Y1846664D01*
D02*
G37*
G36*
X1764330D02*
X1727929D01*
Y1808339D01*
X1728290Y1805602D01*
X1729346Y1803051D01*
X1731027Y1800861D01*
X1733217Y1799180D01*
X1735768Y1798124D01*
X1738505Y1797763D01*
X1764330D01*
Y1846664D01*
D02*
G37*
G36*
X2283460Y2352769D02*
X2278207Y2352425D01*
X2273043Y2351398D01*
X2268058Y2349706D01*
X2263337Y2347377D01*
X2258960Y2344453D01*
X2255002Y2340981D01*
X2251531Y2337024D01*
X2248606Y2332646D01*
X2246277Y2327925D01*
X2244585Y2322940D01*
X2243558Y2317776D01*
X2243214Y2312523D01*
X2243558Y2307270D01*
X2244585Y2302107D01*
X2245851Y2298376D01*
X2210769Y2263294D01*
X2208706Y2260780D01*
X2207173Y2257912D01*
X2206229Y2254800D01*
X2205910Y2251563D01*
Y2240941D01*
X1926231Y1961262D01*
X1720053D01*
X1716817Y1960944D01*
X1713705Y1959999D01*
X1710837Y1958466D01*
X1708322Y1956403D01*
X1673802Y1921883D01*
X1671739Y1919369D01*
X1670206Y1916501D01*
X1669262Y1913389D01*
X1668943Y1910152D01*
Y1794053D01*
X1669262Y1790816D01*
X1670206Y1787704D01*
X1671739Y1784836D01*
X1673802Y1782322D01*
X1681230Y1774894D01*
Y1757486D01*
X1680038Y1756755D01*
X1676428Y1753672D01*
X1675931Y1753090D01*
X1674085Y1752282D01*
X1665320Y1751123D01*
X1656555Y1752282D01*
X1654709Y1753090D01*
X1654212Y1753672D01*
X1650602Y1756755D01*
X1649410Y1757486D01*
Y1923306D01*
X1705708Y1979604D01*
X1906728D01*
X1909965Y1979922D01*
X1913077Y1980866D01*
X1915945Y1982400D01*
X1918459Y1984463D01*
X2168191Y2234194D01*
X2170254Y2236709D01*
X2171787Y2239577D01*
X2172731Y2242689D01*
X2173050Y2245925D01*
Y2275927D01*
X2176583Y2277669D01*
X2180960Y2280594D01*
X2184918Y2284065D01*
X2188389Y2288023D01*
X2191314Y2292400D01*
X2193643Y2297122D01*
X2195335Y2302107D01*
X2196362Y2307270D01*
X2196706Y2312523D01*
X2196362Y2317776D01*
X2195335Y2322940D01*
X2193643Y2327925D01*
X2191314Y2332646D01*
X2188389Y2337024D01*
X2184918Y2340981D01*
X2180960Y2344453D01*
X2176583Y2347377D01*
X2171862Y2349706D01*
X2166877Y2351398D01*
X2161713Y2352425D01*
X2156460Y2352769D01*
X2151207Y2352425D01*
X2146043Y2351398D01*
X2141058Y2349706D01*
X2136337Y2347377D01*
X2131960Y2344453D01*
X2128002Y2340981D01*
X2124531Y2337024D01*
X2121606Y2332646D01*
X2119277Y2327925D01*
X2117585Y2322940D01*
X2116558Y2317776D01*
X2116214Y2312523D01*
X2116558Y2307270D01*
X2117585Y2302107D01*
X2119277Y2297122D01*
X2121606Y2292400D01*
X2124531Y2288023D01*
X2128002Y2284065D01*
X2131960Y2280594D01*
X2136337Y2277669D01*
X2139870Y2275927D01*
Y2252797D01*
X1899856Y2012784D01*
X1698839D01*
X1698836Y2012784D01*
X1695600Y2012465D01*
X1692487Y2011521D01*
X1689619Y2009988D01*
X1687105Y2007925D01*
X1687104Y2007923D01*
X1621089Y1941908D01*
X1619026Y1939394D01*
X1617493Y1936526D01*
X1616549Y1933414D01*
X1616230Y1930177D01*
Y1757486D01*
X1615038Y1756755D01*
X1611428Y1753672D01*
X1608345Y1750062D01*
X1605864Y1746015D01*
X1604048Y1741629D01*
X1602939Y1737013D01*
X1602567Y1732280D01*
Y1657280D01*
X1602939Y1652547D01*
X1604048Y1647931D01*
X1605864Y1643545D01*
X1608345Y1639498D01*
X1611428Y1635888D01*
X1615038Y1632804D01*
X1619085Y1630324D01*
X1623471Y1628508D01*
X1628087Y1627399D01*
X1632820Y1627027D01*
X1637552Y1627399D01*
X1642169Y1628508D01*
X1646554Y1630324D01*
X1650602Y1632804D01*
X1654212Y1635888D01*
X1654709Y1636470D01*
X1656555Y1637278D01*
X1665320Y1638437D01*
X1674085Y1637278D01*
X1675931Y1636470D01*
X1676428Y1635888D01*
X1680038Y1632804D01*
X1684086Y1630324D01*
X1688471Y1628508D01*
X1693088Y1627399D01*
X1697820Y1627027D01*
X1702553Y1627399D01*
X1707169Y1628508D01*
X1711555Y1630324D01*
X1715602Y1632804D01*
X1719212Y1635888D01*
X1719709Y1636470D01*
X1721555Y1637278D01*
X1730320Y1638437D01*
X1739085Y1637278D01*
X1740931Y1636470D01*
X1741428Y1635888D01*
X1745038Y1632804D01*
X1746230Y1632074D01*
Y1614924D01*
X1739992Y1608686D01*
X1452077D01*
X1419823Y1640941D01*
X1417309Y1643004D01*
X1414441Y1644537D01*
X1411328Y1645481D01*
X1409452Y1645665D01*
Y1722360D01*
X1409086Y1725143D01*
X1408012Y1727736D01*
X1406303Y1729963D01*
X1404076Y1731671D01*
X1401483Y1732745D01*
X1398701Y1733112D01*
X1199700D01*
X1196917Y1732745D01*
X1194324Y1731671D01*
X1192097Y1729963D01*
X1190389Y1727736D01*
X1189315Y1725143D01*
X1188948Y1722360D01*
Y1623360D01*
X1189315Y1620577D01*
X1190389Y1617984D01*
X1192097Y1615757D01*
X1194324Y1614048D01*
X1196917Y1612974D01*
X1199700Y1612608D01*
X1398701D01*
X1398789Y1612620D01*
X1401220D01*
X1433474Y1580365D01*
X1435988Y1578302D01*
X1438857Y1576769D01*
X1441969Y1575825D01*
X1445205Y1575506D01*
X1746864D01*
X1750101Y1575825D01*
X1753213Y1576769D01*
X1756081Y1578302D01*
X1758595Y1580365D01*
X1774551Y1596321D01*
X1776614Y1598835D01*
X1778147Y1601703D01*
X1779091Y1604815D01*
X1779410Y1608052D01*
Y1632074D01*
X1780602Y1632804D01*
X1784212Y1635888D01*
X1784709Y1636470D01*
X1786555Y1637278D01*
X1795320Y1638437D01*
X1804085Y1637278D01*
X1805931Y1636470D01*
X1806428Y1635888D01*
X1810038Y1632804D01*
X1811230Y1632074D01*
Y1590787D01*
X1775815Y1555372D01*
X1409452D01*
Y1572360D01*
X1409086Y1575143D01*
X1408012Y1577736D01*
X1406303Y1579963D01*
X1404076Y1581671D01*
X1401483Y1582745D01*
X1398701Y1583112D01*
X1199700D01*
X1196917Y1582745D01*
X1194324Y1581671D01*
X1192097Y1579963D01*
X1190389Y1577736D01*
X1189315Y1575143D01*
X1188948Y1572360D01*
Y1473360D01*
X1189315Y1470577D01*
X1190389Y1467984D01*
X1192097Y1465757D01*
X1194324Y1464048D01*
X1196917Y1462974D01*
X1199700Y1462608D01*
X1398701D01*
X1401483Y1462974D01*
X1404076Y1464048D01*
X1406303Y1465757D01*
X1408012Y1467984D01*
X1409086Y1470577D01*
X1409452Y1473360D01*
Y1522192D01*
X1782687D01*
X1785924Y1522510D01*
X1789036Y1523454D01*
X1791904Y1524988D01*
X1794418Y1527051D01*
X1839551Y1572184D01*
X1841614Y1574698D01*
X1843147Y1577566D01*
X1844091Y1580678D01*
X1844410Y1583915D01*
Y1630849D01*
X1859657Y1638190D01*
X1874954Y1629573D01*
Y1199987D01*
X1859656Y1191370D01*
X1844410Y1198710D01*
Y1239541D01*
X1844410Y1239544D01*
X1844091Y1242780D01*
X1843147Y1245893D01*
X1841614Y1248761D01*
X1839551Y1251275D01*
X1839549Y1251276D01*
X1615807Y1475019D01*
X1613292Y1477082D01*
X1610424Y1478615D01*
X1607312Y1479559D01*
X1604076Y1479878D01*
X1575696D01*
X1573953Y1483411D01*
X1571028Y1487788D01*
X1567557Y1491746D01*
X1563599Y1495217D01*
X1559222Y1498142D01*
X1554501Y1500471D01*
X1549516Y1502163D01*
X1544352Y1503190D01*
X1539099Y1503534D01*
X1533846Y1503190D01*
X1528682Y1502163D01*
X1523697Y1500471D01*
X1518976Y1498142D01*
X1514599Y1495217D01*
X1510641Y1491746D01*
X1507170Y1487788D01*
X1504245Y1483411D01*
X1501916Y1478690D01*
X1500224Y1473705D01*
X1499197Y1468541D01*
X1498853Y1463288D01*
X1499197Y1458035D01*
X1500224Y1452872D01*
X1501916Y1447887D01*
X1504245Y1443165D01*
X1507170Y1438788D01*
X1510641Y1434830D01*
X1514599Y1431359D01*
X1518976Y1428434D01*
X1523697Y1426106D01*
X1528682Y1424413D01*
X1533846Y1423387D01*
X1539099Y1423042D01*
X1544352Y1423387D01*
X1549516Y1424413D01*
X1554501Y1426106D01*
X1559222Y1428434D01*
X1563599Y1431359D01*
X1567557Y1434830D01*
X1571028Y1438788D01*
X1573953Y1443165D01*
X1575696Y1446698D01*
X1597204D01*
X1811230Y1232672D01*
Y1197486D01*
X1810038Y1196756D01*
X1806428Y1193672D01*
X1805931Y1193090D01*
X1804085Y1192282D01*
X1795320Y1191123D01*
X1786555Y1192282D01*
X1784709Y1193090D01*
X1784212Y1193672D01*
X1780602Y1196756D01*
X1776554Y1199236D01*
X1772169Y1201052D01*
X1767552Y1202161D01*
X1762820Y1202533D01*
X1758087Y1202161D01*
X1753471Y1201052D01*
X1749085Y1199236D01*
X1745038Y1196756D01*
X1741428Y1193672D01*
X1740931Y1193090D01*
X1739085Y1192282D01*
X1730320Y1191123D01*
X1721555Y1192282D01*
X1719709Y1193090D01*
X1719212Y1193672D01*
X1715602Y1196756D01*
X1714410Y1197486D01*
Y1223402D01*
X1714091Y1226638D01*
X1713147Y1229750D01*
X1711614Y1232619D01*
X1709551Y1235133D01*
X1693409Y1251275D01*
X1690895Y1253338D01*
X1688026Y1254871D01*
X1684914Y1255815D01*
X1681678Y1256134D01*
X1598650D01*
X1595413Y1255815D01*
X1592301Y1254871D01*
X1589433Y1253338D01*
X1586919Y1251275D01*
X1586918Y1251273D01*
X1451309Y1115665D01*
X1449246Y1113151D01*
X1447713Y1110283D01*
X1446769Y1107171D01*
X1446450Y1103934D01*
Y1027196D01*
X1442917Y1025454D01*
X1438540Y1022529D01*
X1434582Y1019058D01*
X1431111Y1015100D01*
X1428186Y1010723D01*
X1425857Y1006002D01*
X1424165Y1001017D01*
X1423138Y995853D01*
X1422794Y990600D01*
X1423138Y985347D01*
X1424165Y980183D01*
X1425857Y975198D01*
X1428186Y970477D01*
X1431111Y966100D01*
X1434582Y962142D01*
X1438540Y958671D01*
X1442917Y955746D01*
X1447638Y953417D01*
X1452623Y951725D01*
X1457787Y950698D01*
X1463040Y950354D01*
X1468293Y950698D01*
X1473457Y951725D01*
X1478442Y953417D01*
X1483163Y955746D01*
X1487540Y958671D01*
X1491498Y962142D01*
X1494969Y966100D01*
X1497894Y970477D01*
X1500223Y975198D01*
X1501915Y980183D01*
X1502942Y985347D01*
X1503286Y990600D01*
X1502942Y995853D01*
X1501915Y1001017D01*
X1500223Y1006002D01*
X1497894Y1010723D01*
X1494969Y1015100D01*
X1491498Y1019058D01*
X1487540Y1022529D01*
X1483163Y1025454D01*
X1479630Y1027196D01*
Y1097062D01*
X1605522Y1222954D01*
X1674806D01*
X1681230Y1216530D01*
Y1197486D01*
X1680038Y1196756D01*
X1676428Y1193672D01*
X1675931Y1193090D01*
X1674085Y1192282D01*
X1665320Y1191123D01*
X1656555Y1192282D01*
X1654709Y1193090D01*
X1654212Y1193672D01*
X1650602Y1196756D01*
X1646554Y1199236D01*
X1642169Y1201052D01*
X1639170Y1201773D01*
Y1134780D01*
Y1067788D01*
X1642169Y1068508D01*
X1646554Y1070324D01*
X1650602Y1072805D01*
X1654212Y1075888D01*
X1654709Y1076470D01*
X1656555Y1077278D01*
X1665320Y1078437D01*
X1674085Y1077278D01*
X1675931Y1076470D01*
X1676428Y1075888D01*
X1680038Y1072805D01*
X1684086Y1070324D01*
X1688471Y1068508D01*
X1693088Y1067399D01*
X1697820Y1067027D01*
X1702553Y1067399D01*
X1707169Y1068508D01*
X1711555Y1070324D01*
X1715602Y1072805D01*
X1719212Y1075888D01*
X1719709Y1076470D01*
X1721555Y1077278D01*
X1729072Y1078272D01*
X1744705Y1068643D01*
Y1048140D01*
X1738070D01*
X1735352Y1047782D01*
X1732820Y1046733D01*
X1730646Y1045064D01*
X1728977Y1042890D01*
X1727928Y1040357D01*
X1727570Y1037640D01*
Y988140D01*
X1727928Y985422D01*
X1728977Y982890D01*
X1730646Y980715D01*
X1732820Y979047D01*
X1735352Y977998D01*
X1738070Y977640D01*
X1787570D01*
X1790288Y977998D01*
X1792820Y979047D01*
X1794994Y980715D01*
X1796663Y982890D01*
X1797712Y985422D01*
X1798070Y988140D01*
Y1037640D01*
X1797712Y1040357D01*
X1796663Y1042890D01*
X1794994Y1045064D01*
X1792820Y1046733D01*
X1790288Y1047782D01*
X1787570Y1048140D01*
X1777885D01*
Y1071140D01*
X1780602Y1072805D01*
X1784212Y1075888D01*
X1784709Y1076470D01*
X1786555Y1077278D01*
X1795320Y1078437D01*
X1804085Y1077278D01*
X1805931Y1076470D01*
X1806428Y1075888D01*
X1810038Y1072805D01*
X1814086Y1070324D01*
X1818471Y1068508D01*
X1823088Y1067399D01*
X1827820Y1067027D01*
X1832553Y1067399D01*
X1837169Y1068508D01*
X1841555Y1070324D01*
X1845602Y1072805D01*
X1849212Y1075888D01*
X1849709Y1076470D01*
X1851555Y1077278D01*
X1859428Y1078319D01*
X1874954Y1069573D01*
Y956000D01*
X1868070D01*
X1865352Y955642D01*
X1862820Y954593D01*
X1860645Y952924D01*
X1858976Y950750D01*
X1857928Y948218D01*
X1857570Y945500D01*
Y896000D01*
X1857574Y895971D01*
Y875450D01*
X1838277Y856153D01*
X1514776D01*
X1344837Y1026093D01*
X1342129Y1028315D01*
X1339041Y1029966D01*
X1335689Y1030983D01*
X1332203Y1031326D01*
X610331D01*
Y1054740D01*
X609966Y1057510D01*
X608897Y1060091D01*
X607197Y1062307D01*
X604980Y1064008D01*
X602399Y1065077D01*
X599629Y1065441D01*
X545980D01*
Y1087608D01*
X548700D01*
X551483Y1087974D01*
X554076Y1089048D01*
X556303Y1090757D01*
X558012Y1092984D01*
X559086Y1095577D01*
X559452Y1098360D01*
Y1297360D01*
X559086Y1300143D01*
X558170Y1302353D01*
Y1419911D01*
X745048Y1557500D01*
X749312Y1555397D01*
X754297Y1553705D01*
X759460Y1552678D01*
X764713Y1552334D01*
X769966Y1552678D01*
X775130Y1553705D01*
X780115Y1555397D01*
X784836Y1557726D01*
X789214Y1560651D01*
X793171Y1564122D01*
X796643Y1568080D01*
X799567Y1572457D01*
X801896Y1577178D01*
X803588Y1582163D01*
X804615Y1587327D01*
X804959Y1592580D01*
X804615Y1597833D01*
X803588Y1602997D01*
X801896Y1607982D01*
X799567Y1612703D01*
X796643Y1617080D01*
X793171Y1621038D01*
X789214Y1624509D01*
X784836Y1627434D01*
X780115Y1629763D01*
X775130Y1631455D01*
X769966Y1632482D01*
X764713Y1632826D01*
X759460Y1632482D01*
X754297Y1631455D01*
X749312Y1629763D01*
X744590Y1627434D01*
X740213Y1624509D01*
X736255Y1621038D01*
X732784Y1617080D01*
X729859Y1612703D01*
X727531Y1607982D01*
X725839Y1602997D01*
X724812Y1597833D01*
X724467Y1592580D01*
X724812Y1587327D01*
X725423Y1584254D01*
X531744Y1441658D01*
X530816Y1440822D01*
X529849Y1440029D01*
X529608Y1439735D01*
X529327Y1439483D01*
X528580Y1438482D01*
X527786Y1437515D01*
X527608Y1437181D01*
X527380Y1436877D01*
X526842Y1435749D01*
X526253Y1434647D01*
X526143Y1434283D01*
X525980Y1433942D01*
X525672Y1432731D01*
X525309Y1431535D01*
X525272Y1431158D01*
X525178Y1430790D01*
X525112Y1429539D01*
X524990Y1428298D01*
Y1308112D01*
X449700D01*
X446917Y1307746D01*
X444324Y1306672D01*
X442097Y1304963D01*
X440389Y1302736D01*
X439315Y1300143D01*
X438948Y1297360D01*
Y1098360D01*
X439315Y1095577D01*
X440389Y1092984D01*
X442097Y1090757D01*
X444324Y1089048D01*
X446917Y1087974D01*
X449700Y1087608D01*
X510247D01*
Y1065404D01*
X507760Y1065077D01*
X505179Y1064008D01*
X502963Y1062307D01*
X501262Y1060091D01*
X500193Y1057510D01*
X499828Y1054740D01*
Y928140D01*
X500193Y925370D01*
X501262Y922789D01*
X502963Y920573D01*
X505179Y918872D01*
X507760Y917803D01*
X510530Y917439D01*
X599629D01*
X602399Y917803D01*
X604980Y918872D01*
X607197Y920573D01*
X608897Y922789D01*
X609966Y925370D01*
X610331Y928140D01*
Y995594D01*
X1324803D01*
X1494743Y825654D01*
X1497450Y823432D01*
X1500539Y821781D01*
X1503890Y820764D01*
X1507376Y820421D01*
X1845678D01*
X1849163Y820765D01*
X1852515Y821781D01*
X1855603Y823432D01*
X1858311Y825654D01*
X1888073Y855416D01*
X1890295Y858124D01*
X1891946Y861212D01*
X1892962Y864564D01*
X1893306Y868050D01*
Y885500D01*
X1917570D01*
X1920287Y885858D01*
X1922820Y886907D01*
X1924994Y888576D01*
X1926663Y890750D01*
X1927712Y893282D01*
X1928070Y896000D01*
Y901629D01*
X1977090D01*
X1978420Y898417D01*
X1981689Y892503D01*
X1985599Y886992D01*
X1990102Y881954D01*
X1995140Y877451D01*
X2000651Y873541D01*
X2006565Y870272D01*
X2012807Y867687D01*
X2019300Y865816D01*
X2025962Y864684D01*
X2032708Y864305D01*
X2039455Y864684D01*
X2046116Y865816D01*
X2052609Y867687D01*
X2058852Y870272D01*
X2064765Y873541D01*
X2070276Y877451D01*
X2075315Y881954D01*
X2079817Y886992D01*
X2083727Y892503D01*
X2086996Y898417D01*
X2088327Y901629D01*
X2123817D01*
Y861260D01*
X2124182Y858490D01*
X2125251Y855909D01*
X2126952Y853693D01*
X2129168Y851992D01*
X2131749Y850923D01*
X2134519Y850559D01*
X2177997D01*
Y793531D01*
X2172284D01*
X2169560Y793172D01*
X2167021Y792120D01*
X2164841Y790448D01*
X2163169Y788268D01*
X2162117Y785729D01*
X2161758Y783005D01*
Y728556D01*
X2162117Y725832D01*
X2163169Y723293D01*
X2164841Y721113D01*
X2167021Y719441D01*
X2169560Y718389D01*
X2172284Y718031D01*
X2261733D01*
X2264457Y718389D01*
X2266996Y719441D01*
X2269176Y721113D01*
X2270848Y723293D01*
X2271900Y725832D01*
X2272259Y728556D01*
Y783005D01*
X2271900Y785729D01*
X2270848Y788268D01*
X2269176Y790448D01*
X2266996Y792120D01*
X2264457Y793172D01*
X2261733Y793531D01*
X2223858D01*
Y850590D01*
X2226388Y850923D01*
X2228969Y851992D01*
X2231186Y853693D01*
X2232886Y855909D01*
X2233955Y858490D01*
X2234320Y861260D01*
Y987860D01*
X2233955Y990630D01*
X2232886Y993211D01*
X2231186Y995427D01*
X2228969Y997128D01*
X2226388Y998197D01*
X2223619Y998561D01*
X2134519D01*
X2131749Y998197D01*
X2129168Y997128D01*
X2126952Y995427D01*
X2125251Y993211D01*
X2124182Y990630D01*
X2123817Y987860D01*
Y947491D01*
X2088327D01*
X2086996Y950703D01*
X2083727Y956617D01*
X2079817Y962128D01*
X2075315Y967166D01*
X2070276Y971669D01*
X2064765Y975579D01*
X2058852Y978848D01*
X2052609Y981433D01*
X2046116Y983304D01*
X2039455Y984436D01*
X2032708Y984815D01*
X2025962Y984436D01*
X2019300Y983304D01*
X2012807Y981433D01*
X2006565Y978848D01*
X2000651Y975579D01*
X1995140Y971669D01*
X1990102Y967166D01*
X1985599Y962128D01*
X1981689Y956617D01*
X1978420Y950703D01*
X1977090Y947491D01*
X1927807D01*
X1927712Y948218D01*
X1926663Y950750D01*
X1924994Y952924D01*
X1922820Y954593D01*
X1920287Y955642D01*
X1917570Y956000D01*
X1910686D01*
Y1069575D01*
X1926211Y1078319D01*
X1934085Y1077278D01*
X1935931Y1076470D01*
X1936428Y1075888D01*
X1940038Y1072805D01*
X1944086Y1070324D01*
X1948471Y1068508D01*
X1953088Y1067399D01*
X1957820Y1067027D01*
X1962553Y1067399D01*
X1967169Y1068508D01*
X1971555Y1070324D01*
X1975602Y1072805D01*
X1979212Y1075888D01*
X1979709Y1076470D01*
X1981555Y1077278D01*
X1990320Y1078437D01*
X1999085Y1077278D01*
X2000931Y1076470D01*
X2001428Y1075888D01*
X2005038Y1072805D01*
X2009085Y1070324D01*
X2013471Y1068508D01*
X2018087Y1067399D01*
X2022820Y1067027D01*
X2027552Y1067399D01*
X2032169Y1068508D01*
X2036554Y1070324D01*
X2040602Y1072805D01*
X2044212Y1075888D01*
X2044709Y1076470D01*
X2046555Y1077278D01*
X2055320Y1078437D01*
X2064085Y1077278D01*
X2065931Y1076470D01*
X2066428Y1075888D01*
X2070038Y1072805D01*
X2074086Y1070324D01*
X2078471Y1068508D01*
X2083088Y1067399D01*
X2087820Y1067027D01*
X2092553Y1067399D01*
X2097169Y1068508D01*
X2101555Y1070324D01*
X2105602Y1072805D01*
X2109212Y1075888D01*
X2109709Y1076470D01*
X2111555Y1077278D01*
X2120320Y1078437D01*
X2129085Y1077278D01*
X2130931Y1076470D01*
X2131428Y1075888D01*
X2135038Y1072805D01*
X2139085Y1070324D01*
X2143471Y1068508D01*
X2148087Y1067399D01*
X2152820Y1067027D01*
X2157552Y1067399D01*
X2162169Y1068508D01*
X2166554Y1070324D01*
X2170602Y1072805D01*
X2174212Y1075888D01*
X2174709Y1076470D01*
X2176555Y1077278D01*
X2185320Y1078437D01*
X2194085Y1077278D01*
X2195931Y1076470D01*
X2196428Y1075888D01*
X2200038Y1072805D01*
X2204086Y1070324D01*
X2208471Y1068508D01*
X2213088Y1067399D01*
X2217820Y1067027D01*
X2222553Y1067399D01*
X2227169Y1068508D01*
X2231555Y1070324D01*
X2235602Y1072805D01*
X2239212Y1075888D01*
X2242295Y1079498D01*
X2244776Y1083545D01*
X2246592Y1087931D01*
X2247701Y1092547D01*
X2248073Y1097280D01*
Y1148951D01*
X2301550D01*
Y1140791D01*
X2301908Y1138073D01*
X2302957Y1135541D01*
X2304625Y1133366D01*
X2306800Y1131698D01*
X2309332Y1130649D01*
X2312050Y1130291D01*
X2320210D01*
Y1098610D01*
X2312050D01*
X2309332Y1098252D01*
X2306800Y1097203D01*
X2304626Y1095534D01*
X2302957Y1093360D01*
X2301908Y1090827D01*
X2301550Y1088110D01*
Y1038610D01*
X2301908Y1035892D01*
X2302957Y1033360D01*
X2304626Y1031185D01*
X2306800Y1029517D01*
X2309332Y1028468D01*
X2312050Y1028110D01*
X2361550D01*
X2364268Y1028468D01*
X2366800Y1029517D01*
X2368974Y1031185D01*
X2370643Y1033360D01*
X2371692Y1035892D01*
X2372050Y1038610D01*
Y1088110D01*
X2371692Y1090827D01*
X2370643Y1093360D01*
X2368974Y1095534D01*
X2366800Y1097203D01*
X2364268Y1098252D01*
X2361550Y1098610D01*
X2353390D01*
Y1130291D01*
X2361550D01*
X2364267Y1130649D01*
X2366800Y1131698D01*
X2368974Y1133366D01*
X2370643Y1135541D01*
X2371692Y1138073D01*
X2372050Y1140791D01*
Y1190291D01*
X2371692Y1193008D01*
X2370643Y1195541D01*
X2368974Y1197715D01*
X2366800Y1199384D01*
X2364267Y1200433D01*
X2361550Y1200791D01*
X2353390D01*
Y1232210D01*
X2361550D01*
X2364267Y1232568D01*
X2366800Y1233617D01*
X2368974Y1235286D01*
X2370643Y1237460D01*
X2371692Y1239992D01*
X2372050Y1242710D01*
Y1292210D01*
X2371692Y1294928D01*
X2370643Y1297460D01*
X2368974Y1299634D01*
X2366800Y1301303D01*
X2364267Y1302352D01*
X2361550Y1302710D01*
X2312050D01*
X2309332Y1302352D01*
X2306800Y1301303D01*
X2304625Y1299634D01*
X2302957Y1297460D01*
X2301908Y1294928D01*
X2301550Y1292210D01*
Y1242710D01*
X2301908Y1239992D01*
X2302957Y1237460D01*
X2304625Y1235286D01*
X2306800Y1233617D01*
X2309332Y1232568D01*
X2312050Y1232210D01*
X2320210D01*
Y1200791D01*
X2312050D01*
X2309332Y1200433D01*
X2306800Y1199384D01*
X2304625Y1197715D01*
X2302957Y1195541D01*
X2301908Y1193008D01*
X2301550Y1190291D01*
Y1182131D01*
X2246385D01*
X2244776Y1186015D01*
X2242295Y1190062D01*
X2239212Y1193672D01*
X2235602Y1196756D01*
X2231555Y1199236D01*
X2227169Y1201052D01*
X2222553Y1202161D01*
X2217820Y1202533D01*
X2213088Y1202161D01*
X2208471Y1201052D01*
X2204086Y1199236D01*
X2200038Y1196756D01*
X2196428Y1193672D01*
X2195931Y1193090D01*
X2194085Y1192282D01*
X2185320Y1191123D01*
X2176555Y1192282D01*
X2174709Y1193090D01*
X2174212Y1193672D01*
X2170602Y1196756D01*
X2169410Y1197486D01*
Y1313400D01*
X2460065Y1604055D01*
X2510325D01*
X2512068Y1600522D01*
X2514993Y1596145D01*
X2518464Y1592187D01*
X2522422Y1588716D01*
X2526799Y1585791D01*
X2531520Y1583463D01*
X2536505Y1581771D01*
X2541669Y1580744D01*
X2546922Y1580399D01*
X2552175Y1580744D01*
X2557339Y1581771D01*
X2562324Y1583463D01*
X2567045Y1585791D01*
X2571422Y1588716D01*
X2575380Y1592187D01*
X2578851Y1596145D01*
X2581776Y1600522D01*
X2584105Y1605244D01*
X2585797Y1610229D01*
X2586824Y1615392D01*
X2587168Y1620645D01*
X2586824Y1625898D01*
X2585797Y1631062D01*
X2584105Y1636047D01*
X2581776Y1640768D01*
X2578851Y1645146D01*
X2575380Y1649103D01*
X2571422Y1652575D01*
X2567045Y1655499D01*
X2562324Y1657828D01*
X2557339Y1659520D01*
X2552175Y1660547D01*
X2546922Y1660891D01*
X2541669Y1660547D01*
X2536505Y1659520D01*
X2531520Y1657828D01*
X2526799Y1655499D01*
X2522422Y1652575D01*
X2518464Y1649103D01*
X2514993Y1645146D01*
X2512068Y1640768D01*
X2510325Y1637235D01*
X2453193D01*
X2449957Y1636916D01*
X2446844Y1635972D01*
X2443976Y1634439D01*
X2441462Y1632376D01*
X2441461Y1632375D01*
X2141089Y1332003D01*
X2139026Y1329489D01*
X2137493Y1326621D01*
X2136549Y1323508D01*
X2136230Y1320272D01*
Y1197486D01*
X2135038Y1196756D01*
X2131428Y1193672D01*
X2130931Y1193090D01*
X2129085Y1192282D01*
X2120320Y1191123D01*
X2111555Y1192282D01*
X2109709Y1193090D01*
X2109212Y1193672D01*
X2105602Y1196756D01*
X2104410Y1197486D01*
Y1336883D01*
X2351648Y1584121D01*
X2353711Y1586635D01*
X2355244Y1589503D01*
X2356188Y1592616D01*
X2356507Y1595852D01*
X2356507Y1595855D01*
Y1733815D01*
X2432487Y1809795D01*
X2512307D01*
X2514049Y1806262D01*
X2516974Y1801885D01*
X2520445Y1797927D01*
X2524403Y1794456D01*
X2528780Y1791531D01*
X2533502Y1789202D01*
X2538487Y1787510D01*
X2543650Y1786483D01*
X2548903Y1786139D01*
X2554156Y1786483D01*
X2559320Y1787510D01*
X2564305Y1789202D01*
X2569026Y1791531D01*
X2573404Y1794456D01*
X2577361Y1797927D01*
X2580833Y1801885D01*
X2583757Y1806262D01*
X2586086Y1810983D01*
X2587778Y1815968D01*
X2588805Y1821132D01*
X2589149Y1826385D01*
X2588805Y1831638D01*
X2587778Y1836802D01*
X2586086Y1841787D01*
X2583757Y1846508D01*
X2580833Y1850885D01*
X2577361Y1854843D01*
X2573404Y1858314D01*
X2569026Y1861239D01*
X2564305Y1863568D01*
X2559320Y1865260D01*
X2554156Y1866287D01*
X2548903Y1866631D01*
X2543650Y1866287D01*
X2538487Y1865260D01*
X2533502Y1863568D01*
X2528780Y1861239D01*
X2524403Y1858314D01*
X2520445Y1854843D01*
X2516974Y1850885D01*
X2514049Y1846508D01*
X2512307Y1842975D01*
X2425617D01*
X2425615Y1842975D01*
X2422378Y1842656D01*
X2419266Y1841712D01*
X2416398Y1840179D01*
X2413884Y1838116D01*
X2413883Y1838115D01*
X2328186Y1752418D01*
X2326123Y1749904D01*
X2324589Y1747036D01*
X2323645Y1743923D01*
X2323327Y1740687D01*
Y1602724D01*
X2076089Y1355486D01*
X2074026Y1352972D01*
X2072493Y1350104D01*
X2071549Y1346992D01*
X2071230Y1343755D01*
Y1197486D01*
X2070038Y1196756D01*
X2066428Y1193672D01*
X2065931Y1193090D01*
X2064085Y1192282D01*
X2055320Y1191123D01*
X2046555Y1192282D01*
X2044709Y1193090D01*
X2044212Y1193672D01*
X2040602Y1196756D01*
X2036554Y1199236D01*
X2032169Y1201052D01*
X2027552Y1202161D01*
X2022820Y1202533D01*
X2018087Y1202161D01*
X2013471Y1201052D01*
X2009085Y1199236D01*
X2005038Y1196756D01*
X2001428Y1193672D01*
X2000931Y1193090D01*
X1999085Y1192282D01*
X1990320Y1191123D01*
X1981555Y1192282D01*
X1979709Y1193090D01*
X1979212Y1193672D01*
X1975602Y1196756D01*
X1974410Y1197486D01*
Y1285907D01*
X2294251Y1605748D01*
X2296314Y1608262D01*
X2297847Y1611131D01*
X2298791Y1614243D01*
X2299110Y1617479D01*
Y1783209D01*
X2312556Y1796655D01*
X2316286Y1795389D01*
X2321449Y1794362D01*
X2326702Y1794017D01*
X2331956Y1794362D01*
X2337119Y1795389D01*
X2342104Y1797081D01*
X2346825Y1799409D01*
X2351203Y1802334D01*
X2355161Y1805805D01*
X2358632Y1809763D01*
X2361557Y1814141D01*
X2363885Y1818862D01*
X2365577Y1823847D01*
X2366604Y1829010D01*
X2366949Y1834264D01*
X2366604Y1839517D01*
X2365577Y1844680D01*
X2363885Y1849665D01*
X2361557Y1854386D01*
X2358632Y1858764D01*
X2355161Y1862722D01*
X2351203Y1866193D01*
X2346825Y1869118D01*
X2342104Y1871446D01*
X2337119Y1873138D01*
X2331956Y1874165D01*
X2326702Y1874510D01*
X2321449Y1874165D01*
X2316286Y1873138D01*
X2311301Y1871446D01*
X2306580Y1869118D01*
X2302202Y1866193D01*
X2298244Y1862722D01*
X2294773Y1858764D01*
X2291848Y1854386D01*
X2289520Y1849665D01*
X2287828Y1844680D01*
X2286801Y1839517D01*
X2286456Y1834264D01*
X2286801Y1829010D01*
X2287828Y1823847D01*
X2289094Y1820117D01*
X2270789Y1801812D01*
X2268726Y1799298D01*
X2267193Y1796430D01*
X2266249Y1793318D01*
X2265930Y1790081D01*
Y1624351D01*
X1946089Y1304510D01*
X1944026Y1301996D01*
X1942493Y1299128D01*
X1941549Y1296015D01*
X1941230Y1292779D01*
Y1198711D01*
X1925983Y1191370D01*
X1910686Y1199986D01*
Y1629574D01*
X1926212Y1638319D01*
X1934085Y1637278D01*
X1935931Y1636470D01*
X1936428Y1635888D01*
X1940038Y1632804D01*
X1944086Y1630324D01*
X1948471Y1628508D01*
X1951470Y1627788D01*
Y1694780D01*
Y1761772D01*
X1948471Y1761052D01*
X1944086Y1759236D01*
X1940038Y1756755D01*
X1936428Y1753672D01*
X1935931Y1753090D01*
X1934085Y1752282D01*
X1926212Y1751241D01*
X1910686Y1759986D01*
Y1797763D01*
X1947855D01*
X1950592Y1798124D01*
X1953142Y1799180D01*
X1955333Y1800861D01*
X1957013Y1803051D01*
X1958070Y1805602D01*
X1958430Y1808339D01*
Y1872528D01*
X1959377D01*
X1962862Y1872871D01*
X1966214Y1873888D01*
X1969303Y1875539D01*
X1972010Y1877761D01*
X2281527Y2187278D01*
X2359699D01*
X2360812Y2185021D01*
X2363737Y2180643D01*
X2367208Y2176686D01*
X2371166Y2173214D01*
X2375543Y2170290D01*
X2380264Y2167961D01*
X2385249Y2166269D01*
X2390413Y2165242D01*
X2395666Y2164898D01*
X2400919Y2165242D01*
X2406083Y2166269D01*
X2411068Y2167961D01*
X2415789Y2170290D01*
X2420166Y2173214D01*
X2424124Y2176686D01*
X2427595Y2180643D01*
X2430520Y2185021D01*
X2432849Y2189742D01*
X2434541Y2194727D01*
X2435568Y2199890D01*
X2435912Y2205144D01*
X2435568Y2210397D01*
X2434541Y2215560D01*
X2432849Y2220545D01*
X2430520Y2225267D01*
X2427595Y2229644D01*
X2424124Y2233602D01*
X2420166Y2237073D01*
X2415789Y2239998D01*
X2411068Y2242326D01*
X2406083Y2244018D01*
X2400919Y2245045D01*
X2395666Y2245390D01*
X2390413Y2245045D01*
X2385249Y2244018D01*
X2380264Y2242326D01*
X2375543Y2239998D01*
X2371166Y2237073D01*
X2367208Y2233602D01*
X2363737Y2229644D01*
X2360812Y2225267D01*
X2359699Y2223010D01*
X2274127D01*
X2270641Y2222667D01*
X2267289Y2221650D01*
X2264201Y2219999D01*
X2261493Y2217777D01*
X1951977Y1908260D01*
X1947886D01*
X1947855Y1908264D01*
X1883505D01*
X1880768Y1907904D01*
X1878217Y1906847D01*
X1876027Y1905167D01*
X1874346Y1902976D01*
X1873290Y1900426D01*
X1872929Y1897689D01*
Y1808339D01*
X1873290Y1805602D01*
X1874346Y1803051D01*
X1874954Y1802259D01*
Y1759987D01*
X1859428Y1751241D01*
X1851555Y1752282D01*
X1849709Y1753090D01*
X1849212Y1753672D01*
X1845602Y1756755D01*
X1841555Y1759236D01*
X1837169Y1761052D01*
X1832553Y1762161D01*
X1827820Y1762533D01*
X1823088Y1762161D01*
X1818471Y1761052D01*
X1814086Y1759236D01*
X1810038Y1756755D01*
X1806428Y1753672D01*
X1805931Y1753090D01*
X1804085Y1752282D01*
X1795320Y1751123D01*
X1786555Y1752282D01*
X1784709Y1753090D01*
X1784212Y1753672D01*
X1780602Y1756755D01*
X1776554Y1759236D01*
X1772169Y1761052D01*
X1767552Y1762161D01*
X1762820Y1762533D01*
X1758087Y1762161D01*
X1753471Y1761052D01*
X1749085Y1759236D01*
X1745038Y1756755D01*
X1741428Y1753672D01*
X1740931Y1753090D01*
X1739085Y1752282D01*
X1730320Y1751123D01*
X1721555Y1752282D01*
X1719709Y1753090D01*
X1719212Y1753672D01*
X1715602Y1756755D01*
X1714410Y1757486D01*
Y1781764D01*
X1714410Y1781766D01*
X1714091Y1785003D01*
X1713147Y1788115D01*
X1711614Y1790983D01*
X1709551Y1793497D01*
X1702123Y1800925D01*
Y1903280D01*
X1726925Y1928082D01*
X1933103D01*
X1936339Y1928401D01*
X1939451Y1929345D01*
X1942319Y1930878D01*
X1944834Y1932941D01*
X2234229Y2222337D01*
X2234231Y2222339D01*
X2236294Y2224853D01*
X2237827Y2227721D01*
X2238771Y2230833D01*
X2239090Y2234070D01*
Y2244691D01*
X2269313Y2274915D01*
X2273043Y2273648D01*
X2278207Y2272622D01*
X2283460Y2272277D01*
X2288713Y2272622D01*
X2293877Y2273648D01*
X2298862Y2275341D01*
X2303583Y2277669D01*
X2307960Y2280594D01*
X2311918Y2284065D01*
X2315389Y2288023D01*
X2318314Y2292400D01*
X2320643Y2297122D01*
X2322335Y2302107D01*
X2323362Y2307270D01*
X2323706Y2312523D01*
X2323362Y2317776D01*
X2322335Y2322940D01*
X2320643Y2327925D01*
X2318314Y2332646D01*
X2315389Y2337024D01*
X2311918Y2340981D01*
X2307960Y2344453D01*
X2303583Y2347377D01*
X2298862Y2349706D01*
X2293877Y2351398D01*
X2288713Y2352425D01*
X2283460Y2352769D01*
D02*
G37*
G36*
X2029460D02*
X2024207Y2352425D01*
X2019043Y2351398D01*
X2014058Y2349706D01*
X2009337Y2347377D01*
X2004960Y2344453D01*
X2001002Y2340981D01*
X1997531Y2337024D01*
X1994606Y2332646D01*
X1992277Y2327925D01*
X1990585Y2322940D01*
X1989558Y2317776D01*
X1989214Y2312523D01*
X1989558Y2307270D01*
X1990585Y2302107D01*
X1992277Y2297122D01*
X1994606Y2292400D01*
X1997531Y2288023D01*
X2001002Y2284065D01*
X2004960Y2280594D01*
X2009337Y2277669D01*
X2012870Y2275927D01*
Y2202095D01*
X1875430Y2064655D01*
X1678314D01*
X1675077Y2064336D01*
X1671965Y2063392D01*
X1669097Y2061859D01*
X1666583Y2059796D01*
X1666582Y2059794D01*
X1527368Y1920581D01*
X1525305Y1918067D01*
X1523772Y1915199D01*
X1522828Y1912087D01*
X1522509Y1908850D01*
Y1705377D01*
X1518976Y1703634D01*
X1514599Y1700709D01*
X1510641Y1697238D01*
X1507170Y1693280D01*
X1504245Y1688903D01*
X1501916Y1684182D01*
X1500224Y1679197D01*
X1499197Y1674033D01*
X1498853Y1668780D01*
X1499197Y1663527D01*
X1500224Y1658363D01*
X1501916Y1653378D01*
X1504245Y1648657D01*
X1507170Y1644280D01*
X1510641Y1640322D01*
X1514599Y1636851D01*
X1518976Y1633926D01*
X1523697Y1631597D01*
X1528682Y1629905D01*
X1533846Y1628878D01*
X1539099Y1628534D01*
X1544352Y1628878D01*
X1549516Y1629905D01*
X1554501Y1631597D01*
X1559222Y1633926D01*
X1563599Y1636851D01*
X1567557Y1640322D01*
X1571028Y1644280D01*
X1573953Y1648657D01*
X1576282Y1653378D01*
X1577974Y1658363D01*
X1579001Y1663527D01*
X1579345Y1668780D01*
X1579001Y1674033D01*
X1577974Y1679197D01*
X1576282Y1684182D01*
X1573953Y1688903D01*
X1571028Y1693280D01*
X1567557Y1697238D01*
X1563599Y1700709D01*
X1559222Y1703634D01*
X1555689Y1705377D01*
Y1901978D01*
X1685186Y2031475D01*
X1882302D01*
X1885538Y2031794D01*
X1888650Y2032738D01*
X1891518Y2034271D01*
X1894033Y2036334D01*
X2041191Y2183492D01*
X2043254Y2186006D01*
X2044787Y2188874D01*
X2045731Y2191987D01*
X2046050Y2195223D01*
Y2275927D01*
X2049583Y2277669D01*
X2053960Y2280594D01*
X2057918Y2284065D01*
X2061389Y2288023D01*
X2064314Y2292400D01*
X2066643Y2297122D01*
X2068335Y2302107D01*
X2069362Y2307270D01*
X2069706Y2312523D01*
X2069362Y2317776D01*
X2068335Y2322940D01*
X2066643Y2327925D01*
X2064314Y2332646D01*
X2061389Y2337024D01*
X2057918Y2340981D01*
X2053960Y2344453D01*
X2049583Y2347377D01*
X2044862Y2349706D01*
X2039877Y2351398D01*
X2034713Y2352425D01*
X2029460Y2352769D01*
D02*
G37*
G36*
X2801198Y1866631D02*
X2795945Y1866287D01*
X2790781Y1865260D01*
X2785796Y1863568D01*
X2781075Y1861239D01*
X2776698Y1858314D01*
X2772740Y1854843D01*
X2769269Y1850885D01*
X2766344Y1846508D01*
X2764015Y1841787D01*
X2762323Y1836802D01*
X2761296Y1831638D01*
X2760952Y1826385D01*
X2761296Y1821132D01*
X2762323Y1815968D01*
X2764015Y1810983D01*
X2766344Y1806262D01*
X2769269Y1801885D01*
X2772740Y1797927D01*
X2776698Y1794456D01*
X2781075Y1791531D01*
X2785796Y1789202D01*
X2790781Y1787510D01*
X2795945Y1786483D01*
X2801198Y1786139D01*
X2806451Y1786483D01*
X2811614Y1787510D01*
X2816599Y1789202D01*
X2821321Y1791531D01*
X2825698Y1794456D01*
X2829656Y1797927D01*
X2833127Y1801885D01*
X2836052Y1806262D01*
X2837794Y1809795D01*
X2862250D01*
Y1801635D01*
X2862608Y1798917D01*
X2863657Y1796385D01*
X2865325Y1794210D01*
X2867500Y1792542D01*
X2870032Y1791493D01*
X2872750Y1791135D01*
X2880910D01*
Y1719593D01*
X2879915Y1719306D01*
X2874398Y1717021D01*
X2869173Y1714133D01*
X2864303Y1710678D01*
X2859851Y1706699D01*
X2855872Y1702247D01*
X2852417Y1697377D01*
X2849529Y1692152D01*
X2847244Y1686635D01*
X2845591Y1680898D01*
X2844591Y1675011D01*
X2844256Y1669050D01*
Y1655050D01*
X2844591Y1649089D01*
X2845591Y1643202D01*
X2847244Y1637465D01*
X2849529Y1631948D01*
X2852417Y1626723D01*
X2855872Y1621853D01*
X2859851Y1617401D01*
X2864303Y1613422D01*
X2869173Y1609967D01*
X2874398Y1607079D01*
X2879915Y1604794D01*
X2880910Y1604507D01*
Y1583000D01*
X2872750D01*
X2870032Y1582642D01*
X2867500Y1581593D01*
X2865325Y1579924D01*
X2863657Y1577750D01*
X2862608Y1575218D01*
X2862250Y1572500D01*
Y1523000D01*
X2862608Y1520282D01*
X2863657Y1517750D01*
X2865325Y1515576D01*
X2867500Y1513907D01*
X2870032Y1512858D01*
X2872750Y1512500D01*
X2922250D01*
X2924967Y1512858D01*
X2927500Y1513907D01*
X2929674Y1515576D01*
X2931343Y1517750D01*
X2932392Y1520282D01*
X2932750Y1523000D01*
Y1572500D01*
X2932392Y1575218D01*
X2931343Y1577750D01*
X2929674Y1579924D01*
X2927500Y1581593D01*
X2924967Y1582642D01*
X2922250Y1583000D01*
X2914090D01*
Y1604507D01*
X2915085Y1604794D01*
X2920601Y1607079D01*
X2925827Y1609967D01*
X2930697Y1613422D01*
X2935149Y1617401D01*
X2939127Y1621853D01*
X2942583Y1626723D01*
X2945471Y1631948D01*
X2947756Y1637465D01*
X2949409Y1643202D01*
X2950409Y1649089D01*
X2950744Y1655050D01*
Y1669050D01*
X2950409Y1675011D01*
X2949409Y1680898D01*
X2947756Y1686635D01*
X2945471Y1692152D01*
X2942583Y1697377D01*
X2939127Y1702247D01*
X2935149Y1706699D01*
X2930697Y1710678D01*
X2925827Y1714133D01*
X2920601Y1717021D01*
X2915085Y1719306D01*
X2914090Y1719593D01*
Y1791135D01*
X2922250D01*
X2924967Y1791493D01*
X2927500Y1792542D01*
X2929674Y1794210D01*
X2931343Y1796385D01*
X2932392Y1798917D01*
X2932750Y1801635D01*
Y1851135D01*
X2932392Y1853852D01*
X2931343Y1856385D01*
X2929674Y1858559D01*
X2927500Y1860228D01*
X2924967Y1861277D01*
X2922250Y1861635D01*
X2872750D01*
X2870032Y1861277D01*
X2867500Y1860228D01*
X2865325Y1858559D01*
X2863657Y1856385D01*
X2862608Y1853852D01*
X2862250Y1851135D01*
Y1842975D01*
X2837794D01*
X2836052Y1846508D01*
X2833127Y1850885D01*
X2829656Y1854843D01*
X2825698Y1858314D01*
X2821321Y1861239D01*
X2816599Y1863568D01*
X2811614Y1865260D01*
X2806451Y1866287D01*
X2801198Y1866631D01*
D02*
G37*
G36*
X2922250Y1483240D02*
X2903850D01*
Y1454340D01*
X2932750D01*
Y1472740D01*
X2932392Y1475458D01*
X2931343Y1477990D01*
X2929674Y1480164D01*
X2927500Y1481833D01*
X2924967Y1482882D01*
X2922250Y1483240D01*
D02*
G37*
G36*
X2891150D02*
X2872750D01*
X2870032Y1482882D01*
X2867500Y1481833D01*
X2865325Y1480164D01*
X2863657Y1477990D01*
X2862608Y1475458D01*
X2862250Y1472740D01*
Y1454340D01*
X2891150D01*
Y1483240D01*
D02*
G37*
G36*
X2425045Y1456996D02*
X2401570D01*
Y1435597D01*
X2435469D01*
Y1446572D01*
X2435114Y1449270D01*
X2434073Y1451784D01*
X2432416Y1453943D01*
X2430257Y1455600D01*
X2427743Y1456641D01*
X2425045Y1456996D01*
D02*
G37*
G36*
X2388870D02*
X2365395D01*
X2362697Y1456641D01*
X2360183Y1455600D01*
X2358024Y1453943D01*
X2356368Y1451784D01*
X2355326Y1449270D01*
X2354971Y1446572D01*
Y1435597D01*
X2388870D01*
Y1456996D01*
D02*
G37*
G36*
X386080Y1447406D02*
X380827Y1447062D01*
X375663Y1446035D01*
X370678Y1444343D01*
X365957Y1442014D01*
X361580Y1439089D01*
X357622Y1435618D01*
X354151Y1431660D01*
X351226Y1427283D01*
X348897Y1422562D01*
X348439Y1421210D01*
X259452D01*
Y1422360D01*
X259086Y1425143D01*
X258012Y1427736D01*
X256303Y1429963D01*
X254076Y1431671D01*
X251483Y1432745D01*
X248700Y1433112D01*
X49700D01*
X46917Y1432745D01*
X44324Y1431671D01*
X42097Y1429963D01*
X40389Y1427736D01*
X39314Y1425143D01*
X38948Y1422360D01*
Y1323360D01*
X39314Y1320577D01*
X40389Y1317984D01*
X42097Y1315757D01*
X44324Y1314048D01*
X46917Y1312974D01*
X49700Y1312608D01*
X248700D01*
X251483Y1312974D01*
X254076Y1314048D01*
X256303Y1315757D01*
X258012Y1317984D01*
X259086Y1320577D01*
X259452Y1323360D01*
Y1388030D01*
X350736D01*
X351226Y1387037D01*
X354151Y1382660D01*
X357622Y1378702D01*
X361580Y1375231D01*
X365957Y1372306D01*
X370678Y1369977D01*
X375663Y1368285D01*
X380827Y1367258D01*
X386080Y1366914D01*
X391333Y1367258D01*
X396497Y1368285D01*
X401482Y1369977D01*
X406203Y1372306D01*
X410580Y1375231D01*
X414538Y1378702D01*
X418009Y1382660D01*
X420934Y1387037D01*
X423263Y1391758D01*
X424955Y1396743D01*
X425982Y1401907D01*
X426326Y1407160D01*
X425982Y1412413D01*
X424955Y1417577D01*
X423263Y1422562D01*
X420934Y1427283D01*
X418009Y1431660D01*
X414538Y1435618D01*
X410580Y1439089D01*
X406203Y1442014D01*
X401482Y1444343D01*
X396497Y1446035D01*
X391333Y1447062D01*
X386080Y1447406D01*
D02*
G37*
G36*
X2932750Y1441640D02*
X2903850D01*
Y1412740D01*
X2922250D01*
X2924967Y1413098D01*
X2927500Y1414147D01*
X2929674Y1415816D01*
X2931343Y1417990D01*
X2932392Y1420522D01*
X2932750Y1423240D01*
Y1441640D01*
D02*
G37*
G36*
X2891150D02*
X2862250D01*
Y1423240D01*
X2862608Y1420522D01*
X2863657Y1417990D01*
X2865325Y1415816D01*
X2867500Y1414147D01*
X2870032Y1413098D01*
X2872750Y1412740D01*
X2891150D01*
Y1441640D01*
D02*
G37*
G36*
X2521639Y1423136D02*
X2515244Y1422821D01*
X2508911Y1421882D01*
X2502701Y1420326D01*
X2496673Y1418170D01*
X2490886Y1415432D01*
X2485394Y1412141D01*
X2480252Y1408327D01*
X2475508Y1404028D01*
X2471209Y1399284D01*
X2467395Y1394142D01*
X2464104Y1388650D01*
X2463407Y1387178D01*
X2443045D01*
X2433211Y1403069D01*
X2434073Y1406710D01*
X2435114Y1409224D01*
X2435469Y1411922D01*
Y1422897D01*
X2395220D01*
X2354971D01*
Y1411922D01*
X2355326Y1409224D01*
X2356367Y1406710D01*
X2358024Y1399716D01*
Y1393779D01*
X2356367Y1386784D01*
X2355326Y1384270D01*
X2354971Y1381572D01*
Y1346922D01*
X2355326Y1344224D01*
X2356368Y1341710D01*
X2358024Y1339551D01*
X2360183Y1337894D01*
X2362697Y1336853D01*
X2365395Y1336498D01*
X2425045D01*
X2427743Y1336853D01*
X2430257Y1337894D01*
X2432416Y1339551D01*
X2433771Y1341317D01*
X2458619D01*
X2459209Y1338959D01*
X2461366Y1332932D01*
X2464104Y1327144D01*
X2467395Y1321653D01*
X2471209Y1316510D01*
X2475508Y1311767D01*
X2480252Y1307467D01*
X2485394Y1303653D01*
X2490886Y1300362D01*
X2496673Y1297625D01*
X2498708Y1296897D01*
Y1182131D01*
X2471810D01*
Y1190291D01*
X2471452Y1193008D01*
X2470403Y1195541D01*
X2468734Y1197715D01*
X2466560Y1199384D01*
X2464027Y1200433D01*
X2461310Y1200791D01*
X2411810D01*
X2409092Y1200433D01*
X2406560Y1199384D01*
X2404385Y1197715D01*
X2402717Y1195541D01*
X2401668Y1193008D01*
X2401310Y1190291D01*
Y1140791D01*
X2401668Y1138073D01*
X2402717Y1135541D01*
X2404385Y1133366D01*
X2406560Y1131698D01*
X2409092Y1130649D01*
X2411810Y1130291D01*
X2461310D01*
X2464027Y1130649D01*
X2466560Y1131698D01*
X2468734Y1133366D01*
X2470403Y1135541D01*
X2471452Y1138073D01*
X2471810Y1140791D01*
Y1148951D01*
X2498708D01*
Y1006690D01*
X2472959Y980941D01*
X2470622Y978205D01*
X2468742Y975137D01*
X2467365Y971812D01*
X2466525Y968314D01*
X2466242Y964727D01*
Y937795D01*
X2463030Y936464D01*
X2457116Y933195D01*
X2451605Y929285D01*
X2446567Y924783D01*
X2442064Y919745D01*
X2438154Y914234D01*
X2434885Y908320D01*
X2432300Y902077D01*
X2430429Y895584D01*
X2429297Y888923D01*
X2428918Y882177D01*
X2429297Y875430D01*
X2430429Y868769D01*
X2432300Y862276D01*
X2434885Y856033D01*
X2438154Y850119D01*
X2442064Y844608D01*
X2446567Y839570D01*
X2451605Y835068D01*
X2457116Y831158D01*
X2463030Y827889D01*
X2466242Y826558D01*
Y797970D01*
X2355092Y686820D01*
X2143898D01*
X2055034Y775684D01*
X2052298Y778021D01*
X2049230Y779901D01*
X2045905Y781278D01*
X2042407Y782118D01*
X2038820Y782400D01*
X1884487D01*
X1880900Y782118D01*
X1877401Y781278D01*
X1874077Y779901D01*
X1871009Y778021D01*
X1868273Y775684D01*
X1841450Y748861D01*
X1763065D01*
X1762918Y748881D01*
X1708469D01*
X1708322Y748861D01*
X1638510D01*
X1635597Y751774D01*
X1632861Y754111D01*
X1629793Y755991D01*
X1626468Y757368D01*
X1622970Y758208D01*
X1619383Y758490D01*
X1500110D01*
Y782560D01*
X1499751Y785290D01*
X1498697Y787835D01*
X1497020Y790020D01*
X1494835Y791696D01*
X1492290Y792751D01*
X1489560Y793110D01*
X1390160D01*
X1387430Y792751D01*
X1384885Y791696D01*
X1382700Y790020D01*
X1381023Y787835D01*
X1379969Y785290D01*
X1379610Y782560D01*
Y723160D01*
X1379969Y720429D01*
X1381023Y717885D01*
X1382700Y715700D01*
X1384885Y714023D01*
X1387430Y712969D01*
X1390160Y712610D01*
X1489560D01*
X1489708Y712629D01*
X1609885D01*
X1612797Y709716D01*
X1615533Y707379D01*
X1618602Y705499D01*
X1621926Y704123D01*
X1625424Y703282D01*
X1629012Y703000D01*
X1697944D01*
Y648906D01*
X1698302Y646182D01*
X1699354Y643643D01*
X1701026Y641463D01*
X1703206Y639791D01*
X1705745Y638739D01*
X1708469Y638380D01*
X1762918D01*
X1765642Y638739D01*
X1768181Y639791D01*
X1770361Y641463D01*
X1772033Y643643D01*
X1773085Y646182D01*
X1773443Y648906D01*
Y703000D01*
X1850948D01*
X1854536Y703282D01*
X1858034Y704123D01*
X1861358Y705499D01*
X1864427Y707379D01*
X1867163Y709716D01*
X1893985Y736539D01*
X2029322D01*
X2118185Y647675D01*
X2120921Y645338D01*
X2123989Y643458D01*
X2127313Y642081D01*
X2130812Y641241D01*
X2134400Y640959D01*
X2364590D01*
X2368177Y641241D01*
X2371676Y642081D01*
X2375000Y643458D01*
X2378068Y645338D01*
X2380804Y647675D01*
X2505387Y772258D01*
X2507724Y774994D01*
X2509604Y778062D01*
X2510981Y781386D01*
X2511821Y784885D01*
X2512104Y788472D01*
Y826558D01*
X2515317Y827889D01*
X2521230Y831158D01*
X2526741Y835068D01*
X2531780Y839570D01*
X2536282Y844608D01*
X2540192Y850119D01*
X2543461Y856033D01*
X2546046Y862276D01*
X2547917Y868769D01*
X2549049Y875430D01*
X2549428Y882177D01*
X2549049Y888923D01*
X2547917Y895584D01*
X2546046Y902077D01*
X2543461Y908320D01*
X2540192Y914234D01*
X2536282Y919745D01*
X2531780Y924783D01*
X2526741Y929285D01*
X2521230Y933195D01*
X2515317Y936464D01*
X2512104Y937795D01*
Y955228D01*
X2537853Y980978D01*
X2540190Y983714D01*
X2542070Y986782D01*
X2543447Y990106D01*
X2544287Y993605D01*
X2544569Y997192D01*
Y1165541D01*
Y1296897D01*
X2546604Y1297625D01*
X2552392Y1300362D01*
X2557883Y1303653D01*
X2563025Y1307467D01*
X2567769Y1311767D01*
X2572069Y1316510D01*
X2575882Y1321653D01*
X2579174Y1327144D01*
X2581911Y1332932D01*
X2584068Y1338959D01*
X2585623Y1345170D01*
X2586563Y1351503D01*
X2586877Y1357897D01*
X2586563Y1364292D01*
X2585623Y1370625D01*
X2584068Y1376835D01*
X2581911Y1382863D01*
X2579174Y1388650D01*
X2575882Y1394142D01*
X2572069Y1399284D01*
X2567769Y1404028D01*
X2563025Y1408327D01*
X2557883Y1412141D01*
X2552392Y1415432D01*
X2546604Y1418170D01*
X2540576Y1420326D01*
X2534366Y1421882D01*
X2528033Y1422821D01*
X2521639Y1423136D01*
D02*
G37*
G36*
X923218Y1683896D02*
X712266D01*
X709029Y1683577D01*
X705917Y1682633D01*
X703049Y1681100D01*
X700535Y1679037D01*
X649146Y1627649D01*
X645416Y1628915D01*
X640253Y1629942D01*
X635000Y1630286D01*
X629747Y1629942D01*
X624583Y1628915D01*
X619598Y1627223D01*
X614877Y1624894D01*
X610499Y1621969D01*
X606542Y1618498D01*
X603070Y1614540D01*
X600146Y1610163D01*
X597817Y1605442D01*
X596125Y1600457D01*
X595098Y1595293D01*
X594754Y1590040D01*
X595098Y1584787D01*
X596125Y1579623D01*
X597817Y1574638D01*
X600146Y1569917D01*
X603070Y1565540D01*
X606542Y1561582D01*
X610499Y1558111D01*
X614877Y1555186D01*
X619598Y1552857D01*
X624583Y1551165D01*
X629747Y1550138D01*
X635000Y1549794D01*
X640253Y1550138D01*
X645416Y1551165D01*
X650401Y1552857D01*
X655123Y1555186D01*
X659500Y1558111D01*
X663458Y1561582D01*
X666929Y1565540D01*
X669854Y1569917D01*
X672182Y1574638D01*
X673874Y1579623D01*
X674901Y1584787D01*
X675246Y1590040D01*
X674901Y1595293D01*
X673874Y1600457D01*
X672608Y1604187D01*
X719137Y1650716D01*
X916346D01*
X1162282Y1404781D01*
X1162283Y1404779D01*
X1164797Y1402716D01*
X1167665Y1401183D01*
X1170778Y1400239D01*
X1174014Y1399920D01*
X1188948D01*
Y1323360D01*
X1189315Y1320577D01*
X1190389Y1317984D01*
X1192097Y1315757D01*
X1194324Y1314048D01*
X1196917Y1312974D01*
X1199700Y1312608D01*
X1398701D01*
X1401483Y1312974D01*
X1404076Y1314048D01*
X1406303Y1315757D01*
X1408012Y1317984D01*
X1409086Y1320577D01*
X1409452Y1323360D01*
Y1422360D01*
X1409086Y1425143D01*
X1408012Y1427736D01*
X1406303Y1429963D01*
X1404076Y1431671D01*
X1401483Y1432745D01*
X1398701Y1433112D01*
X1199700D01*
X1199612Y1433100D01*
X1180886D01*
X934949Y1679037D01*
X932435Y1681100D01*
X929567Y1682633D01*
X926455Y1683577D01*
X923218Y1683896D01*
D02*
G37*
G36*
X2454550Y1302710D02*
X2436150D01*
Y1273810D01*
X2465050D01*
Y1292210D01*
X2464692Y1294928D01*
X2463643Y1297460D01*
X2461975Y1299634D01*
X2459800Y1301303D01*
X2457268Y1302352D01*
X2454550Y1302710D01*
D02*
G37*
G36*
X2423450D02*
X2405050D01*
X2402333Y1302352D01*
X2399800Y1301303D01*
X2397626Y1299634D01*
X2395957Y1297460D01*
X2394908Y1294928D01*
X2394550Y1292210D01*
Y1273810D01*
X2423450D01*
Y1302710D01*
D02*
G37*
G36*
X2465050Y1261110D02*
X2436150D01*
Y1232210D01*
X2454550D01*
X2457268Y1232568D01*
X2459800Y1233617D01*
X2461975Y1235286D01*
X2463643Y1237460D01*
X2464692Y1239992D01*
X2465050Y1242710D01*
Y1261110D01*
D02*
G37*
G36*
X2423450D02*
X2394550D01*
Y1242710D01*
X2394908Y1239992D01*
X2395957Y1237460D01*
X2397626Y1235286D01*
X2399800Y1233617D01*
X2402333Y1232568D01*
X2405050Y1232210D01*
X2423450D01*
Y1261110D01*
D02*
G37*
G36*
X2801198Y1766692D02*
X2795945Y1766347D01*
X2790781Y1765320D01*
X2785796Y1763628D01*
X2781075Y1761300D01*
X2776698Y1758375D01*
X2772740Y1754904D01*
X2769269Y1750946D01*
X2766344Y1746569D01*
X2764015Y1741847D01*
X2762323Y1736862D01*
X2761296Y1731699D01*
X2760952Y1726446D01*
X2761296Y1721192D01*
X2762323Y1716029D01*
X2764015Y1711044D01*
X2766344Y1706323D01*
X2769269Y1701945D01*
X2772740Y1697987D01*
X2776698Y1694516D01*
X2781075Y1691591D01*
X2784608Y1689849D01*
Y1387102D01*
X2784927Y1383865D01*
X2785871Y1380753D01*
X2787404Y1377885D01*
X2789467Y1375371D01*
X2847891Y1316947D01*
X2847244Y1315385D01*
X2845591Y1309648D01*
X2844591Y1303761D01*
X2844256Y1297800D01*
Y1283800D01*
X2844591Y1277839D01*
X2845591Y1271952D01*
X2847244Y1266215D01*
X2849529Y1260699D01*
X2852417Y1255473D01*
X2855872Y1250603D01*
X2859851Y1246151D01*
X2864303Y1242173D01*
X2869173Y1238717D01*
X2874398Y1235829D01*
X2879915Y1233544D01*
X2880910Y1233257D01*
Y1211750D01*
X2874020D01*
X2871302Y1211392D01*
X2868770Y1210343D01*
X2866595Y1208674D01*
X2864927Y1206500D01*
X2863878Y1203968D01*
X2863520Y1201250D01*
Y1193090D01*
X2831790D01*
Y1201250D01*
X2831432Y1203968D01*
X2830383Y1206500D01*
X2828714Y1208675D01*
X2826540Y1210344D01*
X2824008Y1211392D01*
X2821290Y1211750D01*
X2771790D01*
X2769072Y1211392D01*
X2766540Y1210344D01*
X2764366Y1208675D01*
X2762697Y1206500D01*
X2761648Y1203968D01*
X2761290Y1201250D01*
Y1151750D01*
X2761648Y1149033D01*
X2762697Y1146500D01*
X2764366Y1144326D01*
X2766540Y1142657D01*
X2769072Y1141608D01*
X2771790Y1141250D01*
X2821290D01*
X2824008Y1141608D01*
X2826540Y1142657D01*
X2828714Y1144326D01*
X2830383Y1146500D01*
X2831432Y1149033D01*
X2831790Y1151750D01*
Y1159910D01*
X2863520D01*
Y1151750D01*
X2863878Y1149033D01*
X2864927Y1146500D01*
X2866595Y1144326D01*
X2868770Y1142657D01*
X2871302Y1141608D01*
X2874020Y1141250D01*
X2923520D01*
X2926237Y1141608D01*
X2928770Y1142657D01*
X2930944Y1144326D01*
X2932613Y1146500D01*
X2933662Y1149033D01*
X2934020Y1151750D01*
Y1201250D01*
X2933662Y1203968D01*
X2932613Y1206500D01*
X2930944Y1208674D01*
X2928770Y1210343D01*
X2926237Y1211392D01*
X2923520Y1211750D01*
X2914090D01*
Y1233257D01*
X2915085Y1233544D01*
X2920601Y1235829D01*
X2925827Y1238717D01*
X2930697Y1242173D01*
X2935149Y1246151D01*
X2939127Y1250603D01*
X2942583Y1255473D01*
X2945471Y1260699D01*
X2947756Y1266215D01*
X2949409Y1271952D01*
X2950409Y1277839D01*
X2950744Y1283800D01*
Y1297800D01*
X2950409Y1303761D01*
X2949409Y1309648D01*
X2947756Y1315385D01*
X2945471Y1320902D01*
X2942583Y1326127D01*
X2939127Y1330997D01*
X2935149Y1335449D01*
X2930697Y1339428D01*
X2925827Y1342883D01*
X2920601Y1345771D01*
X2915085Y1348056D01*
X2909348Y1349709D01*
X2903461Y1350709D01*
X2897500Y1351044D01*
X2891539Y1350709D01*
X2885652Y1349709D01*
X2879915Y1348056D01*
X2874398Y1345771D01*
X2869173Y1342883D01*
X2869001Y1342761D01*
X2817788Y1393974D01*
Y1689849D01*
X2821321Y1691591D01*
X2825698Y1694516D01*
X2829656Y1697987D01*
X2833127Y1701945D01*
X2836052Y1706323D01*
X2838380Y1711044D01*
X2840073Y1716029D01*
X2841099Y1721192D01*
X2841444Y1726446D01*
X2841099Y1731699D01*
X2840073Y1736862D01*
X2838380Y1741847D01*
X2836052Y1746569D01*
X2833127Y1750946D01*
X2829656Y1754904D01*
X2825698Y1758375D01*
X2821321Y1761300D01*
X2816599Y1763628D01*
X2811614Y1765320D01*
X2806451Y1766347D01*
X2801198Y1766692D01*
D02*
G37*
G36*
X1626470Y1201773D02*
X1623471Y1201052D01*
X1619085Y1199236D01*
X1615038Y1196756D01*
X1611428Y1193672D01*
X1608345Y1190062D01*
X1605864Y1186015D01*
X1604048Y1181629D01*
X1602939Y1177013D01*
X1602567Y1172280D01*
Y1141130D01*
X1626470D01*
Y1201773D01*
D02*
G37*
G36*
X2821290Y1118750D02*
X2802890D01*
Y1089850D01*
X2831790D01*
Y1108250D01*
X2831432Y1110968D01*
X2830383Y1113500D01*
X2828714Y1115674D01*
X2826540Y1117343D01*
X2824008Y1118392D01*
X2821290Y1118750D01*
D02*
G37*
G36*
X2790190D02*
X2771790D01*
X2769072Y1118392D01*
X2766540Y1117343D01*
X2764366Y1115674D01*
X2762697Y1113500D01*
X2761648Y1110968D01*
X2761290Y1108250D01*
Y1089850D01*
X2790190D01*
Y1118750D01*
D02*
G37*
G36*
X814280Y1498470D02*
X714800D01*
X711563Y1498151D01*
X708451Y1497207D01*
X705583Y1495674D01*
X703069Y1493611D01*
X654227Y1444769D01*
X650497Y1446035D01*
X645333Y1447062D01*
X640080Y1447406D01*
X634827Y1447062D01*
X629663Y1446035D01*
X624678Y1444343D01*
X619957Y1442014D01*
X615580Y1439089D01*
X611622Y1435618D01*
X608151Y1431660D01*
X605226Y1427283D01*
X602897Y1422562D01*
X601205Y1417577D01*
X600178Y1412413D01*
X599834Y1407160D01*
X600178Y1401907D01*
X601205Y1396743D01*
X602897Y1391758D01*
X605226Y1387037D01*
X608151Y1382660D01*
X611622Y1378702D01*
X615580Y1375231D01*
X619957Y1372306D01*
X624678Y1369977D01*
X629663Y1368285D01*
X634827Y1367258D01*
X640080Y1366914D01*
X645333Y1367258D01*
X650497Y1368285D01*
X655482Y1369977D01*
X660203Y1372306D01*
X664580Y1375231D01*
X668538Y1378702D01*
X672009Y1382660D01*
X674934Y1387037D01*
X677263Y1391758D01*
X678955Y1396743D01*
X679982Y1401907D01*
X680326Y1407160D01*
X679982Y1412413D01*
X678955Y1417577D01*
X677689Y1421307D01*
X721672Y1465290D01*
X807408D01*
X889460Y1383238D01*
Y1300494D01*
X889315Y1300143D01*
X888948Y1297360D01*
Y1098360D01*
X889315Y1095577D01*
X890389Y1092984D01*
X892098Y1090757D01*
X894324Y1089048D01*
X896917Y1087974D01*
X899700Y1087608D01*
X998700D01*
X1001483Y1087974D01*
X1004076Y1089048D01*
X1006303Y1090757D01*
X1008012Y1092984D01*
X1009086Y1095577D01*
X1009452Y1098360D01*
Y1297360D01*
X1009086Y1300143D01*
X1008012Y1302736D01*
X1006303Y1304963D01*
X1004076Y1306672D01*
X1001483Y1307746D01*
X998700Y1308112D01*
X922640D01*
Y1390107D01*
X922640Y1390110D01*
X922321Y1393346D01*
X921377Y1396459D01*
X919844Y1399327D01*
X917781Y1401841D01*
X917779Y1401842D01*
X826011Y1493611D01*
X823497Y1495674D01*
X820629Y1497207D01*
X817517Y1498151D01*
X814280Y1498470D01*
D02*
G37*
G36*
X767080Y1447406D02*
X761827Y1447062D01*
X756663Y1446035D01*
X751678Y1444343D01*
X746957Y1442014D01*
X742580Y1439089D01*
X738622Y1435618D01*
X735151Y1431660D01*
X732226Y1427283D01*
X729897Y1422562D01*
X728205Y1417577D01*
X727178Y1412413D01*
X726834Y1407160D01*
X727178Y1401907D01*
X728205Y1396743D01*
X729897Y1391758D01*
X732226Y1387037D01*
X735151Y1382660D01*
X738622Y1378702D01*
X742580Y1375231D01*
X746957Y1372306D01*
X750490Y1370564D01*
Y1308112D01*
X749700D01*
X746917Y1307746D01*
X744324Y1306672D01*
X742098Y1304963D01*
X740389Y1302736D01*
X739315Y1300143D01*
X738948Y1297360D01*
Y1098360D01*
X739315Y1095577D01*
X740389Y1092984D01*
X742098Y1090757D01*
X744324Y1089048D01*
X746917Y1087974D01*
X749700Y1087608D01*
X848700D01*
X851483Y1087974D01*
X854076Y1089048D01*
X856303Y1090757D01*
X858012Y1092984D01*
X859086Y1095577D01*
X859452Y1098360D01*
Y1297360D01*
X859086Y1300143D01*
X858012Y1302736D01*
X856303Y1304963D01*
X854076Y1306672D01*
X851483Y1307746D01*
X848700Y1308112D01*
X783670D01*
Y1370564D01*
X787203Y1372306D01*
X791580Y1375231D01*
X795538Y1378702D01*
X799009Y1382660D01*
X801934Y1387037D01*
X804263Y1391758D01*
X805955Y1396743D01*
X806982Y1401907D01*
X807326Y1407160D01*
X806982Y1412413D01*
X805955Y1417577D01*
X804263Y1422562D01*
X801934Y1427283D01*
X799009Y1431660D01*
X795538Y1435618D01*
X791580Y1439089D01*
X787203Y1442014D01*
X782482Y1444343D01*
X777497Y1446035D01*
X772333Y1447062D01*
X767080Y1447406D01*
D02*
G37*
G36*
X698700Y1308112D02*
X599700D01*
X596917Y1307746D01*
X594324Y1306672D01*
X592097Y1304963D01*
X590389Y1302736D01*
X589315Y1300143D01*
X588948Y1297360D01*
Y1098360D01*
X589315Y1095577D01*
X590389Y1092984D01*
X592097Y1090757D01*
X594324Y1089048D01*
X596917Y1087974D01*
X599700Y1087608D01*
X698700D01*
X701483Y1087974D01*
X704076Y1089048D01*
X706303Y1090757D01*
X708012Y1092984D01*
X709086Y1095577D01*
X709452Y1098360D01*
Y1297360D01*
X709086Y1300143D01*
X708012Y1302736D01*
X706303Y1304963D01*
X704076Y1306672D01*
X701483Y1307746D01*
X698700Y1308112D01*
D02*
G37*
G36*
X2923520Y1111990D02*
X2905120D01*
Y1083090D01*
X2934020D01*
Y1101490D01*
X2933662Y1104208D01*
X2932613Y1106740D01*
X2930944Y1108914D01*
X2928770Y1110583D01*
X2926237Y1111632D01*
X2923520Y1111990D01*
D02*
G37*
G36*
X2892420D02*
X2874020D01*
X2871302Y1111632D01*
X2868770Y1110583D01*
X2866595Y1108914D01*
X2864927Y1106740D01*
X2863878Y1104208D01*
X2863520Y1101490D01*
Y1083090D01*
X2892420D01*
Y1111990D01*
D02*
G37*
G36*
X2461310Y1098610D02*
X2442910D01*
Y1069710D01*
X2471810D01*
Y1088110D01*
X2471452Y1090827D01*
X2470403Y1093360D01*
X2468734Y1095534D01*
X2466560Y1097203D01*
X2464028Y1098252D01*
X2461310Y1098610D01*
D02*
G37*
G36*
X2430210D02*
X2411810D01*
X2409092Y1098252D01*
X2406560Y1097203D01*
X2404386Y1095534D01*
X2402717Y1093360D01*
X2401668Y1090827D01*
X2401310Y1088110D01*
Y1069710D01*
X2430210D01*
Y1098610D01*
D02*
G37*
G36*
X1626470Y1128430D02*
X1602567D01*
Y1097280D01*
X1602939Y1092547D01*
X1604048Y1087931D01*
X1605864Y1083545D01*
X1608345Y1079498D01*
X1611428Y1075888D01*
X1615038Y1072805D01*
X1619085Y1070324D01*
X1623471Y1068508D01*
X1626470Y1067788D01*
Y1128430D01*
D02*
G37*
G36*
X2831790Y1077150D02*
X2802890D01*
Y1048250D01*
X2821290D01*
X2824008Y1048608D01*
X2826540Y1049657D01*
X2828714Y1051326D01*
X2830383Y1053500D01*
X2831432Y1056032D01*
X2831790Y1058750D01*
Y1077150D01*
D02*
G37*
G36*
X2790190D02*
X2761290D01*
Y1058750D01*
X2761648Y1056032D01*
X2762697Y1053500D01*
X2764366Y1051326D01*
X2766540Y1049657D01*
X2769072Y1048608D01*
X2771790Y1048250D01*
X2790190D01*
Y1077150D01*
D02*
G37*
G36*
X2934020Y1070390D02*
X2905120D01*
Y1041490D01*
X2923520D01*
X2926237Y1041848D01*
X2928770Y1042897D01*
X2930944Y1044566D01*
X2932613Y1046740D01*
X2933662Y1049272D01*
X2934020Y1051990D01*
Y1070390D01*
D02*
G37*
G36*
X2892420D02*
X2863520D01*
Y1051990D01*
X2863878Y1049272D01*
X2864927Y1046740D01*
X2866595Y1044566D01*
X2868770Y1042897D01*
X2871302Y1041848D01*
X2874020Y1041490D01*
X2892420D01*
Y1070390D01*
D02*
G37*
G36*
X2471810Y1057010D02*
X2442910D01*
Y1028110D01*
X2461310D01*
X2464028Y1028468D01*
X2466560Y1029517D01*
X2468734Y1031185D01*
X2470403Y1033360D01*
X2471452Y1035892D01*
X2471810Y1038610D01*
Y1057010D01*
D02*
G37*
G36*
X2430210D02*
X2401310D01*
Y1038610D01*
X2401668Y1035892D01*
X2402717Y1033360D01*
X2404386Y1031185D01*
X2406560Y1029517D01*
X2409092Y1028468D01*
X2411810Y1028110D01*
X2430210D01*
Y1057010D01*
D02*
G37*
G36*
X424390Y1065441D02*
X386190D01*
Y997790D01*
X435091D01*
Y1054740D01*
X434726Y1057510D01*
X433657Y1060091D01*
X431957Y1062307D01*
X429740Y1064008D01*
X427159Y1065077D01*
X424390Y1065441D01*
D02*
G37*
G36*
X373490D02*
X335290D01*
X332520Y1065077D01*
X329939Y1064008D01*
X327723Y1062307D01*
X326022Y1060091D01*
X324953Y1057510D01*
X324588Y1054740D01*
Y997790D01*
X373490D01*
Y1065441D01*
D02*
G37*
G36*
X2398859Y998561D02*
X2360659D01*
Y930910D01*
X2409560D01*
Y987860D01*
X2409195Y990630D01*
X2408126Y993211D01*
X2406426Y995427D01*
X2404209Y997128D01*
X2401628Y998197D01*
X2398859Y998561D01*
D02*
G37*
G36*
X2347959D02*
X2309759D01*
X2306989Y998197D01*
X2304408Y997128D01*
X2302192Y995427D01*
X2300491Y993211D01*
X2299422Y990630D01*
X2299057Y987860D01*
Y930910D01*
X2347959D01*
Y998561D01*
D02*
G37*
G36*
X435091Y985090D02*
X386190D01*
Y917439D01*
X424390D01*
X427159Y917803D01*
X429740Y918872D01*
X431957Y920573D01*
X433657Y922789D01*
X434726Y925370D01*
X435091Y928140D01*
Y985090D01*
D02*
G37*
G36*
X373490D02*
X324588D01*
Y928140D01*
X324953Y925370D01*
X326022Y922789D01*
X327723Y920573D01*
X329939Y918872D01*
X332520Y917803D01*
X335290Y917439D01*
X373490D01*
Y985090D01*
D02*
G37*
G36*
X1184175Y950406D02*
X1158350D01*
Y901505D01*
X1194750D01*
Y939830D01*
X1194390Y942567D01*
X1193334Y945118D01*
X1191653Y947308D01*
X1189463Y948989D01*
X1186912Y950045D01*
X1184175Y950406D01*
D02*
G37*
G36*
X1145650D02*
X1119825D01*
X1117088Y950045D01*
X1114537Y948989D01*
X1112347Y947308D01*
X1110666Y945118D01*
X1109610Y942567D01*
X1109249Y939830D01*
Y901505D01*
X1145650D01*
Y950406D01*
D02*
G37*
G36*
X1687810Y1048140D02*
X1638310D01*
X1635592Y1047782D01*
X1633060Y1046733D01*
X1630885Y1045064D01*
X1629217Y1042890D01*
X1628168Y1040357D01*
X1627810Y1037640D01*
Y988140D01*
X1628168Y985422D01*
X1629217Y982890D01*
X1630885Y980715D01*
X1633060Y979047D01*
X1635592Y977998D01*
X1638310Y977640D01*
X1665120D01*
Y960056D01*
X1665439Y956819D01*
X1666383Y953707D01*
X1667916Y950839D01*
X1669979Y948325D01*
X1690715Y927589D01*
X1693229Y925526D01*
X1696097Y923993D01*
X1699209Y923049D01*
X1702446Y922730D01*
X1752570D01*
Y896000D01*
X1752928Y893282D01*
X1753976Y890750D01*
X1755645Y888576D01*
X1757820Y886907D01*
X1760352Y885858D01*
X1763070Y885500D01*
X1812570D01*
X1815287Y885858D01*
X1817820Y886907D01*
X1819994Y888576D01*
X1821663Y890750D01*
X1822712Y893282D01*
X1823070Y896000D01*
Y945500D01*
X1822712Y948218D01*
X1821663Y950750D01*
X1819994Y952924D01*
X1817820Y954593D01*
X1815287Y955642D01*
X1812570Y956000D01*
X1763070D01*
X1762387Y955910D01*
X1709318D01*
X1698300Y966928D01*
Y988066D01*
X1698310Y988140D01*
Y1037640D01*
X1697952Y1040357D01*
X1696903Y1042890D01*
X1695234Y1045064D01*
X1693060Y1046733D01*
X1690527Y1047782D01*
X1687810Y1048140D01*
D02*
G37*
G36*
X849758Y955410D02*
X843012Y955031D01*
X836350Y953899D01*
X829857Y952029D01*
X823615Y949443D01*
X817701Y946174D01*
X812190Y942264D01*
X807152Y937762D01*
X802649Y932723D01*
X798739Y927213D01*
X795470Y921299D01*
X792885Y915056D01*
X791014Y908563D01*
X789882Y901902D01*
X789503Y895155D01*
X789882Y888409D01*
X791014Y881747D01*
X791885Y878725D01*
X783987Y867441D01*
X779513Y863513D01*
X709928D01*
X709565Y864389D01*
X707908Y866548D01*
X705749Y868205D01*
X703235Y869246D01*
X700537Y869601D01*
X640887D01*
X638189Y869246D01*
X635675Y868205D01*
X633516Y866548D01*
X631860Y864389D01*
X631497Y863513D01*
X599252D01*
Y864855D01*
X598888Y867618D01*
X597821Y870193D01*
X596125Y872404D01*
X593913Y874101D01*
X591338Y875168D01*
X588575Y875531D01*
X504425D01*
X501662Y875168D01*
X499087Y874101D01*
X496876Y872404D01*
X495179Y870193D01*
X494112Y867618D01*
X493749Y864855D01*
Y725705D01*
X494112Y722942D01*
X495179Y720367D01*
X496876Y718156D01*
X499087Y716459D01*
X501662Y715393D01*
X504425Y715029D01*
X588575D01*
X591338Y715393D01*
X593913Y716459D01*
X596125Y718156D01*
X597821Y720367D01*
X598888Y722942D01*
X599252Y725705D01*
Y817651D01*
X626124D01*
X630546Y808018D01*
X632110Y800449D01*
X631860Y799389D01*
X630818Y796875D01*
X630463Y794177D01*
Y783202D01*
X670712D01*
X710961D01*
Y794177D01*
X710606Y796875D01*
X709565Y799389D01*
X709314Y800449D01*
X710879Y808018D01*
X715300Y817651D01*
X795185D01*
X798772Y817934D01*
X802271Y818774D01*
X805595Y820151D01*
X808663Y822031D01*
X811399Y824368D01*
X826644Y839613D01*
X829857Y838282D01*
X836350Y836411D01*
X843012Y835280D01*
X849758Y834901D01*
X856505Y835280D01*
X863166Y836411D01*
X869659Y838282D01*
X875901Y840868D01*
X881815Y844136D01*
X887326Y848046D01*
X892364Y852549D01*
X896867Y857587D01*
X900777Y863098D01*
X904046Y869012D01*
X905376Y872225D01*
X964250D01*
Y850480D01*
X964610Y847743D01*
X965666Y845193D01*
X967347Y843002D01*
X969537Y841322D01*
X972088Y840265D01*
X974825Y839905D01*
X1003869D01*
Y815950D01*
X1004151Y812363D01*
X1004992Y808864D01*
X1006369Y805540D01*
X1008248Y802472D01*
X1010585Y799736D01*
X1049660Y760662D01*
Y306086D01*
X1049942Y302499D01*
X1050782Y299000D01*
X1052159Y295676D01*
X1054039Y292608D01*
X1056376Y289872D01*
X1081861Y264387D01*
X1084597Y262050D01*
X1087665Y260170D01*
X1090989Y258793D01*
X1094488Y257953D01*
X1098075Y257671D01*
X1109909D01*
Y228941D01*
X1088290D01*
X1085520Y228577D01*
X1082939Y227508D01*
X1080723Y225807D01*
X1079022Y223591D01*
X1077953Y221010D01*
X1077589Y218240D01*
Y91640D01*
X1077953Y88870D01*
X1079022Y86289D01*
X1080723Y84073D01*
X1082939Y82372D01*
X1085520Y81303D01*
X1088290Y80939D01*
X1177390D01*
X1180160Y81303D01*
X1182741Y82372D01*
X1184957Y84073D01*
X1186658Y86289D01*
X1187727Y88870D01*
X1188091Y91640D01*
Y218240D01*
X1187727Y221010D01*
X1186658Y223591D01*
X1184957Y225807D01*
X1182741Y227508D01*
X1180160Y228577D01*
X1177390Y228941D01*
X1155771D01*
Y257671D01*
X1345649D01*
X1347004Y255905D01*
X1349163Y254249D01*
X1351677Y253207D01*
X1354375Y252852D01*
X1424025D01*
X1426723Y253207D01*
X1429237Y254249D01*
X1431396Y255905D01*
X1433053Y258064D01*
X1434094Y260578D01*
X1434449Y263276D01*
Y297926D01*
X1434094Y300624D01*
X1433053Y303138D01*
X1431396Y305297D01*
X1429237Y306954D01*
X1426723Y307995D01*
X1424025Y308350D01*
X1412131D01*
Y397310D01*
X1413950D01*
X1416668Y397668D01*
X1419200Y398717D01*
X1421375Y400386D01*
X1423043Y402560D01*
X1424092Y405093D01*
X1424450Y407810D01*
Y409630D01*
X1608595D01*
X1610745Y408739D01*
X1613469Y408380D01*
X1667918D01*
X1670642Y408739D01*
X1673181Y409791D01*
X1675361Y411463D01*
X1677033Y413643D01*
X1678085Y416182D01*
X1678443Y418906D01*
Y508355D01*
X1678085Y511079D01*
X1677033Y513618D01*
X1675361Y515798D01*
X1673181Y517470D01*
X1670642Y518522D01*
X1667918Y518881D01*
X1613469D01*
X1610745Y518522D01*
X1608206Y517470D01*
X1606026Y515798D01*
X1604354Y513618D01*
X1603302Y511079D01*
X1602943Y508355D01*
Y455491D01*
X1424450D01*
Y457310D01*
X1424092Y460028D01*
X1423043Y462560D01*
X1421375Y464735D01*
X1419200Y466403D01*
X1416668Y467452D01*
X1413950Y467810D01*
X1364450D01*
X1361733Y467452D01*
X1359200Y466403D01*
X1357026Y464735D01*
X1355357Y462560D01*
X1354308Y460028D01*
X1353950Y457310D01*
Y407810D01*
X1354308Y405093D01*
X1355357Y402560D01*
X1357026Y400386D01*
X1359200Y398717D01*
X1361733Y397668D01*
X1364450Y397310D01*
X1366270D01*
Y308350D01*
X1354375D01*
X1351677Y307995D01*
X1349163Y306954D01*
X1347004Y305297D01*
X1345649Y303532D01*
X1107573D01*
X1095521Y315584D01*
Y747229D01*
X1114610D01*
Y723160D01*
X1114969Y720429D01*
X1116023Y717885D01*
X1117700Y715700D01*
X1119885Y714023D01*
X1122430Y712969D01*
X1125160Y712610D01*
X1224560D01*
X1227290Y712969D01*
X1229835Y714023D01*
X1232020Y715700D01*
X1233697Y717885D01*
X1234751Y720429D01*
X1235110Y723160D01*
Y782560D01*
X1234751Y785290D01*
X1233697Y787835D01*
X1232020Y790020D01*
X1229835Y791696D01*
X1227290Y792751D01*
X1224560Y793110D01*
X1125160D01*
X1125011Y793090D01*
X1082088D01*
X1049730Y825448D01*
Y850328D01*
X1049751Y850480D01*
Y939830D01*
X1049390Y942567D01*
X1048334Y945118D01*
X1046653Y947308D01*
X1044463Y948989D01*
X1041912Y950045D01*
X1039175Y950406D01*
X974825D01*
X972088Y950045D01*
X969537Y948989D01*
X967347Y947308D01*
X965666Y945118D01*
X964610Y942567D01*
X964250Y939830D01*
Y918086D01*
X905376D01*
X904046Y921299D01*
X900777Y927213D01*
X896867Y932723D01*
X892364Y937762D01*
X887326Y942264D01*
X881815Y946174D01*
X875901Y949443D01*
X869659Y952029D01*
X863166Y953899D01*
X856505Y955031D01*
X849758Y955410D01*
D02*
G37*
G36*
X2409560Y918210D02*
X2360659D01*
Y850559D01*
X2398859D01*
X2401628Y850923D01*
X2404209Y851992D01*
X2406426Y853693D01*
X2408126Y855909D01*
X2409195Y858490D01*
X2409560Y861260D01*
Y918210D01*
D02*
G37*
G36*
X2347959D02*
X2299057D01*
Y861260D01*
X2299422Y858490D01*
X2300491Y855909D01*
X2302192Y853693D01*
X2304408Y851992D01*
X2306989Y850923D01*
X2309759Y850559D01*
X2347959D01*
Y918210D01*
D02*
G37*
G36*
X1194750Y888805D02*
X1158350D01*
Y839905D01*
X1184175D01*
X1186912Y840265D01*
X1189463Y841322D01*
X1191653Y843002D01*
X1193334Y845193D01*
X1194390Y847743D01*
X1194750Y850480D01*
Y888805D01*
D02*
G37*
G36*
X1145650D02*
X1109249D01*
Y850480D01*
X1109610Y847743D01*
X1110666Y845193D01*
X1112347Y843002D01*
X1114537Y841322D01*
X1117088Y840265D01*
X1119825Y839905D01*
X1145650D01*
Y888805D01*
D02*
G37*
G36*
X710961Y770502D02*
X677062D01*
Y749103D01*
X700537D01*
X703235Y749458D01*
X705749Y750499D01*
X707908Y752156D01*
X709565Y754315D01*
X710606Y756829D01*
X710961Y759527D01*
Y770502D01*
D02*
G37*
G36*
X664362D02*
X630463D01*
Y759527D01*
X630818Y756829D01*
X631860Y754315D01*
X633516Y752156D01*
X635675Y750499D01*
X638189Y749458D01*
X640887Y749103D01*
X664362D01*
Y770502D01*
D02*
G37*
G36*
X2826105Y625482D02*
X2787780D01*
Y589081D01*
X2836680D01*
Y614906D01*
X2836320Y617643D01*
X2835264Y620194D01*
X2833583Y622384D01*
X2831393Y624065D01*
X2828842Y625121D01*
X2826105Y625482D01*
D02*
G37*
G36*
X2775080D02*
X2736755D01*
X2734018Y625121D01*
X2731467Y624065D01*
X2729277Y622384D01*
X2727597Y620194D01*
X2726540Y617643D01*
X2726180Y614906D01*
Y589081D01*
X2775080D01*
Y625482D01*
D02*
G37*
G36*
X2261733Y603531D02*
X2223359D01*
Y572131D01*
X2272259D01*
Y593005D01*
X2271900Y595730D01*
X2270848Y598268D01*
X2269176Y600448D01*
X2266996Y602120D01*
X2264457Y603172D01*
X2261733Y603531D01*
D02*
G37*
G36*
X2210659D02*
X2172284D01*
X2169560Y603172D01*
X2167021Y602120D01*
X2164841Y600448D01*
X2163169Y598268D01*
X2162117Y595730D01*
X2161758Y593005D01*
Y572131D01*
X2210659D01*
Y603531D01*
D02*
G37*
G36*
X2836680Y576381D02*
X2787780D01*
Y539981D01*
X2826105D01*
X2828842Y540341D01*
X2831393Y541397D01*
X2833583Y543078D01*
X2835264Y545268D01*
X2836320Y547819D01*
X2836680Y550556D01*
Y576381D01*
D02*
G37*
G36*
X2775080D02*
X2726180D01*
Y550556D01*
X2726540Y547819D01*
X2727597Y545268D01*
X2729277Y543078D01*
X2731467Y541397D01*
X2734018Y540341D01*
X2736755Y539981D01*
X2775080D01*
Y576381D01*
D02*
G37*
G36*
X2272259Y559431D02*
X2223359D01*
Y528031D01*
X2261733D01*
X2264457Y528389D01*
X2266996Y529441D01*
X2269176Y531113D01*
X2270848Y533293D01*
X2271900Y535832D01*
X2272259Y538556D01*
Y559431D01*
D02*
G37*
G36*
X2210659D02*
X2161758D01*
Y538556D01*
X2162117Y535832D01*
X2163169Y533293D01*
X2164841Y531113D01*
X2167021Y529441D01*
X2169560Y528389D01*
X2172284Y528031D01*
X2210659D01*
Y559431D01*
D02*
G37*
G36*
X1353820Y921626D02*
X1348567Y921282D01*
X1343403Y920255D01*
X1338418Y918563D01*
X1333697Y916234D01*
X1329320Y913309D01*
X1325362Y909838D01*
X1321891Y905880D01*
X1318966Y901503D01*
X1316637Y896782D01*
X1314945Y891797D01*
X1313918Y886633D01*
X1313574Y881380D01*
X1313918Y876127D01*
X1314945Y870963D01*
X1316637Y865978D01*
X1318966Y861257D01*
X1321891Y856880D01*
X1325362Y852922D01*
X1329320Y849451D01*
X1333697Y846526D01*
X1337230Y844784D01*
Y827654D01*
X1316689Y807113D01*
X1314626Y804599D01*
X1313093Y801731D01*
X1312149Y798618D01*
X1311830Y795382D01*
Y619650D01*
X1312149Y616414D01*
X1313093Y613302D01*
X1314626Y610433D01*
X1316689Y607919D01*
X1349829Y574779D01*
X1352343Y572716D01*
X1355212Y571183D01*
X1358324Y570239D01*
X1361560Y569920D01*
X1379610D01*
Y533160D01*
X1379969Y530429D01*
X1381023Y527885D01*
X1382700Y525700D01*
X1384885Y524023D01*
X1387430Y522969D01*
X1390160Y522610D01*
X1489560D01*
X1492290Y522969D01*
X1494835Y524023D01*
X1497020Y525700D01*
X1498697Y527885D01*
X1499751Y530429D01*
X1500110Y533160D01*
Y592560D01*
X1499751Y595290D01*
X1498697Y597835D01*
X1497020Y600020D01*
X1494835Y601697D01*
X1492290Y602751D01*
X1489560Y603110D01*
X1390160D01*
X1390083Y603100D01*
X1368432D01*
X1345010Y626522D01*
Y788510D01*
X1365549Y809050D01*
X1365551Y809051D01*
X1367614Y811565D01*
X1369147Y814433D01*
X1370091Y817545D01*
X1370410Y820782D01*
Y844784D01*
X1373943Y846526D01*
X1378320Y849451D01*
X1382278Y852922D01*
X1385749Y856880D01*
X1388674Y861257D01*
X1391003Y865978D01*
X1392695Y870963D01*
X1393722Y876127D01*
X1394066Y881380D01*
X1393722Y886633D01*
X1392695Y891797D01*
X1391003Y896782D01*
X1388674Y901503D01*
X1385749Y905880D01*
X1382278Y909838D01*
X1378320Y913309D01*
X1373943Y916234D01*
X1369222Y918563D01*
X1364237Y920255D01*
X1359073Y921282D01*
X1353820Y921626D01*
D02*
G37*
G36*
X2031733Y698531D02*
X1942284D01*
X1939559Y698172D01*
X1937021Y697121D01*
X1934841Y695448D01*
X1933169Y693268D01*
X1932117Y690730D01*
X1931758Y688005D01*
Y633556D01*
X1932117Y630832D01*
X1933169Y628293D01*
X1934841Y626114D01*
X1937021Y624441D01*
X1939559Y623389D01*
X1940963Y623204D01*
Y597635D01*
X1937751Y596304D01*
X1931837Y593035D01*
X1926326Y589125D01*
X1921287Y584623D01*
X1916785Y579585D01*
X1912875Y574074D01*
X1909606Y568160D01*
X1907021Y561917D01*
X1905150Y555424D01*
X1904018Y548763D01*
X1903639Y542016D01*
X1904018Y535270D01*
X1905150Y528609D01*
X1907021Y522116D01*
X1908352Y518903D01*
X1894982Y505534D01*
X1868443D01*
Y508355D01*
X1868085Y511079D01*
X1867033Y513618D01*
X1865361Y515798D01*
X1863181Y517470D01*
X1860642Y518522D01*
X1857918Y518881D01*
X1803469D01*
X1800744Y518522D01*
X1798206Y517470D01*
X1796026Y515798D01*
X1794354Y513618D01*
X1793302Y511079D01*
X1792943Y508355D01*
Y418906D01*
X1793302Y416182D01*
X1794354Y413643D01*
X1796026Y411463D01*
X1796519Y411085D01*
Y367811D01*
X1705100D01*
X1702330Y367446D01*
X1699749Y366377D01*
X1697533Y364677D01*
X1695832Y362460D01*
X1694763Y359879D01*
X1694398Y357110D01*
Y303532D01*
X1652751D01*
X1651396Y305297D01*
X1649237Y306954D01*
X1646723Y307995D01*
X1644025Y308350D01*
X1574375D01*
X1571677Y307995D01*
X1569163Y306954D01*
X1567004Y305297D01*
X1565347Y303138D01*
X1564306Y300624D01*
X1563951Y297926D01*
Y263276D01*
X1564306Y260578D01*
X1565347Y258064D01*
X1567004Y255905D01*
X1569163Y254249D01*
X1571677Y253207D01*
X1574375Y252852D01*
X1644025D01*
X1646723Y253207D01*
X1649237Y254249D01*
X1651396Y255905D01*
X1652751Y257671D01*
X1702349D01*
X1705100Y257308D01*
X1831700D01*
X1834470Y257673D01*
X1837050Y258742D01*
X1839267Y260443D01*
X1840967Y262659D01*
X1842036Y265240D01*
X1842401Y268010D01*
Y357110D01*
X1842381Y357266D01*
Y408380D01*
X1857918D01*
X1860642Y408739D01*
X1863181Y409791D01*
X1865361Y411463D01*
X1867033Y413643D01*
X1868085Y416182D01*
X1868443Y418906D01*
Y459672D01*
X1904481D01*
X1908068Y459955D01*
X1911566Y460795D01*
X1914891Y462172D01*
X1917959Y464052D01*
X1920695Y466389D01*
X1940780Y486474D01*
X1943993Y485143D01*
X1950486Y483273D01*
X1957147Y482141D01*
X1963894Y481762D01*
X1970640Y482141D01*
X1977302Y483273D01*
X1983795Y485143D01*
X1990037Y487729D01*
X1995951Y490997D01*
X2001462Y494908D01*
X2006500Y499410D01*
X2011003Y504448D01*
X2014913Y509959D01*
X2018182Y515873D01*
X2020767Y522116D01*
X2022638Y528609D01*
X2023770Y535270D01*
X2024149Y542016D01*
X2023770Y548763D01*
X2022638Y555424D01*
X2020767Y561917D01*
X2018182Y568160D01*
X2014913Y574074D01*
X2011003Y579585D01*
X2006500Y584623D01*
X2001462Y589125D01*
X1995951Y593035D01*
X1990037Y596304D01*
X1986825Y597635D01*
Y623031D01*
X2031733D01*
X2034457Y623389D01*
X2036996Y624441D01*
X2039176Y626114D01*
X2040848Y628293D01*
X2041900Y630832D01*
X2042259Y633556D01*
Y688005D01*
X2041900Y690730D01*
X2040848Y693268D01*
X2039176Y695448D01*
X2036996Y697121D01*
X2034457Y698172D01*
X2031733Y698531D01*
D02*
G37*
G36*
X2568599Y2362453D02*
X2563345Y2362109D01*
X2558182Y2361082D01*
X2553197Y2359390D01*
X2548475Y2357062D01*
X2544098Y2354137D01*
X2540140Y2350666D01*
X2536669Y2346708D01*
X2533744Y2342331D01*
X2531416Y2337609D01*
X2529724Y2332624D01*
X2528697Y2327461D01*
X2528353Y2322207D01*
X2528697Y2316954D01*
X2529724Y2311791D01*
X2531416Y2306806D01*
X2533744Y2302084D01*
X2536669Y2297707D01*
X2540140Y2293749D01*
X2544098Y2290278D01*
X2548475Y2287353D01*
X2553197Y2285025D01*
X2558182Y2283333D01*
X2563345Y2282306D01*
X2568599Y2281961D01*
X2573852Y2282306D01*
X2579015Y2283333D01*
X2584000Y2285025D01*
X2588722Y2287353D01*
X2593099Y2290278D01*
X2597057Y2293749D01*
X2600528Y2297707D01*
X2603453Y2302084D01*
X2604566Y2304341D01*
X2669700D01*
X2722794Y2251247D01*
X2725501Y2249025D01*
X2728590Y2247374D01*
X2731941Y2246357D01*
X2735427Y2246014D01*
X2986625D01*
Y2231749D01*
X2986983Y2229032D01*
X2988032Y2226499D01*
X2989701Y2224325D01*
X2991875Y2222656D01*
X2994408Y2221607D01*
X2997125Y2221250D01*
X3004009D01*
Y2090181D01*
X2999398Y2088271D01*
X2994173Y2085383D01*
X2989303Y2081928D01*
X2984851Y2077949D01*
X2980872Y2073497D01*
X2977417Y2068627D01*
X2974529Y2063402D01*
X2972244Y2057885D01*
X2970591Y2052148D01*
X2969591Y2046261D01*
X2969256Y2040300D01*
Y2026300D01*
X2969591Y2020339D01*
X2970591Y2014452D01*
X2972244Y2008715D01*
X2974529Y2003198D01*
X2977417Y1997973D01*
X2980872Y1993103D01*
X2984851Y1988651D01*
X2989303Y1984672D01*
X2994173Y1981217D01*
X2999398Y1978329D01*
X3004634Y1976160D01*
Y1719190D01*
X2999398Y1717021D01*
X2994173Y1714133D01*
X2989303Y1710678D01*
X2984851Y1706699D01*
X2980872Y1702247D01*
X2977417Y1697377D01*
X2974529Y1692152D01*
X2972244Y1686635D01*
X2970591Y1680898D01*
X2969591Y1675011D01*
X2969256Y1669050D01*
Y1655050D01*
X2969591Y1649089D01*
X2970591Y1643202D01*
X2972244Y1637465D01*
X2974529Y1631948D01*
X2977417Y1626723D01*
X2980872Y1621853D01*
X2984851Y1617401D01*
X2989303Y1613422D01*
X2994173Y1609967D01*
X2999398Y1607079D01*
X3004634Y1604910D01*
Y1347940D01*
X2999398Y1345771D01*
X2994173Y1342883D01*
X2989303Y1339428D01*
X2984851Y1335449D01*
X2980872Y1330997D01*
X2977417Y1326127D01*
X2974529Y1320902D01*
X2972244Y1315385D01*
X2970591Y1309648D01*
X2969591Y1303761D01*
X2969256Y1297800D01*
Y1283800D01*
X2969591Y1277839D01*
X2970591Y1271952D01*
X2972244Y1266215D01*
X2974529Y1260699D01*
X2977417Y1255473D01*
X2980872Y1250603D01*
X2984851Y1246151D01*
X2989303Y1242173D01*
X2994173Y1238717D01*
X2999398Y1235829D01*
X3004634Y1233660D01*
Y1043305D01*
X2915604Y954276D01*
X2913382Y951568D01*
X2911731Y948480D01*
X2910715Y945128D01*
X2910371Y941643D01*
Y542831D01*
X2848018Y480477D01*
X2826140D01*
X2826105Y480482D01*
X2736755D01*
X2734018Y480121D01*
X2731467Y479065D01*
X2729277Y477384D01*
X2727597Y475194D01*
X2726540Y472643D01*
X2726180Y469906D01*
Y405556D01*
X2726540Y402819D01*
X2727597Y400268D01*
X2729277Y398078D01*
X2731467Y396397D01*
X2734018Y395341D01*
X2736755Y394981D01*
X2763564D01*
Y194872D01*
X2678600D01*
X2676130Y194547D01*
X2675798Y194514D01*
X2662670Y199987D01*
X2660735Y201189D01*
X2658350Y203389D01*
Y224370D01*
X2657992Y227087D01*
X2656943Y229620D01*
X2655274Y231794D01*
X2653983Y232785D01*
Y292970D01*
X2673470D01*
X2676187Y293328D01*
X2678720Y294377D01*
X2680894Y296046D01*
X2682563Y298220D01*
X2683612Y300753D01*
X2683970Y303470D01*
Y352970D01*
X2683612Y355688D01*
X2682563Y358220D01*
X2680894Y360395D01*
X2678720Y362063D01*
X2676187Y363112D01*
X2673470Y363470D01*
X2623970D01*
X2621252Y363112D01*
X2618720Y362063D01*
X2616545Y360395D01*
X2614877Y358220D01*
X2613828Y355688D01*
X2613470Y352970D01*
Y303470D01*
X2613828Y300753D01*
X2614877Y298220D01*
X2616545Y296046D01*
X2618720Y294377D01*
X2620803Y293514D01*
Y234870D01*
X2598350D01*
X2595632Y234512D01*
X2593100Y233463D01*
X2590925Y231794D01*
X2589257Y229620D01*
X2588208Y227087D01*
X2587850Y224370D01*
Y144870D01*
X2588208Y142152D01*
X2589257Y139620D01*
X2590925Y137445D01*
X2593100Y135777D01*
X2595632Y134728D01*
X2598350Y134370D01*
X2647850D01*
X2650068Y134662D01*
X2650639Y134697D01*
X2663399Y129208D01*
X2665689Y127747D01*
X2667848Y125737D01*
Y85120D01*
X2668214Y82337D01*
X2669289Y79744D01*
X2670997Y77517D01*
X2673224Y75809D01*
X2675817Y74734D01*
X2678600Y74368D01*
X2827600D01*
X2830383Y74734D01*
X2832976Y75809D01*
X2835203Y77517D01*
X2836911Y79744D01*
X2837985Y82337D01*
X2838352Y85120D01*
Y184120D01*
X2837985Y186903D01*
X2836911Y189496D01*
X2835203Y191723D01*
X2832976Y193431D01*
X2830383Y194506D01*
X2827600Y194872D01*
X2799296D01*
Y394981D01*
X2826105D01*
X2828842Y395341D01*
X2831393Y396397D01*
X2833583Y398078D01*
X2835264Y400268D01*
X2836320Y402819D01*
X2836680Y405556D01*
Y444745D01*
X2855418D01*
X2858904Y445088D01*
X2862255Y446105D01*
X2865344Y447756D01*
X2868051Y449978D01*
X2940871Y522797D01*
X2943093Y525504D01*
X2944744Y528593D01*
X2945760Y531945D01*
X2946104Y535430D01*
Y934242D01*
X3035133Y1023272D01*
X3037355Y1025979D01*
X3039006Y1029068D01*
X3040023Y1032419D01*
X3040366Y1035905D01*
Y1233660D01*
X3045601Y1235829D01*
X3050827Y1238717D01*
X3055697Y1242173D01*
X3060149Y1246151D01*
X3064127Y1250603D01*
X3067583Y1255473D01*
X3070471Y1260699D01*
X3072756Y1266215D01*
X3074409Y1271952D01*
X3075409Y1277839D01*
X3075744Y1283800D01*
Y1297800D01*
X3075409Y1303761D01*
X3074409Y1309648D01*
X3072756Y1315385D01*
X3070471Y1320902D01*
X3067583Y1326127D01*
X3064127Y1330997D01*
X3060149Y1335449D01*
X3055697Y1339428D01*
X3050827Y1342883D01*
X3045601Y1345771D01*
X3040366Y1347940D01*
Y1604910D01*
X3045601Y1607079D01*
X3050827Y1609967D01*
X3055697Y1613422D01*
X3060149Y1617401D01*
X3064127Y1621853D01*
X3067583Y1626723D01*
X3070471Y1631948D01*
X3072756Y1637465D01*
X3074409Y1643202D01*
X3075409Y1649089D01*
X3075744Y1655050D01*
Y1669050D01*
X3075409Y1675011D01*
X3074409Y1680898D01*
X3072756Y1686635D01*
X3070471Y1692152D01*
X3067583Y1697377D01*
X3064127Y1702247D01*
X3060149Y1706699D01*
X3055697Y1710678D01*
X3050827Y1714133D01*
X3045601Y1717021D01*
X3040366Y1719190D01*
Y1976160D01*
X3045601Y1978329D01*
X3050827Y1981217D01*
X3055697Y1984672D01*
X3060149Y1988651D01*
X3064127Y1993103D01*
X3067583Y1997973D01*
X3070471Y2003198D01*
X3072756Y2008715D01*
X3074409Y2014452D01*
X3075409Y2020339D01*
X3075744Y2026300D01*
Y2040300D01*
X3075409Y2046261D01*
X3074409Y2052148D01*
X3072756Y2057885D01*
X3070471Y2063402D01*
X3067583Y2068627D01*
X3064127Y2073497D01*
X3060149Y2077949D01*
X3055697Y2081928D01*
X3050827Y2085383D01*
X3045601Y2088271D01*
X3040085Y2090556D01*
X3039741Y2090655D01*
Y2221250D01*
X3046625D01*
X3049343Y2221607D01*
X3051875Y2222656D01*
X3054050Y2224325D01*
X3055719Y2226499D01*
X3056767Y2229032D01*
X3057125Y2231749D01*
Y2281249D01*
X3056767Y2283967D01*
X3055719Y2286499D01*
X3054050Y2288674D01*
X3051875Y2290343D01*
X3049343Y2291391D01*
X3046625Y2291749D01*
X2997125D01*
X2994408Y2291391D01*
X2991875Y2290343D01*
X2989701Y2288674D01*
X2988032Y2286499D01*
X2986983Y2283967D01*
X2986691Y2281746D01*
X2742827D01*
X2689733Y2334841D01*
X2687026Y2337063D01*
X2683937Y2338714D01*
X2680585Y2339730D01*
X2677100Y2340074D01*
X2604566D01*
X2603453Y2342331D01*
X2600528Y2346708D01*
X2597057Y2350666D01*
X2593099Y2354137D01*
X2588722Y2357062D01*
X2584000Y2359390D01*
X2579015Y2361082D01*
X2573852Y2362109D01*
X2568599Y2362453D01*
D02*
G37*
G36*
X154159Y1098048D02*
X147028Y1097698D01*
X139966Y1096650D01*
X133041Y1094915D01*
X126319Y1092510D01*
X119866Y1089458D01*
X113742Y1085788D01*
X108008Y1081535D01*
X102718Y1076741D01*
X97924Y1071451D01*
X93671Y1065717D01*
X90001Y1059593D01*
X86949Y1053140D01*
X84544Y1046418D01*
X82809Y1039492D01*
X81761Y1032431D01*
X81411Y1025300D01*
X81761Y1018170D01*
X82809Y1011108D01*
X84544Y1004183D01*
X86949Y997461D01*
X90001Y991007D01*
X93671Y984884D01*
X97924Y979150D01*
X102718Y973860D01*
X108008Y969066D01*
X113742Y964813D01*
X119866Y961143D01*
X126319Y958090D01*
X133041Y955685D01*
X139966Y953950D01*
X147028Y952903D01*
X154159Y952553D01*
X161289Y952903D01*
X168351Y953950D01*
X175276Y955685D01*
X181998Y958090D01*
X184621Y959331D01*
X238349Y905602D01*
Y877131D01*
X238631Y873544D01*
X239471Y870046D01*
X240848Y866721D01*
X242728Y863653D01*
X245065Y860917D01*
X269616Y836366D01*
X272353Y834029D01*
X275421Y832149D01*
X278745Y830772D01*
X282244Y829932D01*
X283748Y829813D01*
Y725705D01*
X283876Y724738D01*
Y685525D01*
X274597D01*
X271152Y685254D01*
X267790Y684447D01*
X264597Y683125D01*
X261650Y681318D01*
X259022Y679074D01*
X256777Y676445D01*
X254971Y673498D01*
X253648Y670305D01*
X252841Y666944D01*
X252570Y663498D01*
Y572097D01*
X252731Y570047D01*
X252184Y567577D01*
X246822Y558803D01*
X246261Y558083D01*
X242646Y554556D01*
X239809Y552820D01*
X237725Y552683D01*
X232241Y551592D01*
X226945Y549795D01*
X221930Y547321D01*
X217280Y544215D01*
X213076Y540527D01*
X209388Y536323D01*
X206282Y531673D01*
X203808Y526658D01*
X202011Y521363D01*
X200920Y515878D01*
X200554Y510298D01*
X200920Y504718D01*
X202011Y499233D01*
X203808Y493937D01*
X206282Y488922D01*
X209388Y484272D01*
X213076Y480068D01*
X217280Y476381D01*
X221930Y473274D01*
X226945Y470800D01*
X232241Y469003D01*
X237725Y467912D01*
X243306Y467546D01*
X248886Y467912D01*
X254371Y469003D01*
X259666Y470800D01*
X264681Y473274D01*
X269331Y476381D01*
X271913Y478645D01*
X273540Y479357D01*
X276944Y480039D01*
X288803Y479940D01*
X294330Y477872D01*
X325964Y446238D01*
X328700Y443901D01*
X331768Y442021D01*
X335093Y440644D01*
X338591Y439804D01*
X342179Y439522D01*
X719841D01*
X723428Y439804D01*
X726927Y440644D01*
X730251Y442021D01*
X733319Y443901D01*
X736055Y446238D01*
X769392Y479575D01*
X776182Y481347D01*
X782984Y481476D01*
X788196Y480975D01*
X790285Y480317D01*
X791767Y479461D01*
X795280Y476381D01*
X799930Y473274D01*
X804945Y470800D01*
X810241Y469003D01*
X815726Y467912D01*
X821306Y467546D01*
X826886Y467912D01*
X832371Y469003D01*
X837666Y470800D01*
X842682Y473274D01*
X847331Y476381D01*
X851536Y480068D01*
X855223Y484272D01*
X858329Y488922D01*
X860803Y493937D01*
X862601Y499233D01*
X863691Y504718D01*
X864057Y510298D01*
X863691Y515878D01*
X862601Y521363D01*
X860803Y526658D01*
X858329Y531673D01*
X855223Y536323D01*
X851536Y540527D01*
X847331Y544215D01*
X842682Y547321D01*
X837666Y549795D01*
X832371Y551592D01*
X826886Y552683D01*
X824786Y552821D01*
X821951Y554556D01*
X818324Y558093D01*
X817828Y558730D01*
X812412Y567576D01*
X811863Y570044D01*
X812025Y572097D01*
Y663498D01*
X811754Y666944D01*
X810947Y670305D01*
X809624Y673498D01*
X807818Y676445D01*
X805573Y679074D01*
X802945Y681318D01*
X799997Y683125D01*
X796804Y684447D01*
X793443Y685254D01*
X789997Y685525D01*
X759318D01*
X754597Y685526D01*
X754593Y685525D01*
X751151Y685254D01*
X739407Y683520D01*
X724838Y685193D01*
X722205Y685539D01*
X722147Y685547D01*
X720884Y685547D01*
X692447D01*
X689756Y685192D01*
X687248Y684154D01*
X677346D01*
X674838Y685192D01*
X672147Y685547D01*
X642447D01*
X639756Y685192D01*
X637248Y684154D01*
X627346D01*
X624838Y685192D01*
X622147Y685547D01*
X592447D01*
X589756Y685192D01*
X587248Y684154D01*
X577347D01*
X574838Y685192D01*
X572147Y685547D01*
X542447D01*
X539756Y685192D01*
X537248Y684154D01*
X527347D01*
X524838Y685192D01*
X522147Y685547D01*
X492447D01*
X489756Y685192D01*
X487248Y684154D01*
X477346D01*
X474838Y685192D01*
X472147Y685547D01*
X442447D01*
X439756Y685192D01*
X437247Y684154D01*
X427346D01*
X424838Y685192D01*
X422147Y685547D01*
X392447D01*
X389756Y685192D01*
X387247Y684154D01*
X377346D01*
X374838Y685192D01*
X372147Y685547D01*
X343216Y685547D01*
X332029Y699011D01*
X336576Y715029D01*
X378575D01*
X381338Y715393D01*
X383913Y716459D01*
X386124Y718156D01*
X387821Y720367D01*
X388888Y722942D01*
X389251Y725705D01*
Y864855D01*
X388888Y867618D01*
X387821Y870193D01*
X386124Y872404D01*
X383913Y874101D01*
X381338Y875168D01*
X378575Y875531D01*
X295308D01*
X284210Y886629D01*
Y915101D01*
X283928Y918688D01*
X283088Y922186D01*
X281711Y925511D01*
X279831Y928579D01*
X277494Y931315D01*
X218124Y990685D01*
X218316Y991007D01*
X221369Y997461D01*
X223774Y1004183D01*
X225509Y1011108D01*
X226556Y1018170D01*
X226906Y1025300D01*
X226556Y1032431D01*
X225509Y1039492D01*
X223774Y1046418D01*
X221369Y1053140D01*
X218316Y1059593D01*
X214646Y1065717D01*
X210393Y1071451D01*
X205599Y1076741D01*
X200309Y1081535D01*
X194575Y1085788D01*
X188452Y1089458D01*
X181998Y1092510D01*
X175276Y1094915D01*
X168351Y1096650D01*
X161289Y1097698D01*
X154159Y1098048D01*
D02*
G37*
G36*
X2122236Y465247D02*
X2105000D01*
X2104996Y465246D01*
X2087764Y465247D01*
X2086767Y465116D01*
X2085764Y465050D01*
X2051954Y458325D01*
X2051003Y458002D01*
X2050032Y457742D01*
X2018184Y444550D01*
X2017313Y444047D01*
X2016412Y443603D01*
X1987750Y424451D01*
X1986995Y423789D01*
X1986197Y423177D01*
X1961822Y398801D01*
X1961210Y398004D01*
X1960547Y397248D01*
X1941396Y368586D01*
X1940952Y367686D01*
X1940449Y366815D01*
X1927257Y334966D01*
X1926997Y333996D01*
X1926674Y333044D01*
X1919949Y299235D01*
X1919883Y298231D01*
X1919752Y297235D01*
X1919752Y279999D01*
X1919752Y262762D01*
X1919883Y261766D01*
X1919949Y260763D01*
X1926673Y226954D01*
X1926997Y226002D01*
X1927256Y225031D01*
X1940448Y193184D01*
X1940950Y192314D01*
X1941395Y191412D01*
X1960546Y162750D01*
X1961208Y161995D01*
X1961821Y161197D01*
X1986196Y136821D01*
X1986992Y136210D01*
X1987749Y135547D01*
X2016411Y116395D01*
X2017311Y115952D01*
X2018182Y115449D01*
X2050030Y102257D01*
X2051001Y101997D01*
X2051953Y101674D01*
X2085762Y94949D01*
X2086765Y94883D01*
X2087762Y94752D01*
X2104997Y94752D01*
X2122233Y94752D01*
X2123229Y94883D01*
X2124233Y94949D01*
X2158043Y101673D01*
X2158994Y101996D01*
X2159965Y102256D01*
X2191814Y115448D01*
X2192684Y115950D01*
X2193585Y116395D01*
X2222248Y135546D01*
X2223003Y136208D01*
X2223801Y136821D01*
X2248177Y161197D01*
X2248788Y161993D01*
X2249451Y162749D01*
X2268604Y191412D01*
X2269048Y192314D01*
X2269550Y193184D01*
X2282742Y225032D01*
X2283003Y226003D01*
X2283326Y226955D01*
X2290051Y260765D01*
X2290116Y261768D01*
X2290247Y262764D01*
X2290247Y280000D01*
Y297236D01*
X2290116Y298233D01*
X2290050Y299235D01*
X2283325Y333045D01*
X2283002Y333996D01*
X2282742Y334967D01*
X2269550Y366815D01*
X2269047Y367686D01*
X2268603Y368587D01*
X2249451Y397249D01*
X2248789Y398004D01*
X2248177Y398802D01*
X2223801Y423177D01*
X2223005Y423789D01*
X2222249Y424452D01*
X2193586Y443603D01*
X2192686Y444047D01*
X2191815Y444550D01*
X2159967Y457742D01*
X2158996Y458002D01*
X2158044Y458325D01*
X2124235Y465050D01*
X2123232Y465116D01*
X2122236Y465247D01*
D02*
G37*
G36*
X965297Y675552D02*
X958551Y675173D01*
X951889Y674042D01*
X945396Y672171D01*
X939154Y669585D01*
X933240Y666317D01*
X927729Y662407D01*
X922691Y657904D01*
X918188Y652866D01*
X914278Y647355D01*
X911010Y641441D01*
X908424Y635199D01*
X906553Y628706D01*
X905422Y622044D01*
X905043Y615298D01*
Y505297D01*
X905422Y498551D01*
X906553Y491890D01*
X908424Y485397D01*
X911010Y479154D01*
X914278Y473240D01*
X918188Y467729D01*
X922691Y462691D01*
X927729Y458189D01*
X933240Y454278D01*
X939154Y451010D01*
X945396Y448424D01*
X951889Y446554D01*
X958551Y445422D01*
X965297Y445043D01*
X972044Y445422D01*
X978705Y446554D01*
X985198Y448424D01*
X991441Y451010D01*
X997355Y454278D01*
X1002865Y458189D01*
X1007904Y462691D01*
X1012406Y467729D01*
X1016316Y473240D01*
X1019585Y479154D01*
X1022171Y485397D01*
X1024041Y491890D01*
X1025173Y498551D01*
X1025552Y505297D01*
Y615298D01*
X1025173Y622044D01*
X1024041Y628706D01*
X1022171Y635199D01*
X1019585Y641441D01*
X1016316Y647355D01*
X1012406Y652866D01*
X1007904Y657904D01*
X1002865Y662407D01*
X997355Y666317D01*
X991441Y669585D01*
X985198Y672171D01*
X978705Y674042D01*
X972044Y675173D01*
X965297Y675552D01*
D02*
G37*
G36*
X101297D02*
X94551Y675173D01*
X87889Y674042D01*
X81396Y672171D01*
X75154Y669585D01*
X69240Y666317D01*
X63729Y662407D01*
X58691Y657904D01*
X54188Y652866D01*
X50278Y647355D01*
X47010Y641441D01*
X44424Y635199D01*
X42553Y628706D01*
X41422Y622044D01*
X41043Y615298D01*
Y505297D01*
X41422Y498551D01*
X42553Y491890D01*
X44424Y485397D01*
X47010Y479154D01*
X50278Y473240D01*
X54188Y467729D01*
X58691Y462691D01*
X63729Y458189D01*
X69240Y454278D01*
X75154Y451010D01*
X81396Y448424D01*
X87889Y446554D01*
X94551Y445422D01*
X101297Y445043D01*
X108044Y445422D01*
X114705Y446554D01*
X121198Y448424D01*
X127441Y451010D01*
X133355Y454278D01*
X138865Y458189D01*
X143904Y462691D01*
X148406Y467729D01*
X152316Y473240D01*
X155585Y479154D01*
X158171Y485397D01*
X160041Y491890D01*
X161173Y498551D01*
X161552Y505297D01*
Y615298D01*
X161173Y622044D01*
X160041Y628706D01*
X158171Y635199D01*
X155585Y641441D01*
X152316Y647355D01*
X148406Y652866D01*
X143904Y657904D01*
X138865Y662407D01*
X133355Y666317D01*
X127441Y669585D01*
X121198Y672171D01*
X114705Y674042D01*
X108044Y675173D01*
X101297Y675552D01*
D02*
G37*
G36*
X1314190Y467810D02*
X1295790D01*
Y438910D01*
X1324690D01*
Y457310D01*
X1324332Y460028D01*
X1323283Y462560D01*
X1321615Y464735D01*
X1319440Y466403D01*
X1316908Y467452D01*
X1314190Y467810D01*
D02*
G37*
G36*
X1283090D02*
X1264690D01*
X1261973Y467452D01*
X1259440Y466403D01*
X1257266Y464735D01*
X1255597Y462560D01*
X1254548Y460028D01*
X1254190Y457310D01*
Y438910D01*
X1283090D01*
Y467810D01*
D02*
G37*
G36*
X1224560Y603110D02*
X1125160D01*
X1122430Y602751D01*
X1119885Y601697D01*
X1117700Y600020D01*
X1116023Y597835D01*
X1114969Y595290D01*
X1114610Y592560D01*
Y533160D01*
X1114969Y530429D01*
X1116023Y527885D01*
X1117700Y525700D01*
X1119885Y524023D01*
X1122430Y522969D01*
X1125160Y522610D01*
X1137001D01*
Y491940D01*
X1128841D01*
X1126123Y491582D01*
X1123591Y490533D01*
X1121416Y488865D01*
X1119748Y486690D01*
X1118699Y484158D01*
X1118341Y481440D01*
Y431940D01*
X1118699Y429223D01*
X1119748Y426690D01*
X1121416Y424516D01*
X1123591Y422847D01*
X1126123Y421798D01*
X1128841Y421440D01*
X1178341D01*
X1181058Y421798D01*
X1183591Y422847D01*
X1185765Y424516D01*
X1187434Y426690D01*
X1188483Y429223D01*
X1188841Y431940D01*
Y481440D01*
X1188483Y484158D01*
X1187434Y486690D01*
X1185765Y488865D01*
X1183591Y490533D01*
X1181058Y491582D01*
X1178341Y491940D01*
X1170181D01*
Y522610D01*
X1224560D01*
X1227290Y522969D01*
X1229835Y524023D01*
X1232020Y525700D01*
X1233697Y527885D01*
X1234751Y530429D01*
X1235110Y533160D01*
Y592560D01*
X1234751Y595290D01*
X1233697Y597835D01*
X1232020Y600020D01*
X1229835Y601697D01*
X1227290Y602751D01*
X1224560Y603110D01*
D02*
G37*
G36*
X1324690Y426210D02*
X1295790D01*
Y397310D01*
X1314190D01*
X1316908Y397668D01*
X1319440Y398717D01*
X1321615Y400386D01*
X1323283Y402560D01*
X1324332Y405093D01*
X1324690Y407810D01*
Y426210D01*
D02*
G37*
G36*
X1283090D02*
X1254190D01*
Y407810D01*
X1254548Y405093D01*
X1255597Y402560D01*
X1257266Y400386D01*
X1259440Y398717D01*
X1261973Y397668D01*
X1264690Y397310D01*
X1283090D01*
Y426210D01*
D02*
G37*
G36*
X2634705Y2030020D02*
X2156823D01*
X2153586Y2029701D01*
X2150474Y2028757D01*
X2147606Y2027224D01*
X2145092Y2025161D01*
X1983069Y1863139D01*
X1981006Y1860624D01*
X1979473Y1857756D01*
X1978529Y1854644D01*
X1978210Y1851408D01*
Y1810903D01*
X1978529Y1807666D01*
X1979473Y1804554D01*
X1981006Y1801686D01*
X1983069Y1799172D01*
X2006230Y1776011D01*
Y1757486D01*
X2005038Y1756755D01*
X2001428Y1753672D01*
X2000931Y1753090D01*
X1999085Y1752282D01*
X1990320Y1751123D01*
X1981555Y1752282D01*
X1979709Y1753090D01*
X1979212Y1753672D01*
X1975602Y1756755D01*
X1971555Y1759236D01*
X1967169Y1761052D01*
X1964170Y1761772D01*
Y1694780D01*
Y1627787D01*
X1967169Y1628508D01*
X1971555Y1630324D01*
X1975602Y1632804D01*
X1979212Y1635888D01*
X1979709Y1636470D01*
X1981555Y1637278D01*
X1990320Y1638437D01*
X1999085Y1637278D01*
X2000931Y1636470D01*
X2001428Y1635888D01*
X2005038Y1632804D01*
X2009085Y1630324D01*
X2013471Y1628508D01*
X2018087Y1627399D01*
X2022820Y1627027D01*
X2027552Y1627399D01*
X2032169Y1628508D01*
X2036554Y1630324D01*
X2040602Y1632804D01*
X2044212Y1635888D01*
X2044709Y1636470D01*
X2046555Y1637278D01*
X2055320Y1638437D01*
X2064085Y1637278D01*
X2065931Y1636470D01*
X2066428Y1635888D01*
X2070038Y1632804D01*
X2074086Y1630324D01*
X2078471Y1628508D01*
X2083088Y1627399D01*
X2087820Y1627027D01*
X2092553Y1627399D01*
X2097169Y1628508D01*
X2101555Y1630324D01*
X2105602Y1632804D01*
X2109212Y1635888D01*
X2109709Y1636470D01*
X2111555Y1637278D01*
X2120320Y1638437D01*
X2129085Y1637278D01*
X2130931Y1636470D01*
X2131428Y1635888D01*
X2135038Y1632804D01*
X2139085Y1630324D01*
X2143471Y1628508D01*
X2148087Y1627399D01*
X2152820Y1627027D01*
X2157552Y1627399D01*
X2162169Y1628508D01*
X2166554Y1630324D01*
X2170602Y1632804D01*
X2174212Y1635888D01*
X2174709Y1636470D01*
X2176555Y1637278D01*
X2185320Y1638437D01*
X2194085Y1637278D01*
X2195931Y1636470D01*
X2196428Y1635888D01*
X2200038Y1632804D01*
X2204086Y1630324D01*
X2208471Y1628508D01*
X2213088Y1627399D01*
X2217820Y1627027D01*
X2222553Y1627399D01*
X2227169Y1628508D01*
X2231555Y1630324D01*
X2235602Y1632804D01*
X2239212Y1635888D01*
X2242295Y1639498D01*
X2244776Y1643545D01*
X2246592Y1647931D01*
X2247701Y1652547D01*
X2248073Y1657280D01*
Y1732280D01*
X2247701Y1737013D01*
X2246592Y1741629D01*
X2244776Y1746015D01*
X2242295Y1750062D01*
X2239212Y1753672D01*
X2235602Y1756755D01*
X2231555Y1759236D01*
X2227169Y1761052D01*
X2222553Y1762161D01*
X2217820Y1762533D01*
X2213088Y1762161D01*
X2208471Y1761052D01*
X2204086Y1759236D01*
X2200038Y1756755D01*
X2196428Y1753672D01*
X2195931Y1753090D01*
X2194085Y1752282D01*
X2185320Y1751123D01*
X2176555Y1752282D01*
X2174709Y1753090D01*
X2174212Y1753672D01*
X2170602Y1756755D01*
X2169410Y1757486D01*
Y1774324D01*
X2288760Y1893673D01*
X2576779D01*
X2606945Y1863508D01*
Y811828D01*
X2426989Y631872D01*
X2424926Y629358D01*
X2423393Y626490D01*
X2422449Y623378D01*
X2422130Y620141D01*
Y463230D01*
X2413970D01*
X2411253Y462872D01*
X2408720Y461823D01*
X2406546Y460155D01*
X2404877Y457980D01*
X2403828Y455448D01*
X2403470Y452730D01*
Y403230D01*
X2403828Y400513D01*
X2404877Y397980D01*
X2406546Y395806D01*
X2408720Y394137D01*
X2411253Y393088D01*
X2413970Y392730D01*
X2463470D01*
X2466188Y393088D01*
X2468720Y394137D01*
X2470895Y395806D01*
X2472564Y397980D01*
X2473612Y400513D01*
X2473970Y403230D01*
Y452730D01*
X2473612Y455448D01*
X2472564Y457980D01*
X2470895Y460155D01*
X2468720Y461823D01*
X2466188Y462872D01*
X2463470Y463230D01*
X2455310D01*
Y613269D01*
X2635266Y793225D01*
X2637329Y795739D01*
X2638862Y798607D01*
X2639806Y801720D01*
X2640125Y804956D01*
X2640125Y804959D01*
Y1870379D01*
X2639806Y1873616D01*
X2638862Y1876728D01*
X2637329Y1879596D01*
X2635266Y1882110D01*
X2635264Y1882112D01*
X2595382Y1921994D01*
X2592868Y1924057D01*
X2590000Y1925591D01*
X2586887Y1926535D01*
X2583651Y1926853D01*
X2281890D01*
X2281888Y1926854D01*
X2278651Y1926535D01*
X2275539Y1925591D01*
X2272671Y1924057D01*
X2270157Y1921994D01*
X2141089Y1792927D01*
X2139026Y1790412D01*
X2137493Y1787544D01*
X2136549Y1784432D01*
X2136230Y1781196D01*
Y1757486D01*
X2135038Y1756755D01*
X2131428Y1753672D01*
X2130931Y1753090D01*
X2129085Y1752282D01*
X2120320Y1751123D01*
X2111555Y1752282D01*
X2109709Y1753090D01*
X2109212Y1753672D01*
X2105602Y1756755D01*
X2104410Y1757486D01*
Y1853423D01*
X2196358Y1945371D01*
X2606025D01*
X2658153Y1893242D01*
Y752184D01*
X2531989Y626020D01*
X2529926Y623506D01*
X2528393Y620638D01*
X2527449Y617526D01*
X2527130Y614289D01*
Y463230D01*
X2518970D01*
X2516252Y462872D01*
X2513720Y461823D01*
X2511545Y460155D01*
X2509877Y457980D01*
X2508828Y455448D01*
X2508470Y452730D01*
Y403230D01*
X2508828Y400513D01*
X2509877Y397980D01*
X2511545Y395806D01*
X2513720Y394137D01*
X2516252Y393088D01*
X2518970Y392730D01*
X2568470D01*
X2571187Y393088D01*
X2573720Y394137D01*
X2575894Y395806D01*
X2577563Y397980D01*
X2578612Y400513D01*
X2578970Y403230D01*
Y452730D01*
X2578612Y455448D01*
X2577563Y457980D01*
X2575894Y460155D01*
X2573720Y461823D01*
X2571187Y462872D01*
X2568470Y463230D01*
X2560310D01*
Y607417D01*
X2686473Y733580D01*
X2686474Y733582D01*
X2688537Y736096D01*
X2690071Y738964D01*
X2691015Y742076D01*
X2691333Y745313D01*
Y1900112D01*
X2691334Y1900114D01*
X2691015Y1903351D01*
X2690071Y1906463D01*
X2688537Y1909331D01*
X2686474Y1911845D01*
X2624628Y1973692D01*
X2622114Y1975754D01*
X2619246Y1977288D01*
X2616133Y1978232D01*
X2612897Y1978551D01*
X2189486D01*
X2186250Y1978232D01*
X2183137Y1977288D01*
X2180269Y1975754D01*
X2177755Y1973692D01*
X2076089Y1872025D01*
X2074026Y1869511D01*
X2072493Y1866643D01*
X2071549Y1863531D01*
X2071230Y1860294D01*
Y1757486D01*
X2070038Y1756755D01*
X2066428Y1753672D01*
X2065931Y1753090D01*
X2064085Y1752282D01*
X2055320Y1751123D01*
X2046555Y1752282D01*
X2044709Y1753090D01*
X2044212Y1753672D01*
X2040602Y1756755D01*
X2039410Y1757486D01*
Y1782881D01*
X2039410Y1782883D01*
X2039091Y1786120D01*
X2038147Y1789232D01*
X2036614Y1792100D01*
X2034551Y1794614D01*
X2034549Y1794615D01*
X2011390Y1817775D01*
Y1844536D01*
X2163695Y1996840D01*
X2627833D01*
X2709165Y1915508D01*
Y695647D01*
X2636989Y623471D01*
X2634926Y620957D01*
X2633392Y618089D01*
X2632448Y614977D01*
X2632130Y611740D01*
Y463230D01*
X2623970D01*
X2621252Y462872D01*
X2618720Y461823D01*
X2616545Y460155D01*
X2614877Y457980D01*
X2613828Y455448D01*
X2613470Y452730D01*
Y403230D01*
X2613828Y400513D01*
X2614877Y397980D01*
X2616545Y395806D01*
X2618720Y394137D01*
X2621252Y393088D01*
X2623970Y392730D01*
X2673470D01*
X2676187Y393088D01*
X2678720Y394137D01*
X2680894Y395806D01*
X2682563Y397980D01*
X2683612Y400513D01*
X2683970Y403230D01*
Y452730D01*
X2683612Y455448D01*
X2682563Y457980D01*
X2680894Y460155D01*
X2678720Y461823D01*
X2676187Y462872D01*
X2673470Y463230D01*
X2665310D01*
Y604868D01*
X2737486Y677044D01*
X2739549Y679558D01*
X2741082Y682427D01*
X2742026Y685539D01*
X2742345Y688775D01*
Y1922380D01*
X2742026Y1925616D01*
X2741082Y1928729D01*
X2739549Y1931597D01*
X2737486Y1934111D01*
X2646436Y2025161D01*
X2643922Y2027224D01*
X2641053Y2028757D01*
X2637941Y2029701D01*
X2634705Y2030020D01*
D02*
G37*
G36*
X1178341Y392180D02*
X1159941D01*
Y363280D01*
X1188841D01*
Y381680D01*
X1188483Y384398D01*
X1187434Y386930D01*
X1185765Y389105D01*
X1183591Y390773D01*
X1181058Y391822D01*
X1178341Y392180D01*
D02*
G37*
G36*
X1147241D02*
X1128841D01*
X1126123Y391822D01*
X1123591Y390773D01*
X1121416Y389105D01*
X1119748Y386930D01*
X1118699Y384398D01*
X1118341Y381680D01*
Y363280D01*
X1147241D01*
Y392180D01*
D02*
G37*
G36*
X1188841Y350580D02*
X1159941D01*
Y321680D01*
X1178341D01*
X1181058Y322038D01*
X1183591Y323087D01*
X1185765Y324756D01*
X1187434Y326930D01*
X1188483Y329463D01*
X1188841Y332180D01*
Y350580D01*
D02*
G37*
G36*
X1147241D02*
X1118341D01*
Y332180D01*
X1118699Y329463D01*
X1119748Y326930D01*
X1121416Y324756D01*
X1123591Y323087D01*
X1126123Y322038D01*
X1128841Y321680D01*
X1147241D01*
Y350580D01*
D02*
G37*
G36*
X2568470Y363470D02*
X2518970D01*
X2516252Y363112D01*
X2513720Y362063D01*
X2511545Y360395D01*
X2509877Y358220D01*
X2508828Y355688D01*
X2508470Y352970D01*
Y303470D01*
X2508828Y300753D01*
X2509877Y298220D01*
X2511545Y296046D01*
X2513720Y294377D01*
X2516252Y293328D01*
X2518970Y292970D01*
X2521820D01*
Y234870D01*
X2508350D01*
X2505633Y234512D01*
X2503100Y233463D01*
X2500926Y231794D01*
X2499257Y229620D01*
X2498208Y227087D01*
X2497850Y224370D01*
Y203389D01*
X2495465Y201189D01*
X2493530Y199987D01*
X2480402Y194514D01*
X2480070Y194547D01*
X2477600Y194872D01*
X2455310D01*
Y292970D01*
X2463470D01*
X2466188Y293328D01*
X2468720Y294377D01*
X2470895Y296046D01*
X2472564Y298220D01*
X2473612Y300753D01*
X2473970Y303470D01*
Y352970D01*
X2473612Y355688D01*
X2472564Y358220D01*
X2470895Y360395D01*
X2468720Y362063D01*
X2466188Y363112D01*
X2463470Y363470D01*
X2413970D01*
X2411253Y363112D01*
X2408720Y362063D01*
X2406546Y360395D01*
X2404877Y358220D01*
X2403828Y355688D01*
X2403470Y352970D01*
Y303470D01*
X2403828Y300753D01*
X2404877Y298220D01*
X2406546Y296046D01*
X2408720Y294377D01*
X2411253Y293328D01*
X2413970Y292970D01*
X2422130D01*
Y194872D01*
X2328600D01*
X2325817Y194506D01*
X2323224Y193431D01*
X2320997Y191723D01*
X2319289Y189496D01*
X2318215Y186903D01*
X2317848Y184120D01*
Y85120D01*
X2318215Y82337D01*
X2319289Y79744D01*
X2320997Y77517D01*
X2323224Y75809D01*
X2325817Y74734D01*
X2328600Y74368D01*
X2477600D01*
X2480383Y74734D01*
X2482976Y75809D01*
X2485203Y77517D01*
X2486911Y79744D01*
X2487986Y82337D01*
X2488352Y85120D01*
Y125737D01*
X2490511Y127747D01*
X2492801Y129208D01*
X2505561Y134697D01*
X2506132Y134662D01*
X2508350Y134370D01*
X2557850D01*
X2560568Y134728D01*
X2563100Y135777D01*
X2565275Y137445D01*
X2566943Y139620D01*
X2567992Y142152D01*
X2568350Y144870D01*
Y224370D01*
X2567992Y227087D01*
X2566943Y229620D01*
X2565275Y231794D01*
X2563100Y233463D01*
X2560568Y234512D01*
X2557850Y234870D01*
X2555000D01*
Y292970D01*
X2568470D01*
X2571187Y293328D01*
X2573720Y294377D01*
X2575894Y296046D01*
X2577563Y298220D01*
X2578612Y300753D01*
X2578970Y303470D01*
Y352970D01*
X2578612Y355688D01*
X2577563Y358220D01*
X2575894Y360395D01*
X2573720Y362063D01*
X2571187Y363112D01*
X2568470Y363470D01*
D02*
G37*
G36*
X1352630Y228941D02*
X1314430D01*
Y161290D01*
X1363331D01*
Y218240D01*
X1362967Y221010D01*
X1361897Y223591D01*
X1360197Y225807D01*
X1357981Y227508D01*
X1355400Y228577D01*
X1352630Y228941D01*
D02*
G37*
G36*
X1301730D02*
X1263530D01*
X1260760Y228577D01*
X1258179Y227508D01*
X1255963Y225807D01*
X1254262Y223591D01*
X1253193Y221010D01*
X1252829Y218240D01*
Y161290D01*
X1301730D01*
Y228941D01*
D02*
G37*
G36*
X1831700Y192571D02*
X1774750D01*
Y143670D01*
X1842401D01*
Y181870D01*
X1842036Y184639D01*
X1840967Y187220D01*
X1839267Y189437D01*
X1837050Y191137D01*
X1834470Y192206D01*
X1831700Y192571D01*
D02*
G37*
G36*
X1762050D02*
X1705100D01*
X1702330Y192206D01*
X1699749Y191137D01*
X1697533Y189437D01*
X1695832Y187220D01*
X1694763Y184639D01*
X1694398Y181870D01*
Y143670D01*
X1762050D01*
Y192571D01*
D02*
G37*
G36*
X1842401Y130970D02*
X1774750D01*
Y82068D01*
X1831700D01*
X1834470Y82433D01*
X1837050Y83502D01*
X1839267Y85203D01*
X1840967Y87419D01*
X1842036Y90000D01*
X1842401Y92770D01*
Y130970D01*
D02*
G37*
G36*
X1762050D02*
X1694398D01*
Y92770D01*
X1694763Y90000D01*
X1695832Y87419D01*
X1697533Y85203D01*
X1699749Y83502D01*
X1702330Y82433D01*
X1705100Y82068D01*
X1762050D01*
Y130970D01*
D02*
G37*
G36*
X1363331Y148590D02*
X1314430D01*
Y80939D01*
X1352630D01*
X1355400Y81303D01*
X1357981Y82372D01*
X1360197Y84073D01*
X1361897Y86289D01*
X1362967Y88870D01*
X1363331Y91640D01*
Y148590D01*
D02*
G37*
G36*
X1301730D02*
X1252829D01*
Y91640D01*
X1253193Y88870D01*
X1254262Y86289D01*
X1255963Y84073D01*
X1258179Y82372D01*
X1260760Y81303D01*
X1263530Y80939D01*
X1301730D01*
Y148590D01*
D02*
G37*
G36*
X965297Y242552D02*
X958551Y242173D01*
X951889Y241041D01*
X945396Y239171D01*
X939154Y236585D01*
X933240Y233317D01*
X927729Y229406D01*
X922691Y224904D01*
X918188Y219866D01*
X914278Y214355D01*
X911010Y208441D01*
X908424Y202198D01*
X906553Y195705D01*
X905422Y189044D01*
X905043Y182298D01*
Y102298D01*
X905422Y95551D01*
X906553Y88890D01*
X908424Y82397D01*
X911010Y76154D01*
X914278Y70240D01*
X918188Y64730D01*
X922691Y59691D01*
X927729Y55189D01*
X933240Y51279D01*
X939154Y48010D01*
X945396Y45424D01*
X951889Y43554D01*
X958551Y42422D01*
X965297Y42043D01*
X972044Y42422D01*
X978705Y43554D01*
X985198Y45424D01*
X991441Y48010D01*
X997355Y51279D01*
X1002865Y55189D01*
X1007904Y59691D01*
X1012406Y64730D01*
X1016316Y70240D01*
X1019585Y76154D01*
X1022171Y82397D01*
X1024041Y88890D01*
X1025173Y95551D01*
X1025552Y102298D01*
Y182298D01*
X1025173Y189044D01*
X1024041Y195705D01*
X1022171Y202198D01*
X1019585Y208441D01*
X1016316Y214355D01*
X1012406Y219866D01*
X1007904Y224904D01*
X1002865Y229406D01*
X997355Y233317D01*
X991441Y236585D01*
X985198Y239171D01*
X978705Y241041D01*
X972044Y242173D01*
X965297Y242552D01*
D02*
G37*
G36*
X101297D02*
X94551Y242173D01*
X87889Y241041D01*
X81396Y239171D01*
X75154Y236585D01*
X69240Y233317D01*
X63729Y229406D01*
X58691Y224904D01*
X54188Y219866D01*
X50278Y214355D01*
X47010Y208441D01*
X44424Y202198D01*
X42553Y195705D01*
X41422Y189044D01*
X41043Y182298D01*
Y102298D01*
X41422Y95551D01*
X42553Y88890D01*
X44424Y82397D01*
X47010Y76154D01*
X50278Y70240D01*
X54188Y64730D01*
X58691Y59691D01*
X63729Y55189D01*
X69240Y51279D01*
X75154Y48010D01*
X81396Y45424D01*
X87889Y43554D01*
X94551Y42422D01*
X101297Y42043D01*
X108044Y42422D01*
X114705Y43554D01*
X121198Y45424D01*
X127441Y48010D01*
X133355Y51279D01*
X138865Y55189D01*
X143904Y59691D01*
X148406Y64730D01*
X152316Y70240D01*
X155585Y76154D01*
X158171Y82397D01*
X160041Y88890D01*
X161173Y95551D01*
X161552Y102298D01*
Y182298D01*
X161173Y189044D01*
X160041Y195705D01*
X158171Y202198D01*
X155585Y208441D01*
X152316Y214355D01*
X148406Y219866D01*
X143904Y224904D01*
X138865Y229406D01*
X133355Y233317D01*
X127441Y236585D01*
X121198Y239171D01*
X114705Y241041D01*
X108044Y242173D01*
X101297Y242552D01*
D02*
G37*
%LPD*%
G36*
X689756Y550403D02*
X692447Y550049D01*
X722147Y550048D01*
X730628Y539435D01*
X733175Y534611D01*
Y508215D01*
X710343Y485383D01*
X351677D01*
X331436Y505623D01*
Y534604D01*
X333971Y539418D01*
X342447Y550048D01*
X349216Y550049D01*
X372147D01*
X374838Y550403D01*
X377346Y551442D01*
X387247D01*
X389756Y550403D01*
X392447Y550049D01*
X422147D01*
X424838Y550403D01*
X427346Y551442D01*
X437247D01*
X439756Y550403D01*
X442447Y550049D01*
X472147D01*
X474838Y550403D01*
X477346Y551442D01*
X487248D01*
X489756Y550403D01*
X492447Y550049D01*
X522147D01*
X524838Y550403D01*
X527347Y551442D01*
X537248D01*
X539756Y550403D01*
X542447Y550049D01*
X572147D01*
X574838Y550403D01*
X577347Y551442D01*
X587248D01*
X589756Y550403D01*
X592447Y550049D01*
X622147D01*
X624838Y550403D01*
X627346Y551442D01*
X637248D01*
X639756Y550403D01*
X642447Y550049D01*
X672147D01*
X674838Y550403D01*
X677346Y551442D01*
X687248D01*
X689756Y550403D01*
D02*
G37*
G36*
X2156045Y448274D02*
X2187893Y435082D01*
X2216555Y415931D01*
X2240931Y391556D01*
X2260082Y362893D01*
X2273274Y331046D01*
X2279999Y297236D01*
Y280000D01*
X2280000Y262764D01*
X2273275Y228954D01*
X2260083Y197106D01*
X2240931Y168443D01*
X2216555Y144067D01*
X2187892Y124915D01*
X2156044Y111724D01*
X2122234Y104999D01*
X2104997Y105000D01*
X2104997D01*
X2087761Y105000D01*
X2053952Y111724D01*
X2022104Y124916D01*
X1993442Y144068D01*
X1969067Y168443D01*
X1949916Y197105D01*
X1936724Y228953D01*
X1929999Y262762D01*
X1930000Y279998D01*
Y279999D01*
X1929999Y297235D01*
X1936725Y331045D01*
X1949916Y362893D01*
X1969068Y391555D01*
X1993443Y415931D01*
X2022106Y435082D01*
X2053954Y448274D01*
X2087763Y454999D01*
X2104999Y454999D01*
X2105000Y454999D01*
X2122236D01*
X2156045Y448274D01*
D02*
G37*
D10*
X1770680Y1853014D02*
D03*
X1915680D02*
D03*
X1152000Y895155D02*
D03*
X1007000D02*
D03*
D11*
X2781430Y582731D02*
D03*
Y437731D02*
D03*
D12*
X1308080Y154940D02*
D03*
X1132840D02*
D03*
X2179069Y924560D02*
D03*
X2354309D02*
D03*
X555080Y991440D02*
D03*
X379840D02*
D03*
D13*
X1768400Y312560D02*
D03*
Y137320D02*
D03*
D14*
X2612970Y2161270D02*
D03*
X2705970D02*
D03*
X2336800Y1267460D02*
D03*
X2429800D02*
D03*
X1787820Y920750D02*
D03*
X1892820D02*
D03*
X1289440Y432560D02*
D03*
X1389200D02*
D03*
X2910646Y2381498D02*
D03*
X2810886D02*
D03*
X2802820Y2161270D02*
D03*
X2902580D02*
D03*
X2336800Y1165541D02*
D03*
X2436560D02*
D03*
X2336800Y1063360D02*
D03*
X2436560D02*
D03*
X1762820Y1012890D02*
D03*
X1663060D02*
D03*
D15*
X2796540Y1176500D02*
D03*
Y1083500D02*
D03*
X2897500Y1919385D02*
D03*
Y1826385D02*
D03*
X3021875Y2256499D02*
D03*
Y2361499D02*
D03*
X1153591Y456690D02*
D03*
Y356930D02*
D03*
X2898770Y1176500D02*
D03*
Y1076740D02*
D03*
X2897500Y1447990D02*
D03*
Y1547750D02*
D03*
X2648720Y328220D02*
D03*
Y427980D02*
D03*
X2543720D02*
D03*
Y328220D02*
D03*
X2438720D02*
D03*
Y427980D02*
D03*
D16*
X670712Y841852D02*
D03*
Y776852D02*
D03*
X2395220Y1429247D02*
D03*
Y1364247D02*
D03*
D17*
X1632820Y1134780D02*
D03*
X1697820D02*
D03*
X1762820D02*
D03*
X1827820D02*
D03*
X1892820D02*
D03*
X1957820D02*
D03*
X2022820D02*
D03*
X2087820D02*
D03*
X2152820D02*
D03*
X2217820D02*
D03*
X1632820Y1694780D02*
D03*
X1697820D02*
D03*
X1762820D02*
D03*
X1827820D02*
D03*
X1892820D02*
D03*
X1957820D02*
D03*
X2022820D02*
D03*
X2087820D02*
D03*
X2152820D02*
D03*
X2217820D02*
D03*
D18*
X2403100Y134620D02*
D03*
X2753100D02*
D03*
D19*
X2623100Y184620D02*
D03*
X2533100D02*
D03*
D20*
X212297Y617798D02*
D03*
X852298D02*
D03*
D21*
X772297D02*
D03*
X292297D02*
D03*
D22*
X707297D02*
D03*
X657297D02*
D03*
X607297D02*
D03*
X557297D02*
D03*
X407297D02*
D03*
X457297D02*
D03*
X507297D02*
D03*
X357297D02*
D03*
D23*
X336500Y795280D02*
D03*
X546500D02*
D03*
D24*
X1609200Y280601D02*
D03*
X1389200D02*
D03*
D25*
X2217009Y565781D02*
D03*
Y755781D02*
D03*
X1987008Y660781D02*
D03*
D26*
X1640693Y463631D02*
D03*
X1830693D02*
D03*
X1735694Y693631D02*
D03*
D27*
X1439860Y562860D02*
D03*
Y657860D02*
D03*
Y752860D02*
D03*
X1174860D02*
D03*
Y562860D02*
D03*
D28*
X149200Y1972860D02*
D03*
Y1822860D02*
D03*
Y1672860D02*
D03*
Y1522860D02*
D03*
Y1372860D02*
D03*
X1299200D02*
D03*
Y1522860D02*
D03*
Y1672860D02*
D03*
Y1822860D02*
D03*
Y1972860D02*
D03*
D29*
X349200Y1197860D02*
D03*
X499200D02*
D03*
X649200D02*
D03*
X799200D02*
D03*
X949200D02*
D03*
X1099200D02*
D03*
D30*
X2478355Y1721767D02*
D03*
X849758Y895155D02*
D03*
X2032708Y924560D02*
D03*
X1963894Y542016D02*
D03*
X2489173Y882177D02*
D03*
D31*
X2425615Y1826385D02*
X2548903D01*
X2339917Y1595852D02*
Y1740687D01*
X2425615Y1826385D01*
X2217820Y1134780D02*
Y1152930D01*
X2230431Y1165541D01*
X2336800D01*
Y1267460D01*
Y1063360D02*
Y1165541D01*
X2436560Y1165541D02*
X2521639D01*
X2436560Y1165541D02*
X2436560Y1165541D01*
X2801198Y1387102D02*
X2897500Y1290800D01*
X2801198Y1387102D02*
Y1726446D01*
X2897500Y1290800D02*
X2897500D01*
Y1547750D02*
Y1662050D01*
Y1826385D01*
X2801198D02*
X2897500D01*
Y1176500D02*
Y1290800D01*
Y1176500D02*
X2898770D01*
X2796540D02*
X2897500D01*
X2623100Y184620D02*
X2637393Y198913D01*
Y316893D01*
X2648720Y328220D01*
X1681710Y960056D02*
X1702446Y939320D01*
X1681710Y960056D02*
Y994240D01*
X1702446Y939320D02*
X1769170D01*
X1787820Y915670D02*
Y920670D01*
X1769170Y939320D02*
X1787820Y920670D01*
X1663060Y1012890D02*
X1681710Y994240D01*
X1761295Y1012890D02*
Y1133255D01*
X1762820Y1134780D01*
X2918961Y2373182D02*
X3010192D01*
X3021875Y2361499D01*
X2910645Y2381498D02*
X2918961Y2373182D01*
X2453193Y1620645D02*
X2557082D01*
X2152820Y1320272D02*
X2453193Y1620645D01*
X1957820Y1134780D02*
Y1292779D01*
X2282520Y1617479D02*
Y1790081D01*
X1957820Y1292779D02*
X2282520Y1617479D01*
X2087820Y1343755D02*
X2339917Y1595852D01*
X2087820Y1134780D02*
Y1343755D01*
X2326747Y2088272D02*
X2516709D01*
X2326695Y2088220D02*
X2326747Y2088272D01*
X2516709D02*
Y2191503D01*
X2548903Y1826385D02*
X2548903Y1826385D01*
X2634705Y2013430D02*
X2725755Y1922380D01*
X2648720Y611740D02*
X2725755Y688775D01*
Y1922380D01*
X2543720Y614289D02*
X2674743Y745313D01*
X2612897Y1961961D02*
X2674743Y1900114D01*
Y745313D02*
Y1900114D01*
X2623535Y804956D02*
Y1870379D01*
X2438720Y620141D02*
X2623535Y804956D01*
X2583651Y1910263D02*
X2623535Y1870379D01*
X2152820Y1781196D02*
X2281888Y1910263D01*
X2583651D01*
X2438720Y427980D02*
Y620141D01*
X541580Y1428298D02*
X764713Y1592580D01*
X541580Y1240240D02*
Y1428298D01*
X499200Y1197860D02*
X541580Y1240240D01*
X640080Y1407160D02*
X714800Y1481880D01*
X814280D02*
X906050Y1390110D01*
X714800Y1481880D02*
X814280D01*
X712266Y1667306D02*
X923218D01*
X1174014Y1416510D01*
X906050Y1241010D02*
Y1390110D01*
Y1241010D02*
X949200Y1197860D01*
X1967839Y2442829D02*
X2685656D01*
X2728336Y2400148D02*
X2792236D01*
X2685656Y2442829D02*
X2728336Y2400148D01*
X1897812Y2248973D02*
Y2372803D01*
X1967839Y2442829D01*
X1413774Y2079906D02*
X1469528Y2024151D01*
X1825119Y2176280D02*
X1897812Y2248973D01*
X1685533Y1794053D02*
Y1910152D01*
X1697820Y1694780D02*
Y1781766D01*
X1685533Y1794053D02*
X1697820Y1781766D01*
X1933103Y1944672D02*
X2222500Y2234070D01*
X1685533Y1910152D02*
X1720053Y1944672D01*
X1933103D01*
X1906728Y1996194D02*
X2156460Y2245925D01*
X1632820Y1930177D02*
X1698836Y1996194D01*
X1906728D01*
X1882302Y2048065D02*
X2029460Y2195223D01*
X1539099Y1908850D02*
X1678314Y2048065D01*
X1882302D01*
X1854219Y2099236D02*
X1950613Y2195629D01*
X1505586Y1947731D02*
X1657091Y2099236D01*
X1854219D01*
X1171661Y2079906D02*
X1413774D01*
X1324329Y1947731D02*
X1505586D01*
X1539099Y1668780D02*
Y1908850D01*
X1632820Y1694780D02*
Y1930177D01*
X1299200Y1972860D02*
X1324329Y1947731D01*
X1144007Y2052252D02*
X1171661Y2079906D01*
X1144007Y1894332D02*
X1171830Y1866510D01*
X1144007Y1894332D02*
Y2052252D01*
X1171830Y1866510D02*
X1255550D01*
X1950613Y2195629D02*
Y2344508D01*
X1993978Y2387873D01*
X2320339D01*
X2156460Y2245925D02*
Y2312523D01*
X2029460Y2312523D02*
X2029460Y2312523D01*
X2029460Y2195223D02*
Y2312523D01*
X180960Y1404620D02*
X386080D01*
X767080Y1229980D02*
X799200Y1197860D01*
X767080Y1229980D02*
Y1407160D01*
X635000Y1590040D02*
X712266Y1667306D01*
X1174014Y1416510D02*
X1255550D01*
X1299200Y1372860D01*
X2222500Y2251563D02*
X2283460Y2312523D01*
X2222500Y2234070D02*
Y2251563D01*
X1539099Y1463288D02*
X1604076D01*
X1827820Y1134780D02*
Y1239544D01*
X1604076Y1463288D02*
X1827820Y1239544D01*
X2282520Y1790081D02*
X2326702Y1834264D01*
X1328420Y619650D02*
Y795382D01*
X1361560Y586510D02*
X1416210D01*
X1328420Y619650D02*
X1361560Y586510D01*
X1463040Y990600D02*
Y1103934D01*
X1598650Y1239544D02*
X1681678D01*
X1463040Y1103934D02*
X1598650Y1239544D01*
X2152820Y1134780D02*
Y1320272D01*
X2543720Y427980D02*
Y614289D01*
X2648720Y427980D02*
Y611740D01*
X1994800Y1810903D02*
Y1851408D01*
X2022820Y1694780D02*
Y1782883D01*
X1994800Y1810903D02*
X2022820Y1782883D01*
X1994800Y1851408D02*
X2156823Y2013430D01*
X2634705D01*
X1697820Y1134780D02*
Y1223402D01*
X1681678Y1239544D02*
X1697820Y1223402D01*
X2516709Y2088272D02*
X2659311D01*
X2687320Y2116280D02*
Y2142620D01*
X2659311Y2088272D02*
X2687320Y2116280D01*
X2087820Y1694780D02*
Y1860294D01*
X2189486Y1961961D02*
X2612897D01*
X2087820Y1860294D02*
X2189486Y1961961D01*
X2320339Y2387873D02*
X2516709Y2191503D01*
X2897500Y2156190D02*
X2902580Y2161270D01*
X2897500Y2033300D02*
Y2156190D01*
X2705970Y2161270D02*
X2802820D01*
X2687320Y2142620D02*
X2705970Y2161270D01*
X2792236Y2400148D02*
X2810886Y2381498D01*
X149200Y1372860D02*
X180960Y1404620D01*
X1307161Y1530821D02*
X1315122Y1538782D01*
X1299200Y1522860D02*
X1307161Y1530821D01*
X1353820Y820782D02*
Y881380D01*
X1328420Y795382D02*
X1353820Y820782D01*
X2152820Y1694780D02*
Y1781196D01*
X1445205Y1592096D02*
X1746864D01*
X1762820Y1608052D02*
Y1694780D01*
X1746864Y1592096D02*
X1762820Y1608052D01*
X1315122Y1538782D02*
X1782687D01*
X1827820Y1583915D02*
Y1694780D01*
X1782687Y1538782D02*
X1827820Y1583915D01*
X1408092Y1629210D02*
X1445205Y1592096D01*
X1416210Y586510D02*
X1439860Y562860D01*
X1255550Y1866510D02*
X1299200Y1822860D01*
X1342851Y1629210D02*
X1408092D01*
X2438720Y170240D02*
Y328220D01*
X2403100Y134620D02*
X2438720Y170240D01*
X1299200Y1672860D02*
X1342851Y1629210D01*
X2533100Y184620D02*
X2538410Y189930D01*
Y322910D01*
X2543720Y328220D01*
X1153591Y541591D02*
X1174860Y562860D01*
X1153591Y456690D02*
Y541591D01*
D32*
X2489173Y888527D02*
Y964727D01*
Y788472D02*
Y888527D01*
X2521639Y997192D02*
Y1165541D01*
Y1357897D01*
X2489173Y964727D02*
X2521639Y997192D01*
X2515289Y1364247D02*
X2521639Y1357897D01*
X2395220Y1364247D02*
X2515289D01*
X756106Y601606D02*
X772500Y618000D01*
X719841Y462452D02*
X756106Y498717D01*
Y601606D01*
X292297Y617798D02*
X308506Y601589D01*
Y496125D02*
Y601589D01*
Y496125D02*
X342179Y462452D01*
X2032708Y924560D02*
X2179069D01*
X1901710D02*
X2032708D01*
X1892820Y915670D02*
X1901710Y924560D01*
X1850948Y725931D02*
X1884487Y759469D01*
X2038820D01*
X1750494Y725931D02*
X1850948D01*
X1735694Y711131D02*
X1750494Y725931D01*
X1629012D02*
X1720893D01*
X1457160Y735560D02*
X1619383D01*
X1629012Y725931D01*
X1735694Y693631D02*
Y711131D01*
X1720893Y725931D02*
X1735694Y711131D01*
X1439860Y752860D02*
X1457160Y735560D01*
X1625893Y432560D02*
X1640693Y447360D01*
Y475061D01*
X1389200Y432560D02*
X1625893D01*
X1736441Y280601D02*
X1768400Y312560D01*
X1609200Y280601D02*
X1736441D01*
X1768400Y312560D02*
X1787150D01*
X1819450Y344860D01*
Y463817D01*
X1389200Y280601D02*
X1389200Y280601D01*
Y432560D01*
X1132840Y280601D02*
X1389200D01*
X1132840Y165100D02*
Y280601D01*
X1098075D02*
X1132840D01*
X1072590Y306086D02*
X1098075Y280601D01*
X1072590Y306086D02*
Y770160D01*
X576300Y840582D02*
X670712D01*
X795185D01*
X849758Y895155D01*
X546500Y795280D02*
Y810782D01*
X576300Y840582D01*
X849758Y895155D02*
X1007000D01*
X2364590Y663889D02*
X2489173Y788472D01*
X1830693Y475061D02*
X1838236Y482603D01*
X1904481D02*
X1963894Y542016D01*
X1838236Y482603D02*
X1904481D01*
X261280Y877131D02*
Y915101D01*
X154159Y1022221D02*
Y1025300D01*
Y1022221D02*
X261280Y915101D01*
Y877131D02*
X285831Y852580D01*
X306700D01*
X336500Y822780D01*
Y767780D02*
Y822780D01*
X2038820Y759469D02*
X2134400Y663889D01*
X2364590D01*
X306806Y738086D02*
X336500Y767780D01*
X292297Y617798D02*
X306806Y632307D01*
Y738086D01*
X1026800Y815950D02*
Y875355D01*
Y815950D02*
X1072590Y770160D01*
X1157560D01*
X1174860Y752860D01*
X1007000Y895155D02*
X1026800Y875355D01*
X1963894Y542016D02*
Y645981D01*
X1978694Y660781D01*
X1987008D01*
X2215727Y755781D02*
X2217009D01*
X2200927Y770581D02*
X2215727Y755781D01*
X2200927Y770581D02*
Y902702D01*
X2179069Y924560D02*
X2200927Y902702D01*
X1819450Y463817D02*
X1836090Y480458D01*
X342179Y462452D02*
X719841D01*
D33*
X2753100Y134620D02*
X2781430Y162950D01*
Y437731D01*
X2806310Y462611D01*
X1875440Y898290D02*
X1892820Y915670D01*
X1875440Y868050D02*
Y898290D01*
X1892820Y924560D02*
Y1134780D01*
X1892820Y1134780D01*
X2735427Y2263880D02*
X3014495D01*
X3021875Y2256499D01*
Y2033925D02*
Y2256499D01*
Y2033925D02*
X3022500Y2033300D01*
X1507376Y838287D02*
X1845678D01*
X1875440Y868050D01*
X1892820Y1134780D02*
Y1694780D01*
X2677100Y2322207D02*
X2735427Y2263880D01*
X2568599Y2322207D02*
X2677100D01*
X1892820Y1830154D02*
X1915680Y1853014D01*
X1959377Y1890394D02*
X2274127Y2205144D01*
X1915680Y1868054D02*
X1938020Y1890394D01*
X1915680Y1853014D02*
Y1868054D01*
X1938020Y1890394D02*
X1959377D01*
X2274127Y2205144D02*
X2395666D01*
X3022500Y1662050D02*
Y2033300D01*
X1892820Y1694780D02*
Y1830154D01*
X2928237Y535430D02*
Y941643D01*
X3022500Y1035905D02*
Y1290800D01*
X2928237Y941643D02*
X3022500Y1035905D01*
X2855418Y462611D02*
X2928237Y535430D01*
X555080Y991440D02*
X577100Y1013460D01*
X1332203D01*
X528113Y1018406D02*
X555080Y991440D01*
X499200Y1197860D02*
X528113Y1168947D01*
Y1018406D02*
Y1168947D01*
X1332203Y1013460D02*
X1507376Y838287D01*
X2806310Y462611D02*
X2855418D01*
X3022500Y1290800D02*
Y1662050D01*
D34*
X965297Y142298D02*
D03*
X101297D02*
D03*
D35*
Y560298D02*
D03*
X965297D02*
D03*
D36*
X821306Y510298D02*
D03*
X243306D02*
D03*
D37*
X2897500Y1662050D02*
D03*
X3022500D02*
D03*
Y1290800D02*
D03*
X2897500D02*
D03*
Y2033300D02*
D03*
X3022500D02*
D03*
D38*
X2521639Y1357897D02*
D03*
Y1507897D02*
D03*
D39*
X154159Y1025300D02*
D03*
Y771300D02*
D03*
X3048000Y889000D02*
D03*
Y635000D02*
D03*
D40*
X2105000Y280000D02*
D03*
X3035000D02*
D03*
D41*
X2438856Y996870D02*
D03*
X2321142Y819800D02*
D03*
X2387475Y819800D02*
D03*
X2326256Y1333913D02*
D03*
X2832949Y1919385D02*
D03*
X2897500Y1383440D02*
D03*
X2796540Y1018950D02*
D03*
X2898770Y1012190D02*
D03*
X2559282Y1721767D02*
D03*
X2397548D02*
D03*
X2546922Y1620645D02*
D03*
X2326695Y2088220D02*
D03*
X2801198Y1726446D02*
D03*
Y1826385D02*
D03*
X764713Y1592580D02*
D03*
X2450929Y2323058D02*
D03*
X2540323Y2233664D02*
D03*
X2568599Y2322207D02*
D03*
X767080Y1407160D02*
D03*
X1469528Y2024151D02*
D03*
X1825119Y2176280D02*
D03*
X1843020Y1885803D02*
D03*
Y1822534D02*
D03*
X508219Y2106076D02*
D03*
X763940D02*
D03*
X1106558Y2108729D02*
D03*
X1475562Y2107026D02*
D03*
X63394Y1118724D02*
D03*
X1130762Y50629D02*
D03*
X1828240Y2293728D02*
D03*
X640080Y1407160D02*
D03*
X386080D02*
D03*
X635000Y1590040D02*
D03*
X2300407Y716749D02*
D03*
X1906382Y706609D02*
D03*
X2131848Y741196D02*
D03*
X2072169Y651365D02*
D03*
X1226881Y926850D02*
D03*
Y864675D02*
D03*
X289520Y1489693D02*
D03*
Y1556026D02*
D03*
Y1639693D02*
D03*
Y1789693D02*
D03*
Y1856027D02*
D03*
Y2006026D02*
D03*
Y1706026D02*
D03*
Y1939693D02*
D03*
X257140Y1231026D02*
D03*
Y1164693D02*
D03*
X2228824Y1791425D02*
D03*
X2134330Y1828480D02*
D03*
X2612970Y2227130D02*
D03*
X3107654Y2521425D02*
D03*
X1839956D02*
D03*
X2262522D02*
D03*
X2685088D02*
D03*
X2395666Y2205144D02*
D03*
X2029460Y2312523D02*
D03*
X2156460D02*
D03*
X2283460D02*
D03*
X1427621Y850471D02*
D03*
X1322911Y955181D02*
D03*
X1389906Y1023328D02*
D03*
X2548903Y1826385D02*
D03*
X1463040Y990600D02*
D03*
X1539099Y1668780D02*
D03*
X1495768Y917466D02*
D03*
X1353820Y881380D02*
D03*
X1905136Y812329D02*
D03*
X1701096Y790507D02*
D03*
X2303780Y565781D02*
D03*
X2369820D02*
D03*
X1662370Y105423D02*
D03*
X1662370Y171757D02*
D03*
X1395060Y131933D02*
D03*
Y198267D02*
D03*
X292860Y1024607D02*
D03*
Y958273D02*
D03*
X1191260Y1164693D02*
D03*
Y1231026D02*
D03*
X2041310Y1830168D02*
D03*
X1539099Y1463288D02*
D03*
X2326702Y1834264D02*
D03*
X2491740Y497840D02*
D03*
X2598420D02*
D03*
X1593314Y657860D02*
D03*
X2470199Y2171652D02*
D03*
X2363106Y2279331D02*
D03*
X2696424Y582731D02*
D03*
X2781430Y656377D02*
D03*
X779120Y717704D02*
D03*
Y782661D02*
D03*
X851500D02*
D03*
X1529080Y657860D02*
D03*
X1795780Y1440180D02*
D03*
X1957820Y1539240D02*
D03*
Y1600200D02*
D03*
X3107655Y1919000D02*
D03*
Y1547750D02*
D03*
X2908300Y78740D02*
D03*
X2598100D02*
D03*
X2250440D02*
D03*
X3107655Y1176500D02*
D03*
X851500Y717704D02*
D03*
X245346Y791551D02*
D03*
X1289440Y497217D02*
D03*
X1571984Y1134780D02*
D03*
X245346Y717704D02*
D03*
X697419Y516582D02*
D03*
X1218293Y356930D02*
D03*
X175991Y437640D02*
D03*
X891540Y441450D02*
D03*
X364600Y516582D02*
D03*
%TF.MD5,1584292f94bd3d6cd9c5823f3a41ebc0*%
M02*
