*
%FSLAX26Y26*%
%MOIN*%
%ADD10R,0.007591X0.007591*%
%ADD11C,0.006800*%
%ADD12R,0.007638X0.007638*%
%ADD13C,0.006772*%
%ADD14R,0.014409X0.014409*%
%ADD15R,0.063583X0.063583*%
%ADD16R,0.063591X0.063591*%
%ADD17R,0.026181X0.026181*%
%ADD18R,0.026191X0.026191*%
%ADD19R,0.024191X0.024191*%
%ADD20R,0.024173X0.024173*%
%ADD21R,0.028189X0.028189*%
%ADD22R,0.028191X0.028191*%
%ADD23R,0.012402X0.012402*%
%ADD24R,0.012391X0.012391*%
%ADD25C,0.005591*%
%ADD26C,0.006591*%
%ADD27C,0.059646*%
%ADD28C,0.069488*%
%ADD29C,0.039961*%
%ADD30C,0.001000*%
%ADD31C,0.002000*%
%ADD32C,0.008000*%
%ADD33R,0.008000X0.008000*%
%ADD34C,0.004000*%
%ADD35C,0.043898*%
%ADD36C,0.032087*%
%ADD37R,0.002000X0.002000*%
%ADD38R,0.016000X0.016000*%
%ADD39R,0.004000X0.004000*%
%ADD40R,0.032000X0.032000*%
%ADD41C,0.016000*%
%ADD42R,0.001000X0.001000*%
%ADD43R,0.064000X0.064000*%
%ADD44C,0.015748*%
%ADD45C,0.037402*%
%IPPOS*%
%LNtl*%
%LPD*%
G54D10*
X586141Y356008D02*
X624441D01*
G54D11*
X585746Y359803D02*
X624837D01*
X585746Y352212D02*
X624837D01*
G54D10*
X586141Y304827D02*
X624441D01*
G54D11*
X585746Y308622D02*
X624837D01*
X585746Y301031D02*
X624837D01*
G54D10*
X586141Y279236D02*
X624441D01*
G54D11*
X585746Y283032D02*
X624837D01*
X585746Y275441D02*
X624837D01*
G54D10*
X586141Y253646D02*
X624441D01*
G54D11*
X585746Y257441D02*
X624837D01*
X585746Y249850D02*
X624837D01*
G54D10*
X586141Y228055D02*
X624441D01*
G54D11*
X585746Y231851D02*
X624837D01*
X585746Y224260D02*
X624837D01*
G54D10*
X586141Y202465D02*
X624441D01*
G54D11*
X585746Y206260D02*
X624837D01*
X585746Y198669D02*
X624837D01*
G54D10*
X586141Y176874D02*
X624441D01*
G54D11*
X585746Y180669D02*
X624837D01*
X585746Y173079D02*
X624837D01*
G54D10*
X586141Y125693D02*
X624441D01*
G54D11*
X585746Y129488D02*
X624837D01*
X585746Y121897D02*
X624837D01*
G54D10*
X357795Y356008D02*
X396095D01*
G54D11*
X357399Y359803D02*
X396490D01*
X357399Y352212D02*
X396490D01*
G54D10*
X357795Y304827D02*
X396095D01*
G54D11*
X357399Y308622D02*
X396490D01*
X357399Y301031D02*
X396490D01*
G54D10*
X357795Y279236D02*
X396095D01*
G54D11*
X357399Y283032D02*
X396490D01*
X357399Y275441D02*
X396490D01*
G54D10*
X357795Y253646D02*
X396095D01*
G54D11*
X357399Y257441D02*
X396490D01*
X357399Y249850D02*
X396490D01*
G54D12*
X357811Y228055D02*
X396079D01*
G54D13*
X357378Y231874D02*
X396512D01*
X357378Y224236D02*
X396512D01*
G54D12*
X357811Y202465D02*
X396079D01*
G54D13*
X357378Y206283D02*
X396512D01*
X357378Y198646D02*
X396512D01*
G54D12*
X357811Y176874D02*
X396079D01*
G54D13*
X357378Y180693D02*
X396512D01*
X357378Y173055D02*
X396512D01*
G54D12*
X357811Y125693D02*
X396079D01*
G54D13*
X357378Y129512D02*
X396512D01*
X357378Y121874D02*
X396512D01*
G54D10*
X586141Y330417D02*
X624441D01*
G54D11*
X585746Y334213D02*
X624837D01*
X585746Y326622D02*
X624837D01*
G54D10*
X586141Y151283D02*
X624441D01*
G54D11*
X585746Y155079D02*
X624837D01*
X585746Y147488D02*
X624837D01*
G54D10*
X357795Y330417D02*
X396095D01*
G54D11*
X357399Y334213D02*
X396490D01*
X357399Y326622D02*
X396490D01*
G54D12*
X357811Y151283D02*
X396079D01*
G54D13*
X357378Y155102D02*
X396512D01*
X357378Y147465D02*
X396512D01*
G54D14*
X119031Y233402D02*
X183913D01*
X119031Y258992D02*
X183913D01*
X118043Y207811D02*
X182925D01*
X118043Y182220D02*
X182925D01*
X118043Y156634D02*
X182925D01*
G54D15*
X147531Y319996D02*
Y339720D01*
G54D16*
Y75914D02*
Y95614D01*
G54D17*
X130551Y510563D02*
X138465D01*
X130551Y453476D02*
X138465D01*
X347165Y407102D02*
X355079D01*
G54D18*
X347172Y464189D02*
X355072D01*
G54D17*
X245409Y32366D02*
X253323D01*
G54D18*
X245416Y89453D02*
X253316D01*
X672448Y490555D02*
X680348D01*
G54D17*
X672441Y433469D02*
X680354D01*
G54D19*
X279018Y416079D02*
X294817D01*
X279018Y490878D02*
X294817D01*
G54D20*
X192386Y453476D02*
X208213D01*
G54D21*
X301618Y34335D02*
X305516D01*
G54D22*
X301617Y89453D02*
X305517D01*
G54D21*
X674449Y589669D02*
X678346D01*
G54D22*
X674448Y534551D02*
X678348D01*
G54D18*
X715795Y208511D02*
Y216411D01*
X658705Y208511D02*
Y216411D01*
Y131743D02*
Y139643D01*
X715795Y131743D02*
Y139643D01*
G54D23*
X96862Y400921D02*
X100760D01*
G54D24*
X134263D02*
X138163D01*
G54D22*
X658705Y74215D02*
Y78115D01*
G54D21*
X713827Y74217D02*
Y78114D01*
G54D22*
X288217Y565562D02*
Y569462D01*
X233098Y565562D02*
Y569462D01*
G54D23*
X274752Y205815D02*
Y209713D01*
G54D24*
Y243215D02*
Y247115D01*
Y132168D02*
Y136068D01*
G54D23*
Y169571D02*
Y173469D01*
G54D25*
X403382Y356008D02*
X455488Y408114D01*
Y461071D01*
X376945Y356008D02*
X403382D01*
X55811Y513921D02*
Y570921D01*
X87921Y603031D02*
X309925D01*
X55811Y570921D02*
X87921Y603031D01*
X94669Y547965D02*
X114213Y567512D01*
X557122Y415276D02*
X592614Y379787D01*
X596929Y356008D02*
X602354D01*
X592614Y360323D02*
X596929Y356008D01*
X592614Y360323D02*
Y379787D01*
X605291Y125693D02*
X648709D01*
X565941Y151283D02*
X605291D01*
X377291Y125346D02*
X402654D01*
X410689Y133382D02*
X449539D01*
X402654Y125346D02*
X410689Y133382D01*
X376945Y151283D02*
X402819D01*
X410720Y143378D02*
X445398D01*
X402819Y151283D02*
X410720Y143378D01*
X376945Y125693D02*
X377291Y125346D01*
X278157Y176874D02*
X376945D01*
X278157Y202465D02*
X376945D01*
X223909Y176874D02*
X271346D01*
X197346Y203433D02*
X223909Y176874D01*
X154862Y203433D02*
X197346D01*
X150484Y207811D02*
X154862Y203433D01*
X151472Y233402D02*
X155807Y229063D01*
X244850D02*
X261079Y212839D01*
X155807Y229063D02*
X244850D01*
X114213Y567512D02*
X233098D01*
X326772Y550358D02*
Y586181D01*
X309925Y603031D02*
X326772Y586181D01*
Y550358D02*
X395134Y481992D01*
X434567D01*
X314728Y78287D02*
X492949D01*
X565941Y151283D01*
X303567Y89453D02*
X314728Y78287D01*
X249366Y89453D02*
X303567D01*
Y34335D02*
X308374Y29528D01*
X371693D01*
X274752Y173469D02*
X278157Y176874D01*
X557122Y415276D02*
Y452563D01*
X261079Y212839D02*
X271346D01*
X274752Y209433D01*
Y205870D02*
Y209433D01*
Y171520D02*
Y173469D01*
X271346Y176874D02*
X274752Y173469D01*
X484181Y411843D02*
Y498283D01*
X413335Y531795D02*
X450673D01*
X484181Y498283D01*
X568543Y29528D02*
X674535D01*
X568543Y600394D02*
X665673D01*
X648614Y222559D02*
Y389689D01*
X613335Y424969D02*
Y431791D01*
Y424969D02*
X648614Y389689D01*
X557122Y452563D02*
X589610Y485051D01*
X670890D02*
X676398Y490555D01*
X589610Y485051D02*
X670890D01*
X676398Y490555D02*
Y534551D01*
X445398Y143378D02*
X503335Y201319D01*
X484181Y411843D02*
X503335Y392689D01*
Y201319D02*
Y392689D01*
X513331Y197173D02*
Y431791D01*
X449539Y133382D02*
X513331Y197173D01*
X434567Y481992D02*
X455488Y461071D01*
X702681Y65024D02*
X713827Y76165D01*
X702681Y57673D02*
Y65024D01*
X674535Y29528D02*
X702681Y57673D01*
X648709Y125693D02*
X658705Y135693D01*
Y76165D03*
Y135693D03*
Y76165D02*
Y135693D01*
X648614Y222559D02*
X658705Y212461D01*
X648709Y202465D02*
X658705Y212461D01*
X602354Y202465D02*
X648709D01*
X274752Y205870D02*
X278157Y202465D01*
X665673Y600394D02*
X676398Y589669D01*
G54D26*
X376945Y228055D02*
X467244D01*
X548567D02*
X605291D01*
X108185Y262882D02*
X147579D01*
X94508Y276559D02*
Y398016D01*
Y276559D02*
X108185Y262882D01*
X147579D02*
X151472Y258992D01*
X364854Y448201D02*
Y454394D01*
Y448201D02*
X373898Y439161D01*
X405965D01*
X413335Y431791D01*
X345394Y473854D02*
X364854Y454394D01*
X325638Y473854D02*
X345394D01*
X295661Y482138D02*
X317358D01*
X325638Y473854D01*
X286917Y490878D02*
X295661Y482138D01*
X286917Y490878D02*
X288217Y492177D01*
Y567512D01*
X134508Y453476D02*
X200299D01*
X103685Y403827D02*
Y415406D01*
X120846Y432571D01*
Y443681D01*
X97413Y400921D02*
X100780D01*
X120846Y443681D02*
X130646Y453476D01*
X100780Y400921D02*
X103685Y403827D01*
X467244Y369882D03*
Y228055D02*
Y369882D01*
Y228055D03*
X94508Y398016D02*
X97413Y400921D01*
G54D27*
X37295Y319232D02*
X56980D01*
X37295Y96394D02*
X56980D01*
G54D28*
X706339Y295276D02*
Y354331D01*
X233898Y295276D02*
Y354331D01*
G54D29*
X356929Y600394D02*
X386457D01*
X553780D02*
X583307D01*
X455354Y29528D02*
X484882D01*
X356929D02*
X386457D01*
X553780D02*
X583307D01*
G54D30*
X613335Y461114D02*
X618886Y460383D01*
X624059Y458241D01*
X628501Y454832D01*
X631910Y450390D01*
X634053Y445217D01*
X634784Y439665D01*
Y423917D01*
X633915Y417874D01*
X631379Y412321D01*
X627381Y407707D01*
X622245Y404407D01*
X616387Y402687D01*
X610282D01*
X604424Y404407D01*
X599288Y407707D01*
X595291Y412321D01*
X592754Y417874D01*
X591886Y423917D01*
Y439665D01*
X592616Y445217D01*
X594759Y450390D01*
X598168Y454832D01*
X602610Y458241D01*
X607783Y460383D01*
X613335Y461114D01*
G54D31*
X592386Y423917D02*
X634284D01*
X592386Y439665D02*
X634284D01*
G54D32*
X613335Y405968D03*
X599132Y412943D02*
X627538D01*
X595837Y419917D02*
X630832D01*
G54D31*
X613335Y402968D02*
X607913Y403682D01*
X602860Y405775D01*
X598521Y409104D01*
X595192Y413443D01*
X593099Y418495D01*
X592386Y423917D01*
X634284D02*
X633570Y418495D01*
X631477Y413443D01*
X628148Y409104D01*
X623809Y405775D01*
X618757Y403682D01*
X613335Y402968D01*
G54D32*
Y405968D02*
X607788Y406847D01*
X602784Y409396D01*
X598814Y413367D01*
X596264Y418371D01*
X595386Y423917D01*
X631284D02*
X630405Y418371D01*
X627856Y413367D01*
X623885Y409396D01*
X618881Y406847D01*
X613335Y405968D01*
G54D33*
X595386Y427917D02*
X631284D01*
X595386Y435665D02*
X631284D01*
G54D32*
X595837Y443665D02*
X630832D01*
X599132Y450640D02*
X627538D01*
X613335Y457614D03*
G54D31*
X592386Y439665D02*
X593099Y445087D01*
X595192Y450140D01*
X598521Y454479D01*
X602860Y457808D01*
X607913Y459900D01*
X613335Y460614D01*
X618757Y459900D01*
X623809Y457808D01*
X628148Y454479D01*
X631477Y450140D01*
X633570Y445087D01*
X634284Y439665D01*
G54D32*
X595386D02*
X596264Y445212D01*
X598814Y450215D01*
X602784Y454186D01*
X607788Y456736D01*
X613335Y457614D01*
X618881Y456736D01*
X623885Y454186D01*
X627856Y450215D01*
X630405Y445212D01*
X631284Y439665D01*
G54D34*
X613335Y403968D02*
X607552Y404825D01*
X602266Y407320D01*
X597931Y411241D01*
X594918Y416250D01*
X593486Y421917D01*
X633183D02*
X631751Y416250D01*
X628738Y411241D01*
X624403Y407320D01*
X619117Y404825D01*
X613335Y403968D01*
Y459614D02*
X619117Y458758D01*
X624403Y456262D01*
X628738Y452342D01*
X631751Y447333D01*
X633183Y441665D01*
X593486D02*
X594918Y447333D01*
X597931Y452342D01*
X602266Y456262D01*
X607552Y458758D01*
X613335Y459614D01*
G54D35*
X513331Y423917D02*
Y439665D01*
G54D30*
X413335Y461114D02*
X418886Y460383D01*
X424059Y458241D01*
X428501Y454832D01*
X431910Y450390D01*
X434053Y445217D01*
X434784Y439665D01*
Y423917D01*
X433915Y417874D01*
X431379Y412321D01*
X427381Y407707D01*
X422245Y404407D01*
X416387Y402687D01*
X410282D01*
X404424Y404407D01*
X399288Y407707D01*
X395291Y412321D01*
X392754Y417874D01*
X391886Y423917D01*
Y439665D01*
X392616Y445217D01*
X394759Y450390D01*
X398168Y454832D01*
X402610Y458241D01*
X407783Y460383D01*
X413335Y461114D01*
G54D31*
X392386Y423917D02*
X434284D01*
X392386Y439665D02*
X434284D01*
G54D32*
X413335Y405968D03*
X399132Y412943D02*
X427538D01*
X395837Y419917D02*
X430832D01*
G54D31*
X413335Y402968D02*
X407913Y403682D01*
X402860Y405775D01*
X398521Y409104D01*
X395192Y413443D01*
X393099Y418495D01*
X392386Y423917D01*
X434284D02*
X433570Y418495D01*
X431477Y413443D01*
X428148Y409104D01*
X423809Y405775D01*
X418757Y403682D01*
X413335Y402968D01*
G54D32*
Y405968D02*
X407788Y406847D01*
X402784Y409396D01*
X398814Y413367D01*
X396264Y418371D01*
X395386Y423917D01*
X431284D02*
X430405Y418371D01*
X427856Y413367D01*
X423885Y409396D01*
X418881Y406847D01*
X413335Y405968D01*
G54D33*
X395386Y427917D02*
X431284D01*
X395386Y435665D02*
X431284D01*
G54D32*
X395837Y443665D02*
X430832D01*
X399132Y450640D02*
X427538D01*
X413335Y457614D03*
G54D31*
X392386Y439665D02*
X393099Y445087D01*
X395192Y450140D01*
X398521Y454479D01*
X402860Y457808D01*
X407913Y459900D01*
X413335Y460614D01*
X418757Y459900D01*
X423809Y457808D01*
X428148Y454479D01*
X431477Y450140D01*
X433570Y445087D01*
X434284Y439665D01*
G54D32*
X395386D02*
X396264Y445212D01*
X398814Y450215D01*
X402784Y454186D01*
X407788Y456736D01*
X413335Y457614D01*
X418881Y456736D01*
X423885Y454186D01*
X427856Y450215D01*
X430405Y445212D01*
X431284Y439665D01*
G54D34*
X413335Y403968D02*
X407552Y404825D01*
X402266Y407320D01*
X397931Y411241D01*
X394918Y416250D01*
X393486Y421917D01*
X433183D02*
X431751Y416250D01*
X428738Y411241D01*
X424403Y407320D01*
X419117Y404825D01*
X413335Y403968D01*
Y459614D02*
X419117Y458758D01*
X424403Y456262D01*
X428738Y452342D01*
X431751Y447333D01*
X433183Y441665D01*
X393486D02*
X394918Y447333D01*
X397931Y452342D01*
X402266Y456262D01*
X407552Y458758D01*
X413335Y459614D01*
G54D35*
X613335Y523921D02*
Y539669D01*
X413335Y523921D02*
Y539669D01*
X513331Y523921D02*
Y539669D01*
G54D36*
X94669Y547965D03*
X55811Y513921D03*
X467244Y369882D03*
X548567Y228055D03*
X467244D03*
X213894Y510563D03*
X320846Y272213D03*
X173098Y510563D03*
X166232Y400921D03*
X240063Y140134D03*
X211268Y123634D03*
Y156634D03*
X23811Y180921D03*
Y147921D03*
Y213921D03*
X89811D03*
X56811D03*
X89811Y180921D03*
Y147921D03*
X56811D03*
X240831Y200209D03*
X56811Y180921D03*
X320846Y235335D03*
X423433Y253646D03*
G54D10*
X586141Y356008D02*
X624441D01*
G54D11*
X585746Y359803D02*
X624837D01*
X585746Y352212D02*
X624837D01*
G54D10*
X586141Y304827D02*
X624441D01*
G54D11*
X585746Y308622D02*
X624837D01*
X585746Y301031D02*
X624837D01*
G54D10*
X586141Y279236D02*
X624441D01*
G54D11*
X585746Y283032D02*
X624837D01*
X585746Y275441D02*
X624837D01*
G54D10*
X586141Y253646D02*
X624441D01*
G54D11*
X585746Y257441D02*
X624837D01*
X585746Y249850D02*
X624837D01*
G54D10*
X586141Y228055D02*
X624441D01*
G54D11*
X585746Y231851D02*
X624837D01*
X585746Y224260D02*
X624837D01*
G54D10*
X586141Y202465D02*
X624441D01*
G54D11*
X585746Y206260D02*
X624837D01*
X585746Y198669D02*
X624837D01*
G54D10*
X586141Y176874D02*
X624441D01*
G54D11*
X585746Y180669D02*
X624837D01*
X585746Y173079D02*
X624837D01*
G54D10*
X586141Y125693D02*
X624441D01*
G54D11*
X585746Y129488D02*
X624837D01*
X585746Y121897D02*
X624837D01*
G54D10*
X357795Y356008D02*
X396095D01*
G54D11*
X357399Y359803D02*
X396490D01*
X357399Y352212D02*
X396490D01*
G54D10*
X357795Y304827D02*
X396095D01*
G54D11*
X357399Y308622D02*
X396490D01*
X357399Y301031D02*
X396490D01*
G54D10*
X357795Y279236D02*
X396095D01*
G54D11*
X357399Y283032D02*
X396490D01*
X357399Y275441D02*
X396490D01*
G54D10*
X357795Y253646D02*
X396095D01*
G54D11*
X357399Y257441D02*
X396490D01*
X357399Y249850D02*
X396490D01*
G54D10*
X586141Y330417D02*
X624441D01*
G54D11*
X585746Y334213D02*
X624837D01*
X585746Y326622D02*
X624837D01*
G54D10*
X586141Y151283D02*
X624441D01*
G54D11*
X585746Y155079D02*
X624837D01*
X585746Y147488D02*
X624837D01*
G54D10*
X357795Y330417D02*
X396095D01*
G54D11*
X357399Y334213D02*
X396490D01*
X357399Y326622D02*
X396490D01*
G54D16*
X147531Y75914D02*
Y95614D01*
G54D18*
X347172Y464189D02*
X355072D01*
X245416Y89453D02*
X253316D01*
X672448Y490555D02*
X680348D01*
G54D19*
X279018Y416079D02*
X294817D01*
X279018Y490878D02*
X294817D01*
G54D22*
X301617Y89453D02*
X305517D01*
X674448Y534551D02*
X678348D01*
G54D18*
X715795Y208511D02*
Y216411D01*
X658705Y208511D02*
Y216411D01*
Y131743D02*
Y139643D01*
X715795Y131743D02*
Y139643D01*
G54D24*
X134263Y400921D02*
X138163D01*
G54D22*
X658705Y74215D02*
Y78115D01*
X288217Y565562D02*
Y569462D01*
X233098Y565562D02*
Y569462D01*
G54D24*
X274752Y243215D02*
Y247115D01*
Y132168D02*
Y136068D01*
G54D25*
X403382Y356008D02*
X455488Y408114D01*
Y461071D01*
X376945Y356008D02*
X403382D01*
X55811Y513921D02*
Y570921D01*
X87921Y603031D02*
X309925D01*
X55811Y570921D02*
X87921Y603031D01*
X94669Y547965D02*
X114213Y567512D01*
X557122Y415276D02*
X592614Y379787D01*
X596929Y356008D02*
X602354D01*
X592614Y360323D02*
X596929Y356008D01*
X592614Y360323D02*
Y379787D01*
X605291Y125693D02*
X648709D01*
X565941Y151283D02*
X605291D01*
X377291Y125346D02*
X402654D01*
X410689Y133382D02*
X449539D01*
X402654Y125346D02*
X410689Y133382D01*
X376945Y151283D02*
X402819D01*
X410720Y143378D02*
X445398D01*
X402819Y151283D02*
X410720Y143378D01*
X376945Y125693D02*
X377291Y125346D01*
X278157Y176874D02*
X376945D01*
X278157Y202465D02*
X376945D01*
X223909Y176874D02*
X271346D01*
X197346Y203433D02*
X223909Y176874D01*
X154862Y203433D02*
X197346D01*
X150484Y207811D02*
X154862Y203433D01*
X151472Y233402D02*
X155807Y229063D01*
X244850D02*
X261079Y212839D01*
X155807Y229063D02*
X244850D01*
X114213Y567512D02*
X233098D01*
X326772Y550358D02*
Y586181D01*
X309925Y603031D02*
X326772Y586181D01*
Y550358D02*
X395134Y481992D01*
X434567D01*
X314728Y78287D02*
X492949D01*
X565941Y151283D01*
X303567Y89453D02*
X314728Y78287D01*
X249366Y89453D02*
X303567D01*
Y34335D02*
X308374Y29528D01*
X371693D01*
X274752Y173469D02*
X278157Y176874D01*
X557122Y415276D02*
Y452563D01*
X261079Y212839D02*
X271346D01*
X274752Y209433D01*
Y205870D02*
Y209433D01*
Y171520D02*
Y173469D01*
X271346Y176874D02*
X274752Y173469D01*
X484181Y411843D02*
Y498283D01*
X413335Y531795D02*
X450673D01*
X484181Y498283D01*
X568543Y29528D02*
X674535D01*
X568543Y600394D02*
X665673D01*
X648614Y222559D02*
Y389689D01*
X613335Y424969D02*
Y431791D01*
Y424969D02*
X648614Y389689D01*
X557122Y452563D02*
X589610Y485051D01*
X670890D02*
X676398Y490555D01*
X589610Y485051D02*
X670890D01*
X676398Y490555D02*
Y534551D01*
X445398Y143378D02*
X503335Y201319D01*
X484181Y411843D02*
X503335Y392689D01*
Y201319D02*
Y392689D01*
X513331Y197173D02*
Y431791D01*
X449539Y133382D02*
X513331Y197173D01*
X434567Y481992D02*
X455488Y461071D01*
X702681Y65024D02*
X713827Y76165D01*
X702681Y57673D02*
Y65024D01*
X674535Y29528D02*
X702681Y57673D01*
X648709Y125693D02*
X658705Y135693D01*
Y76165D03*
Y135693D03*
Y76165D02*
Y135693D01*
X648614Y222559D02*
X658705Y212461D01*
X648709Y202465D02*
X658705Y212461D01*
X602354Y202465D02*
X648709D01*
X274752Y205870D02*
X278157Y202465D01*
X665673Y600394D02*
X676398Y589669D01*
G54D26*
X376945Y228055D02*
X467244D01*
X548567D02*
X605291D01*
X108185Y262882D02*
X147579D01*
X94508Y276559D02*
Y398016D01*
Y276559D02*
X108185Y262882D01*
X147579D02*
X151472Y258992D01*
X364854Y448201D02*
Y454394D01*
Y448201D02*
X373898Y439161D01*
X405965D01*
X413335Y431791D01*
X345394Y473854D02*
X364854Y454394D01*
X325638Y473854D02*
X345394D01*
X295661Y482138D02*
X317358D01*
X325638Y473854D01*
X286917Y490878D02*
X295661Y482138D01*
X286917Y490878D02*
X288217Y492177D01*
Y567512D01*
X134508Y453476D02*
X200299D01*
X103685Y403827D02*
Y415406D01*
X120846Y432571D01*
Y443681D01*
X97413Y400921D02*
X100780D01*
X120846Y443681D02*
X130646Y453476D01*
X100780Y400921D02*
X103685Y403827D01*
X467244Y369882D03*
Y228055D02*
Y369882D01*
Y228055D03*
X94508Y398016D02*
X97413Y400921D01*
G54D30*
X613335Y461114D02*
X618886Y460383D01*
X624059Y458241D01*
X628501Y454832D01*
X631910Y450390D01*
X634053Y445217D01*
X634784Y439665D01*
Y423917D01*
X633915Y417874D01*
X631379Y412321D01*
X627381Y407707D01*
X622245Y404407D01*
X616387Y402687D01*
X610282D01*
X604424Y404407D01*
X599288Y407707D01*
X595291Y412321D01*
X592754Y417874D01*
X591886Y423917D01*
Y439665D01*
X592616Y445217D01*
X594759Y450390D01*
X598168Y454832D01*
X602610Y458241D01*
X607783Y460383D01*
X613335Y461114D01*
G54D31*
X592386Y423917D02*
X634284D01*
X592386Y439665D02*
X634284D01*
G54D32*
X613335Y405968D03*
X599132Y412943D02*
X627538D01*
X595837Y419917D02*
X630832D01*
G54D31*
X613335Y402968D02*
X607913Y403682D01*
X602860Y405775D01*
X598521Y409104D01*
X595192Y413443D01*
X593099Y418495D01*
X592386Y423917D01*
X634284D02*
X633570Y418495D01*
X631477Y413443D01*
X628148Y409104D01*
X623809Y405775D01*
X618757Y403682D01*
X613335Y402968D01*
G54D32*
Y405968D02*
X607788Y406847D01*
X602784Y409396D01*
X598814Y413367D01*
X596264Y418371D01*
X595386Y423917D01*
X631284D02*
X630405Y418371D01*
X627856Y413367D01*
X623885Y409396D01*
X618881Y406847D01*
X613335Y405968D01*
G54D33*
X595386Y427917D02*
X631284D01*
X595386Y435665D02*
X631284D01*
G54D32*
X595837Y443665D02*
X630832D01*
X599132Y450640D02*
X627538D01*
X613335Y457614D03*
G54D31*
X592386Y439665D02*
X593099Y445087D01*
X595192Y450140D01*
X598521Y454479D01*
X602860Y457808D01*
X607913Y459900D01*
X613335Y460614D01*
X618757Y459900D01*
X623809Y457808D01*
X628148Y454479D01*
X631477Y450140D01*
X633570Y445087D01*
X634284Y439665D01*
G54D32*
X595386D02*
X596264Y445212D01*
X598814Y450215D01*
X602784Y454186D01*
X607788Y456736D01*
X613335Y457614D01*
X618881Y456736D01*
X623885Y454186D01*
X627856Y450215D01*
X630405Y445212D01*
X631284Y439665D01*
G54D34*
X613335Y403968D02*
X607552Y404825D01*
X602266Y407320D01*
X597931Y411241D01*
X594918Y416250D01*
X593486Y421917D01*
X633183D02*
X631751Y416250D01*
X628738Y411241D01*
X624403Y407320D01*
X619117Y404825D01*
X613335Y403968D01*
Y459614D02*
X619117Y458758D01*
X624403Y456262D01*
X628738Y452342D01*
X631751Y447333D01*
X633183Y441665D01*
X593486D02*
X594918Y447333D01*
X597931Y452342D01*
X602266Y456262D01*
X607552Y458758D01*
X613335Y459614D01*
G54D30*
X413335Y461114D02*
X418886Y460383D01*
X424059Y458241D01*
X428501Y454832D01*
X431910Y450390D01*
X434053Y445217D01*
X434784Y439665D01*
Y423917D01*
X433915Y417874D01*
X431379Y412321D01*
X427381Y407707D01*
X422245Y404407D01*
X416387Y402687D01*
X410282D01*
X404424Y404407D01*
X399288Y407707D01*
X395291Y412321D01*
X392754Y417874D01*
X391886Y423917D01*
Y439665D01*
X392616Y445217D01*
X394759Y450390D01*
X398168Y454832D01*
X402610Y458241D01*
X407783Y460383D01*
X413335Y461114D01*
G54D31*
X392386Y423917D02*
X434284D01*
X392386Y439665D02*
X434284D01*
G54D32*
X413335Y405968D03*
X399132Y412943D02*
X427538D01*
X395837Y419917D02*
X430832D01*
G54D31*
X413335Y402968D02*
X407913Y403682D01*
X402860Y405775D01*
X398521Y409104D01*
X395192Y413443D01*
X393099Y418495D01*
X392386Y423917D01*
X434284D02*
X433570Y418495D01*
X431477Y413443D01*
X428148Y409104D01*
X423809Y405775D01*
X418757Y403682D01*
X413335Y402968D01*
G54D32*
Y405968D02*
X407788Y406847D01*
X402784Y409396D01*
X398814Y413367D01*
X396264Y418371D01*
X395386Y423917D01*
X431284D02*
X430405Y418371D01*
X427856Y413367D01*
X423885Y409396D01*
X418881Y406847D01*
X413335Y405968D01*
G54D33*
X395386Y427917D02*
X431284D01*
X395386Y435665D02*
X431284D01*
G54D32*
X395837Y443665D02*
X430832D01*
X399132Y450640D02*
X427538D01*
X413335Y457614D03*
G54D31*
X392386Y439665D02*
X393099Y445087D01*
X395192Y450140D01*
X398521Y454479D01*
X402860Y457808D01*
X407913Y459900D01*
X413335Y460614D01*
X418757Y459900D01*
X423809Y457808D01*
X428148Y454479D01*
X431477Y450140D01*
X433570Y445087D01*
X434284Y439665D01*
G54D32*
X395386D02*
X396264Y445212D01*
X398814Y450215D01*
X402784Y454186D01*
X407788Y456736D01*
X413335Y457614D01*
X418881Y456736D01*
X423885Y454186D01*
X427856Y450215D01*
X430405Y445212D01*
X431284Y439665D01*
G54D34*
X413335Y403968D02*
X407552Y404825D01*
X402266Y407320D01*
X397931Y411241D01*
X394918Y416250D01*
X393486Y421917D01*
X433183D02*
X431751Y416250D01*
X428738Y411241D01*
X424403Y407320D01*
X419117Y404825D01*
X413335Y403968D01*
Y459614D02*
X419117Y458758D01*
X424403Y456262D01*
X428738Y452342D01*
X431751Y447333D01*
X433183Y441665D01*
X393486D02*
X394918Y447333D01*
X397931Y452342D01*
X402266Y456262D01*
X407552Y458758D01*
X413335Y459614D01*
G54D36*
X94669Y547965D03*
X55811Y513921D03*
X467244Y369882D03*
X548567Y228055D03*
X467244D03*
X213894Y510563D03*
X320846Y272213D03*
X173098Y510563D03*
X166232Y400921D03*
X240063Y140134D03*
X211268Y123634D03*
Y156634D03*
X23811Y180921D03*
Y147921D03*
Y213921D03*
X89811D03*
X56811D03*
X89811Y180921D03*
Y147921D03*
X56811D03*
X240831Y200209D03*
X56811Y180921D03*
X320846Y235335D03*
X423433Y253646D03*
G54D30*
X7343Y7343D02*
Y69188D01*
X13593Y70804D01*
X19783Y66057D01*
X28230Y62556D01*
X37282Y61362D01*
X56994D01*
X66050Y62556D01*
X74496Y66057D01*
X81753Y71622D01*
X87321Y78881D01*
X90822Y87329D01*
X92014Y96394D01*
X90822Y105463D01*
X87321Y113910D01*
X81752Y121166D01*
X74497Y126734D01*
X66049Y130235D01*
X56994Y131425D01*
X37281D01*
X28230Y130235D01*
X19783Y126734D01*
X13593Y121987D01*
X7343Y123607D01*
Y292019D01*
X13592Y293639D01*
X19783Y288888D01*
X28230Y285391D01*
X37281Y284201D01*
X56994D01*
X66049Y285391D01*
X74497Y288888D01*
X79889Y293024D01*
X86150Y290673D01*
Y276539D01*
X86780Y273357D01*
X88581Y270661D01*
X102299Y256947D01*
X104983Y255153D01*
X106476Y254859D01*
Y252133D01*
X108083Y248251D01*
Y244143D01*
X106476Y240265D01*
Y226544D01*
X107337Y224427D01*
X107058Y219488D01*
X105540Y214781D01*
X105492Y214680D01*
Y200952D01*
X107098Y197074D01*
Y192962D01*
X105492Y189084D01*
Y175361D01*
X107146Y171363D01*
X111144Y169709D01*
X189828D01*
X193822Y171363D01*
X195476Y175361D01*
Y185363D01*
X201724Y187951D01*
X218370Y171305D01*
X220900Y169614D01*
X223889Y169020D01*
X263224D01*
Y163664D01*
X264875Y159678D01*
X268865Y158024D01*
X280635D01*
X284625Y159678D01*
X286276Y163664D01*
Y169020D01*
X350294D01*
X351461Y167204D01*
Y160954D01*
X349606Y158107D01*
X349585Y158030D01*
X348710Y151284D01*
X349585Y144538D01*
X349606Y144459D01*
X351461Y141639D01*
Y135337D01*
X349602Y132512D01*
X348937Y129158D01*
Y122248D01*
X349607Y118874D01*
X351517Y116013D01*
X354378Y114103D01*
X357752Y113433D01*
X396749D01*
X396759Y113433D01*
X396759Y113433D02*
X399453Y114017D01*
X401789Y115481D01*
X403488Y117653D01*
X403488Y117653D02*
X405659Y118087D01*
X408189Y119778D01*
X413939Y125528D01*
X449560D01*
X452545Y126122D01*
X455075Y127813D01*
X518891Y191625D01*
X520590Y194168D01*
X521185Y197153D01*
Y398099D01*
X526879Y400459D01*
X532489Y404763D01*
X536793Y410373D01*
X539499Y416907D01*
X540421Y423908D01*
Y439665D01*
Y439665D02*
X539499Y446674D01*
X536795Y453205D01*
X532493Y458814D01*
X526887Y463119D01*
X520358Y465828D01*
X513350Y466756D01*
Y466756D02*
X513317D01*
X506320Y465833D01*
X499787Y463128D01*
X498303Y461988D01*
X492031Y465080D01*
Y498304D01*
X491437Y501293D01*
X489746Y503823D01*
X456209Y537360D01*
X453679Y539051D01*
X450693Y539646D01*
X440424D01*
Y539646D02*
X439508Y546662D01*
X436807Y553201D01*
X432504Y558818D01*
X426894Y563129D01*
X420358Y565841D01*
X413344Y566767D01*
X406329Y565846D01*
X399791Y563139D01*
X394178Y558832D01*
X389871Y553218D01*
X387165Y546681D01*
X386244Y539665D01*
Y539665D02*
Y523921D01*
X386244Y523921D02*
X387167Y516907D01*
X389874Y510372D01*
X394180Y504760D01*
X399793Y500454D01*
X406330Y497748D01*
X413344Y496827D01*
X420357Y497753D01*
X426891Y500464D01*
X432501Y504773D01*
X436804Y510389D01*
X439506Y516926D01*
X440424Y523941D01*
X440424Y523941D02*
X447419D01*
X476327Y495033D01*
Y411822D01*
X476921Y408837D01*
X478613Y406307D01*
X495480Y389439D01*
Y204569D01*
X442144Y151232D01*
X413975D01*
X408354Y156848D01*
X405824Y158539D01*
X403716Y158959D01*
X402433Y160954D01*
Y167203D01*
X404284Y170050D01*
X404305Y170128D01*
X405180Y176874D01*
X404305Y183620D01*
X404284Y183698D01*
X402433Y186545D01*
Y192794D01*
X404284Y195640D01*
X404305Y195718D01*
X405180Y202465D01*
X404305Y209211D01*
X404284Y209289D01*
X402433Y212136D01*
Y213697D01*
X408209Y219693D01*
X447635D01*
X452140Y212951D01*
X459070Y208315D01*
X467244Y206689D01*
X475422Y208315D01*
X482352Y212951D01*
X486980Y219881D01*
X488610Y228055D01*
X486980Y236230D01*
X482352Y243159D01*
X475610Y247668D01*
Y350269D01*
X482352Y354774D01*
X486980Y361704D01*
X488610Y369882D01*
X486980Y378056D01*
X482352Y384986D01*
X475422Y389618D01*
X467244Y391244D01*
X459070Y389618D01*
X452140Y384986D01*
X447508Y378056D01*
X445882Y369882D01*
X447508Y361704D01*
X452140Y354774D01*
X458886Y350269D01*
Y247668D01*
X452140Y243159D01*
X447635Y236417D01*
X403258D01*
X402433Y237724D01*
Y243975D01*
X404288Y246827D01*
X404885Y249840D01*
X404877Y249850D01*
X349013D01*
X349005Y249840D01*
X349602Y246827D01*
X351461Y243975D01*
Y237726D01*
X349606Y234875D01*
X349585Y234797D01*
X348710Y228053D01*
X349585Y221309D01*
X349606Y221231D01*
X351461Y218384D01*
Y216169D01*
X345889Y210315D01*
X286276D01*
Y215619D01*
X284625Y219606D01*
X280635Y221260D01*
X268865D01*
X267487Y220689D01*
X264333D01*
X250390Y234632D01*
X247860Y236323D01*
X244871Y236917D01*
X196461D01*
Y240265D01*
X194854Y244143D01*
Y248251D01*
X196461Y252133D01*
Y265856D01*
X194806Y269850D01*
X190813Y271508D01*
X154633D01*
X154384Y271777D01*
X152295Y276814D01*
X154062Y279692D01*
X155183Y282878D01*
X178753D01*
X182936Y284611D01*
X184669Y288794D01*
Y370922D01*
X182936Y375106D01*
X178753Y376839D01*
X116310D01*
X112127Y375106D01*
X110394Y370922D01*
Y288794D01*
X112127Y284611D01*
X116310Y282878D01*
X124131D01*
Y282878D02*
X125254Y279690D01*
X127022Y276811D01*
Y276811D02*
X124935Y271777D01*
X124686Y271508D01*
X112128D01*
X111603Y271289D01*
X102870Y280022D01*
Y389394D01*
X106667D01*
X110653Y391044D01*
X112307Y395034D01*
Y406809D01*
X112047Y407435D01*
Y411947D01*
X126773Y426673D01*
X128575Y429369D01*
X129185Y432432D01*
X134481Y435055D01*
X151155D01*
X155196Y436729D01*
X156866Y440771D01*
Y445118D01*
X174992D01*
Y441743D01*
X176658Y437709D01*
X180692Y436039D01*
X219911D01*
X223940Y437709D01*
X225610Y441743D01*
Y465214D01*
X223940Y469247D01*
X219911Y470917D01*
X180692D01*
X176658Y469247D01*
X174992Y465214D01*
Y461839D01*
X156866D01*
Y466186D01*
X155196Y470227D01*
X151155Y471902D01*
X117865D01*
X113824Y470228D01*
X112150Y466186D01*
Y440770D01*
X112488Y439955D01*
Y436034D01*
X97758Y421308D01*
X95957Y418611D01*
X95343Y415530D01*
X90897Y412425D01*
X86969Y410794D01*
X85315Y406808D01*
Y395034D01*
X86150Y393026D01*
Y347787D01*
X79889Y345432D01*
X74497Y349569D01*
X66050Y353066D01*
X56994Y354260D01*
X37282D01*
X28230Y353066D01*
X19783Y349569D01*
X13592Y344818D01*
X7343Y346438D01*
Y622579D01*
X531910D01*
X534478Y616307D01*
X530335Y610103D01*
X528401Y600394D01*
X530335Y590684D01*
X535837Y582451D01*
X544070Y576949D01*
X553759Y575020D01*
X583327D01*
X593021Y576949D01*
X601254Y582451D01*
X606752Y590684D01*
X607121Y592543D01*
X655024D01*
Y575987D01*
X656698Y571938D01*
X660746Y570264D01*
X692049D01*
X696098Y571938D01*
X697776Y575987D01*
Y603352D01*
X696098Y607401D01*
X692049Y609075D01*
X660747D01*
X658739Y608244D01*
X607121D01*
X606752Y610103D01*
X602609Y616307D01*
X605177Y622579D01*
X740689D01*
Y7343D01*
X605177D01*
X602609Y13615D01*
X606752Y19818D01*
X607121Y21677D01*
X674556D01*
X677545Y22272D01*
X680075Y23963D01*
X708250Y52137D01*
X709940Y54668D01*
X709966Y54791D01*
X727509D01*
X731554Y56465D01*
X733232Y60514D01*
Y91816D01*
X731554Y95865D01*
X727509Y97543D01*
X700144D01*
X696095Y95865D01*
X694417Y91816D01*
Y60517D01*
X694418Y60515D01*
X671285Y37378D01*
X607121D01*
X606752Y39237D01*
X601254Y47471D01*
X593021Y52972D01*
X583327Y54902D01*
X553759D01*
X544070Y52972D01*
X535837Y47470D01*
X530335Y39238D01*
X528401Y29528D01*
X530335Y19818D01*
X534478Y13615D01*
X531910Y7343D01*
X408326D01*
X405758Y13615D01*
X409902Y19818D01*
X411835Y29528D01*
X409901Y39237D01*
X404403Y47471D01*
X396171Y52972D01*
X386477Y54902D01*
X356909D01*
X347219Y52972D01*
X338986Y47470D01*
X333484Y39238D01*
X333112Y37378D01*
X324945D01*
Y48017D01*
X323267Y52062D01*
X319218Y53740D01*
X287916D01*
X283867Y52062D01*
X282193Y48017D01*
Y20652D01*
X283867Y16603D01*
X287916Y14925D01*
X319218D01*
X323267Y16603D01*
X324945Y20652D01*
Y21677D01*
X333112D01*
X333484Y19818D01*
X337628Y13615D01*
X335059Y7343D01*
X7343D01*
X34449Y513921D02*
X36075Y505747D01*
X40707Y498813D01*
X47637Y494185D01*
X55811Y492559D01*
X63985Y494185D01*
X70915Y498813D01*
X75547Y505747D01*
X77173Y513921D01*
X75547Y522096D01*
X70915Y529025D01*
X63986Y533657D01*
X63661Y533723D01*
Y567671D01*
X91175Y595177D01*
X306671D01*
X318921Y582931D01*
Y550338D01*
X319512Y547349D01*
X321207Y544818D01*
X389598Y476424D01*
X392129Y474732D01*
X395114Y474138D01*
X431313D01*
X447638Y457817D01*
Y411364D01*
X402124Y365854D01*
X399513Y367602D01*
X396158Y368268D01*
X357732D01*
X354377Y367602D01*
X351518Y365687D01*
X349606Y362829D01*
X349606Y362829D02*
X348709Y356006D01*
X349606Y349184D01*
X349606Y349184D02*
X351461Y346337D01*
Y340088D01*
X349606Y337241D01*
X348710Y330417D01*
X349606Y323593D01*
X351461Y320746D01*
Y314498D01*
X349606Y311651D01*
X348710Y304827D01*
X349606Y298003D01*
X351461Y295156D01*
Y288907D01*
X349606Y286060D01*
X349606Y286060D02*
X348710Y279236D01*
X349605Y272412D01*
X349606Y272412D02*
X351461Y269561D01*
Y263313D01*
X349602Y260465D01*
X349005Y257451D01*
X349013Y257441D01*
X404877D01*
X404885Y257451D01*
X404288Y260464D01*
X402433Y263313D01*
Y269561D01*
X404284Y272412D01*
X404284Y272412D02*
X405180Y279236D01*
X404284Y286060D01*
X404284Y286060D02*
X402433Y288907D01*
Y295156D01*
X404284Y298003D01*
X405180Y304827D01*
X404284Y311651D01*
X402433Y314498D01*
Y320746D01*
X404284Y323593D01*
X405180Y330417D01*
X404284Y337242D01*
X402433Y340088D01*
Y344652D01*
X402956Y347195D01*
X403627Y348198D01*
X406387Y348752D01*
X408918Y350439D01*
X461053Y402578D01*
X462744Y405105D01*
X463339Y408094D01*
Y461091D01*
X462744Y464076D01*
X461053Y466607D01*
X440103Y487557D01*
X437572Y489252D01*
X434587Y489843D01*
X398388D01*
X334622Y553608D01*
Y586201D01*
X334027Y589190D01*
X332336Y591721D01*
X315461Y608596D01*
X312930Y610291D01*
X309945Y610882D01*
X87901D01*
X84916Y610291D01*
X82385Y608596D01*
X50246Y576457D01*
X48555Y573927D01*
X47961Y570941D01*
Y533723D01*
X47636Y533657D01*
X40707Y529025D01*
X36075Y522096D01*
X34449Y513921D01*
X73303Y547965D02*
X74929Y539794D01*
X79565Y532860D01*
X86495Y528228D01*
X94669Y526602D01*
X102844Y528228D01*
X109774Y532860D01*
X114405Y539794D01*
X116031Y547965D01*
X114732Y554496D01*
X118165Y558656D01*
X119554Y559657D01*
X213689D01*
Y551861D01*
X215367Y547812D01*
X219416Y546134D01*
X246781D01*
X250830Y547812D01*
X252504Y551861D01*
Y583163D01*
X250830Y587212D01*
X246781Y588886D01*
X219416D01*
X215367Y587212D01*
X213689Y583163D01*
Y575362D01*
X114192D01*
X111207Y574768D01*
X108677Y573076D01*
X103120Y567520D01*
X102844Y567705D01*
X94669Y569331D01*
X86495Y567705D01*
X79565Y563073D01*
X74929Y556143D01*
X73303Y547965D01*
X110394Y44700D02*
X112127Y40517D01*
X116310Y38783D01*
X178753D01*
X182936Y40517D01*
X184669Y44700D01*
Y126832D01*
X182936Y131011D01*
X178753Y132748D01*
X155182D01*
X153114Y137642D01*
X149554Y141585D01*
X144896Y144141D01*
X139657Y145025D01*
X134419Y144141D01*
X129761Y141585D01*
X126201Y137642D01*
X124132Y132748D01*
X116310D01*
X112127Y131011D01*
X110394Y126832D01*
Y44700D01*
X112150Y497857D02*
X113824Y493816D01*
X117865Y492142D01*
X130713D01*
Y506772D01*
X112150D01*
Y497857D01*
Y514358D02*
X130713D01*
Y528988D01*
X117865D01*
X113824Y527314D01*
X112150Y523273D01*
Y514358D01*
X122717Y395034D02*
X124371Y391044D01*
X128357Y389394D01*
X132421D01*
Y397126D01*
X122717D01*
Y395034D01*
Y404717D02*
X132421D01*
Y412449D01*
X128357D01*
X124371Y410794D01*
X122717Y406808D01*
Y404717D01*
X138303Y492142D02*
X151155D01*
X155196Y493816D01*
X156866Y497857D01*
Y506772D01*
X138303D01*
Y492142D01*
Y514358D02*
X156866D01*
Y523273D01*
X155196Y527314D01*
X151155Y528988D01*
X138303D01*
Y514358D01*
X140012Y389394D02*
X144068D01*
X148058Y391044D01*
X149709Y395034D01*
Y397126D01*
X140012D01*
Y389394D01*
Y404717D02*
X149709D01*
Y406808D01*
X148058Y410794D01*
X144069Y412449D01*
X140012D01*
Y404717D01*
X227004Y19656D02*
X228678Y15615D01*
X232719Y13945D01*
X245567D01*
Y28571D01*
X227004D01*
Y19656D01*
Y36161D02*
X245567D01*
Y50787D01*
X232719D01*
X228678Y49113D01*
X227004Y45076D01*
Y36161D01*
Y76743D02*
X228678Y72702D01*
X232719Y71028D01*
X266009D01*
X270050Y72702D01*
X271720Y76743D01*
Y81598D01*
X282193D01*
Y75770D01*
X283867Y71721D01*
X287916Y70043D01*
X319218D01*
X320167Y70437D01*
X492969D01*
X495954Y71032D01*
X498485Y72723D01*
X569191Y143433D01*
X578640D01*
X579803Y141610D01*
Y135360D01*
X577956Y132517D01*
Y132517D02*
X577055Y125692D01*
X577956Y118868D01*
Y118868D02*
X579860Y116010D01*
X582723Y114099D01*
X586079Y113433D01*
X624504D01*
X627859Y114099D01*
X630718Y116010D01*
X631944Y117843D01*
X640784D01*
X641957Y115005D01*
X645999Y113335D01*
X650854D01*
Y97543D01*
X645022D01*
X640977Y95865D01*
X639299Y91816D01*
Y60514D01*
X640977Y56465D01*
X645022Y54791D01*
X672387D01*
X676440Y56465D01*
X678114Y60514D01*
Y91817D01*
X676440Y95865D01*
X672387Y97543D01*
X666559D01*
Y113335D01*
X671414D01*
X675456Y115005D01*
X677130Y119046D01*
Y152336D01*
X675456Y156377D01*
X671415Y158051D01*
X645999D01*
X641957Y156377D01*
X640283Y152336D01*
Y133543D01*
X631946D01*
X630776Y135359D01*
Y141609D01*
X632631Y144460D01*
Y144459D02*
X633526Y151283D01*
X632631Y158107D01*
Y158107D02*
X630776Y160954D01*
Y167203D01*
X632631Y170050D01*
X633526Y176874D01*
X632631Y183698D01*
X630776Y186545D01*
Y188757D01*
X634991Y193190D01*
X641696Y192409D01*
X641958Y191776D01*
X645999Y190106D01*
X671414D01*
X675456Y191776D01*
X677130Y195821D01*
Y229107D01*
X675456Y233149D01*
X671415Y234823D01*
X656465D01*
Y389709D01*
X655870Y392694D01*
X654179Y395225D01*
X637450Y411958D01*
X639499Y416907D01*
X640421Y423908D01*
Y439679D01*
X639492Y446698D01*
X636784Y453230D01*
X632477Y458839D01*
X626865Y463142D01*
X620331Y465846D01*
X613320Y466766D01*
X606309Y465840D01*
X599777Y463131D01*
X594169Y458824D01*
X589866Y453211D01*
X587163Y446677D01*
X586244Y439665D01*
Y423921D01*
Y423921D02*
X587164Y416911D01*
X589866Y410378D01*
X594168Y404768D01*
X599775Y400462D01*
X606306Y397754D01*
X613316Y396829D01*
X620325Y397750D01*
Y397750D02*
X626767Y400428D01*
X640764Y386435D01*
Y230265D01*
X640283Y229108D01*
Y210315D01*
X631946D01*
X630776Y212135D01*
Y218384D01*
X632631Y221231D01*
X633527Y228053D01*
X632631Y234875D01*
X630776Y237726D01*
Y243975D01*
X632631Y246822D01*
X633526Y253646D01*
X632631Y260470D01*
X630776Y263313D01*
Y269561D01*
X632631Y272412D01*
Y272412D02*
X633526Y279236D01*
X632631Y286060D01*
Y286060D02*
X630776Y288907D01*
Y295156D01*
X632631Y298003D01*
X633526Y304827D01*
X632631Y311651D01*
X630776Y314498D01*
Y320746D01*
X632631Y323593D01*
X633526Y330417D01*
X632631Y337241D01*
X630776Y340088D01*
Y346337D01*
X632634Y349189D01*
X633299Y352543D01*
Y359453D01*
X632629Y362826D01*
X630718Y365686D01*
X627858Y367597D01*
X624484Y368268D01*
X600465D01*
Y379807D01*
X599874Y382793D01*
X598183Y385324D01*
X564976Y418530D01*
Y449309D01*
X592864Y477197D01*
X654308D01*
X655713Y473808D01*
X659750Y472134D01*
X693041D01*
X697082Y473808D01*
X698756Y477849D01*
Y503265D01*
X697082Y507306D01*
X693041Y508980D01*
X684248D01*
Y515142D01*
X692049D01*
X696098Y516820D01*
X697776Y520869D01*
Y548234D01*
X696098Y552283D01*
X692049Y553961D01*
X660747D01*
X656697Y552283D01*
X655024Y548234D01*
Y520869D01*
X656697Y516820D01*
X660747Y515142D01*
X668547D01*
Y508980D01*
X659750D01*
X655713Y507306D01*
X654035Y503265D01*
Y492902D01*
X589590D01*
X586609Y492311D01*
X584074Y490615D01*
X551553Y458099D01*
X549866Y455568D01*
X549272Y452583D01*
Y415255D01*
X549866Y412274D01*
X551553Y409740D01*
X584764Y376533D01*
Y368029D01*
X581030Y366680D01*
X578335Y363764D01*
X577284Y359936D01*
X577283Y352543D01*
X577953Y349189D01*
X579803Y346337D01*
Y340088D01*
X577956Y337241D01*
X577055Y330417D01*
X577956Y323593D01*
X579803Y320747D01*
Y314498D01*
X577956Y311651D01*
X577055Y304827D01*
X577956Y298003D01*
X579803Y295156D01*
Y288907D01*
X577956Y286060D01*
X577055Y279236D01*
X577956Y272412D01*
X579803Y269562D01*
Y263313D01*
X577956Y260470D01*
X577055Y253646D01*
X577956Y246822D01*
X579803Y243975D01*
Y242413D01*
X574094Y236489D01*
X567924Y236798D01*
X563671Y243159D01*
X556741Y247791D01*
X548567Y249417D01*
X540393Y247791D01*
X533459Y243159D01*
X528827Y236230D01*
X527201Y228055D01*
X528827Y219881D01*
X533459Y212951D01*
X540392Y208315D01*
X548567Y206689D01*
X556741Y208315D01*
X563671Y212951D01*
X568180Y219693D01*
X578978D01*
X579803Y218386D01*
Y212135D01*
X577956Y209288D01*
X577055Y202464D01*
X577956Y195640D01*
X579803Y192794D01*
Y186545D01*
X577956Y183698D01*
X577055Y176874D01*
X577956Y170050D01*
X579803Y167203D01*
Y164991D01*
X574235Y159134D01*
X565921D01*
X562932Y158539D01*
X560401Y156848D01*
X489695Y86142D01*
X324945D01*
Y103135D01*
X323267Y107180D01*
X319218Y108858D01*
X287916D01*
X283867Y107180D01*
X282193Y103135D01*
Y97303D01*
X271720D01*
Y102159D01*
X270050Y106200D01*
X266009Y107874D01*
X232719D01*
X228678Y106200D01*
X227004Y102159D01*
Y76743D01*
X253157Y13945D02*
X266009D01*
X270050Y15615D01*
X271720Y19656D01*
Y28571D01*
X253157D01*
Y13945D01*
Y36161D02*
X271720D01*
Y45076D01*
X270050Y49113D01*
X266009Y50787D01*
X253157D01*
Y36161D01*
X261606Y404345D02*
X263276Y400312D01*
X267306Y398638D01*
X283118D01*
Y412283D01*
X261606D01*
Y404345D01*
Y419874D02*
X283118D01*
Y433512D01*
X267306D01*
X263276Y431842D01*
X261606Y427812D01*
Y419874D01*
Y479144D02*
X263276Y475111D01*
X267306Y473441D01*
X306525D01*
X307325Y473776D01*
X313896D01*
X319766Y467915D01*
X319766D02*
X324027Y465815D01*
X328764Y465464D01*
X328764D02*
Y451479D01*
X330438Y447442D01*
X334479Y445768D01*
X356974D01*
X357126Y445003D01*
X358928Y442306D01*
X367999Y433235D01*
X370696Y431433D01*
X373857Y430799D01*
X386244D01*
Y423908D01*
X387167Y416907D01*
X389872Y410373D01*
X394192Y404751D01*
X394192Y404751D02*
X399800Y400450D01*
X406330Y397747D01*
X413338Y396825D01*
X420344Y397748D01*
X426874Y400452D01*
X432482Y404754D01*
X436785Y410360D01*
X439492Y416889D01*
X439492Y416889D02*
X440421Y423908D01*
Y439665D01*
Y439665D02*
X439502Y446675D01*
X436799Y453208D01*
X432497Y458819D01*
X426890Y463125D01*
X420359Y465832D01*
X413350Y466757D01*
X406340Y465837D01*
Y465837D02*
X399787Y463128D01*
X394177Y458823D01*
X389872Y453213D01*
X387517Y447520D01*
X377732D01*
X373484Y451607D01*
Y476895D01*
X371806Y480940D01*
X367769Y482610D01*
X334479D01*
X333530Y482217D01*
X329104D01*
X323260Y488065D01*
X320564Y489866D01*
X317439Y490484D01*
X312228Y494057D01*
Y502612D01*
X310558Y506649D01*
X306525Y508319D01*
X296575D01*
Y546134D01*
X301899D01*
X305944Y547812D01*
X307622Y551861D01*
Y583163D01*
X305944Y587212D01*
X301899Y588886D01*
X274534D01*
X270485Y587212D01*
X268807Y583163D01*
Y551861D01*
X270485Y547812D01*
X274534Y546134D01*
X279854D01*
Y508319D01*
X267306D01*
X263276Y506649D01*
X261606Y502612D01*
Y479144D01*
X263224Y126262D02*
X264875Y122276D01*
X268865Y120622D01*
X270957D01*
Y130327D01*
X263224D01*
Y126262D01*
Y137913D02*
X270957D01*
Y147614D01*
X268865D01*
X264875Y145964D01*
X263224Y141978D01*
Y137913D01*
Y237310D02*
X264875Y233324D01*
X268865Y231669D01*
X270957D01*
Y241370D01*
X263224D01*
Y237310D01*
Y248965D02*
X270957D01*
Y258661D01*
X268865D01*
X264875Y257007D01*
X263224Y253021D01*
Y248965D01*
X278547Y120622D02*
X280635D01*
X284625Y122276D01*
X286276Y126262D01*
Y130327D01*
X278547D01*
Y120622D01*
Y137913D02*
X286276D01*
Y141978D01*
X284625Y145964D01*
X280635Y147614D01*
X278547D01*
Y137913D01*
Y231669D02*
X280635D01*
X284625Y233324D01*
X286276Y237310D01*
Y241370D01*
X278547D01*
Y231669D01*
Y248965D02*
X286276D01*
Y253021D01*
X284625Y257007D01*
X280635Y258661D01*
X278547D01*
Y248965D01*
X290709Y398638D02*
X306525D01*
X310558Y400312D01*
X312228Y404345D01*
Y412283D01*
X290709D01*
Y398638D01*
Y419874D02*
X312228D01*
Y427812D01*
X310558Y431842D01*
X306525Y433512D01*
X290709D01*
Y419874D01*
X328764Y394396D02*
X330438Y390351D01*
X334479Y388681D01*
X347327D01*
Y403307D01*
X328764D01*
Y394396D01*
Y410898D02*
X347327D01*
Y425524D01*
X334479D01*
X330438Y423850D01*
X328764Y419813D01*
Y410898D01*
X354917Y388681D02*
X367769D01*
X371806Y390351D01*
X373484Y394396D01*
Y403307D01*
X354917D01*
Y388681D01*
Y410898D02*
X373484D01*
Y419813D01*
X371806Y423850D01*
X367769Y425524D01*
X354917D01*
Y410898D01*
X654035Y420762D02*
X655713Y416721D01*
X659750Y415047D01*
X672602D01*
Y429673D01*
X654035D01*
Y420762D01*
Y437264D02*
X672602D01*
Y451894D01*
X659750D01*
X655713Y450220D01*
X654035Y446179D01*
Y437264D01*
X680189Y415047D02*
X693041D01*
X697082Y416721D01*
X698756Y420763D01*
Y429673D01*
X680189D01*
Y415047D01*
Y437264D02*
X698756D01*
Y446178D01*
X697082Y450220D01*
X693041Y451894D01*
X680189D01*
Y437264D01*
X697370Y119046D02*
X699044Y115005D01*
X703086Y113335D01*
X712000D01*
Y131894D01*
X697370D01*
Y119046D01*
Y139484D02*
X712000D01*
Y158051D01*
X703085D01*
X699044Y156377D01*
X697370Y152336D01*
Y139484D01*
Y195821D02*
X699044Y191776D01*
X703086Y190106D01*
X712004D01*
Y208669D01*
X697370D01*
Y195821D01*
Y216260D02*
X712004D01*
Y234823D01*
X703085D01*
X699044Y233149D01*
X697370Y229107D01*
Y216260D01*
X719591Y113335D02*
X728501D01*
X732542Y115005D01*
X734217Y119046D01*
Y131894D01*
X719591D01*
Y113335D01*
Y139484D02*
X734217D01*
Y152336D01*
X732543Y156377D01*
X728501Y158051D01*
X719591D01*
Y139484D01*
Y190106D02*
X728501D01*
X732543Y191776D01*
X734217Y195821D01*
Y208669D01*
X719591D01*
Y190106D01*
Y216260D02*
X734217D01*
Y229107D01*
X732543Y233149D01*
X728501Y234823D01*
X719591D01*
Y216260D01*
G54D31*
X7843Y13671D02*
X232113D01*
X245676D02*
X253049D01*
X266615D02*
X337007D01*
X7843Y14445D02*
X230241D01*
X246067D02*
X252657D01*
X268488D02*
X287925D01*
X319209D02*
X336491D01*
X7843Y15998D02*
X227995D01*
X7843Y19756D02*
X226504D01*
X7843Y28071D02*
X226504D01*
X7843Y36661D02*
X226504D01*
X246067D02*
X252657D01*
X272220D02*
X281693D01*
X7843Y39283D02*
X113837D01*
X181226D02*
X226504D01*
X7843Y40899D02*
X111444D01*
X7843Y44799D02*
X109894D01*
X7843Y61862D02*
X29788D01*
X64491D02*
X109894D01*
X7843Y63044D02*
X25789D01*
X7843Y66494D02*
X18417D01*
X10774Y69575D02*
X14400D01*
X7843Y126297D02*
X18417D01*
X10765Y123220D02*
X14405D01*
X7843Y129748D02*
X25789D01*
X7843Y130925D02*
X29763D01*
X7843Y132248D02*
X113843D01*
X7843Y144525D02*
X134054D01*
X7843Y145581D02*
X264192D01*
X7843Y147114D02*
X266388D01*
X7843Y151284D02*
X348210D01*
X7843Y157902D02*
X267893D01*
X281607D02*
X349052D01*
X7843Y158524D02*
X266394D01*
X283106D02*
X349299D01*
X7843Y160061D02*
X264192D01*
X7843Y163763D02*
X262724D01*
X7843Y169520D02*
X110334D01*
X190638D02*
X220170D01*
X7843Y170085D02*
X108967D01*
X192003D02*
X219324D01*
X7843Y170209D02*
X108669D01*
X192301D02*
X219139D01*
X7843Y171746D02*
X106464D01*
X7843Y175460D02*
X104992D01*
X7843Y188984D02*
X104992D01*
X7843Y192862D02*
X106533D01*
X7843Y197173D02*
X106533D01*
X7843Y201051D02*
X104992D01*
X7843Y214568D02*
X104992D01*
X7843Y223043D02*
X106886D01*
X7843Y224542D02*
X106767D01*
X7843Y226641D02*
X105976D01*
X7843Y240166D02*
X105976D01*
X7843Y244044D02*
X107517D01*
X7843Y248350D02*
X107517D01*
X7843Y252232D02*
X105976D01*
X7843Y255270D02*
X103937D01*
X7843Y255625D02*
X103406D01*
X7843Y257336D02*
X101225D01*
X7843Y270980D02*
X87785D01*
X7843Y273552D02*
X86251D01*
X7843Y276588D02*
X85650D01*
X7843Y284701D02*
X29763D01*
X64516D02*
X85650D01*
X7843Y285878D02*
X25787D01*
X7843Y289325D02*
X18418D01*
X10765Y292406D02*
X14404D01*
X10765Y346051D02*
X14404D01*
X7843Y349132D02*
X18418D01*
X7843Y352579D02*
X25787D01*
X7843Y353760D02*
X29788D01*
X7843Y393126D02*
X85583D01*
X7843Y395134D02*
X84815D01*
X7843Y406709D02*
X84815D01*
X7843Y410412D02*
X86286D01*
X7843Y411984D02*
X88571D01*
X7843Y415235D02*
X94075D01*
X7843Y418416D02*
X95428D01*
X7843Y420989D02*
X96963D01*
X7843Y435826D02*
X111596D01*
X7843Y440055D02*
X111922D01*
X7843Y440870D02*
X111650D01*
X7843Y466087D02*
X111650D01*
X7843Y469845D02*
X113141D01*
X7843Y471402D02*
X115392D01*
X7843Y473941D02*
X264834D01*
X7843Y475494D02*
X262594D01*
X7843Y479244D02*
X261106D01*
X7843Y492642D02*
X52912D01*
X58710D02*
X115392D01*
X131213D02*
X137803D01*
X153628D02*
X261106D01*
X7843Y493069D02*
X50765D01*
X60857D02*
X114361D01*
X7843Y494656D02*
X46059D01*
X7843Y499174D02*
X39883D01*
X7843Y505942D02*
X35546D01*
X7843Y513921D02*
X33958D01*
X7843Y521900D02*
X35546D01*
X7843Y528665D02*
X39883D01*
X7843Y533187D02*
X46060D01*
X7843Y533313D02*
X46250D01*
X7843Y570892D02*
X47461D01*
X7843Y573731D02*
X48026D01*
X7843Y576139D02*
X49451D01*
X7843Y608208D02*
X81312D01*
X7843Y609820D02*
X83342D01*
X7843Y610382D02*
X84181D01*
X7843Y616250D02*
X533858D01*
X64878Y494198D02*
X113141D01*
X68490Y63044D02*
X109894D01*
X64491Y353760D02*
X85650D01*
X64516Y130925D02*
X111567D01*
X68493Y285878D02*
X85650D01*
X66366Y130628D02*
X111444D01*
X65563Y494656D02*
X112951D01*
X65372Y533313D02*
X78679D01*
X64161Y539989D02*
X74400D01*
X64161Y547965D02*
X72813D01*
X64161Y555948D02*
X74400D01*
X64161Y562712D02*
X78741D01*
X64161Y567234D02*
X84918D01*
X64554Y567878D02*
X85883D01*
X65497Y568821D02*
X89624D01*
X65511Y533221D02*
X78741D01*
X65562Y533187D02*
X78764D01*
X70505Y497956D02*
X111650D01*
X69365Y572688D02*
X107603D01*
X75862Y66494D02*
X109894D01*
X68490Y129748D02*
X111078D01*
X75862Y289325D02*
X85650D01*
X68493Y352579D02*
X85650D01*
X70974Y574297D02*
X109631D01*
X71739Y499174D02*
X111650D01*
X71540Y574862D02*
X110477D01*
X79743Y583063D02*
X213189D01*
X71716Y528699D02*
X84919D01*
X76076Y505942D02*
X111650D01*
X71739Y528665D02*
X84970D01*
X72777Y527112D02*
X89624D01*
X99715D02*
X113215D01*
X72898Y526931D02*
X90531D01*
X98808D02*
X113141D01*
X75294Y126733D02*
X109894D01*
X75410Y523173D02*
X111650D01*
X82637Y71979D02*
X109894D01*
X75862Y126297D02*
X109894D01*
X78071Y291019D02*
X83849D01*
X75862Y349132D02*
X85650D01*
X76142Y506272D02*
X111650D01*
X76076Y521900D02*
X111650D01*
X76453Y507819D02*
X264834D01*
X77664Y513921D02*
X112348D01*
X130515D02*
X138501D01*
X156668D02*
X279354D01*
X78066Y347441D02*
X83853D01*
X77477Y514858D02*
X111650D01*
X131213D02*
X137803D01*
X157366D02*
X279354D01*
X83510Y586829D02*
X214684D01*
X82637Y120809D02*
X109894D01*
X87950Y79133D02*
X109894D01*
X85067Y588386D02*
X216939D01*
X91334Y87459D02*
X109894D01*
X87950Y113658D02*
X109894D01*
X92509Y96394D02*
X109894D01*
X91334Y105332D02*
X109894D01*
X104104Y528488D02*
X115392D01*
X99715Y568821D02*
X103736D01*
X104420Y528699D02*
X115901D01*
X131174D02*
X137842D01*
X153118D02*
X279354D01*
X103762Y279815D02*
X124663D01*
X103370Y283378D02*
X113837D01*
X103370Y284994D02*
X111444D01*
X103370Y288894D02*
X109894D01*
X103370Y370823D02*
X109894D01*
X103370Y374723D02*
X111444D01*
X103370Y376339D02*
X113837D01*
X107419Y389181D02*
X127604D01*
X132600D02*
X139833D01*
X144822D02*
X332001D01*
X347827D02*
X354417D01*
X370245D02*
X424767D01*
X109141Y389894D02*
X125883D01*
X132921D02*
X139512D01*
X146545D02*
X330308D01*
X110597Y533221D02*
X279354D01*
X106687Y276890D02*
X126358D01*
X111336Y391427D02*
X123688D01*
X114934Y539989D02*
X279354D01*
X112807Y395134D02*
X122217D01*
X112613Y407335D02*
X122410D01*
X112547Y410412D02*
X123688D01*
X112734Y411949D02*
X125889D01*
X112939Y412154D02*
X126382D01*
X132884D02*
X139549D01*
X146045D02*
X261194D01*
X283530D02*
X290296D01*
X312641D02*
X328264D01*
X120499Y419713D02*
X261377D01*
X283348D02*
X290479D01*
X312458D02*
X328264D01*
X112807Y396626D02*
X122217D01*
X112807Y399138D02*
X264840D01*
X283618D02*
X290209D01*
X308993D02*
X328264D01*
X112807Y400694D02*
X262594D01*
X112807Y404445D02*
X122606D01*
X132532D02*
X139901D01*
X149820D02*
X261106D01*
X112807Y405217D02*
X122217D01*
X132921D02*
X139512D01*
X150209D02*
X261106D01*
X112807Y406709D02*
X122217D01*
X116261Y546634D02*
X216944D01*
X249253D02*
X272062D01*
X115471Y554631D02*
X213189D01*
X119504Y559025D02*
X213189D01*
X115726Y551960D02*
X213189D01*
X116522Y547965D02*
X214779D01*
X116480Y548194D02*
X214684D01*
X121160Y420374D02*
X261106D01*
X283618D02*
X290209D01*
X312728D02*
X328472D01*
X127569Y426991D02*
X261106D01*
X128051Y427713D02*
X261106D01*
X129108Y429564D02*
X261808D01*
X129485Y431459D02*
X262593D01*
X130961Y432771D02*
X264253D01*
X131447Y433012D02*
X264834D01*
X132681Y433623D02*
X266309D01*
X283390D02*
X290437D01*
X307522D02*
X366926D01*
X131213Y506272D02*
X137803D01*
X131213Y528488D02*
X137803D01*
X153628Y435555D02*
X180771D01*
X219833D02*
X364994D01*
X132921Y396626D02*
X139512D01*
X132921Y411949D02*
X139512D01*
X145261Y144525D02*
X263755D01*
X146539Y411949D02*
X261136D01*
X283589D02*
X290238D01*
X312699D02*
X328264D01*
X148375Y390734D02*
X329755D01*
X146938Y411783D02*
X261106D01*
X148741Y391427D02*
X329468D01*
X150010Y394496D02*
X328264D01*
X148741Y410412D02*
X261106D01*
X149963Y141878D02*
X262724D01*
X150209Y395133D02*
X328264D01*
X150209Y396626D02*
X328264D01*
X150209Y406709D02*
X261106D01*
X155614Y436539D02*
X178218D01*
X222382D02*
X364010D01*
X153628Y471402D02*
X180771D01*
X219833D02*
X315586D01*
X155878Y494198D02*
X261106D01*
X153628Y528488D02*
X279354D01*
X154379Y279236D02*
X348210D01*
X152959Y276893D02*
X348316D01*
X153184Y138413D02*
X262724D01*
X271457D02*
X278047D01*
X286776D02*
X350961D01*
X181226Y283378D02*
X348543D01*
X155878Y437112D02*
X176835D01*
X155614Y470417D02*
X178218D01*
X154560Y272618D02*
X349052D01*
X154916Y135187D02*
X350782D01*
X192086Y271504D02*
X349619D01*
X181049Y132319D02*
X349070D01*
X156283Y438092D02*
X175976D01*
X155878Y469845D02*
X176835D01*
X157366Y497956D02*
X261106D01*
X155878Y526931D02*
X279354D01*
X157366Y440870D02*
X174829D01*
X156283Y468865D02*
X175976D01*
X157366Y441842D02*
X174492D01*
X157366Y465115D02*
X174492D01*
X157366Y466087D02*
X174829D01*
X157366Y502512D02*
X261106D01*
X157366Y506266D02*
X262594D01*
X157366Y506272D02*
X262596D01*
X157366Y523174D02*
X279354D01*
X181220Y132248D02*
X349056D01*
X183619Y40899D02*
X226504D01*
X183619Y284994D02*
X348848D01*
X181226Y376339D02*
X411924D01*
X185169Y44799D02*
X226504D01*
X183976Y285855D02*
X349052D01*
X183619Y374723D02*
X410308D01*
X183619Y130628D02*
X263153D01*
X271028D02*
X278476D01*
X286347D02*
X348735D01*
X183952Y129827D02*
X262724D01*
X185144Y288759D02*
X350786D01*
X185169Y288894D02*
X350874D01*
X185169Y44977D02*
X226504D01*
X185169Y48731D02*
X227995D01*
X185169Y50287D02*
X230246D01*
X185169Y51680D02*
X283184D01*
X185169Y53240D02*
X285444D01*
X185169Y54402D02*
X351917D01*
X185169Y55291D02*
X356386D01*
X387001D02*
X553236D01*
X583851D02*
X642547D01*
X674867D02*
X688511D01*
X185169Y56848D02*
X640294D01*
X185169Y60614D02*
X638799D01*
X185169Y70543D02*
X232797D01*
X265932D02*
X285444D01*
X495980D02*
X638799D01*
X185169Y71528D02*
X230246D01*
X268482D02*
X283452D01*
X185169Y73084D02*
X227995D01*
X185169Y76842D02*
X226504D01*
X185169Y102059D02*
X226504D01*
X185169Y105817D02*
X227995D01*
X185169Y107374D02*
X230246D01*
X185169Y108358D02*
X232797D01*
X265932D02*
X285444D01*
X185169Y113933D02*
X353584D01*
X400417D02*
X516801D01*
X185169Y121122D02*
X266394D01*
X271457D02*
X278047D01*
X283106D02*
X348513D01*
X185169Y122659D02*
X264192D01*
X185169Y126362D02*
X262724D01*
X185169Y126733D02*
X262724D01*
X185169Y295304D02*
X350786D01*
X185169Y298208D02*
X349052D01*
X185169Y304827D02*
X348210D01*
X185169Y311445D02*
X349052D01*
X185169Y314349D02*
X350786D01*
X185169Y320895D02*
X350786D01*
X185169Y323799D02*
X349052D01*
X185169Y330417D02*
X348210D01*
X185169Y337036D02*
X349052D01*
X185169Y339940D02*
X350786D01*
X185169Y346485D02*
X350786D01*
X185169Y349389D02*
X349052D01*
X185169Y356006D02*
X348210D01*
X185169Y362621D02*
X349051D01*
X185169Y365327D02*
X350694D01*
X185169Y367131D02*
X352803D01*
X185169Y367768D02*
X353753D01*
X185169Y370823D02*
X406408D01*
X194483Y171694D02*
X217296D01*
X193280Y271008D02*
X349942D01*
X194505Y171746D02*
X217244D01*
X195976Y175460D02*
X213530D01*
X195389Y269710D02*
X350786D01*
X195420Y244044D02*
X350838D01*
X195387Y244123D02*
X350786D01*
X195354Y247019D02*
X349074D01*
X195420Y248350D02*
X348806D01*
X195834Y249350D02*
X262747D01*
X271435D02*
X278069D01*
X286753D02*
X348612D01*
X195489Y269467D02*
X350944D01*
X195881Y249465D02*
X262724D01*
X271457D02*
X278047D01*
X286776D02*
X348634D01*
X405256D02*
X458386D01*
X196961Y252232D02*
X262724D01*
X197548Y185697D02*
X203293D01*
X196734Y240870D02*
X262724D01*
X196961Y237409D02*
X262724D01*
X196961Y240166D02*
X262724D01*
X196961Y252922D02*
X262724D01*
X196961Y256625D02*
X264192D01*
X196961Y258161D02*
X266394D01*
X196961Y260273D02*
X349074D01*
X196961Y263164D02*
X350785D01*
X196961Y265756D02*
X350961D01*
X224623Y438092D02*
X362457D01*
X222382Y470417D02*
X316571D01*
X226110Y441842D02*
X358707D01*
X224623Y468865D02*
X318124D01*
X224851Y468313D02*
X318676D01*
X225860Y465877D02*
X322350D01*
X226110Y442625D02*
X358132D01*
X226110Y445198D02*
X356597D01*
X226110Y446268D02*
X332006D01*
X226110Y447825D02*
X329755D01*
X226110Y451578D02*
X328264D01*
X226110Y465114D02*
X324916D01*
X248590Y236417D02*
X263070D01*
X246067Y28071D02*
X252657D01*
X246067Y50287D02*
X252657D01*
X251512Y548194D02*
X269802D01*
X249258Y588386D02*
X272057D01*
X249436Y235852D02*
X263304D01*
X251464Y234243D02*
X263970D01*
X251512Y548194D02*
X269802D01*
X253004Y551960D02*
X268307D01*
X251513Y586829D02*
X269802D01*
X251513Y586829D02*
X269802D01*
X252001Y233706D02*
X264192D01*
X253004Y551960D02*
X268307D01*
X253004Y583063D02*
X268307D01*
X253004Y583064D02*
X268307D01*
X253538Y232169D02*
X266394D01*
X271457D02*
X278047D01*
X283106D02*
X348539D01*
X257654Y228053D02*
X348210D01*
X264270Y221437D02*
X268026D01*
X281474D02*
X349052D01*
X268482Y50287D02*
X282608D01*
X269873Y72104D02*
X283184D01*
X268482Y107374D02*
X283451D01*
X270469Y15425D02*
X285444D01*
X321690D02*
X335836D01*
X270733Y73084D02*
X282779D01*
X269873Y106798D02*
X283184D01*
X270733Y15998D02*
X284062D01*
X271884Y75869D02*
X281693D01*
X270733Y105817D02*
X282779D01*
X271141Y16986D02*
X283184D01*
X270733Y48731D02*
X281964D01*
X271069Y47918D02*
X281693D01*
X272220Y19756D02*
X282039D01*
X271457Y129827D02*
X278047D01*
X271457Y147114D02*
X278047D01*
X271457Y240870D02*
X278047D01*
X271457Y258161D02*
X278047D01*
X271882Y103036D02*
X281693D01*
X272220Y76842D02*
X281693D01*
X272220Y20751D02*
X281693D01*
X272220Y28071D02*
X281693D01*
X272220Y44977D02*
X281693D01*
X272220Y102059D02*
X281693D01*
X285135Y122243D02*
X348437D01*
X285308Y160061D02*
X350300D01*
X283106Y220760D02*
X349335D01*
X285308Y233706D02*
X348826D01*
X283106Y258161D02*
X348652D01*
X283112Y147114D02*
X348547D01*
X283638Y257941D02*
X348612D01*
X405278D02*
X458386D01*
X283618Y411783D02*
X290209D01*
X283618Y433012D02*
X290209D01*
X285137Y122248D02*
X348437D01*
X285308Y122659D02*
X348437D01*
X286776Y126362D02*
X348437D01*
X285617Y160806D02*
X350786D01*
X285308Y219223D02*
X350336D01*
X285707Y234670D02*
X349052D01*
X285308Y256625D02*
X458386D01*
X285308Y145581D02*
X348836D01*
X285594Y218533D02*
X350786D01*
X286776Y163763D02*
X350961D01*
X285687Y144665D02*
X349052D01*
X286776Y237409D02*
X350677D01*
X286655Y215969D02*
X350601D01*
X286776Y129109D02*
X348437D01*
X286776Y129827D02*
X348579D01*
X286776Y141789D02*
X350782D01*
X286776Y141878D02*
X350724D01*
X286776Y167350D02*
X350790D01*
X286776Y215520D02*
X350174D01*
X286776Y237578D02*
X350786D01*
X286776Y240870D02*
X350961D01*
X286776Y252922D02*
X458386D01*
X297075Y545137D02*
X320411D01*
X304369Y546634D02*
X319408D01*
X306301Y547544D02*
X318980D01*
X304374Y588386D02*
X312779D01*
X306627Y548194D02*
X318851D01*
X307536Y550387D02*
X318421D01*
X306627Y586829D02*
X314337D01*
X311241Y400694D02*
X328264D01*
X308999Y433012D02*
X367537D01*
X308999Y507819D02*
X357519D01*
X308122Y551960D02*
X318421D01*
X308104Y583138D02*
X318029D01*
X308122Y583063D02*
X318104D01*
X311054Y431904D02*
X369119D01*
X313665Y610382D02*
X529943D01*
X312116Y402807D02*
X328264D01*
X311241Y506266D02*
X359072D01*
X311241Y431459D02*
X369785D01*
X311308Y431299D02*
X370024D01*
X312728Y404445D02*
X393815D01*
X312728Y405104D02*
X393305D01*
X312728Y410625D02*
X328654D01*
X347437D02*
X354807D01*
X373594D02*
X389244D01*
X312728Y411398D02*
X328264D01*
X347827D02*
X354417D01*
X373984D02*
X388924D01*
X312728Y411783D02*
X328264D01*
X312728Y423467D02*
X329755D01*
X312728Y425024D02*
X332006D01*
X312728Y427713D02*
X385744D01*
X313469Y493793D02*
X371544D01*
X312728Y502512D02*
X362826D01*
X314372Y609908D02*
X529802D01*
X314504Y609820D02*
X529784D01*
X316535Y608208D02*
X529463D01*
X321216Y490013D02*
X375324D01*
X496684Y70937D02*
X638799D01*
X323950Y16986D02*
X334793D01*
X321690Y53240D02*
X346748D01*
X321690Y108358D02*
X511226D01*
X322141Y489395D02*
X375942D01*
X323426Y52501D02*
X345643D01*
X325204Y20013D02*
X332951D01*
X323950Y51680D02*
X344413D01*
X323950Y106798D02*
X509666D01*
X324333Y487676D02*
X377661D01*
X324349Y600394D02*
X527911D01*
X325445Y20752D02*
X332807D01*
X325445Y39042D02*
X332955D01*
X325445Y47110D02*
X338163D01*
X325445Y47918D02*
X338784D01*
X325445Y103036D02*
X505904D01*
X333132Y591402D02*
X529698D01*
X333481Y590879D02*
X529802D01*
X334560Y588995D02*
X530881D01*
X335514Y553401D02*
X389418D01*
X335122Y566267D02*
X406032D01*
X335122Y570764D02*
X658269D01*
X694526D02*
X740189D01*
X335122Y572320D02*
X656015D01*
X335122Y575520D02*
X548767D01*
X588322D02*
X654693D01*
X335122Y577420D02*
X542493D01*
X335122Y582811D02*
X535013D01*
X335122Y586152D02*
X532781D01*
X347827Y402807D02*
X354417D01*
X347827Y425024D02*
X354417D01*
X349238Y539677D02*
X385744D01*
X349250Y539665D02*
X385744D01*
X400417Y113933D02*
X516801D01*
X364994Y523921D02*
X385744D01*
X364999Y523917D02*
X385744D01*
X370240Y425024D02*
X385744D01*
X372490Y390734D02*
X426320D01*
X370245Y482110D02*
X383226D01*
X372287Y423940D02*
X385744D01*
X373984Y394496D02*
X430083D01*
X372490Y480557D02*
X384779D01*
X372490Y423467D02*
X385806D01*
X373977Y476812D02*
X388524D01*
X373984Y397325D02*
X406034D01*
X420636D02*
X432912D01*
X373984Y402807D02*
X395596D01*
X373984Y417038D02*
X386654D01*
X373984Y419713D02*
X386301D01*
X373984Y452961D02*
X389244D01*
X374404Y451394D02*
X388595D01*
X373984Y458467D02*
X393293D01*
X373984Y462691D02*
X398421D01*
X373984Y465354D02*
X403896D01*
X373984Y466258D02*
X406079D01*
X373984Y474638D02*
X391398D01*
X373984Y475203D02*
X390552D01*
X373984Y476795D02*
X388541D01*
X391471Y54402D02*
X548767D01*
X391588Y497327D02*
X406032D01*
X420636D02*
X473348D01*
X393675Y495240D02*
X475435D01*
X397747Y52501D02*
X542493D01*
X400137Y367768D02*
X403352D01*
X406545Y118096D02*
X520964D01*
X401087Y367131D02*
X402716D01*
X403107Y167351D02*
X457577D01*
X403104Y160807D02*
X451033D01*
X404838Y170255D02*
X460481D01*
X403107Y192942D02*
X483168D01*
X403107Y186397D02*
X476623D01*
X404838Y195846D02*
X486072D01*
X403107Y211987D02*
X452709D01*
X402933Y213311D02*
X451316D01*
X403300Y213899D02*
X450924D01*
X403097Y237580D02*
X447829D01*
X402933Y242799D02*
X451316D01*
X403107Y244123D02*
X452710D01*
X404819Y247019D02*
X457042D01*
X403108Y263164D02*
X458386D01*
X403107Y269710D02*
X458386D01*
X404838Y272617D02*
X458386D01*
X403107Y288759D02*
X458386D01*
X403107Y295304D02*
X458386D01*
X404838Y298208D02*
X458386D01*
X403107Y320895D02*
X458386D01*
X403107Y314350D02*
X458386D01*
X404838Y323798D02*
X458386D01*
X402933Y344703D02*
X458386D01*
X403107Y339940D02*
X458386D01*
X403671Y347392D02*
X458386D01*
X407103Y348647D02*
X458386D01*
X407235Y118558D02*
X521425D01*
X407966Y349223D02*
X458386D01*
X406739Y158511D02*
X448737D01*
X404895Y247401D02*
X457614D01*
X404816Y260273D02*
X458386D01*
X405680Y176874D02*
X467100D01*
X404838Y183493D02*
X473719D01*
X405680Y202465D02*
X492691D01*
X404838Y209083D02*
X457050D01*
X405680Y279236D02*
X458386D01*
X404838Y285855D02*
X458386D01*
X405680Y304827D02*
X458386D01*
X404838Y311446D02*
X458386D01*
X405680Y330417D02*
X458386D01*
X404838Y337036D02*
X458386D01*
X405278Y249350D02*
X458386D01*
X404912Y208786D02*
X457495D01*
X405227Y47110D02*
X535013D01*
X405227Y47110D02*
X535013D01*
X405245Y207199D02*
X462198D01*
X472292D02*
X494980D01*
X405610Y204362D02*
X494588D01*
X406379Y13671D02*
X533858D01*
X410431Y20013D02*
X529806D01*
X409263Y120166D02*
X523034D01*
X407401Y158068D02*
X448295D01*
X409700Y350536D02*
X457613D01*
X453275Y126028D02*
X528895D01*
X409429Y156460D02*
X446686D01*
X409992Y350828D02*
X457176D01*
X414298Y355134D02*
X451316D01*
X410431Y39042D02*
X529806D01*
X412325Y29528D02*
X527911D01*
X421062Y361899D02*
X446975D01*
X420636Y566267D02*
X740189D01*
X437776Y411157D02*
X446745D01*
X420642Y466258D02*
X438510D01*
X429044Y369882D02*
X445392D01*
X437023Y377861D02*
X446975D01*
X433913Y458024D02*
X446745D01*
X438307Y489343D02*
X475827D01*
X443787Y384626D02*
X451316D01*
X437216Y553461D02*
X658275D01*
X440009Y417018D02*
X447138D01*
X438051Y551900D02*
X656015D01*
X439146Y488781D02*
X475827D01*
X439580Y548134D02*
X654524D01*
X440921Y423940D02*
X447138D01*
X441176Y487168D02*
X475827D01*
X453014Y539677D02*
X654524D01*
X440921Y439665D02*
X447138D01*
X440921Y439678D02*
X447138D01*
X448308Y389147D02*
X457493D01*
X449895Y390734D02*
X462198D01*
X461849Y402897D02*
X481337D01*
X454121Y126593D02*
X529461D01*
X454409Y539146D02*
X654524D01*
X456149Y128202D02*
X531070D01*
X455255Y538580D02*
X654524D01*
X484408Y156460D02*
X559327D01*
X457283Y536971D02*
X654524D01*
X463277Y405300D02*
X478934D01*
X461848Y466288D02*
X475827D01*
X463540Y406625D02*
X477817D01*
X463273Y463881D02*
X475827D01*
X463839Y408143D02*
X476803D01*
X463839Y409033D02*
X476392D01*
X463839Y411872D02*
X475827D01*
X463839Y461042D02*
X475827D01*
X476998Y208786D02*
X494980D01*
X472292Y390734D02*
X493500D01*
X473286Y520968D02*
X654524D01*
X476253Y389646D02*
X494588D01*
X476881Y247401D02*
X494980D01*
X476882Y350536D02*
X494980D01*
X483176Y355134D02*
X494980D01*
X483176Y213311D02*
X494980D01*
X476999Y389147D02*
X494980D01*
X477052Y517202D02*
X656015D01*
X478612Y515642D02*
X658275D01*
X487509Y361899D02*
X494980D01*
X483176Y384626D02*
X494980D01*
X487509Y220076D02*
X494980D01*
X483176Y242799D02*
X494980D01*
X486017Y158068D02*
X561355D01*
X485774Y508480D02*
X657280D01*
X486583Y158634D02*
X562201D01*
X492741Y164792D02*
X578945D01*
X487331Y506924D02*
X655030D01*
X489100Y228055D02*
X494980D01*
X487509Y236034D02*
X494980D01*
X487509Y377861D02*
X494980D01*
X489100Y369882D02*
X494980D01*
X490541Y503505D02*
X653611D01*
X490768Y503165D02*
X653535D01*
X491966Y501097D02*
X653535D01*
X495301Y167351D02*
X579130D01*
X493758Y464769D02*
X502484D01*
X492587Y465346D02*
X503878D01*
X492531Y466256D02*
X506075D01*
X492531Y490227D02*
X583000D01*
X492531Y491840D02*
X585033D01*
X492531Y492402D02*
X585873D01*
X492531Y498255D02*
X653535D01*
X497531Y71502D02*
X638799D01*
X498205Y170255D02*
X577402D01*
X497973Y462691D02*
X498423D01*
X499558Y73111D02*
X638799D01*
X504824Y176874D02*
X576555D01*
X518163Y91717D02*
X638799D01*
X511443Y183493D02*
X577402D01*
X514348Y186397D02*
X579130D01*
X519687Y191944D02*
X579303D01*
X520632Y466256D02*
X559026D01*
X521929Y95483D02*
X640294D01*
X520354Y192942D02*
X579130D01*
X521123Y194363D02*
X578207D01*
X521419Y195846D02*
X577402D01*
X521685Y197202D02*
X577098D01*
X523489Y97043D02*
X642553D01*
X521685Y202465D02*
X576555D01*
X521685Y207199D02*
X543521D01*
X553613D02*
X576992D01*
X521685Y208786D02*
X538816D01*
X521685Y213311D02*
X532635D01*
X521685Y220076D02*
X528298D01*
X521685Y228055D02*
X526710D01*
X521685Y236034D02*
X528298D01*
X521685Y242799D02*
X532635D01*
X521685Y247320D02*
X538816D01*
X521685Y248908D02*
X543521D01*
X521685Y253646D02*
X576555D01*
X521685Y260264D02*
X577402D01*
X521685Y263164D02*
X579129D01*
X521685Y269709D02*
X579130D01*
X521685Y272617D02*
X577402D01*
X521685Y279236D02*
X576555D01*
X521685Y285855D02*
X577402D01*
X521685Y288759D02*
X579130D01*
X521685Y295304D02*
X579130D01*
X521685Y298208D02*
X577402D01*
X521685Y304827D02*
X576555D01*
X521685Y311445D02*
X577402D01*
X521685Y314350D02*
X579130D01*
X521685Y320895D02*
X579130D01*
X521685Y323799D02*
X577402D01*
X521685Y330417D02*
X576555D01*
X521685Y337036D02*
X577402D01*
X521685Y339940D02*
X579130D01*
X521685Y346485D02*
X579130D01*
X521685Y349381D02*
X577424D01*
X521685Y352592D02*
X576783D01*
X521685Y359921D02*
X576783D01*
X521685Y367567D02*
X581585D01*
X521685Y376740D02*
X583871D01*
X523257Y398433D02*
X562176D01*
X528244Y400896D02*
X559713D01*
X540280Y113835D02*
X582246D01*
X628336D02*
X643520D01*
X533373Y405120D02*
X555488D01*
X537161Y410058D02*
X550760D01*
X534120Y457781D02*
X550759D01*
X535994Y455373D02*
X549333D01*
X537422Y410625D02*
X550382D01*
X538185Y412469D02*
X549333D01*
X537718Y452534D02*
X548772D01*
X539359Y415305D02*
X548772D01*
X540012Y417038D02*
X548772D01*
X540378Y113933D02*
X582099D01*
X628484D02*
X643282D01*
X541014Y114570D02*
X581145D01*
X540921Y423940D02*
X548772D01*
X542815Y116370D02*
X579038D01*
X540921Y439665D02*
X548772D01*
X545521Y119076D02*
X577401D01*
X552137Y125693D02*
X576555D01*
X558316Y208786D02*
X577327D01*
X553613Y248908D02*
X576993D01*
X558755Y132312D02*
X577402D01*
X558761Y209083D02*
X577402D01*
X558318Y247320D02*
X577328D01*
X558756Y247027D02*
X577402D01*
X563102Y211987D02*
X579130D01*
X561655Y135212D02*
X579129D01*
X568199Y141756D02*
X579135D01*
X563101Y244123D02*
X579130D01*
X564495Y213311D02*
X579303D01*
X567986Y218530D02*
X579139D01*
X564495Y242799D02*
X579303D01*
X564888Y242212D02*
X578936D01*
X565476Y423909D02*
X585744D01*
X565869Y418323D02*
X586332D01*
X565476Y423921D02*
X585744D01*
X565476Y439666D02*
X585744D01*
X565476Y439679D02*
X585744D01*
X565869Y449516D02*
X587574D01*
X582619Y466266D02*
X606029D01*
X588986Y472634D02*
X657280D01*
X695514D02*
X740189D01*
X588322Y54402D02*
X644697D01*
X672713D02*
X687621D01*
X591167Y576086D02*
X654524D01*
X586862Y397329D02*
X606023D01*
X620586D02*
X629181D01*
X594597Y577420D02*
X654524D01*
X590543Y474191D02*
X655030D01*
X594597Y52501D02*
X685721D01*
X602077Y582811D02*
X654524D01*
X597549Y386642D02*
X639871D01*
X598978Y385005D02*
X640264D01*
X600403Y382598D02*
X640264D01*
X600965Y379758D02*
X640264D01*
X602077Y47110D02*
X680331D01*
X607281Y590879D02*
X654524D01*
X603229Y13671D02*
X740189D01*
X607281Y20013D02*
X740189D01*
X603229Y616250D02*
X740189D01*
X678275Y22177D02*
X740189D01*
X607284Y39042D02*
X672264D01*
X607281Y609909D02*
X740189D01*
X622757Y398233D02*
X628277D01*
X620632Y466266D02*
X740189D01*
X629436Y114570D02*
X641792D01*
X628650Y367768D02*
X640264D01*
X630659Y115388D02*
X641275D01*
X631542Y116370D02*
X640869D01*
X631447Y135212D02*
X639783D01*
X631450Y141757D02*
X639783D01*
X633185Y144665D02*
X639783D01*
X631451Y167352D02*
X740189D01*
X631451Y160806D02*
X740189D01*
X633185Y170256D02*
X740189D01*
X631634Y188956D02*
X740189D01*
X631451Y186396D02*
X740189D01*
X633203Y190606D02*
X643520D01*
X673893D02*
X700607D01*
X712504D02*
X719091D01*
X730980D02*
X740189D01*
X631451Y218533D02*
X639783D01*
X631446Y211988D02*
X639783D01*
X633185Y221437D02*
X639783D01*
X631451Y244123D02*
X640264D01*
X631450Y237578D02*
X640264D01*
X633185Y247027D02*
X640264D01*
X631451Y263164D02*
X640264D01*
X631450Y269710D02*
X640264D01*
X633185Y272618D02*
X640264D01*
X631451Y295304D02*
X640264D01*
X631451Y288759D02*
X640264D01*
X633185Y298208D02*
X640264D01*
X631451Y314349D02*
X640264D01*
X631451Y320895D02*
X640264D01*
X633185Y323799D02*
X640264D01*
X631451Y339940D02*
X640264D01*
X631451Y346485D02*
X640264D01*
X633162Y349381D02*
X640264D01*
X634679Y192159D02*
X639653D01*
X633799Y352592D02*
X640264D01*
X634026Y151283D02*
X639783D01*
X633185Y157902D02*
X644373D01*
X673041D02*
X701459D01*
X712420D02*
X719171D01*
X730127D02*
X740189D01*
X634026Y176874D02*
X740189D01*
X633185Y183493D02*
X740189D01*
X634027Y228053D02*
X639783D01*
X633185Y234670D02*
X640264D01*
X634026Y253646D02*
X640264D01*
X633185Y260264D02*
X640264D01*
X634026Y279236D02*
X640264D01*
X633185Y285855D02*
X640264D01*
X634026Y304827D02*
X640264D01*
X633185Y311445D02*
X640264D01*
X634026Y330417D02*
X640264D01*
X633185Y337036D02*
X640264D01*
X633271Y157551D02*
X643526D01*
X633595Y155994D02*
X641275D01*
X633799Y359453D02*
X640264D01*
X633799Y359454D02*
X640264D01*
X633940Y230166D02*
X640198D01*
X634009Y152236D02*
X639783D01*
X634009Y229008D02*
X639783D01*
X638252Y411840D02*
X740189D01*
X639460Y415547D02*
X657280D01*
X673102D02*
X679689D01*
X695514D02*
X740189D01*
X638289Y451394D02*
X657280D01*
X638962Y449837D02*
X655030D01*
X640012Y417038D02*
X655057D01*
X640009Y446568D02*
X653673D01*
X640020Y417104D02*
X655030D01*
X640516Y420862D02*
X653535D01*
X640074Y446079D02*
X653535D01*
X640921Y423940D02*
X653535D01*
X640921Y429173D02*
X653535D01*
X640921Y437764D02*
X653535D01*
X673102D02*
X679689D01*
X699256D02*
X740189D01*
X640921Y439646D02*
X653535D01*
X654975Y394906D02*
X740189D01*
X656399Y392499D02*
X740189D01*
X656965Y389660D02*
X740189D01*
X673893Y113835D02*
X700607D01*
X712500D02*
X719091D01*
X730980D02*
X740189D01*
X673888Y157551D02*
X700612D01*
X673888Y234323D02*
X700612D01*
X676139Y115388D02*
X698361D01*
X676139Y192159D02*
X698361D01*
X673102Y429173D02*
X679689D01*
X673102Y451394D02*
X679689D01*
X674861Y97043D02*
X697672D01*
X677123Y56848D02*
X690067D01*
X679121Y22743D02*
X740189D01*
X677630Y119145D02*
X696870D01*
X676139Y155994D02*
X698361D01*
X677630Y195921D02*
X696870D01*
X676139Y232766D02*
X698361D01*
X677123Y95483D02*
X695412D01*
X678573Y60392D02*
X693611D01*
X677123Y95483D02*
X695412D01*
X677630Y131394D02*
X696870D01*
X677630Y139984D02*
X696870D01*
X712500D02*
X719091D01*
X734717D02*
X740189D01*
X677630Y152236D02*
X696870D01*
X677630Y208169D02*
X696870D01*
X677630Y216760D02*
X696870D01*
X712504D02*
X719091D01*
X734717D02*
X740189D01*
X677630Y229008D02*
X696870D01*
X681149Y24351D02*
X740189D01*
X678613Y60611D02*
X693829D01*
X678614Y60614D02*
X693832D01*
X678614Y91717D02*
X693917D01*
X678614Y91717D02*
X693917D01*
X709045Y52456D02*
X740189D01*
X694521Y515642D02*
X740189D01*
X696781Y517202D02*
X740189D01*
X694521Y553461D02*
X740189D01*
X696781Y572321D02*
X740189D01*
X694526Y608575D02*
X740189D01*
X697765Y417104D02*
X740189D01*
X695514Y451394D02*
X740189D01*
X697765Y474191D02*
X740189D01*
X695514Y508480D02*
X740189D01*
X698276Y520968D02*
X740189D01*
X696781Y551900D02*
X740189D01*
X698276Y576086D02*
X740189D01*
X696781Y607018D02*
X740189D01*
X699256Y420862D02*
X740189D01*
X697765Y449837D02*
X740189D01*
X699256Y477949D02*
X740189D01*
X697765Y506924D02*
X740189D01*
X698276Y548134D02*
X740189D01*
X698276Y603252D02*
X740189D01*
X699256Y429173D02*
X740189D01*
X699256Y446079D02*
X740189D01*
X699256Y503166D02*
X740189D01*
X728952Y54864D02*
X740189D01*
X729984Y55291D02*
X740189D01*
X712500Y131394D02*
X719091D01*
X712500Y157551D02*
X719091D01*
X712504Y208169D02*
X719091D01*
X712504Y234323D02*
X719091D01*
X729979Y97043D02*
X740189D01*
X732237Y56848D02*
X740189D01*
X730974Y157551D02*
X740189D01*
X730974Y234323D02*
X740189D01*
X733225Y115388D02*
X740189D01*
X733225Y192159D02*
X740189D01*
X732237Y95483D02*
X740189D01*
X733732Y60614D02*
X740189D01*
X734717Y119145D02*
X740189D01*
X733225Y155994D02*
X740189D01*
X734717Y195921D02*
X740189D01*
X733225Y232766D02*
X740189D01*
X733732Y91717D02*
X740189D01*
X734717Y131394D02*
X740189D01*
X734717Y152236D02*
X740189D01*
X734717Y208169D02*
X740189D01*
X734717Y229008D02*
X740189D01*
X7843Y7843D02*
X334724D01*
X7843Y9452D02*
X335383D01*
X7843Y11062D02*
X336042D01*
X7843Y12671D02*
X336701D01*
X7843Y7843D02*
Y13671D01*
X337064Y13558D02*
X334724Y7843D01*
X7843D01*
Y13671D02*
Y14445D01*
X336843Y13889D02*
X337064Y13558D01*
X232620Y13445D02*
X246067D01*
X252657D02*
X266108D01*
X7843Y14445D02*
Y15998D01*
X228295Y15232D02*
X232620Y13445D01*
X7843Y16998D02*
X227564D01*
X7843Y17877D02*
X227200D01*
X7843Y18756D02*
X226836D01*
X7843Y15998D02*
Y19756D01*
X226504Y19557D02*
X228295Y15232D01*
G54D33*
X10843Y23756D02*
X223504D01*
X10843Y24071D02*
X223504D01*
X10843Y32071D02*
X278693D01*
X10843Y32661D02*
X278693D01*
G54D37*
X7843Y37661D02*
X226504D01*
X7843Y38283D02*
X226504D01*
G54D31*
X7843Y39283D02*
Y40899D01*
X111744Y40134D02*
X116210Y38283D01*
X7843Y41899D02*
X111013D01*
X7843Y42849D02*
X110619D01*
X7843Y43799D02*
X110226D01*
X7843Y40899D02*
Y44799D01*
X109894Y44600D02*
X111744Y40134D01*
G54D38*
X14843Y52799D02*
X102894D01*
X14843Y53862D02*
X102894D01*
G54D31*
X7843Y61862D02*
Y63044D01*
X28099Y62069D02*
X37249Y60862D01*
X7843Y64044D02*
X23336D01*
X7843Y65494D02*
X19836D01*
X7843Y63044D02*
Y66494D01*
X19531Y65620D02*
X28099Y62069D01*
X7843Y67494D02*
X17088D01*
X7843Y68575D02*
X15678D01*
X7843Y66494D02*
Y68801D01*
X15409Y68781D02*
X19531Y65620D01*
X7843Y68801D02*
X13482Y70259D01*
X15409Y68781D01*
X7843Y124220D02*
X15683D01*
X7843Y125297D02*
X17088D01*
X7843Y123994D02*
Y126297D01*
X19531Y127171D02*
X15414Y124014D01*
X13482Y122532D02*
X7843Y123994D01*
X15414Y124014D02*
X13482Y122532D01*
X7843Y127297D02*
X19836D01*
X7843Y128748D02*
X23336D01*
X7843Y126297D02*
Y129748D01*
X28100Y130722D02*
X19531Y127171D01*
X7843Y129748D02*
Y130925D01*
X37249Y131925D02*
X28100Y130722D01*
X7843Y130925D02*
Y132248D01*
X116210Y133248D02*
X112841Y131849D01*
X57027Y131925D02*
X37249D01*
G54D34*
X8843Y134248D02*
X122988D01*
X8843Y137007D02*
X124111D01*
X8843Y139766D02*
X125864D01*
X8843Y142525D02*
X128538D01*
G54D31*
X7843Y132248D02*
Y144525D01*
X139657Y145525D02*
X134348Y144645D01*
X129607Y142099D01*
X125941Y138160D01*
X123742Y133248D01*
G54D34*
X8843Y132248D02*
Y144525D01*
X139657Y146525D02*
X134210Y145654D01*
X129306Y143125D01*
X125437Y139192D01*
X122988Y134248D01*
G54D31*
X123742Y133248D02*
X116210D01*
X7843Y144525D02*
Y145581D01*
X264492Y146347D02*
X263897Y144908D01*
X7843Y145581D02*
Y147114D01*
X268766Y148114D02*
X264492Y146347D01*
X7843Y148114D02*
X348397D01*
X7843Y149199D02*
X348291D01*
X7843Y150283D02*
X348228D01*
X7843Y147114D02*
Y151284D01*
X348210Y151284D02*
X348560Y146954D01*
X280734Y148114D02*
X278047D01*
X271457D02*
X268766D01*
X7843Y152284D02*
X348228D01*
X7843Y153823D02*
X348330D01*
X7843Y155363D02*
X348520D01*
X7843Y156902D02*
X348802D01*
X7843Y151284D02*
Y157902D01*
X349144Y158314D02*
X348210Y151284D01*
X7843Y157902D02*
Y158524D01*
X349636Y159069D02*
X349144Y158314D01*
X268765Y157524D02*
X280735D01*
X7843Y158524D02*
Y160061D01*
X264492Y159295D02*
X268765Y157524D01*
X7843Y161061D02*
X263761D01*
X7843Y162763D02*
X263056D01*
X7843Y160061D02*
Y163763D01*
X262724Y163565D02*
X264492Y159295D01*
G54D39*
X8843Y165763D02*
X261724D01*
X8843Y167520D02*
X261724D01*
G54D31*
X7843Y169520D02*
Y170085D01*
X220705Y169143D02*
X223840Y168520D01*
X7843Y170085D02*
Y170209D01*
X220355Y169377D02*
X220705Y169143D01*
X111045Y169209D02*
X189927D01*
X7843Y170209D02*
Y171746D01*
X106764Y170980D02*
X111045Y169209D01*
X7843Y172746D02*
X106033D01*
X7843Y174460D02*
X105324D01*
X7843Y171746D02*
Y175460D01*
X104992Y175262D02*
X106764Y170980D01*
G54D33*
X10843Y179460D02*
X101992D01*
X10843Y184984D02*
X101992D01*
G54D31*
X7843Y189984D02*
X105324D01*
X7843Y190923D02*
X105713D01*
X7843Y191862D02*
X106102D01*
X7843Y188984D02*
Y192862D01*
X106598Y193061D02*
X104992Y189183D01*
G54D39*
X8843Y194862D02*
X105598D01*
X8843Y195173D02*
X105598D01*
G54D31*
X7843Y198173D02*
X106102D01*
X7843Y199112D02*
X105713D01*
X7843Y200051D02*
X105324D01*
X7843Y197173D02*
Y201051D01*
X104992Y200852D02*
X106598Y196974D01*
G54D33*
X10843Y205051D02*
X101992D01*
X10843Y210568D02*
X101992D01*
G54D34*
X8843Y216568D02*
X104675D01*
X8843Y218805D02*
X105378D01*
X8843Y221043D02*
X105774D01*
G54D31*
X7843Y214568D02*
Y223043D01*
X106886D02*
X106407Y218811D01*
X104992Y214794D01*
G54D34*
X8843Y214568D02*
Y223043D01*
X105886Y223043D02*
X105406Y218925D01*
X103992Y215027D01*
G54D31*
X7843Y223043D02*
Y224542D01*
X106844Y224312D02*
X106886Y223043D01*
X7843Y225542D02*
X106344D01*
X7843Y225641D02*
X106303D01*
X7843Y224542D02*
Y226641D01*
X105976Y226446D02*
X106844Y224312D01*
G54D33*
X10843Y230641D02*
X102976D01*
X10843Y236166D02*
X102976D01*
G54D31*
X7843Y241166D02*
X106308D01*
X7843Y242105D02*
X106697D01*
X7843Y243044D02*
X107086D01*
X7843Y240166D02*
Y244044D01*
X107583Y244242D02*
X105976Y240364D01*
G54D39*
X8843Y246044D02*
X106583D01*
X8843Y246350D02*
X106583D01*
G54D31*
X7843Y249350D02*
X107087D01*
X7843Y250291D02*
X106697D01*
X7843Y251232D02*
X106308D01*
X7843Y248350D02*
Y252232D01*
X105976Y252033D02*
X107583Y248151D01*
G54D37*
X7843Y253232D02*
X105976D01*
X7843Y254270D02*
X105976D01*
G54D31*
X7843Y255270D02*
Y255625D01*
X104789Y254682D02*
X105976Y254448D01*
X7843Y255625D02*
Y257336D01*
X101980Y256559D02*
X104789Y254682D01*
G54D34*
X8843Y259336D02*
X97788D01*
X8843Y262550D02*
X94572D01*
X8843Y265765D02*
X91357D01*
X8843Y268980D02*
X88141D01*
G54D31*
X7843Y257336D02*
Y270980D01*
X88193Y270342D02*
X101980Y256559D01*
G54D34*
X8843Y257336D02*
Y270980D01*
X87416Y269705D02*
X101343Y255782D01*
G54D31*
X7843Y271980D02*
X87099D01*
X7843Y272552D02*
X86716D01*
X7843Y270980D02*
Y273552D01*
X86308Y273162D02*
X88193Y270342D01*
X7843Y274552D02*
X86033D01*
X7843Y275588D02*
X85828D01*
X7843Y273552D02*
Y276588D01*
X85650Y276490D02*
X86308Y273162D01*
G54D33*
X10843Y280588D02*
X82650D01*
X10843Y280701D02*
X82650D01*
G54D31*
X7843Y284701D02*
Y285878D01*
X28100Y284904D02*
X37249Y283701D01*
X7843Y286878D02*
X23331D01*
X7843Y288325D02*
X19836D01*
X7843Y285878D02*
Y289325D01*
X19531Y288451D02*
X28100Y284904D01*
X7843Y290325D02*
X17089D01*
X7843Y291406D02*
X15681D01*
X7843Y289325D02*
Y291632D01*
X15412Y291612D02*
X19531Y288451D01*
X7843Y291632D02*
X13482Y293094D01*
X15412Y291612D01*
X13482Y345363D02*
X7843Y346825D01*
X15412Y346844D02*
X13482Y345363D01*
X7843Y347051D02*
X15681D01*
X7843Y348132D02*
X17089D01*
X7843Y346825D02*
Y349132D01*
X19531Y350005D02*
X15412Y346844D01*
X7843Y350132D02*
X19836D01*
X7843Y351579D02*
X23331D01*
X7843Y349132D02*
Y352579D01*
X28100Y353553D02*
X19531Y350005D01*
X7843Y352579D02*
Y353760D01*
X37249Y354760D02*
X28100Y353553D01*
G54D40*
X22843Y369760D02*
X70650D01*
X22843Y377126D02*
X70650D01*
G54D31*
X7843Y394126D02*
X85151D01*
X7843Y394134D02*
X85148D01*
X7843Y393126D02*
Y395134D01*
X84815Y394934D02*
X85650Y392926D01*
G54D33*
X10843Y399134D02*
X81815D01*
X10843Y402709D02*
X81815D01*
G54D31*
X7843Y407709D02*
X85147D01*
X7843Y409412D02*
X85854D01*
X7843Y406709D02*
Y410412D01*
X86587Y411177D02*
X84815Y406908D01*
X7843Y410412D02*
Y411984D01*
X90655Y412866D02*
X86587Y411177D01*
X7843Y412984D02*
X90824D01*
X7843Y414235D02*
X92616D01*
X7843Y411984D02*
Y415235D01*
X94892Y415825D02*
X90655Y412866D01*
X7843Y416235D02*
X94974D01*
X7843Y417416D02*
X95209D01*
X7843Y415235D02*
Y418416D01*
X95486Y418807D02*
X94892Y415825D01*
X7843Y419416D02*
X95893D01*
X7843Y419989D02*
X96276D01*
X7843Y418416D02*
Y420989D01*
X97370Y421626D02*
X95486Y418807D01*
G54D34*
X8843Y422989D02*
X97318D01*
X8843Y426601D02*
X100932D01*
X8843Y430214D02*
X104545D01*
X8843Y433826D02*
X108159D01*
G54D31*
X7843Y420989D02*
Y435826D01*
X111988Y436241D02*
X97370Y421626D01*
G54D34*
X8843Y420989D02*
Y435826D01*
X110988Y436655D02*
X96593Y422264D01*
G54D39*
X8843Y437826D02*
X110988D01*
X8843Y438055D02*
X110988D01*
G54D31*
X7843Y440055D02*
Y440870D01*
X111650Y440670D02*
X111988Y439855D01*
G54D38*
X14843Y448870D02*
X104650D01*
X14843Y458087D02*
X104650D01*
G54D31*
X7843Y467087D02*
X111981D01*
X7843Y467966D02*
X112346D01*
X7843Y468845D02*
X112710D01*
X7843Y466087D02*
Y469845D01*
X113441Y470610D02*
X111650Y466286D01*
X7843Y469845D02*
Y471402D01*
X117765Y472402D02*
X113441Y470610D01*
X7843Y472402D02*
X314563D01*
X7843Y472941D02*
X314023D01*
X7843Y471402D02*
Y473941D01*
X313731Y473234D02*
X316272Y470694D01*
X267206Y472941D02*
X306626D01*
X151254Y472402D02*
X117765D01*
X7843Y473941D02*
Y475494D01*
X262894Y474728D02*
X267206Y472941D01*
X7843Y476494D02*
X262163D01*
X7843Y477369D02*
X261800D01*
X7843Y478244D02*
X261438D01*
X7843Y475494D02*
Y479244D01*
X261106Y479045D02*
X262894Y474728D01*
G54D33*
X10843Y483244D02*
X258106D01*
X10843Y488642D02*
X258106D01*
G54D31*
X7843Y492642D02*
Y493069D01*
X116551Y492145D02*
X117765Y491642D01*
X7843Y493069D02*
Y494656D01*
X47442Y493714D02*
X55811Y492049D01*
X7843Y495656D02*
X44534D01*
X7843Y496915D02*
X42649D01*
X7843Y498174D02*
X40764D01*
X7843Y494656D02*
Y499174D01*
X40346Y498452D02*
X47442Y493714D01*
X7843Y500174D02*
X39197D01*
X7843Y501763D02*
X38135D01*
X7843Y503353D02*
X37073D01*
X7843Y504942D02*
X36011D01*
X7843Y499174D02*
Y505942D01*
X35604Y505552D02*
X40346Y498452D01*
X7843Y506942D02*
X35327D01*
X7843Y508437D02*
X35030D01*
X7843Y509932D02*
X34732D01*
X7843Y511426D02*
X34435D01*
X7843Y512921D02*
X34138D01*
X7843Y505942D02*
Y513921D01*
X33939D02*
X35604Y505552D01*
X7843Y514921D02*
X34138D01*
X7843Y516416D02*
X34435D01*
X7843Y517911D02*
X34732D01*
X7843Y519406D02*
X35030D01*
X7843Y520900D02*
X35327D01*
X7843Y513921D02*
Y521900D01*
X35604Y522291D02*
X33939Y513921D01*
X7843Y522900D02*
X36011D01*
X7843Y524489D02*
X37073D01*
X7843Y526077D02*
X38134D01*
X7843Y527665D02*
X39196D01*
X7843Y521900D02*
Y528665D01*
X40346Y529386D02*
X35604Y522291D01*
X7843Y529665D02*
X40764D01*
X7843Y530926D02*
X42650D01*
X7843Y532187D02*
X44536D01*
X7843Y528665D02*
Y533187D01*
X47441Y534128D02*
X40346Y529386D01*
X7843Y533187D02*
Y533313D01*
X47461Y534132D02*
X47441Y534128D01*
G54D40*
X22843Y549313D02*
X32461D01*
X22843Y554892D02*
X32461D01*
G54D31*
X7843Y571892D02*
X47640D01*
X7843Y572731D02*
X47807D01*
X7843Y570892D02*
Y573731D01*
X48084Y574122D02*
X47461Y570991D01*
X7843Y574731D02*
X48492D01*
X7843Y575139D02*
X48764D01*
X7843Y573731D02*
Y576139D01*
X49858Y576776D02*
X48084Y574122D01*
G54D41*
X14843Y584139D02*
X47321D01*
X14843Y592173D02*
X55356D01*
X14843Y600208D02*
X63390D01*
G54D31*
X7843Y576139D02*
Y608208D01*
X82066Y608984D02*
X49858Y576776D01*
G54D41*
X14843Y576139D02*
Y608208D01*
X77601Y614419D02*
X44421Y581239D01*
G54D31*
X7843Y608208D02*
Y609820D01*
X84721Y610762D02*
X82066Y608984D01*
X7843Y609820D02*
Y610382D01*
X87852Y611382D02*
X84721Y610762D01*
X7843Y611382D02*
X530587D01*
X7843Y612671D02*
X531449D01*
X7843Y613961D02*
X532310D01*
X7843Y615250D02*
X533171D01*
X7843Y610382D02*
Y616250D01*
X533914Y616363D02*
X530290Y610937D01*
X309994Y611382D02*
X87852D01*
X7843Y617250D02*
X533551D01*
X7843Y618860D02*
X532892D01*
X7843Y620469D02*
X532233D01*
X7843Y622079D02*
X531574D01*
X7843Y616250D02*
Y622079D01*
X531574D02*
X533914Y616363D01*
X7843Y622079D02*
X531574D01*
X55811Y492049D02*
X61685Y493218D01*
X113441Y493433D02*
X116551Y492145D01*
X57027Y60862D02*
X66180Y62069D01*
X109894Y63044D02*
Y61862D01*
X66180Y353553D02*
X57027Y354760D01*
X85650Y353760D02*
Y352579D01*
X59350Y131620D02*
X57027Y131925D01*
X112841Y131849D02*
X111744Y131393D01*
X57027Y283701D02*
X66180Y284904D01*
X85650Y285878D02*
Y284701D01*
X66180Y130722D02*
X59350Y131620D01*
X111744Y131393D02*
X111220Y130131D01*
X61685Y493218D02*
X64180Y493714D01*
X113093Y494273D02*
X113441Y493433D01*
X79032Y532758D02*
X79205Y532500D01*
X64161Y534313D02*
X77992D01*
X64161Y535872D02*
X76950D01*
X64161Y537431D02*
X75908D01*
X64161Y538989D02*
X74866D01*
X64161Y534132D02*
Y539989D01*
X74458Y539599D02*
X79032Y532758D01*
X64161Y540989D02*
X74181D01*
X64161Y542483D02*
X73884D01*
X64161Y543977D02*
X73587D01*
X64161Y545471D02*
X73290D01*
X64161Y546965D02*
X72992D01*
X64161Y539989D02*
Y547965D01*
X72793Y547965D02*
X74458Y539599D01*
X64161Y548965D02*
X72992D01*
X64161Y550460D02*
X73289D01*
X64161Y551956D02*
X73587D01*
X64161Y553452D02*
X73884D01*
X64161Y554948D02*
X74182D01*
X64161Y547965D02*
Y555948D01*
X74458Y556338D02*
X72793Y547965D01*
X64161Y556948D02*
X74866D01*
X64161Y558536D02*
X75928D01*
X64161Y560124D02*
X76991D01*
X64161Y561712D02*
X78053D01*
X64161Y555948D02*
Y562712D01*
X79205Y563433D02*
X74458Y556338D01*
X64161Y563712D02*
X79622D01*
X64161Y564973D02*
X81508D01*
X64161Y566234D02*
X83394D01*
X64161Y562712D02*
Y567234D01*
X86300Y568176D02*
X79205Y563433D01*
X64161Y567234D02*
Y567464D01*
X89735Y568859D02*
X86300Y568176D01*
X64161Y567464D02*
X64812Y568114D01*
X94669Y569841D02*
X89735Y568859D01*
X64181Y534128D02*
X64146Y534135D01*
X79205Y532500D02*
X79421Y532355D01*
X70807Y529699D02*
X83394D01*
X68946Y530943D02*
X81534D01*
X67086Y532187D02*
X79673D01*
X71059Y529531D02*
X64181Y534128D01*
X79421Y532355D02*
X86300Y527757D01*
X67088Y495656D02*
X112520D01*
X69036Y496956D02*
X111981D01*
X64180Y493714D02*
X69288Y497125D01*
X111650Y497758D02*
X113093Y494273D01*
X66519Y569821D02*
X104714D01*
X67453Y570755D02*
X105648D01*
X68387Y571688D02*
X106581D01*
X64812Y568114D02*
X68679Y571981D01*
X108358Y573465D02*
X104421Y569528D01*
X70944Y64044D02*
X109894D01*
X74444Y65494D02*
X109894D01*
X66180Y62069D02*
X74749Y65620D01*
X109894Y66494D02*
Y63044D01*
X73393Y127733D02*
X110226D01*
X70944Y128748D02*
X110647D01*
X73577Y127656D02*
X66180Y130722D01*
X111220Y130131D02*
X109894Y126932D01*
X70949Y286878D02*
X85650D01*
X74444Y288325D02*
X85650D01*
X66180Y284904D02*
X74749Y288451D01*
X85650Y289325D02*
Y285878D01*
X74444Y350132D02*
X85650D01*
X70949Y351579D02*
X85650D01*
X74749Y350005D02*
X66180Y353553D01*
X85650Y352579D02*
Y349132D01*
X68679Y571981D02*
X70289Y573590D01*
X111012Y575239D02*
X108358Y573465D01*
X69288Y497125D02*
X71276Y498452D01*
X111650Y499174D02*
Y497758D01*
X70289Y573590D02*
X70854Y574155D01*
X114143Y575862D02*
X111012Y575239D01*
G54D34*
X74977Y576862D02*
X212189D01*
X77078Y578963D02*
X212189D01*
X79179Y581063D02*
X212189D01*
G54D31*
X70854Y574155D02*
X79058Y582356D01*
X213189Y583262D02*
Y575862D01*
G54D34*
X71561Y573448D02*
X79765Y581649D01*
X212189Y583461D02*
Y576862D01*
G54D31*
X213189Y575862D02*
X114143D01*
X71276Y529386D02*
X71059Y529531D01*
X86300Y527757D02*
X86667Y527684D01*
X72425Y500174D02*
X111650D01*
X73487Y501763D02*
X111650D01*
X74549Y503353D02*
X111650D01*
X75611Y504942D02*
X111650D01*
X71276Y498452D02*
X76018Y505552D01*
X111650Y505942D02*
Y499174D01*
X72424Y527668D02*
X71276Y529386D01*
X86667Y527684D02*
X94669Y526092D01*
X72545Y527487D02*
X72424Y527668D01*
X114259Y528036D02*
X113441Y527697D01*
X74760Y524173D02*
X111981D01*
X74172Y525052D02*
X112346D01*
X73585Y525931D02*
X112710D01*
X75057Y523729D02*
X72545Y527487D01*
X113441Y527697D02*
X111650Y523372D01*
X74749Y127171D02*
X73577Y127656D01*
X109894Y126932D02*
Y126297D01*
X76018Y522291D02*
X75057Y523729D01*
X111650Y523372D02*
Y521900D01*
X77192Y67494D02*
X109894D01*
X79463Y69236D02*
X109894D01*
X81735Y70979D02*
X109894D01*
X74749Y65620D02*
X82109Y71265D01*
X109894Y71979D02*
Y66494D01*
X81735Y121809D02*
X109894D01*
X79463Y123553D02*
X109894D01*
X77190Y125297D02*
X109894D01*
X82109Y121522D02*
X74749Y127171D01*
X109894Y126297D02*
Y120809D01*
X74749Y288451D02*
X77063Y290226D01*
X85650Y290327D02*
Y289325D01*
X77057Y348235D02*
X74749Y350005D01*
X85650Y349132D02*
Y348133D01*
X76018Y505552D02*
X76123Y506077D01*
X111650Y507272D02*
Y505942D01*
X77298Y515858D02*
X111650D01*
X76963Y517539D02*
X111650D01*
X76629Y519220D02*
X111650D01*
X76295Y520900D02*
X111650D01*
X77458Y515053D02*
X76018Y522291D01*
X111650Y521900D02*
Y513858D01*
X76123Y506077D02*
X76430Y507624D01*
X267206Y508819D02*
X263289Y507195D01*
X157366Y507272D02*
X137803D01*
X131213D02*
X111650D01*
X76668Y508819D02*
X279354D01*
X76940Y510186D02*
X279354D01*
X77212Y511554D02*
X279354D01*
X77484Y512921D02*
X279354D01*
X76430Y507624D02*
X77683Y513921D01*
X279354D02*
Y508819D01*
X267206D01*
X79395Y346441D02*
X81151D01*
X79973Y345998D02*
X77057Y348235D01*
X85650Y348133D02*
X79973Y345998D01*
X79400Y292019D02*
X81142D01*
X77063Y290226D02*
X79973Y292459D01*
X85650Y290327D01*
X77683Y513921D02*
X77458Y515053D01*
X279354Y514858D02*
Y513921D01*
X111650Y513858D02*
X131213D01*
X137803D02*
X157366D01*
X80766Y584063D02*
X213521D01*
X81649Y584946D02*
X213887D01*
X82532Y585829D02*
X214253D01*
X79058Y582356D02*
X82825Y586122D01*
X214984Y587595D02*
X213189Y583262D01*
X87377Y114658D02*
X109894D01*
X86059Y116375D02*
X109894D01*
X84742Y118092D02*
X109894D01*
X83424Y119809D02*
X109894D01*
X87757Y114163D02*
X82109Y121522D01*
X109894Y120809D02*
Y113658D01*
X83423Y72979D02*
X109894D01*
X84741Y74697D02*
X109894D01*
X86059Y76415D02*
X109894D01*
X87377Y78133D02*
X109894D01*
X82109Y71265D02*
X87757Y78629D01*
X109894Y79133D02*
Y71979D01*
X82825Y586122D02*
X84382Y587679D01*
X219317Y589386D02*
X214984Y587595D01*
X86089Y589386D02*
X311757D01*
X87413Y590709D02*
X310434D01*
X88736Y592031D02*
X309111D01*
X90059Y593354D02*
X307787D01*
X91382Y594677D02*
X306464D01*
X84382Y587679D02*
X91382Y594677D01*
X306464D02*
X313465Y587679D01*
X91382Y594677D02*
X306464D01*
X301998Y589386D02*
X274435D01*
X246880D02*
X219317D01*
G54D34*
X89878Y81133D02*
X108894D01*
X90774Y83296D02*
X108894D01*
X91671Y85459D02*
X108894D01*
G54D31*
X87757Y78629D02*
X91309Y87198D01*
X109894Y87459D02*
Y79133D01*
G54D34*
X88631Y78125D02*
X92283Y86937D01*
X108894Y87459D02*
Y79133D01*
X91671Y107332D02*
X108894D01*
X90774Y109495D02*
X108894D01*
X89878Y111658D02*
X108894D01*
G54D31*
X91309Y105593D02*
X87757Y114163D01*
X109894Y113658D02*
Y105332D01*
G54D34*
X92283Y105854D02*
X88631Y114667D01*
X108894Y113658D02*
Y105332D01*
X92615Y89459D02*
X108894D01*
X92939Y91926D02*
X108894D01*
X93264Y94394D02*
X108894D01*
G54D31*
X91309Y87198D02*
X92518Y96394D01*
X109894D02*
Y87459D01*
G54D34*
X92283Y86937D02*
X93527Y96394D01*
X108894Y96394D02*
Y87459D01*
X93264Y98394D02*
X108894D01*
X92939Y100863D02*
X108894D01*
X92615Y103332D02*
X108894D01*
G54D31*
X92518Y96394D02*
X91309Y105593D01*
X109894Y105332D02*
Y96394D01*
G54D34*
X93527Y96394D02*
X92283Y105854D01*
X108894Y105332D02*
Y96394D01*
G54D31*
X94669Y526092D02*
X101782Y527507D01*
X117765Y529488D02*
X114259Y528036D01*
X103039Y568176D02*
X94669Y569841D01*
X104421Y569528D02*
X103033Y568140D01*
X101782Y527507D02*
X103039Y527757D01*
X279354Y528699D02*
Y528488D01*
X151254Y529488D02*
X137803D01*
X131213D02*
X117765D01*
X105709Y277890D02*
X125668D01*
X104784Y278815D02*
X125136D01*
X106002Y277597D02*
X103370Y280229D01*
X124849Y279379D02*
X126450Y276738D01*
X103370Y280815D02*
X124236D01*
X103370Y282378D02*
X123741D01*
X103370Y280229D02*
Y283378D01*
X123741Y282378D02*
X124849Y279379D01*
X116210Y282378D02*
X123741D01*
X103370Y283378D02*
Y284994D01*
X111744Y284228D02*
X116210Y282378D01*
X103370Y285994D02*
X111013D01*
X103370Y286944D02*
X110619D01*
X103370Y287894D02*
X110226D01*
X103370Y284994D02*
Y288894D01*
X109894Y288695D02*
X111744Y284228D01*
G54D33*
X106370Y292894D02*
Y366823D01*
X106894Y292894D02*
Y366823D01*
G54D31*
X103370Y371823D02*
X110226D01*
X103370Y372773D02*
X110619D01*
X103370Y373723D02*
X111013D01*
X103370Y370823D02*
Y374723D01*
X111744Y375488D02*
X109894Y371022D01*
X103370Y374723D02*
Y376339D01*
X116210Y377339D02*
X111744Y375488D01*
G54D34*
X104370Y378339D02*
X412488D01*
X104370Y381286D02*
X415436D01*
X104370Y384234D02*
X418383D01*
X104370Y387181D02*
X421331D01*
G54D31*
X103370Y376339D02*
Y388909D01*
X425453Y389888D02*
X412609Y377046D01*
G54D34*
X104370Y376339D02*
Y387181D01*
X424746Y390595D02*
X411902Y377753D01*
G54D31*
X334380Y388181D02*
X347827D01*
X354417D02*
X367868D01*
X178853Y377339D02*
X116210D01*
X332472Y388969D02*
X334380Y388181D01*
X103370Y388894D02*
X106766D01*
X128258D02*
X132921D01*
X139512D02*
X144168D01*
X103057Y568164D02*
X103039Y568176D01*
X105944Y529699D02*
X279354D01*
X107830Y530960D02*
X279354D01*
X109716Y532221D02*
X279354D01*
X103039Y527757D02*
X110134Y532500D01*
X279354Y533221D02*
Y528699D01*
X111095Y272504D02*
X124695D01*
X109402Y274197D02*
X125397D01*
X107709Y275890D02*
X126099D01*
X111388Y272211D02*
X106002Y277597D01*
X126451Y276738D02*
X124507Y272051D01*
X106766Y388894D02*
X111035Y390661D01*
X123988D02*
X128258Y388894D01*
X111284Y534221D02*
X279354D01*
X112345Y535810D02*
X279354D01*
X113407Y537400D02*
X279354D01*
X114469Y538989D02*
X279354D01*
X110134Y532500D02*
X114876Y539599D01*
X279354Y539989D02*
Y533221D01*
X111767Y392427D02*
X123256D01*
X112475Y394134D02*
X122549D01*
X111035Y390661D02*
X112807Y394934D01*
X122217D02*
X123988Y390661D01*
X111732Y271867D02*
X111388Y272211D01*
X124507Y272051D02*
X124467Y272008D01*
X112028D01*
X111720Y271879D01*
X112807Y406908D02*
X112547Y407534D01*
X122553Y407718D02*
X122217Y406908D01*
X112547Y408335D02*
X122809D01*
X112547Y409412D02*
X123256D01*
X112547Y407534D02*
Y410412D01*
X123988Y411177D02*
X122553Y407718D01*
X112547Y410412D02*
Y411762D01*
X128257Y412949D02*
X123988Y411177D01*
X328264Y412154D02*
Y411949D01*
X144168Y412949D02*
X139512D01*
X132921D02*
X128257D01*
X113961Y413154D02*
X328264D01*
X115351Y414544D02*
X328264D01*
X116741Y415933D02*
X328264D01*
X118131Y417323D02*
X328264D01*
X119521Y418713D02*
X328264D01*
X112547Y411740D02*
X119813Y419006D01*
X328264Y419912D02*
Y412154D01*
G54D42*
X112307Y395634D02*
X122717D01*
X112307Y396126D02*
X122717D01*
G54D37*
X112807Y397626D02*
X328264D01*
X112807Y398138D02*
X328264D01*
G54D31*
X112807Y399138D02*
Y400694D01*
X262894Y399930D02*
X267206Y398138D01*
X112807Y401694D02*
X262163D01*
X112807Y402569D02*
X261800D01*
X112807Y403445D02*
X261438D01*
X112807Y400694D02*
Y404445D01*
X261106Y404246D02*
X262894Y399930D01*
X112807Y404445D02*
Y405217D01*
X261106D02*
Y404246D01*
X122217Y404217D02*
X132921D01*
X139512D02*
X150209D01*
G54D42*
X112307Y405717D02*
X122717D01*
X112307Y406209D02*
X122717D01*
G54D31*
X115153Y540989D02*
X279354D01*
X115461Y542538D02*
X279354D01*
X115769Y544086D02*
X279354D01*
X116077Y545634D02*
X279354D01*
X114876Y539599D02*
X116238Y546439D01*
X279354Y545634D02*
Y539989D01*
X219316Y545634D02*
X246881D01*
X274434D02*
X279354D01*
X115547Y552960D02*
X213189D01*
X115414Y553631D02*
X213189D01*
X115707Y552155D02*
X115268Y554361D01*
X213189Y554631D02*
Y551761D01*
X116317Y555631D02*
X213189D01*
X117304Y556828D02*
X213189D01*
X118292Y558025D02*
X213189D01*
X115268Y554361D02*
X118509Y558289D01*
X213189Y559025D02*
Y554631D01*
X116297Y549194D02*
X214253D01*
X116121Y550077D02*
X213887D01*
X115945Y550960D02*
X213521D01*
X116457Y548390D02*
X115707Y552155D01*
X213189Y551761D02*
X214984Y547429D01*
X116238Y546439D02*
X116541Y547965D01*
X215922Y547041D02*
X219316Y545634D01*
X116541Y547965D02*
X116457Y548390D01*
X214984Y547429D02*
X215922Y547041D01*
X118509Y558289D02*
X119716Y559157D01*
X213189D02*
Y559025D01*
X119716Y559157D02*
X213189D01*
X119813Y419006D02*
X120475Y419667D01*
X328614Y420757D02*
X328264Y419912D01*
X261106Y419374D02*
X283618D01*
X290209D02*
X312728D01*
X122182Y421374D02*
X261106D01*
X123721Y422913D02*
X261106D01*
X125260Y424452D02*
X261106D01*
X126799Y425991D02*
X261106D01*
X120475Y419667D02*
X127162Y426354D01*
X261106Y426991D02*
Y419374D01*
X127162Y426354D02*
X127698Y427157D01*
X261106Y427912D02*
Y426991D01*
X128688Y428638D02*
X261407D01*
X127698Y427157D02*
X129046Y429174D01*
X261950Y429947D02*
X261106Y427912D01*
X129312Y430512D02*
X262184D01*
X129046Y429174D02*
X129462Y431264D01*
X262894Y432224D02*
X261950Y429947D01*
X129462Y431264D02*
X129627Y432093D01*
X266441Y433695D02*
X262894Y432224D01*
X129627Y432093D02*
X129673Y432116D01*
X267206Y434012D02*
X266441Y433695D01*
X129673Y432116D02*
X130907Y432727D01*
X367681Y432846D02*
X368677Y432180D01*
X306624Y434012D02*
X290209D01*
X283618D02*
X267206D01*
G54D33*
X134213Y496642D02*
Y502272D01*
X134803Y496642D02*
Y502272D01*
X134213Y518858D02*
Y524488D01*
X134803Y518858D02*
Y524488D01*
G54D30*
X132599Y434123D02*
X367111D01*
X133540Y434589D02*
X366645D01*
X134481Y435055D02*
X366179D01*
G54D31*
X130907Y432727D02*
X134598Y434555D01*
X365679Y434848D02*
X367681Y432846D01*
X134598Y434555D02*
X151254D01*
G54D39*
X133921Y391894D02*
X138512D01*
X133921Y394626D02*
X138512D01*
X133921Y407217D02*
X138512D01*
X133921Y409949D02*
X138512D01*
G54D31*
X148608Y142878D02*
X263056D01*
X147520Y143525D02*
X263324D01*
X148867Y142707D02*
X144473Y144805D01*
X139657Y145525D01*
X263897Y144908D02*
X262724Y142077D01*
X144751Y412707D02*
X144168Y412949D01*
X328264Y411949D02*
Y411783D01*
X312728Y412783D02*
X290209D01*
X283618D02*
X261106D01*
X144168Y388894D02*
X146383Y389810D01*
X330055Y389968D02*
X332472Y388969D01*
X148441Y411177D02*
X144751Y412707D01*
X261106Y412783D02*
Y410412D01*
X146383Y389810D02*
X148441Y390661D01*
X329610Y391044D02*
X330055Y389968D01*
X149171Y392427D02*
X329038D01*
X149613Y393496D02*
X328595D01*
X148441Y390661D02*
X149869Y394113D01*
X328264Y394297D02*
X329610Y391044D01*
X149877Y407709D02*
X261106D01*
X149172Y409412D02*
X261106D01*
X150209Y406908D02*
X148441Y411177D01*
X261106Y410412D02*
Y406709D01*
X152455Y139413D02*
X262724D01*
X151118Y140878D02*
X262724D01*
X152765Y139018D02*
X148867Y142707D01*
X262724Y142077D02*
Y137413D01*
X149869Y394113D02*
X150209Y394935D01*
X328264Y395133D02*
Y394297D01*
G54D42*
X149709Y395633D02*
X328764D01*
X149709Y396126D02*
X328764D01*
X149709Y405717D02*
X261606D01*
X149709Y406209D02*
X261606D01*
G54D31*
X151254Y434555D02*
X153814Y435615D01*
X364695Y435832D02*
X365679Y434848D01*
X180592Y435539D02*
X220010D01*
X153814Y471341D02*
X151254Y472402D01*
X316272Y470694D02*
X317256Y469710D01*
X220010Y471417D02*
X180592D01*
X151254Y491642D02*
X155579Y493433D01*
X261106Y494198D02*
Y492642D01*
X155579Y527697D02*
X151254Y529488D01*
X279354Y528488D02*
Y526931D01*
X153649Y277893D02*
X348243D01*
X153856Y278236D02*
X348228D01*
X152866Y276740D02*
X154151Y278762D01*
X348210Y279237D02*
X348320Y276803D01*
X154162Y273618D02*
X348802D01*
X153690Y274755D02*
X348585D01*
X153218Y275893D02*
X348418D01*
X154418Y273001D02*
X152867Y276741D01*
X348320Y276802D02*
X349144Y272206D01*
X154494Y136187D02*
X350961D01*
X153840Y137413D02*
X350961D01*
X154769Y135583D02*
X152765Y139018D01*
X350961Y138413D02*
Y135487D01*
X262724Y137413D02*
X271457D01*
X278047D02*
X286776D01*
X154852Y280236D02*
X348228D01*
X155254Y281307D02*
X348290D01*
X155574Y282378D02*
X348394D01*
X154152Y278763D02*
X155574Y282378D01*
X348556Y283538D02*
X348210Y279236D01*
X155574Y282378D02*
X178853D01*
X153814Y435615D02*
X155579Y436347D01*
X179026Y436188D02*
X180592Y435539D01*
X155579Y470610D02*
X153814Y471341D01*
X180592Y471417D02*
X179026Y470769D01*
X154812Y272051D02*
X154418Y273001D01*
X349144Y272206D02*
X349955Y270958D01*
X155554Y133319D02*
X349535D01*
X155296Y134187D02*
X350106D01*
X155577Y133233D02*
X154768Y135583D01*
X350961Y135487D02*
X349131Y132705D01*
X154852Y272008D02*
X154812Y272051D01*
X349955Y270958D02*
X350278Y270463D01*
X190912Y272008D02*
X154852D01*
X349131Y132705D02*
X349079Y132443D01*
X178853Y133248D02*
X155573D01*
X155579Y436347D02*
X156143Y437710D01*
X176275Y437327D02*
X179026Y436188D01*
X156143Y469246D02*
X155579Y470610D01*
X179026Y470769D02*
X176275Y469630D01*
X156308Y495198D02*
X261106D01*
X156672Y496077D02*
X261106D01*
X157035Y496956D02*
X261106D01*
X155579Y493433D02*
X157366Y497758D01*
X261106Y497956D02*
Y494198D01*
X157035Y524174D02*
X279354D01*
X156672Y525053D02*
X279354D01*
X156308Y525931D02*
X279354D01*
X157366Y523372D02*
X155579Y527697D01*
X279354Y526931D02*
Y523174D01*
X156714Y439092D02*
X175546D01*
X157035Y439870D02*
X175225D01*
X156143Y437710D02*
X157366Y440671D01*
X174969Y440488D02*
X176275Y437327D01*
X157035Y467087D02*
X175225D01*
X156714Y467865D02*
X175546D01*
X157366Y466285D02*
X156143Y469246D01*
X176275Y469630D02*
X174969Y466469D01*
X157366Y440671D02*
Y441842D01*
X174492Y441644D02*
X174969Y440488D01*
G54D37*
X157366Y442842D02*
X174492D01*
X157366Y443730D02*
X174492D01*
X157366Y444618D02*
X174492D01*
X157366Y462339D02*
X174492D01*
X157366Y463227D02*
X174492D01*
X157366Y464115D02*
X174492D01*
G54D31*
X157366Y465115D02*
Y466285D01*
X174969Y466469D02*
X174492Y465313D01*
G54D39*
X158366Y499956D02*
X260106D01*
X158366Y500512D02*
X260106D01*
G54D31*
X157366Y503512D02*
X261438D01*
X157366Y504389D02*
X261801D01*
X157366Y505266D02*
X262163D01*
X157366Y502512D02*
Y506266D01*
X262894Y507031D02*
X261106Y502711D01*
X157366Y506266D02*
Y507272D01*
X263289Y507195D02*
X262894Y507031D01*
G54D33*
X160366Y518858D02*
X276354D01*
X160366Y519174D02*
X276354D01*
G54D31*
X183319Y131393D02*
X178853Y133248D01*
X349079Y132443D02*
X348757Y130823D01*
X178853Y38283D02*
X183319Y40134D01*
X226504Y40899D02*
Y39283D01*
X178853Y282378D02*
X183319Y284228D01*
X348882Y285216D02*
X348556Y283538D01*
X183319Y375488D02*
X178853Y377339D01*
X412609Y377046D02*
X410993Y375430D01*
X184050Y41899D02*
X226504D01*
X184444Y42849D02*
X226504D01*
X184837Y43799D02*
X226504D01*
X183319Y40134D02*
X185169Y44600D01*
X226504Y44799D02*
Y40899D01*
X183319Y284228D02*
X183834Y285472D01*
X349144Y286267D02*
X348882Y285216D01*
X184837Y371823D02*
X407386D01*
X184444Y372773D02*
X408336D01*
X184050Y373723D02*
X409286D01*
X185169Y371022D02*
X183319Y375488D01*
X410993Y375430D02*
X407093Y371530D01*
X183810Y130210D02*
X183319Y131393D01*
X348757Y130823D02*
X348599Y130021D01*
X286776Y130827D02*
X278047D01*
X271457D02*
X262724D01*
X184837Y127733D02*
X262724D01*
X184383Y128827D02*
X262724D01*
X185169Y126932D02*
X183810Y130210D01*
X262724Y130827D02*
Y126733D01*
X184407Y286855D02*
X349527D01*
X184781Y287759D02*
X350116D01*
X183834Y285472D02*
X185037Y288376D01*
X350961Y289056D02*
X349144Y286267D01*
X185037Y288376D02*
X185169Y288695D01*
Y44600D02*
Y44977D01*
X226504Y45176D02*
Y44799D01*
X185169Y45977D02*
X226836D01*
X185169Y46854D02*
X227200D01*
X185169Y47731D02*
X227563D01*
X185169Y44977D02*
Y48731D01*
X228295Y49496D02*
X226504Y45176D01*
X185169Y48731D02*
Y50287D01*
X232620Y51287D02*
X228295Y49496D01*
X185169Y50287D02*
Y51680D01*
X283484Y52445D02*
X282750Y50670D01*
X266109Y51287D02*
X252657D01*
X246067D02*
X232620D01*
X185169Y51680D02*
Y53240D01*
X287816Y54240D02*
X283484Y52445D01*
X185169Y53240D02*
Y54402D01*
X356860Y55402D02*
X350930Y54221D01*
X319318Y54240D02*
X287816D01*
X185169Y54402D02*
Y55291D01*
X689195Y55998D02*
X688306Y55109D01*
X644923Y54291D02*
X672486D01*
X583377Y55402D02*
X553710D01*
X386526D02*
X356860D01*
X185169Y55291D02*
Y56848D01*
X640595Y56083D02*
X644923Y54291D01*
X185169Y57848D02*
X639863D01*
X185169Y58731D02*
X639497D01*
X185169Y59614D02*
X639131D01*
X185169Y56848D02*
Y60614D01*
X638799Y60415D02*
X640595Y56083D01*
G54D33*
X188169Y64614D02*
X635799D01*
X188169Y66543D02*
X635799D01*
G54D31*
X185169Y70543D02*
Y71528D01*
X285257Y70604D02*
X287816Y69543D01*
X232620Y70528D02*
X266109D01*
X185169Y71528D02*
Y73084D01*
X228295Y72319D02*
X232620Y70528D01*
X185169Y74084D02*
X227564D01*
X185169Y74963D02*
X227200D01*
X185169Y75842D02*
X226836D01*
X185169Y73084D02*
Y76842D01*
X226504Y76643D02*
X228295Y72319D01*
G54D38*
X192169Y84842D02*
X219504D01*
X192169Y94059D02*
X219504D01*
G54D31*
X185169Y103059D02*
X226836D01*
X185169Y103938D02*
X227200D01*
X185169Y104817D02*
X227564D01*
X185169Y102059D02*
Y105817D01*
X228295Y106583D02*
X226504Y102258D01*
X185169Y105817D02*
Y107374D01*
X232620Y108374D02*
X228295Y106583D01*
X185169Y107374D02*
Y108358D01*
X287816Y109358D02*
X285257Y108298D01*
X266109Y108374D02*
X232620D01*
X185169Y109358D02*
X512204D01*
X185169Y110550D02*
X513396D01*
X185169Y111741D02*
X514587D01*
X185169Y112933D02*
X515779D01*
X185169Y108358D02*
Y113933D01*
X517486Y114640D02*
X511911Y109065D01*
X319318Y109358D02*
X287816D01*
X185169Y114933D02*
X351982D01*
X185169Y116663D02*
X350295D01*
X185169Y118392D02*
X349271D01*
X185169Y120122D02*
X348682D01*
X185169Y113933D02*
Y121122D01*
X348522Y120987D02*
X349551Y117827D01*
X351624Y115230D01*
X354477Y113526D01*
X357747Y112933D01*
X268765Y120122D02*
X271457D01*
X278047D02*
X280735D01*
X185169Y121122D02*
Y122659D01*
X264492Y121894D02*
X268765Y120122D01*
X185169Y123659D02*
X263761D01*
X185169Y125362D02*
X263056D01*
X185169Y122659D02*
Y126362D01*
X262724Y126163D02*
X264492Y121894D01*
X185169Y126362D02*
Y126932D01*
X262724Y126733D02*
Y126163D01*
G54D39*
X186169Y290894D02*
X349961D01*
X186169Y293304D02*
X349961D01*
G54D31*
X185169Y296304D02*
X350116D01*
X185169Y297208D02*
X349527D01*
X185169Y295304D02*
Y298208D01*
X349144Y297796D02*
X350961Y295007D01*
X185169Y299208D02*
X348802D01*
X185169Y300748D02*
X348520D01*
X185169Y302287D02*
X348330D01*
X185169Y303827D02*
X348228D01*
X185169Y298208D02*
Y304827D01*
X348210Y304827D02*
X349144Y297796D01*
X185169Y305827D02*
X348228D01*
X185169Y307366D02*
X348330D01*
X185169Y308906D02*
X348520D01*
X185169Y310445D02*
X348802D01*
X185169Y304827D02*
Y311445D01*
X349144Y311857D02*
X348210Y304827D01*
X185169Y312445D02*
X349527D01*
X185169Y313349D02*
X350116D01*
X185169Y311445D02*
Y314349D01*
X350961Y314646D02*
X349144Y311857D01*
G54D39*
X186169Y316349D02*
X349961D01*
X186169Y318895D02*
X349961D01*
G54D31*
X185169Y321895D02*
X350116D01*
X185169Y322799D02*
X349527D01*
X185169Y320895D02*
Y323799D01*
X349144Y323387D02*
X350961Y320598D01*
X185169Y324799D02*
X348802D01*
X185169Y326338D02*
X348520D01*
X185169Y327878D02*
X348330D01*
X185169Y329417D02*
X348228D01*
X185169Y323799D02*
Y330417D01*
X348210Y330417D02*
X349144Y323387D01*
X185169Y331417D02*
X348228D01*
X185169Y332957D02*
X348330D01*
X185169Y334496D02*
X348520D01*
X185169Y336036D02*
X348802D01*
X185169Y330417D02*
Y337036D01*
X349144Y337448D02*
X348210Y330417D01*
X185169Y338036D02*
X349527D01*
X185169Y338940D02*
X350116D01*
X185169Y337036D02*
Y339940D01*
X350961Y340237D02*
X349144Y337448D01*
G54D39*
X186169Y341940D02*
X349961D01*
X186169Y344485D02*
X349961D01*
G54D31*
X185169Y347485D02*
X350116D01*
X185169Y348389D02*
X349527D01*
X185169Y346485D02*
Y349389D01*
X349144Y348977D02*
X350961Y346188D01*
X185169Y350389D02*
X348802D01*
X185169Y351928D02*
X348520D01*
X185169Y353467D02*
X348330D01*
X185169Y355006D02*
X348228D01*
X185169Y349389D02*
Y356006D01*
X348210D02*
X349144Y348977D01*
X185169Y357006D02*
X348228D01*
X185169Y358544D02*
X348330D01*
X185169Y360083D02*
X348520D01*
X185169Y361621D02*
X348802D01*
X185169Y356006D02*
Y362621D01*
X349145Y363039D02*
X348210Y356006D01*
X185169Y363621D02*
X349534D01*
X185169Y364327D02*
X350006D01*
X185169Y362621D02*
Y365327D01*
X351157Y366047D02*
X349145Y363039D01*
X185169Y366229D02*
X351428D01*
X185169Y365327D02*
Y367131D01*
X354181Y368073D02*
X351157Y366047D01*
X185169Y367131D02*
Y367768D01*
X357683Y368768D02*
X354181Y368073D01*
X185169Y368768D02*
X404330D01*
X185169Y369823D02*
X405386D01*
X185169Y367768D02*
Y371022D01*
X407093Y371530D02*
X404037Y368475D01*
X396207Y368768D02*
X357683D01*
X189927Y169209D02*
X193697Y170770D01*
X218051Y170917D02*
X220355Y169377D01*
X194222Y270633D02*
X190912Y272008D01*
X350278Y270463D02*
X350961Y269413D01*
X193697Y170770D02*
X194205Y170980D01*
X217929Y171039D02*
X218051Y170917D01*
X194935Y172746D02*
X216222D01*
X195645Y174460D02*
X214508D01*
X194205Y170980D02*
X195976Y175262D01*
X214215Y174753D02*
X217929Y171039D01*
X195189Y270232D02*
X194222Y270633D01*
X196337Y241870D02*
X350961D01*
X195851Y243044D02*
X350961D01*
X196593Y241253D02*
X195354Y244242D01*
X350961Y243855D02*
Y240870D01*
X286776Y241870D02*
X278047D01*
X271457D02*
X262724D01*
X195354Y245123D02*
X350116D01*
X195354Y246019D02*
X349532D01*
X195354Y244202D02*
Y247019D01*
X349131Y246635D02*
X350961Y243826D01*
X195354Y247019D02*
Y248151D01*
X348829Y248156D02*
X349131Y246635D01*
X195354Y248151D02*
X195692Y248968D01*
X348394Y250350D02*
X348829Y248156D01*
X196629Y266756D02*
X350961D01*
X195920Y268467D02*
X350961D01*
X196961Y265955D02*
X195189Y270232D01*
X350961Y269467D02*
Y265756D01*
X195692Y248968D02*
X195740Y249082D01*
X458386Y249465D02*
Y249350D01*
X262724Y248465D02*
X271457D01*
X278047D02*
X286776D01*
X405496Y250350D02*
X348394D01*
X196312Y250465D02*
X262724D01*
X196629Y251232D02*
X262724D01*
X195740Y249082D02*
X196961Y252033D01*
X262724Y252232D02*
Y248465D01*
G54D34*
X196976Y177460D02*
X210093D01*
X196976Y180579D02*
X206975D01*
X196976Y183697D02*
X203856D01*
G54D31*
X195976Y175262D02*
Y185029D01*
X203978Y184990D02*
X214215Y174753D01*
G54D34*
X196976Y175063D02*
Y184361D01*
X203271Y184283D02*
X213508Y174046D01*
G54D31*
X200003Y186697D02*
X202271D01*
X195976Y185029D02*
X201606Y187362D01*
X203978Y184990D01*
X196961Y240364D02*
X196593Y241253D01*
X262724Y241870D02*
Y240166D01*
Y237210D02*
X263211Y236035D01*
X244920Y237417D02*
X196961D01*
G54D37*
Y238409D02*
X262724D01*
X196961Y239166D02*
X262724D01*
G54D31*
X196961Y252033D02*
Y252922D01*
X262724Y253120D02*
Y252232D01*
X196961Y253922D02*
X263056D01*
X196961Y255625D02*
X263761D01*
X196961Y252922D02*
Y256625D01*
X264492Y257390D02*
X262724Y253120D01*
X196961Y256625D02*
Y258161D01*
X268765Y259161D02*
X264492Y257390D01*
X196961Y259161D02*
X348834D01*
X196961Y259273D02*
X348856D01*
X196961Y258161D02*
Y260273D01*
X349131Y260657D02*
X348674Y258356D01*
X280735Y259161D02*
X278047D01*
X271457D02*
X268765D01*
X196961Y261273D02*
X349532D01*
X196961Y262164D02*
X350114D01*
X196961Y260273D02*
Y263164D01*
X350961Y263462D02*
X349131Y260657D01*
G54D37*
X196961Y264164D02*
X350961D01*
X196961Y264756D02*
X350961D01*
G54D31*
X220010Y435539D02*
X224323Y437327D01*
X363142Y437385D02*
X364695Y435832D01*
X224323Y469630D02*
X220010Y471417D01*
X317256Y469710D02*
X318810Y468157D01*
X225054Y439092D02*
X361435D01*
X225416Y439967D02*
X360560D01*
X225779Y440842D02*
X359685D01*
X224323Y437327D02*
X226110Y441643D01*
X359392Y441135D02*
X363142Y437385D01*
X224710Y468696D02*
X224323Y469630D01*
X318810Y468157D02*
X319409Y467559D01*
X225463Y466877D02*
X320386D01*
X225282Y467313D02*
X319740D01*
X225718Y466260D02*
X224710Y468696D01*
X319409Y467559D02*
X323133Y465566D01*
X327300Y464877D01*
X226110Y465313D02*
X225718Y466260D01*
X226110Y441643D02*
Y442625D01*
X358539Y441988D02*
X359392Y441135D01*
X226110Y443625D02*
X357445D01*
X226110Y444198D02*
X357063D01*
X226110Y442625D02*
Y445198D01*
X356655Y444808D02*
X358539Y441988D01*
X226110Y445198D02*
Y446268D01*
X356563Y445268D02*
X356655Y444808D01*
X334380Y445268D02*
X356563D01*
X226110Y446268D02*
Y447825D01*
X330055Y447059D02*
X334380Y445268D01*
X226110Y448825D02*
X329323D01*
X226110Y449701D02*
X328960D01*
X226110Y450578D02*
X328596D01*
X226110Y447825D02*
Y451578D01*
X328264Y451379D02*
X330055Y447059D01*
G54D33*
X229110Y455578D02*
X325264D01*
X229110Y461114D02*
X325264D01*
G54D31*
X248055Y236794D02*
X244920Y237417D01*
X263211Y236035D02*
X263445Y235469D01*
G54D33*
X249067Y18445D02*
Y24071D01*
X249657Y18445D02*
Y24071D01*
X249067Y40661D02*
Y46287D01*
X249657Y40661D02*
Y46287D01*
G54D31*
X246881Y545634D02*
X251213Y547429D01*
X270485Y547271D02*
X274434Y545634D01*
X251213Y587595D02*
X246880Y589386D01*
X274435D02*
X270486Y587753D01*
X250709Y235020D02*
X248055Y236794D01*
X263445Y235469D02*
X264111Y233860D01*
X251316Y234413D02*
X250709Y235020D01*
X264111Y233860D02*
X264492Y232941D01*
X251943Y549194D02*
X269371D01*
X252308Y550077D02*
X269005D01*
X252673Y550960D02*
X268639D01*
X251371Y547812D02*
X253004Y551762D01*
X268383Y551577D02*
X270102Y547429D01*
X252673Y584064D02*
X268639D01*
X252308Y584946D02*
X269005D01*
X251943Y585829D02*
X269371D01*
X253004Y583262D02*
X251371Y587211D01*
X270102Y587595D02*
X268383Y583446D01*
X252853Y232876D02*
X251316Y234413D01*
X264492Y232941D02*
X268765Y231169D01*
X253004Y551762D02*
Y551960D01*
X268307Y551761D02*
X268383Y551577D01*
G54D38*
X260004Y559960D02*
Y575063D01*
X261307Y559960D02*
Y575063D01*
G54D31*
X253004Y583063D02*
Y583262D01*
X268383Y583446D02*
X268307Y583262D01*
X256676Y229053D02*
X348228D01*
X255618Y230111D02*
X348288D01*
X254560Y231169D02*
X348391D01*
X256969Y228760D02*
X252853Y232876D01*
X348551Y232328D02*
X348210Y228053D01*
X268765Y231169D02*
X271457D01*
X278047D02*
X280735D01*
X263292Y222437D02*
X348802D01*
X261754Y223975D02*
X348520D01*
X260215Y225514D02*
X348330D01*
X258676Y227053D02*
X348228D01*
X263585Y222144D02*
X256969Y228760D01*
X348210Y228053D02*
X349144Y221024D01*
X264262Y221467D02*
X263585Y222144D01*
X349144Y221024D02*
X349672Y220214D01*
X280735Y221760D02*
X268765D01*
X264540Y221189D02*
X264262Y221467D01*
X268765Y221760D02*
X267388Y221189D01*
X264540D01*
X270433Y49496D02*
X266109Y51287D01*
X282750Y50670D02*
X282105Y49113D01*
X266109Y70528D02*
X267683Y71180D01*
X283484Y71339D02*
X285257Y70604D01*
X267683Y107722D02*
X266109Y108374D01*
X285257Y108298D02*
X283484Y107563D01*
X266108Y13445D02*
X268664Y14501D01*
X336188Y14870D02*
X336843Y13889D01*
X287816Y14425D02*
X319318D01*
X267683Y71180D02*
X270433Y72319D01*
X282920Y72702D02*
X283484Y71339D01*
X270433Y106582D02*
X267683Y107722D01*
X283484Y107563D02*
X282920Y106200D01*
X268664Y14501D02*
X270433Y15232D01*
X286251Y15074D02*
X287816Y14425D01*
X271163Y74084D02*
X282349D01*
X271487Y74869D02*
X282024D01*
X270433Y72319D02*
X271743Y75488D01*
X281693Y75671D02*
X282920Y72702D01*
X271486Y104036D02*
X282025D01*
X271163Y104817D02*
X282348D01*
X271741Y103418D02*
X270433Y106582D01*
X282920Y106200D02*
X281693Y103235D01*
X270433Y15232D02*
X271000Y16604D01*
X283484Y16221D02*
X286251Y15074D01*
X270928Y48300D02*
X270433Y49496D01*
X282105Y49113D02*
X281693Y48116D01*
X271889Y45977D02*
X281693D01*
X271500Y46918D02*
X281693D01*
X272220Y45175D02*
X270928Y48300D01*
X281693Y48116D02*
Y44977D01*
X271571Y17986D02*
X282754D01*
X271889Y18756D02*
X282436D01*
X271000Y16604D02*
X272220Y19557D01*
X282180Y19374D02*
X283484Y16221D01*
G54D33*
X274457Y125122D02*
Y125827D01*
X275047Y125122D02*
Y125827D01*
X274457Y142413D02*
Y143114D01*
X275047Y142413D02*
Y143114D01*
X274457Y236169D02*
Y236870D01*
X275047Y236169D02*
Y236870D01*
X274457Y253465D02*
Y254161D01*
X275047Y253465D02*
Y254161D01*
G54D31*
X272220Y102258D02*
X271741Y103418D01*
X281693Y103235D02*
Y102059D01*
X271743Y75488D02*
X272220Y76644D01*
X281693Y76842D02*
Y75671D01*
X272220Y19557D02*
Y20751D01*
X281693Y20553D02*
X282180Y19374D01*
G54D39*
X273220Y22751D02*
X280693D01*
X273220Y26071D02*
X280693D01*
G54D33*
X275220Y40661D02*
X278693D01*
X275220Y40977D02*
X278693D01*
G54D39*
X273220Y78842D02*
X280693D01*
X273220Y80098D02*
X280693D01*
X273220Y98803D02*
X280693D01*
X273220Y100059D02*
X280693D01*
G54D31*
X280735Y120122D02*
X283622Y121319D01*
X348437Y122243D02*
X348522Y120987D01*
X280735Y157524D02*
X285008Y159295D01*
X350637Y160606D02*
X349636Y159069D01*
X285008Y219988D02*
X280735Y221760D01*
X349672Y220214D02*
X350673Y218677D01*
X280735Y231169D02*
X285008Y232941D01*
X348858Y233924D02*
X348551Y232328D01*
X281450Y258865D02*
X280735Y259161D01*
X348674Y258356D02*
X348394Y256941D01*
X285008Y146347D02*
X280734Y148114D01*
X348560Y146953D02*
X348869Y145361D01*
X285008Y257390D02*
X281450Y258865D01*
X458386Y257941D02*
Y256625D01*
X348394Y256941D02*
X405496D01*
G54D33*
X286618Y403138D02*
Y407783D01*
X287209Y403138D02*
Y407783D01*
X286618Y424374D02*
Y429012D01*
X287209Y424374D02*
Y429012D01*
G54D31*
X283622Y121319D02*
X283634Y121324D01*
X348437Y122248D02*
Y122243D01*
X283634Y121324D02*
X285008Y121894D01*
X348437Y122659D02*
Y122248D01*
X285739Y123659D02*
X348437D01*
X286444Y125362D02*
X348437D01*
X285008Y121894D02*
X286776Y126163D01*
X348437Y126362D02*
Y122659D01*
X285008Y159295D02*
X285475Y160423D01*
X350961Y161103D02*
X350637Y160606D01*
X285452Y218915D02*
X285008Y219988D01*
X350673Y218677D02*
X350961Y218236D01*
X285008Y232941D02*
X285565Y234287D01*
X349144Y235082D02*
X348858Y233924D01*
X286444Y253922D02*
X458386D01*
X285739Y255625D02*
X458386D01*
X286776Y253120D02*
X285008Y257390D01*
X458386Y256625D02*
Y252922D01*
X285546Y145048D02*
X285008Y146347D01*
X348869Y145361D02*
X349144Y144251D01*
X286258Y216969D02*
X350961D01*
X286025Y217533D02*
X350961D01*
X286514Y216351D02*
X285452Y218915D01*
X350961Y218236D02*
Y216369D01*
X286047Y161806D02*
X350961D01*
X286444Y162763D02*
X350961D01*
X285475Y160423D02*
X286776Y163565D01*
X350961Y163763D02*
Y161103D01*
X286444Y142878D02*
X350047D01*
X286118Y143665D02*
X349529D01*
X286776Y142077D02*
X285546Y145048D01*
X349144Y144251D02*
X350976Y141466D01*
X286138Y235670D02*
X349526D01*
X286444Y236409D02*
X350007D01*
X285565Y234287D02*
X286776Y237210D01*
X350976Y237898D02*
X349144Y235082D01*
X286776Y215719D02*
X286514Y216351D01*
X350961Y216369D02*
X350809Y216209D01*
G54D37*
X286776Y127362D02*
X348437D01*
X286776Y128109D02*
X348437D01*
G54D31*
X286776Y129109D02*
Y130827D01*
X348599Y130021D02*
X348437Y129207D01*
G54D37*
X286776Y139413D02*
X350961D01*
X286776Y140789D02*
X350961D01*
G54D31*
X286776Y141789D02*
Y142077D01*
G54D37*
Y164763D02*
X350961D01*
X286776Y166350D02*
X350961D01*
G54D31*
X286776Y168350D02*
X350129D01*
X286776Y168520D02*
X350021D01*
X286776Y167350D02*
Y168520D01*
X350021D02*
X350961Y167057D01*
X286776Y168520D02*
X350021D01*
X286776Y210815D02*
X345674D01*
X286776Y212050D02*
X346850D01*
X286776Y213285D02*
X348025D01*
X286776Y214520D02*
X349201D01*
X286776Y210815D02*
Y215719D01*
X350809Y216209D02*
X345674Y210815D01*
X286776D01*
Y237210D02*
Y237578D01*
G54D37*
Y238578D02*
X350961D01*
X286776Y239870D02*
X350961D01*
X286776Y250465D02*
X458386D01*
X286776Y251922D02*
X458386D01*
G54D41*
X304075Y515819D02*
X339599D01*
X304075Y526478D02*
X328940D01*
X304075Y537137D02*
X318282D01*
G54D31*
X297075Y508819D02*
Y545137D01*
X320819Y544499D02*
X358204Y507112D01*
G54D41*
X304075Y515819D02*
Y537137D01*
X315385Y540034D02*
X353254Y502162D01*
G54D31*
X306624Y508819D02*
X297075D01*
Y545137D02*
Y545634D01*
X319762Y546077D02*
X320819Y544499D01*
X297075Y545634D02*
X301999D01*
X304377Y546621D01*
X319041Y547154D02*
X319762Y546077D01*
X306327Y587595D02*
X301998Y589386D01*
X313465Y587679D02*
X315022Y586122D01*
X304377Y546621D02*
X306327Y547429D01*
X318873Y548001D02*
X319041Y547154D01*
X307058Y549194D02*
X318638D01*
X307138Y549387D02*
X318600D01*
X306327Y547429D02*
X307394Y550004D01*
X318421Y550289D02*
X318873Y548001D01*
X307759Y584138D02*
X317006D01*
X307058Y585829D02*
X315315D01*
X308015Y583521D02*
X306327Y587595D01*
X315022Y586122D02*
X318421Y582724D01*
X306626Y472941D02*
X307425Y473276D01*
X313689D02*
X313731Y473234D01*
X307425Y473276D02*
X313689D01*
X306625Y398138D02*
X310941Y399929D01*
X328264Y400694D02*
Y399138D01*
X309484Y432828D02*
X306624Y434012D01*
X368677Y432180D02*
X370500Y430962D01*
X310941Y507031D02*
X306624Y508819D01*
X358204Y507112D02*
X359757Y505559D01*
X307394Y550004D02*
X308122Y551761D01*
X318421Y551960D02*
Y550289D01*
X308122Y583262D02*
X308015Y583521D01*
G54D33*
X311122Y555960D02*
Y579063D01*
X315421Y555960D02*
Y579063D01*
G54D31*
X310941Y432224D02*
X309484Y432828D01*
X370500Y430962D02*
X372914Y430478D01*
X312484Y610889D02*
X309994Y611382D01*
X530290Y610937D02*
X529864Y610299D01*
X311672Y401694D02*
X328264D01*
X311719Y401807D02*
X328264D01*
X310941Y399929D02*
X311974Y402425D01*
X328264Y403807D02*
Y400694D01*
X312397Y503512D02*
X361804D01*
X312034Y504389D02*
X360927D01*
X311671Y505266D02*
X360050D01*
X312728Y502711D02*
X310941Y507031D01*
X359757Y505559D02*
X363511Y501805D01*
X311166Y431682D02*
X310941Y432224D01*
X372914Y430478D02*
X373808Y430299D01*
X312396Y428713D02*
X385744D01*
X311739Y430299D02*
X385744D01*
X312728Y427912D02*
X311166Y431682D01*
X385744Y430299D02*
Y427713D01*
X373808Y430299D02*
X385744D01*
X311974Y402425D02*
X312728Y404246D01*
X394548Y403713D02*
X396559Y402013D01*
X373984Y403807D02*
X354417D01*
X347827D02*
X328264D01*
X312728Y404246D02*
Y405104D01*
X393792Y404444D02*
X394549Y403712D01*
X312728Y406104D02*
X392518D01*
X312728Y407278D02*
X391617D01*
X312728Y408452D02*
X390717D01*
X312728Y409625D02*
X389816D01*
X312728Y405104D02*
Y410625D01*
X389436Y410121D02*
X393792Y404444D01*
X312728Y410625D02*
Y411398D01*
X389065Y411015D02*
X389436Y410121D01*
X328264Y410398D02*
X347827D01*
X354417D02*
X373984D01*
X312728Y411398D02*
Y412783D01*
X328264Y411783D02*
Y410398D01*
X312728Y421374D02*
X328870D01*
X312728Y422467D02*
X329323D01*
X312728Y419374D02*
Y423467D01*
X330055Y424232D02*
X328614Y420757D01*
X312728Y423467D02*
Y425024D01*
X334380Y426024D02*
X330055Y424232D01*
G54D37*
X312728Y426024D02*
X385744D01*
X312728Y426713D02*
X385744D01*
G54D31*
X317551Y491013D02*
X374302D01*
X316253Y491903D02*
X373412D01*
X314955Y492793D02*
X372522D01*
X317637Y490955D02*
X312728Y494320D01*
X372229Y493086D02*
X376009Y489306D01*
G54D34*
X313728Y495793D02*
X368108D01*
X313728Y498153D02*
X365749D01*
X313728Y500512D02*
X363389D01*
G54D31*
X312728Y494320D02*
Y502711D01*
X363511Y501805D02*
X372229Y493086D01*
G54D34*
X313728Y494847D02*
Y502910D01*
X362804Y501098D02*
X371522Y492379D01*
G54D31*
X313125Y610762D02*
X312484Y610889D01*
X529864Y610299D02*
X529807Y610015D01*
X315780Y608984D02*
X313125Y610762D01*
X529807Y610015D02*
X529486Y608403D01*
X323371Y601394D02*
X528091D01*
X321917Y602847D02*
X528380D01*
X320464Y604301D02*
X528670D01*
X319010Y605754D02*
X528959D01*
X317557Y607208D02*
X529248D01*
X323664Y601101D02*
X315780Y608984D01*
X529486Y608403D02*
X527892Y600394D01*
X320759Y490337D02*
X317637Y490955D01*
X376009Y489306D02*
X376627Y488688D01*
X319318Y69543D02*
X320266Y69937D01*
X638799Y70937D02*
Y70543D01*
X320266Y69937D02*
X493018D01*
X319318Y14425D02*
X323650Y16220D01*
X335146Y16430D02*
X336188Y14870D01*
X321284Y53425D02*
X319318Y54240D01*
X350930Y54221D02*
X347024Y53443D01*
X323649Y107563D02*
X319318Y109358D01*
X511911Y109065D02*
X510351Y107505D01*
X323579Y488453D02*
X320759Y490337D01*
X376627Y488688D02*
X378346Y486969D01*
X323649Y52445D02*
X321284Y53425D01*
X347024Y53443D02*
X345629Y52511D01*
X324381Y17986D02*
X334107D01*
X324807Y19013D02*
X333421D01*
X323650Y16220D02*
X325063Y19630D01*
X333014Y19622D02*
X335146Y16430D01*
X325113Y48918D02*
X340252D01*
X324747Y49799D02*
X341570D01*
X324382Y50680D02*
X342888D01*
X325445Y48117D02*
X323649Y52445D01*
X345629Y52511D02*
X340000Y48749D01*
X325113Y104036D02*
X506881D01*
X324747Y104917D02*
X507763D01*
X324382Y105798D02*
X508644D01*
X325445Y103235D02*
X323649Y107563D01*
X510351Y107505D02*
X506589Y103743D01*
X328918Y483110D02*
X382205D01*
X327730Y484299D02*
X381016D01*
X326542Y485488D02*
X379827D01*
X325355Y486676D02*
X378639D01*
X329211Y482817D02*
X323579Y488453D01*
X378346Y486969D02*
X383912Y481403D01*
X367868Y483110D02*
X334379D01*
G54D34*
X332776Y593402D02*
X528264D01*
X330281Y595898D02*
X527767D01*
X327785Y598394D02*
X527270D01*
G54D31*
X332725Y592040D02*
X323664Y601101D01*
X527892Y600394D02*
X529721Y591207D01*
G54D34*
X333501Y592677D02*
X324371Y601808D01*
X526872Y600394D02*
X528740Y591012D01*
G54D31*
X325063Y19630D02*
X325445Y20553D01*
X332827Y20555D02*
X333014Y19622D01*
X325445Y20553D02*
Y21177D01*
X332702D02*
X332827Y20555D01*
X325445Y21177D02*
X332702D01*
X325445Y37878D02*
X332702D01*
X325445Y38042D02*
X332735D01*
X325445Y37878D02*
Y39042D01*
X333014Y39433D02*
X332702Y37878D01*
X325445D01*
G54D34*
X326445Y41042D02*
X332886D01*
X326445Y43076D02*
X334245D01*
X326445Y45110D02*
X335605D01*
G54D31*
X325445Y39042D02*
Y47110D01*
X338626Y47831D02*
X333014Y39433D01*
G54D34*
X326445Y39042D02*
Y47110D01*
X337905Y48552D02*
X332072Y39824D01*
G54D31*
X325445Y47110D02*
Y48117D01*
X340000Y48749D02*
X338626Y47831D01*
G54D32*
X328445Y89642D02*
X488245D01*
X328445Y94339D02*
X492942D01*
X328445Y99036D02*
X497639D01*
G54D31*
X325445Y86642D02*
Y103235D01*
X506589Y103743D02*
X489488Y86642D01*
G54D32*
X328445Y89642D02*
Y103832D01*
X504467Y105864D02*
X488245Y89642D01*
G54D31*
X489488Y86642D02*
X325445D01*
X327300Y464877D02*
X328264Y464913D01*
X329312Y482717D02*
X329211Y482817D01*
X334379Y483110D02*
X333431Y482717D01*
X329312D01*
X333129Y591435D02*
X332725Y592040D01*
X529721Y591207D02*
X529864Y590489D01*
X334130Y589937D02*
X530232D01*
X334499Y589385D02*
X333129Y591435D01*
X529864Y590489D02*
X531233Y588439D01*
X334943Y587152D02*
X532094D01*
X334775Y587995D02*
X531530D01*
X335122Y586251D02*
X334499Y589385D01*
X531233Y588439D02*
X533133Y585597D01*
G54D34*
X348674Y541677D02*
X384814D01*
X345433Y544919D02*
X385229D01*
X342192Y548160D02*
X386031D01*
X338951Y551401D02*
X387258D01*
G54D31*
X348553Y540385D02*
X335122Y553816D01*
X389703Y553917D02*
X387528Y549437D01*
X386194Y544638D01*
X385744Y539677D01*
G54D34*
X349260Y541092D02*
X336122Y554230D01*
X388846Y554434D02*
X386592Y549790D01*
X385210Y544818D01*
X384744Y539677D01*
X336122Y555401D02*
X389456D01*
X336122Y558357D02*
X391690D01*
X336122Y561312D02*
X394644D01*
X336122Y564267D02*
X398749D01*
G54D31*
X335122Y553816D02*
Y566267D01*
X413334Y567267D02*
X406318Y566360D01*
X399763Y563699D01*
X394101Y559459D01*
X389703Y553918D01*
G54D34*
X336122Y554230D02*
Y566267D01*
X413334Y568267D02*
X406064Y567328D01*
X399272Y564570D01*
X393404Y560176D01*
X388846Y554434D01*
G54D39*
X336122Y568267D02*
X739189D01*
X336122Y568764D02*
X739189D01*
G54D31*
X335122Y570764D02*
Y572320D01*
X656315Y571555D02*
X660647Y569764D01*
X335122Y573320D02*
X655585D01*
X335122Y574520D02*
X655089D01*
X335122Y572320D02*
Y575520D01*
X654834Y575138D02*
X656315Y571555D01*
X553710Y574520D02*
X583377D01*
X335122Y576470D02*
X543916D01*
X335122Y575520D02*
Y577420D01*
X543875Y576478D02*
X553710Y574520D01*
X335122Y578420D02*
X540969D01*
X335122Y580116D02*
X538431D01*
X335122Y581811D02*
X535894D01*
X335122Y577420D02*
Y582811D01*
X535476Y582090D02*
X543875Y576478D01*
X335122Y583811D02*
X534326D01*
X335122Y585152D02*
X533430D01*
X335122Y582811D02*
Y586251D01*
X533133Y585597D02*
X535476Y582090D01*
G54D33*
X350827Y393181D02*
Y398807D01*
X351417Y393181D02*
Y398807D01*
X350827Y415398D02*
Y421024D01*
X351417Y415398D02*
Y421024D01*
G54D31*
X348565Y540373D02*
X348553Y540385D01*
X385744Y539677D02*
Y539665D01*
G54D34*
X364431Y525921D02*
X384744D01*
X361495Y528857D02*
X384744D01*
X358558Y531793D02*
X384744D01*
X355622Y534729D02*
X384744D01*
X352686Y537665D02*
X384744D01*
G54D31*
X364309Y524628D02*
X348565Y540373D01*
X385744Y539665D02*
Y523921D01*
G54D34*
X365016Y525335D02*
X349272Y541080D01*
X384744Y539665D02*
Y523921D01*
G54D31*
X357752Y112933D02*
X396758D01*
X364313Y524624D02*
X364309Y524628D01*
X385744Y523921D02*
Y523917D01*
G54D32*
X391853Y501327D02*
X392708D01*
X385656Y507524D02*
X387508D01*
X379460Y513720D02*
X384494D01*
X373263Y519917D02*
X383007D01*
G54D31*
X390903Y498034D02*
X364313Y524624D01*
X385744Y523917D02*
X386684Y516776D01*
X389440Y510122D01*
X393825Y504408D01*
X399539Y500023D01*
X406193Y497267D01*
X413334Y496327D01*
G54D32*
X393025Y500156D02*
X366435Y526745D01*
X382744Y523917D02*
X383511Y517110D01*
X385773Y510644D01*
X389418Y504844D01*
X394261Y500001D01*
X400061Y496356D01*
X406527Y494094D01*
X413334Y493327D01*
G54D31*
X370665Y424864D02*
X367869Y426024D01*
X385744Y425024D02*
Y423875D01*
X367868Y388181D02*
X372189Y389968D01*
X427006Y391441D02*
X425453Y389888D01*
X372189Y481323D02*
X367868Y483110D01*
X383912Y481403D02*
X385464Y479850D01*
X372189Y424232D02*
X370665Y424864D01*
X385744Y423875D02*
X385815Y423336D01*
X372921Y391734D02*
X427299D01*
X373287Y392615D02*
X428180D01*
X373652Y393496D02*
X429061D01*
X372189Y389968D02*
X373984Y394297D01*
X430768Y395203D02*
X427006Y391441D01*
X373645Y477812D02*
X387502D01*
X372921Y479557D02*
X385757D01*
X373901Y477195D02*
X372189Y481323D01*
X385464Y479850D02*
X389279Y476035D01*
X373652Y420713D02*
X386161D01*
X373287Y421590D02*
X386045D01*
X372922Y422467D02*
X385930D01*
X373984Y419912D02*
X372189Y424232D01*
X385815Y423336D02*
X386310Y419582D01*
X373984Y476995D02*
X373901Y477195D01*
X389279Y476035D02*
X389386Y475964D01*
X373984Y395496D02*
X431061D01*
X373984Y396325D02*
X431890D01*
X373984Y394297D02*
Y397325D01*
X433597Y398032D02*
X430768Y395203D01*
X373984Y398325D02*
X403024D01*
X373984Y400066D02*
X399466D01*
X373984Y401807D02*
X396832D01*
X373984Y397325D02*
Y403807D01*
X396559Y402013D02*
X401690Y398904D01*
X407372Y396977D01*
X413335Y396325D01*
X373984Y412398D02*
X388493D01*
X373984Y413611D02*
X387990D01*
X373984Y414825D02*
X387488D01*
X373984Y416038D02*
X386986D01*
X373984Y410398D02*
Y417038D01*
X386680Y416777D02*
X389065Y411015D01*
X373984Y418038D02*
X386513D01*
X373984Y418713D02*
X386424D01*
X373984Y417038D02*
Y419912D01*
X386310Y419582D02*
X386680Y416777D01*
X373984Y451820D02*
Y452961D01*
X389436Y453466D02*
X388737Y451776D01*
X377934Y448020D02*
X387182D01*
X376700Y449207D02*
X387674D01*
X375466Y450394D02*
X388165D01*
X377934Y448020D02*
X373984Y451820D01*
X388737Y451776D02*
X387182Y448020D01*
X377934D01*
X373984Y453961D02*
X389816D01*
X373984Y455130D02*
X390713D01*
X373984Y456298D02*
X391609D01*
X373984Y457467D02*
X392506D01*
X373984Y452961D02*
Y458467D01*
X393820Y459180D02*
X389436Y453466D01*
X373984Y459467D02*
X394194D01*
X373984Y460579D02*
X395643D01*
X373984Y461691D02*
X397093D01*
X373984Y458467D02*
Y462691D01*
X399534Y463564D02*
X393820Y459180D01*
X373984Y463691D02*
X399840D01*
X373984Y464354D02*
X401441D01*
X373984Y462691D02*
Y465354D01*
X406147Y466303D02*
X399534Y463564D01*
X373984Y465354D02*
Y466258D01*
X413342Y467258D02*
X406147Y466303D01*
G54D34*
X374984Y468258D02*
X435073D01*
X374984Y470448D02*
X432882D01*
X374984Y472638D02*
X430692D01*
G54D31*
X373984Y466258D02*
Y474638D01*
X431106Y473638D02*
X439195Y465550D01*
G54D34*
X374984Y466258D02*
Y474638D01*
X430692Y472638D02*
X438488Y464843D01*
G54D31*
X395064Y473638D02*
X431106D01*
X373984Y474638D02*
Y475203D01*
X391934Y474261D02*
X395064Y473638D01*
X373984Y475203D02*
Y476995D01*
X389386Y475964D02*
X391934Y474261D01*
X396325Y53451D02*
X543916D01*
X396366Y53443D02*
X386526Y55402D01*
X553710D02*
X543875Y53443D01*
X392697Y496240D02*
X474413D01*
X392611Y496327D02*
X474326D01*
X392990Y495947D02*
X390903Y498034D01*
X474033Y496620D02*
X475827Y494826D01*
X398595Y490343D02*
X475827D01*
X397296Y491642D02*
X475827D01*
X395997Y492941D02*
X475827D01*
X394697Y494240D02*
X475827D01*
X398595Y490343D02*
X392990Y495947D01*
X475827Y494826D02*
Y489343D01*
X434636Y490343D02*
X398595D01*
X404346Y48110D02*
X535894D01*
X401809Y49806D02*
X538431D01*
X399271Y51501D02*
X540969D01*
X404764Y47831D02*
X396366Y53443D01*
X543875D02*
X535642Y47941D01*
X399708Y368073D02*
X396207Y368768D01*
X404037Y368475D02*
X403401Y367838D01*
X401922Y114933D02*
X517779D01*
X402990Y116015D02*
X518861D01*
X403748Y117096D02*
X519942D01*
X396758Y112933D02*
X399555Y113519D01*
X401999Y115000D01*
X403813Y117208D01*
X521649Y118804D02*
X517486Y114640D01*
X402061Y366498D02*
X399708Y368073D01*
X403401Y367838D02*
X402061Y366498D01*
X402933Y161807D02*
X452011D01*
X402933Y163322D02*
X453526D01*
X402933Y164837D02*
X455041D01*
X402933Y166351D02*
X456555D01*
X402933Y161101D02*
Y167055D01*
X458263Y168058D02*
X451718Y161514D01*
X403956Y159511D02*
X449715D01*
X403765Y159807D02*
X450011D01*
X404021Y159408D02*
X402933Y161101D01*
X451718Y161514D02*
X449422Y159218D01*
X403776Y168351D02*
X458555D01*
X404364Y169255D02*
X459459D01*
X402933Y167055D02*
X404746Y169843D01*
X461166Y170962D02*
X458263Y168058D01*
X402933Y187397D02*
X477601D01*
X402933Y188912D02*
X479116D01*
X402933Y190427D02*
X480631D01*
X402933Y191942D02*
X482146D01*
X402933Y186693D02*
Y192645D01*
X483853Y193649D02*
X477308Y187104D01*
X404364Y184493D02*
X474697D01*
X403776Y185397D02*
X475601D01*
X404746Y183905D02*
X402933Y186693D01*
X477308Y187104D02*
X474404Y184200D01*
X403776Y193942D02*
X484146D01*
X404364Y194846D02*
X485050D01*
X402933Y192645D02*
X404746Y195434D01*
X486757Y196553D02*
X483853Y193649D01*
X404364Y210083D02*
X455527D01*
X403776Y210987D02*
X454176D01*
X404746Y209495D02*
X402933Y212284D01*
X453923Y211156D02*
X458264Y208252D01*
X402933Y212284D02*
Y213311D01*
X451779Y212591D02*
X453923Y211156D01*
X402933Y213311D02*
Y213495D01*
X451276Y213343D02*
X451779Y212591D01*
X404285Y214899D02*
X450237D01*
X405664Y216330D02*
X449280D01*
X407043Y217762D02*
X448324D01*
X408422Y219193D02*
X447367D01*
X402933Y213495D02*
X408422Y219193D01*
X447367D02*
X451276Y213343D01*
X408422Y219193D02*
X447367D01*
X403534Y236917D02*
X402933Y237869D01*
X448181Y238135D02*
X447367Y236917D01*
X403534D01*
X402933Y238580D02*
X448478D01*
X402933Y240189D02*
X449554D01*
X402933Y241799D02*
X450629D01*
X402933Y237869D02*
Y242799D01*
X451779Y243520D02*
X448181Y238135D01*
X402933Y242799D02*
Y243826D01*
X453925Y244954D02*
X451779Y243520D01*
X403776Y245123D02*
X454178D01*
X404358Y246019D02*
X455518D01*
X402933Y243826D02*
X404759Y246635D01*
X458258Y247850D02*
X453925Y244954D01*
X404358Y261273D02*
X458386D01*
X403777Y262164D02*
X458386D01*
X404759Y260656D02*
X402933Y263461D01*
X458386Y263164D02*
Y260273D01*
G54D39*
X403933Y265164D02*
X457386D01*
X403933Y267710D02*
X457386D01*
G54D31*
X403775Y270710D02*
X458386D01*
X404364Y271617D02*
X458386D01*
X402933Y269413D02*
X404746Y272206D01*
X458386Y272617D02*
Y269710D01*
X404364Y286855D02*
X458386D01*
X403776Y287759D02*
X458386D01*
X404746Y286267D02*
X402933Y289056D01*
X458386Y288759D02*
Y285855D01*
G54D39*
X403933Y290759D02*
X457386D01*
X403933Y293304D02*
X457386D01*
G54D31*
X403776Y296304D02*
X458386D01*
X404364Y297208D02*
X458386D01*
X402933Y295007D02*
X404746Y297796D01*
X458386Y298208D02*
Y295304D01*
G54D39*
X403933Y316350D02*
X457386D01*
X403933Y318895D02*
X457386D01*
G54D31*
X404364Y312446D02*
X458386D01*
X403776Y313350D02*
X458386D01*
X404746Y311857D02*
X402933Y314646D01*
X458386Y314350D02*
Y311446D01*
X403776Y321895D02*
X458386D01*
X404364Y322798D02*
X458386D01*
X402933Y320598D02*
X404746Y323387D01*
X458386Y323798D02*
Y320895D01*
G54D39*
X403933Y341940D02*
X457386D01*
X403933Y342703D02*
X457386D01*
G54D31*
X404364Y338036D02*
X458386D01*
X403776Y338940D02*
X458386D01*
X404746Y337448D02*
X402933Y340237D01*
X458386Y339940D02*
Y337036D01*
X403160Y345703D02*
X458386D01*
X403301Y346392D02*
X458386D01*
X402933Y344601D02*
X403426Y346998D01*
X458386Y347392D02*
Y344703D01*
X403426Y346998D02*
X403928Y347748D01*
X458386Y348647D02*
Y347392D01*
X403813Y117208D02*
X405854Y117616D01*
X522111Y119265D02*
X521649Y118804D01*
X403928Y347748D02*
X406582Y348281D01*
X458386Y349223D02*
Y348647D01*
X406019Y159010D02*
X404021Y159408D01*
X449422Y159218D02*
X448980Y158775D01*
X404759Y246635D02*
X404873Y247207D01*
X458386Y247936D02*
X458258Y247850D01*
X405099Y258941D02*
X458386D01*
X405034Y259273D02*
X458386D01*
X405496Y256941D02*
X404759Y260656D01*
X458386Y260273D02*
Y257941D01*
X405087Y171255D02*
X461459D01*
X405369Y172795D02*
X462999D01*
X405560Y174334D02*
X464538D01*
X405661Y175874D02*
X466078D01*
X404746Y169844D02*
X405680Y176874D01*
X467785Y177581D02*
X461166Y170962D01*
X405661Y177874D02*
X468078D01*
X405560Y179414D02*
X469618D01*
X405369Y180953D02*
X471157D01*
X405087Y182493D02*
X472697D01*
X405680Y176874D02*
X404746Y183904D01*
X474404Y184200D02*
X467785Y177581D01*
X405087Y196846D02*
X487050D01*
X405369Y198385D02*
X488589D01*
X405560Y199925D02*
X490129D01*
X405661Y201465D02*
X491669D01*
X404746Y195434D02*
X405680Y202465D01*
X493376Y203172D02*
X486757Y196553D01*
X404868Y209030D02*
X404746Y209495D01*
X458264Y208252D02*
X458875Y207844D01*
X405087Y273617D02*
X458386D01*
X405369Y275157D02*
X458386D01*
X405560Y276697D02*
X458386D01*
X405661Y278236D02*
X458386D01*
X404746Y272206D02*
X405680Y279236D01*
X458386D02*
Y272617D01*
X405661Y280236D02*
X458386D01*
X405560Y281776D02*
X458386D01*
X405369Y283315D02*
X458386D01*
X405087Y284855D02*
X458386D01*
X405680Y279236D02*
X404746Y286267D01*
X458386Y285855D02*
Y279236D01*
X405087Y299208D02*
X458386D01*
X405369Y300748D02*
X458386D01*
X405560Y302287D02*
X458386D01*
X405661Y303827D02*
X458386D01*
X404746Y297796D02*
X405680Y304827D01*
X458386Y304827D02*
Y298208D01*
X405661Y305827D02*
X458386D01*
X405560Y307366D02*
X458386D01*
X405369Y308906D02*
X458386D01*
X405087Y310446D02*
X458386D01*
X405680Y304826D02*
X404746Y311857D01*
X458386Y311446D02*
Y304827D01*
X405087Y324798D02*
X458386D01*
X405369Y326338D02*
X458386D01*
X405560Y327878D02*
X458386D01*
X405661Y329417D02*
X458386D01*
X404746Y323387D02*
X405680Y330418D01*
X458386Y330417D02*
Y323798D01*
X405661Y331417D02*
X458386D01*
X405560Y332957D02*
X458386D01*
X405369Y334497D02*
X458386D01*
X405087Y336036D02*
X458386D01*
X405680Y330417D02*
X404746Y337448D01*
X458386Y337036D02*
Y330417D01*
X405104Y248376D02*
X458386D01*
X404873Y247207D02*
X405496Y250350D01*
X458386Y249350D02*
Y247936D01*
X405227Y207381D02*
X404868Y209030D01*
X458875Y207844D02*
X467244Y206179D01*
G54D34*
X410500Y41042D02*
X529737D01*
X409142Y43076D02*
X531096D01*
X407783Y45110D02*
X532455D01*
G54D31*
X410372Y39432D02*
X404875Y47665D01*
X535476Y47831D02*
X529864Y39432D01*
G54D34*
X411314Y39822D02*
X405706Y48221D01*
X534755Y48552D02*
X528922Y39823D01*
G54D31*
X405524Y205362D02*
X494980D01*
X405420Y206199D02*
X494980D01*
X405608Y204435D02*
X405227Y207381D01*
X494980Y207199D02*
Y204776D01*
X405663Y203413D02*
X493617D01*
X405680Y202464D02*
X405608Y204435D01*
X494980Y204776D02*
X493376Y203172D01*
X408662Y7843D02*
X531574D01*
X408003Y9452D02*
X532233D01*
X407344Y11062D02*
X532892D01*
X406685Y12671D02*
X533551D01*
X408662Y7843D02*
X406322Y13558D01*
X533914D02*
X531574Y7843D01*
X408662D01*
X407065Y14671D02*
X533171D01*
X408032Y16119D02*
X532204D01*
X408999Y17566D02*
X531238D01*
X409965Y19013D02*
X530271D01*
X406322Y13558D02*
X410373Y19623D01*
X529864D02*
X533914Y13558D01*
X405854Y117616D02*
X408508Y119390D01*
X523719Y120874D02*
X522111Y119265D01*
X408673Y157237D02*
X406019Y159010D01*
X448980Y158775D02*
X447371Y157167D01*
X406582Y348281D02*
X408716Y349704D01*
X458386Y350001D02*
Y349223D01*
X410285Y121166D02*
X524012D01*
X411572Y122453D02*
X525299D01*
X412859Y123741D02*
X526586D01*
X414146Y125028D02*
X527873D01*
X408508Y119390D02*
X414146Y125028D01*
X529581Y126735D02*
X523719Y120874D01*
X414146Y125028D02*
X449609D01*
X414181Y151732D02*
X441936D01*
X412938Y152975D02*
X443179D01*
X411695Y154217D02*
X444421D01*
X410451Y155460D02*
X445664D01*
X414181Y151732D02*
X408673Y157237D01*
X447371Y157167D02*
X441936Y151732D01*
X414181D01*
X408716Y349704D02*
X409237Y350051D01*
X411013Y351828D02*
X455650D01*
X412167Y352981D02*
X453924D01*
X413320Y354134D02*
X452197D01*
X409237Y350051D02*
X413613Y354427D01*
X451779Y354413D02*
X458393Y349996D01*
G54D34*
X412966Y31528D02*
X527270D01*
X412417Y34285D02*
X527819D01*
X411868Y37042D02*
X528368D01*
G54D31*
X412344Y29528D02*
X410372Y39432D01*
X529864Y39432D02*
X527892Y29528D01*
G54D34*
X413364D02*
X411314Y39822D01*
X528922Y39823D02*
X526872Y29528D01*
X411868Y22013D02*
X528368D01*
X412417Y24770D02*
X527819D01*
X412966Y27528D02*
X527270D01*
G54D31*
X410373Y19623D02*
X412344Y29528D01*
X527892D02*
X529864Y19623D01*
G54D34*
X411314Y19233D02*
X413364Y29528D01*
X526872D02*
X528922Y19233D01*
G54D31*
X415319Y356134D02*
X450629D01*
X416907Y357722D02*
X449567D01*
X418496Y359311D02*
X448506D01*
X420084Y360899D02*
X447444D01*
X413613Y354427D02*
X420376Y361192D01*
X447037Y361508D02*
X451779Y354413D01*
G54D32*
X433960Y501327D02*
X465083D01*
X439160Y507524D02*
X458887D01*
X442174Y513720D02*
X452690D01*
X443661Y519917D02*
X446493D01*
G54D31*
X413334Y496327D02*
X420400Y497247D01*
X426996Y499947D01*
X432679Y504246D01*
X437072Y509857D01*
X439882Y516406D01*
X440920Y523456D01*
X447443Y523210D02*
X474033Y496620D01*
G54D32*
X413334Y493327D02*
X420603Y494203D01*
X427457Y496782D01*
X433500Y500916D01*
X438389Y506367D01*
X441842Y512824D01*
X443661Y519917D01*
X446493Y519917D02*
X471912Y494499D01*
G54D34*
X437173Y555461D02*
X739189D01*
X434944Y558396D02*
X739189D01*
X432001Y561332D02*
X739189D01*
X427919Y564267D02*
X739189D01*
G54D31*
X436928Y553979D02*
X432528Y559496D01*
X426873Y563717D01*
X420333Y566365D01*
X413334Y567267D01*
X740189Y566267D02*
Y553461D01*
G54D34*
X437783Y554497D02*
X433224Y560214D01*
X427364Y564588D01*
X420586Y567332D01*
X413334Y568267D01*
X739189Y566267D02*
Y553461D01*
G54D31*
X692148Y554461D02*
X660647D01*
G54D34*
X427918Y399325D02*
X433476D01*
X432389Y402602D02*
X436754D01*
X435515Y405880D02*
X440031D01*
X437817Y409157D02*
X443309D01*
G54D31*
X413335Y396325D02*
X420630Y397307D01*
X427404Y400183D01*
X433177Y404748D01*
X437538Y410678D01*
X447138Y411572D02*
X433597Y398032D01*
G54D34*
X413335Y395325D02*
X419408Y395978D01*
X425204Y397906D01*
X430458Y401021D01*
X434929Y405182D01*
X438415Y410198D01*
X446138Y411986D02*
X432890Y398739D01*
X433412Y460024D02*
X443309D01*
X431011Y462141D02*
X441191D01*
X427924Y464257D02*
X439074D01*
G54D31*
X433298Y458714D02*
X429067Y462335D01*
X424196Y465032D01*
X418882Y466695D01*
X413342Y467257D01*
X439195Y465550D02*
X447138Y457610D01*
G54D34*
X434022Y459404D02*
X429638Y463156D01*
X424589Y465951D01*
X419082Y467675D01*
X413342Y468257D01*
X438488Y464843D02*
X446138Y457195D01*
G54D31*
X422083Y362899D02*
X446760D01*
X423579Y364394D02*
X446463D01*
X425075Y365890D02*
X446166D01*
X426570Y367386D02*
X445868D01*
X428066Y368882D02*
X445571D01*
X420376Y361192D02*
X428359Y369175D01*
X445372Y369882D02*
X447037Y361508D01*
X430066Y370882D02*
X445571D01*
X431561Y372377D02*
X445868D01*
X433055Y373872D02*
X446166D01*
X434550Y375366D02*
X446463D01*
X436045Y376861D02*
X446760D01*
X428359Y369175D02*
X436338Y377154D01*
X447037Y378251D02*
X445372Y369882D01*
G54D32*
X443659Y443678D02*
X444138D01*
X442513Y448851D02*
X444138D01*
X440347Y454024D02*
X444138D01*
G54D31*
X440921Y439678D02*
X440037Y446606D01*
X437440Y453090D01*
X433298Y458714D01*
X447138Y457610D02*
Y439678D01*
G54D32*
X443921Y439678D02*
X442941Y447360D01*
X440062Y454549D01*
X435469Y460785D01*
X444138Y456367D02*
Y439678D01*
G54D31*
X437767Y489723D02*
X434636Y490343D01*
X475827Y489343D02*
Y488781D01*
X438045Y378861D02*
X447444D01*
X439633Y380449D02*
X448506D01*
X441221Y382038D02*
X449568D01*
X442809Y383626D02*
X450629D01*
X436338Y377154D02*
X443102Y383919D01*
X451779Y385347D02*
X447037Y378251D01*
X437836Y552359D02*
X436928Y553979D01*
X660647Y554461D02*
X656315Y552665D01*
X438289Y412157D02*
X447138D01*
X438856Y413444D02*
X447138D01*
X439346Y414731D02*
X447138D01*
X439765Y416018D02*
X447138D01*
X437537Y410677D02*
X439992Y416823D01*
X447138Y417018D02*
Y411572D01*
X439252Y549134D02*
X654855D01*
X438913Y550017D02*
X655220D01*
X438538Y550900D02*
X655585D01*
X439491Y548452D02*
X437836Y552359D01*
X656315Y552665D02*
X654524Y548333D01*
X440422Y487945D02*
X437767Y489723D01*
X475827Y488781D02*
Y487168D01*
G54D34*
X441854Y541677D02*
X653524D01*
X441610Y543906D02*
X653524D01*
X441185Y546134D02*
X653524D01*
G54D31*
X440920Y540130D02*
X440526Y544346D01*
X439491Y548452D01*
X654524Y548333D02*
Y539677D01*
G54D34*
X441854Y541677D02*
X440439Y548770D01*
X653524Y548532D02*
Y539677D01*
G54D31*
X440150Y418018D02*
X447138D01*
X440366Y419659D02*
X447138D01*
X440582Y421300D02*
X447138D01*
X440798Y422940D02*
X447138D01*
X439992Y416823D02*
X440921Y423875D01*
X447138Y423940D02*
Y417018D01*
G54D32*
X462321Y470288D02*
X472827D01*
X455881Y476728D02*
X472827D01*
X449441Y483168D02*
X472827D01*
G54D31*
X461441Y466926D02*
X440422Y487945D01*
X475827Y487168D02*
Y466288D01*
G54D32*
X463771Y468838D02*
X442336Y490274D01*
X472827Y487168D02*
Y466288D01*
G54D31*
X654524Y539677D02*
Y539146D01*
X450743Y540146D02*
X440920D01*
X447212Y523441D02*
X447443Y523210D01*
X440920Y523441D02*
X447212D01*
G54D33*
X443921Y427940D02*
Y435665D01*
X444138Y427940D02*
Y435665D01*
G54D31*
X440921Y439665D02*
Y439678D01*
X447138D02*
Y439665D01*
X444809Y385626D02*
X452197D01*
X446069Y386886D02*
X454083D01*
X447330Y388147D02*
X455969D01*
X443102Y383919D02*
X447623Y388440D01*
X458875Y390089D02*
X451779Y385347D01*
X447623Y388440D02*
X449210Y390027D01*
X467244Y391754D02*
X458875Y390089D01*
G54D34*
X453331Y392734D02*
X490063D01*
X456052Y395455D02*
X487343D01*
X458772Y398176D02*
X484622D01*
X461493Y400897D02*
X481901D01*
G54D31*
X449210Y390027D02*
X461441Y402259D01*
X482022Y402190D02*
X494185Y390027D01*
G54D34*
X449917Y389320D02*
X462217Y401621D01*
X481315Y401483D02*
X493478Y389320D01*
G54D31*
X449609Y125028D02*
X452740Y125651D01*
X530146Y127300D02*
X529581Y126735D01*
X453874Y539522D02*
X450743Y540146D01*
X654524Y539146D02*
Y538580D01*
X452740Y125651D02*
X455394Y127425D01*
X531755Y128909D02*
X530146Y127300D01*
X456528Y537748D02*
X453874Y539522D01*
X654524Y538580D02*
Y536971D01*
G54D32*
X464414Y132202D02*
X530805D01*
X471167Y138954D02*
X537558D01*
X477920Y145707D02*
X544310D01*
X484673Y152460D02*
X551063D01*
G54D31*
X455394Y127425D02*
X483723Y155752D01*
X560082Y157236D02*
X531755Y128909D01*
G54D32*
X457307Y125095D02*
X485845Y153631D01*
X558170Y159566D02*
X529633Y131030D01*
X473551Y524968D02*
X651524D01*
X469549Y528970D02*
X651524D01*
X465548Y532971D02*
X651524D01*
G54D31*
X472601Y521675D02*
X456528Y537748D01*
X654524Y536971D02*
Y520769D01*
G54D32*
X474723Y523796D02*
X458441Y540078D01*
X651524Y536971D02*
Y520174D01*
G54D31*
X462537Y403897D02*
X480315D01*
X462807Y404300D02*
X479912D01*
X461441Y402259D02*
X463215Y404910D01*
X479619Y404593D02*
X482022Y402190D01*
X462808Y464881D02*
X475827D01*
X462535Y465288D02*
X475827D01*
X463215Y464271D02*
X461441Y466926D01*
X475827Y466288D02*
Y463881D01*
X463215Y404910D02*
X463517Y406430D01*
X478224Y405988D02*
X479619Y404593D01*
X463659Y462042D02*
X475827D01*
X463492Y462881D02*
X475827D01*
X463839Y461140D02*
X463215Y464271D01*
X475827Y463881D02*
Y461042D01*
X463517Y406430D02*
X463839Y408044D01*
X477155Y407587D02*
X478224Y405988D01*
X463839Y408044D02*
Y409033D01*
X476450Y408642D02*
X477155Y407587D01*
X463839Y410033D02*
X476173D01*
X463839Y410872D02*
X476006D01*
X463839Y409033D02*
Y411872D01*
X475827Y411773D02*
X476450Y408642D01*
G54D33*
X466839Y415872D02*
Y457042D01*
X472827Y415872D02*
Y457042D01*
G54D31*
X467244Y206179D02*
X475618Y207844D01*
X494980Y208786D02*
Y207199D01*
X472914Y390627D02*
X467244Y391754D01*
X494185Y390027D02*
X494980Y389232D01*
X476074Y518202D02*
X655585D01*
X475191Y519085D02*
X655220D01*
X474308Y519968D02*
X654855D01*
X476367Y517909D02*
X472601Y521675D01*
X654524Y520769D02*
X656315Y516437D01*
X475618Y390089D02*
X472914Y390627D01*
X494980Y389232D02*
Y389147D01*
X482295Y243799D02*
X494980D01*
X480350Y245100D02*
X494980D01*
X478404Y246401D02*
X494980D01*
X482713Y243520D02*
X476110Y247936D01*
X494980Y247401D02*
Y242799D01*
G54D38*
X483110Y255401D02*
Y342536D01*
X487980Y255401D02*
Y342536D01*
G54D31*
X478407Y351536D02*
X494980D01*
X480351Y352835D02*
X494980D01*
X482295Y354134D02*
X494980D01*
X476110Y350001D02*
X482713Y354413D01*
X494980Y355134D02*
Y350536D01*
X478520Y209786D02*
X494980D01*
X480408Y211049D02*
X494980D01*
X482295Y212311D02*
X494980D01*
X475618Y207844D02*
X482713Y212591D01*
X494980Y213311D02*
Y208786D01*
X482295Y385626D02*
X494980D01*
X480409Y386887D02*
X494980D01*
X478523Y388147D02*
X494980D01*
X482713Y385347D02*
X475618Y390089D01*
X494980Y389147D02*
Y384626D01*
X477927Y516349D02*
X476367Y517909D01*
X656315Y516437D02*
X660647Y514642D01*
X484796Y509480D02*
X668047D01*
X483075Y511201D02*
X668047D01*
X481355Y512921D02*
X668047D01*
X479634Y514642D02*
X668047D01*
X485089Y509187D02*
X477927Y516349D01*
X668047Y514642D02*
Y509480D01*
X660647Y514642D02*
X668047D01*
Y509480D02*
X659651D01*
X483862Y356134D02*
X494980D01*
X484923Y357722D02*
X494980D01*
X485983Y359311D02*
X494980D01*
X487044Y360899D02*
X494980D01*
X482713Y354413D02*
X487451Y361508D01*
X494980Y361899D02*
Y355134D01*
X487044Y378861D02*
X494980D01*
X485983Y380449D02*
X494980D01*
X484923Y382038D02*
X494980D01*
X483862Y383626D02*
X494980D01*
X487451Y378251D02*
X482713Y385347D01*
X494980Y384626D02*
Y377861D01*
X483862Y214311D02*
X494980D01*
X484923Y215900D02*
X494980D01*
X485983Y217488D02*
X494980D01*
X487044Y219076D02*
X494980D01*
X482713Y212591D02*
X487451Y219686D01*
X494980Y220076D02*
Y213311D01*
X487044Y237034D02*
X494980D01*
X485983Y238623D02*
X494980D01*
X484923Y240211D02*
X494980D01*
X483862Y241799D02*
X494980D01*
X487451Y236425D02*
X482713Y243520D01*
X494980Y242799D02*
Y236034D01*
X483723Y155752D02*
X485332Y157361D01*
X562737Y159010D02*
X560082Y157236D01*
X486645Y507631D02*
X485089Y509187D01*
X659651Y509480D02*
X655331Y507689D01*
X485332Y157361D02*
X485898Y157927D01*
X565871Y159634D02*
X562737Y159010D01*
X487605Y159634D02*
X574020D01*
X488991Y161020D02*
X575338D01*
X490377Y162406D02*
X576655D01*
X491763Y163792D02*
X577973D01*
X485898Y157927D02*
X492056Y164084D01*
X579303Y165191D02*
X574020Y159634D01*
X565871D01*
X489771Y504505D02*
X654009D01*
X488353Y505924D02*
X654598D01*
X490134Y504142D02*
X486645Y507631D01*
X655331Y507689D02*
X653753Y503888D01*
X487728Y221076D02*
X494980D01*
X488026Y222571D02*
X494980D01*
X488325Y224066D02*
X494980D01*
X488623Y225560D02*
X494980D01*
X488921Y227055D02*
X494980D01*
X487451Y219686D02*
X489120Y228055D01*
X494980D02*
Y220076D01*
X488921Y229055D02*
X494980D01*
X488623Y230550D02*
X494980D01*
X488325Y232045D02*
X494980D01*
X488026Y233540D02*
X494980D01*
X487728Y235034D02*
X494980D01*
X489120Y228055D02*
X487451Y236425D01*
X494980Y236034D02*
Y228055D01*
X488921Y370882D02*
X494980D01*
X488623Y372377D02*
X494980D01*
X488325Y373871D02*
X494980D01*
X488026Y375366D02*
X494980D01*
X487728Y376861D02*
X494980D01*
X489120Y369882D02*
X487451Y378251D01*
X494980Y377861D02*
Y369882D01*
X487728Y362899D02*
X494980D01*
X488026Y364394D02*
X494980D01*
X488325Y365890D02*
X494980D01*
X488623Y367386D02*
X494980D01*
X488921Y368882D02*
X494980D01*
X487451Y361508D02*
X489120Y369882D01*
X494980Y369882D02*
Y361899D01*
X490415Y503721D02*
X490134Y504142D01*
X653753Y503888D02*
X653535Y503365D01*
X491500Y502097D02*
X653535D01*
X491455Y502165D02*
X653535D01*
X491908Y501488D02*
X490415Y503721D01*
X653535Y503365D02*
Y501097D01*
X492352Y499255D02*
X653535D01*
X492185Y500097D02*
X653535D01*
X492531Y498353D02*
X491908Y501488D01*
X653535Y501097D02*
Y498255D01*
X493763Y165792D02*
X579303D01*
X494323Y166351D02*
X579303D01*
X492056Y164084D02*
X494616Y166644D01*
X579303Y167055D02*
Y165191D01*
X495980Y463691D02*
X499840D01*
X495821Y463769D02*
X500029D01*
X496189Y463588D02*
X492531Y465391D01*
X504675Y465693D02*
X499534Y463564D01*
X506190Y466320D02*
X504675Y465693D01*
X492531Y465374D02*
Y466256D01*
X513284Y467256D02*
X506190Y466320D01*
G54D32*
X495531Y470256D02*
X558762D01*
X495531Y475580D02*
X564086D01*
X495531Y480903D02*
X569411D01*
X495531Y486227D02*
X574735D01*
G54D31*
X492531Y466256D02*
Y490227D01*
X583755Y491004D02*
X559712Y466963D01*
G54D32*
X495531Y470256D02*
Y490227D01*
X581842Y493334D02*
X557590Y469085D01*
G54D31*
X492531Y490227D02*
Y491840D01*
X586414Y492782D02*
X583755Y491004D01*
X492531Y491840D02*
Y492402D01*
X589541Y493402D02*
X586414Y492782D01*
G54D39*
X493531Y494402D02*
X652535D01*
X493531Y496255D02*
X652535D01*
G54D31*
X493018Y69937D02*
X496149Y70561D01*
X638799Y71502D02*
Y70937D01*
X496323Y168351D02*
X578462D01*
X497227Y169255D02*
X577876D01*
X494616Y166644D02*
X497520Y169548D01*
X577494Y169843D02*
X579303Y167055D01*
X498245Y462574D02*
X496189Y463588D01*
X499534Y463564D02*
X498245Y462574D01*
X496149Y70561D02*
X498804Y72335D01*
X638799Y73111D02*
Y71502D01*
X499227Y171255D02*
X577151D01*
X500767Y172795D02*
X576867D01*
X502306Y174334D02*
X576676D01*
X503846Y175874D02*
X576574D01*
X497520Y169548D02*
X504139Y176167D01*
X576555Y176874D02*
X577494Y169844D01*
G54D32*
X507823Y77111D02*
X635799D01*
X513125Y82414D02*
X635799D01*
X518428Y87717D02*
X635799D01*
G54D31*
X498804Y72335D02*
X517478Y91010D01*
X638799Y91916D02*
Y73111D01*
G54D32*
X500716Y70004D02*
X519599Y88889D01*
X635799Y92513D02*
Y73111D01*
G54D31*
X505846Y177874D02*
X576574D01*
X507386Y179414D02*
X576676D01*
X508925Y180953D02*
X576867D01*
X510465Y182493D02*
X577151D01*
X504139Y176167D02*
X510758Y182786D01*
X577494Y183904D02*
X576555Y176874D01*
X512465Y184493D02*
X577876D01*
X513369Y185397D02*
X578462D01*
X510758Y182786D02*
X513662Y185690D01*
X579303Y186693D02*
X577494Y183905D01*
X515370Y187397D02*
X579303D01*
X516552Y188579D02*
X579303D01*
X517734Y189762D02*
X579303D01*
X518917Y190944D02*
X579303D01*
X513662Y185690D02*
X519279Y191306D01*
X579303Y191944D02*
Y186693D01*
G54D34*
X533647Y459781D02*
X551114D01*
X531156Y462018D02*
X553352D01*
X527915Y464256D02*
X555590D01*
G54D31*
X533527Y458462D02*
X529261Y462191D01*
X524323Y464971D01*
X518921Y466683D01*
X513284Y467256D01*
X559712Y466963D02*
X551165Y458418D01*
G54D34*
X534259Y459143D02*
X529825Y463017D01*
X524692Y465901D01*
X519076Y467672D01*
X513217Y468256D01*
X559004Y467670D02*
X550388Y459055D01*
G54D31*
X519185Y92717D02*
X639131D01*
X520068Y93600D02*
X639497D01*
X520951Y94483D02*
X639863D01*
X517478Y91010D02*
X521244Y94776D01*
X640594Y96248D02*
X638799Y91916D01*
X519279Y191306D02*
X520001Y192386D01*
X579303Y192646D02*
Y191944D01*
X520001Y192386D02*
X521062Y193973D01*
X578542Y193819D02*
X579303Y192646D01*
X521062Y193973D02*
X521396Y195651D01*
X577494Y195434D02*
X578542Y193819D01*
X521396Y195651D02*
X521685Y197104D01*
X577119Y196998D02*
X577494Y195434D01*
X521244Y94776D02*
X522804Y96336D01*
X644923Y98043D02*
X640594Y96248D01*
X521685Y198202D02*
X576896D01*
X521685Y199833D02*
X576684D01*
X521685Y201465D02*
X576574D01*
X521685Y197104D02*
Y202465D01*
X576555Y202465D02*
X577119Y196998D01*
X521685Y203465D02*
X576574D01*
X521685Y204832D02*
X576660D01*
X521685Y206199D02*
X576816D01*
X521685Y202465D02*
Y207199D01*
X577010Y207382D02*
X576555Y202465D01*
X521685Y207199D02*
Y208786D01*
X540197Y207844D02*
X548567Y206179D01*
X521685Y209786D02*
X537293D01*
X521685Y211049D02*
X535404D01*
X521685Y212311D02*
X533516D01*
X521685Y208786D02*
Y213311D01*
X533098Y212590D02*
X540197Y207844D01*
X521685Y214311D02*
X531948D01*
X521685Y215900D02*
X530886D01*
X521685Y217488D02*
X529825D01*
X521685Y219076D02*
X528763D01*
X521685Y213311D02*
Y220076D01*
X528356Y219686D02*
X533098Y212590D01*
X521685Y221076D02*
X528079D01*
X521685Y222571D02*
X527782D01*
X521685Y224066D02*
X527484D01*
X521685Y225560D02*
X527187D01*
X521685Y227055D02*
X526890D01*
X521685Y220076D02*
Y228055D01*
X526691D02*
X528356Y219686D01*
X521685Y229055D02*
X526890D01*
X521685Y230550D02*
X527187D01*
X521685Y232045D02*
X527484D01*
X521685Y233540D02*
X527782D01*
X521685Y235034D02*
X528079D01*
X521685Y228055D02*
Y236034D01*
X528356Y236425D02*
X526691Y228055D01*
X521685Y237034D02*
X528763D01*
X521685Y238623D02*
X529825D01*
X521685Y240211D02*
X530886D01*
X521685Y241799D02*
X531948D01*
X521685Y236034D02*
Y242799D01*
X533098Y243520D02*
X528356Y236425D01*
X521685Y243799D02*
X533516D01*
X521685Y245060D02*
X535403D01*
X521685Y246320D02*
X537291D01*
X521685Y242799D02*
Y247320D01*
X540198Y248262D02*
X533098Y243520D01*
X521685Y247320D02*
Y248908D01*
X548567Y249927D02*
X540198Y248262D01*
X521685Y249908D02*
X576817D01*
X521685Y251277D02*
X576660D01*
X521685Y252646D02*
X576574D01*
X521685Y248908D02*
Y253646D01*
X576555Y253646D02*
X577011Y248724D01*
X521685Y254646D02*
X576574D01*
X521685Y256185D02*
X576676D01*
X521685Y257725D02*
X576867D01*
X521685Y259264D02*
X577151D01*
X521685Y253646D02*
Y260264D01*
X577494Y260676D02*
X576555Y253645D01*
X521685Y261264D02*
X577876D01*
X521685Y262164D02*
X578461D01*
X521685Y260264D02*
Y263164D01*
X579303Y263461D02*
X577494Y260677D01*
G54D39*
X522685Y265164D02*
X578303D01*
X522685Y267709D02*
X578303D01*
G54D31*
X521685Y270709D02*
X578464D01*
X521685Y271617D02*
X577875D01*
X521685Y269709D02*
Y272617D01*
X577494Y272206D02*
X579303Y269414D01*
X521685Y273617D02*
X577151D01*
X521685Y275157D02*
X576867D01*
X521685Y276697D02*
X576676D01*
X521685Y278236D02*
X576574D01*
X521685Y272617D02*
Y279236D01*
X576555Y279236D02*
X577494Y272206D01*
X521685Y280236D02*
X576574D01*
X521685Y281776D02*
X576676D01*
X521685Y283315D02*
X576867D01*
X521685Y284855D02*
X577151D01*
X521685Y279236D02*
Y285855D01*
X577494Y286267D02*
X576555Y279236D01*
X521685Y286855D02*
X577876D01*
X521685Y287759D02*
X578462D01*
X521685Y285855D02*
Y288759D01*
X579303Y289055D02*
X577494Y286267D01*
G54D39*
X522685Y290759D02*
X578303D01*
X522685Y293304D02*
X578303D01*
G54D31*
X521685Y296304D02*
X578462D01*
X521685Y297208D02*
X577876D01*
X521685Y295304D02*
Y298208D01*
X577494Y297796D02*
X579303Y295008D01*
X521685Y299208D02*
X577151D01*
X521685Y300748D02*
X576867D01*
X521685Y302287D02*
X576676D01*
X521685Y303827D02*
X576574D01*
X521685Y298208D02*
Y304827D01*
X576555Y304827D02*
X577494Y297796D01*
X521685Y305827D02*
X576574D01*
X521685Y307366D02*
X576676D01*
X521685Y308906D02*
X576867D01*
X521685Y310445D02*
X577151D01*
X521685Y304827D02*
Y311445D01*
X577494Y311857D02*
X576555Y304826D01*
X521685Y312445D02*
X577876D01*
X521685Y313350D02*
X578462D01*
X521685Y311445D02*
Y314350D01*
X579303Y314645D02*
X577494Y311857D01*
G54D39*
X522685Y316350D02*
X578303D01*
X522685Y318895D02*
X578303D01*
G54D31*
X521685Y321895D02*
X578462D01*
X521685Y322799D02*
X577876D01*
X521685Y320895D02*
Y323799D01*
X577494Y323387D02*
X579303Y320599D01*
X521685Y324799D02*
X577151D01*
X521685Y326338D02*
X576867D01*
X521685Y327878D02*
X576676D01*
X521685Y329417D02*
X576574D01*
X521685Y323799D02*
Y330417D01*
X576555Y330418D02*
X577494Y323387D01*
X521685Y331417D02*
X576574D01*
X521685Y332957D02*
X576676D01*
X521685Y334496D02*
X576867D01*
X521685Y336036D02*
X577151D01*
X521685Y330417D02*
Y337036D01*
X577494Y337448D02*
X576555Y330417D01*
X521685Y338036D02*
X577876D01*
X521685Y338940D02*
X578462D01*
X521685Y337036D02*
Y339940D01*
X579303Y340236D02*
X577494Y337448D01*
G54D39*
X522685Y341940D02*
X578303D01*
X522685Y344485D02*
X578303D01*
G54D31*
X521685Y347485D02*
X578462D01*
X521685Y348381D02*
X577881D01*
X521685Y346485D02*
Y349381D01*
X577481Y348998D02*
X579303Y346189D01*
X521685Y350381D02*
X577205D01*
X521685Y351592D02*
X576963D01*
X521685Y349381D02*
Y352592D01*
X576783Y352493D02*
X577481Y348998D01*
G54D39*
X522685Y354592D02*
X575783D01*
X522685Y357921D02*
X575783D01*
G54D31*
X521685Y360921D02*
X576866D01*
X521685Y362333D02*
X577182D01*
X521685Y363744D02*
X577758D01*
X521685Y365156D02*
X578659D01*
X521685Y366567D02*
X580037D01*
X521685Y359921D02*
Y367567D01*
X584264Y368466D02*
X580502Y366923D01*
X577822Y363866D01*
X576783Y359935D01*
G54D33*
X524685Y371567D02*
X581264D01*
X524685Y372740D02*
X581264D01*
G54D32*
X524685Y380740D02*
X575606D01*
X524685Y387587D02*
X568759D01*
X524685Y394433D02*
X561911D01*
G54D31*
X521685Y376740D02*
Y397765D01*
X562861Y397726D02*
X584264Y376326D01*
G54D32*
X524685Y376740D02*
Y395761D01*
X560740Y395605D02*
X581264Y375083D01*
G54D31*
X525710Y399433D02*
X561154D01*
X526826Y399896D02*
X560692D01*
X521685Y397765D02*
X527131Y400022D01*
X560399Y400188D02*
X562861Y397726D01*
G54D32*
X531753Y101043D02*
X647354D01*
X536149Y105439D02*
X647354D01*
X540544Y109835D02*
X647354D01*
G54D31*
X522804Y96336D02*
X539594Y113128D01*
X650354Y112835D02*
Y98043D01*
G54D32*
X524925Y94215D02*
X541716Y111006D01*
X647354Y109835D02*
Y101043D01*
G54D31*
X645900Y112835D02*
X650354D01*
Y98043D02*
X644923D01*
X529573Y401896D02*
X558691D01*
X531022Y403008D02*
X557579D01*
X532471Y404120D02*
X556467D01*
X527131Y400022D02*
X532845Y404407D01*
X556174Y404413D02*
X560399Y400188D01*
X534160Y406120D02*
X554466D01*
X535287Y407589D02*
X552997D01*
X536414Y409058D02*
X551528D01*
X532845Y404407D02*
X536714Y409449D01*
X551165Y409421D02*
X556174Y404413D01*
X535287Y456373D02*
X549802D01*
X534970Y456781D02*
X550074D01*
X535592Y455964D02*
X533527Y458462D01*
X551165Y458418D02*
X549395Y455763D01*
X537182Y453534D02*
X548951D01*
X536674Y454373D02*
X549118D01*
X537475Y453018D02*
X535592Y455964D01*
X549395Y455763D02*
X548772Y452633D01*
X536714Y409449D02*
X537230Y410121D01*
X550732Y410071D02*
X551165Y409421D01*
X537820Y411547D02*
X549750D01*
X537230Y410121D02*
X538044Y412087D01*
X549395Y412080D02*
X550732Y410071D01*
G54D34*
X541851Y441665D02*
X547772D01*
X541488Y444622D02*
X547772D01*
X540804Y447578D02*
X547772D01*
X539774Y450534D02*
X547772D01*
G54D31*
X540921Y439665D02*
X540045Y446560D01*
X537474Y453018D01*
X548772Y452633D02*
Y439665D01*
G54D34*
X541921Y439665D02*
X541014Y446810D01*
X538349Y453502D01*
X547772Y452731D02*
Y439665D01*
G54D31*
X538616Y413469D02*
X549118D01*
X538962Y414305D02*
X548951D01*
X538044Y412087D02*
X539218Y414922D01*
X548772Y415206D02*
X549395Y412080D01*
X539735Y416171D02*
X548772D01*
X539218Y414922D02*
X539986Y416777D01*
X548772Y417038D02*
Y415206D01*
X539594Y113128D02*
X539693Y113226D01*
X645478Y113009D02*
X645900Y112835D01*
X586029Y112933D02*
X624553D01*
X539693Y113226D02*
X540329Y113863D01*
X582528Y113627D02*
X586029Y112933D01*
X540152Y418038D02*
X548772D01*
X540367Y419672D02*
X548772D01*
X540583Y421306D02*
X548772D01*
X540798Y422940D02*
X548772D01*
X539986Y416777D02*
X540921Y423875D01*
X548772Y423940D02*
Y417038D01*
X541937Y115470D02*
X579769D01*
X540329Y113863D02*
X542130Y115663D01*
X579499Y115650D02*
X582528Y113627D01*
G54D33*
X543921Y427940D02*
Y435665D01*
X545772Y427940D02*
Y435665D01*
G54D31*
X543837Y117370D02*
X578353D01*
X544543Y118076D02*
X577883D01*
X542130Y115663D02*
X544835Y118369D01*
X577495Y118658D02*
X579499Y115650D01*
X546542Y120076D02*
X577150D01*
X548081Y121615D02*
X576867D01*
X549620Y123154D02*
X576675D01*
X551159Y124693D02*
X576574D01*
X544835Y118369D02*
X551452Y124986D01*
X576555Y125693D02*
X577495Y118658D01*
X548567Y206179D02*
X556936Y207844D01*
X577372Y209031D02*
X577010Y207382D01*
X556936Y248262D02*
X548567Y249927D01*
X577011Y248724D02*
X577373Y247075D01*
X553159Y126693D02*
X576574D01*
X554699Y128232D02*
X576676D01*
X556238Y129772D02*
X576867D01*
X557777Y131312D02*
X577151D01*
X551452Y124986D02*
X558070Y131604D01*
X577494Y132724D02*
X576555Y125693D01*
X556936Y207844D02*
X557546Y208252D01*
X577494Y209495D02*
X577372Y209031D01*
X557541Y247858D02*
X556936Y248262D01*
X577373Y247075D02*
X577494Y246615D01*
X561633Y245123D02*
X578462D01*
X560281Y246027D02*
X577876D01*
X561886Y244954D02*
X557541Y247858D01*
X577494Y246615D02*
X579303Y243827D01*
X560284Y210083D02*
X577876D01*
X561635Y210987D02*
X578462D01*
X557546Y208252D02*
X561888Y211156D01*
X579303Y212283D02*
X577494Y209495D01*
X559777Y133312D02*
X577876D01*
X560677Y134212D02*
X578461D01*
X558070Y131604D02*
X560970Y134505D01*
X579303Y135508D02*
X577494Y132724D01*
X562677Y136212D02*
X579303D01*
X564192Y137726D02*
X579303D01*
X565706Y139241D02*
X579303D01*
X567221Y140756D02*
X579303D01*
X560970Y134505D02*
X567514Y141048D01*
X579303Y141464D02*
Y135508D01*
X564032Y243520D02*
X561886Y244954D01*
X579303Y243827D02*
Y242799D01*
X561888Y211156D02*
X564032Y212590D01*
X579303Y213311D02*
Y212283D01*
X565183Y214311D02*
X579303D01*
X566259Y215921D02*
X579303D01*
X567335Y217530D02*
X579303D01*
X564032Y212590D02*
X567632Y217975D01*
X579303Y218241D02*
Y213311D01*
X564535Y242767D02*
X564032Y243520D01*
X579303Y242799D02*
Y242615D01*
X568182Y237311D02*
X574192D01*
X567313Y238611D02*
X575445D01*
X566444Y239911D02*
X576698D01*
X565575Y241212D02*
X577951D01*
X568200Y237285D02*
X564535Y242767D01*
X579303Y242615D02*
X573897Y237005D01*
X565476Y419323D02*
X586128D01*
X565476Y420518D02*
X585953D01*
X565476Y421713D02*
X585832D01*
X565476Y422908D02*
X585762D01*
X565476Y418737D02*
Y423909D01*
X585744Y423908D02*
X586360Y418112D01*
G54D32*
X587127Y401329D02*
X592701D01*
X580630Y407826D02*
X587315D01*
X574133Y414323D02*
X584285D01*
G54D31*
X586177Y398036D02*
X565476Y418737D01*
X586360Y418113D02*
X588350Y412205D01*
X591617Y406896D01*
X595992Y402455D01*
X601252Y399111D01*
X607130Y397033D01*
X613324Y396329D01*
G54D32*
X588298Y400157D02*
X568476Y419980D01*
X583427Y417482D02*
X585634Y410932D01*
X589255Y405045D01*
X594107Y400122D01*
X599939Y396413D01*
X606456Y394110D01*
X613324Y393329D01*
G54D31*
X565476Y423909D02*
Y423921D01*
X585744Y423921D02*
Y423909D01*
G54D33*
X568476Y427921D02*
X582744D01*
X568476Y435666D02*
X582744D01*
G54D31*
X565476Y439666D02*
Y439679D01*
X585744D02*
Y439665D01*
G54D34*
X566476Y441679D02*
X584814D01*
X566476Y444598D02*
X585170D01*
X566476Y447516D02*
X585839D01*
G54D31*
X565476Y439679D02*
Y449102D01*
X587702Y449886D02*
X586238Y444876D01*
X585744Y439679D01*
G54D34*
X566476D02*
Y448688D01*
X586773Y450256D02*
X585256Y445064D01*
X584744Y439679D01*
G54D32*
X574133Y453516D02*
X586053D01*
X578508Y457891D02*
X588757D01*
X582883Y462266D02*
X592706D01*
G54D31*
X565476Y449102D02*
X581933Y465559D01*
X613330Y467266D02*
X606817Y466486D01*
X600672Y464190D01*
X595243Y460508D01*
X590836Y455649D01*
X587702Y449886D01*
G54D32*
X568476Y447859D02*
X584055Y463438D01*
X613330Y470266D02*
X606109Y469401D01*
X599295Y466856D01*
X593275Y462773D01*
X588390Y457385D01*
X584914Y450996D01*
G54D31*
X567632Y217975D02*
X568447Y219193D01*
X578702D02*
X579303Y218241D01*
X568447Y219193D02*
X578702D01*
X569221Y142756D02*
X578479D01*
X569398Y142933D02*
X578366D01*
X567514Y141048D02*
X569398Y142933D01*
X578366D02*
X579303Y141464D01*
X569398Y142933D02*
X578366D01*
X573892Y237000D02*
X568200Y237285D01*
X573897Y237005D02*
X573892Y237000D01*
X583641Y467266D02*
X740189D01*
X585097Y468722D02*
X740189D01*
X586552Y470178D02*
X740189D01*
X588008Y471634D02*
X740189D01*
X581933Y465559D02*
X588301Y471927D01*
X740189Y472634D02*
Y466266D01*
X659651Y471634D02*
X693140D01*
X593175Y53451D02*
X686649D01*
X593216Y53443D02*
X583377Y55402D01*
X688306Y55109D02*
X686406Y53208D01*
X583377Y574520D02*
X586319Y575105D01*
X654524Y575888D02*
X654834Y575138D01*
G54D34*
X596985Y388642D02*
X636434D01*
X593642Y391986D02*
X633090D01*
X590299Y395329D02*
X629746D01*
G54D31*
X596864Y387349D02*
X586177Y398036D01*
X629867Y396622D02*
X640264Y386228D01*
G54D34*
X597571Y388056D02*
X586884Y398743D01*
X629160Y395915D02*
X639264Y385813D01*
G54D31*
X586319Y575105D02*
X593216Y576478D01*
X654524Y577420D02*
Y575888D01*
X588301Y471927D02*
X589858Y473483D01*
X655331Y473425D02*
X659651Y471634D01*
X591565Y475191D02*
X654599D01*
X593071Y476697D02*
X653974D01*
X589858Y473483D02*
X593071Y476697D01*
X653974D02*
X655331Y473425D01*
X593071Y476697D02*
X653974D01*
X601197Y48110D02*
X681308D01*
X598659Y49806D02*
X683004D01*
X596122Y51501D02*
X684699D01*
X601614Y47831D02*
X593216Y53443D01*
X686406Y53208D02*
X681016Y47817D01*
X596122Y578420D02*
X654524D01*
X598659Y580116D02*
X654524D01*
X601197Y581811D02*
X654524D01*
X593216Y576478D02*
X601614Y582090D01*
X654524Y582811D02*
Y577420D01*
X598571Y385642D02*
X596864Y387349D01*
X640264Y386228D02*
Y385005D01*
X599937Y383598D02*
X640264D01*
X599665Y384005D02*
X640264D01*
X600345Y382987D02*
X598571Y385642D01*
X640264Y385005D02*
Y382598D01*
X600786Y380758D02*
X640264D01*
X600620Y381598D02*
X640264D01*
X600965Y379856D02*
X600345Y382987D01*
X640264Y382598D02*
Y379758D01*
X624484Y368768D02*
X600965D01*
G54D33*
X603965Y371768D02*
X637264D01*
X603965Y375758D02*
X637264D01*
G54D34*
X607350Y41042D02*
X672828D01*
X605992Y43076D02*
X674861D01*
X604634Y45110D02*
X676895D01*
G54D31*
X607223Y39432D02*
X601614Y47831D01*
X681016Y47817D02*
X672949Y39750D01*
G54D34*
X608165Y39822D02*
X602336Y48552D01*
X680308Y48524D02*
X672242Y40456D01*
X604634Y584811D02*
X653524D01*
X605992Y586845D02*
X653524D01*
X607350Y588879D02*
X653524D01*
G54D31*
X601614Y582090D02*
X607223Y590489D01*
X654524Y590879D02*
Y582811D01*
G54D34*
X602336Y581369D02*
X608165Y590099D01*
X653524Y590879D02*
Y582811D01*
G54D31*
X605512Y7843D02*
X740189D01*
X604853Y9452D02*
X740189D01*
X604194Y11062D02*
X740189D01*
X603535Y12671D02*
X740189D01*
X605512Y7843D02*
X603172Y13558D01*
X740189Y13671D02*
Y7843D01*
X605512D01*
X603916Y14671D02*
X740189D01*
X604882Y16118D02*
X740189D01*
X605849Y17566D02*
X740189D01*
X606815Y19013D02*
X740189D01*
X603172Y13558D02*
X607223Y19623D01*
X740189Y20013D02*
Y13671D01*
X603535Y617250D02*
X740189D01*
X604194Y618860D02*
X740189D01*
X604853Y620469D02*
X740189D01*
X605512Y622079D02*
X740189D01*
X603172Y616363D02*
X605512Y622079D01*
X740189D02*
Y616250D01*
X605512Y622079D02*
X740189D01*
X606815Y610909D02*
X740189D01*
X605849Y612356D02*
X740189D01*
X604882Y613803D02*
X740189D01*
X603916Y615250D02*
X740189D01*
X607223Y610298D02*
X603172Y616363D01*
X740189Y616250D02*
Y609909D01*
X607499Y21013D02*
X740189D01*
X607531Y21177D02*
X740189D01*
X607223Y19623D02*
X607531Y21177D01*
X740189Y22177D02*
Y20013D01*
X607531Y21177D02*
X674605D01*
X607531Y37878D02*
X671078D01*
X607499Y38042D02*
X671243D01*
X607531Y37878D02*
X607223Y39432D01*
X672949Y39750D02*
X671078Y37878D01*
X607531D01*
X607499Y591879D02*
X654524D01*
X607531Y592043D02*
X654524D01*
X607223Y590489D02*
X607531Y592043D01*
X654524D02*
Y590879D01*
X607531Y592043D02*
X654524D01*
X607526Y608769D02*
X607223Y610298D01*
X740189Y609909D02*
Y608575D01*
X692148Y609575D02*
X660647D01*
X607531Y608744D02*
X607526Y608769D01*
X660647Y609575D02*
X658639Y608744D01*
X607531D01*
X613324Y396329D02*
X620519Y397284D01*
X628963Y397526D02*
X629867Y396622D01*
G54D34*
X638413Y453394D02*
X739189D01*
X636059Y457018D02*
X739189D01*
X632767Y460642D02*
X739189D01*
X627915Y464266D02*
X739189D01*
G54D31*
X638095Y451834D02*
X634795Y457008D01*
X630433Y461324D01*
X625225Y464570D01*
X619429Y466583D01*
X613331Y467266D01*
X740189Y466266D02*
Y451394D01*
G54D34*
X638993Y452275D02*
X635573Y457636D01*
X631053Y462109D01*
X625657Y465472D01*
X619650Y467559D01*
X613331Y468266D01*
X739189Y466266D02*
Y451394D01*
G54D31*
X693140Y452394D02*
X679689D01*
X673102D02*
X659651D01*
X625199Y399233D02*
X627255D01*
X620520Y397284D02*
X626650Y399837D01*
X628963Y397526D01*
X624553Y112933D02*
X628055Y113627D01*
X643938Y113645D02*
X645478Y113009D01*
G54D34*
X634603Y361454D02*
X639264D01*
X633924Y363611D02*
X639264D01*
X632641Y365768D02*
X639264D01*
G54D31*
X633799Y359454D02*
X633090Y363018D01*
X631071Y366040D01*
X628050Y368059D01*
X624486Y368768D01*
X640264Y367768D02*
Y359454D01*
G54D34*
X634799D02*
X634014Y363401D01*
X631778Y366747D01*
X628432Y368983D01*
X624486Y369768D01*
X639264Y367768D02*
Y359454D01*
G54D31*
X628055Y113627D02*
X629444Y114556D01*
X641575Y114622D02*
X643938Y113645D01*
X629444Y114556D02*
X631079Y115649D01*
X641010Y115988D02*
X641575Y114622D01*
X632219Y134043D02*
X639783D01*
X632110Y134212D02*
X639783D01*
X632219Y134043D02*
X631276Y135507D01*
X639783Y135212D02*
Y134043D01*
X632219D01*
G54D39*
X632276Y137212D02*
X638783D01*
X632276Y139757D02*
X638783D01*
G54D31*
X632119Y142757D02*
X639783D01*
X632710Y143665D02*
X639783D01*
X631276Y141460D02*
X633093Y144253D01*
X639783Y144665D02*
Y141757D01*
G54D39*
X632276Y162806D02*
X739189D01*
X632276Y165352D02*
X739189D01*
G54D31*
X632710Y158902D02*
X740189D01*
X632121Y159806D02*
X740189D01*
X633093Y158314D02*
X631276Y161103D01*
X740189Y160806D02*
Y157902D01*
X632121Y168352D02*
X740189D01*
X632710Y169256D02*
X740189D01*
X631276Y167055D02*
X633093Y169843D01*
X740189Y170256D02*
Y167352D01*
G54D37*
X631276Y187396D02*
X740189D01*
X631276Y187956D02*
X740189D01*
G54D31*
X632710Y184493D02*
X740189D01*
X632121Y185396D02*
X740189D01*
X633093Y183905D02*
X631276Y186694D01*
X740189Y186396D02*
Y183493D01*
X631276Y188557D02*
X632569Y189917D01*
X740189Y190606D02*
Y188956D01*
X645900Y189606D02*
X671514D01*
X702986D02*
X712504D01*
X719091D02*
X728600D01*
G54D39*
X632276Y213988D02*
X638783D01*
X632276Y216533D02*
X638783D01*
G54D31*
X632219Y210815D02*
X639783D01*
X632108Y210988D02*
X639783D01*
X632219Y210815D02*
X631276Y212282D01*
X639783Y211988D02*
Y210815D01*
X632219D01*
X632121Y219533D02*
X639783D01*
X632710Y220437D02*
X639783D01*
X631276Y218236D02*
X633093Y221024D01*
X639783Y221437D02*
Y218533D01*
G54D39*
X632276Y239578D02*
X639264D01*
X632276Y242123D02*
X639264D01*
G54D31*
X632710Y235670D02*
X640264D01*
X632119Y236578D02*
X640264D01*
X633093Y235082D02*
X631276Y237874D01*
X640264Y237578D02*
Y234670D01*
X632121Y245123D02*
X640264D01*
X632710Y246027D02*
X640264D01*
X631276Y243826D02*
X633093Y246615D01*
X640264Y247027D02*
Y244123D01*
X632709Y261264D02*
X640264D01*
X632122Y262164D02*
X640264D01*
X633093Y260677D02*
X631276Y263462D01*
X640264Y263164D02*
Y260264D01*
G54D39*
X632276Y265164D02*
X639264D01*
X632276Y267710D02*
X639264D01*
G54D31*
X632119Y270710D02*
X640264D01*
X632710Y271618D02*
X640264D01*
X631276Y269413D02*
X633093Y272206D01*
X640264Y272618D02*
Y269710D01*
G54D39*
X632276Y290759D02*
X639264D01*
X632276Y293304D02*
X639264D01*
G54D31*
X632710Y286855D02*
X640264D01*
X632121Y287759D02*
X640264D01*
X633093Y286267D02*
X631276Y289056D01*
X640264Y288759D02*
Y285855D01*
X632121Y296304D02*
X640264D01*
X632710Y297208D02*
X640264D01*
X631276Y295007D02*
X633093Y297796D01*
X640264Y298208D02*
Y295304D01*
X632710Y312445D02*
X640264D01*
X632121Y313349D02*
X640264D01*
X633093Y311857D02*
X631276Y314646D01*
X640264Y314349D02*
Y311445D01*
G54D39*
X632276Y316349D02*
X639264D01*
X632276Y318895D02*
X639264D01*
G54D31*
X632121Y321895D02*
X640264D01*
X632710Y322799D02*
X640264D01*
X631276Y320598D02*
X633093Y323387D01*
X640264Y323799D02*
Y320895D01*
X632710Y338036D02*
X640264D01*
X632121Y338940D02*
X640264D01*
X633093Y337448D02*
X631276Y340237D01*
X640264Y339940D02*
Y337036D01*
G54D39*
X632276Y341940D02*
X639264D01*
X632276Y344485D02*
X639264D01*
G54D31*
X632121Y347485D02*
X640264D01*
X632704Y348381D02*
X640264D01*
X631276Y346188D02*
X633106Y348997D01*
X640264Y349381D02*
Y346485D01*
G54D30*
X631294Y116870D02*
X641186D01*
X631619Y117356D02*
X640985D01*
X631944Y117843D02*
X640784D01*
G54D31*
X631079Y115649D02*
X632211Y117343D01*
X640450D02*
X641010Y115988D01*
X632211Y117343D02*
X640450D01*
X632569Y189917D02*
X634046Y191470D01*
X641575Y191393D02*
X645900Y189606D01*
X633380Y350381D02*
X640264D01*
X633620Y351592D02*
X640264D01*
X633106Y348997D02*
X633799Y352494D01*
X640264Y352592D02*
Y349381D01*
X633434Y145665D02*
X639783D01*
X633716Y147204D02*
X639783D01*
X633906Y148744D02*
X639783D01*
X634008Y150283D02*
X639783D01*
X633093Y144253D02*
X634026Y151284D01*
X639783Y151283D02*
Y144665D01*
X633228Y157793D02*
X633093Y158314D01*
X740189Y157902D02*
Y157551D01*
X728601Y158551D02*
X719091D01*
X712500D02*
X702986D01*
X671514D02*
X645899D01*
X633434Y171256D02*
X740189D01*
X633716Y172795D02*
X740189D01*
X633906Y174335D02*
X740189D01*
X634008Y175874D02*
X740189D01*
X633093Y169843D02*
X634026Y176874D01*
X740189Y176874D02*
Y170256D01*
X634008Y177874D02*
X740189D01*
X633906Y179413D02*
X740189D01*
X633716Y180953D02*
X740189D01*
X633434Y182493D02*
X740189D01*
X634026Y176874D02*
X633093Y183905D01*
X740189Y183493D02*
Y176874D01*
X633434Y222437D02*
X639783D01*
X633716Y223975D02*
X639783D01*
X633907Y225514D02*
X639783D01*
X634008Y227053D02*
X639783D01*
X633093Y221024D02*
X634027Y228053D01*
X639783Y228053D02*
Y221437D01*
X633846Y231166D02*
X640264D01*
X633670Y232418D02*
X640264D01*
X633434Y233670D02*
X640264D01*
X633937Y230247D02*
X633093Y235082D01*
X640264Y234670D02*
Y230365D01*
X633434Y248027D02*
X640264D01*
X633716Y249567D02*
X640264D01*
X633906Y251106D02*
X640264D01*
X634008Y252646D02*
X640264D01*
X633093Y246615D02*
X634026Y253645D01*
X640264Y253646D02*
Y247027D01*
X634008Y254646D02*
X640264D01*
X633906Y256185D02*
X640264D01*
X633716Y257725D02*
X640264D01*
X633434Y259264D02*
X640264D01*
X634026Y253646D02*
X633092Y260677D01*
X640264Y260264D02*
Y253646D01*
X633434Y273618D02*
X640264D01*
X633716Y275157D02*
X640264D01*
X633906Y276697D02*
X640264D01*
X634008Y278236D02*
X640264D01*
X633093Y272206D02*
X634026Y279236D01*
X640264Y279236D02*
Y272618D01*
X634008Y280236D02*
X640264D01*
X633906Y281776D02*
X640264D01*
X633716Y283315D02*
X640264D01*
X633434Y284855D02*
X640264D01*
X634026Y279236D02*
X633093Y286267D01*
X640264Y285855D02*
Y279236D01*
X633434Y299208D02*
X640264D01*
X633716Y300748D02*
X640264D01*
X633906Y302287D02*
X640264D01*
X634008Y303827D02*
X640264D01*
X633093Y297796D02*
X634026Y304827D01*
X640264Y304827D02*
Y298208D01*
X634008Y305827D02*
X640264D01*
X633906Y307366D02*
X640264D01*
X633716Y308906D02*
X640264D01*
X633434Y310445D02*
X640264D01*
X634026Y304827D02*
X633093Y311857D01*
X640264Y311445D02*
Y304827D01*
X633434Y324799D02*
X640264D01*
X633716Y326338D02*
X640264D01*
X633906Y327878D02*
X640264D01*
X634008Y329417D02*
X640264D01*
X633093Y323387D02*
X634026Y330417D01*
X640264Y330417D02*
Y323799D01*
X634008Y331417D02*
X640264D01*
X633906Y332957D02*
X640264D01*
X633716Y334496D02*
X640264D01*
X633434Y336036D02*
X640264D01*
X634026Y330417D02*
X633093Y337448D01*
X640264Y337036D02*
Y330417D01*
X633578Y156176D02*
X633228Y157793D01*
X645899Y158551D02*
X641575Y156760D01*
X633956Y153236D02*
X640115D01*
X633877Y154115D02*
X640479D01*
X633770Y154994D02*
X640844D01*
X634008Y152273D02*
X633578Y156176D01*
X641575Y156760D02*
X639783Y152435D01*
G54D39*
X634799Y354592D02*
X639264D01*
X634799Y357453D02*
X639264D01*
G54D31*
X633799Y359453D02*
Y359454D01*
X640264D02*
Y359453D01*
X634008Y229045D02*
X633937Y230247D01*
X640264Y230365D02*
X639783Y229207D01*
X634026Y151283D02*
X634008Y152273D01*
X639783Y152435D02*
Y151283D01*
X634027Y228053D02*
X634008Y229045D01*
X639783Y229207D02*
Y228053D01*
X634046Y191470D02*
X634723Y192183D01*
X641346Y191946D02*
X641575Y191393D01*
X634723Y192183D02*
X635181Y192665D01*
X641346Y191946D01*
G54D32*
X655448Y398906D02*
X737189D01*
X650982Y403373D02*
X737189D01*
X646516Y407840D02*
X737189D01*
G54D31*
X654567Y395544D02*
X638040Y412075D01*
X740189Y411840D02*
Y394906D01*
G54D32*
X656898Y397456D02*
X641578Y412779D01*
X737189Y411840D02*
Y394906D01*
G54D31*
X638357Y412840D02*
X740189D01*
X639063Y414547D02*
X740189D01*
X638040Y412075D02*
X639319Y415165D01*
X740189Y415547D02*
Y411840D01*
X659651Y414547D02*
X673102D01*
X679689D02*
X693140D01*
X638824Y450219D02*
X638095Y451834D01*
X659651Y452394D02*
X655331Y450602D01*
X639765Y447568D02*
X654071D01*
X639353Y448837D02*
X654598D01*
X639992Y446763D02*
X638824Y450219D01*
X655331Y450602D02*
X653815Y446952D01*
X639319Y415165D02*
X639986Y416777D01*
X655872Y416114D02*
X659651Y414547D01*
X640065Y446209D02*
X639992Y446763D01*
X653815Y446952D02*
X653535Y446278D01*
X639986Y416777D02*
X640012Y416973D01*
X655331Y416339D02*
X655872Y416114D01*
X640161Y418104D02*
X654598D01*
X640277Y418983D02*
X654233D01*
X640392Y419862D02*
X653868D01*
X640012Y416973D02*
X640507Y420731D01*
X653535Y420663D02*
X655331Y416339D01*
X640798Y440646D02*
X653535D01*
X640603Y442124D02*
X653535D01*
X640409Y443601D02*
X653535D01*
X640214Y445079D02*
X653535D01*
X640921Y439712D02*
X640065Y446209D01*
X653535Y446278D02*
Y439646D01*
X640656Y421862D02*
X653535D01*
X640798Y422940D02*
X653535D01*
X640507Y420731D02*
X640921Y423875D01*
X653535Y423940D02*
Y420663D01*
G54D39*
X641921Y425940D02*
X652535D01*
X641921Y427173D02*
X652535D01*
G54D33*
X643921Y433173D02*
X737189D01*
X643921Y433764D02*
X737189D01*
G54D42*
X640421Y438264D02*
X654035D01*
X640421Y438705D02*
X654035D01*
X640421Y439146D02*
X654035D01*
G54D31*
X655934Y393499D02*
X740189D01*
X655662Y393906D02*
X740189D01*
X656341Y392889D02*
X654567Y395544D01*
X740189Y394906D02*
Y392499D01*
X656785Y390660D02*
X740189D01*
X656618Y391499D02*
X740189D01*
X656965Y389759D02*
X656341Y392889D01*
X740189Y392499D02*
Y389660D01*
G54D43*
X687965Y266323D02*
Y357660D01*
X709189Y266323D02*
Y357660D01*
G54D38*
X674059Y105043D02*
X733189D01*
X674059Y105835D02*
X733189D01*
G54D31*
X675839Y156760D02*
X671514Y158551D01*
X702986D02*
X698661Y156760D01*
X675839Y233531D02*
X671514Y235323D01*
X702986D02*
X698661Y233531D01*
X671514Y112835D02*
X675838Y114622D01*
X698662D02*
X702986Y112835D01*
X671514Y189606D02*
X675839Y191394D01*
X698661D02*
X702986Y189606D01*
G54D33*
X676102Y419547D02*
Y425173D01*
X676689Y419547D02*
Y425173D01*
X676102Y441764D02*
Y447394D01*
X676689Y441764D02*
Y447394D01*
G54D31*
X676440Y96407D02*
X672487Y98043D01*
X700045D02*
X695713Y96248D01*
X672486Y54291D02*
X676823Y56082D01*
X690752Y57555D02*
X689195Y55998D01*
X674605Y21177D02*
X677740Y21801D01*
X740189Y22743D02*
Y22177D01*
X676570Y116388D02*
X697930D01*
X676934Y117267D02*
X697566D01*
X677298Y118145D02*
X697202D01*
X675838Y114622D02*
X677630Y118947D01*
X696870D02*
X698662Y114622D01*
X677298Y153236D02*
X697202D01*
X676934Y154115D02*
X697566D01*
X676570Y154994D02*
X697930D01*
X677630Y152435D02*
X675839Y156760D01*
X698661D02*
X696870Y152435D01*
X676569Y193159D02*
X697931D01*
X676934Y194040D02*
X697566D01*
X677298Y194921D02*
X697202D01*
X675839Y191394D02*
X677630Y195722D01*
X696870D02*
X698661Y191394D01*
X677298Y230008D02*
X697202D01*
X676934Y230887D02*
X697566D01*
X676570Y231766D02*
X697930D01*
X677630Y229207D02*
X675839Y233531D01*
X698661D02*
X696870Y229207D01*
X677553Y57848D02*
X691045D01*
X678191Y59392D02*
X692589D01*
X676823Y56082D02*
X678447Y60010D01*
X693833Y60637D02*
X690752Y57555D01*
X678283Y92717D02*
X694249D01*
X677918Y93600D02*
X694615D01*
X677553Y94483D02*
X694981D01*
X678614Y91916D02*
X676823Y96248D01*
X695554Y95865D02*
X693994Y92100D01*
G54D33*
X680630Y123145D02*
X693870D01*
X680630Y127394D02*
X693870D01*
X680630Y135394D02*
X737189D01*
X680630Y135984D02*
X737189D01*
X680630Y143984D02*
X693870D01*
X680630Y148236D02*
X693870D01*
X680630Y199921D02*
X693870D01*
X680630Y204169D02*
X693870D01*
X680630Y212169D02*
X737189D01*
X680630Y212760D02*
X737189D01*
X680630Y220760D02*
X693870D01*
X680630Y225008D02*
X693870D01*
G54D31*
X677740Y21801D02*
X680394Y23575D01*
X740189Y24351D02*
Y22743D01*
X678447Y60010D02*
X678537Y60229D01*
X678614Y60415D01*
G54D38*
X685614Y68614D02*
Y83717D01*
X686917Y68614D02*
Y83717D01*
G54D31*
X678614Y91717D02*
Y91916D01*
X693994Y92100D02*
X693917Y91916D01*
G54D32*
X689414Y28351D02*
X737189D01*
X696115Y35053D02*
X737189D01*
X702817Y41754D02*
X737189D01*
X709518Y48456D02*
X737189D01*
G54D31*
X680394Y23575D02*
X708638Y51818D01*
X740189Y52456D02*
Y24351D01*
G54D32*
X682307Y21245D02*
X710968Y49906D01*
X737189Y52456D02*
Y24351D01*
G54D39*
X685748Y510480D02*
X739189D01*
X685748Y513642D02*
X739189D01*
G54D31*
X692148Y514642D02*
X696480Y516437D01*
X740189Y517202D02*
Y515642D01*
X696480Y552665D02*
X692148Y554461D01*
X740189Y553461D02*
Y551900D01*
X692148Y569764D02*
X696480Y571555D01*
X740189Y572321D02*
Y570764D01*
X696480Y607784D02*
X692148Y609575D01*
X740189Y608575D02*
Y607018D01*
X693140Y414547D02*
X697465Y416339D01*
X740189Y417104D02*
Y415547D01*
X697465Y450602D02*
X693140Y452394D01*
X740189Y451394D02*
Y449837D01*
X693140Y471634D02*
X697465Y473425D01*
X740189Y474191D02*
Y472634D01*
X697465Y507689D02*
X693140Y509480D01*
X740189Y508480D02*
Y506924D01*
X697212Y518202D02*
X740189D01*
X697578Y519085D02*
X740189D01*
X697944Y519968D02*
X740189D01*
X696480Y516437D02*
X698276Y520769D01*
X740189Y520968D02*
Y517202D01*
X697944Y549134D02*
X740189D01*
X697578Y550017D02*
X740189D01*
X697212Y550900D02*
X740189D01*
X698276Y548333D02*
X696480Y552665D01*
X740189Y551900D02*
Y548134D01*
X697212Y573321D02*
X740189D01*
X697578Y574203D02*
X740189D01*
X697944Y575086D02*
X740189D01*
X696480Y571555D02*
X698276Y575887D01*
X740189Y576086D02*
Y572321D01*
X697944Y604252D02*
X740189D01*
X697578Y605135D02*
X740189D01*
X697212Y606018D02*
X740189D01*
X698276Y603451D02*
X696480Y607784D01*
X740189Y607018D02*
Y603252D01*
X698196Y418104D02*
X740189D01*
X698560Y418983D02*
X740189D01*
X698924Y419862D02*
X740189D01*
X697465Y416339D02*
X699256Y420663D01*
X740189Y420862D02*
Y417104D01*
X698924Y447079D02*
X740189D01*
X698560Y447958D02*
X740189D01*
X698196Y448837D02*
X740189D01*
X699256Y446278D02*
X697465Y450602D01*
X740189Y449837D02*
Y446079D01*
X698196Y475191D02*
X740189D01*
X698560Y476070D02*
X740189D01*
X698924Y476949D02*
X740189D01*
X697465Y473425D02*
X699256Y477750D01*
X740189Y477949D02*
Y474191D01*
X698924Y504166D02*
X740189D01*
X698560Y505045D02*
X740189D01*
X698196Y505924D02*
X740189D01*
X699256Y503364D02*
X697465Y507689D01*
X740189Y506924D02*
Y503166D01*
G54D38*
X705276Y528968D02*
X733189D01*
X705276Y540134D02*
X733189D01*
X705276Y584086D02*
X733189D01*
X705276Y595252D02*
X733189D01*
G54D33*
X702256Y424862D02*
X737189D01*
X702256Y425173D02*
X737189D01*
X702256Y441764D02*
X737189D01*
X702256Y442079D02*
X737189D01*
G54D38*
X706256Y485949D02*
X733189D01*
X706256Y495166D02*
X733189D01*
G54D31*
X709732Y53456D02*
X740189D01*
X710005Y53864D02*
X740189D01*
X708638Y51818D02*
X710301Y54307D01*
X740189Y54864D02*
Y52456D01*
Y55291D02*
Y54864D01*
X710373Y54291D02*
X727609D01*
G54D33*
X715500Y117835D02*
Y127394D01*
X716091Y117835D02*
Y127394D01*
X715500Y143984D02*
Y153551D01*
X716091Y143984D02*
Y153551D01*
X715504Y194606D02*
Y204169D01*
X716091Y194606D02*
Y204169D01*
X715504Y220760D02*
Y230323D01*
X716091Y220760D02*
Y230323D01*
G54D31*
X731937Y96248D02*
X727609Y98043D01*
X740189Y97043D02*
Y95483D01*
X727609Y54291D02*
X731937Y56083D01*
X740189Y56848D02*
Y55291D01*
X732925Y156760D02*
X728601Y158551D01*
X740189Y157551D02*
Y155994D01*
X732925Y233531D02*
X728601Y235323D01*
X740189Y234323D02*
Y232766D01*
X728600Y112835D02*
X732925Y114622D01*
X740189Y115388D02*
Y113835D01*
X728600Y189606D02*
X732925Y191394D01*
X740189Y192159D02*
Y190606D01*
X733400Y92717D02*
X740189D01*
X733034Y93600D02*
X740189D01*
X732669Y94483D02*
X740189D01*
X733732Y91916D02*
X731937Y96248D01*
X740189Y95483D02*
Y91717D01*
X732669Y57848D02*
X740189D01*
X733034Y58731D02*
X740189D01*
X733400Y59614D02*
X740189D01*
X731937Y56083D02*
X733732Y60415D01*
X740189Y60614D02*
Y56848D01*
X733656Y116388D02*
X740189D01*
X734021Y117267D02*
X740189D01*
X734385Y118145D02*
X740189D01*
X732925Y114622D02*
X734717Y118947D01*
X740189Y119145D02*
Y115388D01*
X734385Y153236D02*
X740189D01*
X734021Y154115D02*
X740189D01*
X733656Y154994D02*
X740189D01*
X734717Y152435D02*
X732925Y156760D01*
X740189Y155994D02*
Y152236D01*
X733656Y193159D02*
X740189D01*
X734020Y194040D02*
X740189D01*
X734385Y194921D02*
X740189D01*
X732925Y191394D02*
X734717Y195722D01*
X740189Y195921D02*
Y192159D01*
X734385Y230008D02*
X740189D01*
X734021Y230887D02*
X740189D01*
X733656Y231766D02*
X740189D01*
X734717Y229207D02*
X732925Y233531D01*
X740189Y232766D02*
Y229008D01*
G54D33*
X736732Y64614D02*
Y87717D01*
X737189Y64614D02*
Y87717D01*
G54D39*
X735717Y121145D02*
Y129394D01*
X739189Y121145D02*
Y129394D01*
X735717Y141984D02*
Y150236D01*
X739189Y141984D02*
Y150236D01*
X735717Y197921D02*
Y206169D01*
X739189Y197921D02*
Y206169D01*
X735717Y218760D02*
Y227008D01*
X739189Y218760D02*
Y227008D01*
G54D31*
X116409Y133248D02*
X7843D01*
X114242Y575862D02*
X72562D01*
X103370Y388181D02*
X334578D01*
X346827D02*
X355417D01*
X367670D02*
X423745D01*
X412902Y377339D02*
X178654D01*
X116409D02*
X103370D01*
G54D34*
X298075Y509819D02*
Y543137D01*
X306425Y509819D02*
X298075D01*
G54D32*
X300075Y511819D02*
Y541137D01*
X306425Y511819D02*
X300075D01*
G54D31*
X297075Y544137D02*
X321181D01*
G54D34*
X298075Y543137D02*
X320767D01*
G54D32*
X300075Y541137D02*
X319939D01*
G54D31*
X356497Y508819D02*
X306425D01*
G54D34*
X354083Y509819D02*
X306425D01*
G54D32*
X349255Y511819D02*
X306425D01*
G54D34*
X326445Y87642D02*
Y101036D01*
X489073Y87642D02*
X326445D01*
X502467Y101036D02*
X489073Y87642D01*
G54D31*
X373984Y473638D02*
X395163D01*
X413342Y467258D02*
X373984D01*
X437488D02*
X413342D01*
X440906Y522917D02*
X447736D01*
G54D34*
X441854Y521917D02*
X447322D01*
X427919Y499327D02*
X433374Y503526D01*
X437667Y508907D01*
X440549Y515158D01*
X441854Y521917D01*
X447322Y521917D02*
X469912Y499327D01*
G54D31*
X740189Y554461D02*
X691949D01*
X660846D02*
X436629D01*
X654524Y540677D02*
X440906D01*
X467244Y391734D02*
X450917D01*
X492478D02*
X467244D01*
X513350Y467256D02*
X492531D01*
G54D34*
X493531Y468256D02*
Y488227D01*
X513350Y468256D02*
X493531D01*
G54D31*
X560004Y467256D02*
X513350D01*
G54D34*
X559590Y468256D02*
X513350D01*
G54D31*
X539302Y112835D02*
X646098D01*
G54D34*
Y111835D02*
X649354D01*
X539716D02*
X646098D01*
X649354D02*
Y99043D01*
X645122D01*
G54D31*
Y98043D02*
X524511D01*
G54D34*
X645122Y99043D02*
X526925D01*
G54D31*
X613324Y396329D02*
X630160D01*
X587884D02*
X613324D01*
X740189Y452394D02*
X692941D01*
X680689D02*
X672102D01*
X659850D02*
X637812D01*
G54D30*
X241600Y221213D02*
X255533Y207276D01*
X255555Y207258D01*
X255555D02*
X259168Y205368D01*
X263224Y204961D01*
X263224D02*
Y199908D01*
X264875Y195918D01*
X268865Y194268D01*
X280635D01*
X281470Y194614D01*
X346664D01*
X349349Y188362D01*
X345889Y184724D01*
X281343D01*
X280635Y185016D01*
X268865D01*
X268160Y184724D01*
X227160D01*
X202882Y209002D01*
X200352Y210693D01*
X199661Y210830D01*
X197295Y215819D01*
X197702Y216605D01*
X201715Y221213D01*
X241600D01*
G54D31*
X198591Y216888D02*
X245239D01*
X197846Y215829D02*
X246298D01*
X201678Y210389D02*
X251736D01*
X201928Y210222D02*
X251903D01*
X203956Y208613D02*
X253511D01*
X204920Y207649D02*
X254475D01*
X207152Y205417D02*
X257652D01*
X212562Y200007D02*
X262724D01*
X216268Y196301D02*
X264192D01*
X217801Y194768D02*
X266388D01*
X224313Y188256D02*
X348580D01*
X197853Y215809D02*
X198119Y216321D01*
X245924Y216181D02*
X246983Y215122D01*
X199949Y211389D02*
X250714D01*
X199134Y213109D02*
X248995D01*
X198318Y214829D02*
X247275D01*
X200005Y211272D02*
X197853Y215809D01*
X246983Y215122D02*
X252421Y209682D01*
X199482Y217888D02*
X244217D01*
X200713Y219300D02*
X242805D01*
X201943Y220713D02*
X241393D01*
X198119Y216321D02*
X201943Y220713D01*
X241393D02*
X245924Y216181D01*
X201943Y220713D02*
X241393D01*
X200547Y211164D02*
X200005Y211272D01*
X252421Y209682D02*
X252588Y209515D01*
X203201Y209390D02*
X200547Y211164D01*
X252588Y209515D02*
X254196Y207906D01*
X204235Y208356D02*
X203201Y209390D01*
X254196Y207906D02*
X255198Y206904D01*
X206175Y206417D02*
X255850D01*
X205942Y206649D02*
X255526D01*
X206467Y206124D02*
X204235Y208356D01*
X255198Y206903D02*
X258511Y205057D01*
X262249Y204417D01*
X211584Y201007D02*
X262724D01*
X209879Y202712D02*
X262724D01*
X208175Y204417D02*
X262724D01*
X211877Y200715D02*
X206467Y206124D01*
X262724Y204442D02*
Y199809D01*
X215290Y197301D02*
X263762D01*
X213584Y199007D02*
X263056D01*
X215583Y197008D02*
X211877Y200715D01*
X262724Y199809D02*
X264492Y195535D01*
X217116Y195475D02*
X215583Y197008D01*
X264492Y195535D02*
X268766Y193768D01*
X223335Y189256D02*
X348421D01*
X221831Y190760D02*
X347775D01*
X220327Y192264D02*
X347130D01*
X218823Y193768D02*
X346484D01*
X223628Y188964D02*
X217116Y195475D01*
X346328Y194130D02*
X348760Y188468D01*
X268766Y193768D02*
X280735D01*
X227075Y185516D02*
X345951D01*
X225335Y187256D02*
X347607D01*
X227368Y185223D02*
X223628Y188964D01*
X348760Y188468D02*
X345656Y185205D01*
X280734Y185516D02*
X268765D01*
X268061Y185224D01*
X227367D01*
X262249Y204417D02*
X262724Y204427D01*
X280735Y193768D02*
X281570Y194114D01*
X346335D01*
X281442Y185224D02*
X280734Y185516D01*
X345674Y185224D02*
X281442D01*
%LPC*%
X281442Y185224D02*
G54D44*
X0Y0D02*
X748031D01*
Y629921D01*
X0D01*
Y0D01*
X748031D01*
Y629921D01*
X0D01*
Y0D01*
G54D45*
X139657Y286551D03*
Y129071D03*
M02*
