G75*
%MOIN*%
%OFA0B0*%
%FSLAX25Y25*%
%IPPOS*%
%LPD*%
%AMOC8*
5,1,8,0,0,1.08239X$1,22.5*
%
%ADD10C,0.00600*%
%ADD11R,0.02500X0.02500*%
%ADD12R,0.06000X0.04500*%
%ADD13R,0.06299X0.07087*%
%ADD14R,0.07100X0.04100*%
%ADD15R,0.04900X0.02400*%
%ADD16R,0.03150X0.03937*%
%ADD17R,0.03937X0.03150*%
%ADD18R,0.05512X0.04331*%
%ADD19R,0.01772X0.01772*%
%ADD20R,0.01575X0.01772*%
%ADD21R,0.06299X0.04724*%
%ADD22R,0.06299X0.12992*%
%ADD23R,0.03000X0.01600*%
%ADD24R,0.01600X0.03000*%
%ADD25R,0.03937X0.05512*%
%ADD26R,0.03150X0.03150*%
%ADD27R,0.03937X0.01654*%
%ADD28R,0.07402X0.06614*%
%ADD29R,0.01772X0.03937*%
%ADD30R,0.04724X0.02165*%
%ADD31R,0.05000X0.02500*%
%ADD32R,0.02500X0.05000*%
%ADD33R,0.05984X0.05984*%
%ADD34R,0.07520X0.07520*%
%ADD35C,0.03937*%
%ADD36R,0.03962X0.03962*%
%ADD37C,0.03962*%
%ADD38R,0.05000X0.03000*%
%ADD39C,0.03200*%
%ADD40C,0.01000*%
%ADD41C,0.02400*%
%ADD42C,0.01600*%
D10*
X0062041Y0015353D02*
X0062041Y0022359D01*
X0065544Y0022359D01*
X0066711Y0021191D01*
X0066711Y0018856D01*
X0065544Y0017688D01*
X0062041Y0017688D01*
X0069038Y0016521D02*
X0070206Y0015353D01*
X0072541Y0015353D01*
X0073709Y0016521D01*
X0073709Y0021191D01*
X0072541Y0022359D01*
X0070206Y0022359D01*
X0069038Y0021191D01*
X0069038Y0016521D01*
X0076036Y0016521D02*
X0077204Y0015353D01*
X0079539Y0015353D01*
X0080707Y0016521D01*
X0083034Y0015353D02*
X0087705Y0022359D01*
X0090032Y0021191D02*
X0090032Y0016521D01*
X0091200Y0015353D01*
X0093535Y0015353D01*
X0094703Y0016521D01*
X0094703Y0021191D01*
X0093535Y0022359D01*
X0091200Y0022359D01*
X0090032Y0021191D01*
X0087705Y0015353D02*
X0083034Y0022359D01*
X0080707Y0021191D02*
X0079539Y0022359D01*
X0077204Y0022359D01*
X0076036Y0021191D01*
X0076036Y0016521D01*
X0077241Y0027313D02*
X0068109Y0027313D01*
X0077241Y0027313D02*
X0083622Y0027313D01*
X0083622Y0031053D02*
X0072991Y0031053D01*
X0068109Y0031053D01*
X0068109Y0034793D02*
X0077241Y0034793D01*
X0083622Y0034793D01*
X0082741Y0040303D02*
X0073850Y0040303D01*
X0065241Y0040303D02*
X0061500Y0040303D01*
X0057981Y0040303D02*
X0057872Y0040194D01*
X0057872Y0034793D01*
X0082741Y0040303D02*
X0091491Y0040303D01*
X0093859Y0037935D01*
X0093859Y0034793D01*
X0142991Y0035662D02*
X0142991Y0040044D01*
X0142731Y0040303D01*
X0146241Y0040294D02*
X0146250Y0040303D01*
X0146241Y0040294D02*
X0146241Y0037053D01*
X0147741Y0035553D01*
X0148991Y0035553D01*
X0150241Y0035553D01*
X0151241Y0034553D01*
X0154496Y0034553D01*
X0154526Y0034583D01*
X0132140Y0063553D02*
X0132241Y0063654D01*
X0132241Y0067553D01*
X0125841Y0063553D02*
X0116491Y0063553D01*
X0102241Y0069053D02*
X0097241Y0064053D01*
X0102241Y0069053D02*
X0102241Y0080154D01*
X0102241Y0086453D02*
X0102241Y0089303D01*
X0103491Y0090553D01*
X0117991Y0090553D01*
X0119741Y0092303D01*
X0124957Y0092303D01*
X0117741Y0096553D02*
X0117241Y0097053D01*
X0117241Y0099553D01*
X0117741Y0100053D01*
X0118600Y0102303D02*
X0118600Y0103694D01*
X0117991Y0104303D01*
X0118600Y0103944D02*
X0118600Y0102303D01*
X0118241Y0105053D02*
X0118241Y0107803D01*
X0117991Y0108053D01*
X0117991Y0105553D02*
X0117991Y0105303D01*
X0132241Y0103583D02*
X0132241Y0107803D01*
X0158241Y0115803D02*
X0158241Y0119044D01*
X0158241Y0122562D02*
X0163722Y0122562D01*
X0163741Y0122544D01*
X0170578Y0122544D01*
X0170642Y0122608D01*
X0176092Y0122725D02*
X0200491Y0122725D01*
X0200491Y0123323D02*
X0176092Y0123323D01*
X0176092Y0123922D02*
X0200491Y0123922D01*
X0200491Y0124520D02*
X0176092Y0124520D01*
X0176092Y0125119D02*
X0200491Y0125119D01*
X0200491Y0125717D02*
X0176092Y0125717D01*
X0176092Y0125923D02*
X0175491Y0126524D01*
X0175491Y0126553D01*
X0200491Y0126553D01*
X0200491Y0100803D01*
X0175712Y0100803D01*
X0176092Y0101183D01*
X0176092Y0107813D01*
X0175491Y0108414D01*
X0175491Y0109053D01*
X0174851Y0109053D01*
X0174744Y0109160D01*
X0166540Y0109160D01*
X0166433Y0109053D01*
X0165991Y0109053D01*
X0165991Y0116665D01*
X0166141Y0117027D01*
X0166141Y0118053D01*
X0166433Y0118053D01*
X0166540Y0117946D01*
X0174744Y0117946D01*
X0174851Y0118053D01*
X0175491Y0118053D01*
X0175491Y0118692D01*
X0176092Y0119293D01*
X0176092Y0125923D01*
X0175699Y0126316D02*
X0200491Y0126316D01*
X0200491Y0122126D02*
X0176092Y0122126D01*
X0176092Y0121528D02*
X0200491Y0121528D01*
X0200491Y0120929D02*
X0176092Y0120929D01*
X0176092Y0120331D02*
X0200491Y0120331D01*
X0200491Y0119732D02*
X0176092Y0119732D01*
X0175932Y0119134D02*
X0200491Y0119134D01*
X0200491Y0118535D02*
X0175491Y0118535D01*
X0166141Y0117937D02*
X0200491Y0117937D01*
X0200491Y0117338D02*
X0166141Y0117338D01*
X0166021Y0116740D02*
X0200491Y0116740D01*
X0200491Y0116141D02*
X0165991Y0116141D01*
X0165991Y0115543D02*
X0200491Y0115543D01*
X0200491Y0114944D02*
X0165991Y0114944D01*
X0165991Y0114346D02*
X0200491Y0114346D01*
X0200491Y0113747D02*
X0165991Y0113747D01*
X0165991Y0113149D02*
X0200491Y0113149D01*
X0200491Y0112550D02*
X0165991Y0112550D01*
X0165991Y0111952D02*
X0200491Y0111952D01*
X0200491Y0111353D02*
X0165991Y0111353D01*
X0165991Y0110755D02*
X0200491Y0110755D01*
X0200491Y0110156D02*
X0165991Y0110156D01*
X0165991Y0109557D02*
X0200491Y0109557D01*
X0200491Y0108959D02*
X0175491Y0108959D01*
X0175544Y0108360D02*
X0200491Y0108360D01*
X0200491Y0107762D02*
X0176092Y0107762D01*
X0176092Y0107163D02*
X0200491Y0107163D01*
X0200491Y0106565D02*
X0176092Y0106565D01*
X0176092Y0105966D02*
X0200491Y0105966D01*
X0200491Y0105368D02*
X0176092Y0105368D01*
X0176092Y0104769D02*
X0200491Y0104769D01*
X0200491Y0104171D02*
X0176092Y0104171D01*
X0176092Y0103572D02*
X0200491Y0103572D01*
X0200491Y0102974D02*
X0176092Y0102974D01*
X0176092Y0102375D02*
X0200491Y0102375D01*
X0200491Y0101777D02*
X0176092Y0101777D01*
X0176087Y0101178D02*
X0200491Y0101178D01*
X0180741Y0093553D02*
X0180741Y0081053D01*
X0177741Y0081053D01*
X0177741Y0093553D01*
X0180741Y0093553D01*
X0180741Y0093398D02*
X0177741Y0093398D01*
X0177741Y0092799D02*
X0180741Y0092799D01*
X0180741Y0092201D02*
X0177741Y0092201D01*
X0177741Y0091602D02*
X0180741Y0091602D01*
X0180741Y0091004D02*
X0177741Y0091004D01*
X0177741Y0090405D02*
X0180741Y0090405D01*
X0180741Y0089807D02*
X0177741Y0089807D01*
X0177741Y0089208D02*
X0180741Y0089208D01*
X0180741Y0088610D02*
X0177741Y0088610D01*
X0177741Y0088011D02*
X0180741Y0088011D01*
X0180441Y0088011D02*
X0169241Y0088011D01*
X0169241Y0088503D02*
X0169241Y0086103D01*
X0180441Y0086103D01*
X0180441Y0088503D01*
X0169241Y0088503D01*
X0169241Y0087413D02*
X0180441Y0087413D01*
X0180741Y0087413D02*
X0177741Y0087413D01*
X0177741Y0086814D02*
X0180741Y0086814D01*
X0180441Y0086814D02*
X0169241Y0086814D01*
X0169241Y0086216D02*
X0180441Y0086216D01*
X0180741Y0086216D02*
X0177741Y0086216D01*
X0177741Y0085617D02*
X0180741Y0085617D01*
X0180741Y0085019D02*
X0177741Y0085019D01*
X0177741Y0084420D02*
X0180741Y0084420D01*
X0180741Y0083821D02*
X0177741Y0083821D01*
X0177741Y0083223D02*
X0180741Y0083223D01*
X0180741Y0082624D02*
X0177741Y0082624D01*
X0177741Y0082026D02*
X0180741Y0082026D01*
X0180741Y0081427D02*
X0177741Y0081427D01*
X0132241Y0081024D02*
X0132241Y0076803D01*
X0094991Y0089803D02*
X0088241Y0096553D01*
X0088241Y0097553D01*
X0086705Y0099768D02*
X0091241Y0104303D01*
X0091241Y0111541D01*
X0091252Y0111553D01*
X0091252Y0121303D01*
X0096991Y0121303D01*
X0101741Y0118404D02*
X0101841Y0118303D01*
X0105991Y0118303D01*
X0106140Y0124703D02*
X0101741Y0124703D01*
X0106140Y0124703D02*
X0106241Y0124803D01*
X0080229Y0121303D02*
X0080229Y0111553D01*
X0071250Y0111553D01*
X0071350Y0111453D01*
X0071350Y0106303D01*
X0067631Y0106303D02*
X0067491Y0106162D01*
X0067491Y0104053D01*
X0068241Y0103303D01*
X0077741Y0103303D01*
X0078020Y0103024D01*
X0078020Y0099768D01*
X0077991Y0099738D01*
X0077991Y0095803D01*
X0080981Y0092812D01*
X0086991Y0092812D01*
X0086991Y0089294D02*
X0080231Y0089294D01*
X0077991Y0087053D01*
X0077991Y0082868D01*
X0078020Y0082839D01*
X0077991Y0082809D01*
X0077991Y0076562D01*
X0077991Y0073044D02*
X0077991Y0069803D01*
X0078020Y0082839D02*
X0075461Y0082839D01*
X0072902Y0082839D02*
X0068991Y0082839D01*
X0064767Y0082839D01*
X0064741Y0082812D01*
X0065741Y0090053D02*
X0065741Y0093944D01*
X0065772Y0093912D01*
X0073600Y0093912D01*
X0075491Y0095803D01*
X0075491Y0099738D01*
X0075461Y0099768D01*
X0080579Y0099768D02*
X0086705Y0099768D01*
X0067631Y0106303D02*
X0067631Y0111453D01*
X0067731Y0111553D01*
X0037491Y0105303D02*
X0035817Y0106976D01*
X0029898Y0106976D01*
X0027241Y0106976D01*
X0024583Y0106976D01*
X0024583Y0103630D02*
X0024583Y0099405D01*
X0024241Y0099062D01*
X0027241Y0101803D02*
X0028241Y0100803D01*
X0030991Y0100803D01*
X0031491Y0100303D01*
X0031491Y0099062D01*
X0031491Y0095544D02*
X0041981Y0095544D01*
X0041991Y0095553D01*
X0028241Y0089803D02*
X0028131Y0089694D01*
X0028131Y0085803D01*
X0024741Y0085803D01*
X0023241Y0084303D01*
X0023241Y0078803D01*
X0028241Y0078803D02*
X0033850Y0078803D01*
X0033991Y0078662D01*
X0034122Y0078794D01*
X0039241Y0078794D01*
X0039250Y0078803D01*
X0043991Y0078803D01*
X0023241Y0073803D02*
X0023100Y0073662D01*
X0017241Y0073662D01*
X0017241Y0077303D01*
X0021491Y0068803D02*
X0023241Y0068803D01*
X0021491Y0068803D02*
X0016741Y0064053D01*
X0016741Y0057912D01*
X0018881Y0057912D01*
X0020991Y0055803D01*
X0020991Y0052303D01*
X0022750Y0050544D01*
X0029544Y0050544D01*
X0035491Y0050544D01*
X0035491Y0054062D02*
X0035491Y0059303D01*
X0033491Y0061303D01*
X0030741Y0061303D01*
X0028241Y0063803D01*
X0027241Y0101803D02*
X0027241Y0103630D01*
X0029898Y0103630D02*
X0033664Y0103630D01*
X0033741Y0103553D01*
D11*
X0065741Y0097662D03*
X0065741Y0093944D03*
X0086741Y0082537D03*
X0086741Y0078819D03*
X0112741Y0076662D03*
X0112741Y0072944D03*
X0120741Y0070662D03*
X0120741Y0066944D03*
X0143491Y0066944D03*
X0143491Y0070662D03*
X0151131Y0073053D03*
X0154850Y0073053D03*
X0163131Y0082303D03*
X0166850Y0082303D03*
X0154850Y0087303D03*
X0151131Y0087303D03*
X0163381Y0092303D03*
X0167100Y0092303D03*
X0154850Y0102553D03*
X0151131Y0102553D03*
X0159131Y0106803D03*
X0162850Y0106803D03*
X0154850Y0111303D03*
X0151131Y0111303D03*
X0143491Y0121694D03*
X0143491Y0125412D03*
X0132241Y0125412D03*
X0132241Y0121694D03*
X0120741Y0121694D03*
X0120741Y0125412D03*
X0111850Y0111303D03*
X0108131Y0111303D03*
X0114881Y0102303D03*
X0118600Y0102303D03*
X0071350Y0106303D03*
X0067631Y0106303D03*
X0031850Y0085803D03*
X0028131Y0085803D03*
X0033991Y0078662D03*
X0033991Y0074944D03*
X0034241Y0068662D03*
X0034241Y0064944D03*
X0017241Y0069944D03*
X0017241Y0073662D03*
X0016741Y0057912D03*
X0016741Y0054194D03*
X0052491Y0031162D03*
X0052491Y0027444D03*
X0070131Y0040303D03*
X0073850Y0040303D03*
X0108991Y0034162D03*
X0108991Y0030444D03*
X0142991Y0031944D03*
X0142991Y0035662D03*
X0196741Y0063194D03*
X0196741Y0066912D03*
D12*
X0181741Y0037300D03*
X0181741Y0029807D03*
X0133741Y0031807D03*
X0133741Y0039300D03*
X0112491Y0086807D03*
X0112491Y0094300D03*
D13*
X0091252Y0111553D03*
X0080229Y0111553D03*
X0080229Y0121303D03*
X0091252Y0121303D03*
D14*
X0184741Y0076703D03*
X0184741Y0063903D03*
D15*
X0188391Y0070303D03*
X0181091Y0070303D03*
D16*
X0102241Y0080154D03*
X0102241Y0086453D03*
X0101741Y0118404D03*
X0101741Y0124703D03*
X0101491Y0036703D03*
X0101491Y0030404D03*
D17*
X0125841Y0063553D03*
X0132140Y0063553D03*
D18*
X0094991Y0069807D03*
X0094991Y0082799D03*
X0042741Y0068549D03*
X0042741Y0055557D03*
D19*
X0029898Y0103630D03*
X0029898Y0106976D03*
X0024583Y0106976D03*
X0024583Y0103630D03*
D20*
X0027241Y0103630D03*
X0027241Y0106976D03*
D21*
X0170642Y0104498D03*
X0170642Y0113553D03*
X0170642Y0122608D03*
D22*
X0195839Y0113553D03*
D23*
X0163741Y0122544D03*
X0163741Y0126062D03*
X0158241Y0122562D03*
X0158241Y0119044D03*
X0157491Y0095812D03*
X0157491Y0092294D03*
X0157491Y0082312D03*
X0157491Y0078794D03*
X0086991Y0089294D03*
X0086991Y0092812D03*
X0064741Y0082812D03*
X0064741Y0079294D03*
X0077991Y0076562D03*
X0077991Y0073044D03*
X0039241Y0078794D03*
X0039241Y0082312D03*
X0031491Y0095544D03*
X0031491Y0099062D03*
X0024241Y0099062D03*
X0024241Y0095544D03*
X0035491Y0054062D03*
X0035491Y0050544D03*
D24*
X0057981Y0040303D03*
X0061500Y0040303D03*
X0142731Y0040303D03*
X0146250Y0040303D03*
X0071250Y0111553D03*
X0067731Y0111553D03*
D25*
X0124957Y0102303D03*
X0139524Y0102303D03*
X0139524Y0092303D03*
X0124957Y0092303D03*
X0124957Y0082303D03*
X0139524Y0082303D03*
D26*
X0132241Y0081024D03*
X0132241Y0103583D03*
D27*
X0154526Y0037142D03*
X0154526Y0034583D03*
X0154526Y0032024D03*
X0154526Y0029465D03*
X0171455Y0029465D03*
X0171455Y0032024D03*
X0171455Y0034583D03*
X0171455Y0037142D03*
D28*
X0162991Y0033303D03*
D29*
X0080579Y0082839D03*
X0078020Y0082839D03*
X0075461Y0082839D03*
X0072902Y0082839D03*
X0072902Y0099768D03*
X0075461Y0099768D03*
X0078020Y0099768D03*
X0080579Y0099768D03*
D30*
X0083622Y0034793D03*
X0083622Y0031053D03*
X0083622Y0027313D03*
X0093859Y0027313D03*
X0093859Y0031053D03*
X0093859Y0034793D03*
X0068109Y0034793D03*
X0068109Y0031053D03*
X0068109Y0027313D03*
X0057872Y0027313D03*
X0057872Y0031053D03*
X0057872Y0034793D03*
D31*
X0060396Y0052178D03*
X0083987Y0052147D03*
X0108002Y0052147D03*
X0131624Y0052147D03*
X0154853Y0052147D03*
X0178868Y0052147D03*
X0202097Y0052147D03*
X0202097Y0134824D03*
X0178081Y0134824D03*
X0154853Y0134824D03*
X0131624Y0134824D03*
X0107609Y0134824D03*
X0083987Y0134824D03*
X0060758Y0134824D03*
D32*
X0054459Y0128918D03*
X0054459Y0105296D03*
X0054459Y0081674D03*
X0054459Y0058446D03*
X0208002Y0058052D03*
X0208002Y0081674D03*
X0208002Y0105296D03*
X0208002Y0128525D03*
D33*
X0232991Y0068803D03*
D34*
X0242321Y0059472D03*
X0223660Y0059472D03*
X0223660Y0078134D03*
X0242321Y0078134D03*
D35*
X0212241Y0019303D03*
X0050991Y0019303D03*
X0018491Y0106053D03*
D36*
X0023241Y0078803D03*
D37*
X0028241Y0078803D03*
X0028241Y0073803D03*
X0023241Y0073803D03*
X0023241Y0068803D03*
X0028241Y0068803D03*
X0028241Y0063803D03*
X0023241Y0063803D03*
X0023241Y0058803D03*
X0028241Y0058803D03*
D38*
X0173741Y0082303D03*
X0173741Y0087303D03*
X0173741Y0092303D03*
X0184741Y0092303D03*
X0184741Y0082303D03*
D39*
X0179241Y0082553D03*
X0179241Y0087303D03*
X0179241Y0092053D03*
X0178991Y0096803D03*
X0184491Y0096803D03*
X0189991Y0096803D03*
X0195491Y0096803D03*
X0189991Y0092303D03*
X0189741Y0087803D03*
X0193491Y0087803D03*
X0202991Y0088303D03*
X0213241Y0088053D03*
X0221491Y0086303D03*
X0226491Y0086303D03*
X0232991Y0086303D03*
X0240491Y0086303D03*
X0244741Y0086303D03*
X0232741Y0080803D03*
X0230991Y0076053D03*
X0234991Y0076053D03*
X0242241Y0071553D03*
X0247241Y0071553D03*
X0247491Y0066303D03*
X0242241Y0066303D03*
X0234991Y0061303D03*
X0230991Y0061303D03*
X0232991Y0056803D03*
X0233241Y0051303D03*
X0240491Y0051303D03*
X0244991Y0051303D03*
X0226491Y0051303D03*
X0221741Y0051303D03*
X0212741Y0054553D03*
X0203741Y0056553D03*
X0196991Y0058053D03*
X0191991Y0058803D03*
X0186741Y0057303D03*
X0181241Y0057303D03*
X0190241Y0052053D03*
X0178491Y0047053D03*
X0179741Y0042553D03*
X0175991Y0041053D03*
X0175991Y0037303D03*
X0171491Y0041053D03*
X0167241Y0040303D03*
X0163241Y0040303D03*
X0159241Y0040303D03*
X0154491Y0040303D03*
X0149991Y0039803D03*
X0148991Y0035553D03*
X0139241Y0035053D03*
X0139241Y0039803D03*
X0142741Y0043553D03*
X0133741Y0043553D03*
X0131241Y0046803D03*
X0122491Y0043053D03*
X0127741Y0041303D03*
X0127741Y0037553D03*
X0113491Y0034553D03*
X0108991Y0038303D03*
X0105241Y0034053D03*
X0115241Y0030303D03*
X0098241Y0027313D03*
X0088741Y0028053D03*
X0088741Y0033803D03*
X0082741Y0040303D03*
X0087241Y0043303D03*
X0077741Y0043303D03*
X0087241Y0047803D03*
X0096241Y0040553D03*
X0101491Y0042053D03*
X0112241Y0043053D03*
X0119241Y0052053D03*
X0130991Y0056803D03*
X0120741Y0060303D03*
X0116491Y0063553D03*
X0107991Y0065803D03*
X0106241Y0070303D03*
X0115741Y0071053D03*
X0127741Y0071803D03*
X0132241Y0067553D03*
X0137241Y0063553D03*
X0143491Y0063553D03*
X0152491Y0063553D03*
X0160991Y0063553D03*
X0169991Y0063303D03*
X0176991Y0062553D03*
X0176991Y0066553D03*
X0176741Y0070303D03*
X0176991Y0074303D03*
X0172491Y0076803D03*
X0166741Y0076803D03*
X0161241Y0076553D03*
X0157491Y0075303D03*
X0150491Y0077303D03*
X0146491Y0077303D03*
X0147991Y0071553D03*
X0157741Y0070053D03*
X0165491Y0070053D03*
X0191741Y0067303D03*
X0196741Y0069803D03*
X0197241Y0075803D03*
X0192241Y0075303D03*
X0202991Y0075303D03*
X0202991Y0079553D03*
X0198741Y0081803D03*
X0191241Y0081303D03*
X0213241Y0079553D03*
X0213241Y0075053D03*
X0217741Y0074553D03*
X0226491Y0068803D03*
X0221491Y0065303D03*
X0213241Y0065053D03*
X0213241Y0060803D03*
X0202991Y0060803D03*
X0202991Y0065053D03*
X0212741Y0047053D03*
X0214741Y0040303D03*
X0197241Y0037553D03*
X0187491Y0037303D03*
X0184491Y0042553D03*
X0175991Y0033303D03*
X0167241Y0026553D03*
X0163241Y0026553D03*
X0159241Y0026553D03*
X0150491Y0026303D03*
X0145741Y0026303D03*
X0133491Y0027053D03*
X0133741Y0015303D03*
X0158491Y0015053D03*
X0189241Y0015053D03*
X0197491Y0022803D03*
X0197241Y0030053D03*
X0188741Y0030303D03*
X0214741Y0027303D03*
X0166741Y0052053D03*
X0153991Y0047053D03*
X0142991Y0052053D03*
X0153741Y0056803D03*
X0136991Y0072053D03*
X0132241Y0076803D03*
X0124991Y0078053D03*
X0119991Y0078053D03*
X0119991Y0081803D03*
X0116241Y0079803D03*
X0112491Y0081803D03*
X0116241Y0084053D03*
X0119991Y0085803D03*
X0124991Y0086303D03*
X0132241Y0087303D03*
X0132241Y0092303D03*
X0132241Y0097303D03*
X0135741Y0098553D03*
X0128741Y0098553D03*
X0124991Y0097803D03*
X0117991Y0097803D03*
X0113491Y0097803D03*
X0111741Y0102303D03*
X0104491Y0105053D03*
X0099491Y0105053D03*
X0101491Y0100303D03*
X0095241Y0100303D03*
X0088241Y0097553D03*
X0098241Y0092553D03*
X0094991Y0089803D03*
X0104491Y0093803D03*
X0106241Y0087803D03*
X0106241Y0083553D03*
X0106241Y0078803D03*
X0086741Y0075303D03*
X0081991Y0078303D03*
X0068991Y0082839D03*
X0058991Y0084553D03*
X0065741Y0090053D03*
X0076741Y0091303D03*
X0069741Y0099803D03*
X0065741Y0101803D03*
X0054241Y0095053D03*
X0041991Y0095553D03*
X0028241Y0089803D03*
X0024241Y0091553D03*
X0019991Y0095553D03*
X0015241Y0099303D03*
X0033741Y0103553D03*
X0037491Y0105303D03*
X0040991Y0108553D03*
X0044991Y0108553D03*
X0049741Y0105303D03*
X0049741Y0117053D03*
X0058491Y0116803D03*
X0068741Y0120053D03*
X0074741Y0114303D03*
X0074741Y0108803D03*
X0081491Y0105053D03*
X0099491Y0112303D03*
X0104491Y0112303D03*
X0113491Y0108053D03*
X0117991Y0108053D03*
X0119991Y0111303D03*
X0123491Y0110303D03*
X0126991Y0110303D03*
X0124991Y0107053D03*
X0132241Y0107803D03*
X0137491Y0110303D03*
X0140991Y0110303D03*
X0146741Y0106303D03*
X0150491Y0107053D03*
X0158991Y0111303D03*
X0158241Y0115803D03*
X0162241Y0117803D03*
X0150491Y0116553D03*
X0150491Y0120803D03*
X0138041Y0121180D03*
X0132241Y0117803D03*
X0126466Y0121201D03*
X0126491Y0127303D03*
X0138241Y0127303D03*
X0142991Y0134803D03*
X0150491Y0127303D03*
X0163741Y0129553D03*
X0166741Y0134553D03*
X0178991Y0140303D03*
X0190241Y0134803D03*
X0203491Y0130303D03*
X0212741Y0128553D03*
X0194991Y0123303D03*
X0188991Y0123303D03*
X0183241Y0123303D03*
X0177741Y0123303D03*
X0177491Y0118303D03*
X0177491Y0113553D03*
X0183241Y0113553D03*
X0189241Y0113553D03*
X0189241Y0108803D03*
X0189241Y0104053D03*
X0194991Y0104053D03*
X0183241Y0104053D03*
X0177491Y0104053D03*
X0177491Y0108803D03*
X0163241Y0102053D03*
X0158991Y0102553D03*
X0157491Y0099053D03*
X0161241Y0098053D03*
X0168241Y0097803D03*
X0173241Y0097553D03*
X0167741Y0087303D03*
X0162991Y0087303D03*
X0158241Y0087303D03*
X0148241Y0087303D03*
X0144741Y0087303D03*
X0146491Y0097303D03*
X0150491Y0097303D03*
X0146491Y0101803D03*
X0115741Y0111303D03*
X0113741Y0116803D03*
X0113741Y0120803D03*
X0105991Y0118303D03*
X0096991Y0121303D03*
X0106241Y0124803D03*
X0113991Y0127303D03*
X0119491Y0134553D03*
X0095991Y0134803D03*
X0084491Y0130053D03*
X0072241Y0134553D03*
X0058741Y0130553D03*
X0049741Y0128553D03*
X0049741Y0139553D03*
X0017241Y0089053D03*
X0016991Y0083303D03*
X0017241Y0077303D03*
X0034491Y0082303D03*
X0039241Y0085803D03*
X0043991Y0082803D03*
X0043991Y0078803D03*
X0049491Y0078553D03*
X0042741Y0073303D03*
X0038241Y0075553D03*
X0037241Y0071803D03*
X0037741Y0065053D03*
X0037741Y0061053D03*
X0032491Y0058053D03*
X0024991Y0053303D03*
X0029544Y0050544D03*
X0018741Y0050303D03*
X0019491Y0061553D03*
X0042741Y0051053D03*
X0049741Y0052053D03*
X0054741Y0047803D03*
X0066491Y0047303D03*
X0065241Y0040303D03*
X0077241Y0034793D03*
X0072991Y0031053D03*
X0077241Y0027313D03*
X0062991Y0031053D03*
X0051741Y0035553D03*
X0048491Y0031553D03*
X0048491Y0027303D03*
X0057741Y0021553D03*
X0046991Y0014553D03*
X0058741Y0056303D03*
X0049741Y0059303D03*
X0065741Y0063053D03*
X0078241Y0056803D03*
X0091991Y0064053D03*
X0097241Y0064053D03*
X0105241Y0056803D03*
X0077991Y0069803D03*
X0068491Y0075053D03*
X0062991Y0075053D03*
X0057991Y0070303D03*
X0188991Y0118553D03*
X0207991Y0116803D03*
X0212991Y0116803D03*
X0223991Y0107803D03*
X0213241Y0105303D03*
X0207741Y0093553D03*
X0239491Y0107803D03*
X0212491Y0139803D03*
D40*
X0045741Y0045717D02*
X0045741Y0013303D01*
X0216741Y0013303D01*
X0216741Y0045717D01*
X0217326Y0046303D01*
X0248741Y0046303D01*
X0248741Y0110303D01*
X0217326Y0110303D01*
X0216741Y0110889D01*
X0216741Y0143303D01*
X0045741Y0143303D01*
X0045741Y0111139D01*
X0045155Y0110553D01*
X0013741Y0110553D01*
X0013741Y0046303D01*
X0045155Y0046303D01*
X0045741Y0045717D01*
X0045707Y0045751D02*
X0216774Y0045751D01*
X0216741Y0044752D02*
X0102029Y0044752D01*
X0102028Y0044753D02*
X0100953Y0044753D01*
X0099961Y0044342D01*
X0099202Y0043583D01*
X0098791Y0042590D01*
X0098791Y0041516D01*
X0099202Y0040524D01*
X0099591Y0040135D01*
X0099591Y0039771D01*
X0099460Y0039771D01*
X0098816Y0039127D01*
X0098816Y0034279D01*
X0099416Y0033679D01*
X0099416Y0033428D01*
X0098816Y0032828D01*
X0098816Y0029997D01*
X0098778Y0030013D01*
X0097721Y0030013D01*
X0097721Y0031012D01*
X0093900Y0031012D01*
X0093900Y0031094D01*
X0097721Y0031094D01*
X0097721Y0032333D01*
X0097619Y0032715D01*
X0097422Y0033057D01*
X0097272Y0033206D01*
X0097321Y0033255D01*
X0097321Y0036332D01*
X0096677Y0036976D01*
X0095259Y0036976D01*
X0095259Y0038515D01*
X0094439Y0039335D01*
X0092891Y0040883D01*
X0092070Y0041703D01*
X0085083Y0041703D01*
X0085029Y0041833D01*
X0084270Y0042592D01*
X0083278Y0043003D01*
X0082203Y0043003D01*
X0081211Y0042592D01*
X0080452Y0041833D01*
X0080398Y0041703D01*
X0076200Y0041703D01*
X0076200Y0042009D01*
X0075555Y0042653D01*
X0072403Y0042653D01*
X0072302Y0042753D01*
X0071960Y0042951D01*
X0071579Y0043053D01*
X0070256Y0043053D01*
X0070256Y0040428D01*
X0070006Y0040428D01*
X0070006Y0043053D01*
X0068684Y0043053D01*
X0068302Y0042951D01*
X0067960Y0042753D01*
X0067681Y0042474D01*
X0067484Y0042132D01*
X0067430Y0041932D01*
X0066770Y0042592D01*
X0065778Y0043003D01*
X0064703Y0043003D01*
X0063711Y0042592D01*
X0063389Y0042270D01*
X0062755Y0042903D01*
X0060244Y0042903D01*
X0059741Y0042400D01*
X0059237Y0042903D01*
X0056726Y0042903D01*
X0056081Y0042259D01*
X0056081Y0038347D01*
X0056472Y0037957D01*
X0056472Y0036976D01*
X0055054Y0036976D01*
X0054410Y0036332D01*
X0054410Y0033758D01*
X0054320Y0033810D01*
X0053938Y0033912D01*
X0052616Y0033912D01*
X0052616Y0031287D01*
X0054010Y0031287D01*
X0054010Y0031094D01*
X0057831Y0031094D01*
X0057831Y0031012D01*
X0055241Y0031012D01*
X0055241Y0031037D01*
X0052616Y0031037D01*
X0052616Y0031287D01*
X0052366Y0031287D01*
X0052366Y0033912D01*
X0051043Y0033912D01*
X0050662Y0033810D01*
X0050320Y0033612D01*
X0050040Y0033333D01*
X0049843Y0032991D01*
X0049741Y0032610D01*
X0049741Y0031287D01*
X0052365Y0031287D01*
X0052365Y0031037D01*
X0049741Y0031037D01*
X0049741Y0029715D01*
X0049743Y0029707D01*
X0049028Y0030003D01*
X0047953Y0030003D01*
X0046961Y0029592D01*
X0046202Y0028833D01*
X0045791Y0027840D01*
X0045791Y0026766D01*
X0046202Y0025774D01*
X0046961Y0025014D01*
X0047953Y0024603D01*
X0049028Y0024603D01*
X0050020Y0025014D01*
X0050409Y0025403D01*
X0050476Y0025403D01*
X0050785Y0025094D01*
X0054196Y0025094D01*
X0054643Y0025541D01*
X0055054Y0025130D01*
X0060690Y0025130D01*
X0061334Y0025775D01*
X0061334Y0028851D01*
X0061285Y0028900D01*
X0061435Y0029049D01*
X0061632Y0029391D01*
X0061734Y0029773D01*
X0061734Y0031012D01*
X0057913Y0031012D01*
X0057913Y0031094D01*
X0061734Y0031094D01*
X0061734Y0032333D01*
X0061632Y0032715D01*
X0061435Y0033057D01*
X0061285Y0033206D01*
X0061334Y0033255D01*
X0061334Y0036332D01*
X0060690Y0036976D01*
X0059272Y0036976D01*
X0059272Y0037738D01*
X0059741Y0038207D01*
X0060244Y0037703D01*
X0062755Y0037703D01*
X0063389Y0038337D01*
X0063711Y0038014D01*
X0064703Y0037603D01*
X0065778Y0037603D01*
X0066770Y0038014D01*
X0067430Y0038674D01*
X0067484Y0038474D01*
X0067681Y0038132D01*
X0067960Y0037853D01*
X0068302Y0037655D01*
X0068684Y0037553D01*
X0070006Y0037553D01*
X0070006Y0040178D01*
X0070256Y0040178D01*
X0070256Y0037553D01*
X0071579Y0037553D01*
X0071960Y0037655D01*
X0072302Y0037853D01*
X0072403Y0037953D01*
X0075555Y0037953D01*
X0076200Y0038597D01*
X0076200Y0038903D01*
X0080398Y0038903D01*
X0080452Y0038774D01*
X0081211Y0038014D01*
X0082203Y0037603D01*
X0083278Y0037603D01*
X0084270Y0038014D01*
X0085029Y0038774D01*
X0085083Y0038903D01*
X0090911Y0038903D01*
X0092459Y0037355D01*
X0092459Y0036976D01*
X0091041Y0036976D01*
X0090397Y0036332D01*
X0090397Y0033255D01*
X0090446Y0033206D01*
X0090297Y0033057D01*
X0090099Y0032715D01*
X0089997Y0032333D01*
X0089997Y0031094D01*
X0093818Y0031094D01*
X0093818Y0031012D01*
X0089997Y0031012D01*
X0089997Y0029773D01*
X0090099Y0029391D01*
X0090297Y0029049D01*
X0090446Y0028900D01*
X0090397Y0028851D01*
X0090397Y0025775D01*
X0091041Y0025130D01*
X0096605Y0025130D01*
X0096711Y0025024D01*
X0097703Y0024613D01*
X0098778Y0024613D01*
X0099770Y0025024D01*
X0100159Y0025413D01*
X0101287Y0025413D01*
X0102278Y0026403D01*
X0103209Y0027335D01*
X0103521Y0027335D01*
X0104165Y0027979D01*
X0104165Y0028504D01*
X0106875Y0028504D01*
X0107285Y0028094D01*
X0110696Y0028094D01*
X0111146Y0028544D01*
X0113181Y0028544D01*
X0113711Y0028014D01*
X0114703Y0027603D01*
X0115778Y0027603D01*
X0116770Y0028014D01*
X0117529Y0028774D01*
X0117941Y0029766D01*
X0117941Y0030840D01*
X0117529Y0031833D01*
X0116770Y0032592D01*
X0115778Y0033003D01*
X0114703Y0033003D01*
X0113711Y0032592D01*
X0113463Y0032344D01*
X0111641Y0032344D01*
X0111741Y0032715D01*
X0111741Y0034037D01*
X0109116Y0034037D01*
X0109116Y0034287D01*
X0111741Y0034287D01*
X0111741Y0035610D01*
X0111638Y0035991D01*
X0111441Y0036333D01*
X0111162Y0036612D01*
X0110820Y0036810D01*
X0110438Y0036912D01*
X0109116Y0036912D01*
X0109116Y0034287D01*
X0108866Y0034287D01*
X0108866Y0036912D01*
X0107543Y0036912D01*
X0107162Y0036810D01*
X0106820Y0036612D01*
X0106540Y0036333D01*
X0106343Y0035991D01*
X0106241Y0035610D01*
X0106241Y0034287D01*
X0108865Y0034287D01*
X0108865Y0034037D01*
X0106241Y0034037D01*
X0106241Y0032715D01*
X0106343Y0032333D01*
X0106360Y0032303D01*
X0104165Y0032303D01*
X0104165Y0032828D01*
X0103565Y0033428D01*
X0103565Y0033679D01*
X0104165Y0034279D01*
X0104165Y0039127D01*
X0103521Y0039771D01*
X0103391Y0039771D01*
X0103391Y0040135D01*
X0103779Y0040524D01*
X0104191Y0041516D01*
X0104191Y0042590D01*
X0103779Y0043583D01*
X0103020Y0044342D01*
X0102028Y0044753D01*
X0100952Y0044752D02*
X0045741Y0044752D01*
X0045741Y0043754D02*
X0099373Y0043754D01*
X0098859Y0042755D02*
X0083875Y0042755D01*
X0085061Y0041757D02*
X0098791Y0041757D01*
X0099104Y0040758D02*
X0093015Y0040758D01*
X0094014Y0039760D02*
X0099449Y0039760D01*
X0098816Y0038761D02*
X0095012Y0038761D01*
X0095259Y0037763D02*
X0098816Y0037763D01*
X0098816Y0036764D02*
X0096888Y0036764D01*
X0097321Y0035766D02*
X0098816Y0035766D01*
X0098816Y0034767D02*
X0097321Y0034767D01*
X0097321Y0033769D02*
X0099325Y0033769D01*
X0098816Y0032770D02*
X0097587Y0032770D01*
X0097721Y0031772D02*
X0098816Y0031772D01*
X0098816Y0030773D02*
X0097721Y0030773D01*
X0102654Y0026779D02*
X0130791Y0026779D01*
X0130791Y0026516D02*
X0131202Y0025524D01*
X0131961Y0024764D01*
X0132953Y0024353D01*
X0134028Y0024353D01*
X0135020Y0024764D01*
X0135779Y0025524D01*
X0136191Y0026516D01*
X0136191Y0027590D01*
X0135832Y0028457D01*
X0137196Y0028457D01*
X0137841Y0029101D01*
X0137841Y0029907D01*
X0140972Y0029907D01*
X0141285Y0029594D01*
X0144696Y0029594D01*
X0145146Y0030044D01*
X0151457Y0030044D01*
X0151457Y0028182D01*
X0152102Y0027538D01*
X0156950Y0027538D01*
X0157594Y0028182D01*
X0157594Y0035294D01*
X0157695Y0035394D01*
X0157892Y0035736D01*
X0157994Y0036117D01*
X0157994Y0037142D01*
X0157994Y0038166D01*
X0157892Y0038547D01*
X0157695Y0038889D01*
X0157415Y0039169D01*
X0157073Y0039366D01*
X0156692Y0039468D01*
X0154526Y0039468D01*
X0154526Y0037142D01*
X0154526Y0037142D01*
X0154526Y0039468D01*
X0152360Y0039468D01*
X0151978Y0039366D01*
X0151636Y0039169D01*
X0151357Y0038889D01*
X0151160Y0038547D01*
X0151057Y0038166D01*
X0151057Y0037305D01*
X0150520Y0037842D01*
X0149528Y0038253D01*
X0148453Y0038253D01*
X0147774Y0037971D01*
X0148150Y0038347D01*
X0148150Y0042259D01*
X0147505Y0042903D01*
X0144994Y0042903D01*
X0144762Y0042671D01*
X0144732Y0042724D01*
X0144452Y0043003D01*
X0144110Y0043201D01*
X0143729Y0043303D01*
X0142732Y0043303D01*
X0142732Y0040303D01*
X0142731Y0040303D01*
X0140431Y0040303D01*
X0140431Y0038606D01*
X0140534Y0038224D01*
X0140679Y0037972D01*
X0140540Y0037833D01*
X0140343Y0037491D01*
X0140241Y0037110D01*
X0140241Y0035787D01*
X0142865Y0035787D01*
X0142865Y0035537D01*
X0140241Y0035537D01*
X0140241Y0034215D01*
X0140343Y0033833D01*
X0140416Y0033707D01*
X0137841Y0033707D01*
X0137841Y0034512D01*
X0137196Y0035157D01*
X0130285Y0035157D01*
X0129641Y0034512D01*
X0129641Y0029101D01*
X0130285Y0028457D01*
X0131149Y0028457D01*
X0130791Y0027590D01*
X0130791Y0026516D01*
X0131095Y0025781D02*
X0101655Y0025781D01*
X0099186Y0024782D02*
X0131943Y0024782D01*
X0135038Y0024782D02*
X0216741Y0024782D01*
X0216741Y0023784D02*
X0088092Y0023784D01*
X0087999Y0023846D02*
X0086862Y0023618D01*
X0085370Y0021380D01*
X0083878Y0023618D01*
X0082740Y0023846D01*
X0081775Y0023202D01*
X0081592Y0022286D01*
X0080939Y0022939D01*
X0080119Y0023759D01*
X0076624Y0023759D01*
X0076610Y0023745D01*
X0075804Y0022939D01*
X0075457Y0022591D01*
X0075457Y0022591D01*
X0074873Y0022008D01*
X0073121Y0023759D01*
X0069626Y0023759D01*
X0069612Y0023745D01*
X0068806Y0022939D01*
X0068459Y0022591D01*
X0068459Y0022591D01*
X0067875Y0022008D01*
X0067291Y0022591D01*
X0066123Y0023759D01*
X0061461Y0023759D01*
X0060641Y0022939D01*
X0060641Y0014773D01*
X0061461Y0013953D01*
X0062620Y0013953D01*
X0063441Y0014773D01*
X0063441Y0016288D01*
X0066123Y0016288D01*
X0066944Y0017109D01*
X0067638Y0017804D01*
X0067638Y0015941D01*
X0068806Y0014773D01*
X0069626Y0013953D01*
X0073121Y0013953D01*
X0073941Y0014773D01*
X0074289Y0015121D01*
X0074873Y0015705D01*
X0075804Y0014773D01*
X0076624Y0013953D01*
X0080119Y0013953D01*
X0080939Y0014773D01*
X0080939Y0014773D01*
X0081592Y0015426D01*
X0081775Y0014510D01*
X0082740Y0013867D01*
X0083878Y0014094D01*
X0085370Y0016332D01*
X0086862Y0014094D01*
X0087999Y0013867D01*
X0088964Y0014510D01*
X0089147Y0015426D01*
X0089800Y0014773D01*
X0090620Y0013953D01*
X0094115Y0013953D01*
X0094935Y0014773D01*
X0095283Y0015121D01*
X0096103Y0015941D01*
X0096103Y0021771D01*
X0094115Y0023759D01*
X0092955Y0023759D01*
X0091780Y0023759D01*
X0090620Y0023759D01*
X0090606Y0023745D01*
X0089800Y0022939D01*
X0089453Y0022591D01*
X0089452Y0022591D01*
X0089147Y0022286D01*
X0088964Y0023202D01*
X0087999Y0023846D01*
X0087690Y0023784D02*
X0083050Y0023784D01*
X0082648Y0023784D02*
X0045741Y0023784D01*
X0045741Y0024782D02*
X0047521Y0024782D01*
X0046199Y0025781D02*
X0045741Y0025781D01*
X0045741Y0026779D02*
X0045791Y0026779D01*
X0045791Y0027778D02*
X0045741Y0027778D01*
X0045741Y0028776D02*
X0046178Y0028776D01*
X0045741Y0029775D02*
X0047402Y0029775D01*
X0045741Y0030773D02*
X0049741Y0030773D01*
X0049741Y0029775D02*
X0049579Y0029775D01*
X0049741Y0031772D02*
X0045741Y0031772D01*
X0045741Y0032770D02*
X0049784Y0032770D01*
X0050590Y0033769D02*
X0045741Y0033769D01*
X0045741Y0034767D02*
X0054410Y0034767D01*
X0054391Y0033769D02*
X0054410Y0033769D01*
X0052616Y0033769D02*
X0052366Y0033769D01*
X0052366Y0032770D02*
X0052616Y0032770D01*
X0052616Y0031772D02*
X0052366Y0031772D01*
X0061334Y0033769D02*
X0064647Y0033769D01*
X0064647Y0033255D02*
X0064979Y0032923D01*
X0064647Y0032591D01*
X0064647Y0029515D01*
X0064979Y0029183D01*
X0064647Y0028851D01*
X0064647Y0025775D01*
X0065291Y0025130D01*
X0070927Y0025130D01*
X0071571Y0025775D01*
X0071571Y0025913D01*
X0074898Y0025913D01*
X0074952Y0025784D01*
X0075711Y0025024D01*
X0076703Y0024613D01*
X0077778Y0024613D01*
X0078770Y0025024D01*
X0079529Y0025784D01*
X0079583Y0025913D01*
X0080160Y0025913D01*
X0080160Y0025775D01*
X0080804Y0025130D01*
X0086440Y0025130D01*
X0087084Y0025775D01*
X0087084Y0028851D01*
X0086752Y0029183D01*
X0087084Y0029515D01*
X0087084Y0032591D01*
X0086752Y0032923D01*
X0087084Y0033255D01*
X0087084Y0036332D01*
X0086440Y0036976D01*
X0080804Y0036976D01*
X0080160Y0036332D01*
X0080160Y0036193D01*
X0079583Y0036193D01*
X0079529Y0036323D01*
X0078770Y0037082D01*
X0077778Y0037493D01*
X0076703Y0037493D01*
X0075711Y0037082D01*
X0074952Y0036323D01*
X0074898Y0036193D01*
X0071571Y0036193D01*
X0071571Y0036332D01*
X0070927Y0036976D01*
X0065291Y0036976D01*
X0064647Y0036332D01*
X0064647Y0033255D01*
X0064826Y0032770D02*
X0061600Y0032770D01*
X0061734Y0031772D02*
X0064647Y0031772D01*
X0064647Y0030773D02*
X0061734Y0030773D01*
X0061734Y0029775D02*
X0064647Y0029775D01*
X0064647Y0028776D02*
X0061334Y0028776D01*
X0061334Y0027778D02*
X0064647Y0027778D01*
X0064647Y0026779D02*
X0061334Y0026779D01*
X0061334Y0025781D02*
X0064647Y0025781D01*
X0067097Y0022785D02*
X0068652Y0022785D01*
X0068806Y0022939D02*
X0068806Y0022939D01*
X0074095Y0022785D02*
X0075650Y0022785D01*
X0075804Y0022939D02*
X0075804Y0022939D01*
X0076295Y0024782D02*
X0049460Y0024782D01*
X0050272Y0022915D02*
X0048944Y0022365D01*
X0047928Y0021349D01*
X0047378Y0020022D01*
X0047378Y0018585D01*
X0047928Y0017257D01*
X0048944Y0016241D01*
X0050272Y0015691D01*
X0051709Y0015691D01*
X0053037Y0016241D01*
X0054053Y0017257D01*
X0054603Y0018585D01*
X0054603Y0020022D01*
X0054053Y0021349D01*
X0053037Y0022365D01*
X0051709Y0022915D01*
X0050272Y0022915D01*
X0049958Y0022785D02*
X0045741Y0022785D01*
X0045741Y0021787D02*
X0048366Y0021787D01*
X0047696Y0020788D02*
X0045741Y0020788D01*
X0045741Y0019790D02*
X0047378Y0019790D01*
X0047378Y0018791D02*
X0045741Y0018791D01*
X0045741Y0017793D02*
X0047706Y0017793D01*
X0048391Y0016794D02*
X0045741Y0016794D01*
X0045741Y0015796D02*
X0050019Y0015796D01*
X0051962Y0015796D02*
X0060641Y0015796D01*
X0060641Y0016794D02*
X0053590Y0016794D01*
X0054275Y0017793D02*
X0060641Y0017793D01*
X0060641Y0018791D02*
X0054603Y0018791D01*
X0054603Y0019790D02*
X0060641Y0019790D01*
X0060641Y0020788D02*
X0054285Y0020788D01*
X0053615Y0021787D02*
X0060641Y0021787D01*
X0060641Y0022785D02*
X0052023Y0022785D01*
X0063441Y0015796D02*
X0067784Y0015796D01*
X0067638Y0016794D02*
X0066629Y0016794D01*
X0067628Y0017793D02*
X0067638Y0017793D01*
X0068782Y0014797D02*
X0063441Y0014797D01*
X0060641Y0014797D02*
X0045741Y0014797D01*
X0045741Y0013799D02*
X0216741Y0013799D01*
X0216741Y0014797D02*
X0094959Y0014797D01*
X0094935Y0014773D02*
X0094935Y0014773D01*
X0095283Y0015121D02*
X0095283Y0015121D01*
X0095958Y0015796D02*
X0211269Y0015796D01*
X0211522Y0015691D02*
X0212959Y0015691D01*
X0214287Y0016241D01*
X0215303Y0017257D01*
X0215853Y0018585D01*
X0215853Y0020022D01*
X0215303Y0021349D01*
X0214287Y0022365D01*
X0212959Y0022915D01*
X0211522Y0022915D01*
X0210194Y0022365D01*
X0209178Y0021349D01*
X0208628Y0020022D01*
X0208628Y0018585D01*
X0209178Y0017257D01*
X0210194Y0016241D01*
X0211522Y0015691D01*
X0213212Y0015796D02*
X0216741Y0015796D01*
X0216741Y0016794D02*
X0214840Y0016794D01*
X0215525Y0017793D02*
X0216741Y0017793D01*
X0216741Y0018791D02*
X0215853Y0018791D01*
X0215853Y0019790D02*
X0216741Y0019790D01*
X0216741Y0020788D02*
X0215535Y0020788D01*
X0214865Y0021787D02*
X0216741Y0021787D01*
X0216741Y0022785D02*
X0213273Y0022785D01*
X0211208Y0022785D02*
X0095089Y0022785D01*
X0096088Y0021787D02*
X0209616Y0021787D01*
X0208946Y0020788D02*
X0096103Y0020788D01*
X0096103Y0019790D02*
X0208628Y0019790D01*
X0208628Y0018791D02*
X0096103Y0018791D01*
X0096103Y0017793D02*
X0208956Y0017793D01*
X0209641Y0016794D02*
X0096103Y0016794D01*
X0089776Y0014797D02*
X0089022Y0014797D01*
X0086393Y0014797D02*
X0084346Y0014797D01*
X0085012Y0015796D02*
X0085727Y0015796D01*
X0081718Y0014797D02*
X0080963Y0014797D01*
X0075780Y0014797D02*
X0073965Y0014797D01*
X0073941Y0014773D02*
X0073941Y0014773D01*
X0074289Y0015121D02*
X0074289Y0015121D01*
X0081093Y0022785D02*
X0081692Y0022785D01*
X0084433Y0022785D02*
X0086307Y0022785D01*
X0085641Y0021787D02*
X0085099Y0021787D01*
X0089048Y0022785D02*
X0089646Y0022785D01*
X0089800Y0022939D02*
X0089800Y0022939D01*
X0090397Y0025781D02*
X0087084Y0025781D01*
X0087084Y0026779D02*
X0090397Y0026779D01*
X0090397Y0027778D02*
X0087084Y0027778D01*
X0087084Y0028776D02*
X0090397Y0028776D01*
X0089997Y0029775D02*
X0087084Y0029775D01*
X0087084Y0030773D02*
X0089997Y0030773D01*
X0089997Y0031772D02*
X0087084Y0031772D01*
X0086905Y0032770D02*
X0090131Y0032770D01*
X0090397Y0033769D02*
X0087084Y0033769D01*
X0087084Y0034767D02*
X0090397Y0034767D01*
X0090397Y0035766D02*
X0087084Y0035766D01*
X0086651Y0036764D02*
X0090830Y0036764D01*
X0092051Y0037763D02*
X0083663Y0037763D01*
X0085017Y0038761D02*
X0091052Y0038761D01*
X0081818Y0037763D02*
X0072147Y0037763D01*
X0071138Y0036764D02*
X0075393Y0036764D01*
X0076200Y0038761D02*
X0080464Y0038761D01*
X0080593Y0036764D02*
X0079088Y0036764D01*
X0080420Y0041757D02*
X0076200Y0041757D01*
X0072299Y0042755D02*
X0081606Y0042755D01*
X0070256Y0042755D02*
X0070006Y0042755D01*
X0070006Y0041757D02*
X0070256Y0041757D01*
X0070256Y0040758D02*
X0070006Y0040758D01*
X0070006Y0039760D02*
X0070256Y0039760D01*
X0070256Y0038761D02*
X0070006Y0038761D01*
X0070006Y0037763D02*
X0070256Y0037763D01*
X0068116Y0037763D02*
X0066163Y0037763D01*
X0065080Y0036764D02*
X0060901Y0036764D01*
X0061334Y0035766D02*
X0064647Y0035766D01*
X0064647Y0034767D02*
X0061334Y0034767D01*
X0060184Y0037763D02*
X0059297Y0037763D01*
X0056472Y0037763D02*
X0045741Y0037763D01*
X0045741Y0038761D02*
X0056081Y0038761D01*
X0056081Y0039760D02*
X0045741Y0039760D01*
X0045741Y0040758D02*
X0056081Y0040758D01*
X0056081Y0041757D02*
X0045741Y0041757D01*
X0045741Y0042755D02*
X0056578Y0042755D01*
X0059385Y0042755D02*
X0060096Y0042755D01*
X0062903Y0042755D02*
X0064106Y0042755D01*
X0066375Y0042755D02*
X0067964Y0042755D01*
X0064318Y0037763D02*
X0062815Y0037763D01*
X0054843Y0036764D02*
X0045741Y0036764D01*
X0045741Y0035766D02*
X0054410Y0035766D01*
X0071571Y0025781D02*
X0074954Y0025781D01*
X0078186Y0024782D02*
X0097295Y0024782D01*
X0103964Y0027778D02*
X0114282Y0027778D01*
X0116199Y0027778D02*
X0130868Y0027778D01*
X0129965Y0028776D02*
X0117531Y0028776D01*
X0117941Y0029775D02*
X0129641Y0029775D01*
X0129641Y0030773D02*
X0117941Y0030773D01*
X0117555Y0031772D02*
X0129641Y0031772D01*
X0129641Y0032770D02*
X0116339Y0032770D01*
X0114142Y0032770D02*
X0111741Y0032770D01*
X0111741Y0033769D02*
X0129641Y0033769D01*
X0129896Y0034767D02*
X0111741Y0034767D01*
X0111699Y0035766D02*
X0129964Y0035766D01*
X0129820Y0035849D02*
X0130162Y0035652D01*
X0130543Y0035550D01*
X0133241Y0035550D01*
X0133241Y0038800D01*
X0134240Y0038800D01*
X0134240Y0035550D01*
X0136938Y0035550D01*
X0137320Y0035652D01*
X0137662Y0035849D01*
X0137941Y0036129D01*
X0138138Y0036471D01*
X0138241Y0036852D01*
X0138241Y0038800D01*
X0134241Y0038800D01*
X0134241Y0039800D01*
X0138241Y0039800D01*
X0138241Y0041747D01*
X0138138Y0042129D01*
X0137941Y0042471D01*
X0137662Y0042750D01*
X0137320Y0042947D01*
X0136938Y0043050D01*
X0134240Y0043050D01*
X0134240Y0039800D01*
X0133241Y0039800D01*
X0133241Y0043050D01*
X0130543Y0043050D01*
X0130162Y0042947D01*
X0129820Y0042750D01*
X0129540Y0042471D01*
X0129343Y0042129D01*
X0129241Y0041747D01*
X0129241Y0039800D01*
X0133240Y0039800D01*
X0133240Y0038800D01*
X0129241Y0038800D01*
X0129241Y0036852D01*
X0129343Y0036471D01*
X0129540Y0036129D01*
X0129820Y0035849D01*
X0129264Y0036764D02*
X0110898Y0036764D01*
X0109116Y0036764D02*
X0108866Y0036764D01*
X0108866Y0035766D02*
X0109116Y0035766D01*
X0109116Y0034767D02*
X0108866Y0034767D01*
X0106241Y0034767D02*
X0104165Y0034767D01*
X0104165Y0035766D02*
X0106282Y0035766D01*
X0107083Y0036764D02*
X0104165Y0036764D01*
X0104165Y0037763D02*
X0129241Y0037763D01*
X0129241Y0038761D02*
X0104165Y0038761D01*
X0103532Y0039760D02*
X0133240Y0039760D01*
X0133241Y0040758D02*
X0134240Y0040758D01*
X0134241Y0039760D02*
X0140431Y0039760D01*
X0140431Y0040303D02*
X0142731Y0040303D01*
X0142731Y0040303D01*
X0142731Y0043303D01*
X0141734Y0043303D01*
X0141352Y0043201D01*
X0141010Y0043003D01*
X0140731Y0042724D01*
X0140534Y0042382D01*
X0140431Y0042001D01*
X0140431Y0040303D01*
X0140431Y0040758D02*
X0138241Y0040758D01*
X0138238Y0041757D02*
X0140431Y0041757D01*
X0140763Y0042755D02*
X0137652Y0042755D01*
X0134240Y0042755D02*
X0133241Y0042755D01*
X0133241Y0041757D02*
X0134240Y0041757D01*
X0129829Y0042755D02*
X0104122Y0042755D01*
X0104191Y0041757D02*
X0129243Y0041757D01*
X0129241Y0040758D02*
X0103877Y0040758D01*
X0103608Y0043754D02*
X0216741Y0043754D01*
X0216741Y0042755D02*
X0147653Y0042755D01*
X0148150Y0041757D02*
X0216741Y0041757D01*
X0216741Y0040758D02*
X0185647Y0040758D01*
X0185662Y0040750D02*
X0185320Y0040947D01*
X0184938Y0041050D01*
X0182240Y0041050D01*
X0182240Y0037800D01*
X0181241Y0037800D01*
X0181241Y0041050D01*
X0178543Y0041050D01*
X0178162Y0040947D01*
X0177820Y0040750D01*
X0177540Y0040471D01*
X0177343Y0040129D01*
X0177241Y0039747D01*
X0177241Y0037800D01*
X0181240Y0037800D01*
X0181240Y0036800D01*
X0177241Y0036800D01*
X0177241Y0034852D01*
X0177343Y0034471D01*
X0177540Y0034129D01*
X0177820Y0033849D01*
X0178162Y0033652D01*
X0178543Y0033550D01*
X0181241Y0033550D01*
X0181241Y0036800D01*
X0182240Y0036800D01*
X0182240Y0033550D01*
X0184938Y0033550D01*
X0185320Y0033652D01*
X0185662Y0033849D01*
X0185941Y0034129D01*
X0186138Y0034471D01*
X0186241Y0034852D01*
X0186241Y0036800D01*
X0182241Y0036800D01*
X0182241Y0037800D01*
X0186241Y0037800D01*
X0186241Y0039747D01*
X0186138Y0040129D01*
X0185941Y0040471D01*
X0185662Y0040750D01*
X0186237Y0039760D02*
X0216741Y0039760D01*
X0216741Y0038761D02*
X0186241Y0038761D01*
X0186241Y0036764D02*
X0216741Y0036764D01*
X0216741Y0035766D02*
X0186241Y0035766D01*
X0186218Y0034767D02*
X0216741Y0034767D01*
X0216741Y0033769D02*
X0185522Y0033769D01*
X0185196Y0033157D02*
X0178285Y0033157D01*
X0177641Y0032512D01*
X0177641Y0031365D01*
X0174524Y0031365D01*
X0174524Y0035294D01*
X0174624Y0035394D01*
X0174821Y0035736D01*
X0174924Y0036117D01*
X0174924Y0037142D01*
X0174924Y0038166D01*
X0174821Y0038547D01*
X0174624Y0038889D01*
X0174345Y0039169D01*
X0174003Y0039366D01*
X0173621Y0039468D01*
X0171455Y0039468D01*
X0169289Y0039468D01*
X0168908Y0039366D01*
X0168566Y0039169D01*
X0168286Y0038889D01*
X0168089Y0038547D01*
X0167987Y0038166D01*
X0167987Y0037142D01*
X0171455Y0037142D01*
X0171455Y0039468D01*
X0171455Y0037142D01*
X0171455Y0037142D01*
X0171455Y0037142D01*
X0174924Y0037142D01*
X0171455Y0037142D01*
X0171455Y0037142D01*
X0167987Y0037142D01*
X0167987Y0036117D01*
X0168089Y0035736D01*
X0168286Y0035394D01*
X0168387Y0035294D01*
X0168387Y0028182D01*
X0169031Y0027538D01*
X0173879Y0027538D01*
X0173906Y0027565D01*
X0177641Y0027565D01*
X0177641Y0027101D01*
X0178285Y0026457D01*
X0185196Y0026457D01*
X0185841Y0027101D01*
X0185841Y0028403D01*
X0186822Y0028403D01*
X0187211Y0028014D01*
X0188203Y0027603D01*
X0189278Y0027603D01*
X0190270Y0028014D01*
X0191029Y0028774D01*
X0191441Y0029766D01*
X0191441Y0030840D01*
X0191029Y0031833D01*
X0190270Y0032592D01*
X0189278Y0033003D01*
X0188203Y0033003D01*
X0187211Y0032592D01*
X0186822Y0032203D01*
X0185841Y0032203D01*
X0185841Y0032512D01*
X0185196Y0033157D01*
X0185582Y0032770D02*
X0187642Y0032770D01*
X0189839Y0032770D02*
X0216741Y0032770D01*
X0216741Y0031772D02*
X0191055Y0031772D01*
X0191441Y0030773D02*
X0216741Y0030773D01*
X0216741Y0029775D02*
X0191441Y0029775D01*
X0191031Y0028776D02*
X0216741Y0028776D01*
X0216741Y0027778D02*
X0189699Y0027778D01*
X0187782Y0027778D02*
X0185841Y0027778D01*
X0185519Y0026779D02*
X0216741Y0026779D01*
X0216741Y0025781D02*
X0135886Y0025781D01*
X0136191Y0026779D02*
X0177962Y0026779D01*
X0168791Y0027778D02*
X0157190Y0027778D01*
X0157594Y0028776D02*
X0168387Y0028776D01*
X0168387Y0029775D02*
X0157594Y0029775D01*
X0157594Y0030773D02*
X0168387Y0030773D01*
X0168387Y0031772D02*
X0157594Y0031772D01*
X0157594Y0032770D02*
X0168387Y0032770D01*
X0168387Y0033769D02*
X0157594Y0033769D01*
X0157594Y0034767D02*
X0168387Y0034767D01*
X0168081Y0035766D02*
X0157900Y0035766D01*
X0157994Y0036764D02*
X0167987Y0036764D01*
X0167987Y0037763D02*
X0157994Y0037763D01*
X0157994Y0037142D02*
X0154526Y0037142D01*
X0154526Y0037142D01*
X0157994Y0037142D01*
X0157769Y0038761D02*
X0168212Y0038761D01*
X0171455Y0038761D02*
X0171455Y0038761D01*
X0171455Y0037763D02*
X0171455Y0037763D01*
X0174698Y0038761D02*
X0177241Y0038761D01*
X0177244Y0039760D02*
X0148150Y0039760D01*
X0148150Y0040758D02*
X0177834Y0040758D01*
X0181241Y0040758D02*
X0182240Y0040758D01*
X0182240Y0039760D02*
X0181241Y0039760D01*
X0181241Y0038761D02*
X0182240Y0038761D01*
X0182241Y0037763D02*
X0216741Y0037763D01*
X0248741Y0046750D02*
X0013741Y0046750D01*
X0013741Y0047748D02*
X0248741Y0047748D01*
X0248741Y0048747D02*
X0044227Y0048747D01*
X0044270Y0048764D02*
X0045029Y0049524D01*
X0045441Y0050516D01*
X0045441Y0051590D01*
X0045150Y0052292D01*
X0045952Y0052292D01*
X0046596Y0052936D01*
X0046596Y0058178D01*
X0045952Y0058822D01*
X0039529Y0058822D01*
X0038885Y0058178D01*
X0038885Y0052936D01*
X0039529Y0052292D01*
X0040331Y0052292D01*
X0040041Y0051590D01*
X0040041Y0050516D01*
X0040452Y0049524D01*
X0041211Y0048764D01*
X0042203Y0048353D01*
X0043278Y0048353D01*
X0044270Y0048764D01*
X0045121Y0049745D02*
X0248741Y0049745D01*
X0248741Y0050744D02*
X0045441Y0050744D01*
X0045378Y0051742D02*
X0248741Y0051742D01*
X0248741Y0052741D02*
X0046401Y0052741D01*
X0046596Y0053739D02*
X0248741Y0053739D01*
X0248741Y0054738D02*
X0046596Y0054738D01*
X0046596Y0055736D02*
X0248741Y0055736D01*
X0248741Y0056735D02*
X0046596Y0056735D01*
X0046596Y0057733D02*
X0248741Y0057733D01*
X0248741Y0058732D02*
X0046043Y0058732D01*
X0039438Y0058732D02*
X0036891Y0058732D01*
X0036891Y0059730D02*
X0179783Y0059730D01*
X0179774Y0059734D02*
X0180693Y0059353D01*
X0188788Y0059353D01*
X0189707Y0059734D01*
X0190167Y0060194D01*
X0193705Y0060194D01*
X0194074Y0059825D01*
X0194993Y0059444D01*
X0198488Y0059444D01*
X0199407Y0059825D01*
X0200110Y0060528D01*
X0200491Y0061447D01*
X0200491Y0064941D01*
X0200444Y0065053D01*
X0200491Y0065165D01*
X0200491Y0068143D01*
X0200841Y0068988D01*
X0200841Y0070619D01*
X0200216Y0072126D01*
X0199063Y0073279D01*
X0197556Y0073903D01*
X0195925Y0073903D01*
X0194418Y0073279D01*
X0193265Y0072126D01*
X0192641Y0070619D01*
X0192641Y0068988D01*
X0192991Y0068143D01*
X0192991Y0066194D01*
X0190791Y0066194D01*
X0190791Y0066450D01*
X0190410Y0067369D01*
X0190176Y0067603D01*
X0191038Y0067603D01*
X0191420Y0067705D01*
X0191762Y0067903D01*
X0192041Y0068182D01*
X0192238Y0068524D01*
X0192341Y0068906D01*
X0192341Y0070203D01*
X0188491Y0070203D01*
X0188491Y0070403D01*
X0192341Y0070403D01*
X0192341Y0071701D01*
X0192238Y0072082D01*
X0192041Y0072424D01*
X0191762Y0072703D01*
X0191420Y0072901D01*
X0191038Y0073003D01*
X0190176Y0073003D01*
X0190410Y0073237D01*
X0190791Y0074156D01*
X0190791Y0079250D01*
X0190410Y0080169D01*
X0189741Y0080839D01*
X0189741Y0084300D01*
X0189360Y0085219D01*
X0188657Y0085923D01*
X0188008Y0086191D01*
X0188008Y0089479D01*
X0187715Y0089772D01*
X0182141Y0089772D01*
X0182141Y0094133D01*
X0181320Y0094953D01*
X0178470Y0094953D01*
X0178360Y0095219D01*
X0177657Y0095923D01*
X0176738Y0096303D01*
X0170743Y0096303D01*
X0169824Y0095923D01*
X0169630Y0095729D01*
X0168847Y0096053D01*
X0165352Y0096053D01*
X0165241Y0096007D01*
X0165129Y0096053D01*
X0161634Y0096053D01*
X0160715Y0095673D01*
X0160491Y0095448D01*
X0160491Y0095812D01*
X0157491Y0095812D01*
X0157491Y0095812D01*
X0160491Y0095812D01*
X0160491Y0096810D01*
X0160388Y0097191D01*
X0160191Y0097533D01*
X0159912Y0097812D01*
X0159570Y0098010D01*
X0159188Y0098112D01*
X0157491Y0098112D01*
X0157491Y0095812D01*
X0157490Y0095812D01*
X0157490Y0098112D01*
X0155793Y0098112D01*
X0155412Y0098010D01*
X0155391Y0097998D01*
X0155391Y0099803D01*
X0156297Y0099803D01*
X0156679Y0099905D01*
X0157021Y0100103D01*
X0157300Y0100382D01*
X0157497Y0100724D01*
X0157600Y0101106D01*
X0157600Y0102428D01*
X0155391Y0102428D01*
X0155391Y0102678D01*
X0157600Y0102678D01*
X0157600Y0104001D01*
X0157578Y0104082D01*
X0157684Y0104053D01*
X0159006Y0104053D01*
X0159006Y0106678D01*
X0156381Y0106678D01*
X0156381Y0105356D01*
X0156403Y0105275D01*
X0156297Y0105303D01*
X0155391Y0105303D01*
X0155391Y0108553D01*
X0156297Y0108553D01*
X0156475Y0108601D01*
X0156381Y0108251D01*
X0156381Y0106928D01*
X0159006Y0106928D01*
X0159006Y0106678D01*
X0159256Y0106678D01*
X0159256Y0104053D01*
X0160579Y0104053D01*
X0160950Y0104152D01*
X0160950Y0103578D01*
X0160541Y0102590D01*
X0160541Y0101516D01*
X0160952Y0100524D01*
X0161711Y0099764D01*
X0162703Y0099353D01*
X0163778Y0099353D01*
X0164770Y0099764D01*
X0165529Y0100524D01*
X0165941Y0101516D01*
X0165941Y0102590D01*
X0165529Y0103583D01*
X0164770Y0104342D01*
X0164750Y0104350D01*
X0164750Y0104647D01*
X0165200Y0105097D01*
X0165200Y0106350D01*
X0165434Y0106253D01*
X0172691Y0106253D01*
X0172691Y0100246D01*
X0173117Y0099217D01*
X0173904Y0098429D01*
X0174934Y0098003D01*
X0201047Y0098003D01*
X0202077Y0098429D01*
X0202864Y0099217D01*
X0203291Y0100246D01*
X0203291Y0127110D01*
X0202864Y0128139D01*
X0202077Y0128927D01*
X0201047Y0129353D01*
X0174934Y0129353D01*
X0173904Y0128927D01*
X0173117Y0128139D01*
X0172691Y0127110D01*
X0172691Y0126070D01*
X0167037Y0126070D01*
X0166741Y0125774D01*
X0166741Y0126062D01*
X0163741Y0126062D01*
X0163741Y0126062D01*
X0166741Y0126062D01*
X0166741Y0127060D01*
X0166638Y0127441D01*
X0166441Y0127783D01*
X0166162Y0128062D01*
X0165820Y0128260D01*
X0165438Y0128362D01*
X0163741Y0128362D01*
X0163741Y0126062D01*
X0163740Y0126062D01*
X0160741Y0126062D01*
X0160741Y0125065D01*
X0160843Y0124683D01*
X0161040Y0124341D01*
X0161320Y0124062D01*
X0161372Y0124031D01*
X0161303Y0123962D01*
X0160696Y0123962D01*
X0160196Y0124462D01*
X0156285Y0124462D01*
X0155641Y0123818D01*
X0155641Y0121307D01*
X0156144Y0120803D01*
X0155641Y0120300D01*
X0155641Y0117788D01*
X0156024Y0117405D01*
X0155952Y0117333D01*
X0155541Y0116340D01*
X0155541Y0115266D01*
X0155952Y0114274D01*
X0156172Y0114053D01*
X0155391Y0114053D01*
X0155391Y0122979D01*
X0154873Y0124229D01*
X0153916Y0125185D01*
X0152667Y0125703D01*
X0146241Y0125703D01*
X0146241Y0126860D01*
X0146138Y0127241D01*
X0145941Y0127583D01*
X0145662Y0127862D01*
X0145320Y0128060D01*
X0144938Y0128162D01*
X0143616Y0128162D01*
X0143616Y0125703D01*
X0143366Y0125703D01*
X0143366Y0128162D01*
X0142043Y0128162D01*
X0141662Y0128060D01*
X0141320Y0127862D01*
X0141040Y0127583D01*
X0140843Y0127241D01*
X0140741Y0126860D01*
X0140741Y0125703D01*
X0134991Y0125703D01*
X0134991Y0126860D01*
X0134888Y0127241D01*
X0134691Y0127583D01*
X0134412Y0127862D01*
X0134070Y0128060D01*
X0133688Y0128162D01*
X0132366Y0128162D01*
X0132366Y0125703D01*
X0132116Y0125703D01*
X0132116Y0128162D01*
X0130793Y0128162D01*
X0130412Y0128060D01*
X0130070Y0127862D01*
X0129790Y0127583D01*
X0129593Y0127241D01*
X0129491Y0126860D01*
X0129491Y0125703D01*
X0123491Y0125703D01*
X0123491Y0126860D01*
X0123388Y0127241D01*
X0123191Y0127583D01*
X0122912Y0127862D01*
X0122570Y0128060D01*
X0122188Y0128162D01*
X0120866Y0128162D01*
X0120866Y0125703D01*
X0120616Y0125703D01*
X0120616Y0128162D01*
X0119293Y0128162D01*
X0118912Y0128060D01*
X0118570Y0127862D01*
X0118290Y0127583D01*
X0118093Y0127241D01*
X0117991Y0126860D01*
X0117991Y0125703D01*
X0110314Y0125703D01*
X0109065Y0125185D01*
X0108941Y0125061D01*
X0108941Y0125340D01*
X0108529Y0126333D01*
X0107770Y0127092D01*
X0106778Y0127503D01*
X0105703Y0127503D01*
X0104711Y0127092D01*
X0104415Y0126796D01*
X0104415Y0127127D01*
X0103771Y0127771D01*
X0099710Y0127771D01*
X0099066Y0127127D01*
X0099066Y0123046D01*
X0098520Y0123592D01*
X0097528Y0124003D01*
X0096453Y0124003D01*
X0095502Y0123609D01*
X0095502Y0125302D01*
X0094858Y0125946D01*
X0087647Y0125946D01*
X0087003Y0125302D01*
X0087003Y0117304D01*
X0087647Y0116660D01*
X0089852Y0116660D01*
X0089852Y0116196D01*
X0087647Y0116196D01*
X0087003Y0115552D01*
X0087003Y0107554D01*
X0087647Y0106910D01*
X0089841Y0106910D01*
X0089841Y0104883D01*
X0086125Y0101168D01*
X0082565Y0101168D01*
X0082565Y0102192D01*
X0081921Y0102836D01*
X0079420Y0102836D01*
X0079420Y0103603D01*
X0079141Y0103883D01*
X0078320Y0104703D01*
X0073700Y0104703D01*
X0073700Y0108009D01*
X0073055Y0108653D01*
X0072750Y0108653D01*
X0072750Y0109197D01*
X0073150Y0109597D01*
X0073150Y0110153D01*
X0075979Y0110153D01*
X0075979Y0107554D01*
X0076623Y0106910D01*
X0083834Y0106910D01*
X0084478Y0107554D01*
X0084478Y0115552D01*
X0083834Y0116196D01*
X0081629Y0116196D01*
X0081629Y0116660D01*
X0083834Y0116660D01*
X0084478Y0117304D01*
X0084478Y0125302D01*
X0083834Y0125946D01*
X0076623Y0125946D01*
X0075979Y0125302D01*
X0075979Y0117304D01*
X0076623Y0116660D01*
X0078829Y0116660D01*
X0078829Y0116196D01*
X0076623Y0116196D01*
X0075979Y0115552D01*
X0075979Y0112953D01*
X0073150Y0112953D01*
X0073150Y0113509D01*
X0072505Y0114153D01*
X0069994Y0114153D01*
X0069491Y0113650D01*
X0069490Y0113650D01*
X0069491Y0113650D02*
X0068987Y0114153D01*
X0066476Y0114153D01*
X0065831Y0113509D01*
X0065831Y0109597D01*
X0066231Y0109197D01*
X0066231Y0108653D01*
X0065926Y0108653D01*
X0065281Y0108009D01*
X0065281Y0104597D01*
X0065926Y0103953D01*
X0066091Y0103953D01*
X0066091Y0103473D01*
X0066911Y0102653D01*
X0067661Y0101903D01*
X0070516Y0101903D01*
X0070516Y0099768D01*
X0072902Y0099768D01*
X0072902Y0099768D01*
X0070516Y0099768D01*
X0070516Y0097602D01*
X0070618Y0097220D01*
X0070816Y0096878D01*
X0071095Y0096599D01*
X0071437Y0096401D01*
X0071819Y0096299D01*
X0072902Y0096299D01*
X0073985Y0096299D01*
X0074015Y0096307D01*
X0073020Y0095312D01*
X0068091Y0095312D01*
X0068091Y0095391D01*
X0068191Y0095491D01*
X0068388Y0095833D01*
X0068491Y0096215D01*
X0068491Y0097537D01*
X0065866Y0097537D01*
X0065866Y0097787D01*
X0068491Y0097787D01*
X0068491Y0099110D01*
X0068388Y0099491D01*
X0068191Y0099833D01*
X0067912Y0100112D01*
X0067570Y0100310D01*
X0067188Y0100412D01*
X0065866Y0100412D01*
X0065866Y0097787D01*
X0065616Y0097787D01*
X0065616Y0100412D01*
X0064293Y0100412D01*
X0063912Y0100310D01*
X0063570Y0100112D01*
X0063290Y0099833D01*
X0063093Y0099491D01*
X0062991Y0099110D01*
X0062991Y0097787D01*
X0065615Y0097787D01*
X0065615Y0097537D01*
X0062991Y0097537D01*
X0062991Y0096215D01*
X0063093Y0095833D01*
X0063290Y0095491D01*
X0063391Y0095391D01*
X0063391Y0092238D01*
X0063749Y0091880D01*
X0063452Y0091583D01*
X0063041Y0090590D01*
X0063041Y0089516D01*
X0063452Y0088524D01*
X0064211Y0087764D01*
X0065203Y0087353D01*
X0066278Y0087353D01*
X0067270Y0087764D01*
X0068029Y0088524D01*
X0068441Y0089516D01*
X0068441Y0090590D01*
X0068029Y0091583D01*
X0067732Y0091880D01*
X0068091Y0092238D01*
X0068091Y0092512D01*
X0074179Y0092512D01*
X0075000Y0093332D01*
X0076070Y0094403D01*
X0076741Y0095073D01*
X0077411Y0094403D01*
X0080402Y0091412D01*
X0080968Y0091412D01*
X0080941Y0091384D01*
X0080941Y0090722D01*
X0080968Y0090694D01*
X0079652Y0090694D01*
X0077411Y0088453D01*
X0076591Y0087633D01*
X0076591Y0085907D01*
X0071560Y0085907D01*
X0070916Y0085263D01*
X0070916Y0084731D01*
X0070520Y0085127D01*
X0069528Y0085539D01*
X0068453Y0085539D01*
X0067461Y0085127D01*
X0066871Y0084537D01*
X0066696Y0084712D01*
X0062785Y0084712D01*
X0062141Y0084068D01*
X0062141Y0081557D01*
X0062372Y0081325D01*
X0062320Y0081294D01*
X0062040Y0081015D01*
X0061843Y0080673D01*
X0061741Y0080292D01*
X0061741Y0079294D01*
X0061741Y0078297D01*
X0061843Y0077915D01*
X0062040Y0077573D01*
X0062320Y0077294D01*
X0062662Y0077096D01*
X0063043Y0076994D01*
X0064740Y0076994D01*
X0064740Y0079294D01*
X0061741Y0079294D01*
X0064740Y0079294D01*
X0064740Y0079294D01*
X0064741Y0079294D01*
X0064741Y0079294D01*
X0067741Y0079294D01*
X0067741Y0078297D01*
X0067638Y0077915D01*
X0067441Y0077573D01*
X0067162Y0077294D01*
X0066820Y0077096D01*
X0066438Y0076994D01*
X0064741Y0076994D01*
X0064741Y0079294D01*
X0067741Y0079294D01*
X0067741Y0080292D01*
X0067698Y0080452D01*
X0068453Y0080139D01*
X0069528Y0080139D01*
X0070520Y0080550D01*
X0070916Y0080946D01*
X0070916Y0080414D01*
X0071560Y0079770D01*
X0076591Y0079770D01*
X0076591Y0078462D01*
X0076035Y0078462D01*
X0075391Y0077818D01*
X0075391Y0075307D01*
X0075894Y0074803D01*
X0075391Y0074300D01*
X0075391Y0071788D01*
X0075774Y0071405D01*
X0075702Y0071333D01*
X0075291Y0070340D01*
X0075291Y0069266D01*
X0075702Y0068274D01*
X0076461Y0067514D01*
X0077453Y0067103D01*
X0078528Y0067103D01*
X0079520Y0067514D01*
X0080279Y0068274D01*
X0080691Y0069266D01*
X0080691Y0070340D01*
X0080279Y0071333D01*
X0080207Y0071405D01*
X0080591Y0071788D01*
X0080591Y0074300D01*
X0080087Y0074803D01*
X0080591Y0075307D01*
X0080591Y0077818D01*
X0079946Y0078462D01*
X0079391Y0078462D01*
X0079391Y0079770D01*
X0081921Y0079770D01*
X0082565Y0080414D01*
X0082565Y0080899D01*
X0084238Y0080899D01*
X0084093Y0080648D01*
X0083991Y0080267D01*
X0083991Y0078944D01*
X0086615Y0078944D01*
X0086615Y0078694D01*
X0083991Y0078694D01*
X0083991Y0077372D01*
X0084093Y0076990D01*
X0084290Y0076648D01*
X0084570Y0076369D01*
X0084912Y0076171D01*
X0085293Y0076069D01*
X0086616Y0076069D01*
X0086616Y0078694D01*
X0086866Y0078694D01*
X0086866Y0078944D01*
X0089491Y0078944D01*
X0089491Y0080267D01*
X0089388Y0080648D01*
X0089243Y0080899D01*
X0091135Y0080899D01*
X0091135Y0080178D01*
X0091779Y0079534D01*
X0098202Y0079534D01*
X0098846Y0080178D01*
X0098846Y0085420D01*
X0098202Y0086065D01*
X0096891Y0086065D01*
X0096891Y0087885D01*
X0097279Y0088274D01*
X0097691Y0089266D01*
X0097691Y0090340D01*
X0097279Y0091333D01*
X0096520Y0092092D01*
X0095528Y0092503D01*
X0094453Y0092503D01*
X0094324Y0092449D01*
X0090594Y0096180D01*
X0090941Y0097016D01*
X0090941Y0098090D01*
X0090529Y0099083D01*
X0089770Y0099842D01*
X0089055Y0100138D01*
X0091820Y0102903D01*
X0092641Y0103723D01*
X0092641Y0106910D01*
X0094858Y0106910D01*
X0095502Y0107554D01*
X0095502Y0115552D01*
X0094858Y0116196D01*
X0092652Y0116196D01*
X0092652Y0116660D01*
X0094858Y0116660D01*
X0095502Y0117304D01*
X0095502Y0118997D01*
X0096453Y0118603D01*
X0097528Y0118603D01*
X0098520Y0119014D01*
X0099066Y0119560D01*
X0099066Y0115979D01*
X0099710Y0115335D01*
X0103771Y0115335D01*
X0104415Y0115979D01*
X0104415Y0116060D01*
X0104461Y0116014D01*
X0105453Y0115603D01*
X0106528Y0115603D01*
X0107520Y0116014D01*
X0107591Y0116085D01*
X0107591Y0114053D01*
X0106684Y0114053D01*
X0106302Y0113951D01*
X0105960Y0113753D01*
X0105681Y0113474D01*
X0105484Y0113132D01*
X0105381Y0112751D01*
X0105381Y0111428D01*
X0107591Y0111428D01*
X0107591Y0111178D01*
X0105381Y0111178D01*
X0105381Y0109856D01*
X0105484Y0109474D01*
X0105681Y0109132D01*
X0105960Y0108853D01*
X0106302Y0108655D01*
X0106684Y0108553D01*
X0107591Y0108553D01*
X0107591Y0102140D01*
X0107528Y0102203D01*
X0103409Y0102203D01*
X0103020Y0102592D01*
X0102028Y0103003D01*
X0100953Y0103003D01*
X0099961Y0102592D01*
X0099202Y0101833D01*
X0098791Y0100840D01*
X0098791Y0099766D01*
X0099202Y0098774D01*
X0099961Y0098014D01*
X0100953Y0097603D01*
X0102028Y0097603D01*
X0103020Y0098014D01*
X0103409Y0098403D01*
X0105591Y0098403D01*
X0105591Y0095016D01*
X0106704Y0093903D01*
X0107591Y0093016D01*
X0107591Y0091953D01*
X0102911Y0091953D01*
X0100841Y0089883D01*
X0100841Y0089521D01*
X0100210Y0089521D01*
X0099566Y0088877D01*
X0099566Y0084029D01*
X0100166Y0083429D01*
X0100166Y0083178D01*
X0099566Y0082578D01*
X0099566Y0079553D01*
X0098826Y0079553D01*
X0098241Y0078967D01*
X0098241Y0073034D01*
X0098202Y0073072D01*
X0091779Y0073072D01*
X0091135Y0072428D01*
X0091135Y0071707D01*
X0084957Y0071707D01*
X0080204Y0066953D01*
X0066954Y0066953D01*
X0065754Y0065753D01*
X0065203Y0065753D01*
X0064211Y0065342D01*
X0063452Y0064583D01*
X0063041Y0063590D01*
X0063041Y0062516D01*
X0063452Y0061524D01*
X0064211Y0060764D01*
X0065203Y0060353D01*
X0066278Y0060353D01*
X0067270Y0060764D01*
X0068029Y0061524D01*
X0068441Y0062516D01*
X0068441Y0063066D01*
X0068528Y0063153D01*
X0081778Y0063153D01*
X0082891Y0064266D01*
X0086531Y0067907D01*
X0091135Y0067907D01*
X0091135Y0067186D01*
X0091568Y0066753D01*
X0091453Y0066753D01*
X0090461Y0066342D01*
X0089702Y0065583D01*
X0089291Y0064590D01*
X0089291Y0063516D01*
X0089702Y0062524D01*
X0090461Y0061764D01*
X0091453Y0061353D01*
X0092528Y0061353D01*
X0093520Y0061764D01*
X0094279Y0062524D01*
X0094616Y0063335D01*
X0094952Y0062524D01*
X0095711Y0061764D01*
X0096703Y0061353D01*
X0097778Y0061353D01*
X0098770Y0061764D01*
X0099529Y0062524D01*
X0099941Y0063516D01*
X0099941Y0064590D01*
X0099887Y0064720D01*
X0103641Y0068473D01*
X0103641Y0077085D01*
X0104271Y0077085D01*
X0104915Y0077729D01*
X0104915Y0082578D01*
X0104315Y0083178D01*
X0104315Y0083429D01*
X0104915Y0084029D01*
X0104915Y0088877D01*
X0104639Y0089153D01*
X0107591Y0089153D01*
X0107591Y0069127D01*
X0108108Y0067877D01*
X0109065Y0066921D01*
X0110314Y0066403D01*
X0117991Y0066403D01*
X0117991Y0065854D01*
X0117028Y0066253D01*
X0115953Y0066253D01*
X0114961Y0065842D01*
X0114202Y0065083D01*
X0113791Y0064090D01*
X0113791Y0063016D01*
X0114202Y0062024D01*
X0114961Y0061264D01*
X0115953Y0060853D01*
X0117028Y0060853D01*
X0118020Y0061264D01*
X0118779Y0062024D01*
X0118833Y0062153D01*
X0122772Y0062153D01*
X0122772Y0061523D01*
X0123417Y0060878D01*
X0128265Y0060878D01*
X0128865Y0061478D01*
X0129116Y0061478D01*
X0129716Y0060878D01*
X0134564Y0060878D01*
X0135209Y0061523D01*
X0135209Y0065584D01*
X0134599Y0066193D01*
X0134687Y0066403D01*
X0140741Y0066403D01*
X0140741Y0065497D01*
X0140843Y0065115D01*
X0141040Y0064773D01*
X0141320Y0064494D01*
X0141662Y0064296D01*
X0142043Y0064194D01*
X0143366Y0064194D01*
X0143366Y0066403D01*
X0143616Y0066403D01*
X0143616Y0064194D01*
X0144938Y0064194D01*
X0145320Y0064296D01*
X0145662Y0064494D01*
X0145941Y0064773D01*
X0146138Y0065115D01*
X0146241Y0065497D01*
X0146241Y0066403D01*
X0152667Y0066403D01*
X0153916Y0066921D01*
X0154873Y0067877D01*
X0155391Y0069127D01*
X0155391Y0070303D01*
X0156297Y0070303D01*
X0156679Y0070405D01*
X0157021Y0070603D01*
X0157300Y0070882D01*
X0157497Y0071224D01*
X0157600Y0071606D01*
X0157600Y0072928D01*
X0155391Y0072928D01*
X0155391Y0073178D01*
X0157600Y0073178D01*
X0157600Y0074501D01*
X0157497Y0074882D01*
X0157300Y0075224D01*
X0157021Y0075503D01*
X0156679Y0075701D01*
X0156297Y0075803D01*
X0155391Y0075803D01*
X0155391Y0076608D01*
X0155412Y0076596D01*
X0155793Y0076494D01*
X0157490Y0076494D01*
X0157490Y0078794D01*
X0157491Y0078794D01*
X0157491Y0078794D01*
X0160491Y0078794D01*
X0160491Y0077797D01*
X0160388Y0077415D01*
X0160191Y0077073D01*
X0159912Y0076794D01*
X0159570Y0076596D01*
X0159188Y0076494D01*
X0157491Y0076494D01*
X0157491Y0078794D01*
X0160491Y0078794D01*
X0160491Y0078923D01*
X0161384Y0078553D01*
X0164879Y0078553D01*
X0164991Y0078599D01*
X0165102Y0078553D01*
X0168597Y0078553D01*
X0169516Y0078934D01*
X0169545Y0078963D01*
X0169824Y0078684D01*
X0170743Y0078303D01*
X0176738Y0078303D01*
X0177657Y0078684D01*
X0178360Y0079387D01*
X0178470Y0079653D01*
X0178857Y0079653D01*
X0178691Y0079250D01*
X0178691Y0074156D01*
X0179071Y0073237D01*
X0179305Y0073003D01*
X0178443Y0073003D01*
X0178062Y0072901D01*
X0177720Y0072703D01*
X0177440Y0072424D01*
X0177243Y0072082D01*
X0177141Y0071701D01*
X0177141Y0070403D01*
X0180990Y0070403D01*
X0180990Y0070203D01*
X0177141Y0070203D01*
X0177141Y0068906D01*
X0177243Y0068524D01*
X0177440Y0068182D01*
X0177720Y0067903D01*
X0178062Y0067705D01*
X0178443Y0067603D01*
X0179305Y0067603D01*
X0179071Y0067369D01*
X0178691Y0066450D01*
X0178691Y0061356D01*
X0179071Y0060437D01*
X0179774Y0059734D01*
X0178950Y0060729D02*
X0067184Y0060729D01*
X0068114Y0061727D02*
X0090550Y0061727D01*
X0089618Y0062726D02*
X0068441Y0062726D01*
X0065127Y0065721D02*
X0046389Y0065721D01*
X0046596Y0065928D02*
X0046596Y0071170D01*
X0045952Y0071815D01*
X0045046Y0071815D01*
X0045441Y0072766D01*
X0045441Y0073840D01*
X0045029Y0074833D01*
X0044270Y0075592D01*
X0043278Y0076003D01*
X0042203Y0076003D01*
X0041211Y0075592D01*
X0040452Y0074833D01*
X0040041Y0073840D01*
X0040041Y0072766D01*
X0040435Y0071815D01*
X0039529Y0071815D01*
X0038885Y0071170D01*
X0038885Y0070562D01*
X0036396Y0070562D01*
X0035946Y0071012D01*
X0035541Y0071012D01*
X0035541Y0071134D01*
X0035072Y0071603D01*
X0033422Y0071603D01*
X0033791Y0071972D01*
X0033791Y0072194D01*
X0033866Y0072194D01*
X0033866Y0074819D01*
X0034116Y0074819D01*
X0034116Y0075069D01*
X0036741Y0075069D01*
X0036741Y0076392D01*
X0036638Y0076773D01*
X0036441Y0077115D01*
X0036341Y0077215D01*
X0036341Y0077394D01*
X0036785Y0077394D01*
X0037285Y0076894D01*
X0041196Y0076894D01*
X0041665Y0077363D01*
X0041702Y0077274D01*
X0042461Y0076514D01*
X0043453Y0076103D01*
X0044528Y0076103D01*
X0045520Y0076514D01*
X0046279Y0077274D01*
X0046691Y0078266D01*
X0046691Y0079340D01*
X0046279Y0080333D01*
X0045520Y0081092D01*
X0044528Y0081503D01*
X0043453Y0081503D01*
X0042461Y0081092D01*
X0041702Y0080333D01*
X0041659Y0080231D01*
X0041609Y0080281D01*
X0041662Y0080312D01*
X0041941Y0080591D01*
X0042138Y0080933D01*
X0042241Y0081315D01*
X0042241Y0082312D01*
X0039241Y0082312D01*
X0039241Y0082312D01*
X0042241Y0082312D01*
X0042241Y0083310D01*
X0042138Y0083691D01*
X0041941Y0084033D01*
X0041662Y0084312D01*
X0041320Y0084510D01*
X0040938Y0084612D01*
X0039241Y0084612D01*
X0039241Y0082312D01*
X0039240Y0082312D01*
X0036241Y0082312D01*
X0036241Y0081315D01*
X0036343Y0080933D01*
X0036540Y0080591D01*
X0036820Y0080312D01*
X0036872Y0080281D01*
X0036785Y0080194D01*
X0036341Y0080194D01*
X0036341Y0080368D01*
X0035696Y0081012D01*
X0032791Y0081012D01*
X0032791Y0081092D01*
X0032541Y0081342D01*
X0032541Y0081842D01*
X0031779Y0082603D01*
X0031529Y0082603D01*
X0031079Y0083053D01*
X0031725Y0083053D01*
X0031725Y0085678D01*
X0031975Y0085678D01*
X0031975Y0085928D01*
X0034600Y0085928D01*
X0034600Y0087251D01*
X0034497Y0087632D01*
X0034300Y0087974D01*
X0034021Y0088253D01*
X0033679Y0088451D01*
X0033297Y0088553D01*
X0031975Y0088553D01*
X0031975Y0085928D01*
X0031725Y0085928D01*
X0031725Y0088553D01*
X0030645Y0088553D01*
X0030941Y0089266D01*
X0030941Y0090340D01*
X0030529Y0091333D01*
X0029770Y0092092D01*
X0028778Y0092503D01*
X0027703Y0092503D01*
X0026711Y0092092D01*
X0025952Y0091333D01*
X0025541Y0090340D01*
X0025541Y0089266D01*
X0025952Y0088274D01*
X0026249Y0087976D01*
X0025781Y0087509D01*
X0025781Y0087203D01*
X0024161Y0087203D01*
X0023341Y0086383D01*
X0021841Y0084883D01*
X0021841Y0083353D01*
X0020452Y0083353D01*
X0019952Y0082853D01*
X0019702Y0082853D01*
X0018941Y0082092D01*
X0018941Y0079421D01*
X0018770Y0079592D01*
X0017778Y0080003D01*
X0016703Y0080003D01*
X0015711Y0079592D01*
X0014952Y0078833D01*
X0014541Y0077840D01*
X0014541Y0076766D01*
X0014952Y0075774D01*
X0015124Y0075601D01*
X0014891Y0075368D01*
X0014891Y0072215D01*
X0014790Y0072115D01*
X0014593Y0071773D01*
X0014491Y0071392D01*
X0014491Y0070069D01*
X0017115Y0070069D01*
X0017115Y0069819D01*
X0014491Y0069819D01*
X0014491Y0068497D01*
X0014593Y0068115D01*
X0014790Y0067773D01*
X0015070Y0067494D01*
X0015412Y0067296D01*
X0015793Y0067194D01*
X0017116Y0067194D01*
X0017116Y0069819D01*
X0017366Y0069819D01*
X0017366Y0067194D01*
X0017902Y0067194D01*
X0015341Y0064633D01*
X0015341Y0060262D01*
X0015035Y0060262D01*
X0014391Y0059618D01*
X0014391Y0056465D01*
X0014290Y0056365D01*
X0014093Y0056023D01*
X0013991Y0055642D01*
X0013991Y0054319D01*
X0016615Y0054319D01*
X0016615Y0054069D01*
X0013991Y0054069D01*
X0013991Y0052747D01*
X0014093Y0052365D01*
X0014290Y0052023D01*
X0014570Y0051744D01*
X0014912Y0051546D01*
X0015293Y0051444D01*
X0016616Y0051444D01*
X0016616Y0054069D01*
X0016866Y0054069D01*
X0016866Y0054319D01*
X0019491Y0054319D01*
X0019491Y0055323D01*
X0019591Y0055223D01*
X0019591Y0051723D01*
X0021350Y0049964D01*
X0022170Y0049144D01*
X0027201Y0049144D01*
X0027255Y0049015D01*
X0028014Y0048255D01*
X0029007Y0047844D01*
X0030081Y0047844D01*
X0031073Y0048255D01*
X0031833Y0049015D01*
X0031886Y0049144D01*
X0033035Y0049144D01*
X0033535Y0048644D01*
X0037446Y0048644D01*
X0038091Y0049288D01*
X0038091Y0051800D01*
X0037587Y0052303D01*
X0038091Y0052807D01*
X0038091Y0055318D01*
X0037446Y0055962D01*
X0036891Y0055962D01*
X0036891Y0059883D01*
X0036070Y0060703D01*
X0034579Y0062194D01*
X0035688Y0062194D01*
X0036070Y0062296D01*
X0036412Y0062494D01*
X0036691Y0062773D01*
X0036888Y0063115D01*
X0036991Y0063497D01*
X0036991Y0064819D01*
X0034366Y0064819D01*
X0034366Y0065069D01*
X0036991Y0065069D01*
X0036991Y0066392D01*
X0036891Y0066762D01*
X0038885Y0066762D01*
X0038885Y0065928D01*
X0039529Y0065284D01*
X0045952Y0065284D01*
X0046596Y0065928D01*
X0046596Y0066720D02*
X0066720Y0066720D01*
X0063592Y0064723D02*
X0036991Y0064723D01*
X0036991Y0065721D02*
X0039092Y0065721D01*
X0038885Y0066720D02*
X0036903Y0066720D01*
X0036991Y0063724D02*
X0063096Y0063724D01*
X0063041Y0062726D02*
X0036643Y0062726D01*
X0035046Y0061727D02*
X0063367Y0061727D01*
X0064297Y0060729D02*
X0036045Y0060729D01*
X0034091Y0058723D02*
X0032911Y0059903D01*
X0030161Y0059903D01*
X0029341Y0060723D01*
X0029199Y0060865D01*
X0028853Y0060722D01*
X0027628Y0060722D01*
X0026495Y0061191D01*
X0025628Y0062058D01*
X0025159Y0063190D01*
X0025159Y0064416D01*
X0025299Y0064753D01*
X0024909Y0064753D01*
X0024144Y0065518D01*
X0023135Y0065316D01*
X0023072Y0065253D01*
X0022820Y0065253D01*
X0022572Y0065204D01*
X0022498Y0065253D01*
X0021409Y0065253D01*
X0021238Y0065424D01*
X0018141Y0062585D01*
X0018141Y0060262D01*
X0018446Y0060262D01*
X0019091Y0059618D01*
X0019091Y0059312D01*
X0019461Y0059312D01*
X0021570Y0057203D01*
X0022391Y0056383D01*
X0022391Y0052883D01*
X0023329Y0051944D01*
X0027201Y0051944D01*
X0027255Y0052073D01*
X0028014Y0052833D01*
X0029007Y0053244D01*
X0030081Y0053244D01*
X0031073Y0052833D01*
X0031833Y0052073D01*
X0031886Y0051944D01*
X0033035Y0051944D01*
X0033394Y0052303D01*
X0032891Y0052807D01*
X0032891Y0055318D01*
X0033535Y0055962D01*
X0034091Y0055962D01*
X0034091Y0058723D01*
X0034082Y0058732D02*
X0020042Y0058732D01*
X0021040Y0057733D02*
X0034091Y0057733D01*
X0034091Y0056735D02*
X0022039Y0056735D01*
X0022391Y0055736D02*
X0033309Y0055736D01*
X0032891Y0054738D02*
X0022391Y0054738D01*
X0022391Y0053739D02*
X0032891Y0053739D01*
X0032956Y0052741D02*
X0031165Y0052741D01*
X0027922Y0052741D02*
X0022533Y0052741D01*
X0019591Y0052741D02*
X0019489Y0052741D01*
X0019491Y0052747D02*
X0019491Y0054069D01*
X0016866Y0054069D01*
X0016866Y0051444D01*
X0018188Y0051444D01*
X0018570Y0051546D01*
X0018912Y0051744D01*
X0019191Y0052023D01*
X0019388Y0052365D01*
X0019491Y0052747D01*
X0019491Y0053739D02*
X0019591Y0053739D01*
X0019591Y0054738D02*
X0019491Y0054738D01*
X0016866Y0053739D02*
X0016616Y0053739D01*
X0016616Y0052741D02*
X0016866Y0052741D01*
X0016866Y0051742D02*
X0016616Y0051742D01*
X0014572Y0051742D02*
X0013741Y0051742D01*
X0013741Y0050744D02*
X0020570Y0050744D01*
X0019591Y0051742D02*
X0018909Y0051742D01*
X0021569Y0049745D02*
X0013741Y0049745D01*
X0013741Y0048747D02*
X0027523Y0048747D01*
X0031564Y0048747D02*
X0033432Y0048747D01*
X0037549Y0048747D02*
X0041254Y0048747D01*
X0040360Y0049745D02*
X0038091Y0049745D01*
X0038091Y0050744D02*
X0040041Y0050744D01*
X0040103Y0051742D02*
X0038091Y0051742D01*
X0038025Y0052741D02*
X0039080Y0052741D01*
X0038885Y0053739D02*
X0038091Y0053739D01*
X0038091Y0054738D02*
X0038885Y0054738D01*
X0038885Y0055736D02*
X0037672Y0055736D01*
X0036891Y0056735D02*
X0038885Y0056735D01*
X0038885Y0057733D02*
X0036891Y0057733D01*
X0033084Y0059730D02*
X0018978Y0059730D01*
X0018141Y0060729D02*
X0027612Y0060729D01*
X0028869Y0060729D02*
X0029335Y0060729D01*
X0025959Y0061727D02*
X0018141Y0061727D01*
X0018295Y0062726D02*
X0025352Y0062726D01*
X0025159Y0063724D02*
X0019384Y0063724D01*
X0020473Y0064723D02*
X0025286Y0064723D01*
X0017427Y0066720D02*
X0013741Y0066720D01*
X0013741Y0067718D02*
X0014845Y0067718D01*
X0014491Y0068717D02*
X0013741Y0068717D01*
X0013741Y0069715D02*
X0014491Y0069715D01*
X0014491Y0070714D02*
X0013741Y0070714D01*
X0013741Y0071712D02*
X0014576Y0071712D01*
X0014891Y0072711D02*
X0013741Y0072711D01*
X0013741Y0073709D02*
X0014891Y0073709D01*
X0014891Y0074708D02*
X0013741Y0074708D01*
X0013741Y0075706D02*
X0015019Y0075706D01*
X0014566Y0076705D02*
X0013741Y0076705D01*
X0013741Y0077703D02*
X0014541Y0077703D01*
X0014897Y0078702D02*
X0013741Y0078702D01*
X0013741Y0079700D02*
X0015973Y0079700D01*
X0013741Y0080699D02*
X0018941Y0080699D01*
X0018941Y0081697D02*
X0013741Y0081697D01*
X0013741Y0082696D02*
X0019545Y0082696D01*
X0021841Y0083694D02*
X0013741Y0083694D01*
X0013741Y0084693D02*
X0021841Y0084693D01*
X0022649Y0085691D02*
X0013741Y0085691D01*
X0013741Y0086690D02*
X0023647Y0086690D01*
X0025961Y0087688D02*
X0013741Y0087688D01*
X0013741Y0088687D02*
X0025780Y0088687D01*
X0025541Y0089686D02*
X0013741Y0089686D01*
X0013741Y0090684D02*
X0025683Y0090684D01*
X0026302Y0091683D02*
X0013741Y0091683D01*
X0013741Y0092681D02*
X0063391Y0092681D01*
X0063391Y0093680D02*
X0043935Y0093680D01*
X0044279Y0094024D02*
X0044691Y0095016D01*
X0044691Y0096090D01*
X0044279Y0097083D01*
X0043520Y0097842D01*
X0042528Y0098253D01*
X0041453Y0098253D01*
X0040461Y0097842D01*
X0039702Y0097083D01*
X0039644Y0096944D01*
X0033946Y0096944D01*
X0033587Y0097303D01*
X0034091Y0097807D01*
X0034091Y0100318D01*
X0033555Y0100853D01*
X0034278Y0100853D01*
X0035270Y0101264D01*
X0036029Y0102024D01*
X0036370Y0102845D01*
X0036953Y0102603D01*
X0038028Y0102603D01*
X0039020Y0103014D01*
X0039779Y0103774D01*
X0040191Y0104766D01*
X0040191Y0105840D01*
X0039779Y0106833D01*
X0039020Y0107592D01*
X0038028Y0108003D01*
X0036953Y0108003D01*
X0036824Y0107949D01*
X0036397Y0108376D01*
X0031825Y0108376D01*
X0031239Y0108962D01*
X0028557Y0108962D01*
X0028520Y0108926D01*
X0028484Y0108962D01*
X0025997Y0108962D01*
X0025961Y0108926D01*
X0025925Y0108962D01*
X0023242Y0108962D01*
X0022597Y0108318D01*
X0022597Y0105635D01*
X0022929Y0105303D01*
X0022597Y0104971D01*
X0022597Y0102288D01*
X0023183Y0101703D01*
X0023183Y0100962D01*
X0022285Y0100962D01*
X0021641Y0100318D01*
X0021641Y0097807D01*
X0021872Y0097575D01*
X0021820Y0097544D01*
X0021540Y0097265D01*
X0021343Y0096923D01*
X0021241Y0096542D01*
X0021241Y0095544D01*
X0021241Y0094547D01*
X0021343Y0094165D01*
X0021540Y0093823D01*
X0021820Y0093544D01*
X0022162Y0093346D01*
X0022543Y0093244D01*
X0024240Y0093244D01*
X0024240Y0095544D01*
X0021241Y0095544D01*
X0024240Y0095544D01*
X0024240Y0095544D01*
X0024241Y0095544D01*
X0024241Y0095544D01*
X0027241Y0095544D01*
X0027241Y0094547D01*
X0027138Y0094165D01*
X0026941Y0093823D01*
X0026662Y0093544D01*
X0026320Y0093346D01*
X0025938Y0093244D01*
X0024241Y0093244D01*
X0024241Y0095544D01*
X0027241Y0095544D01*
X0027241Y0095753D01*
X0028822Y0095753D01*
X0028891Y0095822D01*
X0028891Y0094288D01*
X0029535Y0093644D01*
X0033446Y0093644D01*
X0033946Y0094144D01*
X0039652Y0094144D01*
X0039702Y0094024D01*
X0040461Y0093264D01*
X0041453Y0092853D01*
X0042528Y0092853D01*
X0043520Y0093264D01*
X0044279Y0094024D01*
X0044551Y0094678D02*
X0063391Y0094678D01*
X0063183Y0095677D02*
X0044691Y0095677D01*
X0044448Y0096675D02*
X0062991Y0096675D01*
X0062991Y0098672D02*
X0034091Y0098672D01*
X0034091Y0099671D02*
X0063196Y0099671D01*
X0065616Y0099671D02*
X0065866Y0099671D01*
X0065866Y0098672D02*
X0065616Y0098672D01*
X0065615Y0097674D02*
X0043688Y0097674D01*
X0040293Y0097674D02*
X0033958Y0097674D01*
X0033739Y0100669D02*
X0070516Y0100669D01*
X0070516Y0099671D02*
X0068285Y0099671D01*
X0068491Y0098672D02*
X0070516Y0098672D01*
X0070516Y0097674D02*
X0065866Y0097674D01*
X0068491Y0096675D02*
X0071019Y0096675D01*
X0072902Y0096675D02*
X0072902Y0096675D01*
X0072902Y0096299D02*
X0072902Y0099768D01*
X0072902Y0099768D01*
X0072902Y0096299D01*
X0073384Y0095677D02*
X0068298Y0095677D01*
X0072902Y0097674D02*
X0072902Y0097674D01*
X0072902Y0098672D02*
X0072902Y0098672D01*
X0072902Y0099671D02*
X0072902Y0099671D01*
X0070516Y0101668D02*
X0035673Y0101668D01*
X0036296Y0102666D02*
X0036801Y0102666D01*
X0038180Y0102666D02*
X0066898Y0102666D01*
X0066091Y0103665D02*
X0039670Y0103665D01*
X0040148Y0104663D02*
X0065281Y0104663D01*
X0065281Y0105662D02*
X0040191Y0105662D01*
X0039851Y0106660D02*
X0065281Y0106660D01*
X0065281Y0107659D02*
X0038859Y0107659D01*
X0045256Y0110654D02*
X0065831Y0110654D01*
X0065831Y0109656D02*
X0019232Y0109656D01*
X0019209Y0109665D02*
X0017772Y0109665D01*
X0016444Y0109115D01*
X0015428Y0108099D01*
X0014878Y0106772D01*
X0014878Y0105335D01*
X0015428Y0104007D01*
X0016444Y0102991D01*
X0017772Y0102441D01*
X0019209Y0102441D01*
X0020537Y0102991D01*
X0021553Y0104007D01*
X0022103Y0105335D01*
X0022103Y0106772D01*
X0021553Y0108099D01*
X0020537Y0109115D01*
X0019209Y0109665D01*
X0017749Y0109656D02*
X0013741Y0109656D01*
X0013741Y0108657D02*
X0015986Y0108657D01*
X0015246Y0107659D02*
X0013741Y0107659D01*
X0013741Y0106660D02*
X0014878Y0106660D01*
X0014878Y0105662D02*
X0013741Y0105662D01*
X0013741Y0104663D02*
X0015156Y0104663D01*
X0015771Y0103665D02*
X0013741Y0103665D01*
X0013741Y0102666D02*
X0017228Y0102666D01*
X0019753Y0102666D02*
X0022597Y0102666D01*
X0022597Y0103665D02*
X0021210Y0103665D01*
X0021825Y0104663D02*
X0022597Y0104663D01*
X0022597Y0105662D02*
X0022103Y0105662D01*
X0022103Y0106660D02*
X0022597Y0106660D01*
X0022597Y0107659D02*
X0021735Y0107659D01*
X0020995Y0108657D02*
X0022937Y0108657D01*
X0031544Y0108657D02*
X0066231Y0108657D01*
X0065831Y0111653D02*
X0045741Y0111653D01*
X0045741Y0112651D02*
X0065831Y0112651D01*
X0065973Y0113650D02*
X0045741Y0113650D01*
X0045741Y0114648D02*
X0075979Y0114648D01*
X0075979Y0113650D02*
X0073009Y0113650D01*
X0076074Y0115647D02*
X0045741Y0115647D01*
X0045741Y0116645D02*
X0078829Y0116645D01*
X0081629Y0116645D02*
X0089852Y0116645D01*
X0092652Y0116645D02*
X0099066Y0116645D01*
X0099066Y0117644D02*
X0095502Y0117644D01*
X0095502Y0118642D02*
X0096359Y0118642D01*
X0097622Y0118642D02*
X0099066Y0118642D01*
X0099398Y0115647D02*
X0095407Y0115647D01*
X0095502Y0114648D02*
X0107591Y0114648D01*
X0107591Y0115647D02*
X0106633Y0115647D01*
X0105348Y0115647D02*
X0104083Y0115647D01*
X0105857Y0113650D02*
X0095502Y0113650D01*
X0095502Y0112651D02*
X0105381Y0112651D01*
X0105381Y0111653D02*
X0095502Y0111653D01*
X0095502Y0110654D02*
X0105381Y0110654D01*
X0105435Y0109656D02*
X0095502Y0109656D01*
X0095502Y0108657D02*
X0106299Y0108657D01*
X0107591Y0107659D02*
X0095502Y0107659D01*
X0092641Y0106660D02*
X0107591Y0106660D01*
X0107591Y0105662D02*
X0092641Y0105662D01*
X0092641Y0104663D02*
X0107591Y0104663D01*
X0107591Y0103665D02*
X0092582Y0103665D01*
X0091583Y0102666D02*
X0100140Y0102666D01*
X0099133Y0101668D02*
X0090585Y0101668D01*
X0089586Y0100669D02*
X0098791Y0100669D01*
X0098830Y0099671D02*
X0089941Y0099671D01*
X0090699Y0098672D02*
X0099303Y0098672D01*
X0100783Y0097674D02*
X0090941Y0097674D01*
X0090799Y0096675D02*
X0105591Y0096675D01*
X0105591Y0095677D02*
X0091097Y0095677D01*
X0092095Y0094678D02*
X0105929Y0094678D01*
X0106927Y0093680D02*
X0093094Y0093680D01*
X0094092Y0092681D02*
X0107591Y0092681D01*
X0110991Y0093753D02*
X0110991Y0097803D01*
X0112636Y0097803D01*
X0113481Y0098153D01*
X0116708Y0098153D01*
X0117774Y0098595D01*
X0118590Y0099410D01*
X0119031Y0100476D01*
X0119031Y0104130D01*
X0118590Y0105196D01*
X0117774Y0106012D01*
X0116708Y0106453D01*
X0113481Y0106453D01*
X0112636Y0106803D01*
X0110991Y0106803D01*
X0110991Y0107581D01*
X0111024Y0107595D01*
X0111840Y0108410D01*
X0112281Y0109476D01*
X0112281Y0113130D01*
X0111840Y0114196D01*
X0111024Y0115012D01*
X0110991Y0115026D01*
X0110991Y0122303D01*
X0117248Y0122303D01*
X0117848Y0121704D01*
X0118914Y0121262D01*
X0122567Y0121262D01*
X0123633Y0121704D01*
X0124233Y0122303D01*
X0128091Y0122303D01*
X0128091Y0119867D01*
X0128158Y0119705D01*
X0127741Y0118698D01*
X0127741Y0116908D01*
X0128426Y0115254D01*
X0129691Y0113988D01*
X0131345Y0113303D01*
X0133136Y0113303D01*
X0134790Y0113988D01*
X0136055Y0115254D01*
X0136741Y0116908D01*
X0136741Y0118698D01*
X0136323Y0119705D01*
X0136391Y0119867D01*
X0136391Y0122303D01*
X0139998Y0122303D01*
X0140598Y0121704D01*
X0141664Y0121262D01*
X0145317Y0121262D01*
X0146383Y0121704D01*
X0146983Y0122303D01*
X0151991Y0122303D01*
X0151991Y0115026D01*
X0151957Y0115012D01*
X0151141Y0114196D01*
X0150700Y0113130D01*
X0150700Y0109476D01*
X0151141Y0108410D01*
X0151957Y0107595D01*
X0151991Y0107581D01*
X0151991Y0106276D01*
X0151957Y0106262D01*
X0151141Y0105446D01*
X0150700Y0104380D01*
X0150700Y0100726D01*
X0151141Y0099660D01*
X0151957Y0098845D01*
X0151991Y0098831D01*
X0151991Y0095703D01*
X0144365Y0095703D01*
X0143951Y0096702D01*
X0143135Y0097518D01*
X0142069Y0097959D01*
X0136979Y0097959D01*
X0135913Y0097518D01*
X0135097Y0096702D01*
X0134655Y0095636D01*
X0134655Y0088970D01*
X0135097Y0087904D01*
X0135698Y0087303D01*
X0135097Y0086702D01*
X0134655Y0085636D01*
X0134655Y0085389D01*
X0134392Y0085498D01*
X0130089Y0085498D01*
X0129826Y0085389D01*
X0129826Y0085636D01*
X0129491Y0086445D01*
X0129491Y0087198D01*
X0129252Y0087773D01*
X0129384Y0087904D01*
X0129826Y0088970D01*
X0129826Y0095636D01*
X0129384Y0096702D01*
X0128568Y0097518D01*
X0127502Y0097959D01*
X0122412Y0097959D01*
X0121346Y0097518D01*
X0120530Y0096702D01*
X0120089Y0095636D01*
X0120089Y0095503D01*
X0119104Y0095503D01*
X0117928Y0095016D01*
X0116665Y0093753D01*
X0110991Y0093753D01*
X0110991Y0094678D02*
X0117590Y0094678D01*
X0120105Y0095677D02*
X0110991Y0095677D01*
X0110991Y0096675D02*
X0120519Y0096675D01*
X0121723Y0097674D02*
X0110991Y0097674D01*
X0110991Y0098803D02*
X0110741Y0098803D01*
X0110991Y0098803D02*
X0116741Y0098803D01*
X0117241Y0099553D02*
X0111241Y0099553D01*
X0107591Y0102666D02*
X0102841Y0102666D01*
X0111241Y0105053D02*
X0118241Y0105053D01*
X0118124Y0105662D02*
X0127766Y0105662D01*
X0127766Y0105734D02*
X0127996Y0106291D01*
X0127741Y0106908D01*
X0127741Y0108698D01*
X0128426Y0110352D01*
X0129691Y0111618D01*
X0131345Y0112303D01*
X0133136Y0112303D01*
X0134790Y0111618D01*
X0136055Y0110352D01*
X0136741Y0108698D01*
X0136741Y0106908D01*
X0136485Y0106291D01*
X0136715Y0105734D01*
X0136715Y0101431D01*
X0136274Y0100365D01*
X0135458Y0099549D01*
X0134392Y0099108D01*
X0130089Y0099108D01*
X0129023Y0099549D01*
X0128207Y0100365D01*
X0127766Y0101431D01*
X0127766Y0105734D01*
X0127843Y0106660D02*
X0112981Y0106660D01*
X0111088Y0107659D02*
X0127741Y0107659D01*
X0127741Y0108657D02*
X0111942Y0108657D01*
X0112281Y0109656D02*
X0128137Y0109656D01*
X0128728Y0110654D02*
X0112281Y0110654D01*
X0112281Y0111653D02*
X0129775Y0111653D01*
X0134706Y0111653D02*
X0150700Y0111653D01*
X0150700Y0112651D02*
X0112281Y0112651D01*
X0112066Y0113650D02*
X0130508Y0113650D01*
X0129031Y0114648D02*
X0111387Y0114648D01*
X0110991Y0115647D02*
X0128263Y0115647D01*
X0127849Y0116645D02*
X0110991Y0116645D01*
X0110991Y0117644D02*
X0127741Y0117644D01*
X0127741Y0118642D02*
X0110991Y0118642D01*
X0110991Y0119641D02*
X0128131Y0119641D01*
X0128091Y0120639D02*
X0110991Y0120639D01*
X0110991Y0121638D02*
X0118007Y0121638D01*
X0123474Y0121638D02*
X0128091Y0121638D01*
X0129491Y0126630D02*
X0123491Y0126630D01*
X0123145Y0127629D02*
X0129836Y0127629D01*
X0132116Y0127629D02*
X0132366Y0127629D01*
X0132366Y0126630D02*
X0132116Y0126630D01*
X0134645Y0127629D02*
X0141086Y0127629D01*
X0140741Y0126630D02*
X0134991Y0126630D01*
X0136391Y0121638D02*
X0140757Y0121638D01*
X0136391Y0120639D02*
X0151991Y0120639D01*
X0151991Y0119641D02*
X0136350Y0119641D01*
X0136741Y0118642D02*
X0151991Y0118642D01*
X0151991Y0117644D02*
X0136741Y0117644D01*
X0136632Y0116645D02*
X0151991Y0116645D01*
X0151991Y0115647D02*
X0136218Y0115647D01*
X0135450Y0114648D02*
X0151594Y0114648D01*
X0150915Y0113650D02*
X0133973Y0113650D01*
X0135753Y0110654D02*
X0150700Y0110654D01*
X0150700Y0109656D02*
X0136344Y0109656D01*
X0136741Y0108657D02*
X0151039Y0108657D01*
X0151893Y0107659D02*
X0136741Y0107659D01*
X0136638Y0106660D02*
X0151991Y0106660D01*
X0151357Y0105662D02*
X0136715Y0105662D01*
X0136715Y0104663D02*
X0150817Y0104663D01*
X0150700Y0103665D02*
X0136715Y0103665D01*
X0136715Y0102666D02*
X0150700Y0102666D01*
X0150700Y0101668D02*
X0136715Y0101668D01*
X0136400Y0100669D02*
X0150723Y0100669D01*
X0151137Y0099671D02*
X0135579Y0099671D01*
X0136290Y0097674D02*
X0128191Y0097674D01*
X0129395Y0096675D02*
X0135086Y0096675D01*
X0134672Y0095677D02*
X0129809Y0095677D01*
X0129826Y0094678D02*
X0134655Y0094678D01*
X0134655Y0093680D02*
X0129826Y0093680D01*
X0129826Y0092681D02*
X0134655Y0092681D01*
X0134655Y0091683D02*
X0129826Y0091683D01*
X0129826Y0090684D02*
X0134655Y0090684D01*
X0134655Y0089686D02*
X0129826Y0089686D01*
X0129708Y0088687D02*
X0134773Y0088687D01*
X0135313Y0087688D02*
X0129287Y0087688D01*
X0129491Y0086690D02*
X0135092Y0086690D01*
X0134679Y0085691D02*
X0129803Y0085691D01*
X0125741Y0085691D02*
X0107241Y0085691D01*
X0107591Y0085691D02*
X0104915Y0085691D01*
X0104915Y0084693D02*
X0107591Y0084693D01*
X0107241Y0084693D02*
X0125741Y0084693D01*
X0125741Y0083694D02*
X0107241Y0083694D01*
X0107591Y0083694D02*
X0104581Y0083694D01*
X0104797Y0082696D02*
X0107591Y0082696D01*
X0107241Y0082696D02*
X0125741Y0082696D01*
X0125741Y0081697D02*
X0107241Y0081697D01*
X0107591Y0081697D02*
X0104915Y0081697D01*
X0104915Y0080699D02*
X0107591Y0080699D01*
X0107241Y0080699D02*
X0125741Y0080699D01*
X0125741Y0079700D02*
X0107241Y0079700D01*
X0107591Y0079700D02*
X0104915Y0079700D01*
X0104915Y0078702D02*
X0107591Y0078702D01*
X0107241Y0078702D02*
X0125741Y0078702D01*
X0125741Y0077703D02*
X0107241Y0077703D01*
X0107591Y0077703D02*
X0104889Y0077703D01*
X0103641Y0076705D02*
X0107591Y0076705D01*
X0107241Y0076803D02*
X0107241Y0087303D01*
X0125741Y0087303D01*
X0125741Y0076803D01*
X0107241Y0076803D01*
X0107591Y0075706D02*
X0103641Y0075706D01*
X0103641Y0074708D02*
X0107591Y0074708D01*
X0107591Y0073709D02*
X0103641Y0073709D01*
X0103641Y0072711D02*
X0107591Y0072711D01*
X0107591Y0071712D02*
X0103641Y0071712D01*
X0103641Y0070714D02*
X0107591Y0070714D01*
X0107591Y0069715D02*
X0103641Y0069715D01*
X0103641Y0068717D02*
X0107760Y0068717D01*
X0108267Y0067718D02*
X0102886Y0067718D01*
X0101887Y0066720D02*
X0109550Y0066720D01*
X0110991Y0069803D02*
X0110991Y0072512D01*
X0114567Y0072512D01*
X0115633Y0072954D01*
X0116083Y0073403D01*
X0126417Y0073403D01*
X0127666Y0073921D01*
X0128301Y0074555D01*
X0128426Y0074254D01*
X0129691Y0072988D01*
X0131345Y0072303D01*
X0133136Y0072303D01*
X0134790Y0072988D01*
X0136055Y0074254D01*
X0136741Y0075908D01*
X0136741Y0076746D01*
X0136979Y0076647D01*
X0142069Y0076647D01*
X0143135Y0077089D01*
X0143951Y0077904D01*
X0144365Y0078903D01*
X0151991Y0078903D01*
X0151991Y0076776D01*
X0151957Y0076762D01*
X0151141Y0075946D01*
X0150700Y0074880D01*
X0150700Y0071226D01*
X0151141Y0070160D01*
X0151498Y0069803D01*
X0147213Y0069803D01*
X0147199Y0069837D01*
X0146383Y0070653D01*
X0145317Y0071094D01*
X0141664Y0071094D01*
X0140598Y0070653D01*
X0139782Y0069837D01*
X0139768Y0069803D01*
X0136179Y0069803D01*
X0136055Y0070102D01*
X0134790Y0071368D01*
X0133136Y0072053D01*
X0131345Y0072053D01*
X0129691Y0071368D01*
X0128426Y0070102D01*
X0128302Y0069803D01*
X0124463Y0069803D01*
X0124449Y0069837D01*
X0123633Y0070653D01*
X0122567Y0071094D01*
X0118914Y0071094D01*
X0117848Y0070653D01*
X0117032Y0069837D01*
X0117018Y0069803D01*
X0110991Y0069803D01*
X0110991Y0070714D02*
X0117996Y0070714D01*
X0115047Y0072711D02*
X0130361Y0072711D01*
X0130523Y0071712D02*
X0110991Y0071712D01*
X0114840Y0065721D02*
X0100889Y0065721D01*
X0099890Y0064723D02*
X0114053Y0064723D01*
X0113791Y0063724D02*
X0099941Y0063724D01*
X0099613Y0062726D02*
X0113911Y0062726D01*
X0114498Y0061727D02*
X0098681Y0061727D01*
X0095800Y0061727D02*
X0093431Y0061727D01*
X0094363Y0062726D02*
X0094868Y0062726D01*
X0089291Y0063724D02*
X0082349Y0063724D01*
X0083347Y0064723D02*
X0089345Y0064723D01*
X0089840Y0065721D02*
X0084346Y0065721D01*
X0085344Y0066720D02*
X0091373Y0066720D01*
X0091135Y0067718D02*
X0086343Y0067718D01*
X0082966Y0069715D02*
X0080691Y0069715D01*
X0080536Y0070714D02*
X0083964Y0070714D01*
X0081967Y0068717D02*
X0080463Y0068717D01*
X0080969Y0067718D02*
X0079724Y0067718D01*
X0076257Y0067718D02*
X0046596Y0067718D01*
X0046596Y0068717D02*
X0075518Y0068717D01*
X0075291Y0069715D02*
X0046596Y0069715D01*
X0046596Y0070714D02*
X0075445Y0070714D01*
X0075467Y0071712D02*
X0046054Y0071712D01*
X0045418Y0072711D02*
X0075391Y0072711D01*
X0075391Y0073709D02*
X0045441Y0073709D01*
X0045081Y0074708D02*
X0075799Y0074708D01*
X0075391Y0075706D02*
X0043994Y0075706D01*
X0045711Y0076705D02*
X0075391Y0076705D01*
X0075391Y0077703D02*
X0067516Y0077703D01*
X0067741Y0078702D02*
X0076591Y0078702D01*
X0076591Y0079700D02*
X0067741Y0079700D01*
X0070669Y0080699D02*
X0070916Y0080699D01*
X0067027Y0084693D02*
X0066715Y0084693D01*
X0062766Y0084693D02*
X0034600Y0084693D01*
X0034600Y0084356D02*
X0034600Y0085678D01*
X0031975Y0085678D01*
X0031975Y0083053D01*
X0033297Y0083053D01*
X0033679Y0083155D01*
X0034021Y0083353D01*
X0034300Y0083632D01*
X0034497Y0083974D01*
X0034600Y0084356D01*
X0034336Y0083694D02*
X0036345Y0083694D01*
X0036343Y0083691D02*
X0036241Y0083310D01*
X0036241Y0082312D01*
X0039240Y0082312D01*
X0039240Y0082312D01*
X0039240Y0084612D01*
X0037543Y0084612D01*
X0037162Y0084510D01*
X0036820Y0084312D01*
X0036540Y0084033D01*
X0036343Y0083691D01*
X0036241Y0082696D02*
X0031436Y0082696D01*
X0031725Y0083694D02*
X0031975Y0083694D01*
X0031975Y0084693D02*
X0031725Y0084693D01*
X0031975Y0085691D02*
X0071345Y0085691D01*
X0067087Y0087688D02*
X0076646Y0087688D01*
X0076591Y0086690D02*
X0034600Y0086690D01*
X0034465Y0087688D02*
X0064394Y0087688D01*
X0063384Y0088687D02*
X0030701Y0088687D01*
X0030941Y0089686D02*
X0063041Y0089686D01*
X0063079Y0090684D02*
X0030798Y0090684D01*
X0030179Y0091683D02*
X0063552Y0091683D01*
X0067929Y0091683D02*
X0080131Y0091683D01*
X0079642Y0090684D02*
X0068402Y0090684D01*
X0068441Y0089686D02*
X0078643Y0089686D01*
X0077645Y0088687D02*
X0068097Y0088687D01*
X0074348Y0092681D02*
X0079133Y0092681D01*
X0078134Y0093680D02*
X0075347Y0093680D01*
X0076345Y0094678D02*
X0077136Y0094678D01*
X0082565Y0101668D02*
X0086625Y0101668D01*
X0087624Y0102666D02*
X0082091Y0102666D01*
X0079359Y0103665D02*
X0088622Y0103665D01*
X0089621Y0104663D02*
X0078360Y0104663D01*
X0075979Y0107659D02*
X0073700Y0107659D01*
X0073700Y0106660D02*
X0089841Y0106660D01*
X0089841Y0105662D02*
X0073700Y0105662D01*
X0072750Y0108657D02*
X0075979Y0108657D01*
X0075979Y0109656D02*
X0073150Y0109656D01*
X0084478Y0109656D02*
X0087003Y0109656D01*
X0087003Y0110654D02*
X0084478Y0110654D01*
X0084478Y0111653D02*
X0087003Y0111653D01*
X0087003Y0112651D02*
X0084478Y0112651D01*
X0084478Y0113650D02*
X0087003Y0113650D01*
X0087003Y0114648D02*
X0084478Y0114648D01*
X0084384Y0115647D02*
X0087097Y0115647D01*
X0087003Y0117644D02*
X0084478Y0117644D01*
X0084478Y0118642D02*
X0087003Y0118642D01*
X0087003Y0119641D02*
X0084478Y0119641D01*
X0084478Y0120639D02*
X0087003Y0120639D01*
X0087003Y0121638D02*
X0084478Y0121638D01*
X0084478Y0122636D02*
X0087003Y0122636D01*
X0087003Y0123635D02*
X0084478Y0123635D01*
X0084478Y0124633D02*
X0087003Y0124633D01*
X0087333Y0125632D02*
X0084148Y0125632D01*
X0076309Y0125632D02*
X0045741Y0125632D01*
X0045741Y0126630D02*
X0099066Y0126630D01*
X0099066Y0125632D02*
X0095172Y0125632D01*
X0095502Y0124633D02*
X0099066Y0124633D01*
X0099066Y0123635D02*
X0098417Y0123635D01*
X0095565Y0123635D02*
X0095502Y0123635D01*
X0099568Y0127629D02*
X0045741Y0127629D01*
X0045741Y0128627D02*
X0173605Y0128627D01*
X0172905Y0127629D02*
X0166530Y0127629D01*
X0166741Y0126630D02*
X0172691Y0126630D01*
X0163741Y0126630D02*
X0163740Y0126630D01*
X0163740Y0126062D02*
X0163740Y0128362D01*
X0162043Y0128362D01*
X0161662Y0128260D01*
X0161320Y0128062D01*
X0161040Y0127783D01*
X0160843Y0127441D01*
X0160741Y0127060D01*
X0160741Y0126062D01*
X0163740Y0126062D01*
X0163740Y0126062D01*
X0163740Y0127629D02*
X0163741Y0127629D01*
X0160951Y0127629D02*
X0145895Y0127629D01*
X0146241Y0126630D02*
X0160741Y0126630D01*
X0160741Y0125632D02*
X0152839Y0125632D01*
X0154469Y0124633D02*
X0160871Y0124633D01*
X0155641Y0123635D02*
X0155119Y0123635D01*
X0155391Y0122636D02*
X0155641Y0122636D01*
X0155641Y0121638D02*
X0155391Y0121638D01*
X0155391Y0120639D02*
X0155980Y0120639D01*
X0155641Y0119641D02*
X0155391Y0119641D01*
X0155391Y0118642D02*
X0155641Y0118642D01*
X0155785Y0117644D02*
X0155391Y0117644D01*
X0155391Y0116645D02*
X0155667Y0116645D01*
X0155541Y0115647D02*
X0155391Y0115647D01*
X0155391Y0114648D02*
X0155796Y0114648D01*
X0157455Y0113206D02*
X0157703Y0113103D01*
X0158778Y0113103D01*
X0159770Y0113514D01*
X0160529Y0114274D01*
X0160941Y0115266D01*
X0160941Y0116340D01*
X0160529Y0117333D01*
X0160457Y0117405D01*
X0160841Y0117788D01*
X0160841Y0120300D01*
X0160337Y0120803D01*
X0160696Y0121162D01*
X0161267Y0121162D01*
X0161785Y0120644D01*
X0164929Y0120644D01*
X0164404Y0120427D01*
X0163617Y0119639D01*
X0163191Y0118610D01*
X0163191Y0114190D01*
X0162063Y0113062D01*
X0160950Y0111949D01*
X0160950Y0109454D01*
X0160579Y0109553D01*
X0159256Y0109553D01*
X0159256Y0106928D01*
X0159006Y0106928D01*
X0159006Y0109553D01*
X0157684Y0109553D01*
X0157506Y0109505D01*
X0157600Y0109856D01*
X0157600Y0111178D01*
X0155391Y0111178D01*
X0155391Y0111428D01*
X0157600Y0111428D01*
X0157600Y0112751D01*
X0157497Y0113132D01*
X0157455Y0113206D01*
X0157600Y0112651D02*
X0161652Y0112651D01*
X0160950Y0111653D02*
X0157600Y0111653D01*
X0157600Y0110654D02*
X0160950Y0110654D01*
X0160950Y0109656D02*
X0157546Y0109656D01*
X0159006Y0108657D02*
X0159256Y0108657D01*
X0159256Y0107659D02*
X0159006Y0107659D01*
X0159006Y0106660D02*
X0159256Y0106660D01*
X0159256Y0105662D02*
X0159006Y0105662D01*
X0159006Y0104663D02*
X0159256Y0104663D01*
X0157600Y0103665D02*
X0160950Y0103665D01*
X0160572Y0102666D02*
X0155391Y0102666D01*
X0157600Y0101668D02*
X0160541Y0101668D01*
X0160891Y0100669D02*
X0157466Y0100669D01*
X0155391Y0099671D02*
X0161937Y0099671D01*
X0164544Y0099671D02*
X0172929Y0099671D01*
X0172691Y0100669D02*
X0165590Y0100669D01*
X0165941Y0101668D02*
X0172691Y0101668D01*
X0172691Y0102666D02*
X0165909Y0102666D01*
X0165447Y0103665D02*
X0172691Y0103665D01*
X0172691Y0104663D02*
X0164765Y0104663D01*
X0165200Y0105662D02*
X0172691Y0105662D01*
X0173662Y0098672D02*
X0155391Y0098672D01*
X0157490Y0097674D02*
X0157491Y0097674D01*
X0157490Y0096675D02*
X0157491Y0096675D01*
X0160050Y0097674D02*
X0248741Y0097674D01*
X0248741Y0098672D02*
X0202319Y0098672D01*
X0203052Y0099671D02*
X0248741Y0099671D01*
X0248741Y0100669D02*
X0203291Y0100669D01*
X0203291Y0101668D02*
X0248741Y0101668D01*
X0248741Y0102666D02*
X0203291Y0102666D01*
X0203291Y0103665D02*
X0248741Y0103665D01*
X0248741Y0104663D02*
X0203291Y0104663D01*
X0203291Y0105662D02*
X0248741Y0105662D01*
X0248741Y0106660D02*
X0203291Y0106660D01*
X0203291Y0107659D02*
X0248741Y0107659D01*
X0248741Y0108657D02*
X0203291Y0108657D01*
X0203291Y0109656D02*
X0248741Y0109656D01*
X0248741Y0096675D02*
X0160491Y0096675D01*
X0160491Y0095677D02*
X0160725Y0095677D01*
X0163381Y0092303D02*
X0163372Y0092294D01*
X0157491Y0092294D01*
X0157481Y0092303D01*
X0139524Y0092303D01*
X0144365Y0088903D02*
X0150700Y0088903D01*
X0150700Y0085703D01*
X0144365Y0085703D01*
X0143951Y0086702D01*
X0143350Y0087303D01*
X0143951Y0087904D01*
X0144365Y0088903D01*
X0144275Y0088687D02*
X0150700Y0088687D01*
X0150700Y0087688D02*
X0143735Y0087688D01*
X0143956Y0086690D02*
X0150700Y0086690D01*
X0155391Y0087178D02*
X0155391Y0087428D01*
X0157600Y0087428D01*
X0157600Y0088751D01*
X0157534Y0088994D01*
X0159488Y0088994D01*
X0160212Y0089294D01*
X0160355Y0089294D01*
X0160715Y0088934D01*
X0161634Y0088553D01*
X0165129Y0088553D01*
X0165241Y0088599D01*
X0165352Y0088553D01*
X0168847Y0088553D01*
X0169630Y0088878D01*
X0169824Y0088684D01*
X0170743Y0088303D01*
X0176341Y0088303D01*
X0176341Y0086303D01*
X0170743Y0086303D01*
X0169824Y0085923D01*
X0169545Y0085643D01*
X0169516Y0085673D01*
X0168597Y0086053D01*
X0165102Y0086053D01*
X0164991Y0086007D01*
X0164879Y0086053D01*
X0161384Y0086053D01*
X0160465Y0085673D01*
X0160136Y0085344D01*
X0159488Y0085612D01*
X0157534Y0085612D01*
X0157600Y0085856D01*
X0157600Y0087178D01*
X0155391Y0087178D01*
X0157600Y0086690D02*
X0176341Y0086690D01*
X0176341Y0087688D02*
X0157600Y0087688D01*
X0157600Y0088687D02*
X0161311Y0088687D01*
X0160511Y0085691D02*
X0157556Y0085691D01*
X0157491Y0082312D02*
X0163122Y0082312D01*
X0163131Y0082303D01*
X0166850Y0082303D02*
X0173741Y0082303D01*
X0169593Y0085691D02*
X0169470Y0085691D01*
X0169170Y0088687D02*
X0169821Y0088687D01*
X0167100Y0092303D02*
X0173741Y0092303D01*
X0177903Y0095677D02*
X0248741Y0095677D01*
X0248741Y0094678D02*
X0181595Y0094678D01*
X0182141Y0093680D02*
X0248741Y0093680D01*
X0248741Y0092681D02*
X0182141Y0092681D01*
X0182141Y0091683D02*
X0248741Y0091683D01*
X0248741Y0090684D02*
X0182141Y0090684D01*
X0187801Y0089686D02*
X0248741Y0089686D01*
X0248741Y0088687D02*
X0188008Y0088687D01*
X0188008Y0087688D02*
X0248741Y0087688D01*
X0248741Y0086690D02*
X0188008Y0086690D01*
X0188888Y0085691D02*
X0248741Y0085691D01*
X0248741Y0084693D02*
X0189578Y0084693D01*
X0189741Y0083694D02*
X0248741Y0083694D01*
X0248741Y0082696D02*
X0189741Y0082696D01*
X0189741Y0081697D02*
X0248741Y0081697D01*
X0248741Y0080699D02*
X0189880Y0080699D01*
X0190604Y0079700D02*
X0248741Y0079700D01*
X0248741Y0078702D02*
X0190791Y0078702D01*
X0190791Y0077703D02*
X0248741Y0077703D01*
X0248741Y0076705D02*
X0190791Y0076705D01*
X0190791Y0075706D02*
X0248741Y0075706D01*
X0248741Y0074708D02*
X0190791Y0074708D01*
X0190606Y0073709D02*
X0195457Y0073709D01*
X0193850Y0072711D02*
X0191749Y0072711D01*
X0192337Y0071712D02*
X0193094Y0071712D01*
X0192680Y0070714D02*
X0192341Y0070714D01*
X0192341Y0069715D02*
X0192641Y0069715D01*
X0192753Y0068717D02*
X0192290Y0068717D01*
X0192991Y0067718D02*
X0191442Y0067718D01*
X0190679Y0066720D02*
X0192991Y0066720D01*
X0196741Y0066912D02*
X0196741Y0069803D01*
X0199631Y0072711D02*
X0225211Y0072711D01*
X0225675Y0072903D02*
X0224168Y0072279D01*
X0223015Y0071126D01*
X0222391Y0069619D01*
X0222391Y0067988D01*
X0223015Y0066481D01*
X0224168Y0065327D01*
X0225675Y0064703D01*
X0227306Y0064703D01*
X0227686Y0064861D01*
X0227879Y0064395D01*
X0228582Y0063692D01*
X0229501Y0063311D01*
X0236480Y0063311D01*
X0237399Y0063692D01*
X0238102Y0064395D01*
X0238483Y0065314D01*
X0238483Y0072293D01*
X0238102Y0073211D01*
X0237399Y0073915D01*
X0236480Y0074295D01*
X0229501Y0074295D01*
X0228582Y0073915D01*
X0227879Y0073211D01*
X0227686Y0072746D01*
X0227306Y0072903D01*
X0225675Y0072903D01*
X0223601Y0071712D02*
X0200388Y0071712D01*
X0200801Y0070714D02*
X0222844Y0070714D01*
X0222431Y0069715D02*
X0200841Y0069715D01*
X0200728Y0068717D02*
X0222391Y0068717D01*
X0222502Y0067718D02*
X0200491Y0067718D01*
X0200491Y0066720D02*
X0222916Y0066720D01*
X0223774Y0065721D02*
X0200491Y0065721D01*
X0200491Y0064723D02*
X0225628Y0064723D01*
X0227353Y0064723D02*
X0227743Y0064723D01*
X0228550Y0063724D02*
X0200491Y0063724D01*
X0200491Y0062726D02*
X0248741Y0062726D01*
X0248741Y0063724D02*
X0237431Y0063724D01*
X0238238Y0064723D02*
X0248741Y0064723D01*
X0248741Y0065721D02*
X0238483Y0065721D01*
X0238483Y0066720D02*
X0248741Y0066720D01*
X0248741Y0067718D02*
X0238483Y0067718D01*
X0238483Y0068717D02*
X0248741Y0068717D01*
X0248741Y0069715D02*
X0238483Y0069715D01*
X0238483Y0070714D02*
X0248741Y0070714D01*
X0248741Y0071712D02*
X0238483Y0071712D01*
X0238309Y0072711D02*
X0248741Y0072711D01*
X0248741Y0073709D02*
X0237604Y0073709D01*
X0232991Y0068803D02*
X0226491Y0068803D01*
X0228377Y0073709D02*
X0198024Y0073709D01*
X0188290Y0070403D02*
X0188290Y0070203D01*
X0181191Y0070203D01*
X0181191Y0070403D01*
X0185041Y0070403D01*
X0188290Y0070403D01*
X0178875Y0073709D02*
X0157600Y0073709D01*
X0157600Y0072711D02*
X0177732Y0072711D01*
X0177144Y0071712D02*
X0157600Y0071712D01*
X0157132Y0070714D02*
X0177141Y0070714D01*
X0177141Y0069715D02*
X0155391Y0069715D01*
X0155221Y0068717D02*
X0177191Y0068717D01*
X0178039Y0067718D02*
X0154714Y0067718D01*
X0153431Y0066720D02*
X0178802Y0066720D01*
X0178691Y0065721D02*
X0146241Y0065721D01*
X0145891Y0064723D02*
X0178691Y0064723D01*
X0178691Y0063724D02*
X0135209Y0063724D01*
X0135209Y0062726D02*
X0178691Y0062726D01*
X0178691Y0061727D02*
X0135209Y0061727D01*
X0135209Y0064723D02*
X0141091Y0064723D01*
X0140741Y0065721D02*
X0135071Y0065721D01*
X0135444Y0070714D02*
X0140746Y0070714D01*
X0146235Y0070714D02*
X0150912Y0070714D01*
X0150700Y0071712D02*
X0133958Y0071712D01*
X0134120Y0072711D02*
X0150700Y0072711D01*
X0150700Y0073709D02*
X0135511Y0073709D01*
X0136243Y0074708D02*
X0150700Y0074708D01*
X0151042Y0075706D02*
X0136657Y0075706D01*
X0136741Y0076705D02*
X0136839Y0076705D01*
X0142209Y0076705D02*
X0151900Y0076705D01*
X0151991Y0077703D02*
X0143750Y0077703D01*
X0144281Y0078702D02*
X0151991Y0078702D01*
X0157490Y0078702D02*
X0157491Y0078702D01*
X0157490Y0077703D02*
X0157491Y0077703D01*
X0157490Y0076705D02*
X0157491Y0076705D01*
X0156658Y0075706D02*
X0178691Y0075706D01*
X0178691Y0074708D02*
X0157544Y0074708D01*
X0159758Y0076705D02*
X0178691Y0076705D01*
X0178691Y0077703D02*
X0160466Y0077703D01*
X0160491Y0078702D02*
X0161025Y0078702D01*
X0157491Y0082312D02*
X0157481Y0082303D01*
X0139524Y0082303D01*
X0125741Y0086690D02*
X0107241Y0086690D01*
X0107591Y0086690D02*
X0104915Y0086690D01*
X0104915Y0087688D02*
X0107591Y0087688D01*
X0107591Y0088687D02*
X0104915Y0088687D01*
X0101642Y0090684D02*
X0097548Y0090684D01*
X0097691Y0089686D02*
X0100841Y0089686D01*
X0099566Y0088687D02*
X0097451Y0088687D01*
X0096891Y0087688D02*
X0099566Y0087688D01*
X0099566Y0086690D02*
X0096891Y0086690D01*
X0098575Y0085691D02*
X0099566Y0085691D01*
X0099566Y0084693D02*
X0098846Y0084693D01*
X0098846Y0083694D02*
X0099900Y0083694D01*
X0099684Y0082696D02*
X0098846Y0082696D01*
X0098846Y0081697D02*
X0099566Y0081697D01*
X0099566Y0080699D02*
X0098846Y0080699D01*
X0098369Y0079700D02*
X0099566Y0079700D01*
X0098241Y0078702D02*
X0086866Y0078702D01*
X0086866Y0078694D02*
X0089491Y0078694D01*
X0089491Y0077372D01*
X0089388Y0076990D01*
X0089191Y0076648D01*
X0088912Y0076369D01*
X0088570Y0076171D01*
X0088188Y0076069D01*
X0086866Y0076069D01*
X0086866Y0078694D01*
X0086615Y0078702D02*
X0079391Y0078702D01*
X0079391Y0079700D02*
X0083991Y0079700D01*
X0084122Y0080699D02*
X0082565Y0080699D01*
X0083991Y0077703D02*
X0080591Y0077703D01*
X0080591Y0076705D02*
X0084257Y0076705D01*
X0086616Y0076705D02*
X0086866Y0076705D01*
X0086866Y0077703D02*
X0086616Y0077703D01*
X0089224Y0076705D02*
X0098241Y0076705D01*
X0098241Y0077703D02*
X0089491Y0077703D01*
X0089491Y0079700D02*
X0091612Y0079700D01*
X0091135Y0080699D02*
X0089359Y0080699D01*
X0080591Y0075706D02*
X0098241Y0075706D01*
X0098241Y0074708D02*
X0080182Y0074708D01*
X0080591Y0073709D02*
X0098241Y0073709D01*
X0091417Y0072711D02*
X0080591Y0072711D01*
X0080514Y0071712D02*
X0091135Y0071712D01*
X0064741Y0077703D02*
X0064740Y0077703D01*
X0064740Y0078702D02*
X0064741Y0078702D01*
X0061965Y0077703D02*
X0046457Y0077703D01*
X0046691Y0078702D02*
X0061741Y0078702D01*
X0061741Y0079700D02*
X0046541Y0079700D01*
X0045913Y0080699D02*
X0061858Y0080699D01*
X0062141Y0081697D02*
X0042241Y0081697D01*
X0042241Y0082696D02*
X0062141Y0082696D01*
X0062141Y0083694D02*
X0042136Y0083694D01*
X0039241Y0083694D02*
X0039240Y0083694D01*
X0039240Y0082696D02*
X0039241Y0082696D01*
X0036241Y0081697D02*
X0032541Y0081697D01*
X0036009Y0080699D02*
X0036478Y0080699D01*
X0042003Y0080699D02*
X0042068Y0080699D01*
X0042270Y0076705D02*
X0036657Y0076705D01*
X0036741Y0075706D02*
X0041487Y0075706D01*
X0040400Y0074708D02*
X0036741Y0074708D01*
X0036741Y0074819D02*
X0034116Y0074819D01*
X0034116Y0072194D01*
X0035438Y0072194D01*
X0035820Y0072296D01*
X0036162Y0072494D01*
X0036441Y0072773D01*
X0036638Y0073115D01*
X0036741Y0073497D01*
X0036741Y0074819D01*
X0036741Y0073709D02*
X0040041Y0073709D01*
X0040063Y0072711D02*
X0036379Y0072711D01*
X0036245Y0070714D02*
X0038885Y0070714D01*
X0039427Y0071712D02*
X0033531Y0071712D01*
X0033866Y0072711D02*
X0034116Y0072711D01*
X0034116Y0073709D02*
X0033866Y0073709D01*
X0033866Y0074708D02*
X0034116Y0074708D01*
X0018941Y0079700D02*
X0018508Y0079700D01*
X0031725Y0086690D02*
X0031975Y0086690D01*
X0031975Y0087688D02*
X0031725Y0087688D01*
X0033482Y0093680D02*
X0040046Y0093680D01*
X0029499Y0093680D02*
X0026797Y0093680D01*
X0027241Y0094678D02*
X0028891Y0094678D01*
X0028891Y0095677D02*
X0027241Y0095677D01*
X0024241Y0094678D02*
X0024240Y0094678D01*
X0024240Y0093680D02*
X0024241Y0093680D01*
X0021684Y0093680D02*
X0013741Y0093680D01*
X0013741Y0094678D02*
X0021241Y0094678D01*
X0021241Y0095677D02*
X0013741Y0095677D01*
X0013741Y0096675D02*
X0021276Y0096675D01*
X0021773Y0097674D02*
X0013741Y0097674D01*
X0013741Y0098672D02*
X0021641Y0098672D01*
X0021641Y0099671D02*
X0013741Y0099671D01*
X0013741Y0100669D02*
X0021992Y0100669D01*
X0023183Y0101668D02*
X0013741Y0101668D01*
X0045741Y0117644D02*
X0075979Y0117644D01*
X0075979Y0118642D02*
X0045741Y0118642D01*
X0045741Y0119641D02*
X0075979Y0119641D01*
X0075979Y0120639D02*
X0045741Y0120639D01*
X0045741Y0121638D02*
X0075979Y0121638D01*
X0075979Y0122636D02*
X0045741Y0122636D01*
X0045741Y0123635D02*
X0075979Y0123635D01*
X0075979Y0124633D02*
X0045741Y0124633D01*
X0045741Y0129626D02*
X0216741Y0129626D01*
X0216741Y0130624D02*
X0045741Y0130624D01*
X0045741Y0131623D02*
X0216741Y0131623D01*
X0216741Y0132621D02*
X0045741Y0132621D01*
X0045741Y0133620D02*
X0216741Y0133620D01*
X0216741Y0134619D02*
X0045741Y0134619D01*
X0045741Y0135617D02*
X0216741Y0135617D01*
X0216741Y0136616D02*
X0045741Y0136616D01*
X0045741Y0137614D02*
X0216741Y0137614D01*
X0216741Y0138613D02*
X0045741Y0138613D01*
X0045741Y0139611D02*
X0216741Y0139611D01*
X0216741Y0140610D02*
X0045741Y0140610D01*
X0045741Y0141608D02*
X0216741Y0141608D01*
X0216741Y0142607D02*
X0045741Y0142607D01*
X0103913Y0127629D02*
X0118336Y0127629D01*
X0117991Y0126630D02*
X0108232Y0126630D01*
X0108820Y0125632D02*
X0110142Y0125632D01*
X0120616Y0126630D02*
X0120866Y0126630D01*
X0120866Y0127629D02*
X0120616Y0127629D01*
X0143366Y0127629D02*
X0143616Y0127629D01*
X0143616Y0126630D02*
X0143366Y0126630D01*
X0146224Y0121638D02*
X0151991Y0121638D01*
X0160501Y0120639D02*
X0164918Y0120639D01*
X0163618Y0119641D02*
X0160841Y0119641D01*
X0160841Y0118642D02*
X0163204Y0118642D01*
X0163191Y0117644D02*
X0160696Y0117644D01*
X0160814Y0116645D02*
X0163191Y0116645D01*
X0163191Y0115647D02*
X0160941Y0115647D01*
X0160685Y0114648D02*
X0163191Y0114648D01*
X0162650Y0113650D02*
X0159906Y0113650D01*
X0156381Y0107659D02*
X0155391Y0107659D01*
X0155391Y0106660D02*
X0156381Y0106660D01*
X0156381Y0105662D02*
X0155391Y0105662D01*
X0151991Y0098672D02*
X0117852Y0098672D01*
X0118698Y0099671D02*
X0128902Y0099671D01*
X0128081Y0100669D02*
X0119031Y0100669D01*
X0119031Y0101668D02*
X0127766Y0101668D01*
X0127766Y0102666D02*
X0119031Y0102666D01*
X0119031Y0103665D02*
X0127766Y0103665D01*
X0127766Y0104663D02*
X0118811Y0104663D01*
X0117991Y0105803D02*
X0110991Y0105803D01*
X0105591Y0097674D02*
X0102198Y0097674D01*
X0102640Y0091683D02*
X0096929Y0091683D01*
X0087003Y0107659D02*
X0084478Y0107659D01*
X0084478Y0108657D02*
X0087003Y0108657D01*
X0142758Y0097674D02*
X0151991Y0097674D01*
X0151991Y0096675D02*
X0143962Y0096675D01*
X0168956Y0078702D02*
X0169806Y0078702D01*
X0177675Y0078702D02*
X0178691Y0078702D01*
X0184741Y0076703D02*
X0184741Y0082303D01*
X0184741Y0063903D02*
X0185450Y0063194D01*
X0196741Y0063194D01*
X0200491Y0061727D02*
X0248741Y0061727D01*
X0248741Y0060729D02*
X0200193Y0060729D01*
X0199179Y0059730D02*
X0248741Y0059730D01*
X0194302Y0059730D02*
X0189698Y0059730D01*
X0181240Y0037763D02*
X0174924Y0037763D01*
X0174924Y0036764D02*
X0177241Y0036764D01*
X0177241Y0035766D02*
X0174829Y0035766D01*
X0174524Y0034767D02*
X0177263Y0034767D01*
X0177959Y0033769D02*
X0174524Y0033769D01*
X0174524Y0032770D02*
X0177899Y0032770D01*
X0177641Y0031772D02*
X0174524Y0031772D01*
X0181241Y0033769D02*
X0182240Y0033769D01*
X0182240Y0034767D02*
X0181241Y0034767D01*
X0181241Y0035766D02*
X0182240Y0035766D01*
X0182240Y0036764D02*
X0181241Y0036764D01*
X0154526Y0037763D02*
X0154526Y0037763D01*
X0154526Y0038761D02*
X0154526Y0038761D01*
X0151283Y0038761D02*
X0148150Y0038761D01*
X0150599Y0037763D02*
X0151057Y0037763D01*
X0142865Y0035766D02*
X0137517Y0035766D01*
X0137585Y0034767D02*
X0140241Y0034767D01*
X0140380Y0033769D02*
X0137841Y0033769D01*
X0138217Y0036764D02*
X0140241Y0036764D01*
X0140500Y0037763D02*
X0138241Y0037763D01*
X0138241Y0038761D02*
X0140431Y0038761D01*
X0142731Y0040758D02*
X0142732Y0040758D01*
X0142731Y0041757D02*
X0142732Y0041757D01*
X0142731Y0042755D02*
X0142732Y0042755D01*
X0144700Y0042755D02*
X0144846Y0042755D01*
X0134240Y0038761D02*
X0133241Y0038761D01*
X0133241Y0037763D02*
X0134240Y0037763D01*
X0134240Y0036764D02*
X0133241Y0036764D01*
X0133241Y0035766D02*
X0134240Y0035766D01*
X0137841Y0029775D02*
X0141104Y0029775D01*
X0137516Y0028776D02*
X0151457Y0028776D01*
X0151457Y0029775D02*
X0144877Y0029775D01*
X0151862Y0027778D02*
X0136113Y0027778D01*
X0106241Y0032770D02*
X0104165Y0032770D01*
X0103656Y0033769D02*
X0106241Y0033769D01*
X0080160Y0025781D02*
X0079527Y0025781D01*
X0013992Y0052741D02*
X0013741Y0052741D01*
X0013741Y0053739D02*
X0013991Y0053739D01*
X0013991Y0054738D02*
X0013741Y0054738D01*
X0013741Y0055736D02*
X0014016Y0055736D01*
X0013741Y0056735D02*
X0014391Y0056735D01*
X0014391Y0057733D02*
X0013741Y0057733D01*
X0013741Y0058732D02*
X0014391Y0058732D01*
X0014503Y0059730D02*
X0013741Y0059730D01*
X0013741Y0060729D02*
X0015341Y0060729D01*
X0015341Y0061727D02*
X0013741Y0061727D01*
X0013741Y0062726D02*
X0015341Y0062726D01*
X0015341Y0063724D02*
X0013741Y0063724D01*
X0013741Y0064723D02*
X0015430Y0064723D01*
X0016429Y0065721D02*
X0013741Y0065721D01*
X0017116Y0067718D02*
X0017366Y0067718D01*
X0017366Y0068717D02*
X0017116Y0068717D01*
X0017116Y0069715D02*
X0017366Y0069715D01*
X0118483Y0061727D02*
X0122772Y0061727D01*
X0123485Y0070714D02*
X0129037Y0070714D01*
X0128970Y0073709D02*
X0127156Y0073709D01*
X0143366Y0065721D02*
X0143616Y0065721D01*
X0143616Y0064723D02*
X0143366Y0064723D01*
X0203291Y0110654D02*
X0216975Y0110654D01*
X0216741Y0111653D02*
X0203291Y0111653D01*
X0203291Y0112651D02*
X0216741Y0112651D01*
X0216741Y0113650D02*
X0203291Y0113650D01*
X0203291Y0114648D02*
X0216741Y0114648D01*
X0216741Y0115647D02*
X0203291Y0115647D01*
X0203291Y0116645D02*
X0216741Y0116645D01*
X0216741Y0117644D02*
X0203291Y0117644D01*
X0203291Y0118642D02*
X0216741Y0118642D01*
X0216741Y0119641D02*
X0203291Y0119641D01*
X0203291Y0120639D02*
X0216741Y0120639D01*
X0216741Y0121638D02*
X0203291Y0121638D01*
X0203291Y0122636D02*
X0216741Y0122636D01*
X0216741Y0123635D02*
X0203291Y0123635D01*
X0203291Y0124633D02*
X0216741Y0124633D01*
X0216741Y0125632D02*
X0203291Y0125632D01*
X0203291Y0126630D02*
X0216741Y0126630D01*
X0216741Y0127629D02*
X0203076Y0127629D01*
X0202376Y0128627D02*
X0216741Y0128627D01*
D41*
X0124957Y0082303D02*
X0124707Y0082053D01*
X0120241Y0082053D01*
X0119991Y0081803D01*
D42*
X0112491Y0094300D02*
X0108994Y0094300D01*
X0107491Y0095803D01*
X0107491Y0099553D01*
X0106741Y0100303D01*
X0101491Y0100303D01*
X0110991Y0099053D02*
X0110991Y0098803D01*
X0110991Y0096053D01*
X0117991Y0099053D02*
X0117991Y0104303D01*
X0117991Y0105303D01*
X0114881Y0102303D02*
X0111741Y0102303D01*
X0110991Y0105553D02*
X0110991Y0105803D01*
X0110991Y0107553D01*
X0132241Y0117803D02*
X0132241Y0121694D01*
X0162850Y0111162D02*
X0162850Y0106803D01*
X0162850Y0102444D01*
X0163241Y0102053D01*
X0162850Y0111162D02*
X0164850Y0113162D01*
X0170251Y0113162D01*
X0169860Y0113553D01*
X0170251Y0113162D02*
X0170642Y0113553D01*
X0195839Y0113553D01*
X0094991Y0089803D02*
X0094991Y0082799D01*
X0086741Y0082799D01*
X0086741Y0082537D01*
X0086741Y0082799D02*
X0080618Y0082799D01*
X0080579Y0082839D01*
X0085744Y0069807D02*
X0080991Y0065053D01*
X0067741Y0065053D01*
X0065741Y0063053D01*
X0085744Y0069807D02*
X0094991Y0069807D01*
X0042741Y0069525D02*
X0042741Y0073303D01*
X0042741Y0069525D02*
X0041878Y0068662D01*
X0042741Y0068662D01*
X0042741Y0068549D01*
X0041878Y0068662D02*
X0034241Y0068662D01*
X0034100Y0068803D01*
X0028241Y0068803D01*
X0028241Y0063803D01*
X0042741Y0055557D02*
X0042741Y0051053D01*
X0048491Y0027303D02*
X0052350Y0027303D01*
X0052491Y0027444D01*
X0057741Y0027444D01*
X0057872Y0027313D01*
X0093859Y0027313D02*
X0098241Y0027313D01*
X0100500Y0027313D01*
X0101491Y0028303D01*
X0101491Y0030404D01*
X0108950Y0030404D01*
X0108991Y0030444D01*
X0115241Y0030444D01*
X0115241Y0030303D01*
X0101491Y0036703D02*
X0101491Y0042053D01*
X0133741Y0031807D02*
X0133741Y0027303D01*
X0133491Y0027053D01*
X0133741Y0031807D02*
X0142853Y0031807D01*
X0142991Y0031944D01*
X0154446Y0031944D01*
X0154526Y0032024D01*
X0154526Y0029465D01*
X0171455Y0029465D02*
X0181398Y0029465D01*
X0181741Y0029807D01*
X0181741Y0030303D01*
X0188741Y0030303D01*
X0171455Y0029465D02*
X0171455Y0032024D01*
X0171455Y0034583D01*
M02*
