%TF.GenerationSoftware,Altium Limited,Altium Designer,20.1.8 (145)*%
G04 Layer_Physical_Order=1*
G04 Layer_Color=255*
%FSLAX45Y45*%
%MOMM*%
%TF.SameCoordinates,B5EC77A6-7288-46EB-B60E-D79F015BB0CB*%
%TF.FilePolarity,Positive*%
%TF.FileFunction,Copper,L1,Top,Signal*%
%TF.Part,Single*%
G01*
G75*
%TA.AperFunction,SMDPad,CuDef*%
G04:AMPARAMS|DCode=10|XSize=0.35mm|YSize=0.7mm|CornerRadius=0.00175mm|HoleSize=0mm|Usage=FLASHONLY|Rotation=0.000|XOffset=0mm|YOffset=0mm|HoleType=Round|Shape=RoundedRectangle|*
%AMROUNDEDRECTD10*
21,1,0.35000,0.69650,0,0,0.0*
21,1,0.34650,0.70000,0,0,0.0*
1,1,0.00350,0.17325,-0.34825*
1,1,0.00350,-0.17325,-0.34825*
1,1,0.00350,-0.17325,0.34825*
1,1,0.00350,0.17325,0.34825*
%
%ADD10ROUNDEDRECTD10*%
G04:AMPARAMS|DCode=11|XSize=0.85mm|YSize=0.65mm|CornerRadius=0.00325mm|HoleSize=0mm|Usage=FLASHONLY|Rotation=180.000|XOffset=0mm|YOffset=0mm|HoleType=Round|Shape=RoundedRectangle|*
%AMROUNDEDRECTD11*
21,1,0.85000,0.64350,0,0,180.0*
21,1,0.84350,0.65000,0,0,180.0*
1,1,0.00650,-0.42175,0.32175*
1,1,0.00650,0.42175,0.32175*
1,1,0.00650,0.42175,-0.32175*
1,1,0.00650,-0.42175,-0.32175*
%
%ADD11ROUNDEDRECTD11*%
G04:AMPARAMS|DCode=12|XSize=0.8mm|YSize=0.7mm|CornerRadius=0.0035mm|HoleSize=0mm|Usage=FLASHONLY|Rotation=90.000|XOffset=0mm|YOffset=0mm|HoleType=Round|Shape=RoundedRectangle|*
%AMROUNDEDRECTD12*
21,1,0.80000,0.69300,0,0,90.0*
21,1,0.79300,0.70000,0,0,90.0*
1,1,0.00700,0.34650,0.39650*
1,1,0.00700,0.34650,-0.39650*
1,1,0.00700,-0.34650,-0.39650*
1,1,0.00700,-0.34650,0.39650*
%
%ADD12ROUNDEDRECTD12*%
G04:AMPARAMS|DCode=13|XSize=0.55mm|YSize=0.7mm|CornerRadius=0.00275mm|HoleSize=0mm|Usage=FLASHONLY|Rotation=180.000|XOffset=0mm|YOffset=0mm|HoleType=Round|Shape=RoundedRectangle|*
%AMROUNDEDRECTD13*
21,1,0.55000,0.69450,0,0,180.0*
21,1,0.54450,0.70000,0,0,180.0*
1,1,0.00550,-0.27225,0.34725*
1,1,0.00550,0.27225,0.34725*
1,1,0.00550,0.27225,-0.34725*
1,1,0.00550,-0.27225,-0.34725*
%
%ADD13ROUNDEDRECTD13*%
G04:AMPARAMS|DCode=14|XSize=0.8mm|YSize=0.7mm|CornerRadius=0.0035mm|HoleSize=0mm|Usage=FLASHONLY|Rotation=0.000|XOffset=0mm|YOffset=0mm|HoleType=Round|Shape=RoundedRectangle|*
%AMROUNDEDRECTD14*
21,1,0.80000,0.69300,0,0,0.0*
21,1,0.79300,0.70000,0,0,0.0*
1,1,0.00700,0.39650,-0.34650*
1,1,0.00700,-0.39650,-0.34650*
1,1,0.00700,-0.39650,0.34650*
1,1,0.00700,0.39650,0.34650*
%
%ADD14ROUNDEDRECTD14*%
%ADD15O,0.55000X1.70000*%
%ADD16O,0.55000X1.55000*%
%ADD17O,1.15000X0.40000*%
%ADD18O,0.85000X0.55000*%
G04:AMPARAMS|DCode=19|XSize=0.85mm|YSize=0.65mm|CornerRadius=0.00325mm|HoleSize=0mm|Usage=FLASHONLY|Rotation=90.000|XOffset=0mm|YOffset=0mm|HoleType=Round|Shape=RoundedRectangle|*
%AMROUNDEDRECTD19*
21,1,0.85000,0.64350,0,0,90.0*
21,1,0.84350,0.65000,0,0,90.0*
1,1,0.00650,0.32175,0.42175*
1,1,0.00650,0.32175,-0.42175*
1,1,0.00650,-0.32175,-0.42175*
1,1,0.00650,-0.32175,0.42175*
%
%ADD19ROUNDEDRECTD19*%
G04:AMPARAMS|DCode=20|XSize=1.75mm|YSize=4.55mm|CornerRadius=0.00875mm|HoleSize=0mm|Usage=FLASHONLY|Rotation=180.000|XOffset=0mm|YOffset=0mm|HoleType=Round|Shape=RoundedRectangle|*
%AMROUNDEDRECTD20*
21,1,1.75000,4.53250,0,0,180.0*
21,1,1.73250,4.55000,0,0,180.0*
1,1,0.01750,-0.86625,2.26625*
1,1,0.01750,0.86625,2.26625*
1,1,0.01750,0.86625,-2.26625*
1,1,0.01750,-0.86625,-2.26625*
%
%ADD20ROUNDEDRECTD20*%
G04:AMPARAMS|DCode=21|XSize=1.65mm|YSize=1.05mm|CornerRadius=0.00525mm|HoleSize=0mm|Usage=FLASHONLY|Rotation=180.000|XOffset=0mm|YOffset=0mm|HoleType=Round|Shape=RoundedRectangle|*
%AMROUNDEDRECTD21*
21,1,1.65000,1.03950,0,0,180.0*
21,1,1.63950,1.05000,0,0,180.0*
1,1,0.01050,-0.81975,0.51975*
1,1,0.01050,0.81975,0.51975*
1,1,0.01050,0.81975,-0.51975*
1,1,0.01050,-0.81975,-0.51975*
%
%ADD21ROUNDEDRECTD21*%
%TA.AperFunction,Conductor*%
%ADD22C,0.25400*%
%ADD23C,0.12700*%
%ADD24C,2.50000*%
%ADD25C,0.50800*%
%ADD26C,0.17780*%
%ADD27C,0.15240*%
%TA.AperFunction,ComponentPad*%
%ADD28C,2.00000*%
%ADD29O,1.50000X3.00000*%
%ADD30C,1.30000*%
%ADD31C,1.80000*%
%ADD32O,3.50000X5.00000*%
G04:AMPARAMS|DCode=33|XSize=3.5mm|YSize=5mm|CornerRadius=1.75mm|HoleSize=0mm|Usage=FLASHONLY|Rotation=0.000|XOffset=0mm|YOffset=0mm|HoleType=Round|Shape=RoundedRectangle|*
%AMROUNDEDRECTD33*
21,1,3.50000,1.50000,0,0,0.0*
21,1,0.00000,5.00000,0,0,0.0*
1,1,3.50000,0.00000,-0.75000*
1,1,3.50000,0.00000,-0.75000*
1,1,3.50000,0.00000,0.75000*
1,1,3.50000,0.00000,0.75000*
%
%ADD33ROUNDEDRECTD33*%
%TA.AperFunction,ViaPad*%
%ADD34O,2.20000X4.20000*%
%TA.AperFunction,ComponentPad*%
%ADD35C,1.20000*%
G04:AMPARAMS|DCode=36|XSize=1.58mm|YSize=1.58mm|CornerRadius=0.158mm|HoleSize=0mm|Usage=FLASHONLY|Rotation=270.000|XOffset=0mm|YOffset=0mm|HoleType=Round|Shape=RoundedRectangle|*
%AMROUNDEDRECTD36*
21,1,1.58000,1.26400,0,0,270.0*
21,1,1.26400,1.58000,0,0,270.0*
1,1,0.31600,-0.63200,-0.63200*
1,1,0.31600,-0.63200,0.63200*
1,1,0.31600,0.63200,0.63200*
1,1,0.31600,0.63200,-0.63200*
%
%ADD36ROUNDEDRECTD36*%
%ADD37C,1.58000*%
%TA.AperFunction,ViaPad*%
%ADD38C,5.00000*%
%ADD39C,0.41000*%
G36*
X3869526Y6261260D02*
X3871005Y6257016D01*
X3867509Y6250476D01*
X3863352Y6236772D01*
X3861948Y6222520D01*
X3863352Y6208269D01*
X3867509Y6194564D01*
X3874260Y6181935D01*
X3883345Y6170865D01*
X3894415Y6161780D01*
X3907044Y6155029D01*
X3915577Y6152441D01*
Y6112205D01*
X3894472Y6091100D01*
X3579937D01*
X3572504Y6089622D01*
X3566203Y6085411D01*
X3537366Y6056574D01*
X3533155Y6050273D01*
X3531677Y6042840D01*
Y6006447D01*
X3530827Y6006095D01*
X3522429Y5999651D01*
X3515986Y5991254D01*
X3511935Y5981474D01*
X3510553Y5970980D01*
Y5855980D01*
X3511935Y5845486D01*
X3515986Y5835707D01*
X3522429Y5827309D01*
X3530827Y5820866D01*
X3540606Y5816815D01*
X3551100Y5815433D01*
X3561594Y5816815D01*
X3571373Y5820866D01*
X3579771Y5827309D01*
X3586215Y5835707D01*
X3590265Y5845486D01*
X3591647Y5855980D01*
Y5970980D01*
X3590265Y5981474D01*
X3586215Y5991254D01*
X3579771Y5999651D01*
X3571373Y6006095D01*
X3570523Y6006447D01*
Y6034795D01*
X3587982Y6052254D01*
X3902517D01*
X3909950Y6053732D01*
X3916251Y6057943D01*
X3948734Y6090426D01*
X3952945Y6096727D01*
X3954423Y6104160D01*
Y6152441D01*
X3962956Y6155029D01*
X3975585Y6161780D01*
X3986655Y6170865D01*
X3995740Y6181935D01*
X4002491Y6194564D01*
X4006648Y6208269D01*
X4008052Y6222520D01*
X4006936Y6233852D01*
X4012993Y6239984D01*
X4018153Y6242596D01*
X4044789Y6229998D01*
X4081793Y6216757D01*
X4119916Y6207208D01*
X4158793Y6201441D01*
X4198046Y6199513D01*
X5766837Y6199515D01*
X5953616Y6012736D01*
X5948756Y6001003D01*
X4483015D01*
Y6017280D01*
X4482004Y6022362D01*
X4479126Y6026671D01*
X4474817Y6029550D01*
X4469735Y6030560D01*
X4405385D01*
X4400303Y6029550D01*
X4395995Y6026671D01*
X4393116Y6022362D01*
X4392105Y6017280D01*
Y5932930D01*
X4393116Y5927848D01*
X4395995Y5923540D01*
X4400303Y5920661D01*
X4405385Y5919650D01*
X4411662D01*
Y5857579D01*
X4408889Y5855451D01*
X4402446Y5847053D01*
X4398395Y5837274D01*
X4397013Y5826780D01*
Y5796203D01*
X4044141D01*
Y5816430D01*
X4043128Y5821522D01*
X4040244Y5825838D01*
X4035927Y5828723D01*
X4030835Y5829736D01*
X3961536D01*
X3956444Y5828723D01*
X3952127Y5825838D01*
X3949243Y5821522D01*
X3948230Y5816430D01*
Y5737130D01*
X3949243Y5732038D01*
X3952127Y5727721D01*
X3956444Y5724837D01*
X3961536Y5723824D01*
X4030835D01*
X4035927Y5724837D01*
X4040244Y5727721D01*
X4043128Y5732038D01*
X4044141Y5737130D01*
Y5757357D01*
X4397013D01*
Y5726780D01*
X4398395Y5716285D01*
X4402446Y5706506D01*
X4408889Y5698109D01*
X4417287Y5691665D01*
X4427066Y5687614D01*
X4437560Y5686233D01*
X4448054Y5687614D01*
X4457833Y5691665D01*
X4466231Y5698109D01*
X4472675Y5706506D01*
X4476725Y5716285D01*
X4478107Y5726780D01*
Y5757357D01*
X4524013D01*
Y5726780D01*
X4525395Y5716285D01*
X4529446Y5706506D01*
X4535889Y5698109D01*
X4544287Y5691665D01*
X4554066Y5687614D01*
X4564560Y5686233D01*
X4575054Y5687614D01*
X4584833Y5691665D01*
X4593231Y5698109D01*
X4599675Y5706506D01*
X4603725Y5716285D01*
X4605107Y5726780D01*
Y5826780D01*
X4603725Y5837274D01*
X4599675Y5847053D01*
X4593231Y5855451D01*
X4584833Y5861895D01*
X4575054Y5865945D01*
X4564560Y5867327D01*
X4554066Y5865945D01*
X4544287Y5861895D01*
X4535889Y5855451D01*
X4529446Y5847053D01*
X4525395Y5837274D01*
X4524013Y5826780D01*
Y5796203D01*
X4478107D01*
Y5826780D01*
X4476725Y5837274D01*
X4472675Y5847053D01*
X4466231Y5855451D01*
X4463458Y5857579D01*
Y5919650D01*
X4469735D01*
X4474817Y5920661D01*
X4479126Y5923540D01*
X4482004Y5927848D01*
X4483015Y5932930D01*
Y5949208D01*
X5045302D01*
X5047933Y5946687D01*
X5053864Y5936507D01*
X5053137Y5932853D01*
Y5862247D01*
X5052287Y5861895D01*
X5043889Y5855451D01*
X5037446Y5847053D01*
X5033395Y5837274D01*
X5032013Y5826780D01*
Y5726780D01*
X5033395Y5716285D01*
X5037446Y5706506D01*
X5043889Y5698109D01*
X5052287Y5691665D01*
X5062066Y5687614D01*
X5072560Y5686233D01*
X5083054Y5687614D01*
X5092833Y5691665D01*
X5101231Y5698109D01*
X5107675Y5706506D01*
X5111725Y5716285D01*
X5113107Y5726780D01*
Y5826780D01*
X5111725Y5837274D01*
X5107675Y5847053D01*
X5101231Y5855451D01*
X5092833Y5861895D01*
X5091983Y5862247D01*
Y5923932D01*
X5949678D01*
X6131367Y5742244D01*
Y4843063D01*
X5294141D01*
X5294140Y4843063D01*
X5286707Y4841585D01*
X5280406Y4837374D01*
X5280405Y4837374D01*
X5270246Y4827214D01*
X5266035Y4820913D01*
X5264557Y4813480D01*
Y4646399D01*
X5246480D01*
X5237944Y4645275D01*
X5229989Y4641980D01*
X5223158Y4636739D01*
X5217917Y4629908D01*
X5214622Y4621953D01*
X5213498Y4613417D01*
X5214622Y4604881D01*
X5217917Y4596926D01*
X5223158Y4590095D01*
X5225055Y4588640D01*
X5225861Y4586736D01*
Y4575098D01*
X5225055Y4573194D01*
X5223158Y4571739D01*
X5217917Y4564908D01*
X5214622Y4556953D01*
X5213498Y4548417D01*
X5214622Y4539880D01*
X5217917Y4531926D01*
X5223158Y4525095D01*
X5225055Y4523639D01*
X5225860Y4521736D01*
Y4510098D01*
X5225055Y4508194D01*
X5223158Y4506739D01*
X5217917Y4499908D01*
X5214622Y4491953D01*
X5213498Y4483417D01*
X5214622Y4474881D01*
X5217917Y4466926D01*
X5223158Y4460095D01*
X5225055Y4458640D01*
X5225861Y4456736D01*
Y4445098D01*
X5225055Y4443194D01*
X5223158Y4441739D01*
X5217917Y4434908D01*
X5214622Y4426953D01*
X5213498Y4418417D01*
X5214622Y4409880D01*
X5217917Y4401926D01*
X5223158Y4395095D01*
X5225055Y4393640D01*
X5225860Y4391736D01*
Y4380098D01*
X5225055Y4378194D01*
X5223158Y4376739D01*
X5217917Y4369908D01*
X5214622Y4361953D01*
X5213498Y4353417D01*
X5214622Y4344881D01*
X5217917Y4336926D01*
X5223158Y4330095D01*
X5223369Y4329933D01*
X5224433Y4316659D01*
X5216167Y4307840D01*
X5213781D01*
X5213780Y4307840D01*
X5206347Y4306361D01*
X5200046Y4302151D01*
X5195986Y4298091D01*
X5191775Y4291790D01*
X5190297Y4284357D01*
Y4263086D01*
X5173374Y4246163D01*
X5033377D01*
X5025944Y4244685D01*
X5019643Y4240474D01*
X4951089Y4171920D01*
X4946878Y4165619D01*
X4945400Y4158186D01*
Y3529845D01*
X4391920D01*
Y3836710D01*
X4396424Y3843450D01*
X4398395Y3853360D01*
Y3883572D01*
Y4262519D01*
X4483705D01*
Y4256242D01*
X4484716Y4251160D01*
X4487595Y4246851D01*
X4491903Y4243972D01*
X4496985Y4242962D01*
X4581335D01*
X4586417Y4243972D01*
X4590726Y4246851D01*
X4593604Y4251160D01*
X4594615Y4256242D01*
Y4266404D01*
X4662153D01*
X4663158Y4265095D01*
X4665055Y4263639D01*
X4665860Y4261736D01*
Y4250098D01*
X4665055Y4248194D01*
X4663158Y4246739D01*
X4657917Y4239908D01*
X4654622Y4231953D01*
X4653498Y4223417D01*
X4654622Y4214881D01*
X4657917Y4206926D01*
X4663158Y4200095D01*
X4665055Y4198640D01*
X4665861Y4196736D01*
Y4185098D01*
X4665055Y4183194D01*
X4663158Y4181739D01*
X4657917Y4174908D01*
X4654622Y4166953D01*
X4653498Y4158417D01*
X4654622Y4149880D01*
X4657917Y4141926D01*
X4663158Y4135095D01*
X4665055Y4133640D01*
X4665860Y4131736D01*
Y4120098D01*
X4665055Y4118194D01*
X4663158Y4116739D01*
X4657917Y4109908D01*
X4654622Y4101953D01*
X4653498Y4093417D01*
X4654622Y4084881D01*
X4657917Y4076926D01*
X4663158Y4070095D01*
X4665055Y4068640D01*
X4665861Y4066736D01*
Y4055098D01*
X4665055Y4053194D01*
X4663158Y4051739D01*
X4657917Y4044908D01*
X4654622Y4036953D01*
X4653498Y4028417D01*
X4654622Y4019880D01*
X4657917Y4011926D01*
X4663158Y4005095D01*
X4669989Y3999854D01*
X4677944Y3996559D01*
X4686480Y3995435D01*
X4704557D01*
Y3907762D01*
X4699789Y3902995D01*
X4571779D01*
X4568608Y3913450D01*
X4561392Y3926948D01*
X4551683Y3938780D01*
X4539851Y3948489D01*
X4526353Y3955704D01*
X4511707Y3960147D01*
X4496475Y3961647D01*
X4481243Y3960147D01*
X4466597Y3955704D01*
X4453098Y3948489D01*
X4441267Y3938780D01*
X4431557Y3926948D01*
X4424342Y3913450D01*
X4419899Y3898803D01*
X4418399Y3883572D01*
X4419899Y3868340D01*
X4424342Y3853693D01*
X4431557Y3840195D01*
X4441267Y3828364D01*
X4453098Y3818654D01*
X4466597Y3811439D01*
X4481243Y3806996D01*
X4496475Y3805496D01*
X4511707Y3806996D01*
X4526353Y3811439D01*
X4539851Y3818654D01*
X4551683Y3828364D01*
X4561392Y3840195D01*
X4568608Y3853693D01*
X4571779Y3864148D01*
X4707835D01*
X4715268Y3865627D01*
X4721569Y3869837D01*
X4737714Y3885983D01*
X4741925Y3892284D01*
X4743403Y3899717D01*
Y3995435D01*
X4761480D01*
X4769068Y3996434D01*
X4770364Y3996296D01*
X4781768Y3987680D01*
Y3651332D01*
X4779432Y3648995D01*
X4571779D01*
X4568608Y3659450D01*
X4561392Y3672948D01*
X4551683Y3684780D01*
X4539851Y3694489D01*
X4526353Y3701704D01*
X4511707Y3706147D01*
X4496475Y3707647D01*
X4481243Y3706147D01*
X4466597Y3701704D01*
X4453098Y3694489D01*
X4441267Y3684780D01*
X4431557Y3672948D01*
X4424342Y3659450D01*
X4419899Y3644803D01*
X4418399Y3629572D01*
X4419899Y3614340D01*
X4424342Y3599693D01*
X4431557Y3586195D01*
X4441267Y3574364D01*
X4453098Y3564654D01*
X4466597Y3557439D01*
X4481243Y3552996D01*
X4496475Y3551496D01*
X4511707Y3552996D01*
X4526353Y3557439D01*
X4539851Y3564654D01*
X4551683Y3574364D01*
X4561392Y3586195D01*
X4568608Y3599693D01*
X4571779Y3610148D01*
X4787477D01*
X4794910Y3611627D01*
X4801211Y3615837D01*
X4814926Y3629552D01*
X4819136Y3635853D01*
X4820615Y3643286D01*
Y4086379D01*
X4819136Y4093812D01*
X4814926Y4100113D01*
X4807888Y4107151D01*
X4801586Y4111362D01*
X4794153Y4112840D01*
X4787794D01*
X4784802Y4116739D01*
X4784592Y4116901D01*
X4783527Y4130175D01*
X4791794Y4138994D01*
X4847289D01*
X4854722Y4140472D01*
X4861024Y4144683D01*
X4886841Y4170500D01*
X4891052Y4176802D01*
X4892530Y4184235D01*
X4892530Y4184236D01*
Y4407707D01*
X4900861Y4416038D01*
X5101273D01*
X5108706Y4417517D01*
X5115008Y4421727D01*
X5122447Y4429167D01*
X5126658Y4435468D01*
X5128136Y4442901D01*
Y4981679D01*
X5852861D01*
X5856584Y4966168D01*
X5863373Y4949779D01*
X5872642Y4934654D01*
X5884163Y4921165D01*
X5897652Y4909644D01*
X5912777Y4900375D01*
X5929166Y4893587D01*
X5946415Y4889446D01*
X5964100Y4888054D01*
X5981785Y4889446D01*
X5999034Y4893587D01*
X6015423Y4900375D01*
X6030548Y4909644D01*
X6044037Y4921165D01*
X6055558Y4934654D01*
X6064827Y4949779D01*
X6071616Y4966168D01*
X6075757Y4983418D01*
X6077149Y5001102D01*
X6075757Y5018787D01*
X6071616Y5036036D01*
X6064827Y5052425D01*
X6055558Y5067550D01*
X6044037Y5081040D01*
X6030548Y5092561D01*
X6015423Y5101829D01*
X5999034Y5108618D01*
X5981785Y5112759D01*
X5964100Y5114151D01*
X5946415Y5112759D01*
X5929166Y5108618D01*
X5912777Y5101829D01*
X5897652Y5092561D01*
X5884163Y5081040D01*
X5872642Y5067550D01*
X5863373Y5052425D01*
X5856584Y5036036D01*
X5852861Y5020526D01*
X5116153D01*
X5108720Y5019047D01*
X5102418Y5014837D01*
X5094979Y5007397D01*
X5090768Y5001096D01*
X5089290Y4993663D01*
Y4454884D01*
X4892816D01*
X4885383Y4453406D01*
X4879081Y4449196D01*
X4859373Y4429487D01*
X4855163Y4423186D01*
X4853684Y4415753D01*
Y4192280D01*
X4839244Y4177840D01*
X4787794D01*
X4784802Y4181739D01*
X4782905Y4183194D01*
X4782100Y4185098D01*
Y4196736D01*
X4782905Y4198640D01*
X4784802Y4200095D01*
X4790044Y4206926D01*
X4793338Y4214881D01*
X4794462Y4223417D01*
X4793338Y4231953D01*
X4790044Y4239908D01*
X4784802Y4246739D01*
X4782906Y4248194D01*
X4782100Y4250098D01*
Y4261736D01*
X4782906Y4263639D01*
X4784802Y4265095D01*
X4790044Y4271926D01*
X4793338Y4279880D01*
X4794462Y4288417D01*
X4793338Y4296953D01*
X4790044Y4304908D01*
X4784802Y4311739D01*
X4782905Y4313194D01*
X4782100Y4315098D01*
Y4326736D01*
X4782905Y4328640D01*
X4784802Y4330095D01*
X4790044Y4336926D01*
X4793338Y4344881D01*
X4793627Y4347072D01*
X4654333D01*
X4654622Y4344881D01*
X4657917Y4336926D01*
X4663158Y4330095D01*
X4661785Y4317368D01*
X4655094Y4310430D01*
X4594615D01*
Y4320592D01*
X4593604Y4325674D01*
X4590726Y4329982D01*
X4586417Y4332861D01*
X4581335Y4333872D01*
X4496985D01*
X4491903Y4332861D01*
X4487595Y4329982D01*
X4484716Y4325674D01*
X4483705Y4320592D01*
Y4314314D01*
X4313759D01*
X4311631Y4317088D01*
X4303234Y4323531D01*
X4293455Y4327582D01*
X4282960Y4328964D01*
X4252960D01*
X4242466Y4327582D01*
X4232687Y4323531D01*
X4224289Y4317088D01*
X4217846Y4308690D01*
X4213795Y4298911D01*
X4212413Y4288417D01*
X4213795Y4277923D01*
X4217846Y4268144D01*
X4224289Y4259746D01*
X4232687Y4253302D01*
X4242466Y4249252D01*
X4252960Y4247870D01*
X4282960D01*
X4293455Y4249252D01*
X4303234Y4253302D01*
X4311631Y4259746D01*
X4313759Y4262519D01*
X4346600D01*
Y3909469D01*
X4315815D01*
X4314608Y3913450D01*
X4307392Y3926948D01*
X4297683Y3938780D01*
X4285851Y3948489D01*
X4272353Y3955704D01*
X4257707Y3960147D01*
X4242475Y3961647D01*
X4227243Y3960147D01*
X4212597Y3955704D01*
X4199098Y3948489D01*
X4187267Y3938780D01*
X4177557Y3926948D01*
X4170342Y3913450D01*
X4165899Y3898803D01*
X4164399Y3883572D01*
X4165899Y3868340D01*
X4170342Y3853693D01*
X4177557Y3840195D01*
X4187267Y3828364D01*
X4199098Y3818654D01*
X4212597Y3811439D01*
X4227243Y3806996D01*
X4242475Y3805496D01*
X4257707Y3806996D01*
X4272353Y3811439D01*
X4285851Y3818654D01*
X4297683Y3828364D01*
X4307392Y3840195D01*
X4314608Y3853693D01*
X4315815Y3857674D01*
X4346600D01*
Y3853360D01*
X4348571Y3843450D01*
X4353074Y3836710D01*
Y3521368D01*
X4353914Y3517145D01*
X4348501Y3507507D01*
X4345619Y3504445D01*
X4261898D01*
Y3554267D01*
X4272353Y3557439D01*
X4285851Y3564654D01*
X4297683Y3574364D01*
X4307392Y3586195D01*
X4314608Y3599693D01*
X4319051Y3614340D01*
X4320551Y3629572D01*
X4319051Y3644803D01*
X4314608Y3659450D01*
X4307392Y3672948D01*
X4297683Y3684780D01*
X4285851Y3694489D01*
X4272353Y3701704D01*
X4257707Y3706147D01*
X4242475Y3707647D01*
X4227243Y3706147D01*
X4212597Y3701704D01*
X4199098Y3694489D01*
X4187267Y3684780D01*
X4177557Y3672948D01*
X4170342Y3659450D01*
X4165899Y3644803D01*
X4164399Y3629572D01*
X4165899Y3614340D01*
X4170342Y3599693D01*
X4177557Y3586195D01*
X4187267Y3574364D01*
X4199098Y3564654D01*
X4212597Y3557439D01*
X4223052Y3554267D01*
Y3492274D01*
X4224530Y3484841D01*
X4228741Y3478540D01*
Y3468102D01*
X4224530Y3461801D01*
X4223052Y3454368D01*
Y3450876D01*
X4212597Y3447704D01*
X4199098Y3440489D01*
X4187267Y3430780D01*
X4177557Y3418948D01*
X4170342Y3405450D01*
X4165899Y3390803D01*
X4164399Y3375572D01*
X4165899Y3360340D01*
X4170342Y3345693D01*
X4177557Y3332195D01*
X4187267Y3320364D01*
X4199098Y3310654D01*
X4212597Y3303439D01*
X4227243Y3298996D01*
X4242475Y3297496D01*
X4257707Y3298996D01*
X4272353Y3303439D01*
X4285851Y3310654D01*
X4297683Y3320364D01*
X4307392Y3332195D01*
X4314608Y3345693D01*
X4319051Y3360340D01*
X4320551Y3375572D01*
X4319051Y3390803D01*
X4314608Y3405450D01*
X4307392Y3418948D01*
X4300375Y3427499D01*
X4304952Y3440199D01*
X4433998D01*
X4438574Y3427499D01*
X4431557Y3418948D01*
X4424342Y3405450D01*
X4419899Y3390803D01*
X4418399Y3375572D01*
X4419899Y3360340D01*
X4424342Y3345693D01*
X4431557Y3332195D01*
X4441267Y3320364D01*
X4453098Y3310654D01*
X4466597Y3303439D01*
X4481243Y3298996D01*
X4496475Y3297496D01*
X4511707Y3298996D01*
X4526353Y3303439D01*
X4539851Y3310654D01*
X4551683Y3320364D01*
X4561392Y3332195D01*
X4568608Y3345693D01*
X4573051Y3360340D01*
X4574551Y3375572D01*
X4573051Y3390803D01*
X4569624Y3402098D01*
X4576114Y3414799D01*
X4985640D01*
X4993073Y3416277D01*
X4999374Y3420487D01*
X5035267Y3456380D01*
X5047000Y3451520D01*
Y3075736D01*
X4988066Y3016803D01*
X3428406D01*
Y3029555D01*
X3427395Y3034637D01*
X3424517Y3038946D01*
X3420208Y3041824D01*
X3415126Y3042835D01*
X3330776D01*
X3325694Y3041824D01*
X3321386Y3038946D01*
X3318507Y3034637D01*
X3317496Y3029555D01*
Y3016803D01*
X3237936D01*
Y3037030D01*
X3236923Y3042122D01*
X3234039Y3046439D01*
X3229722Y3049323D01*
X3224630Y3050336D01*
X3155330D01*
X3150238Y3049323D01*
X3145922Y3046439D01*
X3143037Y3042122D01*
X3142024Y3037030D01*
Y2957730D01*
X3143037Y2952638D01*
X3145922Y2948322D01*
X3150238Y2945437D01*
X3155330Y2944424D01*
X3224630D01*
X3229722Y2945437D01*
X3234039Y2948322D01*
X3236923Y2952638D01*
X3237936Y2957730D01*
Y2977957D01*
X3317496D01*
Y2965205D01*
X3318507Y2960123D01*
X3321386Y2955815D01*
X3325694Y2952936D01*
X3330776Y2951925D01*
X3415126D01*
X3420208Y2952936D01*
X3424517Y2955815D01*
X3427395Y2960123D01*
X3428406Y2965205D01*
Y2977957D01*
X4996112D01*
X5003545Y2979435D01*
X5009846Y2983646D01*
X5080156Y3053956D01*
X5080157Y3053957D01*
X5084368Y3060258D01*
X5085846Y3067691D01*
X5085846Y3067692D01*
Y3437341D01*
X5098546Y3441885D01*
X5099318Y3440945D01*
X5113281Y3429486D01*
X5129211Y3420971D01*
X5138576Y3418130D01*
Y2716598D01*
X4270912D01*
Y2794231D01*
X4274893Y2795439D01*
X4288391Y2802654D01*
X4300223Y2812364D01*
X4309932Y2824195D01*
X4317148Y2837693D01*
X4321591Y2852340D01*
X4323091Y2867572D01*
X4321591Y2882803D01*
X4317148Y2897450D01*
X4309932Y2910948D01*
X4300223Y2922780D01*
X4288391Y2932489D01*
X4274893Y2939704D01*
X4260247Y2944147D01*
X4245015Y2945647D01*
X4229783Y2944147D01*
X4215137Y2939704D01*
X4201638Y2932489D01*
X4189807Y2922780D01*
X4180097Y2910948D01*
X4172882Y2897450D01*
X4168439Y2882803D01*
X4166939Y2867572D01*
X4168439Y2852340D01*
X4172882Y2837693D01*
X4180097Y2824195D01*
X4189807Y2812364D01*
X4201638Y2802654D01*
X4215137Y2795439D01*
X4219117Y2794231D01*
Y2716598D01*
X3622827D01*
X3618283Y2729298D01*
X3622951Y2733129D01*
X3635785Y2748767D01*
X3645321Y2766608D01*
X3649596Y2780700D01*
X3450364D01*
X3454639Y2766608D01*
X3464175Y2748767D01*
X3477009Y2733129D01*
X3481677Y2729298D01*
X3477133Y2716598D01*
X3122827D01*
X3118283Y2729298D01*
X3122951Y2733129D01*
X3135785Y2748767D01*
X3145321Y2766608D01*
X3151194Y2785968D01*
X3153177Y2806100D01*
X3151194Y2826233D01*
X3145321Y2845592D01*
X3135785Y2863433D01*
X3122951Y2879071D01*
X3107313Y2891905D01*
X3089472Y2901441D01*
X3070112Y2907314D01*
X3069403Y2907384D01*
Y2944424D01*
X3084630D01*
X3089722Y2945437D01*
X3094039Y2948322D01*
X3096923Y2952638D01*
X3097936Y2957730D01*
Y3037030D01*
X3096923Y3042122D01*
X3094039Y3046439D01*
X3089722Y3049323D01*
X3084630Y3050336D01*
X3015330D01*
X3010238Y3049323D01*
X3005921Y3046439D01*
X3003037Y3042122D01*
X3002024Y3037030D01*
Y2957730D01*
X3003037Y2952638D01*
X3005921Y2948322D01*
X3010238Y2945437D01*
X3015330Y2944424D01*
X3030557D01*
Y2907384D01*
X3029847Y2907314D01*
X3010488Y2901441D01*
X2992647Y2891905D01*
X2977009Y2879071D01*
X2972478Y2873550D01*
X2959778Y2878094D01*
Y4008801D01*
X2961053Y4009780D01*
X2962032Y4011056D01*
X3852465D01*
X3862376Y4013027D01*
X3870778Y4018641D01*
X3902152Y4050016D01*
X3907766Y4058418D01*
X3909738Y4068328D01*
Y4078994D01*
X3972493D01*
X3972845Y4078143D01*
X3979289Y4069746D01*
X3987686Y4063303D01*
X3997466Y4059252D01*
X4007960Y4057870D01*
X4037960D01*
X4048455Y4059252D01*
X4058234Y4063303D01*
X4066631Y4069746D01*
X4073075Y4078143D01*
X4077126Y4087923D01*
X4078507Y4098417D01*
X4077126Y4108911D01*
X4073075Y4118691D01*
X4066631Y4127088D01*
X4058234Y4133531D01*
X4048455Y4137582D01*
X4037960Y4138964D01*
X4007960D01*
X3997466Y4137582D01*
X3987686Y4133531D01*
X3979289Y4127088D01*
X3972845Y4118691D01*
X3972493Y4117840D01*
X3909738D01*
Y4262358D01*
X3909899Y4262519D01*
X3977161D01*
X3979289Y4259746D01*
X3987687Y4253302D01*
X3997466Y4249252D01*
X4007960Y4247870D01*
X4037960D01*
X4048455Y4249252D01*
X4058234Y4253302D01*
X4066631Y4259746D01*
X4073075Y4268143D01*
X4077126Y4277923D01*
X4078507Y4288417D01*
X4077126Y4298911D01*
X4073075Y4308690D01*
X4066631Y4317088D01*
X4058234Y4323531D01*
X4048455Y4327582D01*
X4037960Y4328964D01*
X4007960D01*
X3997466Y4327582D01*
X3987687Y4323531D01*
X3979289Y4317088D01*
X3977161Y4314314D01*
X3899172D01*
X3889261Y4312343D01*
X3880860Y4306729D01*
X3865528Y4291397D01*
X3859914Y4282995D01*
X3857943Y4273085D01*
Y4079055D01*
X3841738Y4062851D01*
X2962032D01*
X2961053Y4064126D01*
X2953094Y4070233D01*
X2943826Y4074073D01*
X2933880Y4075382D01*
X2867183D01*
Y4391273D01*
X2928361Y4452451D01*
X3022034D01*
X3031945Y4454422D01*
X3040346Y4460036D01*
X3099838Y4519527D01*
X3105451Y4527929D01*
X3105887Y4530118D01*
X3121069D01*
Y4513841D01*
X3122080Y4508758D01*
X3124959Y4504450D01*
X3129267Y4501571D01*
X3134349Y4500560D01*
X3198699D01*
X3203782Y4501571D01*
X3208090Y4504450D01*
X3210969Y4508758D01*
X3211980Y4513841D01*
Y4598190D01*
X3210969Y4603273D01*
X3208090Y4607581D01*
X3203782Y4610460D01*
X3198699Y4611471D01*
X3134349D01*
X3129267Y4610460D01*
X3124959Y4607581D01*
X3122080Y4603273D01*
X3121069Y4598190D01*
Y4581913D01*
X3107423D01*
Y4643810D01*
X3120123Y4648354D01*
X3121345Y4646865D01*
X3132415Y4637780D01*
X3145044Y4631029D01*
X3158748Y4626872D01*
X3173000Y4625469D01*
X3187252Y4626872D01*
X3200956Y4631029D01*
X3213585Y4637780D01*
X3224655Y4646865D01*
X3233740Y4657935D01*
X3240491Y4670564D01*
X3244648Y4684269D01*
X3246052Y4698520D01*
X3244648Y4712772D01*
X3240491Y4726476D01*
X3233740Y4739106D01*
X3224655Y4750175D01*
X3213585Y4759260D01*
X3200956Y4766011D01*
X3189523Y4769479D01*
Y4890514D01*
X3190373Y4890866D01*
X3198771Y4897309D01*
X3205215Y4905707D01*
X3209265Y4915486D01*
X3210647Y4925980D01*
Y5040980D01*
X3209265Y5051475D01*
X3205215Y5061254D01*
X3198771Y5069651D01*
X3190373Y5076095D01*
X3180594Y5080146D01*
X3170100Y5081527D01*
X3159606Y5080146D01*
X3149827Y5076095D01*
X3141429Y5069651D01*
X3134986Y5061254D01*
X3130935Y5051475D01*
X3129553Y5040980D01*
Y4925980D01*
X3130935Y4915486D01*
X3134986Y4905707D01*
X3141429Y4897309D01*
X3149827Y4890866D01*
X3150677Y4890514D01*
Y4767720D01*
X3145044Y4766011D01*
X3132415Y4759260D01*
X3121345Y4750175D01*
X3120123Y4748686D01*
X3107423Y4753231D01*
Y4764531D01*
X3105451Y4774442D01*
X3099838Y4782844D01*
X3068998Y4813684D01*
Y4895181D01*
X3071771Y4897309D01*
X3078215Y4905707D01*
X3082265Y4915486D01*
X3083647Y4925980D01*
Y5040980D01*
X3082265Y5051475D01*
X3078215Y5061254D01*
X3071771Y5069651D01*
X3063373Y5076095D01*
X3053594Y5080146D01*
X3043100Y5081527D01*
X3032606Y5080146D01*
X3022827Y5076095D01*
X3021347Y5075795D01*
X3006611Y5079576D01*
X3006381Y5079920D01*
X2986323Y5099978D01*
Y5346087D01*
X3005794Y5365557D01*
X4621337D01*
Y5330778D01*
X4605876Y5315317D01*
X4601721Y5309098D01*
X4601640Y5309007D01*
X4587837Y5304590D01*
X4584833Y5306895D01*
X4575054Y5310945D01*
X4564560Y5312327D01*
X4554066Y5310945D01*
X4544287Y5306895D01*
X4535889Y5300451D01*
X4529446Y5292054D01*
X4525395Y5282274D01*
X4524013Y5271780D01*
Y5171780D01*
X4525395Y5161286D01*
X4529446Y5151506D01*
X4535889Y5143109D01*
X4544287Y5136665D01*
X4545137Y5136313D01*
Y4895541D01*
X4310380D01*
X4302947Y4894062D01*
X4296646Y4889852D01*
X4000034Y4593240D01*
X3488808D01*
X3488807Y4593240D01*
X3481374Y4591761D01*
X3475072Y4587551D01*
X3437875Y4550353D01*
X3433664Y4544052D01*
X3432186Y4536619D01*
Y4438463D01*
X2974702D01*
X2967269Y4436984D01*
X2960968Y4432774D01*
X2889845Y4361651D01*
X2885634Y4355349D01*
X2884156Y4347916D01*
Y4159144D01*
X2885634Y4151711D01*
X2889845Y4145409D01*
X2942829Y4092425D01*
X2949130Y4088215D01*
X2956563Y4086737D01*
X3369501D01*
X3376934Y4088215D01*
X3383235Y4092425D01*
X3454664Y4163855D01*
X3458874Y4170156D01*
X3460353Y4177589D01*
Y4183405D01*
X3473053Y4187949D01*
X3477009Y4183129D01*
X3492647Y4170295D01*
X3510488Y4160759D01*
X3529847Y4154887D01*
X3549980Y4152904D01*
X3570112Y4154887D01*
X3589472Y4160759D01*
X3607313Y4170295D01*
X3622951Y4183129D01*
X3635785Y4198767D01*
X3645321Y4216609D01*
X3651194Y4235968D01*
X3653177Y4256100D01*
X3651194Y4276233D01*
X3645321Y4295592D01*
X3635785Y4313433D01*
X3635333Y4313984D01*
X3662977Y4341629D01*
X3667187Y4347930D01*
X3668666Y4355363D01*
Y4365461D01*
X3683893D01*
X3688984Y4366474D01*
X3693301Y4369358D01*
X3696185Y4373675D01*
X3697198Y4378767D01*
Y4458067D01*
X3696185Y4463159D01*
X3693301Y4467475D01*
X3688984Y4470360D01*
X3683893Y4471373D01*
X3614593D01*
X3609501Y4470360D01*
X3605184Y4467475D01*
X3602300Y4463159D01*
X3601287Y4458067D01*
Y4378767D01*
X3602300Y4373675D01*
X3605184Y4369358D01*
X3609501Y4366474D01*
X3614025Y4365574D01*
X3615167Y4363869D01*
X3619172Y4352761D01*
X3607864Y4341453D01*
X3607313Y4341905D01*
X3589472Y4351441D01*
X3570112Y4357314D01*
X3549980Y4359297D01*
X3533777Y4357701D01*
X3530608Y4359040D01*
X3525324Y4363432D01*
X3521832Y4368154D01*
Y4503594D01*
X3983809D01*
X4037829Y4449573D01*
X4032969Y4437840D01*
X3837199D01*
Y4458067D01*
X3836186Y4463159D01*
X3833301Y4467475D01*
X3828985Y4470360D01*
X3823893Y4471373D01*
X3754593D01*
X3749501Y4470360D01*
X3745184Y4467475D01*
X3742300Y4463159D01*
X3741287Y4458067D01*
Y4378767D01*
X3742300Y4373675D01*
X3745184Y4369358D01*
X3749501Y4366474D01*
X3754593Y4365461D01*
X3769820D01*
Y4333845D01*
X3747068D01*
X3741986Y4332834D01*
X3737677Y4329955D01*
X3734798Y4325647D01*
X3733788Y4320564D01*
Y4256215D01*
X3734798Y4251132D01*
X3737677Y4246824D01*
X3741986Y4243945D01*
X3747068Y4242934D01*
X3831418D01*
X3836500Y4243945D01*
X3840808Y4246824D01*
X3843687Y4251132D01*
X3844698Y4256215D01*
Y4320564D01*
X3843687Y4325647D01*
X3840808Y4329955D01*
X3836500Y4332834D01*
X3831418Y4333845D01*
X3808666D01*
Y4365461D01*
X3823893D01*
X3828985Y4366474D01*
X3833301Y4369358D01*
X3836186Y4373675D01*
X3837199Y4378767D01*
Y4398994D01*
X4656167D01*
X4664433Y4390175D01*
X4663369Y4376901D01*
X4663158Y4376739D01*
X4657917Y4369908D01*
X4654622Y4361953D01*
X4654335Y4359772D01*
X4793626D01*
X4793338Y4361953D01*
X4790044Y4369908D01*
X4784802Y4376739D01*
X4782906Y4378194D01*
X4782100Y4380098D01*
Y4391736D01*
X4782906Y4393640D01*
X4784802Y4395095D01*
X4790044Y4401926D01*
X4793338Y4409880D01*
X4794462Y4418417D01*
X4793338Y4426953D01*
X4790044Y4434908D01*
X4784802Y4441739D01*
X4782905Y4443194D01*
X4782100Y4445098D01*
Y4456736D01*
X4782905Y4458640D01*
X4784802Y4460095D01*
X4790044Y4466926D01*
X4793338Y4474881D01*
X4794462Y4483417D01*
X4793338Y4491953D01*
X4790044Y4499908D01*
X4784802Y4506739D01*
X4782906Y4508194D01*
X4782100Y4510098D01*
Y4521736D01*
X4782906Y4523639D01*
X4784802Y4525095D01*
X4790044Y4531926D01*
X4793338Y4539880D01*
X4794462Y4548417D01*
X4793338Y4556953D01*
X4790044Y4564908D01*
X4784802Y4571739D01*
X4784591Y4571901D01*
X4783527Y4585175D01*
X4791793Y4593994D01*
X4934546D01*
X4941979Y4595472D01*
X4948280Y4599683D01*
X4959294Y4610697D01*
X4963505Y4616998D01*
X4964983Y4624431D01*
Y5136313D01*
X4965833Y5136665D01*
X4974231Y5143109D01*
X4980675Y5151506D01*
X4984725Y5161286D01*
X4986107Y5171780D01*
Y5271780D01*
X4984725Y5282274D01*
X4980675Y5292054D01*
X4974231Y5300451D01*
X4965833Y5306895D01*
X4956054Y5310945D01*
X4945560Y5312327D01*
X4935066Y5310945D01*
X4925287Y5306895D01*
X4916889Y5300451D01*
X4910446Y5292054D01*
X4906395Y5282274D01*
X4905013Y5271780D01*
Y5171780D01*
X4906395Y5161286D01*
X4910446Y5151506D01*
X4916889Y5143109D01*
X4925287Y5136665D01*
X4926137Y5136313D01*
Y4632840D01*
X4787794D01*
X4784802Y4636739D01*
X4777971Y4641980D01*
X4770017Y4645275D01*
X4761480Y4646399D01*
X4686480D01*
X4677944Y4645275D01*
X4669989Y4641980D01*
X4663158Y4636739D01*
X4657917Y4629908D01*
X4654622Y4621953D01*
X4653498Y4613417D01*
X4654622Y4604881D01*
X4657917Y4596926D01*
X4663158Y4590095D01*
X4663369Y4589933D01*
X4664433Y4576659D01*
X4656167Y4567840D01*
X4564135D01*
Y4580592D01*
X4563124Y4585674D01*
X4560246Y4589982D01*
X4555937Y4592861D01*
X4550855Y4593872D01*
X4466505D01*
X4461423Y4592861D01*
X4457115Y4589982D01*
X4454236Y4585674D01*
X4453225Y4580592D01*
Y4567840D01*
X4333948D01*
Y4588067D01*
X4332935Y4593159D01*
X4330051Y4597475D01*
X4325734Y4600360D01*
X4320642Y4601373D01*
X4251342D01*
X4246250Y4600360D01*
X4241933Y4597475D01*
X4239049Y4593159D01*
X4238036Y4588067D01*
Y4508767D01*
X4239049Y4503675D01*
X4241933Y4499358D01*
X4246250Y4496474D01*
X4251342Y4495461D01*
X4320642D01*
X4325734Y4496474D01*
X4330051Y4499358D01*
X4332935Y4503675D01*
X4333948Y4508767D01*
Y4528994D01*
X4453225D01*
Y4516242D01*
X4454236Y4511160D01*
X4457115Y4506851D01*
X4461423Y4503972D01*
X4466505Y4502962D01*
X4550855D01*
X4555937Y4503972D01*
X4560246Y4506851D01*
X4563124Y4511160D01*
X4564135Y4516242D01*
Y4528994D01*
X4660166D01*
X4663158Y4525095D01*
X4663369Y4524933D01*
X4664433Y4511659D01*
X4656167Y4502840D01*
X4644953D01*
X4637520Y4501362D01*
X4631219Y4497151D01*
X4631218Y4497151D01*
X4597307Y4463240D01*
X4079100D01*
X4025079Y4517260D01*
X4029940Y4528994D01*
X4098036D01*
Y4508767D01*
X4099049Y4503675D01*
X4101933Y4499358D01*
X4106250Y4496474D01*
X4111342Y4495461D01*
X4180642D01*
X4185734Y4496474D01*
X4190050Y4499358D01*
X4192934Y4503675D01*
X4193947Y4508767D01*
Y4588067D01*
X4192934Y4593159D01*
X4190050Y4597475D01*
X4185734Y4600360D01*
X4180642Y4601373D01*
X4111342D01*
X4106250Y4600360D01*
X4101933Y4597475D01*
X4099049Y4593159D01*
X4098036Y4588067D01*
Y4567840D01*
X4046164D01*
X4041304Y4579573D01*
X4318425Y4856695D01*
X4557120D01*
X4564553Y4858173D01*
X4570855Y4862383D01*
X4578294Y4869823D01*
X4582505Y4876124D01*
X4583983Y4883557D01*
Y5126868D01*
X4590345Y5131512D01*
X4605738Y5128450D01*
X4605876Y5128243D01*
X4648023Y5086097D01*
X4648023Y5086096D01*
X4654325Y5081886D01*
X4661758Y5080407D01*
X4661759Y5080407D01*
X4721362D01*
X4728795Y5081886D01*
X4735097Y5086096D01*
X4777243Y5128243D01*
X4777244Y5128243D01*
X4781399Y5134462D01*
X4781481Y5134553D01*
X4795284Y5138969D01*
X4798287Y5136665D01*
X4808066Y5132615D01*
X4812210Y5132069D01*
Y5221784D01*
Y5311491D01*
X4808066Y5310945D01*
X4798287Y5306895D01*
X4795284Y5304590D01*
X4781480Y5309007D01*
X4781399Y5309098D01*
X4777244Y5315317D01*
X4761783Y5330778D01*
Y5390957D01*
X5053137D01*
Y5307247D01*
X5052287Y5306895D01*
X5043889Y5300451D01*
X5037446Y5292054D01*
X5033395Y5282274D01*
X5032013Y5271780D01*
Y5171780D01*
X5033395Y5161286D01*
X5037446Y5151506D01*
X5043889Y5143109D01*
X5052287Y5136665D01*
X5062066Y5132615D01*
X5072560Y5131233D01*
X5083054Y5132615D01*
X5092833Y5136665D01*
X5101231Y5143109D01*
X5107675Y5151506D01*
X5111725Y5161286D01*
X5113107Y5171780D01*
Y5271780D01*
X5111725Y5282274D01*
X5107675Y5292054D01*
X5101231Y5300451D01*
X5092833Y5306895D01*
X5091983Y5307247D01*
Y5403881D01*
X5101247Y5416357D01*
X5190459D01*
X5197892Y5417835D01*
X5204193Y5422046D01*
X5213294Y5431147D01*
X5217505Y5437448D01*
X5218983Y5444881D01*
X5218983Y5444882D01*
Y5691313D01*
X5219833Y5691665D01*
X5228231Y5698109D01*
X5234675Y5706506D01*
X5238725Y5716285D01*
X5240107Y5726780D01*
Y5826780D01*
X5238725Y5837274D01*
X5234675Y5847053D01*
X5228231Y5855451D01*
X5219833Y5861895D01*
X5210054Y5865945D01*
X5199560Y5867327D01*
X5189066Y5865945D01*
X5179287Y5861895D01*
X5170889Y5855451D01*
X5164446Y5847053D01*
X5160395Y5837274D01*
X5159013Y5826780D01*
Y5726780D01*
X5160395Y5716285D01*
X5164446Y5706506D01*
X5170889Y5698109D01*
X5179287Y5691665D01*
X5180137Y5691313D01*
Y5455203D01*
X4739924D01*
X4732491Y5453725D01*
X4726190Y5449514D01*
X4703783Y5427107D01*
X4681375Y5449514D01*
X4675074Y5453725D01*
X4667641Y5455203D01*
X3697523D01*
Y5820514D01*
X3698373Y5820866D01*
X3706771Y5827309D01*
X3713215Y5835707D01*
X3717265Y5845486D01*
X3718647Y5855980D01*
Y5970980D01*
X3717265Y5981474D01*
X3715636Y5985407D01*
X3722955Y5998107D01*
X3836762D01*
Y5829736D01*
X3821535D01*
X3816443Y5828723D01*
X3812127Y5825838D01*
X3809243Y5821522D01*
X3808230Y5816430D01*
Y5737130D01*
X3809243Y5732038D01*
X3812127Y5727721D01*
X3816443Y5724837D01*
X3821535Y5723824D01*
X3890835D01*
X3895927Y5724837D01*
X3900244Y5727721D01*
X3903128Y5732038D01*
X3904141Y5737130D01*
Y5816430D01*
X3903128Y5821522D01*
X3900244Y5825838D01*
X3895927Y5828723D01*
X3890835Y5829736D01*
X3875608D01*
Y6008499D01*
X3874130Y6015932D01*
X3869920Y6022234D01*
X3860889Y6031264D01*
X3854588Y6035475D01*
X3847155Y6036953D01*
X3658819D01*
X3651386Y6035475D01*
X3645084Y6031264D01*
X3617816Y6003996D01*
X3613606Y5997695D01*
X3612127Y5990262D01*
Y5836699D01*
X3613606Y5829266D01*
X3617816Y5822964D01*
X3632222Y5808559D01*
Y5455203D01*
X2976706D01*
X2969273Y5453725D01*
X2962972Y5449514D01*
X2902366Y5388908D01*
X2898155Y5382607D01*
X2896677Y5375174D01*
Y5076447D01*
X2895827Y5076095D01*
X2887429Y5069651D01*
X2880986Y5061254D01*
X2876935Y5051475D01*
X2875553Y5040980D01*
Y4925980D01*
X2876935Y4915486D01*
X2880986Y4905707D01*
X2887429Y4897309D01*
X2895827Y4890866D01*
X2905606Y4886815D01*
X2916100Y4885433D01*
X2926594Y4886815D01*
X2936037Y4890726D01*
X2936932Y4890969D01*
X2952193Y4887667D01*
X2966527Y4873333D01*
Y4805878D01*
X2965015Y4803747D01*
X2953827Y4796579D01*
X2951743Y4796993D01*
X2883916D01*
X2833923Y4846986D01*
Y4877504D01*
X2849384Y4892965D01*
X2853594Y4899266D01*
X2855073Y4906699D01*
Y5060262D01*
X2853594Y5067695D01*
X2849384Y5073996D01*
X2821223Y5102157D01*
Y5501395D01*
X2822505Y5502677D01*
X3411721D01*
X3419154Y5504156D01*
X3425455Y5508366D01*
X3450534Y5533445D01*
X3454745Y5539746D01*
X3456223Y5547179D01*
X3456223Y5547180D01*
Y5794803D01*
X3484384Y5822964D01*
X3488594Y5829266D01*
X3490073Y5836699D01*
Y5991255D01*
X3488594Y5998689D01*
X3484384Y6004990D01*
X3472194Y6017180D01*
Y6128452D01*
X3546839Y6203097D01*
X3610921D01*
X3613509Y6194564D01*
X3620260Y6181935D01*
X3629345Y6170865D01*
X3640415Y6161780D01*
X3653044Y6155029D01*
X3666748Y6150872D01*
X3681000Y6149469D01*
X3695252Y6150872D01*
X3708956Y6155029D01*
X3721585Y6161780D01*
X3732655Y6170865D01*
X3741740Y6181935D01*
X3748491Y6194564D01*
X3752648Y6208269D01*
X3754052Y6222520D01*
X3752648Y6236772D01*
X3748491Y6250476D01*
X3744995Y6257016D01*
X3746473Y6261259D01*
X3753208Y6268592D01*
X3755730Y6268133D01*
X3768783Y6267063D01*
X3781804Y6265565D01*
X3788365Y6265457D01*
X3794899Y6264922D01*
X3808000Y6265136D01*
X3821101Y6264922D01*
X3827635Y6265457D01*
X3834196Y6265565D01*
X3847218Y6267063D01*
X3860270Y6268133D01*
X3862792Y6268592D01*
X3869526Y6261260D01*
D02*
G37*
G36*
X3361526D02*
X3363005Y6257016D01*
X3359509Y6250476D01*
X3355352Y6236772D01*
X3353948Y6222520D01*
X3355352Y6208269D01*
X3359509Y6194564D01*
X3366260Y6181935D01*
X3375345Y6170865D01*
X3386415Y6161780D01*
X3399044Y6155029D01*
X3407577Y6152441D01*
Y6047757D01*
X3363816Y6003996D01*
X3359606Y5997695D01*
X3358127Y5990262D01*
Y5836699D01*
X3359606Y5829266D01*
X3363816Y5822964D01*
X3391977Y5794803D01*
Y5568286D01*
X3390615Y5566923D01*
X2803939D01*
X2796506Y5565445D01*
X2790205Y5561234D01*
X2762666Y5533695D01*
X2758455Y5527394D01*
X2756977Y5519961D01*
Y5102157D01*
X2734117Y5079297D01*
X2722975Y5074263D01*
X2717008Y5079372D01*
X2706923Y5089457D01*
Y5578369D01*
X2712551Y5583997D01*
X2887885D01*
X2895318Y5585475D01*
X2901620Y5589686D01*
X2929834Y5617901D01*
X2934045Y5624202D01*
X2935523Y5631635D01*
X2935523Y5631636D01*
Y5820514D01*
X2936373Y5820866D01*
X2944771Y5827309D01*
X2951215Y5835707D01*
X2955265Y5845486D01*
X2956647Y5855980D01*
Y5970980D01*
X2955265Y5981474D01*
X2953636Y5985407D01*
X2960955Y5998107D01*
X2977127D01*
Y5836699D01*
X2978606Y5829266D01*
X2982816Y5822964D01*
X3010084Y5795696D01*
X3016386Y5791486D01*
X3023819Y5790007D01*
X3062381D01*
X3069815Y5791486D01*
X3076116Y5795696D01*
X3103384Y5822964D01*
X3107594Y5829266D01*
X3109073Y5836699D01*
Y5990262D01*
X3107594Y5997695D01*
X3103384Y6003996D01*
X3087923Y6019457D01*
Y6201235D01*
X3089786Y6203097D01*
X3102921D01*
X3105509Y6194564D01*
X3112260Y6181935D01*
X3121345Y6170865D01*
X3132415Y6161780D01*
X3145044Y6155029D01*
X3158748Y6150872D01*
X3173000Y6149469D01*
X3187252Y6150872D01*
X3200956Y6155029D01*
X3213585Y6161780D01*
X3224655Y6170865D01*
X3233740Y6181935D01*
X3240491Y6194564D01*
X3244648Y6208269D01*
X3246052Y6222520D01*
X3244648Y6236772D01*
X3240491Y6250476D01*
X3236995Y6257016D01*
X3238473Y6261259D01*
X3245208Y6268592D01*
X3247730Y6268133D01*
X3260783Y6267063D01*
X3273804Y6265565D01*
X3280365Y6265457D01*
X3286899Y6264922D01*
X3300000Y6265136D01*
X3313101Y6264922D01*
X3319635Y6265457D01*
X3326196Y6265565D01*
X3339218Y6267063D01*
X3352270Y6268133D01*
X3354792Y6268592D01*
X3361526Y6261260D01*
D02*
G37*
G36*
X2853526D02*
X2855005Y6257016D01*
X2851509Y6250476D01*
X2847352Y6236772D01*
X2845948Y6222520D01*
X2847352Y6208269D01*
X2851509Y6194564D01*
X2858260Y6181935D01*
X2867345Y6170865D01*
X2878415Y6161780D01*
X2891044Y6155029D01*
X2904748Y6150872D01*
X2919000Y6149469D01*
X2933252Y6150872D01*
X2946956Y6155029D01*
X2959585Y6161780D01*
X2970655Y6170865D01*
X2979740Y6181935D01*
X2986491Y6194564D01*
X2989079Y6203097D01*
X3017358D01*
X3023677Y6196778D01*
Y6025791D01*
X3010977Y6021938D01*
X3010285Y6022974D01*
X3001995Y6031264D01*
X2995693Y6035475D01*
X2988260Y6036953D01*
X2896819D01*
X2889386Y6035475D01*
X2883084Y6031264D01*
X2855816Y6003996D01*
X2851606Y5997695D01*
X2850127Y5990262D01*
Y5836699D01*
X2851606Y5829266D01*
X2855816Y5822964D01*
X2871277Y5807503D01*
Y5650201D01*
X2869319Y5648243D01*
X2428872D01*
X2427523Y5649592D01*
Y5820514D01*
X2428373Y5820866D01*
X2436771Y5827309D01*
X2443215Y5835707D01*
X2447265Y5845486D01*
X2448647Y5855980D01*
Y5970980D01*
X2447265Y5981474D01*
X2445636Y5985407D01*
X2452955Y5998107D01*
X2460010D01*
X2467443Y5999585D01*
X2473744Y6003796D01*
X2629181Y6159232D01*
X2637044Y6155029D01*
X2650748Y6150872D01*
X2665000Y6149469D01*
X2679252Y6150872D01*
X2692956Y6155029D01*
X2705585Y6161780D01*
X2716655Y6170865D01*
X2725740Y6181935D01*
X2732491Y6194564D01*
X2736648Y6208269D01*
X2738052Y6222520D01*
X2736648Y6236772D01*
X2732491Y6250476D01*
X2728995Y6257016D01*
X2730473Y6261259D01*
X2737208Y6268592D01*
X2739730Y6268133D01*
X2752783Y6267063D01*
X2765804Y6265565D01*
X2772365Y6265457D01*
X2778899Y6264922D01*
X2792000Y6265136D01*
X2805101Y6264922D01*
X2811635Y6265457D01*
X2818196Y6265565D01*
X2831218Y6267063D01*
X2844270Y6268133D01*
X2846792Y6268592D01*
X2853526Y6261260D01*
D02*
G37*
G36*
X2587005Y6239984D02*
X2593064Y6233851D01*
X2591948Y6222520D01*
X2593352Y6208269D01*
X2597509Y6194564D01*
X2601712Y6186701D01*
X2451964Y6036953D01*
X2388819D01*
X2381386Y6035475D01*
X2375084Y6031264D01*
X2347816Y6003996D01*
X2343606Y5997695D01*
X2342127Y5990262D01*
Y5833506D01*
X2343606Y5826073D01*
X2347816Y5819772D01*
X2363277Y5804311D01*
Y5631026D01*
X2364755Y5623593D01*
X2368966Y5617292D01*
X2396571Y5589687D01*
X2396572Y5589686D01*
X2402873Y5585475D01*
X2410306Y5583997D01*
X2636955D01*
X2642677Y5578275D01*
Y5076447D01*
X2641827Y5076095D01*
X2633429Y5069651D01*
X2626986Y5061254D01*
X2622935Y5051475D01*
X2621553Y5040980D01*
Y4925980D01*
X2622935Y4915486D01*
X2626986Y4905707D01*
X2633429Y4897309D01*
X2641827Y4890866D01*
X2645759Y4889237D01*
X2648745Y4882485D01*
X2649935Y4876118D01*
X2649665Y4874387D01*
X2647055Y4870482D01*
X2645577Y4863049D01*
Y4768600D01*
X2637044Y4766011D01*
X2624415Y4759260D01*
X2613345Y4750175D01*
X2604260Y4739106D01*
X2597509Y4726476D01*
X2593352Y4712772D01*
X2591948Y4698520D01*
X2593352Y4684269D01*
X2597509Y4670564D01*
X2604260Y4657935D01*
X2609464Y4651593D01*
X2603458Y4638893D01*
X2554523D01*
Y4890514D01*
X2555373Y4890866D01*
X2563771Y4897309D01*
X2570215Y4905707D01*
X2574265Y4915486D01*
X2575647Y4925980D01*
Y5040980D01*
X2574265Y5051475D01*
X2570215Y5061254D01*
X2563771Y5069651D01*
X2555373Y5076095D01*
X2545594Y5080146D01*
X2535100Y5081527D01*
X2524606Y5080146D01*
X2514827Y5076095D01*
X2506429Y5069651D01*
X2499986Y5061254D01*
X2495935Y5051475D01*
X2494553Y5040980D01*
Y4925980D01*
X2495935Y4915486D01*
X2499986Y4905707D01*
X2506429Y4897309D01*
X2514827Y4890866D01*
X2515677Y4890514D01*
Y4628819D01*
X2517155Y4621386D01*
X2521366Y4615084D01*
X2530714Y4605737D01*
X2530715Y4605736D01*
X2537016Y4601525D01*
X2544449Y4600047D01*
X2544450Y4600047D01*
X2697743D01*
X2705176Y4601525D01*
X2711478Y4605736D01*
X2757784Y4652043D01*
X2761995Y4658344D01*
X2763473Y4665777D01*
Y4731262D01*
X2763474Y4731264D01*
X2761995Y4738696D01*
X2757784Y4744998D01*
X2757784Y4744998D01*
X2709823Y4792959D01*
Y4844483D01*
X2753734Y4888394D01*
X2756977Y4888925D01*
X2769677Y4878136D01*
Y4828420D01*
X2771155Y4820987D01*
X2775366Y4814686D01*
X2855712Y4734340D01*
X2851509Y4726476D01*
X2847352Y4712772D01*
X2845948Y4698520D01*
X2847352Y4684269D01*
X2851509Y4670564D01*
X2858260Y4657935D01*
X2867345Y4646865D01*
X2878415Y4637780D01*
X2891044Y4631029D01*
X2904748Y4626872D01*
X2919000Y4625469D01*
X2933252Y4626872D01*
X2946956Y4631029D01*
X2959585Y4637780D01*
X2965927Y4642984D01*
X2978627Y4636978D01*
Y4580321D01*
X2427523D01*
Y4890514D01*
X2428373Y4890866D01*
X2436771Y4897309D01*
X2443215Y4905707D01*
X2447265Y4915486D01*
X2448647Y4925980D01*
Y5040980D01*
X2447265Y5051475D01*
X2443215Y5061254D01*
X2436771Y5069651D01*
X2428373Y5076095D01*
X2418594Y5080146D01*
X2408100Y5081527D01*
X2397606Y5080146D01*
X2387827Y5076095D01*
X2379429Y5069651D01*
X2372986Y5061254D01*
X2368935Y5051475D01*
X2367553Y5040980D01*
Y4925980D01*
X2368935Y4915486D01*
X2372986Y4905707D01*
X2379429Y4897309D01*
X2387827Y4890866D01*
X2388677Y4890514D01*
Y4571392D01*
X2389427Y4567622D01*
X2383599Y4557543D01*
X2380920Y4554921D01*
X2325923D01*
Y4877504D01*
X2341384Y4892965D01*
X2345594Y4899266D01*
X2347073Y4906699D01*
Y5060260D01*
X2347073Y5060262D01*
X2345594Y5067694D01*
X2341384Y5073996D01*
X2300523Y5114857D01*
Y5820514D01*
X2301373Y5820866D01*
X2309771Y5827309D01*
X2316215Y5835707D01*
X2320265Y5845486D01*
X2321647Y5855980D01*
Y5970980D01*
X2320265Y5981474D01*
X2316215Y5991254D01*
X2309771Y5999651D01*
X2301373Y6006095D01*
X2291594Y6010145D01*
X2281100Y6011527D01*
X2270606Y6010145D01*
X2260827Y6006095D01*
X2252429Y5999651D01*
X2245986Y5991254D01*
X2241935Y5981474D01*
X2240553Y5970980D01*
Y5855980D01*
X2241935Y5845486D01*
X2245986Y5835707D01*
X2252429Y5827309D01*
X2260827Y5820866D01*
X2261677Y5820514D01*
Y5106811D01*
X2263155Y5099378D01*
X2267366Y5093077D01*
X2268564Y5091879D01*
X2264759Y5077723D01*
X2260827Y5076095D01*
X2252429Y5069651D01*
X2245986Y5061254D01*
X2241935Y5051475D01*
X2240553Y5040980D01*
Y4925980D01*
X2241935Y4915486D01*
X2245986Y4905707D01*
X2252429Y4897309D01*
X2260827Y4890866D01*
X2261677Y4890514D01*
Y4534875D01*
X2263155Y4527442D01*
X2267366Y4521141D01*
X2292142Y4496364D01*
X2298444Y4492154D01*
X2305877Y4490675D01*
X2876743D01*
X2881603Y4478942D01*
X2822974Y4420312D01*
X2817360Y4411911D01*
X2815388Y4402000D01*
Y4075382D01*
X2755019D01*
Y4088928D01*
X2753993Y4094089D01*
X2751070Y4098463D01*
X2746695Y4101386D01*
X2741535Y4102412D01*
X2577585D01*
X2572425Y4101386D01*
X2568050Y4098463D01*
X2565127Y4094089D01*
X2564101Y4088928D01*
Y4075382D01*
X2181743D01*
Y4148724D01*
X2192274Y4154353D01*
X2205628Y4165312D01*
X2216587Y4178666D01*
X2224731Y4193902D01*
X2229746Y4210433D01*
X2231439Y4227625D01*
Y4377625D01*
X2229746Y4394818D01*
X2224731Y4411349D01*
X2216587Y4426585D01*
X2205628Y4439939D01*
X2192274Y4450898D01*
X2177038Y4459042D01*
X2160507Y4464057D01*
X2143315Y4465750D01*
X2126122Y4464057D01*
X2109591Y4459042D01*
X2094355Y4450898D01*
X2081001Y4439939D01*
X2070042Y4426585D01*
X2061899Y4411349D01*
X2056884Y4394818D01*
X2055190Y4377625D01*
Y4227625D01*
X2056884Y4210433D01*
X2061899Y4193902D01*
X2070042Y4178666D01*
X2081001Y4165312D01*
X2094355Y4154353D01*
X2104886Y4148724D01*
Y4075382D01*
X1752745D01*
X1747604Y4080523D01*
Y4605165D01*
X1795800D01*
X1801096Y4606218D01*
X1805587Y4609219D01*
X1808587Y4613709D01*
X1809641Y4619006D01*
Y5072256D01*
X1808587Y5077552D01*
X1805587Y5082043D01*
X1801096Y5085043D01*
X1795800Y5086097D01*
X1622550D01*
X1617253Y5085043D01*
X1612763Y5082043D01*
X1609763Y5077552D01*
X1608709Y5072256D01*
Y4619006D01*
X1609763Y4613709D01*
X1612763Y4609219D01*
X1617253Y4606218D01*
X1622550Y4605165D01*
X1670746D01*
Y4064605D01*
X1672056Y4054659D01*
X1674304Y4049230D01*
X1675895Y4045391D01*
X1682002Y4037432D01*
X1709654Y4009780D01*
X1717613Y4003673D01*
X1726881Y3999834D01*
X1736827Y3998525D01*
X2564101D01*
Y3984978D01*
X2565127Y3979818D01*
X2568050Y3975444D01*
X2572425Y3972521D01*
X2577585Y3971494D01*
X2741535D01*
X2746695Y3972521D01*
X2751070Y3975444D01*
X2753993Y3979818D01*
X2755019Y3984978D01*
Y3998525D01*
X2907982D01*
Y2759000D01*
X2909954Y2749089D01*
X2915568Y2740687D01*
X2983867Y2672388D01*
X2992269Y2666774D01*
X3002180Y2664802D01*
X5735397D01*
Y2599994D01*
X400485Y2599994D01*
X400493Y5785525D01*
X814476Y6199509D01*
X2401951Y6199511D01*
X2441205Y6201439D01*
X2480081Y6207206D01*
X2518204Y6216755D01*
X2555209Y6229996D01*
X2581847Y6242595D01*
X2587005Y6239984D01*
D02*
G37*
G36*
X3030699Y4386916D02*
X3030557Y4386200D01*
Y4357384D01*
X3029847Y4357314D01*
X3010488Y4351441D01*
X2992647Y4341905D01*
X2977009Y4329071D01*
X2964175Y4313433D01*
X2954639Y4295592D01*
X2948766Y4276233D01*
X2946783Y4256100D01*
X2948766Y4235968D01*
X2954639Y4216609D01*
X2964175Y4198767D01*
X2977009Y4183129D01*
X2992647Y4170295D01*
X3010488Y4160759D01*
X3029847Y4154887D01*
X3049980Y4152904D01*
X3070112Y4154887D01*
X3089472Y4160759D01*
X3107313Y4170295D01*
X3122951Y4183129D01*
X3135785Y4198767D01*
X3145321Y4216609D01*
X3151194Y4235968D01*
X3153177Y4256100D01*
X3151194Y4276233D01*
X3145321Y4295592D01*
X3135785Y4313433D01*
X3122951Y4329071D01*
X3107313Y4341905D01*
X3089472Y4351441D01*
X3070112Y4357314D01*
X3069403Y4357384D01*
Y4374217D01*
X3468447D01*
X3470620Y4371623D01*
X3474425Y4362234D01*
X3427196Y4315004D01*
X3422985Y4308703D01*
X3421507Y4301270D01*
Y4185634D01*
X3361455Y4125583D01*
X2964608D01*
X2923002Y4167189D01*
Y4339871D01*
X2982748Y4399617D01*
X3021922D01*
X3030699Y4386916D01*
D02*
G37*
G36*
X5865937Y4366315D02*
Y3839763D01*
X5077640D01*
X5073146Y3838869D01*
X5063816Y3844015D01*
X5060446Y3847037D01*
Y4118577D01*
X5072986Y4131117D01*
X5178007D01*
X5187757Y4121367D01*
Y4099740D01*
X5189235Y4092307D01*
X5193446Y4086006D01*
X5199768Y4079683D01*
X5199769Y4079683D01*
X5206070Y4075472D01*
X5213503Y4073994D01*
X5220166D01*
X5223158Y4070095D01*
X5225055Y4068640D01*
X5225861Y4066736D01*
Y4055098D01*
X5225055Y4053194D01*
X5223158Y4051739D01*
X5217917Y4044908D01*
X5214622Y4036953D01*
X5214334Y4034768D01*
X5353626D01*
X5353338Y4036953D01*
X5350043Y4044908D01*
X5344802Y4051739D01*
X5342905Y4053194D01*
X5342100Y4055098D01*
Y4066736D01*
X5342905Y4068640D01*
X5344802Y4070095D01*
X5350043Y4076926D01*
X5353338Y4084881D01*
X5354462Y4093417D01*
X5353338Y4101953D01*
X5350043Y4109908D01*
X5344802Y4116739D01*
X5342905Y4118194D01*
X5342100Y4120098D01*
Y4131736D01*
X5342905Y4133640D01*
X5344802Y4135095D01*
X5350043Y4141926D01*
X5353338Y4149880D01*
X5354462Y4158417D01*
X5353338Y4166953D01*
X5350043Y4174908D01*
X5344802Y4181739D01*
X5344591Y4181901D01*
X5343527Y4195175D01*
X5351793Y4203994D01*
X5374511D01*
X5443822Y4134682D01*
X5450124Y4130472D01*
X5457557Y4128993D01*
X5457558Y4128994D01*
X5624545D01*
Y4116242D01*
X5625556Y4111159D01*
X5628435Y4106851D01*
X5632743Y4103972D01*
X5637825Y4102961D01*
X5722175D01*
X5727258Y4103972D01*
X5731566Y4106851D01*
X5734445Y4111159D01*
X5735456Y4116242D01*
Y4180592D01*
X5734445Y4185674D01*
X5731566Y4189982D01*
X5727258Y4192861D01*
X5722175Y4193872D01*
X5699423D01*
Y4235461D01*
X5714650D01*
X5719742Y4236474D01*
X5724059Y4239358D01*
X5726943Y4243675D01*
X5727956Y4248767D01*
Y4328067D01*
X5726943Y4333159D01*
X5724059Y4337475D01*
X5719742Y4340360D01*
X5714650Y4341373D01*
X5645350D01*
X5640258Y4340360D01*
X5635942Y4337475D01*
X5633058Y4333159D01*
X5632045Y4328067D01*
Y4248767D01*
X5633058Y4243675D01*
X5635942Y4239358D01*
X5640258Y4236474D01*
X5645350Y4235461D01*
X5660577D01*
Y4193872D01*
X5637825D01*
X5632743Y4192861D01*
X5628435Y4189982D01*
X5625556Y4185674D01*
X5624545Y4180592D01*
Y4167840D01*
X5465602D01*
X5396290Y4237151D01*
X5389989Y4241362D01*
X5382556Y4242840D01*
X5351793D01*
X5343527Y4251659D01*
X5344592Y4264933D01*
X5344802Y4265095D01*
X5347794Y4268994D01*
X5492044D01*
Y4248767D01*
X5493057Y4243675D01*
X5495942Y4239358D01*
X5500258Y4236474D01*
X5505350Y4235461D01*
X5574650D01*
X5579742Y4236474D01*
X5584059Y4239358D01*
X5586943Y4243675D01*
X5587956Y4248767D01*
Y4328067D01*
X5586943Y4333159D01*
X5584059Y4337475D01*
X5579742Y4340360D01*
X5574650Y4341373D01*
X5505350D01*
X5500258Y4340360D01*
X5495942Y4337475D01*
X5493057Y4333159D01*
X5492044Y4328067D01*
Y4307840D01*
X5347794D01*
X5344802Y4311739D01*
X5344591Y4311901D01*
X5343527Y4325175D01*
X5351793Y4333994D01*
X5354180D01*
X5361613Y4335472D01*
X5367914Y4339683D01*
X5395568Y4367337D01*
X5864915D01*
X5865937Y4366315D01*
D02*
G37*
G36*
X6155151Y4797426D02*
X6156643Y4795305D01*
Y2599994D01*
X5999892D01*
Y2910700D01*
Y3506100D01*
Y4679125D01*
X5997921Y4689036D01*
X5992307Y4697438D01*
X5978015Y4711729D01*
X5969614Y4717343D01*
X5959703Y4719315D01*
X5706945D01*
Y4728142D01*
X5705938Y4733205D01*
X5703070Y4737496D01*
X5698779Y4740364D01*
X5693716Y4741371D01*
X5639266D01*
X5634204Y4740364D01*
X5629912Y4737496D01*
X5627044Y4733205D01*
X5626037Y4728142D01*
Y4658692D01*
X5627044Y4653630D01*
X5629912Y4649338D01*
X5634204Y4646470D01*
X5639266Y4645463D01*
X5693716D01*
X5698779Y4646470D01*
X5703070Y4649338D01*
X5705938Y4653630D01*
X5706945Y4658692D01*
Y4667519D01*
X5948097D01*
Y3531998D01*
X5913776D01*
Y3545750D01*
X5912763Y3550842D01*
X5909879Y3555159D01*
X5905562Y3558043D01*
X5900470Y3559056D01*
X5831170D01*
X5826078Y3558043D01*
X5821762Y3555159D01*
X5818877Y3550842D01*
X5817864Y3545750D01*
Y3466450D01*
X5818877Y3461358D01*
X5821762Y3457042D01*
X5826078Y3454157D01*
X5831170Y3453144D01*
X5900470D01*
X5905562Y3454157D01*
X5909879Y3457042D01*
X5912763Y3461358D01*
X5913776Y3466450D01*
Y3480203D01*
X5948097D01*
Y2936598D01*
X5882820D01*
X5880647Y2936165D01*
X5868017Y2945371D01*
X5867947Y2945525D01*
X5866948Y2950549D01*
X5864102Y2954807D01*
X5859843Y2957653D01*
X5854820Y2958652D01*
X5820170D01*
X5815146Y2957653D01*
X5810888Y2954807D01*
X5808042Y2950549D01*
X5807043Y2945525D01*
Y2875875D01*
X5808042Y2870852D01*
X5810888Y2866593D01*
X5815146Y2863747D01*
X5820170Y2862748D01*
X5854820D01*
X5859843Y2863747D01*
X5864102Y2866593D01*
X5866948Y2870852D01*
X5867947Y2875875D01*
X5868017Y2876029D01*
X5880647Y2885235D01*
X5882820Y2884802D01*
X5948097D01*
Y2599994D01*
X5787192D01*
Y2655810D01*
X5795699Y2660314D01*
X5797208Y2659723D01*
X5807541Y2653372D01*
X5808042Y2650851D01*
X5810888Y2646593D01*
X5815146Y2643747D01*
X5820170Y2642748D01*
X5854820D01*
X5859843Y2643747D01*
X5864102Y2646593D01*
X5866948Y2650851D01*
X5867947Y2655875D01*
Y2725525D01*
X5866948Y2730549D01*
X5864102Y2734807D01*
X5859843Y2737653D01*
X5854820Y2738652D01*
X5820170D01*
X5815146Y2737653D01*
X5810888Y2734807D01*
X5808042Y2730549D01*
X5807043Y2725525D01*
Y2724360D01*
X5804996Y2721957D01*
X5794342Y2715503D01*
X5788840Y2716598D01*
X5190371D01*
Y3418130D01*
X5199735Y3420971D01*
X5215665Y3429486D01*
X5229629Y3440945D01*
X5241088Y3454908D01*
X5249603Y3470838D01*
X5254846Y3488124D01*
X5256617Y3506100D01*
X5254846Y3524077D01*
X5249603Y3541362D01*
X5241088Y3557292D01*
X5229629Y3571255D01*
X5215665Y3582715D01*
X5199735Y3591230D01*
X5182450Y3596473D01*
X5164473Y3598244D01*
X5146497Y3596473D01*
X5129211Y3591230D01*
X5113281Y3582715D01*
X5099318Y3571255D01*
X5098546Y3570315D01*
X5085846Y3574859D01*
Y3800917D01*
X5875013D01*
X5882446Y3802395D01*
X5888747Y3806606D01*
X5899094Y3816953D01*
X5903305Y3823254D01*
X5904783Y3830688D01*
Y4374359D01*
X5904783Y4374361D01*
X5903305Y4381793D01*
X5899094Y4388095D01*
X5886695Y4400494D01*
X5880394Y4404705D01*
X5872961Y4406183D01*
X5387524D01*
X5387523Y4406183D01*
X5380090Y4404705D01*
X5373789Y4400494D01*
X5373788Y4400494D01*
X5354800Y4381505D01*
X5350318Y4383362D01*
X5349937Y4383890D01*
X5348616Y4386774D01*
X5347305Y4398356D01*
X5350043Y4401926D01*
X5353338Y4409880D01*
X5354462Y4418417D01*
X5353338Y4426953D01*
X5350043Y4434908D01*
X5344802Y4441739D01*
X5344591Y4441901D01*
X5343527Y4455175D01*
X5351793Y4463994D01*
X5368110D01*
Y4448767D01*
X5369123Y4443675D01*
X5372007Y4439358D01*
X5376324Y4436474D01*
X5381416Y4435461D01*
X5460716D01*
X5465808Y4436474D01*
X5470124Y4439358D01*
X5473009Y4443675D01*
X5474022Y4448767D01*
Y4463994D01*
X5531037D01*
Y4448692D01*
X5532044Y4443629D01*
X5534912Y4439338D01*
X5539204Y4436470D01*
X5544266Y4435463D01*
X5598716D01*
X5603778Y4436470D01*
X5608070Y4439338D01*
X5610938Y4443629D01*
X5611945Y4448692D01*
Y4518142D01*
X5610938Y4523205D01*
X5608070Y4527496D01*
X5603778Y4530364D01*
X5598716Y4531371D01*
X5544266D01*
X5539204Y4530364D01*
X5534912Y4527496D01*
X5532044Y4523205D01*
X5531037Y4518142D01*
Y4502840D01*
X5474022D01*
Y4518067D01*
X5473009Y4523159D01*
X5470124Y4527476D01*
X5465808Y4530360D01*
X5460716Y4531373D01*
X5381416D01*
X5376324Y4530360D01*
X5372007Y4527476D01*
X5369123Y4523159D01*
X5368110Y4518067D01*
Y4502840D01*
X5351793D01*
X5343527Y4511659D01*
X5344592Y4524933D01*
X5344802Y4525095D01*
X5350043Y4531926D01*
X5353338Y4539880D01*
X5354462Y4548417D01*
X5353338Y4556953D01*
X5350043Y4564908D01*
X5344802Y4571739D01*
X5342905Y4573194D01*
X5342100Y4575098D01*
Y4586736D01*
X5342905Y4588640D01*
X5344802Y4590095D01*
X5350043Y4596926D01*
X5353338Y4604881D01*
X5354462Y4613417D01*
X5353338Y4621953D01*
X5350043Y4629908D01*
X5344802Y4636739D01*
X5337971Y4641980D01*
X5330017Y4645275D01*
X5321480Y4646399D01*
X5303403D01*
Y4804217D01*
X6141900D01*
X6143942Y4804623D01*
X6155151Y4797426D01*
D02*
G37*
G36*
X6693768Y7071403D02*
X6754497Y7055131D01*
X6812582Y7031071D01*
X6867028Y6999637D01*
X6916906Y6961364D01*
X6961363Y6916907D01*
X6999637Y6867028D01*
X7031071Y6812582D01*
X7055132Y6754496D01*
X7071403Y6693768D01*
X7079610Y6631436D01*
X7079609Y6600001D01*
Y6600000D01*
D01*
Y0D01*
Y-0D01*
D01*
X7079610Y-31436D01*
X7071403Y-93768D01*
X7055131Y-154497D01*
X7031071Y-212582D01*
X6999637Y-267028D01*
X6961364Y-316906D01*
X6916907Y-361363D01*
X6867028Y-399637D01*
X6812582Y-431071D01*
X6754496Y-455132D01*
X6693768Y-471403D01*
X6631436Y-479609D01*
X-31436D01*
X-93768Y-471403D01*
X-154497Y-455131D01*
X-212582Y-431071D01*
X-267028Y-399637D01*
X-316906Y-361364D01*
X-361363Y-316907D01*
X-399637Y-267028D01*
X-431071Y-212582D01*
X-455132Y-154495D01*
X-471403Y-93768D01*
X-479609Y-31436D01*
Y0D01*
Y5951393D01*
X-470574Y5951393D01*
X0Y5951400D01*
X4Y5951404D01*
X11D01*
X0Y1453248D01*
X1327212Y126034D01*
X1335399Y106267D01*
X1366241Y55939D01*
X1404575Y11055D01*
X1449459Y-27279D01*
X1499787Y-58121D01*
X1554320Y-80709D01*
X1611716Y-94488D01*
X1670560Y-99119D01*
X4929380D01*
X4988224Y-94488D01*
X5045620Y-80709D01*
X5100153Y-58121D01*
X5150481Y-27279D01*
X5182423Y2D01*
X5219702D01*
X6185732Y966032D01*
X6191729Y970039D01*
X6241007Y1013255D01*
X6284223Y1062533D01*
X6288230Y1068531D01*
X6599995Y1380296D01*
X6599995Y5932726D01*
X5932721Y6599998D01*
X4198046Y6599995D01*
X4165494Y6621746D01*
X4111412Y6648416D01*
X4054312Y6667799D01*
X3995171Y6679563D01*
X3935000Y6683507D01*
X3874829Y6679563D01*
X3815688Y6667799D01*
X3808000Y6665190D01*
X3800312Y6667799D01*
X3741171Y6679563D01*
X3681000Y6683507D01*
X3620829Y6679563D01*
X3561688Y6667799D01*
X3554000Y6665190D01*
X3546312Y6667799D01*
X3487171Y6679563D01*
X3427000Y6683507D01*
X3366829Y6679563D01*
X3307688Y6667799D01*
X3300000Y6665190D01*
X3292312Y6667799D01*
X3233171Y6679563D01*
X3173000Y6683507D01*
X3112829Y6679563D01*
X3053688Y6667799D01*
X3046000Y6665190D01*
X3038312Y6667799D01*
X2979171Y6679563D01*
X2919000Y6683507D01*
X2858829Y6679563D01*
X2799688Y6667799D01*
X2792000Y6665190D01*
X2784312Y6667799D01*
X2725171Y6679563D01*
X2665000Y6683507D01*
X2604829Y6679563D01*
X2545688Y6667799D01*
X2488588Y6648416D01*
X2434506Y6621746D01*
X2401950Y6599993D01*
X648591Y6599991D01*
X4Y5951404D01*
X-470574Y5951393D01*
X-479609Y5951393D01*
Y6600000D01*
Y6600000D01*
D01*
X-479610Y6631436D01*
X-471404Y6693768D01*
X-455131Y6754497D01*
X-431072Y6812581D01*
X-399637Y6867028D01*
X-361363Y6916907D01*
X-316908Y6961363D01*
X-267028Y6999637D01*
X-212582Y7031071D01*
X-154495Y7055132D01*
X-93768Y7071403D01*
X-31436Y7079610D01*
X6631436D01*
X6693768Y7071403D01*
D02*
G37*
%LPC*%
G36*
X4324735Y6030560D02*
X4298903D01*
Y5981455D01*
X4338015D01*
Y6017280D01*
X4337005Y6022362D01*
X4334126Y6026671D01*
X4329817Y6029550D01*
X4324735Y6030560D01*
D02*
G37*
G36*
X4286203D02*
X4260385D01*
X4255303Y6029550D01*
X4250995Y6026671D01*
X4248116Y6022362D01*
X4247105Y6017280D01*
Y5981455D01*
X4286203D01*
Y6030560D01*
D02*
G37*
G36*
X4338015Y5968755D02*
X4298903D01*
Y5919650D01*
X4324735D01*
X4329817Y5920661D01*
X4334126Y5923540D01*
X4337005Y5927848D01*
X4338015Y5932930D01*
Y5968755D01*
D02*
G37*
G36*
X4286203D02*
X4247105D01*
Y5932930D01*
X4248116Y5927848D01*
X4250995Y5923540D01*
X4255303Y5920661D01*
X4260385Y5919650D01*
X4286203D01*
Y5968755D01*
D02*
G37*
G36*
X4951910Y5866491D02*
Y5783126D01*
X4986107D01*
Y5826780D01*
X4984725Y5837274D01*
X4980675Y5847053D01*
X4974231Y5855451D01*
X4965833Y5861895D01*
X4956054Y5865945D01*
X4951910Y5866491D01*
D02*
G37*
G36*
X4939210D02*
X4935066Y5865945D01*
X4925287Y5861895D01*
X4916889Y5855451D01*
X4910446Y5847053D01*
X4906395Y5837274D01*
X4905013Y5826780D01*
Y5783126D01*
X4939210D01*
Y5866491D01*
D02*
G37*
G36*
X5989508Y5810905D02*
Y5726502D01*
X6073905D01*
X6071616Y5736036D01*
X6064827Y5752425D01*
X6055558Y5767551D01*
X6044037Y5781040D01*
X6030548Y5792561D01*
X6015423Y5801829D01*
X5999034Y5808618D01*
X5989508Y5810905D01*
D02*
G37*
G36*
X5938708Y5810909D02*
X5929166Y5808618D01*
X5912777Y5801829D01*
X5897652Y5792561D01*
X5884163Y5781040D01*
X5872642Y5767551D01*
X5863373Y5752425D01*
X5856584Y5736036D01*
X5854296Y5726502D01*
X5938708D01*
Y5810909D01*
D02*
G37*
G36*
X4986107Y5770426D02*
X4951910D01*
Y5687069D01*
X4956054Y5687614D01*
X4965833Y5691665D01*
X4974231Y5698109D01*
X4980675Y5706506D01*
X4984725Y5716285D01*
X4986107Y5726780D01*
Y5770426D01*
D02*
G37*
G36*
X4939210D02*
X4905013D01*
Y5726780D01*
X4906395Y5716285D01*
X4910446Y5706506D01*
X4916889Y5698109D01*
X4925287Y5691665D01*
X4935066Y5687614D01*
X4939210Y5687069D01*
Y5770426D01*
D02*
G37*
G36*
X4818560Y5867327D02*
X4808066Y5865945D01*
X4798287Y5861895D01*
X4789889Y5855451D01*
X4783446Y5847053D01*
X4779395Y5837274D01*
X4778013Y5826780D01*
Y5726780D01*
X4779395Y5716285D01*
X4783446Y5706506D01*
X4789889Y5698109D01*
X4798287Y5691665D01*
X4808066Y5687614D01*
X4818560Y5686233D01*
X4829054Y5687614D01*
X4838833Y5691665D01*
X4847231Y5698109D01*
X4853675Y5706506D01*
X4857725Y5716285D01*
X4859107Y5726780D01*
Y5826780D01*
X4857725Y5837274D01*
X4853675Y5847053D01*
X4847231Y5855451D01*
X4838833Y5861895D01*
X4829054Y5865945D01*
X4818560Y5867327D01*
D02*
G37*
G36*
X4691560D02*
X4681066Y5865945D01*
X4671287Y5861895D01*
X4662889Y5855451D01*
X4656446Y5847053D01*
X4652395Y5837274D01*
X4651013Y5826780D01*
Y5726780D01*
X4652395Y5716285D01*
X4656446Y5706506D01*
X4662889Y5698109D01*
X4671287Y5691665D01*
X4681066Y5687614D01*
X4691560Y5686233D01*
X4702054Y5687614D01*
X4711833Y5691665D01*
X4720231Y5698109D01*
X4726675Y5706506D01*
X4730725Y5716285D01*
X4732107Y5726780D01*
Y5826780D01*
X4730725Y5837274D01*
X4726675Y5847053D01*
X4720231Y5855451D01*
X4711833Y5861895D01*
X4702054Y5865945D01*
X4691560Y5867327D01*
D02*
G37*
G36*
X6073905Y5675702D02*
X5989508D01*
Y5591300D01*
X5999034Y5593587D01*
X6015423Y5600375D01*
X6030548Y5609644D01*
X6044037Y5621165D01*
X6055558Y5634654D01*
X6064827Y5649779D01*
X6071616Y5666168D01*
X6073905Y5675702D01*
D02*
G37*
G36*
X5938708D02*
X5854296D01*
X5856584Y5666168D01*
X5863373Y5649779D01*
X5872642Y5634654D01*
X5884163Y5621165D01*
X5897652Y5609644D01*
X5912777Y5600375D01*
X5929166Y5593587D01*
X5938708Y5591296D01*
Y5675702D01*
D02*
G37*
G36*
X5205910Y5311491D02*
Y5228134D01*
X5240107D01*
Y5271780D01*
X5238725Y5282274D01*
X5234675Y5292054D01*
X5228231Y5300451D01*
X5219833Y5306895D01*
X5210054Y5310945D01*
X5205910Y5311491D01*
D02*
G37*
G36*
X4443910D02*
Y5228134D01*
X4478107D01*
Y5271780D01*
X4476725Y5282274D01*
X4472675Y5292054D01*
X4466231Y5300451D01*
X4457833Y5306895D01*
X4448054Y5310945D01*
X4443910Y5311491D01*
D02*
G37*
G36*
X4824910D02*
Y5228134D01*
X4859107D01*
Y5271780D01*
X4857725Y5282274D01*
X4853675Y5292054D01*
X4847231Y5300451D01*
X4838833Y5306895D01*
X4829054Y5310945D01*
X4824910Y5311491D01*
D02*
G37*
G36*
X5193210D02*
X5189066Y5310945D01*
X5179287Y5306895D01*
X5170889Y5300451D01*
X5164446Y5292054D01*
X5160395Y5282274D01*
X5159013Y5271780D01*
Y5228134D01*
X5193210D01*
Y5311491D01*
D02*
G37*
G36*
X4431210D02*
X4427066Y5310945D01*
X4417287Y5306895D01*
X4408889Y5300451D01*
X4402446Y5292054D01*
X4398395Y5282274D01*
X4397013Y5271780D01*
Y5228134D01*
X4431210D01*
Y5311491D01*
D02*
G37*
G36*
X5240107Y5215434D02*
X5205910D01*
Y5132069D01*
X5210054Y5132615D01*
X5219833Y5136665D01*
X5228231Y5143109D01*
X5234675Y5151506D01*
X5238725Y5161286D01*
X5240107Y5171780D01*
Y5215434D01*
D02*
G37*
G36*
X4859107D02*
X4824910D01*
Y5132069D01*
X4829054Y5132615D01*
X4838833Y5136665D01*
X4847231Y5143109D01*
X4853675Y5151506D01*
X4857725Y5161286D01*
X4859107Y5171780D01*
Y5215434D01*
D02*
G37*
G36*
X4478107D02*
X4443910D01*
Y5132069D01*
X4448054Y5132615D01*
X4457833Y5136665D01*
X4466231Y5143109D01*
X4472675Y5151506D01*
X4476725Y5161286D01*
X4478107Y5171780D01*
Y5215434D01*
D02*
G37*
G36*
X5193210D02*
X5159013D01*
Y5171780D01*
X5160395Y5161286D01*
X5164446Y5151506D01*
X5170889Y5143109D01*
X5179287Y5136665D01*
X5189066Y5132615D01*
X5193210Y5132069D01*
Y5215434D01*
D02*
G37*
G36*
X4431210D02*
X4397013D01*
Y5171780D01*
X4398395Y5161286D01*
X4402446Y5151506D01*
X4408889Y5143109D01*
X4417287Y5136665D01*
X4427066Y5132615D01*
X4431210Y5132069D01*
Y5215434D01*
D02*
G37*
G36*
X3678100Y5081527D02*
X3667606Y5080146D01*
X3657827Y5076095D01*
X3649429Y5069651D01*
X3642986Y5061254D01*
X3638935Y5051475D01*
X3637553Y5040980D01*
Y4925980D01*
X3638935Y4915486D01*
X3642986Y4905707D01*
X3649429Y4897309D01*
X3657827Y4890866D01*
X3667606Y4886815D01*
X3678100Y4885433D01*
X3688594Y4886815D01*
X3698373Y4890866D01*
X3706771Y4897309D01*
X3713215Y4905707D01*
X3717265Y4915486D01*
X3718647Y4925980D01*
Y5040980D01*
X3717265Y5051475D01*
X3713215Y5061254D01*
X3706771Y5069651D01*
X3698373Y5076095D01*
X3688594Y5080146D01*
X3678100Y5081527D01*
D02*
G37*
G36*
X4550855Y4738872D02*
X4515030D01*
Y4699760D01*
X4564135D01*
Y4725592D01*
X4563124Y4730674D01*
X4560246Y4734982D01*
X4555937Y4737861D01*
X4550855Y4738872D01*
D02*
G37*
G36*
X4502330D02*
X4466505D01*
X4461423Y4737861D01*
X4457115Y4734982D01*
X4454236Y4730674D01*
X4453225Y4725592D01*
Y4699760D01*
X4502330D01*
Y4738872D01*
D02*
G37*
G36*
X4564135Y4687060D02*
X4515030D01*
Y4647961D01*
X4550855D01*
X4555937Y4648972D01*
X4560246Y4651851D01*
X4563124Y4656160D01*
X4564135Y4661242D01*
Y4687060D01*
D02*
G37*
G36*
X4502330D02*
X4453225D01*
Y4661242D01*
X4454236Y4656160D01*
X4457115Y4651851D01*
X4461423Y4648972D01*
X4466505Y4647961D01*
X4502330D01*
Y4687060D01*
D02*
G37*
G36*
X3927147Y5226923D02*
X3305000D01*
X3297567Y5225445D01*
X3291266Y5221234D01*
X3283366Y5213335D01*
X3279155Y5207033D01*
X3277677Y5199600D01*
Y5076447D01*
X3276827Y5076095D01*
X3268429Y5069651D01*
X3261986Y5061254D01*
X3257935Y5051475D01*
X3256553Y5040980D01*
Y4925980D01*
X3257935Y4915486D01*
X3261986Y4905707D01*
X3268429Y4897309D01*
X3276827Y4890866D01*
X3286606Y4886815D01*
X3297100Y4885433D01*
X3307594Y4886815D01*
X3317373Y4890866D01*
X3325771Y4897309D01*
X3332215Y4905707D01*
X3336265Y4915486D01*
X3337647Y4925980D01*
Y5040980D01*
X3336265Y5051475D01*
X3332215Y5061254D01*
X3325771Y5069651D01*
X3317373Y5076095D01*
X3316523Y5076447D01*
Y5188077D01*
X3915577D01*
Y4768600D01*
X3907044Y4766011D01*
X3894415Y4759260D01*
X3883345Y4750175D01*
X3874260Y4739106D01*
X3867509Y4726476D01*
X3863352Y4712772D01*
X3861948Y4698520D01*
X3863352Y4684269D01*
X3867509Y4670564D01*
X3874260Y4657935D01*
X3883345Y4646865D01*
X3894415Y4637780D01*
X3907044Y4631029D01*
X3920748Y4626872D01*
X3935000Y4625469D01*
X3949252Y4626872D01*
X3962956Y4631029D01*
X3975585Y4637780D01*
X3986655Y4646865D01*
X3995740Y4657935D01*
X4002491Y4670564D01*
X4006648Y4684269D01*
X4008052Y4698520D01*
X4006648Y4712772D01*
X4002491Y4726476D01*
X3995740Y4739106D01*
X3986655Y4750175D01*
X3975585Y4759260D01*
X3962956Y4766011D01*
X3954423Y4768600D01*
Y5199646D01*
X3954423Y5199647D01*
X3952945Y5207080D01*
X3948734Y5213381D01*
X3940881Y5221234D01*
X3934580Y5225445D01*
X3927147Y5226923D01*
D02*
G37*
G36*
X3551100Y5081527D02*
X3540606Y5080146D01*
X3530827Y5076095D01*
X3522429Y5069651D01*
X3515986Y5061254D01*
X3511935Y5051475D01*
X3510553Y5040980D01*
Y4925980D01*
X3511935Y4915486D01*
X3515986Y4905707D01*
X3522429Y4897309D01*
X3530827Y4890866D01*
X3531677Y4890514D01*
Y4706590D01*
X3533155Y4699157D01*
X3537366Y4692855D01*
X3545435Y4684787D01*
X3545435Y4684786D01*
X3551737Y4680576D01*
X3559170Y4679097D01*
X3559171Y4679097D01*
X3610921D01*
X3613509Y4670564D01*
X3620260Y4657935D01*
X3629345Y4646865D01*
X3640415Y4637780D01*
X3653044Y4631029D01*
X3666748Y4626872D01*
X3681000Y4625469D01*
X3695252Y4626872D01*
X3708956Y4631029D01*
X3721585Y4637780D01*
X3732655Y4646865D01*
X3741740Y4657935D01*
X3748491Y4670564D01*
X3752648Y4684269D01*
X3754052Y4698520D01*
X3752648Y4712772D01*
X3748491Y4726476D01*
X3741740Y4739106D01*
X3732655Y4750175D01*
X3721585Y4759260D01*
X3708956Y4766011D01*
X3695252Y4770168D01*
X3681000Y4771572D01*
X3666748Y4770168D01*
X3653044Y4766011D01*
X3640415Y4759260D01*
X3629345Y4750175D01*
X3620260Y4739106D01*
X3613509Y4726476D01*
X3610921Y4717943D01*
X3570523D01*
Y4890514D01*
X3571373Y4890866D01*
X3579771Y4897309D01*
X3586215Y4905707D01*
X3590265Y4915486D01*
X3591647Y4925980D01*
Y5040980D01*
X3590265Y5051475D01*
X3586215Y5061254D01*
X3579771Y5069651D01*
X3571373Y5076095D01*
X3561594Y5080146D01*
X3551100Y5081527D01*
D02*
G37*
G36*
X3424100D02*
X3413606Y5080146D01*
X3403827Y5076095D01*
X3395429Y5069651D01*
X3388986Y5061254D01*
X3384935Y5051475D01*
X3383553Y5040980D01*
Y4925980D01*
X3384935Y4915486D01*
X3388986Y4905707D01*
X3395429Y4897309D01*
X3403827Y4890866D01*
X3404677Y4890514D01*
Y4767720D01*
X3399044Y4766011D01*
X3386415Y4759260D01*
X3375345Y4750175D01*
X3366260Y4739106D01*
X3359509Y4726476D01*
X3355352Y4712772D01*
X3353948Y4698520D01*
X3355352Y4684269D01*
X3359509Y4670564D01*
X3366260Y4657935D01*
X3375345Y4646865D01*
X3386415Y4637780D01*
X3399044Y4631029D01*
X3412748Y4626872D01*
X3427000Y4625469D01*
X3441252Y4626872D01*
X3454956Y4631029D01*
X3467585Y4637780D01*
X3478655Y4646865D01*
X3487740Y4657935D01*
X3494491Y4670564D01*
X3498648Y4684269D01*
X3500052Y4698520D01*
X3498648Y4712772D01*
X3494491Y4726476D01*
X3487740Y4739106D01*
X3478655Y4750175D01*
X3467585Y4759260D01*
X3454956Y4766011D01*
X3443523Y4769479D01*
Y4890514D01*
X3444373Y4890866D01*
X3452771Y4897309D01*
X3459215Y4905707D01*
X3463265Y4915486D01*
X3464647Y4925980D01*
Y5040980D01*
X3463265Y5051475D01*
X3459215Y5061254D01*
X3452771Y5069651D01*
X3444373Y5076095D01*
X3434594Y5080146D01*
X3424100Y5081527D01*
D02*
G37*
G36*
X3343699Y4611471D02*
X3317871D01*
Y4562367D01*
X3356980D01*
Y4598190D01*
X3355969Y4603273D01*
X3353090Y4607581D01*
X3348781Y4610460D01*
X3343699Y4611471D01*
D02*
G37*
G36*
X3305171D02*
X3279349D01*
X3274267Y4610460D01*
X3269959Y4607581D01*
X3267080Y4603273D01*
X3266069Y4598190D01*
Y4562367D01*
X3305171D01*
Y4611471D01*
D02*
G37*
G36*
X3356980Y4549667D02*
X3317871D01*
Y4500560D01*
X3343699D01*
X3348781Y4501571D01*
X3353090Y4504450D01*
X3355969Y4508758D01*
X3356980Y4513841D01*
Y4549667D01*
D02*
G37*
G36*
X3305171D02*
X3266069D01*
Y4513841D01*
X3267080Y4508758D01*
X3269959Y4504450D01*
X3274267Y4501571D01*
X3279349Y4500560D01*
X3305171D01*
Y4549667D01*
D02*
G37*
G36*
X4037960Y4233964D02*
X4029311D01*
Y4199771D01*
X4077671D01*
X4077126Y4203911D01*
X4073075Y4213690D01*
X4066631Y4222088D01*
X4058234Y4228531D01*
X4048455Y4232582D01*
X4037960Y4233964D01*
D02*
G37*
G36*
X4016611D02*
X4007960D01*
X3997466Y4232582D01*
X3987687Y4228531D01*
X3979289Y4222088D01*
X3972845Y4213690D01*
X3968795Y4203911D01*
X3968250Y4199771D01*
X4016611D01*
Y4233964D01*
D02*
G37*
G36*
X4077672Y4187071D02*
X4029311D01*
Y4152870D01*
X4037960D01*
X4048455Y4154252D01*
X4058234Y4158302D01*
X4066631Y4164746D01*
X4073075Y4173143D01*
X4077126Y4182923D01*
X4077672Y4187071D01*
D02*
G37*
G36*
X4016611D02*
X3968249D01*
X3968795Y4182923D01*
X3972845Y4173143D01*
X3979289Y4164746D01*
X3987687Y4158302D01*
X3997466Y4154252D01*
X4007960Y4152870D01*
X4016611D01*
Y4187071D01*
D02*
G37*
G36*
X4581335Y4188872D02*
X4545510D01*
Y4149767D01*
X4594615D01*
Y4175592D01*
X4593604Y4180674D01*
X4590726Y4184982D01*
X4586417Y4187861D01*
X4581335Y4188872D01*
D02*
G37*
G36*
X4532810D02*
X4496985D01*
X4491903Y4187861D01*
X4487595Y4184982D01*
X4484716Y4180674D01*
X4483705Y4175592D01*
Y4149767D01*
X4532810D01*
Y4188872D01*
D02*
G37*
G36*
X3831418Y4188845D02*
X3795600D01*
Y4149744D01*
X3844698D01*
Y4175564D01*
X3843687Y4180647D01*
X3840808Y4184955D01*
X3836500Y4187834D01*
X3831418Y4188845D01*
D02*
G37*
G36*
X3782900D02*
X3747068D01*
X3741986Y4187834D01*
X3737677Y4184955D01*
X3734798Y4180647D01*
X3733788Y4175564D01*
Y4149744D01*
X3782900D01*
Y4188845D01*
D02*
G37*
G36*
X4594615Y4137067D02*
X4545510D01*
Y4097962D01*
X4581335D01*
X4586417Y4098972D01*
X4590726Y4101851D01*
X4593604Y4106160D01*
X4594615Y4111242D01*
Y4137067D01*
D02*
G37*
G36*
X4532810D02*
X4483705D01*
Y4111242D01*
X4484716Y4106160D01*
X4487595Y4101851D01*
X4491903Y4098972D01*
X4496985Y4097962D01*
X4532810D01*
Y4137067D01*
D02*
G37*
G36*
X3844698Y4137044D02*
X3795600D01*
Y4097934D01*
X3831418D01*
X3836500Y4098945D01*
X3840808Y4101824D01*
X3843687Y4106132D01*
X3844698Y4111215D01*
Y4137044D01*
D02*
G37*
G36*
X3782900D02*
X3733788D01*
Y4111215D01*
X3734798Y4106132D01*
X3737677Y4101824D01*
X3741986Y4098945D01*
X3747068Y4097934D01*
X3782900D01*
Y4137044D01*
D02*
G37*
G36*
X4282960Y4138964D02*
X4252960D01*
X4242466Y4137582D01*
X4232686Y4133531D01*
X4224289Y4127088D01*
X4217846Y4118690D01*
X4213795Y4108911D01*
X4212413Y4098417D01*
X4213795Y4087923D01*
X4217846Y4078144D01*
X4224289Y4069746D01*
X4232686Y4063303D01*
X4242466Y4059252D01*
X4252960Y4057870D01*
X4282960D01*
X4293455Y4059252D01*
X4303234Y4063303D01*
X4311631Y4069746D01*
X4318075Y4078144D01*
X4322126Y4087923D01*
X4323507Y4098417D01*
X4322126Y4108911D01*
X4318075Y4118690D01*
X4311631Y4127088D01*
X4303234Y4133531D01*
X4293455Y4137582D01*
X4282960Y4138964D01*
D02*
G37*
G36*
X3925380Y3767425D02*
Y3531500D01*
X4088083D01*
Y3581100D01*
X4086473Y3605653D01*
X4081673Y3629785D01*
X4073764Y3653084D01*
X4062882Y3675152D01*
X4049212Y3695610D01*
X4032989Y3714109D01*
X4014490Y3730332D01*
X3994031Y3744002D01*
X3971964Y3754885D01*
X3948665Y3762794D01*
X3925380Y3767425D01*
D02*
G37*
G36*
X3874580D02*
X3851295Y3762794D01*
X3827996Y3754885D01*
X3805929Y3744002D01*
X3785470Y3730332D01*
X3766971Y3714109D01*
X3750748Y3695610D01*
X3737078Y3675152D01*
X3726196Y3653084D01*
X3718287Y3629785D01*
X3713487Y3605653D01*
X3711877Y3581100D01*
Y3531500D01*
X3874580D01*
Y3767425D01*
D02*
G37*
G36*
X4088083Y3480700D02*
X3925380D01*
Y3244775D01*
X3948665Y3249407D01*
X3971964Y3257316D01*
X3994031Y3268198D01*
X4014490Y3281868D01*
X4032989Y3298091D01*
X4049212Y3316590D01*
X4062882Y3337049D01*
X4073764Y3359116D01*
X4081673Y3382415D01*
X4086473Y3406548D01*
X4088083Y3431100D01*
Y3480700D01*
D02*
G37*
G36*
X3874580D02*
X3711877D01*
Y3431100D01*
X3713487Y3406548D01*
X3718287Y3382415D01*
X3726196Y3359116D01*
X3737078Y3337049D01*
X3750748Y3316590D01*
X3766971Y3298091D01*
X3785470Y3281868D01*
X3805929Y3268198D01*
X3827996Y3257316D01*
X3851295Y3249407D01*
X3874580Y3244775D01*
Y3480700D01*
D02*
G37*
G36*
X3415126Y3187835D02*
X3379301D01*
Y3148730D01*
X3428406D01*
Y3174555D01*
X3427395Y3179637D01*
X3424517Y3183946D01*
X3420208Y3186824D01*
X3415126Y3187835D01*
D02*
G37*
G36*
X3366601D02*
X3330776D01*
X3325694Y3186824D01*
X3321386Y3183946D01*
X3318507Y3179637D01*
X3317496Y3174555D01*
Y3148730D01*
X3366601D01*
Y3187835D01*
D02*
G37*
G36*
X4521872Y3195064D02*
Y3146969D01*
X4569967D01*
X4568608Y3151450D01*
X4561392Y3164948D01*
X4551683Y3176780D01*
X4539851Y3186489D01*
X4526353Y3193704D01*
X4521872Y3195064D01*
D02*
G37*
G36*
X4267872D02*
Y3146969D01*
X4315967D01*
X4314608Y3151450D01*
X4307392Y3164948D01*
X4297683Y3176780D01*
X4285851Y3186489D01*
X4272353Y3193704D01*
X4267872Y3195064D01*
D02*
G37*
G36*
X4471072Y3195062D02*
X4466597Y3193704D01*
X4453098Y3186489D01*
X4441267Y3176780D01*
X4431557Y3164948D01*
X4424342Y3151450D01*
X4422983Y3146969D01*
X4471072D01*
Y3195062D01*
D02*
G37*
G36*
X4217072D02*
X4212597Y3193704D01*
X4199098Y3186489D01*
X4187267Y3176780D01*
X4177557Y3164948D01*
X4170342Y3151450D01*
X4168983Y3146969D01*
X4217072D01*
Y3195062D01*
D02*
G37*
G36*
X4496472Y3121569D02*
D01*
D01*
D01*
D02*
G37*
G36*
X3428406Y3136030D02*
X3379301D01*
Y3096925D01*
X3415126D01*
X3420208Y3097936D01*
X3424517Y3100814D01*
X3427395Y3105123D01*
X3428406Y3110205D01*
Y3136030D01*
D02*
G37*
G36*
X3366601D02*
X3317496D01*
Y3110205D01*
X3318507Y3105123D01*
X3321386Y3100814D01*
X3325694Y3097936D01*
X3330776Y3096925D01*
X3366601D01*
Y3136030D01*
D02*
G37*
G36*
X4471072Y3096169D02*
X4422985D01*
X4424342Y3091693D01*
X4431557Y3078195D01*
X4441267Y3066364D01*
X4453098Y3056654D01*
X4466597Y3049439D01*
X4471072Y3048082D01*
Y3096169D01*
D02*
G37*
G36*
X4217072D02*
X4168985D01*
X4170342Y3091693D01*
X4177557Y3078195D01*
X4187267Y3066364D01*
X4199098Y3056654D01*
X4212597Y3049439D01*
X4217072Y3048082D01*
Y3096169D01*
D02*
G37*
G36*
X4569965D02*
X4521872D01*
Y3048080D01*
X4526353Y3049439D01*
X4539851Y3056654D01*
X4551683Y3066364D01*
X4561392Y3078195D01*
X4568608Y3091693D01*
X4569965Y3096169D01*
D02*
G37*
G36*
X4315965D02*
X4267872D01*
Y3048080D01*
X4272353Y3049439D01*
X4285851Y3056654D01*
X4297683Y3066364D01*
X4307392Y3078195D01*
X4314608Y3091693D01*
X4315965Y3096169D01*
D02*
G37*
G36*
X4524416Y2941062D02*
Y2892973D01*
X4572506D01*
X4571148Y2897450D01*
X4563932Y2910948D01*
X4554223Y2922780D01*
X4542391Y2932489D01*
X4528893Y2939704D01*
X4524416Y2941062D01*
D02*
G37*
G36*
X4473616Y2941063D02*
X4469137Y2939704D01*
X4455638Y2932489D01*
X4443807Y2922780D01*
X4434097Y2910948D01*
X4426882Y2897450D01*
X4425524Y2892973D01*
X4473616D01*
Y2941063D01*
D02*
G37*
G36*
X3575380Y2905716D02*
Y2831500D01*
X3649596D01*
X3645321Y2845592D01*
X3635785Y2863433D01*
X3622951Y2879071D01*
X3607313Y2891905D01*
X3589472Y2901441D01*
X3575380Y2905716D01*
D02*
G37*
G36*
X3524580D02*
X3510488Y2901441D01*
X3492647Y2891905D01*
X3477009Y2879071D01*
X3464175Y2863433D01*
X3454639Y2845592D01*
X3450364Y2831500D01*
X3524580D01*
Y2905716D01*
D02*
G37*
G36*
X4572506Y2842173D02*
X4524416D01*
Y2794081D01*
X4528893Y2795439D01*
X4542391Y2802654D01*
X4554223Y2812364D01*
X4563932Y2824195D01*
X4571148Y2837693D01*
X4572506Y2842173D01*
D02*
G37*
G36*
X4473616D02*
X4425523D01*
X4426882Y2837693D01*
X4434097Y2824195D01*
X4443807Y2812364D01*
X4455638Y2802654D01*
X4469137Y2795439D01*
X4473616Y2794080D01*
Y2842173D01*
D02*
G37*
G36*
X3303450Y6010691D02*
Y5919830D01*
X3337647D01*
Y5970980D01*
X3336265Y5981474D01*
X3332215Y5991254D01*
X3325771Y5999651D01*
X3317373Y6006095D01*
X3307594Y6010145D01*
X3303450Y6010691D01*
D02*
G37*
G36*
X3290750D02*
X3286606Y6010145D01*
X3276827Y6006095D01*
X3268429Y5999651D01*
X3261986Y5991254D01*
X3257935Y5981474D01*
X3256553Y5970980D01*
Y5919830D01*
X3290750D01*
Y6010691D01*
D02*
G37*
G36*
X3337647Y5907130D02*
X3303450D01*
Y5816269D01*
X3307594Y5816815D01*
X3317373Y5820866D01*
X3325771Y5827309D01*
X3332215Y5835707D01*
X3336265Y5845486D01*
X3337647Y5855980D01*
Y5907130D01*
D02*
G37*
G36*
X3290750D02*
X3256553D01*
Y5855980D01*
X3257935Y5845486D01*
X3261986Y5835707D01*
X3268429Y5827309D01*
X3276827Y5820866D01*
X3286606Y5816815D01*
X3290750Y5816269D01*
Y5907130D01*
D02*
G37*
G36*
X3170100Y6011527D02*
X3159606Y6010145D01*
X3149827Y6006095D01*
X3141429Y5999651D01*
X3134986Y5991254D01*
X3130935Y5981474D01*
X3129553Y5970980D01*
Y5855980D01*
X3130935Y5845486D01*
X3134986Y5835707D01*
X3141429Y5827309D01*
X3149827Y5820866D01*
X3159606Y5816815D01*
X3170100Y5815433D01*
X3180594Y5816815D01*
X3190373Y5820866D01*
X3198771Y5827309D01*
X3205215Y5835707D01*
X3209265Y5845486D01*
X3210647Y5855980D01*
Y5970980D01*
X3209265Y5981474D01*
X3205215Y5991254D01*
X3198771Y5999651D01*
X3190373Y6006095D01*
X3180594Y6010145D01*
X3170100Y6011527D01*
D02*
G37*
G36*
X2668450Y6010691D02*
Y5919830D01*
X2702647D01*
Y5970980D01*
X2701265Y5981474D01*
X2697215Y5991254D01*
X2690771Y5999651D01*
X2682373Y6006095D01*
X2672594Y6010145D01*
X2668450Y6010691D01*
D02*
G37*
G36*
X2655750D02*
X2651606Y6010145D01*
X2641827Y6006095D01*
X2633429Y5999651D01*
X2626986Y5991254D01*
X2622935Y5981474D01*
X2621553Y5970980D01*
Y5919830D01*
X2655750D01*
Y6010691D01*
D02*
G37*
G36*
X2702647Y5907130D02*
X2668450D01*
Y5816269D01*
X2672594Y5816815D01*
X2682373Y5820866D01*
X2690771Y5827309D01*
X2697215Y5835707D01*
X2701265Y5845486D01*
X2702647Y5855980D01*
Y5907130D01*
D02*
G37*
G36*
X2655750D02*
X2621553D01*
Y5855980D01*
X2622935Y5845486D01*
X2626986Y5835707D01*
X2633429Y5827309D01*
X2641827Y5820866D01*
X2651606Y5816815D01*
X2655750Y5816269D01*
Y5907130D01*
D02*
G37*
G36*
X2789100Y6011527D02*
X2778606Y6010145D01*
X2768827Y6006095D01*
X2760429Y5999651D01*
X2753986Y5991254D01*
X2749935Y5981474D01*
X2748553Y5970980D01*
Y5855980D01*
X2749935Y5845486D01*
X2753986Y5835707D01*
X2760429Y5827309D01*
X2768827Y5820866D01*
X2778606Y5816815D01*
X2789100Y5815433D01*
X2799594Y5816815D01*
X2809373Y5820866D01*
X2817771Y5827309D01*
X2824215Y5835707D01*
X2828265Y5845486D01*
X2829647Y5855980D01*
Y5970980D01*
X2828265Y5981474D01*
X2824215Y5991254D01*
X2817771Y5999651D01*
X2809373Y6006095D01*
X2799594Y6010145D01*
X2789100Y6011527D01*
D02*
G37*
G36*
X2535100D02*
X2524606Y6010145D01*
X2514827Y6006095D01*
X2506429Y5999651D01*
X2499986Y5991254D01*
X2495935Y5981474D01*
X2494553Y5970980D01*
Y5855980D01*
X2495935Y5845486D01*
X2499986Y5835707D01*
X2506429Y5827309D01*
X2514827Y5820866D01*
X2524606Y5816815D01*
X2535100Y5815433D01*
X2545594Y5816815D01*
X2555373Y5820866D01*
X2563771Y5827309D01*
X2570215Y5835707D01*
X2574265Y5845486D01*
X2575647Y5855980D01*
Y5970980D01*
X2574265Y5981474D01*
X2570215Y5991254D01*
X2563771Y5999651D01*
X2555373Y6006095D01*
X2545594Y6010145D01*
X2535100Y6011527D01*
D02*
G37*
G36*
X628715Y5814702D02*
Y5766609D01*
X676806D01*
X675447Y5771089D01*
X668232Y5784587D01*
X658523Y5796419D01*
X646691Y5806128D01*
X633193Y5813343D01*
X628715Y5814702D01*
D02*
G37*
G36*
X577915Y5814702D02*
X573436Y5813343D01*
X559938Y5806128D01*
X548107Y5796419D01*
X538397Y5784587D01*
X531182Y5771089D01*
X529823Y5766609D01*
X577915D01*
Y5814702D01*
D02*
G37*
G36*
X676806Y5715809D02*
X628715D01*
Y5667720D01*
X633193Y5669078D01*
X646691Y5676293D01*
X658523Y5686003D01*
X668232Y5697834D01*
X675447Y5711332D01*
X676806Y5715809D01*
D02*
G37*
G36*
X577915D02*
X529824D01*
X531182Y5711332D01*
X538397Y5697834D01*
X548107Y5686003D01*
X559938Y5676293D01*
X573436Y5669078D01*
X577915Y5667719D01*
Y5715809D01*
D02*
G37*
G36*
X628715Y5560702D02*
Y5512609D01*
X676806D01*
X675447Y5517089D01*
X668232Y5530587D01*
X658523Y5542419D01*
X646691Y5552128D01*
X633193Y5559343D01*
X628715Y5560702D01*
D02*
G37*
G36*
X577915Y5560702D02*
X573436Y5559343D01*
X559938Y5552128D01*
X548107Y5542419D01*
X538397Y5530587D01*
X531182Y5517089D01*
X529823Y5512609D01*
X577915D01*
Y5560702D01*
D02*
G37*
G36*
X1795800Y5716097D02*
X1734580D01*
Y5501025D01*
X1809641D01*
Y5702256D01*
X1808587Y5707552D01*
X1805587Y5712043D01*
X1801096Y5715043D01*
X1795800Y5716097D01*
D02*
G37*
G36*
X1683780D02*
X1622550D01*
X1617253Y5715043D01*
X1612763Y5712043D01*
X1609763Y5707552D01*
X1608709Y5702256D01*
Y5501025D01*
X1683780D01*
Y5716097D01*
D02*
G37*
G36*
X676806Y5461809D02*
X628715D01*
Y5413720D01*
X633193Y5415078D01*
X646691Y5422293D01*
X658523Y5432003D01*
X668232Y5443834D01*
X675447Y5457332D01*
X676806Y5461809D01*
D02*
G37*
G36*
X577915D02*
X529824D01*
X531182Y5457332D01*
X538397Y5443834D01*
X548107Y5432003D01*
X559938Y5422293D01*
X573436Y5415078D01*
X577915Y5413719D01*
Y5461809D01*
D02*
G37*
G36*
X628715Y5306702D02*
Y5258609D01*
X676806D01*
X675447Y5263089D01*
X668232Y5276587D01*
X658523Y5288419D01*
X646691Y5298128D01*
X633193Y5305343D01*
X628715Y5306702D01*
D02*
G37*
G36*
X577915Y5306702D02*
X573436Y5305343D01*
X559938Y5298128D01*
X548107Y5288419D01*
X538397Y5276587D01*
X531182Y5263089D01*
X529823Y5258609D01*
X577915D01*
Y5306702D01*
D02*
G37*
G36*
X1809641Y5450225D02*
X1734580D01*
Y5235165D01*
X1795800D01*
X1801096Y5236218D01*
X1805587Y5239219D01*
X1808587Y5243709D01*
X1809641Y5249006D01*
Y5450225D01*
D02*
G37*
G36*
X1683780D02*
X1608709D01*
Y5249006D01*
X1609763Y5243709D01*
X1612763Y5239219D01*
X1617253Y5236218D01*
X1622550Y5235165D01*
X1683780D01*
Y5450225D01*
D02*
G37*
G36*
X676806Y5207809D02*
X628715D01*
Y5159720D01*
X633193Y5161078D01*
X646691Y5168293D01*
X658523Y5178003D01*
X668232Y5189834D01*
X675447Y5203332D01*
X676806Y5207809D01*
D02*
G37*
G36*
X577915D02*
X529824D01*
X531182Y5203332D01*
X538397Y5189834D01*
X548107Y5178003D01*
X559938Y5168293D01*
X573436Y5161078D01*
X577915Y5159719D01*
Y5207809D01*
D02*
G37*
G36*
X628715Y5052702D02*
Y5004609D01*
X676806D01*
X675447Y5009089D01*
X668232Y5022587D01*
X658523Y5034419D01*
X646691Y5044128D01*
X633193Y5051343D01*
X628715Y5052702D01*
D02*
G37*
G36*
X577915Y5052702D02*
X573436Y5051343D01*
X559938Y5044128D01*
X548107Y5034419D01*
X538397Y5022587D01*
X531182Y5009089D01*
X529823Y5004609D01*
X577915D01*
Y5052702D01*
D02*
G37*
G36*
X676806Y4953809D02*
X628715D01*
Y4905720D01*
X633193Y4907078D01*
X646691Y4914293D01*
X658523Y4924003D01*
X668232Y4935834D01*
X675447Y4949332D01*
X676806Y4953809D01*
D02*
G37*
G36*
X577915D02*
X529824D01*
X531182Y4949332D01*
X538397Y4935834D01*
X548107Y4924003D01*
X559938Y4914293D01*
X573436Y4907078D01*
X577915Y4905719D01*
Y4953809D01*
D02*
G37*
G36*
X628715Y4798702D02*
Y4750609D01*
X676806D01*
X675447Y4755089D01*
X668232Y4768587D01*
X658523Y4780419D01*
X646691Y4790128D01*
X633193Y4797343D01*
X628715Y4798702D01*
D02*
G37*
G36*
X577915Y4798702D02*
X573436Y4797343D01*
X559938Y4790128D01*
X548107Y4780419D01*
X538397Y4768587D01*
X531182Y4755089D01*
X529823Y4750609D01*
X577915D01*
Y4798702D01*
D02*
G37*
G36*
X676806Y4699809D02*
X628715D01*
Y4651720D01*
X633193Y4653078D01*
X646691Y4660293D01*
X658523Y4670003D01*
X668232Y4681834D01*
X675447Y4695332D01*
X676806Y4699809D01*
D02*
G37*
G36*
X577915D02*
X529824D01*
X531182Y4695332D01*
X538397Y4681834D01*
X548107Y4670003D01*
X559938Y4660293D01*
X573436Y4653078D01*
X577915Y4651719D01*
Y4699809D01*
D02*
G37*
G36*
X628716Y4461566D02*
Y4328028D01*
X691439D01*
Y4377625D01*
X689746Y4394818D01*
X684731Y4411349D01*
X676587Y4426585D01*
X665628Y4439939D01*
X652274Y4450898D01*
X637038Y4459042D01*
X628716Y4461566D01*
D02*
G37*
G36*
X577916Y4461567D02*
X569591Y4459042D01*
X554356Y4450898D01*
X541001Y4439939D01*
X530042Y4426585D01*
X521899Y4411349D01*
X516884Y4394818D01*
X515190Y4377625D01*
Y4328028D01*
X577916D01*
Y4461567D01*
D02*
G37*
G36*
X2741535Y4367412D02*
X2684960D01*
Y4327352D01*
X2755019D01*
Y4353928D01*
X2753993Y4359089D01*
X2751070Y4363463D01*
X2746695Y4366386D01*
X2741535Y4367412D01*
D02*
G37*
G36*
X2634160D02*
X2577585D01*
X2572425Y4366386D01*
X2568050Y4363463D01*
X2565127Y4359089D01*
X2564101Y4353928D01*
Y4327352D01*
X2634160D01*
Y4367412D01*
D02*
G37*
G36*
X2755019Y4276552D02*
X2684960D01*
Y4236494D01*
X2741535D01*
X2746695Y4237521D01*
X2751070Y4240444D01*
X2753993Y4244818D01*
X2755019Y4249978D01*
Y4276552D01*
D02*
G37*
G36*
X2634160D02*
X2564101D01*
Y4249978D01*
X2565127Y4244818D01*
X2568050Y4240444D01*
X2572425Y4237521D01*
X2577585Y4236494D01*
X2634160D01*
Y4276552D01*
D02*
G37*
G36*
X691439Y4277228D02*
X628716D01*
Y4143684D01*
X637038Y4146209D01*
X652274Y4154353D01*
X665628Y4165312D01*
X676587Y4178666D01*
X684731Y4193902D01*
X689746Y4210433D01*
X691439Y4227625D01*
Y4277228D01*
D02*
G37*
G36*
X577916D02*
X515190D01*
Y4227625D01*
X516884Y4210433D01*
X521899Y4193902D01*
X530042Y4178666D01*
X541001Y4165312D01*
X554356Y4154353D01*
X569591Y4146209D01*
X577916Y4143684D01*
Y4277228D01*
D02*
G37*
G36*
X2725380Y3767425D02*
Y3531500D01*
X2888083D01*
Y3581100D01*
X2886473Y3605653D01*
X2881673Y3629785D01*
X2873764Y3653084D01*
X2862882Y3675152D01*
X2849212Y3695610D01*
X2832988Y3714109D01*
X2814490Y3730332D01*
X2794031Y3744002D01*
X2771964Y3754885D01*
X2748665Y3762794D01*
X2725380Y3767425D01*
D02*
G37*
G36*
X2674580D02*
X2651295Y3762794D01*
X2627996Y3754885D01*
X2605928Y3744002D01*
X2585470Y3730332D01*
X2566971Y3714109D01*
X2550748Y3695610D01*
X2537078Y3675152D01*
X2526196Y3653084D01*
X2518287Y3629785D01*
X2513486Y3605653D01*
X2511877Y3581100D01*
Y3531500D01*
X2674580D01*
Y3767425D01*
D02*
G37*
G36*
X2888083Y3480700D02*
X2725380D01*
Y3244775D01*
X2748665Y3249407D01*
X2771964Y3257316D01*
X2794031Y3268198D01*
X2814490Y3281868D01*
X2832988Y3298091D01*
X2849212Y3316590D01*
X2862882Y3337049D01*
X2873764Y3359116D01*
X2881673Y3382415D01*
X2886473Y3406548D01*
X2888083Y3431100D01*
Y3480700D01*
D02*
G37*
G36*
X2674580D02*
X2511877D01*
Y3431100D01*
X2513486Y3406548D01*
X2518287Y3382415D01*
X2526196Y3359116D01*
X2537078Y3337049D01*
X2550748Y3316590D01*
X2566971Y3298091D01*
X2585470Y3281868D01*
X2605928Y3268198D01*
X2627996Y3257316D01*
X2651295Y3249407D01*
X2674580Y3244775D01*
Y3480700D01*
D02*
G37*
G36*
X3325380Y4355716D02*
Y4281500D01*
X3399596D01*
X3395321Y4295592D01*
X3385785Y4313433D01*
X3372951Y4329071D01*
X3357313Y4341905D01*
X3339472Y4351441D01*
X3325380Y4355716D01*
D02*
G37*
G36*
X3274580D02*
X3260488Y4351441D01*
X3242647Y4341905D01*
X3227009Y4329071D01*
X3214175Y4313433D01*
X3204639Y4295592D01*
X3200364Y4281500D01*
X3274580D01*
Y4355716D01*
D02*
G37*
G36*
X3399596Y4230700D02*
X3325380D01*
Y4156484D01*
X3339472Y4160759D01*
X3357313Y4170295D01*
X3372951Y4183129D01*
X3385785Y4198767D01*
X3395321Y4216609D01*
X3399596Y4230700D01*
D02*
G37*
G36*
X3274580D02*
X3200364D01*
X3204639Y4216609D01*
X3214175Y4198767D01*
X3227009Y4183129D01*
X3242647Y4170295D01*
X3260488Y4160759D01*
X3274580Y4156484D01*
Y4230700D01*
D02*
G37*
G36*
X5722175Y4048872D02*
X5686346D01*
Y4009772D01*
X5735456D01*
Y4035592D01*
X5734445Y4040674D01*
X5731566Y4044982D01*
X5727258Y4047861D01*
X5722175Y4048872D01*
D02*
G37*
G36*
X5673646D02*
X5637825D01*
X5632743Y4047861D01*
X5628435Y4044982D01*
X5625556Y4040674D01*
X5624545Y4035592D01*
Y4009772D01*
X5673646D01*
Y4048872D01*
D02*
G37*
G36*
X5353626Y4022068D02*
X5290323D01*
Y3995435D01*
X5321480D01*
X5330017Y3996559D01*
X5337971Y3999854D01*
X5344802Y4005095D01*
X5350043Y4011926D01*
X5353338Y4019880D01*
X5353626Y4022068D01*
D02*
G37*
G36*
X5277623D02*
X5214334D01*
X5214622Y4019880D01*
X5217917Y4011926D01*
X5223158Y4005095D01*
X5229989Y3999854D01*
X5237944Y3996559D01*
X5246480Y3995435D01*
X5277623D01*
Y4022068D01*
D02*
G37*
G36*
X5735456Y3997072D02*
X5686346D01*
Y3957961D01*
X5722175D01*
X5727258Y3958972D01*
X5731566Y3961851D01*
X5734445Y3966159D01*
X5735456Y3971242D01*
Y3997072D01*
D02*
G37*
G36*
X5673646D02*
X5624545D01*
Y3971242D01*
X5625556Y3966159D01*
X5628435Y3961851D01*
X5632743Y3958972D01*
X5637825Y3957961D01*
X5673646D01*
Y3997072D01*
D02*
G37*
G36*
X5460716Y4671373D02*
X5427416D01*
Y4629767D01*
X5474022D01*
Y4658067D01*
X5473009Y4663159D01*
X5470124Y4667476D01*
X5465808Y4670360D01*
X5460716Y4671373D01*
D02*
G37*
G36*
X5414716D02*
X5381416D01*
X5376324Y4670360D01*
X5372007Y4667476D01*
X5369123Y4663159D01*
X5368110Y4658067D01*
Y4629767D01*
X5414716D01*
Y4671373D01*
D02*
G37*
G36*
X5474022Y4617067D02*
X5427416D01*
Y4575462D01*
X5460716D01*
X5465808Y4576474D01*
X5470124Y4579359D01*
X5473009Y4583675D01*
X5474022Y4588767D01*
Y4617067D01*
D02*
G37*
G36*
X5414716D02*
X5368110D01*
Y4588767D01*
X5369123Y4583675D01*
X5372007Y4579359D01*
X5376324Y4576474D01*
X5381416Y4575462D01*
X5414716D01*
Y4617067D01*
D02*
G37*
G36*
X5788716Y4531371D02*
X5767838D01*
Y4489770D01*
X5801945D01*
Y4518142D01*
X5800938Y4523205D01*
X5798070Y4527496D01*
X5793778Y4530364D01*
X5788716Y4531371D01*
D02*
G37*
G36*
X5755138D02*
X5734266D01*
X5729203Y4530364D01*
X5724912Y4527496D01*
X5722044Y4523205D01*
X5721037Y4518142D01*
Y4489770D01*
X5755138D01*
Y4531371D01*
D02*
G37*
G36*
X5801945Y4477070D02*
X5767838D01*
Y4435463D01*
X5788716D01*
X5793778Y4436470D01*
X5798070Y4439338D01*
X5800938Y4443629D01*
X5801945Y4448692D01*
Y4477070D01*
D02*
G37*
G36*
X5755138D02*
X5721037D01*
Y4448692D01*
X5722044Y4443629D01*
X5724912Y4439338D01*
X5729203Y4436470D01*
X5734266Y4435463D01*
X5755138D01*
Y4477070D01*
D02*
G37*
G36*
X5481673Y3598046D02*
X5355273D01*
X5347833Y3597066D01*
X5340900Y3594195D01*
X5334947Y3589626D01*
X5330378Y3583673D01*
X5327506Y3576740D01*
X5326527Y3569300D01*
Y3442900D01*
X5327506Y3435460D01*
X5330378Y3428527D01*
X5334947Y3422574D01*
X5340900Y3418006D01*
X5347833Y3415134D01*
X5355273Y3414154D01*
X5481673D01*
X5489112Y3415134D01*
X5496046Y3418006D01*
X5501999Y3422574D01*
X5506567Y3428527D01*
X5509439Y3435460D01*
X5510418Y3442900D01*
Y3480203D01*
X5677864D01*
Y3466450D01*
X5678877Y3461358D01*
X5681761Y3457042D01*
X5686078Y3454157D01*
X5691170Y3453144D01*
X5760470D01*
X5765562Y3454157D01*
X5769878Y3457042D01*
X5772763Y3461358D01*
X5773776Y3466450D01*
Y3545750D01*
X5772763Y3550842D01*
X5769878Y3555159D01*
X5765562Y3558043D01*
X5760470Y3559056D01*
X5691170D01*
X5686078Y3558043D01*
X5681761Y3555159D01*
X5678877Y3550842D01*
X5677864Y3545750D01*
Y3531998D01*
X5510418D01*
Y3569300D01*
X5509439Y3576740D01*
X5506567Y3583673D01*
X5501999Y3589626D01*
X5496046Y3594195D01*
X5489112Y3597066D01*
X5481673Y3598046D01*
D02*
G37*
%LPD*%
D10*
X5837495Y2910700D02*
D03*
Y2690700D02*
D03*
D11*
X4508680Y4548417D02*
D03*
Y4693417D02*
D03*
X3789243Y4143389D02*
D03*
Y4288389D02*
D03*
X5680000Y4003417D02*
D03*
Y4148417D02*
D03*
X4539160Y4288417D02*
D03*
Y4143417D02*
D03*
X3372951Y3142380D02*
D03*
Y2997380D02*
D03*
D12*
X4285992Y4548417D02*
D03*
X4145992D02*
D03*
X3789243Y4418417D02*
D03*
X3649243D02*
D03*
X5865820Y3506100D02*
D03*
X5725820D02*
D03*
X3996186Y5776780D02*
D03*
X3856185D02*
D03*
X3189980Y2997380D02*
D03*
X3049980D02*
D03*
X5540000Y4288417D02*
D03*
X5680000D02*
D03*
D13*
X5571491Y4483417D02*
D03*
X5761491D02*
D03*
X5666491Y4693417D02*
D03*
D14*
X5421066Y4623417D02*
D03*
Y4483417D02*
D03*
D15*
X3678100Y5913480D02*
D03*
X3551100D02*
D03*
X3424100D02*
D03*
X3297100D02*
D03*
X3170100D02*
D03*
X3043100D02*
D03*
X2916100D02*
D03*
X2789100D02*
D03*
X2662100D02*
D03*
X2535100D02*
D03*
X2408100D02*
D03*
X2281100D02*
D03*
X3678100Y4983480D02*
D03*
X3551100D02*
D03*
X3424100D02*
D03*
X3297100D02*
D03*
X3170100D02*
D03*
X3043100D02*
D03*
X2916100D02*
D03*
X2789100D02*
D03*
X2662100D02*
D03*
X2535100D02*
D03*
X2408100D02*
D03*
X2281100D02*
D03*
D16*
X4437560Y5221780D02*
D03*
X4564560D02*
D03*
X4691560D02*
D03*
X4818560D02*
D03*
X4945560D02*
D03*
X5072560D02*
D03*
X5199560D02*
D03*
X4437560Y5776780D02*
D03*
X4564560D02*
D03*
X4691560D02*
D03*
X4818560D02*
D03*
X4945560D02*
D03*
X5072560D02*
D03*
X5199560D02*
D03*
D17*
X5283980Y4028417D02*
D03*
Y4093417D02*
D03*
Y4158417D02*
D03*
Y4223417D02*
D03*
Y4288417D02*
D03*
Y4353417D02*
D03*
Y4418417D02*
D03*
Y4483417D02*
D03*
Y4548417D02*
D03*
Y4613417D02*
D03*
X4723980Y4028417D02*
D03*
Y4093417D02*
D03*
Y4158417D02*
D03*
Y4223417D02*
D03*
Y4288417D02*
D03*
Y4353417D02*
D03*
Y4418417D02*
D03*
Y4483417D02*
D03*
Y4548417D02*
D03*
Y4613417D02*
D03*
D18*
X4267960Y4098417D02*
D03*
Y4288417D02*
D03*
X4022960Y4098417D02*
D03*
Y4193417D02*
D03*
Y4288417D02*
D03*
D19*
X4292560Y5975105D02*
D03*
X4437560D02*
D03*
X3311524Y4556016D02*
D03*
X3166524D02*
D03*
D20*
X1709175Y5475631D02*
D03*
Y4845631D02*
D03*
D21*
X2659560Y4301953D02*
D03*
Y4036953D02*
D03*
D22*
X5418473Y3506100D02*
X5725820D01*
X5164473Y2690700D02*
X5761295D01*
X4245015D02*
X5164473D01*
Y3506100D01*
X3899172Y4288417D02*
X4022960D01*
X1509978Y389361D02*
X1558239D01*
X1670560Y277040D01*
X1282881Y616458D02*
X1509978Y389361D01*
X1282881Y616458D02*
Y937622D01*
X1623315Y1278056D01*
X2841286Y4036953D02*
Y4402000D01*
X2917634Y4478348D02*
X3022034D01*
X2841286Y4402000D02*
X2917634Y4478348D01*
X5886695Y1992167D02*
X6142527D01*
X3883840Y4098417D02*
Y4273085D01*
X5834753Y1992167D02*
X5886695D01*
X3883840Y4068328D02*
Y4098417D01*
X1623315Y1278056D02*
Y1362625D01*
X5865820Y3506100D02*
X5973995D01*
X5860820D02*
X5865820D01*
X5973995Y2910700D02*
Y3506100D01*
X5882820Y2910700D02*
X5973995D01*
Y2204867D02*
Y2910700D01*
X2933880Y2759000D02*
Y4036953D01*
X5973995Y3506100D02*
Y4679125D01*
X5959703Y4693417D02*
X5973995Y4679125D01*
X5666491Y4693417D02*
X5959703D01*
X3081525Y4537839D02*
Y4556016D01*
Y4764531D01*
X3043100Y4802957D02*
X3081525Y4764531D01*
X3022034Y4478348D02*
X3081525Y4537839D01*
Y4556016D02*
X3166524D01*
X3043100Y4802957D02*
Y4983480D01*
X5886695Y2117567D02*
X5973995Y2204867D01*
X1123315Y1362625D02*
Y1834515D01*
X1171120Y1882320D01*
X3386695D01*
Y1367567D02*
Y1882320D01*
X2933880Y2759000D02*
X3002180Y2690700D01*
X4267960Y4288417D02*
X4539160D01*
X4245015Y2690700D02*
Y2867572D01*
X2933880Y4036953D02*
X3852465D01*
X3883840Y4068328D01*
Y4273085D02*
X3899172Y4288417D01*
X4242475Y3883572D02*
X4372497D01*
Y4288417D01*
Y3853360D02*
Y3883572D01*
X3002180Y2690700D02*
X4245015D01*
X5761295D02*
X5788840D01*
X5970875Y5975105D02*
X6182540Y5763440D01*
X4437560Y5776780D02*
Y5975105D01*
X5970875D01*
X5886695Y1367567D02*
Y1992167D01*
X5761295Y2065625D02*
Y2690700D01*
Y2065625D02*
X5834753Y1992167D01*
X6142527D02*
X6182540Y2032180D01*
Y5763440D01*
D23*
X3883840Y4098417D02*
X4022960D01*
X3451609Y4536619D02*
X3488807Y4573817D01*
X4008079D01*
X3451609Y4426479D02*
Y4536619D01*
X3477009Y4526098D02*
X3499328Y4548417D01*
X4145992D01*
X3477009Y4401079D02*
Y4526098D01*
X3649243Y4355363D02*
Y4418417D01*
X3549980Y4256100D02*
X3649243Y4355363D01*
X3509848Y4523017D02*
X3991854D01*
X4071054Y4443817D02*
X4605353D01*
X3991854Y4523017D02*
X4071054Y4443817D01*
X3502409Y4362749D02*
Y4515577D01*
X3440930Y4301270D02*
X3502409Y4362749D01*
X3440930Y4177589D02*
Y4301270D01*
X3049980Y4256100D02*
Y4386200D01*
X3057420Y4393640D01*
X3469569D01*
X2974702Y4419040D02*
X3444169D01*
X2903579Y4347916D02*
X2974702Y4419040D01*
X4008079Y4573817D02*
X4310380Y4876118D01*
X4557120D02*
X4564560Y4883557D01*
Y5221780D01*
X4310380Y4876118D02*
X4557120D01*
X4605353Y4443817D02*
X4644953Y4483417D01*
X4723980D01*
X2903579Y4159144D02*
X2956563Y4106160D01*
X2903579Y4159144D02*
Y4347916D01*
X3444169Y4419040D02*
X3451609Y4426479D01*
X2956563Y4106160D02*
X3369501D01*
X3502409Y4515577D02*
X3509848Y4523017D01*
X3369501Y4106160D02*
X3440930Y4177589D01*
X3469569Y4393640D02*
X3477009Y4401079D01*
X4892816Y4435461D02*
X5101273D01*
X5108713Y4442901D01*
Y4993663D01*
X4873107Y4184235D02*
Y4415753D01*
X4892816Y4435461D01*
X4847289Y4158417D02*
X4873107Y4184235D01*
X4723980Y4158417D02*
X4847289D01*
X5108713Y4993663D02*
X5116153Y5001103D01*
X5964100D01*
X5964100Y5001102D01*
X3470650Y5836699D02*
Y5991255D01*
X3452771Y6009134D02*
Y6136498D01*
Y6009134D02*
X3470650Y5991255D01*
X5186052Y4150540D02*
X5207180Y4129412D01*
Y4099740D02*
Y4129412D01*
Y4099740D02*
X5213503Y4093417D01*
X5283980D01*
X5064940Y4150540D02*
X5186052D01*
X5209720Y4284357D02*
X5213780Y4288417D01*
X5209720Y4255041D02*
Y4284357D01*
X5181419Y4226740D02*
X5209720Y4255041D01*
X5033377Y4226740D02*
X5181419D01*
X5213780Y4288417D02*
X5283980D01*
X5214097Y4158417D02*
X5283980D01*
X5196573Y4175940D02*
X5214097Y4158417D01*
X5054419Y4175940D02*
X5196573D01*
X5214017Y4223417D02*
X5283980D01*
X5191940Y4201340D02*
X5214017Y4223417D01*
X5043898Y4201340D02*
X5191940D01*
X4801192Y3643286D02*
Y4086379D01*
X4787477Y3629572D02*
X4801192Y3643286D01*
X4794153Y4093417D02*
X4801192Y4086379D01*
X4723980Y4093417D02*
X4794153D01*
X4496475Y3629572D02*
X4787477D01*
X4372497Y3521368D02*
Y3853360D01*
Y3521368D02*
X4383443Y3510422D01*
X3372951Y2997380D02*
X4996112D01*
X5680000Y4148417D02*
Y4288417D01*
X2814460Y5522100D02*
X3411721D01*
X2801800Y5509440D02*
X2814460Y5522100D01*
X2801800Y5094111D02*
Y5509440D01*
X2740000Y5057711D02*
X2776400Y5094111D01*
X2801800D02*
X2835650Y5060262D01*
X2966900Y5091932D02*
X2992647Y5066185D01*
Y4910602D02*
Y5066185D01*
Y4910602D02*
X3011350Y4891899D01*
X2941500Y5081411D02*
X2965927Y5056985D01*
Y4901401D02*
Y5056985D01*
Y4901401D02*
X2985950Y4881378D01*
X4508680Y4548417D02*
X4723980D01*
X4285992D02*
X4508680D01*
X3789243Y4418417D02*
X4723980D01*
X3789243Y4288389D02*
Y4418417D01*
X3049980Y2806100D02*
Y2997380D01*
X3189980D02*
X3372951D01*
X4723980Y4613417D02*
X4934546D01*
X5457557Y4148417D02*
X5680000D01*
X5283980Y4288417D02*
X5540000D01*
X3559170Y4698520D02*
X3681000D01*
X3551100Y4706590D02*
X3559170Y4698520D01*
X3551100Y4706590D02*
Y4983480D01*
X3436800Y5547179D02*
Y5802849D01*
X3411721Y5522100D02*
X3436800Y5547179D01*
Y5802849D02*
X3470650Y5836699D01*
X4640760Y5322732D02*
Y5377500D01*
X4619610Y5301582D02*
X4640760Y5322732D01*
X5072560Y5221780D02*
Y5403882D01*
X5066062Y5410380D02*
X5072560Y5403882D01*
X2740000Y4902128D02*
Y5057711D01*
X2744050Y4665777D02*
Y4731264D01*
X2690400Y4784914D02*
X2744050Y4731264D01*
X2690400Y4784914D02*
Y4852528D01*
X2814500Y4838941D02*
Y4885549D01*
Y4838941D02*
X2875871Y4777570D01*
X2951743D01*
X2789100Y4828420D02*
Y4983480D01*
X2665000Y4698520D02*
Y4863049D01*
X2690400Y4852528D02*
X2740000Y4902128D01*
X2687500Y5081411D02*
X2708650Y5060262D01*
Y4906699D02*
Y5060262D01*
X2665000Y4863049D02*
X2708650Y4906699D01*
X3678100Y5444400D02*
Y5913480D01*
X3935000Y4698520D02*
Y5199647D01*
X3927147Y5207500D02*
X3935000Y5199647D01*
X3305000Y5207500D02*
X3927147D01*
X3297100Y5199600D02*
X3305000Y5207500D01*
X3297100Y4983480D02*
Y5199600D01*
X2998050Y4571107D02*
Y4731264D01*
X2987841Y4560898D02*
X2998050Y4571107D01*
X2951743Y4777570D02*
X2998050Y4731264D01*
X2835650Y4906699D02*
Y5060262D01*
X2814500Y4885549D02*
X2835650Y4906699D01*
X2789100Y4828420D02*
X2919000Y4698520D01*
X2985950Y4779285D02*
Y4881378D01*
Y4779285D02*
X3023450Y4741785D01*
X3011350Y4789806D02*
X3048850Y4752305D01*
X3011350Y4789806D02*
Y4891899D01*
X3048850Y4550065D02*
Y4752305D01*
X3023450Y4560586D02*
Y4741785D01*
X2998362Y4535498D02*
X3023450Y4560586D01*
X2305877Y4510098D02*
X3008883D01*
X2316398Y4535498D02*
X2998362D01*
X3008883Y4510098D02*
X3048850Y4550065D01*
X2418594Y4560898D02*
X2987841D01*
X4750445Y5410380D02*
X5066062D01*
X4742360Y5402295D02*
X4750445Y5410380D01*
X4742360Y5322732D02*
Y5402295D01*
X4739924Y5435780D02*
X5190459D01*
X4716960Y5412816D02*
X4739924Y5435780D01*
X4716960Y5312211D02*
Y5412816D01*
X5199560Y5444881D02*
Y5776780D01*
X5190459Y5435780D02*
X5199560Y5444881D01*
X4742360Y5322732D02*
X4763510Y5301582D01*
Y5141978D02*
Y5301582D01*
X4721362Y5099830D02*
X4763510Y5141978D01*
X4716960Y5312211D02*
X4738110Y5291061D01*
Y5152499D02*
Y5291061D01*
X4710841Y5125230D02*
X4738110Y5152499D01*
X4672279Y5125230D02*
X4710841D01*
X4661758Y5099830D02*
X4721362D01*
X4619610Y5141978D02*
X4661758Y5099830D01*
X4619610Y5141978D02*
Y5301582D01*
X4666160Y5312211D02*
Y5401340D01*
X4691560Y5221780D02*
Y5411861D01*
X4645010Y5291061D02*
X4666160Y5312211D01*
X4645010Y5152499D02*
Y5291061D01*
X2544449Y4619470D02*
X2697743D01*
X2535100Y4628819D02*
X2544449Y4619470D01*
X2535100Y4628819D02*
Y4983480D01*
X5382556Y4223417D02*
X5457557Y4148417D01*
X5283980Y4223417D02*
X5382556D01*
X2697743Y4619470D02*
X2744050Y4665777D01*
X2408100Y4571392D02*
X2418594Y4560898D01*
X2408100Y4571392D02*
Y4983480D01*
X2306500Y4545396D02*
X2316398Y4535498D01*
X2306500Y4545396D02*
Y4885549D01*
X2281100Y4534875D02*
X2305877Y4510098D01*
X3902517Y6071677D02*
X3935000Y6104160D01*
X5421066Y4483417D02*
X5571491D01*
X5283980D02*
X5421066D01*
X3170100Y4701420D02*
X3173000Y4698520D01*
X3170100Y4701420D02*
Y4983480D01*
X3424100Y4701420D02*
X3427000Y4698520D01*
X3424100Y4701420D02*
Y4983480D01*
X4645010Y5152499D02*
X4672279Y5125230D01*
X3631550Y5836699D02*
X3651645Y5816604D01*
X2306500Y4885549D02*
X2327650Y4906699D01*
X2408100Y5641547D02*
Y5913480D01*
Y5641547D02*
X2420827Y5628820D01*
X2382700Y5631026D02*
X2410306Y5603420D01*
X5283980Y4353417D02*
X5354180D01*
X5387523Y4386760D01*
X5875013Y3820340D02*
X5885360Y3830688D01*
Y4374361D01*
X5872961Y4386760D02*
X5885360Y4374361D01*
X5387523Y4386760D02*
X5872961D01*
X3996186Y5776780D02*
X4437560D01*
X4564560D01*
X4496475Y3883572D02*
X4707835D01*
X4723980Y3899717D01*
Y4028417D01*
X5283980Y4613417D02*
Y4813480D01*
X5294140Y4823640D01*
X4496475Y3375572D02*
X4555125Y3434222D01*
X4242475Y3375572D02*
Y3454368D01*
X4247729Y3459622D01*
X4242475Y3492274D02*
Y3629572D01*
Y3492274D02*
X4249727Y3485022D01*
X5072560Y5776780D02*
Y5932853D01*
X5083062Y5943355D01*
X4934546Y4613417D02*
X4945560Y4624431D01*
Y5221780D01*
X5083062Y5943355D02*
X5957724D01*
X6150790Y5750289D01*
X4996112Y2997380D02*
X5066423Y3067691D01*
X5041023Y4126623D02*
X5064940Y4150540D01*
X5015623Y4137144D02*
X5054419Y4175940D01*
X4990223Y4147665D02*
X5043898Y4201340D01*
X4964823Y4158186D02*
X5033377Y4226740D01*
X4383443Y3510422D02*
X4954077D01*
X4964823Y3521168D01*
Y4158186D01*
X4964598Y3485022D02*
X4990223Y3510647D01*
X4975119Y3459622D02*
X5015623Y3500126D01*
X4985640Y3434222D02*
X5041023Y3489605D01*
X4249727Y3485022D02*
X4964598D01*
X4990223Y3510647D02*
Y4147665D01*
X4247729Y3459622D02*
X4975119D01*
X5015623Y3500126D02*
Y4137144D01*
X4555125Y3434222D02*
X4985640D01*
X5041023Y3489605D02*
Y4126623D01*
X5066423Y3067691D02*
Y3809123D01*
X5077640Y3820340D01*
X5875013D01*
X5294140Y4823640D02*
X6141900D01*
X6150790Y4832530D01*
Y5750289D01*
X3935000Y6104160D02*
Y6222520D01*
X3579937Y6071677D02*
X3902517D01*
X2382700Y5631026D02*
Y5812356D01*
X2361550Y5833506D02*
X2382700Y5812356D01*
X2361550Y5833506D02*
Y5990262D01*
X2281100Y4534875D02*
Y4983480D01*
X2327650Y4906699D02*
Y5060262D01*
X2281100Y5106811D02*
X2327650Y5060262D01*
X2281100Y5106811D02*
Y5913480D01*
X2662100Y4983480D02*
Y5586320D01*
X2645000Y5603420D02*
X2662100Y5586320D01*
X2410306Y5603420D02*
X2645000D01*
X2687500Y5081411D02*
Y5586415D01*
X2704505Y5603420D01*
X2887885D01*
X2916100Y5631635D01*
Y5913480D01*
X2776400Y5094111D02*
Y5519961D01*
X2803939Y5547500D01*
X3398660D01*
X3411400Y5560240D01*
Y5802849D01*
X3377550Y5836699D02*
X3411400Y5802849D01*
X2420827Y5628820D02*
X2877364D01*
X2890700Y5642156D01*
Y5815549D01*
X2869550Y5836699D02*
X2890700Y5815549D01*
X2361550Y5990262D02*
X2388819Y6017530D01*
X2460010D01*
X2665000Y6222520D01*
X2869550Y5836699D02*
Y5990262D01*
X2896819Y6017530D01*
X2988260D01*
X2996550Y6009240D01*
Y5836699D02*
Y6009240D01*
Y5836699D02*
X3023819Y5809430D01*
X3062381D01*
X3377550Y5836699D02*
Y5990262D01*
X3551100Y5913480D02*
Y6042840D01*
X3579937Y6071677D01*
X3631550Y5836699D02*
Y5990262D01*
X3658819Y6017530D01*
X3847155D01*
X3856185Y6008499D01*
Y5776780D02*
Y6008499D01*
X4667641Y5435780D02*
X4691560Y5411861D01*
X4657120Y5410380D02*
X4666160Y5401340D01*
X4633280Y5384980D02*
X4640760Y5377500D01*
X3678100Y5444400D02*
X3686720Y5435780D01*
X4667641D01*
X3644060D02*
X3651645Y5443365D01*
Y5816604D01*
X2916100Y4983480D02*
Y5375174D01*
X2976706Y5435780D01*
X3644060D01*
X2941500Y5081411D02*
Y5364653D01*
X2987227Y5410380D01*
X2966900Y5091932D02*
Y5354132D01*
X2997748Y5384980D01*
X4633280D01*
X2987227Y5410380D02*
X4657120D01*
X3377550Y5990262D02*
X3427000Y6039711D01*
Y6222520D01*
X3452771Y6136498D02*
X3538794Y6222520D01*
X3681000D01*
X2919000D02*
X3025404D01*
X3043100Y5913480D02*
Y6204824D01*
X3025404Y6222520D02*
X3043100Y6204824D01*
X3062381Y5809430D02*
X3089650Y5836699D01*
Y5990262D01*
X3068500Y6011411D02*
X3089650Y5990262D01*
X3068500Y6011411D02*
Y6209280D01*
X3081740Y6222520D01*
X3173000D01*
D24*
X1670560Y277040D02*
X4929380D01*
X4650053Y1367567D02*
X4929380Y1088240D01*
X3886695Y1367567D02*
X4650053D01*
X4929380Y777040D02*
Y1088240D01*
X3386673Y2117567D02*
X3386715Y1367567D01*
X3670860Y777040D02*
X4296160D01*
X3386695Y1061205D02*
X3670860Y777040D01*
X3386695Y1061205D02*
Y1366720D01*
X3386715Y1366700D02*
Y1367567D01*
X1670560Y777040D02*
X2296160D01*
X3886695Y1367567D02*
Y2117567D01*
X2296160Y777040D02*
X2796160D01*
D25*
X2841286Y4036953D02*
X2933880D01*
X2659560D02*
X2841286D01*
X2143315D02*
X2659560D01*
X2143315D02*
Y4302625D01*
X1736827Y4036953D02*
X2143315D01*
X1709175Y4064605D02*
X1736827Y4036953D01*
X1709175Y4064605D02*
Y4845631D01*
D26*
X4539160Y4288417D02*
X4723980D01*
D27*
X5837495Y2910700D02*
X5882820D01*
X5788840Y2690700D02*
X5837495D01*
D28*
X3386695Y2117567D02*
D03*
Y1367567D02*
D03*
X3886695Y2117567D02*
D03*
Y1367567D02*
D03*
X5886695D02*
D03*
Y2117567D02*
D03*
X2296160Y777040D02*
D03*
X2796160D02*
D03*
X3796160D02*
D03*
X4296160D02*
D03*
X5964100Y5701102D02*
D03*
Y5001102D02*
D03*
D29*
X2143315Y4302625D02*
D03*
X603315D02*
D03*
X1623315Y1362625D02*
D03*
X1123315D02*
D03*
D30*
X603315Y4725211D02*
D03*
Y4979211D02*
D03*
Y5233211D02*
D03*
Y5487211D02*
D03*
Y5741211D02*
D03*
X4245015Y2867572D02*
D03*
X4499015D02*
D03*
X4496475Y3883572D02*
D03*
Y3629572D02*
D03*
Y3375572D02*
D03*
Y3121572D02*
D03*
X4242475D02*
D03*
Y3375572D02*
D03*
Y3629572D02*
D03*
Y3883572D02*
D03*
D31*
X4929380Y777040D02*
D03*
Y277040D02*
D03*
Y-222960D02*
D03*
X1670560D02*
D03*
Y277040D02*
D03*
Y777040D02*
D03*
X3049980Y4256100D02*
D03*
X3549980D02*
D03*
X3299980D02*
D03*
X3049980Y2806100D02*
D03*
X3549980D02*
D03*
D32*
X3899980Y3506100D02*
D03*
D33*
X2699980D02*
D03*
D34*
X5600000Y-200000D02*
D03*
X6000000D02*
D03*
X1000040D02*
D03*
X600040D02*
D03*
D35*
X3935000Y6222520D02*
D03*
X3681000D02*
D03*
X3427000D02*
D03*
X3173000D02*
D03*
X2919000D02*
D03*
X2665000D02*
D03*
Y4698520D02*
D03*
X2919000D02*
D03*
X3173000D02*
D03*
X3427000D02*
D03*
X3681000D02*
D03*
X3935000D02*
D03*
D36*
X5418473Y3506100D02*
D03*
D37*
X5164473D02*
D03*
D38*
X0Y6600000D02*
D03*
X6600000D02*
D03*
X6600000Y0D02*
D03*
X0D02*
D03*
D39*
X3311524Y4636900D02*
D03*
X4595548Y4693417D02*
D03*
X3706040Y4143389D02*
D03*
X2781083Y4300400D02*
D03*
X2540180D02*
D03*
X2660469Y4396852D02*
D03*
X3459215Y3142380D02*
D03*
X4619876Y4143417D02*
D03*
X5834560Y4483280D02*
D03*
X5421066Y4694100D02*
D03*
X5199560Y5107286D02*
D03*
X4105460Y4193417D02*
D03*
X3941723Y4193289D02*
D03*
X4633140Y4353417D02*
D03*
X4539160Y4072932D02*
D03*
X4460260Y4143417D02*
D03*
X5189400Y4028417D02*
D03*
X5379900Y4028620D02*
D03*
X5691170Y4483417D02*
D03*
X5761491Y4562020D02*
D03*
X5760470Y4003417D02*
D03*
X3311524Y4475660D02*
D03*
X2662100Y5786300D02*
D03*
Y6047920D02*
D03*
X3297100Y5783126D02*
D03*
X637720Y4495480D02*
D03*
X722439Y4336183D02*
D03*
Y4261053D02*
D03*
X724080Y4402000D02*
D03*
X722439Y4193720D02*
D03*
X637720Y4111036D02*
D03*
X569140Y4495480D02*
D03*
X1677636Y5192837D02*
D03*
X1855436Y5516486D02*
D03*
Y5439217D02*
D03*
X1565876Y5516486D02*
D03*
Y5439217D02*
D03*
X1677636Y5750740D02*
D03*
X1745160D02*
D03*
Y5192837D02*
D03*
X4437560Y5107286D02*
D03*
Y5336720D02*
D03*
X4818560D02*
D03*
Y5107286D02*
D03*
X4292560Y5890440D02*
D03*
X4945560Y5895520D02*
D03*
Y5656760D02*
D03*
X4818475Y4353417D02*
D03*
X569140Y4111036D02*
D03*
X5199560Y5336720D02*
D03*
X3380920Y4556016D02*
D03*
X3297100Y6040300D02*
D03*
X4216580Y5975105D02*
D03*
%TF.MD5,fa3f716d26862c26225e71605dea1031*%
M02*
