G04*
G04 #@! TF.GenerationSoftware,Altium Limited,Altium Designer,20.1.8 (145)*
G04*
G04 Layer_Physical_Order=1*
G04 Layer_Color=255*
%FSTAX44Y44*%
%MOMM*%
G71*
G04*
G04 #@! TF.SameCoordinates,DC15EA94-BF22-4E2A-AF2D-E9AD43B57FBB*
G04*
G04*
G04 #@! TF.FilePolarity,Positive*
G04*
G01*
G75*
%ADD15C,0.2540*%
%ADD17C,0.1524*%
G04:AMPARAMS|DCode=18|XSize=0.35mm|YSize=0.7mm|CornerRadius=0.0018mm|HoleSize=0mm|Usage=FLASHONLY|Rotation=0.000|XOffset=0mm|YOffset=0mm|HoleType=Round|Shape=RoundedRectangle|*
%AMROUNDEDRECTD18*
21,1,0.3500,0.6965,0,0,0.0*
21,1,0.3465,0.7000,0,0,0.0*
1,1,0.0035,0.1733,-0.3483*
1,1,0.0035,-0.1733,-0.3483*
1,1,0.0035,-0.1733,0.3483*
1,1,0.0035,0.1733,0.3483*
%
%ADD18ROUNDEDRECTD18*%
G04:AMPARAMS|DCode=19|XSize=0.85mm|YSize=0.65mm|CornerRadius=0.0033mm|HoleSize=0mm|Usage=FLASHONLY|Rotation=180.000|XOffset=0mm|YOffset=0mm|HoleType=Round|Shape=RoundedRectangle|*
%AMROUNDEDRECTD19*
21,1,0.8500,0.6435,0,0,180.0*
21,1,0.8435,0.6500,0,0,180.0*
1,1,0.0065,-0.4218,0.3218*
1,1,0.0065,0.4218,0.3218*
1,1,0.0065,0.4218,-0.3218*
1,1,0.0065,-0.4218,-0.3218*
%
%ADD19ROUNDEDRECTD19*%
G04:AMPARAMS|DCode=20|XSize=0.8mm|YSize=0.7mm|CornerRadius=0.0035mm|HoleSize=0mm|Usage=FLASHONLY|Rotation=90.000|XOffset=0mm|YOffset=0mm|HoleType=Round|Shape=RoundedRectangle|*
%AMROUNDEDRECTD20*
21,1,0.8000,0.6930,0,0,90.0*
21,1,0.7930,0.7000,0,0,90.0*
1,1,0.0070,0.3465,0.3965*
1,1,0.0070,0.3465,-0.3965*
1,1,0.0070,-0.3465,-0.3965*
1,1,0.0070,-0.3465,0.3965*
%
%ADD20ROUNDEDRECTD20*%
G04:AMPARAMS|DCode=21|XSize=0.55mm|YSize=0.7mm|CornerRadius=0.0028mm|HoleSize=0mm|Usage=FLASHONLY|Rotation=180.000|XOffset=0mm|YOffset=0mm|HoleType=Round|Shape=RoundedRectangle|*
%AMROUNDEDRECTD21*
21,1,0.5500,0.6945,0,0,180.0*
21,1,0.5445,0.7000,0,0,180.0*
1,1,0.0055,-0.2723,0.3473*
1,1,0.0055,0.2723,0.3473*
1,1,0.0055,0.2723,-0.3473*
1,1,0.0055,-0.2723,-0.3473*
%
%ADD21ROUNDEDRECTD21*%
G04:AMPARAMS|DCode=22|XSize=0.8mm|YSize=0.7mm|CornerRadius=0.0035mm|HoleSize=0mm|Usage=FLASHONLY|Rotation=0.000|XOffset=0mm|YOffset=0mm|HoleType=Round|Shape=RoundedRectangle|*
%AMROUNDEDRECTD22*
21,1,0.8000,0.6930,0,0,0.0*
21,1,0.7930,0.7000,0,0,0.0*
1,1,0.0070,0.3965,-0.3465*
1,1,0.0070,-0.3965,-0.3465*
1,1,0.0070,-0.3965,0.3465*
1,1,0.0070,0.3965,0.3465*
%
%ADD22ROUNDEDRECTD22*%
%ADD23O,0.5500X1.7000*%
%ADD24O,0.5500X1.5500*%
%ADD25O,1.1500X0.4000*%
%ADD26O,0.8500X0.5500*%
G04:AMPARAMS|DCode=27|XSize=0.85mm|YSize=0.65mm|CornerRadius=0.0033mm|HoleSize=0mm|Usage=FLASHONLY|Rotation=90.000|XOffset=0mm|YOffset=0mm|HoleType=Round|Shape=RoundedRectangle|*
%AMROUNDEDRECTD27*
21,1,0.8500,0.6435,0,0,90.0*
21,1,0.8435,0.6500,0,0,90.0*
1,1,0.0065,0.3218,0.4218*
1,1,0.0065,0.3218,-0.4218*
1,1,0.0065,-0.3218,-0.4218*
1,1,0.0065,-0.3218,0.4218*
%
%ADD27ROUNDEDRECTD27*%
G04:AMPARAMS|DCode=28|XSize=1.75mm|YSize=4.55mm|CornerRadius=0.0088mm|HoleSize=0mm|Usage=FLASHONLY|Rotation=180.000|XOffset=0mm|YOffset=0mm|HoleType=Round|Shape=RoundedRectangle|*
%AMROUNDEDRECTD28*
21,1,1.7500,4.5325,0,0,180.0*
21,1,1.7325,4.5500,0,0,180.0*
1,1,0.0175,-0.8663,2.2663*
1,1,0.0175,0.8663,2.2663*
1,1,0.0175,0.8663,-2.2663*
1,1,0.0175,-0.8663,-2.2663*
%
%ADD28ROUNDEDRECTD28*%
G04:AMPARAMS|DCode=29|XSize=1.65mm|YSize=1.05mm|CornerRadius=0.0053mm|HoleSize=0mm|Usage=FLASHONLY|Rotation=180.000|XOffset=0mm|YOffset=0mm|HoleType=Round|Shape=RoundedRectangle|*
%AMROUNDEDRECTD29*
21,1,1.6500,1.0395,0,0,180.0*
21,1,1.6395,1.0500,0,0,180.0*
1,1,0.0105,-0.8198,0.5198*
1,1,0.0105,0.8198,0.5198*
1,1,0.0105,0.8198,-0.5198*
1,1,0.0105,-0.8198,-0.5198*
%
%ADD29ROUNDEDRECTD29*%
%ADD51C,5.0000*%
%ADD53C,0.1270*%
%ADD54C,2.5000*%
%ADD55C,0.5080*%
%ADD56C,0.1778*%
%ADD57C,2.0000*%
%ADD58C,1.3000*%
%ADD59C,1.8000*%
%ADD60O,3.5000X5.0000*%
G04:AMPARAMS|DCode=61|XSize=3.5mm|YSize=5mm|CornerRadius=1.75mm|HoleSize=0mm|Usage=FLASHONLY|Rotation=0.000|XOffset=0mm|YOffset=0mm|HoleType=Round|Shape=RoundedRectangle|*
%AMROUNDEDRECTD61*
21,1,3.5000,1.5000,0,0,0.0*
21,1,0.0000,5.0000,0,0,0.0*
1,1,3.5000,0.0000,-0.7500*
1,1,3.5000,0.0000,-0.7500*
1,1,3.5000,0.0000,0.7500*
1,1,3.5000,0.0000,0.7500*
%
%ADD61ROUNDEDRECTD61*%
%ADD62O,2.2000X4.2000*%
%ADD63C,1.2000*%
G04:AMPARAMS|DCode=64|XSize=1.58mm|YSize=1.58mm|CornerRadius=0.158mm|HoleSize=0mm|Usage=FLASHONLY|Rotation=270.000|XOffset=0mm|YOffset=0mm|HoleType=Round|Shape=RoundedRectangle|*
%AMROUNDEDRECTD64*
21,1,1.5800,1.2640,0,0,270.0*
21,1,1.2640,1.5800,0,0,270.0*
1,1,0.3160,-0.6320,-0.6320*
1,1,0.3160,-0.6320,0.6320*
1,1,0.3160,0.6320,0.6320*
1,1,0.3160,0.6320,-0.6320*
%
%ADD64ROUNDEDRECTD64*%
%ADD65C,1.5800*%
%ADD66O,1.5000X3.0000*%
%ADD67C,0.4100*%
G36*
X10436953Y10676125D02*
X10437101Y10675702D01*
X1043675Y10675048D01*
X10436335Y10673677D01*
X10436195Y10672252D01*
X10436335Y10670826D01*
X1043675Y10669457D01*
X10437426Y10668193D01*
X10438335Y10667086D01*
X10439441Y10666178D01*
X10440704Y10665503D01*
X10441558Y10665244D01*
Y10661221D01*
X10439447Y1065911D01*
X10407993D01*
X10407251Y10658962D01*
X1040662Y10658541D01*
X10403737Y10655658D01*
X10403315Y10655027D01*
X10403168Y10654283D01*
Y10650645D01*
X10403082Y10650609D01*
X10402242Y10649965D01*
X10401599Y10649126D01*
X10401194Y10648147D01*
X10401056Y10647098D01*
Y10635598D01*
X10401194Y10634548D01*
X10401599Y10633571D01*
X10402242Y10632731D01*
X10403082Y10632086D01*
X1040406Y10631681D01*
X1040511Y10631543D01*
X1040616Y10631681D01*
X10407137Y10632086D01*
X10407977Y10632731D01*
X10408622Y10633571D01*
X10409027Y10634548D01*
X10409165Y10635598D01*
Y10647098D01*
X10409027Y10648147D01*
X10408622Y10649126D01*
X10407977Y10649965D01*
X10407137Y10650609D01*
X10407052Y10650645D01*
Y10653479D01*
X10408798Y10655226D01*
X10440251D01*
X10440995Y10655374D01*
X10441625Y10655795D01*
X10444873Y10659043D01*
X10445294Y10659673D01*
X10445442Y10660416D01*
Y10665244D01*
X10446295Y10665503D01*
X10447559Y10666178D01*
X10448666Y10667086D01*
X10449574Y10668193D01*
X10450249Y10669457D01*
X10450665Y10670826D01*
X10450806Y10672252D01*
X10450693Y10673385D01*
X10451299Y10673998D01*
X10451815Y10674259D01*
X10454479Y10672999D01*
X10458179Y10671676D01*
X10461991Y1067072D01*
X10465879Y10670144D01*
X10469805Y10669951D01*
X10626683Y10669951D01*
X10645361Y10651273D01*
X10644875Y106501D01*
X10498302D01*
Y10651729D01*
X10498201Y10652236D01*
X10497913Y10652667D01*
X10497482Y10652955D01*
X10496974Y10653055D01*
X10490538D01*
X10490031Y10652955D01*
X104896Y10652667D01*
X10489312Y10652236D01*
X1048921Y10651729D01*
Y10643293D01*
X10489312Y10642784D01*
X104896Y10642354D01*
X10490031Y10642067D01*
X10490538Y10641965D01*
X10491166D01*
Y10635758D01*
X10490889Y10635546D01*
X10490244Y10634706D01*
X1048984Y10633727D01*
X10489701Y10632678D01*
Y1062962D01*
X10454414D01*
Y10631643D01*
X10454313Y10632152D01*
X10454025Y10632584D01*
X10453593Y10632872D01*
X10453083Y10632974D01*
X10446154D01*
X10445645Y10632872D01*
X10445212Y10632584D01*
X10444924Y10632152D01*
X10444823Y10631643D01*
Y10623713D01*
X10444924Y10623204D01*
X10445212Y10622772D01*
X10445645Y10622484D01*
X10446154Y10622383D01*
X10453083D01*
X10453593Y10622484D01*
X10454025Y10622772D01*
X10454313Y10623204D01*
X10454414Y10623713D01*
Y10625736D01*
X10489701D01*
Y10622678D01*
X1048984Y10621628D01*
X10490244Y10620651D01*
X10490889Y10619811D01*
X10491729Y10619166D01*
X10492706Y10618761D01*
X10493756Y10618623D01*
X10494806Y10618761D01*
X10495784Y10619166D01*
X10496624Y10619811D01*
X10497267Y10620651D01*
X10497672Y10621628D01*
X10497811Y10622678D01*
Y10625736D01*
X10502401D01*
Y10622678D01*
X10502539Y10621628D01*
X10502944Y10620651D01*
X10503589Y10619811D01*
X10504429Y10619166D01*
X10505406Y10618761D01*
X10506456Y10618623D01*
X10507505Y10618761D01*
X10508484Y10619166D01*
X10509323Y10619811D01*
X10509967Y10620651D01*
X10510372Y10621628D01*
X1051051Y10622678D01*
Y10632678D01*
X10510372Y10633727D01*
X10509967Y10634706D01*
X10509323Y10635546D01*
X10508484Y10636189D01*
X10507505Y10636594D01*
X10506456Y10636732D01*
X10505406Y10636594D01*
X10504429Y10636189D01*
X10503589Y10635546D01*
X10502944Y10634706D01*
X10502539Y10633727D01*
X10502401Y10632678D01*
Y1062962D01*
X10497811D01*
Y10632678D01*
X10497672Y10633727D01*
X10497267Y10634706D01*
X10496624Y10635546D01*
X10496345Y10635758D01*
Y10641965D01*
X10496974D01*
X10497482Y10642067D01*
X10497913Y10642354D01*
X10498201Y10642784D01*
X10498302Y10643293D01*
Y10644921D01*
X1055453D01*
X10554794Y10644669D01*
X10555387Y10643651D01*
X10555314Y10643285D01*
Y10636224D01*
X10555228Y10636189D01*
X10554388Y10635546D01*
X10553745Y10634706D01*
X1055334Y10633727D01*
X10553202Y10632678D01*
Y10622678D01*
X1055334Y10621628D01*
X10553745Y10620651D01*
X10554388Y10619811D01*
X10555228Y10619166D01*
X10556206Y10618761D01*
X10557256Y10618623D01*
X10558306Y10618761D01*
X10559283Y10619166D01*
X10560123Y10619811D01*
X10560768Y10620651D01*
X10561173Y10621628D01*
X10561311Y10622678D01*
Y10632678D01*
X10561173Y10633727D01*
X10560768Y10634706D01*
X10560123Y10635546D01*
X10559283Y10636189D01*
X10559198Y10636224D01*
Y10642394D01*
X10644968D01*
X10663137Y10624225D01*
Y10534307D01*
X10579414D01*
X10579414Y10534307D01*
X10578671Y10534159D01*
X10578041Y10533738D01*
X10578041Y10533738D01*
X10577025Y10532721D01*
X10576604Y10532091D01*
X10576456Y10531348D01*
Y1051464D01*
X10574648D01*
X10573794Y10514528D01*
X10572999Y10514198D01*
X10572316Y10513674D01*
X10571792Y10512991D01*
X10571462Y10512195D01*
X1057135Y10511342D01*
X10571462Y10510488D01*
X10571792Y10509692D01*
X10572316Y1050901D01*
X10572506Y10508864D01*
X10572585Y10508673D01*
Y1050751D01*
X10572506Y10507319D01*
X10572316Y10507174D01*
X10571792Y1050649D01*
X10571462Y10505696D01*
X1057135Y10504841D01*
X10571462Y10503988D01*
X10571792Y10503192D01*
X10572316Y1050251D01*
X10572505Y10502365D01*
X10572585Y10502174D01*
Y1050101D01*
X10572505Y10500819D01*
X10572316Y10500674D01*
X10571792Y1049999D01*
X10571462Y10499196D01*
X1057135Y10498342D01*
X10571462Y10497488D01*
X10571792Y10496693D01*
X10572316Y1049601D01*
X10572506Y10495864D01*
X10572585Y10495674D01*
Y10494509D01*
X10572506Y10494319D01*
X10572316Y10494174D01*
X10571792Y10493491D01*
X10571462Y10492695D01*
X1057135Y10491842D01*
X10571462Y10490988D01*
X10571792Y10490193D01*
X10572316Y10489509D01*
X10572505Y10489364D01*
X10572585Y10489174D01*
Y1048801D01*
X10572505Y1048782D01*
X10572316Y10487673D01*
X10571792Y10486991D01*
X10571462Y10486195D01*
X1057135Y10485342D01*
X10571462Y10484489D01*
X10571792Y10483693D01*
X10572316Y10483009D01*
X10572336Y10482993D01*
X10572444Y10481666D01*
X10571616Y10480784D01*
X10571378D01*
X10571378Y10480784D01*
X10570635Y10480636D01*
X10570005Y10480215D01*
X10569598Y1047981D01*
X10569177Y10479178D01*
X1056903Y10478436D01*
Y10476309D01*
X10567338Y10474617D01*
X10553337D01*
X10552594Y10474469D01*
X10551964Y10474048D01*
X10545109Y10467192D01*
X10544688Y10466562D01*
X1054454Y10465819D01*
Y10402985D01*
X10489192D01*
Y10433671D01*
X10489642Y10434344D01*
X1048984Y10435336D01*
Y10438357D01*
Y10476252D01*
X1049837D01*
Y10475624D01*
X10498472Y10475116D01*
X1049876Y10474685D01*
X10499191Y10474397D01*
X10499698Y10474296D01*
X10508134D01*
X10508641Y10474397D01*
X10509072Y10474685D01*
X1050936Y10475116D01*
X10509462Y10475624D01*
Y10476641D01*
X10516216D01*
X10516316Y1047651D01*
X10516505Y10476364D01*
X10516586Y10476173D01*
Y1047501D01*
X10516505Y10474819D01*
X10516316Y10474674D01*
X10515792Y1047399D01*
X10515463Y10473196D01*
X1051535Y10472341D01*
X10515463Y10471488D01*
X10515792Y10470692D01*
X10516316Y1047001D01*
X10516505Y10469865D01*
X10516586Y10469674D01*
Y1046851D01*
X10516505Y10468319D01*
X10516316Y10468174D01*
X10515792Y1046749D01*
X10515463Y10466696D01*
X1051535Y10465842D01*
X10515463Y10464988D01*
X10515792Y10464193D01*
X10516316Y1046351D01*
X10516505Y10463364D01*
X10516586Y10463174D01*
Y10462009D01*
X10516505Y10461819D01*
X10516316Y10461674D01*
X10515792Y10460991D01*
X10515463Y10460195D01*
X1051535Y10459342D01*
X10515463Y10458488D01*
X10515792Y10457693D01*
X10516316Y10457009D01*
X10516505Y10456864D01*
X10516586Y10456674D01*
Y1045551D01*
X10516505Y1045532D01*
X10516316Y10455173D01*
X10515792Y10454491D01*
X10515463Y10453695D01*
X1051535Y10452842D01*
X10515463Y10451989D01*
X10515792Y10451193D01*
X10516316Y10450509D01*
X10516998Y10449985D01*
X10517794Y10449656D01*
X10518647Y10449543D01*
X10520455D01*
Y10440776D01*
X10519979Y10440299D01*
X10507178D01*
X1050686Y10441345D01*
X10506139Y10442695D01*
X10505168Y10443878D01*
X10503986Y10444849D01*
X10502635Y1044557D01*
X10501171Y10446014D01*
X10499647Y10446165D01*
X10498124Y10446014D01*
X1049666Y1044557D01*
X1049531Y10444849D01*
X10494127Y10443878D01*
X10493156Y10442695D01*
X10492434Y10441345D01*
X1049199Y1043988D01*
X1049184Y10438357D01*
X1049199Y10436833D01*
X10492434Y1043537D01*
X10493156Y1043402D01*
X10494127Y10432837D01*
X1049531Y10431865D01*
X1049666Y10431144D01*
X10498124Y10430699D01*
X10499647Y10430549D01*
X10501171Y10430699D01*
X10502635Y10431144D01*
X10503986Y10431865D01*
X10505168Y10432837D01*
X10506139Y1043402D01*
X1050686Y1043537D01*
X10507178Y10436415D01*
X10520784D01*
X10521527Y10436562D01*
X10522157Y10436984D01*
X10523772Y10438599D01*
X10524192Y10439229D01*
X10524341Y10439972D01*
Y10449543D01*
X10526147D01*
X10526907Y10449644D01*
X10527036Y1044963D01*
X10528176Y10448768D01*
Y10415133D01*
X10527943Y104149D01*
X10507178D01*
X1050686Y10415945D01*
X10506139Y10417295D01*
X10505168Y10418478D01*
X10503986Y10419449D01*
X10502635Y10420171D01*
X10501171Y10420615D01*
X10499647Y10420764D01*
X10498124Y10420615D01*
X1049666Y10420171D01*
X1049531Y10419449D01*
X10494127Y10418478D01*
X10493156Y10417295D01*
X10492434Y10415945D01*
X1049199Y1041448D01*
X1049184Y10412958D01*
X1049199Y10411434D01*
X10492434Y10409969D01*
X10493156Y10408619D01*
X10494127Y10407437D01*
X1049531Y10406465D01*
X1049666Y10405743D01*
X10498124Y10405299D01*
X10499647Y1040515D01*
X10501171Y10405299D01*
X10502635Y10405743D01*
X10503986Y10406465D01*
X10505168Y10407437D01*
X10506139Y10408619D01*
X1050686Y10409969D01*
X10507178Y10411014D01*
X10528748D01*
X10529491Y10411162D01*
X10530121Y10411583D01*
X10531493Y10412955D01*
X10531914Y10413585D01*
X10532062Y10414329D01*
Y10458638D01*
X10531914Y10459381D01*
X10531493Y10460011D01*
X10530789Y10460715D01*
X10530159Y10461136D01*
X10529415Y10461284D01*
X10528779D01*
X1052848Y10461674D01*
X10528459Y10461689D01*
X10528353Y10463018D01*
X1052918Y10463899D01*
X10534729D01*
X10535472Y10464047D01*
X10536102Y10464468D01*
X10538684Y1046705D01*
X10539105Y10467681D01*
X10539253Y10468424D01*
X10539253Y10468424D01*
Y1049077D01*
X10540087Y10491604D01*
X10560127D01*
X1056087Y10491752D01*
X105615Y10492173D01*
X10562245Y10492916D01*
X10562666Y10493547D01*
X10562814Y1049429D01*
Y10548168D01*
X10635286D01*
X10635658Y10546616D01*
X10636338Y10544978D01*
X10637264Y10543466D01*
X10638417Y10542117D01*
X10639766Y10540964D01*
X10641278Y10540038D01*
X10642916Y10539359D01*
X10644641Y10538944D01*
X1064641Y10538805D01*
X10648179Y10538944D01*
X10649904Y10539359D01*
X10651542Y10540038D01*
X10653054Y10540964D01*
X10654404Y10542117D01*
X10655555Y10543466D01*
X10656483Y10544978D01*
X10657162Y10546616D01*
X10657576Y10548342D01*
X10657715Y1055011D01*
X10657576Y10551879D01*
X10657162Y10553604D01*
X10656483Y10555243D01*
X10655555Y10556755D01*
X10654404Y10558104D01*
X10653054Y10559257D01*
X10651542Y10560183D01*
X10649904Y10560862D01*
X10648179Y10561276D01*
X1064641Y10561415D01*
X10644641Y10561276D01*
X10642916Y10560862D01*
X10641278Y10560183D01*
X10639766Y10559257D01*
X10638417Y10558104D01*
X10637264Y10556755D01*
X10636338Y10555243D01*
X10635658Y10553604D01*
X10635286Y10552052D01*
X10561615D01*
X10560872Y10551904D01*
X10560242Y10551483D01*
X10559498Y1055074D01*
X10559077Y1055011D01*
X10558929Y10549366D01*
Y10495488D01*
X10539281D01*
X10538539Y10495341D01*
X10537908Y10494919D01*
X10535938Y10492949D01*
X10535516Y10492318D01*
X10535369Y10491575D01*
Y10469229D01*
X10533925Y10467784D01*
X10528779D01*
X1052848Y10468174D01*
X10528291Y10468319D01*
X1052821Y1046851D01*
Y10469674D01*
X10528291Y10469865D01*
X1052848Y1047001D01*
X10529004Y10470692D01*
X10529333Y10471488D01*
X10529446Y10472341D01*
X10529333Y10473196D01*
X10529004Y1047399D01*
X1052848Y10474674D01*
X10528291Y10474819D01*
X1052821Y1047501D01*
Y10476173D01*
X10528291Y10476364D01*
X1052848Y1047651D01*
X10529004Y10477192D01*
X10529333Y10477988D01*
X10529446Y10478842D01*
X10529333Y10479695D01*
X10529004Y10480491D01*
X1052848Y10481174D01*
X10528291Y1048132D01*
X1052821Y1048151D01*
Y10482673D01*
X10528291Y10482864D01*
X1052848Y10483009D01*
X10529004Y10483693D01*
X10529333Y10484489D01*
X10529363Y10484707D01*
X10515433D01*
X10515463Y10484489D01*
X10515792Y10483693D01*
X10516316Y10483009D01*
X10516178Y10481737D01*
X10515509Y10481042D01*
X10509462D01*
Y10482059D01*
X1050936Y10482567D01*
X10509072Y10482998D01*
X10508641Y10483286D01*
X10508134Y10483387D01*
X10499698D01*
X10499191Y10483286D01*
X1049876Y10482998D01*
X10498472Y10482567D01*
X1049837Y10482059D01*
Y10481432D01*
X10481376D01*
X10481163Y10481709D01*
X10480323Y10482354D01*
X10479346Y10482759D01*
X10478296Y10482897D01*
X10475295D01*
X10474247Y10482759D01*
X10473269Y10482354D01*
X10472429Y10481709D01*
X10471785Y10480869D01*
X10471379Y10479891D01*
X10471241Y10478842D01*
X10471379Y10477792D01*
X10471785Y10476814D01*
X10472429Y10475974D01*
X10473269Y1047533D01*
X10474247Y10474926D01*
X10475295Y10474788D01*
X10478296D01*
X10479346Y10474926D01*
X10480323Y1047533D01*
X10481163Y10475974D01*
X10481376Y10476252D01*
X10484659D01*
Y10440947D01*
X10481582D01*
X10481461Y10441345D01*
X1048074Y10442695D01*
X10479768Y10443878D01*
X10478585Y10444849D01*
X10477235Y1044557D01*
X1047577Y10446014D01*
X10474248Y10446165D01*
X10472725Y10446014D01*
X1047126Y1044557D01*
X1046991Y10444849D01*
X10468727Y10443878D01*
X10467755Y10442695D01*
X10467034Y10441345D01*
X10466589Y1043988D01*
X1046644Y10438357D01*
X10466589Y10436833D01*
X10467034Y1043537D01*
X10467755Y1043402D01*
X10468727Y10432837D01*
X1046991Y10431865D01*
X1047126Y10431144D01*
X10472725Y10430699D01*
X10474248Y10430549D01*
X1047577Y10430699D01*
X10477235Y10431144D01*
X10478585Y10431865D01*
X10479768Y10432837D01*
X1048074Y1043402D01*
X10481461Y1043537D01*
X10481582Y10435768D01*
X10484659D01*
Y10435336D01*
X10484857Y10434344D01*
X10485308Y10433671D01*
Y10402136D01*
X10485392Y10401715D01*
X1048485Y10400751D01*
X10484562Y10400444D01*
X1047619D01*
Y10405427D01*
X10477235Y10405743D01*
X10478585Y10406465D01*
X10479768Y10407437D01*
X1048074Y10408619D01*
X10481461Y10409969D01*
X10481906Y10411434D01*
X10482056Y10412958D01*
X10481906Y1041448D01*
X10481461Y10415945D01*
X1048074Y10417295D01*
X10479768Y10418478D01*
X10478585Y10419449D01*
X10477235Y10420171D01*
X1047577Y10420615D01*
X10474248Y10420764D01*
X10472725Y10420615D01*
X1047126Y10420171D01*
X1046991Y10419449D01*
X10468727Y10418478D01*
X10467755Y10417295D01*
X10467034Y10415945D01*
X10466589Y1041448D01*
X1046644Y10412958D01*
X10466589Y10411434D01*
X10467034Y10409969D01*
X10467755Y10408619D01*
X10468727Y10407437D01*
X1046991Y10406465D01*
X1047126Y10405743D01*
X10472305Y10405427D01*
Y10399227D01*
X10472452Y10398484D01*
X10472874Y10397854D01*
Y1039681D01*
X10472452Y1039618D01*
X10472305Y10395437D01*
Y10395088D01*
X1047126Y10394771D01*
X1046991Y10394049D01*
X10468727Y10393077D01*
X10467755Y10391895D01*
X10467034Y10390544D01*
X10466589Y10389081D01*
X1046644Y10387557D01*
X10466589Y10386034D01*
X10467034Y10384569D01*
X10467755Y10383219D01*
X10468727Y10382036D01*
X1046991Y10381066D01*
X1047126Y10380344D01*
X10472725Y103799D01*
X10474248Y1037975D01*
X1047577Y103799D01*
X10477235Y10380344D01*
X10478585Y10381066D01*
X10479768Y10382036D01*
X1048074Y10383219D01*
X10481461Y10384569D01*
X10481906Y10386034D01*
X10482056Y10387557D01*
X10481906Y10389081D01*
X10481461Y10390544D01*
X1048074Y10391895D01*
X10480038Y1039275D01*
X10480496Y1039402D01*
X104934D01*
X10493857Y1039275D01*
X10493156Y10391895D01*
X10492434Y10390544D01*
X1049199Y10389081D01*
X1049184Y10387557D01*
X1049199Y10386034D01*
X10492434Y10384569D01*
X10493156Y10383219D01*
X10494127Y10382036D01*
X1049531Y10381066D01*
X1049666Y10380344D01*
X10498124Y103799D01*
X10499647Y1037975D01*
X10501171Y103799D01*
X10502635Y10380344D01*
X10503986Y10381066D01*
X10505168Y10382036D01*
X10506139Y10383219D01*
X1050686Y10384569D01*
X10507305Y10386034D01*
X10507455Y10387557D01*
X10507305Y10389081D01*
X10506963Y1039021D01*
X10507611Y10391479D01*
X10548564D01*
X10549307Y10391627D01*
X10549938Y10392048D01*
X10553527Y10395638D01*
X105547Y10395153D01*
Y10357573D01*
X10548806Y10351681D01*
X10392841D01*
Y10352955D01*
X10392739Y10353463D01*
X10392451Y10353894D01*
X1039202Y10354182D01*
X10391512Y10354283D01*
X10383077D01*
X1038257Y10354182D01*
X10382139Y10353894D01*
X10381851Y10353463D01*
X10381749Y10352955D01*
Y10351681D01*
X10373794D01*
Y10353702D01*
X10373693Y10354213D01*
X10373403Y10354644D01*
X10372972Y10354933D01*
X10372463Y10355034D01*
X10365533D01*
X10365023Y10354933D01*
X10364592Y10354644D01*
X10364304Y10354213D01*
X10364203Y10353702D01*
Y10345773D01*
X10364304Y10345264D01*
X10364592Y10344832D01*
X10365023Y10344543D01*
X10365533Y10344442D01*
X10372463D01*
X10372972Y10344543D01*
X10373403Y10344832D01*
X10373693Y10345264D01*
X10373794Y10345773D01*
Y10347795D01*
X10381749D01*
Y10346521D01*
X10381851Y10346012D01*
X10382139Y10345581D01*
X1038257Y10345294D01*
X10383077Y10345193D01*
X10391512D01*
X1039202Y10345294D01*
X10392451Y10345581D01*
X10392739Y10346012D01*
X10392841Y10346521D01*
Y10347795D01*
X10549611D01*
X10550354Y10347943D01*
X10550985Y10348364D01*
X10558015Y10355396D01*
X10558015Y10355396D01*
X10558436Y10356025D01*
X10558585Y10356769D01*
X10558585Y10356769D01*
Y10393734D01*
X10559855Y10394188D01*
X10559932Y10394094D01*
X10561328Y10392948D01*
X10562921Y10392097D01*
X10563857Y10391813D01*
Y1032166D01*
X10477091D01*
Y10329423D01*
X10477489Y10329543D01*
X10478839Y10330265D01*
X10480022Y10331237D01*
X10480994Y10332419D01*
X10481715Y1033377D01*
X10482159Y10335234D01*
X1048231Y10336757D01*
X10482159Y1033828D01*
X10481715Y10339745D01*
X10480994Y10341095D01*
X10480022Y10342278D01*
X10478839Y10343248D01*
X10477489Y10343971D01*
X10476024Y10344415D01*
X10474502Y10344564D01*
X10472979Y10344415D01*
X10471514Y10343971D01*
X10470164Y10343248D01*
X10468981Y10342278D01*
X1046801Y10341095D01*
X10467288Y10339745D01*
X10466844Y1033828D01*
X10466694Y10336757D01*
X10466844Y10335234D01*
X10467288Y1033377D01*
X1046801Y10332419D01*
X10468981Y10331237D01*
X10470164Y10330265D01*
X10471514Y10329543D01*
X10471912Y10329423D01*
Y1032166D01*
X10412283D01*
X10411829Y1032293D01*
X10412295Y10323313D01*
X10413579Y10324877D01*
X10414532Y10326661D01*
X1041496Y1032807D01*
X10395037D01*
X10395464Y10326661D01*
X10396417Y10324877D01*
X10397701Y10323313D01*
X10398168Y1032293D01*
X10397714Y1032166D01*
X10362283D01*
X10361829Y1032293D01*
X10362295Y10323313D01*
X10363579Y10324877D01*
X10364532Y10326661D01*
X1036512Y10328596D01*
X10365317Y1033061D01*
X1036512Y10332623D01*
X10364532Y10334559D01*
X10363579Y10336343D01*
X10362295Y10337906D01*
X10360731Y10339191D01*
X10358948Y10340144D01*
X10357012Y10340731D01*
X1035694Y10340739D01*
Y10344442D01*
X10358463D01*
X10358972Y10344543D01*
X10359404Y10344832D01*
X10359692Y10345264D01*
X10359794Y10345773D01*
Y10353702D01*
X10359692Y10354213D01*
X10359404Y10354644D01*
X10358972Y10354933D01*
X10358463Y10355034D01*
X10351533D01*
X10351024Y10354933D01*
X10350592Y10354644D01*
X10350304Y10354213D01*
X10350203Y10353702D01*
Y10345773D01*
X10350304Y10345264D01*
X10350592Y10344832D01*
X10351024Y10344543D01*
X10351533Y10344442D01*
X10353055D01*
Y10340739D01*
X10352985Y10340731D01*
X10351049Y10340144D01*
X10349265Y10339191D01*
X10347701Y10337906D01*
X10347247Y10337355D01*
X10345978Y10337809D01*
Y1045088D01*
X10346105Y10450978D01*
X10346204Y10451106D01*
X10435247D01*
X10436238Y10451302D01*
X10437078Y10451864D01*
X10440215Y10455001D01*
X10440776Y10455842D01*
X10440974Y10456832D01*
Y10457899D01*
X1044725D01*
X10447284Y10457814D01*
X10447928Y10456975D01*
X10448768Y10456331D01*
X10449746Y10455925D01*
X10450796Y10455787D01*
X10453796D01*
X10454845Y10455925D01*
X10455824Y10456331D01*
X10456663Y10456975D01*
X10457307Y10457814D01*
X10457712Y10458793D01*
X1045785Y10459841D01*
X10457712Y10460891D01*
X10457307Y10461869D01*
X10456663Y10462709D01*
X10455824Y10463353D01*
X10454845Y10463759D01*
X10453796Y10463896D01*
X10450796D01*
X10449746Y10463759D01*
X10448768Y10463353D01*
X10447928Y10462709D01*
X10447284Y10461869D01*
X1044725Y10461783D01*
X10440974D01*
Y10476235D01*
X1044099Y10476252D01*
X10447716D01*
X10447928Y10475974D01*
X10448768Y1047533D01*
X10449746Y10474926D01*
X10450796Y10474788D01*
X10453796D01*
X10454845Y10474926D01*
X10455824Y1047533D01*
X10456663Y10475974D01*
X10457307Y10476814D01*
X10457712Y10477792D01*
X1045785Y10478842D01*
X10457712Y10479891D01*
X10457307Y10480869D01*
X10456663Y10481709D01*
X10455824Y10482354D01*
X10454845Y10482759D01*
X10453796Y10482897D01*
X10450796D01*
X10449746Y10482759D01*
X10448768Y10482354D01*
X10447928Y10481709D01*
X10447716Y10481432D01*
X10439917D01*
X10438926Y10481234D01*
X10438086Y10480673D01*
X10436553Y10479139D01*
X10435991Y104783D01*
X10435795Y10477308D01*
Y10457905D01*
X10434174Y10456285D01*
X10346204D01*
X10346105Y10456412D01*
X10345309Y10457023D01*
X10344382Y10457407D01*
X10343387Y10457538D01*
X10336719D01*
Y10489127D01*
X10342836Y10495245D01*
X10352203D01*
X10353195Y10495442D01*
X10354034Y10496003D01*
X10359984Y10501953D01*
X10360546Y10502793D01*
X10360588Y10503011D01*
X10362107D01*
Y10501384D01*
X10362208Y10500875D01*
X10362496Y10500446D01*
X10362927Y10500157D01*
X10363435Y10500056D01*
X10369869D01*
X10370378Y10500157D01*
X10370809Y10500446D01*
X10371097Y10500875D01*
X10371198Y10501384D01*
Y10509819D01*
X10371097Y10510327D01*
X10370809Y10510758D01*
X10370378Y10511046D01*
X10369869Y10511147D01*
X10363435D01*
X10362927Y10511046D01*
X10362496Y10510758D01*
X10362208Y10510327D01*
X10362107Y10509819D01*
Y10508191D01*
X10360742D01*
Y10514381D01*
X10362012Y10514835D01*
X10362135Y10514686D01*
X10363241Y10513778D01*
X10364504Y10513103D01*
X10365875Y10512687D01*
X103673Y10512546D01*
X10368726Y10512687D01*
X10370095Y10513103D01*
X10371359Y10513778D01*
X10372466Y10514686D01*
X10373374Y10515793D01*
X10374049Y10517057D01*
X10374465Y10518427D01*
X10374606Y10519852D01*
X10374465Y10521277D01*
X10374049Y10522648D01*
X10373374Y1052391D01*
X10372466Y10525017D01*
X10371359Y10525927D01*
X10370095Y10526602D01*
X10368953Y10526948D01*
Y10539052D01*
X10369037Y10539087D01*
X10369877Y10539731D01*
X10370521Y10540571D01*
X10370927Y10541549D01*
X10371064Y10542598D01*
Y10554098D01*
X10370927Y10555148D01*
X10370521Y10556125D01*
X10369877Y10556965D01*
X10369037Y1055761D01*
X10368059Y10558014D01*
X1036701Y10558153D01*
X10365961Y10558014D01*
X10364983Y1055761D01*
X10364143Y10556965D01*
X10363499Y10556125D01*
X10363093Y10555148D01*
X10362955Y10554098D01*
Y10542598D01*
X10363093Y10541549D01*
X10363499Y10540571D01*
X10364143Y10539731D01*
X10364983Y10539087D01*
X10365067Y10539052D01*
Y10526772D01*
X10364504Y10526602D01*
X10363241Y10525927D01*
X10362135Y10525017D01*
X10362012Y10524868D01*
X10360742Y10525323D01*
Y10526453D01*
X10360546Y10527444D01*
X10359984Y10528285D01*
X10356899Y10531368D01*
Y10539518D01*
X10357177Y10539731D01*
X10357821Y10540571D01*
X10358226Y10541549D01*
X10358364Y10542598D01*
Y10554098D01*
X10358226Y10555148D01*
X10357821Y10556125D01*
X10357177Y10556965D01*
X10356338Y1055761D01*
X10355359Y10558014D01*
X1035431Y10558153D01*
X1035326Y10558014D01*
X10352283Y1055761D01*
X10352135Y10557579D01*
X10350662Y10557958D01*
X10350638Y10557992D01*
X10348633Y10559998D01*
Y10584608D01*
X1035058Y10586555D01*
X10512134D01*
Y10583077D01*
X10510587Y10581532D01*
X10510172Y10580909D01*
X10510164Y10580901D01*
X10508784Y10580459D01*
X10508484Y1058069D01*
X10507505Y10581095D01*
X10506456Y10581233D01*
X10505406Y10581095D01*
X10504429Y1058069D01*
X10503589Y10580045D01*
X10502944Y10579205D01*
X10502539Y10578228D01*
X10502401Y10577178D01*
Y10567178D01*
X10502539Y10566129D01*
X10502944Y1056515D01*
X10503589Y1056431D01*
X10504429Y10563667D01*
X10504514Y10563632D01*
Y10539554D01*
X10481038D01*
X10480294Y10539407D01*
X10479664Y10538986D01*
X10450004Y10509324D01*
X10398881D01*
X10398881Y10509324D01*
X10398137Y10509176D01*
X10397507Y10508755D01*
X10393788Y10505035D01*
X10393367Y10504406D01*
X10393219Y10503662D01*
Y10493846D01*
X10347471D01*
X10346727Y10493699D01*
X10346096Y10493278D01*
X10338984Y10486165D01*
X10338563Y10485535D01*
X10338416Y10484791D01*
Y10465914D01*
X10338563Y10465171D01*
X10338984Y10464541D01*
X10344282Y10459242D01*
X10344913Y10458822D01*
X10345657Y10458673D01*
X10386951D01*
X10387693Y10458822D01*
X10388324Y10459242D01*
X10395466Y10466385D01*
X10395887Y10467015D01*
X10396035Y10467759D01*
Y10468341D01*
X10397306Y10468795D01*
X10397701Y10468313D01*
X10399265Y1046703D01*
X10401049Y10466075D01*
X10402985Y10465488D01*
X10404998Y10465291D01*
X10407012Y10465488D01*
X10408948Y10466075D01*
X10410731Y1046703D01*
X10412295Y10468313D01*
X10413579Y10469877D01*
X10414532Y10471661D01*
X1041512Y10473596D01*
X10415317Y1047561D01*
X1041512Y10477623D01*
X10414532Y10479559D01*
X10413579Y10481343D01*
X10413533Y10481399D01*
X10416298Y10484163D01*
X10416719Y10484792D01*
X10416866Y10485536D01*
Y10486547D01*
X10418389D01*
X10418899Y10486648D01*
X1041933Y10486936D01*
X10419618Y10487367D01*
X10419719Y10487877D01*
Y10495807D01*
X10419618Y10496316D01*
X1041933Y10496748D01*
X10418899Y10497036D01*
X10418389Y10497137D01*
X10411459D01*
X1041095Y10497036D01*
X10410519Y10496748D01*
X10410229Y10496316D01*
X10410128Y10495807D01*
Y10487877D01*
X10410229Y10487367D01*
X10410519Y10486936D01*
X1041095Y10486648D01*
X10411403Y10486558D01*
X10411516Y10486387D01*
X10411918Y10485276D01*
X10410786Y10484146D01*
X10410731Y10484191D01*
X10408948Y10485144D01*
X10407012Y10485731D01*
X10404998Y1048593D01*
X10403378Y1048577D01*
X1040306Y10485905D01*
X10402533Y10486343D01*
X10402183Y10486815D01*
Y10500359D01*
X10448381D01*
X10453783Y10494957D01*
X10453297Y10493784D01*
X10433719D01*
Y10495807D01*
X10433618Y10496316D01*
X1043333Y10496748D01*
X10432898Y10497036D01*
X10432389Y10497137D01*
X10425459D01*
X1042495Y10497036D01*
X10424518Y10496748D01*
X1042423Y10496316D01*
X10424128Y10495807D01*
Y10487877D01*
X1042423Y10487367D01*
X10424518Y10486936D01*
X1042495Y10486648D01*
X10425459Y10486547D01*
X10426982D01*
Y10483385D01*
X10424707D01*
X10424198Y10483284D01*
X10423767Y10482996D01*
X1042348Y10482565D01*
X10423379Y10482057D01*
Y10475621D01*
X1042348Y10475114D01*
X10423767Y10474683D01*
X10424198Y10474395D01*
X10424707Y10474293D01*
X10433142D01*
X1043365Y10474395D01*
X10434081Y10474683D01*
X10434369Y10475114D01*
X1043447Y10475621D01*
Y10482057D01*
X10434369Y10482565D01*
X10434081Y10482996D01*
X1043365Y10483284D01*
X10433142Y10483385D01*
X10430867D01*
Y10486547D01*
X10432389D01*
X10432898Y10486648D01*
X1043333Y10486936D01*
X10433618Y10487367D01*
X10433719Y10487877D01*
Y104899D01*
X10515616D01*
X10516443Y10489017D01*
X10516337Y1048769D01*
X10516316Y10487673D01*
X10515792Y10486991D01*
X10515463Y10486195D01*
X10515433Y10485977D01*
X10529363D01*
X10529333Y10486195D01*
X10529004Y10486991D01*
X1052848Y10487673D01*
X10528291Y1048782D01*
X1052821Y1048801D01*
Y10489174D01*
X10528291Y10489364D01*
X1052848Y10489509D01*
X10529004Y10490193D01*
X10529333Y10490988D01*
X10529446Y10491842D01*
X10529333Y10492695D01*
X10529004Y10493491D01*
X1052848Y10494174D01*
X10528291Y10494319D01*
X1052821Y10494509D01*
Y10495674D01*
X10528291Y10495864D01*
X1052848Y1049601D01*
X10529004Y10496693D01*
X10529333Y10497488D01*
X10529446Y10498342D01*
X10529333Y10499196D01*
X10529004Y1049999D01*
X1052848Y10500674D01*
X10528291Y10500819D01*
X1052821Y1050101D01*
Y10502174D01*
X10528291Y10502365D01*
X1052848Y1050251D01*
X10529004Y10503192D01*
X10529333Y10503988D01*
X10529446Y10504841D01*
X10529333Y10505696D01*
X10529004Y1050649D01*
X1052848Y10507174D01*
X10528459Y1050719D01*
X10528353Y10508518D01*
X1052918Y10509399D01*
X10543455D01*
X10544198Y10509547D01*
X10544828Y10509968D01*
X10545929Y10511069D01*
X1054635Y10511699D01*
X10546498Y10512443D01*
Y10563632D01*
X10546583Y10563667D01*
X10547423Y1056431D01*
X10548068Y1056515D01*
X10548473Y10566129D01*
X10548611Y10567178D01*
Y10577178D01*
X10548473Y10578228D01*
X10548068Y10579205D01*
X10547423Y10580045D01*
X10546583Y1058069D01*
X10545605Y10581095D01*
X10544556Y10581233D01*
X10543507Y10581095D01*
X10542529Y1058069D01*
X10541689Y10580045D01*
X10541045Y10579205D01*
X1054064Y10578228D01*
X10540502Y10577178D01*
Y10567178D01*
X1054064Y10566129D01*
X10541045Y1056515D01*
X10541689Y1056431D01*
X10542529Y10563667D01*
X10542614Y10563632D01*
Y10513284D01*
X10528779D01*
X1052848Y10513674D01*
X10527797Y10514198D01*
X10527002Y10514528D01*
X10526147Y1051464D01*
X10518647D01*
X10517794Y10514528D01*
X10516998Y10514198D01*
X10516316Y10513674D01*
X10515792Y10512991D01*
X10515463Y10512195D01*
X1051535Y10511342D01*
X10515463Y10510488D01*
X10515792Y10509692D01*
X10516316Y1050901D01*
X10516337Y10508993D01*
X10516443Y10507666D01*
X10515616Y10506783D01*
X10506414D01*
Y10508059D01*
X10506312Y10508567D01*
X10506024Y10508998D01*
X10505593Y10509286D01*
X10505085Y10509387D01*
X1049665D01*
X10496143Y10509286D01*
X10495712Y10508998D01*
X10495424Y10508567D01*
X10495322Y10508059D01*
Y10506783D01*
X10483395D01*
Y10508806D01*
X10483293Y10509316D01*
X10483005Y10509747D01*
X10482573Y10510035D01*
X10482064Y10510137D01*
X10475134D01*
X10474625Y10510035D01*
X10474193Y10509747D01*
X10473905Y10509316D01*
X10473804Y10508806D01*
Y10500876D01*
X10473905Y10500367D01*
X10474193Y10499935D01*
X10474625Y10499647D01*
X10475134Y10499546D01*
X10482064D01*
X10482573Y10499647D01*
X10483005Y10499935D01*
X10483293Y10500367D01*
X10483395Y10500876D01*
Y10502899D01*
X10495322D01*
Y10501625D01*
X10495424Y10501116D01*
X10495712Y10500685D01*
X10496143Y10500397D01*
X1049665Y10500297D01*
X10505085D01*
X10505593Y10500397D01*
X10506024Y10500685D01*
X10506312Y10501116D01*
X10506414Y10501625D01*
Y10502899D01*
X10516017D01*
X10516316Y1050251D01*
X10516337Y10502494D01*
X10516443Y10501166D01*
X10515616Y10500284D01*
X10514496D01*
X10513752Y10500135D01*
X10513121Y10499716D01*
X10513121Y10499716D01*
X1050973Y10496324D01*
X1045791D01*
X10452507Y10501726D01*
X10452994Y10502899D01*
X10459803D01*
Y10500876D01*
X10459905Y10500367D01*
X10460193Y10499935D01*
X10460625Y10499647D01*
X10461134Y10499546D01*
X10468064D01*
X10468573Y10499647D01*
X10469005Y10499935D01*
X10469293Y10500367D01*
X10469395Y10500876D01*
Y10508806D01*
X10469293Y10509316D01*
X10469005Y10509747D01*
X10468573Y10510035D01*
X10468064Y10510137D01*
X10461134D01*
X10460625Y10510035D01*
X10460193Y10509747D01*
X10459905Y10509316D01*
X10459803Y10508806D01*
Y10506783D01*
X10454617D01*
X10454131Y10507958D01*
X10481842Y10535669D01*
X10505712D01*
X10506455Y10535818D01*
X10507085Y10536238D01*
X1050783Y10536982D01*
X10508251Y10537612D01*
X10508398Y10538356D01*
Y10562687D01*
X10509034Y10563151D01*
X10510574Y10562845D01*
X10510587Y10562825D01*
X10514802Y1055861D01*
X10514802Y1055861D01*
X10515432Y10558188D01*
X10516176Y10558041D01*
X10516176Y10558041D01*
X10522136D01*
X1052288Y10558188D01*
X1052351Y1055861D01*
X10527725Y10562825D01*
X10527725Y10562825D01*
X1052814Y10563446D01*
X10528148Y10563456D01*
X10529529Y10563896D01*
X10529829Y10563667D01*
X10530807Y10563262D01*
X10531221Y10563207D01*
Y10572179D01*
Y10581149D01*
X10530807Y10581095D01*
X10529829Y1058069D01*
X10529529Y10580459D01*
X10528148Y10580901D01*
X1052814Y10580909D01*
X10527725Y10581532D01*
X10526178Y10583077D01*
Y10589095D01*
X10555314D01*
Y10580725D01*
X10555228Y1058069D01*
X10554388Y10580045D01*
X10553745Y10579205D01*
X1055334Y10578228D01*
X10553202Y10577178D01*
Y10567178D01*
X1055334Y10566129D01*
X10553745Y1056515D01*
X10554388Y1056431D01*
X10555228Y10563667D01*
X10556206Y10563262D01*
X10557256Y10563124D01*
X10558306Y10563262D01*
X10559283Y10563667D01*
X10560123Y1056431D01*
X10560768Y1056515D01*
X10561173Y10566129D01*
X10561311Y10567178D01*
Y10577178D01*
X10561173Y10578228D01*
X10560768Y10579205D01*
X10560123Y10580045D01*
X10559283Y1058069D01*
X10559198Y10580725D01*
Y10590388D01*
X10560125Y10591636D01*
X10569045D01*
X10569789Y10591783D01*
X10570419Y10592205D01*
X10571329Y10593115D01*
X1057175Y10593745D01*
X10571898Y10594489D01*
X10571898Y10594489D01*
Y10619131D01*
X10571984Y10619166D01*
X10572823Y10619811D01*
X10573467Y10620651D01*
X10573872Y10621628D01*
X10574011Y10622678D01*
Y10632678D01*
X10573872Y10633727D01*
X10573467Y10634706D01*
X10572823Y10635546D01*
X10571984Y10636189D01*
X10571006Y10636594D01*
X10569956Y10636732D01*
X10568906Y10636594D01*
X10567928Y10636189D01*
X10567089Y10635546D01*
X10566444Y10634706D01*
X1056604Y10633727D01*
X10565901Y10632678D01*
Y10622678D01*
X1056604Y10621628D01*
X10566444Y10620651D01*
X10567089Y10619811D01*
X10567928Y10619166D01*
X10568014Y10619131D01*
Y1059552D01*
X10523993D01*
X1052325Y10595372D01*
X10522618Y10594951D01*
X10520378Y10592711D01*
X10518137Y10594951D01*
X10517507Y10595372D01*
X10516764Y1059552D01*
X10419752D01*
Y10632052D01*
X10419838Y10632086D01*
X10420677Y10632731D01*
X10421321Y10633571D01*
X10421726Y10634548D01*
X10421865Y10635598D01*
Y10647098D01*
X10421726Y10648147D01*
X10421564Y10648541D01*
X10422295Y10649811D01*
X10433677D01*
Y10632974D01*
X10432153D01*
X10431644Y10632872D01*
X10431212Y10632584D01*
X10430924Y10632152D01*
X10430823Y10631643D01*
Y10623713D01*
X10430924Y10623204D01*
X10431212Y10622772D01*
X10431644Y10622484D01*
X10432153Y10622383D01*
X10439083D01*
X10439592Y10622484D01*
X10440024Y10622772D01*
X10440312Y10623204D01*
X10440414Y10623713D01*
Y10631643D01*
X10440312Y10632152D01*
X10440024Y10632584D01*
X10439592Y10632872D01*
X10439083Y10632974D01*
X10437561D01*
Y1065085D01*
X10437413Y10651593D01*
X10436992Y10652223D01*
X10436089Y10653126D01*
X10435459Y10653547D01*
X10434716Y10653695D01*
X10415881D01*
X10415139Y10653547D01*
X10414508Y10653126D01*
X10411781Y10650399D01*
X10411361Y10649769D01*
X10411212Y10649026D01*
Y10633669D01*
X10411361Y10632926D01*
X10411781Y10632296D01*
X10413223Y10630856D01*
Y1059552D01*
X10347671D01*
X10346927Y10595372D01*
X10346298Y10594951D01*
X10340237Y1058889D01*
X10339816Y1058826D01*
X10339668Y10587517D01*
Y10557645D01*
X10339583Y1055761D01*
X10338743Y10556965D01*
X10338098Y10556125D01*
X10337694Y10555148D01*
X10337555Y10554098D01*
Y10542598D01*
X10337694Y10541549D01*
X10338098Y10540571D01*
X10338743Y10539731D01*
X10339583Y10539087D01*
X1034056Y10538682D01*
X1034161Y10538544D01*
X1034266Y10538682D01*
X10343604Y10539072D01*
X10343693Y10539097D01*
X1034522Y10538767D01*
X10346653Y10537333D01*
Y10530588D01*
X10346501Y10530375D01*
X10345383Y10529658D01*
X10345175Y105297D01*
X10338391D01*
X10333392Y10534698D01*
Y1053775D01*
X10334939Y10539297D01*
X10335359Y10539927D01*
X10335508Y1054067D01*
Y10556027D01*
X10335359Y1055677D01*
X10334939Y105574D01*
X10332123Y10560216D01*
Y10600139D01*
X10332251Y10600267D01*
X10391172D01*
X10391915Y10600415D01*
X10392545Y10600836D01*
X10395054Y10603345D01*
X10395475Y10603975D01*
X10395623Y10604718D01*
X10395623Y10604718D01*
Y1062948D01*
X10398439Y10632296D01*
X1039886Y10632926D01*
X10399008Y10633669D01*
Y10649126D01*
X1039886Y10649869D01*
X10398439Y10650499D01*
X10397219Y10651718D01*
Y10662845D01*
X10404684Y1067031D01*
X10411093D01*
X10411351Y10669457D01*
X10412026Y10668193D01*
X10412935Y10667086D01*
X10414042Y10666178D01*
X10415304Y10665503D01*
X10416675Y10665087D01*
X10418101Y10664946D01*
X10419525Y10665087D01*
X10420896Y10665503D01*
X10422158Y10666178D01*
X10423265Y10667086D01*
X10424174Y10668193D01*
X10424849Y10669457D01*
X10425265Y10670826D01*
X10425405Y10672252D01*
X10425265Y10673677D01*
X10424849Y10675048D01*
X104245Y10675702D01*
X10424647Y10676125D01*
X10425321Y10676859D01*
X10425573Y10676813D01*
X10426879Y10676707D01*
X1042818Y10676556D01*
X10428837Y10676545D01*
X1042949Y10676492D01*
X104308Y10676514D01*
X10432111Y10676492D01*
X10432764Y10676545D01*
X10433419Y10676556D01*
X10434722Y10676707D01*
X10436027Y10676813D01*
X10436279Y10676859D01*
X10436953Y10676125D01*
D02*
G37*
G36*
X10386152D02*
X103863Y10675702D01*
X10385951Y10675048D01*
X10385535Y10673677D01*
X10385394Y10672252D01*
X10385535Y10670826D01*
X10385951Y10669457D01*
X10386626Y10668193D01*
X10387534Y10667086D01*
X10388641Y10666178D01*
X10389905Y10665503D01*
X10390758Y10665244D01*
Y10654775D01*
X10386382Y10650399D01*
X10385961Y10649769D01*
X10385813Y10649026D01*
Y10633669D01*
X10385961Y10632926D01*
X10386382Y10632296D01*
X10389198Y1062948D01*
Y10606829D01*
X10389061Y10606692D01*
X10330394D01*
X10329651Y10606544D01*
X10329021Y10606123D01*
X10326267Y10603369D01*
X10325846Y10602739D01*
X10325698Y10601996D01*
Y10560216D01*
X10323412Y1055793D01*
X10322297Y10557427D01*
X103217Y10557937D01*
X10320692Y10558945D01*
Y10607837D01*
X10321255Y106084D01*
X10338789D01*
X10339531Y10608547D01*
X10340162Y10608969D01*
X10342983Y1061179D01*
X10343405Y10612421D01*
X10343552Y10613164D01*
X10343552Y10613164D01*
Y10632052D01*
X10343638Y10632086D01*
X10344478Y10632731D01*
X10345121Y10633571D01*
X10345526Y10634548D01*
X10345665Y10635598D01*
Y10647098D01*
X10345526Y10648147D01*
X10345364Y10648541D01*
X10346095Y10649811D01*
X10347712D01*
Y10633669D01*
X1034786Y10632926D01*
X10348281Y10632296D01*
X10351008Y10629569D01*
X10351638Y10629149D01*
X10352382Y10629D01*
X10356238D01*
X10356981Y10629149D01*
X10357611Y10629569D01*
X10360338Y10632296D01*
X10360759Y10632926D01*
X10360907Y10633669D01*
Y10649026D01*
X10360759Y10649769D01*
X10360338Y10650399D01*
X10358793Y10651946D01*
Y10670123D01*
X10358978Y1067031D01*
X10360292D01*
X10360551Y10669457D01*
X10361226Y10668193D01*
X10362135Y10667086D01*
X10363241Y10666178D01*
X10364504Y10665503D01*
X10365875Y10665087D01*
X103673Y10664946D01*
X10368726Y10665087D01*
X10370095Y10665503D01*
X10371359Y10666178D01*
X10372466Y10667086D01*
X10373374Y10668193D01*
X10374049Y10669457D01*
X10374465Y10670826D01*
X10374606Y10672252D01*
X10374465Y10673677D01*
X10374049Y10675048D01*
X103737Y10675702D01*
X10373848Y10676125D01*
X1037452Y10676859D01*
X10374773Y10676813D01*
X10376078Y10676707D01*
X1037738Y10676556D01*
X10378037Y10676545D01*
X1037869Y10676492D01*
X1038Y10676514D01*
X1038131Y10676492D01*
X10381963Y10676545D01*
X1038262Y10676556D01*
X10383922Y10676707D01*
X10385227Y10676813D01*
X1038548Y10676859D01*
X10386152Y10676125D01*
D02*
G37*
G36*
X10335353D02*
X103355Y10675702D01*
X10335151Y10675048D01*
X10334735Y10673677D01*
X10334595Y10672252D01*
X10334735Y10670826D01*
X10335151Y10669457D01*
X10335826Y10668193D01*
X10336735Y10667086D01*
X10337842Y10666178D01*
X10339104Y10665503D01*
X10340475Y10665087D01*
X10341899Y10664946D01*
X10343325Y10665087D01*
X10344696Y10665503D01*
X10345958Y10666178D01*
X10347065Y10667086D01*
X10347974Y10668193D01*
X10348649Y10669457D01*
X10348907Y1067031D01*
X10351736D01*
X10352368Y10669678D01*
Y10652579D01*
X10351097Y10652194D01*
X10351028Y10652297D01*
X10350199Y10653126D01*
X10349569Y10653547D01*
X10348826Y10653695D01*
X10339681D01*
X10338939Y10653547D01*
X10338308Y10653126D01*
X10335581Y10650399D01*
X10335161Y10649769D01*
X10335012Y10649026D01*
Y10633669D01*
X10335161Y10632926D01*
X10335581Y10632296D01*
X10337128Y10630751D01*
Y1061502D01*
X10336932Y10614824D01*
X10292887D01*
X10292753Y1061496D01*
Y10632052D01*
X10292837Y10632086D01*
X10293677Y10632731D01*
X10294321Y10633571D01*
X10294727Y10634548D01*
X10294865Y10635598D01*
Y10647098D01*
X10294727Y10648147D01*
X10294564Y10648541D01*
X10295295Y10649811D01*
X10296001D01*
X10296744Y10649958D01*
X10297374Y1065038D01*
X10312919Y10665923D01*
X10313705Y10665503D01*
X10315074Y10665087D01*
X103165Y10664946D01*
X10317925Y10665087D01*
X10319296Y10665503D01*
X10320559Y10666178D01*
X10321665Y10667086D01*
X10322574Y10668193D01*
X1032325Y10669457D01*
X10323665Y10670826D01*
X10323805Y10672252D01*
X10323665Y10673677D01*
X1032325Y10675048D01*
X10322899Y10675702D01*
X10323047Y10676125D01*
X10323721Y10676859D01*
X10323973Y10676813D01*
X10325278Y10676707D01*
X10326581Y10676556D01*
X10327236Y10676545D01*
X10327889Y10676492D01*
X103292Y10676514D01*
X1033051Y10676492D01*
X10331163Y10676545D01*
X1033182Y10676556D01*
X10333121Y10676707D01*
X10334427Y10676813D01*
X10334679Y10676859D01*
X10335353Y10676125D01*
D02*
G37*
G36*
X103087Y10673998D02*
X10309307Y10673385D01*
X10309194Y10672252D01*
X10309335Y10670826D01*
X10309751Y10669457D01*
X10310171Y10668671D01*
X10295197Y10653695D01*
X10288882D01*
X10288138Y10653547D01*
X10287509Y10653126D01*
X10284781Y10650399D01*
X1028436Y10649769D01*
X10284213Y10649026D01*
Y10633351D01*
X1028436Y10632607D01*
X10284781Y10631978D01*
X10286328Y10630431D01*
Y10613103D01*
X10286476Y1061236D01*
X10286897Y10611729D01*
X10289657Y10608969D01*
X10289657Y10608969D01*
X10290287Y10608547D01*
X1029103Y106084D01*
X10313695D01*
X10314268Y10607827D01*
Y10557645D01*
X10314182Y1055761D01*
X10313344Y10556965D01*
X10312699Y10556125D01*
X10312294Y10555148D01*
X10312156Y10554098D01*
Y10542598D01*
X10312294Y10541549D01*
X10312699Y10540571D01*
X10313344Y10539731D01*
X10314182Y10539087D01*
X10314576Y10538923D01*
X10314874Y10538248D01*
X10314994Y10537612D01*
X10314967Y10537439D01*
X10314706Y10537048D01*
X10314558Y10536305D01*
Y1052686D01*
X10313705Y10526602D01*
X10312441Y10525927D01*
X10311334Y10525017D01*
X10310426Y1052391D01*
X10309751Y10522648D01*
X10309335Y10521277D01*
X10309194Y10519852D01*
X10309335Y10518427D01*
X10309751Y10517057D01*
X10310426Y10515793D01*
X10310946Y10515159D01*
X10310345Y10513889D01*
X10305453D01*
Y10539052D01*
X10305537Y10539087D01*
X10306377Y10539731D01*
X10307021Y10540571D01*
X10307427Y10541549D01*
X10307565Y10542598D01*
Y10554098D01*
X10307427Y10555148D01*
X10307021Y10556125D01*
X10306377Y10556965D01*
X10305537Y1055761D01*
X10304559Y10558014D01*
X1030351Y10558153D01*
X10302461Y10558014D01*
X10301483Y1055761D01*
X10300643Y10556965D01*
X10299999Y10556125D01*
X10299594Y10555148D01*
X10299456Y10554098D01*
Y10542598D01*
X10299594Y10541549D01*
X10299999Y10540571D01*
X10300643Y10539731D01*
X10301483Y10539087D01*
X10301567Y10539052D01*
Y10512882D01*
X10301715Y10512139D01*
X10302136Y10511509D01*
X10303071Y10510574D01*
X10303071Y10510574D01*
X10303701Y10510153D01*
X10304445Y10510005D01*
X10304445Y10510005D01*
X10319774D01*
X10320518Y10510153D01*
X10321147Y10510574D01*
X10325779Y10515204D01*
X103262Y10515835D01*
X10326348Y10516577D01*
Y10523126D01*
X10326348Y10523126D01*
X103262Y1052387D01*
X10325779Y105245D01*
X10325779Y105245D01*
X10320983Y10529296D01*
Y10534448D01*
X10325374Y10538839D01*
X10325698Y10538893D01*
X10326968Y10537814D01*
Y10532842D01*
X10327115Y10532098D01*
X10327537Y10531469D01*
X10335571Y10523434D01*
X10335151Y10522648D01*
X10334735Y10521277D01*
X10334595Y10519852D01*
X10334735Y10518427D01*
X10335151Y10517057D01*
X10335826Y10515793D01*
X10336735Y10514686D01*
X10337842Y10513778D01*
X10339104Y10513103D01*
X10340475Y10512687D01*
X10341899Y10512546D01*
X10343325Y10512687D01*
X10344696Y10513103D01*
X10345958Y10513778D01*
X10346593Y10514298D01*
X10347863Y10513698D01*
Y10508032D01*
X10292753D01*
Y10539052D01*
X10292837Y10539087D01*
X10293677Y10539731D01*
X10294321Y10540571D01*
X10294727Y10541549D01*
X10294865Y10542598D01*
Y10554098D01*
X10294727Y10555148D01*
X10294321Y10556125D01*
X10293677Y10556965D01*
X10292837Y1055761D01*
X10291859Y10558014D01*
X10290811Y10558153D01*
X10289761Y10558014D01*
X10288783Y1055761D01*
X10287943Y10556965D01*
X10287299Y10556125D01*
X10286893Y10555148D01*
X10286755Y10554098D01*
Y10542598D01*
X10286893Y10541549D01*
X10287299Y10540571D01*
X10287943Y10539731D01*
X10288783Y10539087D01*
X10288867Y10539052D01*
Y10507139D01*
X10288943Y10506763D01*
X10288359Y10505754D01*
X10288092Y10505492D01*
X10282593D01*
Y1053775D01*
X10284138Y10539297D01*
X10284559Y10539927D01*
X10284707Y1054067D01*
Y10556025D01*
X10284707Y10556027D01*
X10284559Y10556769D01*
X10284138Y105574D01*
X10280052Y10561486D01*
Y10632052D01*
X10280137Y10632086D01*
X10280977Y10632731D01*
X10281621Y10633571D01*
X10282026Y10634548D01*
X10282164Y10635598D01*
Y10647098D01*
X10282026Y10648147D01*
X10281621Y10649126D01*
X10280977Y10649965D01*
X10280137Y10650609D01*
X10279159Y10651014D01*
X1027811Y10651152D01*
X10277061Y10651014D01*
X10276083Y10650609D01*
X10275243Y10649965D01*
X10274598Y10649126D01*
X10274193Y10648147D01*
X10274055Y10647098D01*
Y10635598D01*
X10274193Y10634548D01*
X10274598Y10633571D01*
X10275243Y10632731D01*
X10276083Y10632086D01*
X10276168Y10632052D01*
Y10560681D01*
X10276316Y10559938D01*
X10276737Y10559308D01*
X10276857Y10559188D01*
X10276476Y10557772D01*
X10276083Y1055761D01*
X10275243Y10556965D01*
X10274598Y10556125D01*
X10274193Y10555148D01*
X10274055Y10554098D01*
Y10542598D01*
X10274193Y10541549D01*
X10274598Y10540571D01*
X10275243Y10539731D01*
X10276083Y10539087D01*
X10276168Y10539052D01*
Y10503488D01*
X10276316Y10502744D01*
X10276737Y10502114D01*
X10279214Y10499636D01*
X10279845Y10499215D01*
X10280587Y10499067D01*
X10337675D01*
X1033816Y10497894D01*
X10332297Y10492031D01*
X10331736Y10491191D01*
X10331539Y104902D01*
Y10457538D01*
X10325502D01*
Y10458893D01*
X10325399Y10459409D01*
X10325107Y10459846D01*
X10324669Y10460139D01*
X10324154Y10460242D01*
X10307759D01*
X10307242Y10460139D01*
X10306805Y10459846D01*
X10306512Y10459409D01*
X1030641Y10458893D01*
Y10457538D01*
X10268174D01*
Y10464872D01*
X10269227Y10465436D01*
X10270563Y10466531D01*
X10271659Y10467866D01*
X10272473Y1046939D01*
X10272975Y10471044D01*
X10273143Y10472762D01*
Y10487762D01*
X10272975Y10489481D01*
X10272473Y10491135D01*
X10271659Y10492659D01*
X10270563Y10493994D01*
X10269227Y1049509D01*
X10267704Y10495905D01*
X10266051Y10496406D01*
X10264331Y10496575D01*
X10262612Y10496406D01*
X10260959Y10495905D01*
X10259436Y1049509D01*
X10258101Y10493994D01*
X10257004Y10492659D01*
X1025619Y10491135D01*
X10255688Y10489481D01*
X10255519Y10487762D01*
Y10472762D01*
X10255688Y10471044D01*
X1025619Y1046939D01*
X10257004Y10467866D01*
X10258101Y10466531D01*
X10259436Y10465436D01*
X10260488Y10464872D01*
Y10457538D01*
X10225275D01*
X1022476Y10458052D01*
Y10510516D01*
X1022958D01*
X1023011Y10510621D01*
X10230558Y10510922D01*
X10230859Y10511371D01*
X10230964Y10511901D01*
Y10557225D01*
X10230859Y10557755D01*
X10230558Y10558204D01*
X1023011Y10558505D01*
X1022958Y1055861D01*
X10212255D01*
X10211725Y10558505D01*
X10211276Y10558204D01*
X10210977Y10557755D01*
X10210871Y10557225D01*
Y10511901D01*
X10210977Y10511371D01*
X10211276Y10510922D01*
X10211725Y10510621D01*
X10212255Y10510516D01*
X10217075D01*
Y1045646D01*
X10217205Y10455466D01*
X1021743Y10454923D01*
X10217589Y10454539D01*
X102182Y10453743D01*
X10220966Y10450978D01*
X10221761Y10450367D01*
X10222688Y10449983D01*
X10223683Y10449852D01*
X1030641D01*
Y10448497D01*
X10306512Y10447982D01*
X10306805Y10447544D01*
X10307242Y10447252D01*
X10307759Y1044715D01*
X10324154D01*
X10324669Y10447252D01*
X10325107Y10447544D01*
X10325399Y10447982D01*
X10325502Y10448497D01*
Y10449852D01*
X10340798D01*
Y103259D01*
X10340995Y10324908D01*
X10341556Y10324069D01*
X10348386Y10317239D01*
X10349227Y10316677D01*
X10350219Y10316481D01*
X1062354D01*
Y10309999D01*
X10090048Y1031D01*
X10090048Y10628551D01*
X10131448Y10669951D01*
X10290195Y10669951D01*
X10294121Y10670144D01*
X10298008Y1067072D01*
X1030182Y10671676D01*
X10305521Y10672999D01*
X10308185Y10674259D01*
X103087Y10673998D01*
D02*
G37*
G36*
X1035307Y10488691D02*
X10353055Y10488621D01*
Y10485739D01*
X10352985Y10485731D01*
X10351049Y10485144D01*
X10349265Y10484191D01*
X10347701Y10482906D01*
X10346417Y10481343D01*
X10345464Y10479559D01*
X10344877Y10477623D01*
X10344678Y1047561D01*
X10344877Y10473596D01*
X10345464Y10471661D01*
X10346417Y10469877D01*
X10347701Y10468313D01*
X10349265Y1046703D01*
X10351049Y10466075D01*
X10352985Y10465488D01*
X10354998Y10465291D01*
X10357012Y10465488D01*
X10358948Y10466075D01*
X10360731Y1046703D01*
X10362295Y10468313D01*
X10363579Y10469877D01*
X10364532Y10471661D01*
X1036512Y10473596D01*
X10365317Y1047561D01*
X1036512Y10477623D01*
X10364532Y10479559D01*
X10363579Y10481343D01*
X10362295Y10482906D01*
X10360731Y10484191D01*
X10358948Y10485144D01*
X10357012Y10485731D01*
X1035694Y10485739D01*
Y10487422D01*
X10396844D01*
X10397062Y10487162D01*
X10397443Y10486223D01*
X1039272Y104815D01*
X10392299Y1048087D01*
X10392151Y10480127D01*
Y10468563D01*
X10386145Y10462559D01*
X10346461D01*
X103423Y10466719D01*
Y10483987D01*
X10348275Y10489962D01*
X10352192D01*
X1035307Y10488691D01*
D02*
G37*
G36*
X10636594Y10486632D02*
Y10433976D01*
X10557764D01*
X10557314Y10433887D01*
X10556382Y10434402D01*
X10556045Y10434703D01*
Y10461858D01*
X10557299Y10463112D01*
X105678D01*
X10568776Y10462136D01*
Y10459974D01*
X10568923Y10459231D01*
X10569344Y10458601D01*
X10569977Y10457969D01*
X10569977Y10457969D01*
X10570607Y10457548D01*
X1057135Y104574D01*
X10572017D01*
X10572316Y10457009D01*
X10572506Y10456864D01*
X10572585Y10456674D01*
Y1045551D01*
X10572506Y1045532D01*
X10572316Y10455173D01*
X10571792Y10454491D01*
X10571462Y10453695D01*
X10571433Y10453477D01*
X10585363D01*
X10585333Y10453695D01*
X10585005Y10454491D01*
X1058448Y10455173D01*
X10584291Y1045532D01*
X1058421Y1045551D01*
Y10456674D01*
X10584291Y10456864D01*
X1058448Y10457009D01*
X10585005Y10457693D01*
X10585333Y10458488D01*
X10585447Y10459342D01*
X10585333Y10460195D01*
X10585005Y10460991D01*
X1058448Y10461674D01*
X10584291Y10461819D01*
X1058421Y10462009D01*
Y10463174D01*
X10584291Y10463364D01*
X1058448Y1046351D01*
X10585005Y10464193D01*
X10585333Y10464988D01*
X10585447Y10465842D01*
X10585333Y10466696D01*
X10585005Y1046749D01*
X1058448Y10468174D01*
X10584459Y1046819D01*
X10584353Y10469518D01*
X10585179Y10470399D01*
X10587451D01*
X10594382Y10463468D01*
X10595012Y10463047D01*
X10595756Y10462899D01*
X10595756Y10462899D01*
X10612455D01*
Y10461625D01*
X10612556Y10461116D01*
X10612843Y10460685D01*
X10613274Y10460397D01*
X10613783Y10460297D01*
X10622218D01*
X10622726Y10460397D01*
X10623157Y10460685D01*
X10623445Y10461116D01*
X10623546Y10461625D01*
Y10468059D01*
X10623445Y10468567D01*
X10623157Y10468998D01*
X10622726Y10469286D01*
X10622218Y10469387D01*
X10619943D01*
Y10473546D01*
X10621465D01*
X10621974Y10473647D01*
X10622406Y10473936D01*
X10622694Y10474368D01*
X10622795Y10474877D01*
Y10482806D01*
X10622694Y10483315D01*
X10622406Y10483748D01*
X10621974Y10484036D01*
X10621465Y10484137D01*
X10614535D01*
X10614026Y10484036D01*
X10613594Y10483748D01*
X10613306Y10483315D01*
X10613204Y10482806D01*
Y10474877D01*
X10613306Y10474368D01*
X10613594Y10473936D01*
X10614026Y10473647D01*
X10614535Y10473546D01*
X10616057D01*
Y10469387D01*
X10613783D01*
X10613274Y10469286D01*
X10612843Y10468998D01*
X10612556Y10468567D01*
X10612455Y10468059D01*
Y10466783D01*
X1059656D01*
X10589629Y10473715D01*
X10588999Y10474136D01*
X10588256Y10474283D01*
X10585179D01*
X10584353Y10475166D01*
X10584459Y10476493D01*
X1058448Y1047651D01*
X10584779Y10476899D01*
X10599204D01*
Y10474877D01*
X10599305Y10474368D01*
X10599594Y10473936D01*
X10600026Y10473647D01*
X10600535Y10473546D01*
X10607465D01*
X10607974Y10473647D01*
X10608406Y10473936D01*
X10608694Y10474368D01*
X10608795Y10474877D01*
Y10482806D01*
X10608694Y10483315D01*
X10608406Y10483748D01*
X10607974Y10484036D01*
X10607465Y10484137D01*
X10600535D01*
X10600026Y10484036D01*
X10599594Y10483748D01*
X10599305Y10483315D01*
X10599204Y10482806D01*
Y10480784D01*
X10584779D01*
X1058448Y10481174D01*
X10584459Y1048119D01*
X10584353Y10482517D01*
X10585179Y104834D01*
X10585417D01*
X10586161Y10483547D01*
X10586792Y10483969D01*
X10589557Y10486733D01*
X10636492D01*
X10636594Y10486632D01*
D02*
G37*
G36*
X10665515Y10529742D02*
X10665664Y1052953D01*
Y10309999D01*
X10649989D01*
Y10341071D01*
Y1040061D01*
Y10517913D01*
X10649792Y10518904D01*
X10649231Y10519744D01*
X10647802Y10521173D01*
X10646962Y10521735D01*
X1064597Y10521931D01*
X10620695D01*
Y10522814D01*
X10620593Y1052332D01*
X10620306Y1052375D01*
X10619878Y10524037D01*
X10619371Y10524137D01*
X10613927D01*
X1061342Y10524037D01*
X10612991Y1052375D01*
X10612704Y1052332D01*
X10612604Y10522814D01*
Y10515869D01*
X10612704Y10515363D01*
X10612991Y10514934D01*
X1061342Y10514647D01*
X10613927Y10514546D01*
X10619371D01*
X10619878Y10514647D01*
X10620306Y10514934D01*
X10620593Y10515363D01*
X10620695Y10515869D01*
Y10516752D01*
X1064481D01*
Y10403199D01*
X10641378D01*
Y10404575D01*
X10641277Y10405084D01*
X10640988Y10405516D01*
X10640557Y10405804D01*
X10640048Y10405906D01*
X10633116D01*
X10632607Y10405804D01*
X10632177Y10405516D01*
X10631887Y10405084D01*
X10631786Y10404575D01*
Y10396646D01*
X10631887Y10396135D01*
X10632177Y10395704D01*
X10632607Y10395416D01*
X10633116Y10395315D01*
X10640048D01*
X10640557Y10395416D01*
X10640988Y10395704D01*
X10641277Y10396135D01*
X10641378Y10396646D01*
Y1039802D01*
X1064481D01*
Y1034366D01*
X10638282D01*
X10638065Y10343617D01*
X10636802Y10344537D01*
X10636794Y10344552D01*
X10636694Y10345055D01*
X1063641Y10345481D01*
X10635984Y10345765D01*
X10635482Y10345865D01*
X10632017D01*
X10631515Y10345765D01*
X10631089Y10345481D01*
X10630804Y10345055D01*
X10630704Y10344552D01*
Y10337588D01*
X10630804Y10337085D01*
X10631089Y10336659D01*
X10631515Y10336375D01*
X10632017Y10336274D01*
X10635482D01*
X10635984Y10336375D01*
X1063641Y10336659D01*
X10636694Y10337085D01*
X10636794Y10337588D01*
X10636802Y10337603D01*
X10638065Y10338523D01*
X10638282Y1033848D01*
X1064481D01*
Y10309999D01*
X10628719D01*
Y10315581D01*
X1062957Y10316031D01*
X1062972Y10315973D01*
X10630754Y10315337D01*
X10630804Y10315085D01*
X10631089Y10314659D01*
X10631515Y10314375D01*
X10632017Y10314275D01*
X10635482D01*
X10635984Y10314375D01*
X1063641Y10314659D01*
X10636694Y10315085D01*
X10636794Y10315587D01*
Y10322552D01*
X10636694Y10323055D01*
X1063641Y1032348D01*
X10635984Y10323766D01*
X10635482Y10323865D01*
X10632017D01*
X10631515Y10323766D01*
X10631089Y1032348D01*
X10630804Y10323055D01*
X10630704Y10322552D01*
Y10322437D01*
X10630499Y10322196D01*
X10629434Y1032155D01*
X10628884Y1032166D01*
X10569037D01*
Y10391813D01*
X10569973Y10392097D01*
X10571566Y10392948D01*
X10572963Y10394094D01*
X10574109Y10395491D01*
X1057496Y10397084D01*
X10575485Y10398812D01*
X10575662Y1040061D01*
X10575485Y10402407D01*
X1057496Y10404136D01*
X10574109Y10405729D01*
X10572963Y10407125D01*
X10571566Y10408271D01*
X10569973Y10409124D01*
X10568245Y10409647D01*
X10566448Y10409824D01*
X1056465Y10409647D01*
X10562921Y10409124D01*
X10561328Y10408271D01*
X10559932Y10407125D01*
X10559855Y10407031D01*
X10558585Y10407485D01*
Y10430092D01*
X10637501D01*
X10638245Y10430239D01*
X10638875Y1043066D01*
X1063991Y10431696D01*
X10640331Y10432325D01*
X10640479Y10433069D01*
Y10487435D01*
X10640479Y10487437D01*
X10640331Y10488179D01*
X1063991Y1048881D01*
X10638669Y10490049D01*
X1063804Y1049047D01*
X10637296Y10490619D01*
X10588752D01*
X10588752Y10490619D01*
X10588009Y1049047D01*
X10587379Y10490049D01*
X10587379Y10490049D01*
X1058548Y10488151D01*
X10585032Y10488336D01*
X10584994Y10488389D01*
X10584862Y10488678D01*
X1058473Y10489835D01*
X10585005Y10490193D01*
X10585333Y10490988D01*
X10585447Y10491842D01*
X10585333Y10492695D01*
X10585005Y10493491D01*
X1058448Y10494174D01*
X10584459Y10494191D01*
X10584353Y10495518D01*
X10585179Y10496399D01*
X10586812D01*
Y10494877D01*
X10586913Y10494368D01*
X10587201Y10493936D01*
X10587632Y10493647D01*
X10588142Y10493546D01*
X10596072D01*
X10596581Y10493647D01*
X10597013Y10493936D01*
X10597301Y10494368D01*
X10597402Y10494877D01*
Y10496399D01*
X10603104D01*
Y10494869D01*
X10603204Y10494363D01*
X10603491Y10493933D01*
X10603921Y10493647D01*
X10604426Y10493546D01*
X10609872D01*
X10610377Y10493647D01*
X10610807Y10493933D01*
X10611094Y10494363D01*
X10611195Y10494869D01*
Y10501814D01*
X10611094Y10502321D01*
X10610807Y10502749D01*
X10610377Y10503036D01*
X10609872Y10503137D01*
X10604426D01*
X10603921Y10503036D01*
X10603491Y10502749D01*
X10603204Y10502321D01*
X10603104Y10501814D01*
Y10500284D01*
X10597402D01*
Y10501807D01*
X10597301Y10502316D01*
X10597013Y10502748D01*
X10596581Y10503036D01*
X10596072Y10503137D01*
X10588142D01*
X10587632Y10503036D01*
X10587201Y10502748D01*
X10586913Y10502316D01*
X10586812Y10501807D01*
Y10500284D01*
X10585179D01*
X10584353Y10501166D01*
X10584459Y10502494D01*
X1058448Y1050251D01*
X10585005Y10503192D01*
X10585333Y10503988D01*
X10585447Y10504841D01*
X10585333Y10505696D01*
X10585005Y1050649D01*
X1058448Y10507174D01*
X10584291Y10507319D01*
X1058421Y1050751D01*
Y10508673D01*
X10584291Y10508864D01*
X1058448Y1050901D01*
X10585005Y10509692D01*
X10585333Y10510488D01*
X10585447Y10511342D01*
X10585333Y10512195D01*
X10585005Y10512991D01*
X1058448Y10513674D01*
X10583798Y10514198D01*
X10583002Y10514528D01*
X10582148Y1051464D01*
X10580341D01*
Y10530421D01*
X10664189D01*
X10664395Y10530463D01*
X10665515Y10529742D01*
D02*
G37*
G36*
X10719376Y1075714D02*
X10725449Y10755513D01*
X10731259Y10753107D01*
X10736703Y10749963D01*
X10741691Y10746136D01*
X10746136Y10741691D01*
X10749963Y10736703D01*
X10753107Y10731259D01*
X10755513Y10725449D01*
X1075714Y10719376D01*
X10757961Y10713143D01*
X10757961Y1071D01*
Y1071D01*
D01*
Y1005D01*
Y1005D01*
D01*
X10757961Y10046857D01*
X1075714Y10040623D01*
X10755513Y1003455D01*
X10753107Y10028742D01*
X10749963Y10023297D01*
X10746136Y10018309D01*
X10741691Y10013864D01*
X10736703Y10010036D01*
X10731259Y10006893D01*
X10725449Y10004487D01*
X10719376Y10002859D01*
X10713143Y10002039D01*
X10046857D01*
X10040623Y10002859D01*
X1003455Y10004487D01*
X10028742Y10006893D01*
X10023297Y10010036D01*
X10018309Y10013864D01*
X10013864Y10018309D01*
X10010036Y10023297D01*
X10006893Y10028742D01*
X10004487Y1003455D01*
X10002859Y10040623D01*
X10002039Y10046857D01*
Y1005D01*
Y10645139D01*
X10046667Y1064514D01*
X1005Y1064514D01*
X1005Y10195325D01*
X10182721Y10062603D01*
X1018354Y10060627D01*
X10186624Y10055594D01*
X10190458Y10051105D01*
X10194946Y10047272D01*
X10199979Y10044188D01*
X10205432Y10041929D01*
X10211172Y10040551D01*
X10217056Y10040088D01*
X10542938D01*
X10548822Y10040551D01*
X10554562Y10041929D01*
X10560016Y10044188D01*
X10565048Y10047272D01*
X10568242Y1005D01*
X1057197D01*
X10668573Y10146603D01*
X10669172Y10147004D01*
X106741Y10151326D01*
X10678423Y10156253D01*
X10678823Y10156853D01*
X1071Y1018803D01*
X1071Y10643273D01*
X10643273Y1071D01*
X10469805Y1071D01*
X10466549Y10712174D01*
X10461141Y10714841D01*
X10455431Y1071678D01*
X10449517Y10717957D01*
X104435Y10718351D01*
X10437483Y10717957D01*
X10431569Y1071678D01*
X104308Y10716519D01*
X10430032Y1071678D01*
X10424117Y10717957D01*
X10418101Y10718351D01*
X10412083Y10717957D01*
X10406168Y1071678D01*
X104054Y10716519D01*
X10404631Y1071678D01*
X10398717Y10717957D01*
X103927Y10718351D01*
X10386683Y10717957D01*
X10380769Y1071678D01*
X1038Y10716519D01*
X10379231Y1071678D01*
X10373317Y10717957D01*
X103673Y10718351D01*
X10361283Y10717957D01*
X10355369Y1071678D01*
X103546Y10716519D01*
X10353832Y1071678D01*
X10347917Y10717957D01*
X10341899Y10718351D01*
X10335883Y10717957D01*
X10329968Y1071678D01*
X103292Y10716519D01*
X10328431Y1071678D01*
X10322517Y10717957D01*
X103165Y10718351D01*
X10310483Y10717957D01*
X10304569Y1071678D01*
X10298859Y10714841D01*
X10293451Y10712174D01*
X10290195Y10709999D01*
X10114859Y10709999D01*
X1005Y1064514D01*
X10046667Y1064514D01*
X10002039Y10645139D01*
Y1071D01*
Y1071D01*
D01*
X10002039Y10713143D01*
X10002859Y10719376D01*
X10004487Y10725449D01*
X10006893Y10731259D01*
X10010036Y10736703D01*
X10013864Y10741691D01*
X10018309Y10746136D01*
X10023297Y10749963D01*
X10028742Y10753107D01*
X1003455Y10755513D01*
X10040623Y1075714D01*
X10046857Y10757961D01*
X10713143D01*
X10719376Y1075714D01*
D02*
G37*
%LPC*%
G36*
X10482473Y10653055D02*
X1047989D01*
Y10648146D01*
X10483801D01*
Y10651729D01*
X104837Y10652236D01*
X10483413Y10652667D01*
X10482982Y10652955D01*
X10482473Y10653055D01*
D02*
G37*
G36*
X10478621D02*
X10476039D01*
X1047553Y10652955D01*
X10475099Y10652667D01*
X10474812Y10652236D01*
X10474711Y10651729D01*
Y10648146D01*
X10478621D01*
Y10653055D01*
D02*
G37*
G36*
X10483801Y10646875D02*
X1047989D01*
Y10641965D01*
X10482473D01*
X10482982Y10642067D01*
X10483413Y10642354D01*
X104837Y10642784D01*
X10483801Y10643293D01*
Y10646875D01*
D02*
G37*
G36*
X10478621D02*
X10474711D01*
Y10643293D01*
X10474812Y10642784D01*
X10475099Y10642354D01*
X1047553Y10642067D01*
X10476039Y10641965D01*
X10478621D01*
Y10646875D01*
D02*
G37*
G36*
X1054519Y10636649D02*
Y10628313D01*
X10548611D01*
Y10632678D01*
X10548473Y10633727D01*
X10548068Y10634706D01*
X10547423Y10635546D01*
X10546583Y10636189D01*
X10545605Y10636594D01*
X1054519Y10636649D01*
D02*
G37*
G36*
X10543921D02*
X10543507Y10636594D01*
X10542529Y10636189D01*
X10541689Y10635546D01*
X10541045Y10634706D01*
X1054064Y10633727D01*
X10540502Y10632678D01*
Y10628313D01*
X10543921D01*
Y10636649D01*
D02*
G37*
G36*
X1064895Y1063109D02*
Y1062265D01*
X1065739D01*
X10657162Y10623604D01*
X10656483Y10625243D01*
X10655555Y10626755D01*
X10654404Y10628104D01*
X10653054Y10629257D01*
X10651542Y10630183D01*
X10649904Y10630862D01*
X1064895Y1063109D01*
D02*
G37*
G36*
X10643871Y10631091D02*
X10642916Y10630862D01*
X10641278Y10630183D01*
X10639766Y10629257D01*
X10638417Y10628104D01*
X10637264Y10626755D01*
X10636338Y10625243D01*
X10635658Y10623604D01*
X1063543Y1062265D01*
X10643871D01*
Y10631091D01*
D02*
G37*
G36*
X10548611Y10627042D02*
X1054519D01*
Y10618707D01*
X10545605Y10618761D01*
X10546583Y10619166D01*
X10547423Y10619811D01*
X10548068Y10620651D01*
X10548473Y10621628D01*
X10548611Y10622678D01*
Y10627042D01*
D02*
G37*
G36*
X10543921D02*
X10540502D01*
Y10622678D01*
X1054064Y10621628D01*
X10541045Y10620651D01*
X10541689Y10619811D01*
X10542529Y10619166D01*
X10543507Y10618761D01*
X10543921Y10618707D01*
Y10627042D01*
D02*
G37*
G36*
X10531855Y10636732D02*
X10530807Y10636594D01*
X10529829Y10636189D01*
X10528989Y10635546D01*
X10528345Y10634706D01*
X10527939Y10633727D01*
X10527802Y10632678D01*
Y10622678D01*
X10527939Y10621628D01*
X10528345Y10620651D01*
X10528989Y10619811D01*
X10529829Y10619166D01*
X10530807Y10618761D01*
X10531855Y10618623D01*
X10532905Y10618761D01*
X10533883Y10619166D01*
X10534723Y10619811D01*
X10535367Y10620651D01*
X10535773Y10621628D01*
X10535911Y10622678D01*
Y10632678D01*
X10535773Y10633727D01*
X10535367Y10634706D01*
X10534723Y10635546D01*
X10533883Y10636189D01*
X10532905Y10636594D01*
X10531855Y10636732D01*
D02*
G37*
G36*
X10519156D02*
X10518107Y10636594D01*
X10517129Y10636189D01*
X10516289Y10635546D01*
X10515645Y10634706D01*
X10515239Y10633727D01*
X10515101Y10632678D01*
Y10622678D01*
X10515239Y10621628D01*
X10515645Y10620651D01*
X10516289Y10619811D01*
X10517129Y10619166D01*
X10518107Y10618761D01*
X10519156Y10618623D01*
X10520205Y10618761D01*
X10521183Y10619166D01*
X10522023Y10619811D01*
X10522667Y10620651D01*
X10523073Y10621628D01*
X1052321Y10622678D01*
Y10632678D01*
X10523073Y10633727D01*
X10522667Y10634706D01*
X10522023Y10635546D01*
X10521183Y10636189D01*
X10520205Y10636594D01*
X10519156Y10636732D01*
D02*
G37*
G36*
X1065739Y10617571D02*
X1064895D01*
Y1060913D01*
X10649904Y10609359D01*
X10651542Y10610038D01*
X10653054Y10610964D01*
X10654404Y10612117D01*
X10655555Y10613466D01*
X10656483Y10614978D01*
X10657162Y10616616D01*
X1065739Y10617571D01*
D02*
G37*
G36*
X10643871D02*
X1063543D01*
X10635658Y10616616D01*
X10636338Y10614978D01*
X10637264Y10613466D01*
X10638417Y10612117D01*
X10639766Y10610964D01*
X10641278Y10610038D01*
X10642916Y10609359D01*
X10643871Y1060913D01*
Y10617571D01*
D02*
G37*
G36*
X10570591Y10581149D02*
Y10572814D01*
X10574011D01*
Y10577178D01*
X10573872Y10578228D01*
X10573467Y10579205D01*
X10572823Y10580045D01*
X10571984Y1058069D01*
X10571006Y10581095D01*
X10570591Y10581149D01*
D02*
G37*
G36*
X10494391D02*
Y10572814D01*
X10497811D01*
Y10577178D01*
X10497672Y10578228D01*
X10497267Y10579205D01*
X10496624Y10580045D01*
X10495784Y1058069D01*
X10494806Y10581095D01*
X10494391Y10581149D01*
D02*
G37*
G36*
X10532491D02*
Y10572814D01*
X10535911D01*
Y10577178D01*
X10535773Y10578228D01*
X10535367Y10579205D01*
X10534723Y10580045D01*
X10533883Y1058069D01*
X10532905Y10581095D01*
X10532491Y10581149D01*
D02*
G37*
G36*
X10569321D02*
X10568906Y10581095D01*
X10567928Y1058069D01*
X10567089Y10580045D01*
X10566444Y10579205D01*
X1056604Y10578228D01*
X10565901Y10577178D01*
Y10572814D01*
X10569321D01*
Y10581149D01*
D02*
G37*
G36*
X10493121D02*
X10492706Y10581095D01*
X10491729Y1058069D01*
X10490889Y10580045D01*
X10490244Y10579205D01*
X1048984Y10578228D01*
X10489701Y10577178D01*
Y10572814D01*
X10493121D01*
Y10581149D01*
D02*
G37*
G36*
X10574011Y10571543D02*
X10570591D01*
Y10563207D01*
X10571006Y10563262D01*
X10571984Y10563667D01*
X10572823Y1056431D01*
X10573467Y1056515D01*
X10573872Y10566129D01*
X10574011Y10567178D01*
Y10571543D01*
D02*
G37*
G36*
X10535911D02*
X10532491D01*
Y10563207D01*
X10532905Y10563262D01*
X10533883Y10563667D01*
X10534723Y1056431D01*
X10535367Y1056515D01*
X10535773Y10566129D01*
X10535911Y10567178D01*
Y10571543D01*
D02*
G37*
G36*
X10497811D02*
X10494391D01*
Y10563207D01*
X10494806Y10563262D01*
X10495784Y10563667D01*
X10496624Y1056431D01*
X10497267Y1056515D01*
X10497672Y10566129D01*
X10497811Y10567178D01*
Y10571543D01*
D02*
G37*
G36*
X10569321D02*
X10565901D01*
Y10567178D01*
X1056604Y10566129D01*
X10566444Y1056515D01*
X10567089Y1056431D01*
X10567928Y10563667D01*
X10568906Y10563262D01*
X10569321Y10563207D01*
Y10571543D01*
D02*
G37*
G36*
X10493121D02*
X10489701D01*
Y10567178D01*
X1048984Y10566129D01*
X10490244Y1056515D01*
X10490889Y1056431D01*
X10491729Y10563667D01*
X10492706Y10563262D01*
X10493121Y10563207D01*
Y10571543D01*
D02*
G37*
G36*
X1041781Y10558153D02*
X1041676Y10558014D01*
X10415782Y1055761D01*
X10414943Y10556965D01*
X10414298Y10556125D01*
X10413894Y10555148D01*
X10413755Y10554098D01*
Y10542598D01*
X10413894Y10541549D01*
X10414298Y10540571D01*
X10414943Y10539731D01*
X10415782Y10539087D01*
X1041676Y10538682D01*
X1041781Y10538544D01*
X1041886Y10538682D01*
X10419838Y10539087D01*
X10420677Y10539731D01*
X10421321Y10540571D01*
X10421726Y10541549D01*
X10421865Y10542598D01*
Y10554098D01*
X10421726Y10555148D01*
X10421321Y10556125D01*
X10420677Y10556965D01*
X10419838Y1055761D01*
X1041886Y10558014D01*
X1041781Y10558153D01*
D02*
G37*
G36*
X10505085Y10523887D02*
X10501503D01*
Y10519976D01*
X10506414D01*
Y10522559D01*
X10506312Y10523068D01*
X10506024Y10523499D01*
X10505593Y10523787D01*
X10505085Y10523887D01*
D02*
G37*
G36*
X10500233D02*
X1049665D01*
X10496143Y10523787D01*
X10495712Y10523499D01*
X10495424Y10523068D01*
X10495322Y10522559D01*
Y10519976D01*
X10500233D01*
Y10523887D01*
D02*
G37*
G36*
X10506414Y10518706D02*
X10501503D01*
Y10514796D01*
X10505085D01*
X10505593Y10514897D01*
X10506024Y10515186D01*
X10506312Y10515616D01*
X10506414Y10516124D01*
Y10518706D01*
D02*
G37*
G36*
X10500233D02*
X10495322D01*
Y10516124D01*
X10495424Y10515616D01*
X10495712Y10515186D01*
X10496143Y10514897D01*
X1049665Y10514796D01*
X10500233D01*
Y10518706D01*
D02*
G37*
G36*
X10442715Y10572693D02*
X103805D01*
X10379757Y10572544D01*
X10379127Y10572123D01*
X10378336Y10571333D01*
X10377915Y10570703D01*
X10377767Y1056996D01*
Y10557645D01*
X10377683Y1055761D01*
X10376843Y10556965D01*
X10376199Y10556125D01*
X10375793Y10555148D01*
X10375656Y10554098D01*
Y10542598D01*
X10375793Y10541549D01*
X10376199Y10540571D01*
X10376843Y10539731D01*
X10377683Y10539087D01*
X10378661Y10538682D01*
X10379709Y10538544D01*
X10380759Y10538682D01*
X10381737Y10539087D01*
X10382577Y10539731D01*
X10383221Y10540571D01*
X10383627Y10541549D01*
X10383765Y10542598D01*
Y10554098D01*
X10383627Y10555148D01*
X10383221Y10556125D01*
X10382577Y10556965D01*
X10381737Y1055761D01*
X10381653Y10557645D01*
Y10568807D01*
X10441558D01*
Y1052686D01*
X10440704Y10526602D01*
X10439441Y10525927D01*
X10438335Y10525017D01*
X10437426Y1052391D01*
X1043675Y10522648D01*
X10436335Y10521277D01*
X10436195Y10519852D01*
X10436335Y10518427D01*
X1043675Y10517057D01*
X10437426Y10515793D01*
X10438335Y10514686D01*
X10439441Y10513778D01*
X10440704Y10513103D01*
X10442075Y10512687D01*
X104435Y10512546D01*
X10444926Y10512687D01*
X10446295Y10513103D01*
X10447559Y10513778D01*
X10448666Y10514686D01*
X10449574Y10515793D01*
X10450249Y10517057D01*
X10450665Y10518427D01*
X10450806Y10519852D01*
X10450665Y10521277D01*
X10450249Y10522648D01*
X10449574Y1052391D01*
X10448666Y10525017D01*
X10447559Y10525927D01*
X10446295Y10526602D01*
X10445442Y1052686D01*
Y10569965D01*
X10445442Y10569965D01*
X10445294Y10570708D01*
X10444873Y10571338D01*
X10444088Y10572123D01*
X10443458Y10572544D01*
X10442715Y10572693D01*
D02*
G37*
G36*
X1040511Y10558153D02*
X1040406Y10558014D01*
X10403082Y1055761D01*
X10402242Y10556965D01*
X10401599Y10556125D01*
X10401194Y10555148D01*
X10401056Y10554098D01*
Y10542598D01*
X10401194Y10541549D01*
X10401599Y10540571D01*
X10402242Y10539731D01*
X10403082Y10539087D01*
X10403168Y10539052D01*
Y10520659D01*
X10403315Y10519916D01*
X10403737Y10519286D01*
X10404543Y10518479D01*
X10404543Y10518479D01*
X10405173Y10518058D01*
X10405917Y1051791D01*
X10405917Y1051791D01*
X10411093D01*
X10411351Y10517057D01*
X10412026Y10515793D01*
X10412935Y10514686D01*
X10414042Y10513778D01*
X10415304Y10513103D01*
X10416675Y10512687D01*
X10418101Y10512546D01*
X10419525Y10512687D01*
X10420896Y10513103D01*
X10422158Y10513778D01*
X10423265Y10514686D01*
X10424174Y10515793D01*
X10424849Y10517057D01*
X10425265Y10518427D01*
X10425405Y10519852D01*
X10425265Y10521277D01*
X10424849Y10522648D01*
X10424174Y1052391D01*
X10423265Y10525017D01*
X10422158Y10525927D01*
X10420896Y10526602D01*
X10419525Y10527017D01*
X10418101Y10527157D01*
X10416675Y10527017D01*
X10415304Y10526602D01*
X10414042Y10525927D01*
X10412935Y10525017D01*
X10412026Y1052391D01*
X10411351Y10522648D01*
X10411093Y10521794D01*
X10407052D01*
Y10539052D01*
X10407137Y10539087D01*
X10407977Y10539731D01*
X10408622Y10540571D01*
X10409027Y10541549D01*
X10409165Y10542598D01*
Y10554098D01*
X10409027Y10555148D01*
X10408622Y10556125D01*
X10407977Y10556965D01*
X10407137Y1055761D01*
X1040616Y10558014D01*
X1040511Y10558153D01*
D02*
G37*
G36*
X1039241D02*
X10391361Y10558014D01*
X10390383Y1055761D01*
X10389543Y10556965D01*
X10388899Y10556125D01*
X10388494Y10555148D01*
X10388356Y10554098D01*
Y10542598D01*
X10388494Y10541549D01*
X10388899Y10540571D01*
X10389543Y10539731D01*
X10390383Y10539087D01*
X10390468Y10539052D01*
Y10526772D01*
X10389905Y10526602D01*
X10388641Y10525927D01*
X10387534Y10525017D01*
X10386626Y1052391D01*
X10385951Y10522648D01*
X10385535Y10521277D01*
X10385394Y10519852D01*
X10385535Y10518427D01*
X10385951Y10517057D01*
X10386626Y10515793D01*
X10387534Y10514686D01*
X10388641Y10513778D01*
X10389905Y10513103D01*
X10391274Y10512687D01*
X103927Y10512546D01*
X10394125Y10512687D01*
X10395496Y10513103D01*
X10396759Y10513778D01*
X10397865Y10514686D01*
X10398774Y10515793D01*
X10399449Y10517057D01*
X10399865Y10518427D01*
X10400005Y10519852D01*
X10399865Y10521277D01*
X10399449Y10522648D01*
X10398774Y1052391D01*
X10397865Y10525017D01*
X10396759Y10525927D01*
X10395496Y10526602D01*
X10394352Y10526948D01*
Y10539052D01*
X10394437Y10539087D01*
X10395277Y10539731D01*
X10395922Y10540571D01*
X10396327Y10541549D01*
X10396465Y10542598D01*
Y10554098D01*
X10396327Y10555148D01*
X10395922Y10556125D01*
X10395277Y10556965D01*
X10394437Y1055761D01*
X10393459Y10558014D01*
X1039241Y10558153D01*
D02*
G37*
G36*
X1038437Y10511147D02*
X10381787D01*
Y10506237D01*
X10385698D01*
Y10509819D01*
X10385597Y10510327D01*
X10385309Y10510758D01*
X10384878Y10511046D01*
X1038437Y10511147D01*
D02*
G37*
G36*
X10380518D02*
X10377935D01*
X10377427Y10511046D01*
X10376996Y10510758D01*
X10376708Y10510327D01*
X10376606Y10509819D01*
Y10506237D01*
X10380518D01*
Y10511147D01*
D02*
G37*
G36*
X10385698Y10504967D02*
X10381787D01*
Y10500056D01*
X1038437D01*
X10384878Y10500157D01*
X10385309Y10500446D01*
X10385597Y10500875D01*
X10385698Y10501384D01*
Y10504967D01*
D02*
G37*
G36*
X10380518D02*
X10376606D01*
Y10501384D01*
X10376708Y10500875D01*
X10376996Y10500446D01*
X10377427Y10500157D01*
X10377935Y10500056D01*
X10380518D01*
Y10504967D01*
D02*
G37*
G36*
X10453796Y10473396D02*
X10452931D01*
Y10469977D01*
X10457767D01*
X10457712Y10470391D01*
X10457307Y10471368D01*
X10456663Y10472208D01*
X10455824Y10472853D01*
X10454845Y10473258D01*
X10453796Y10473396D01*
D02*
G37*
G36*
X10451661D02*
X10450796D01*
X10449746Y10473258D01*
X10448768Y10472853D01*
X10447928Y10472208D01*
X10447284Y10471368D01*
X1044688Y10470391D01*
X10446825Y10469977D01*
X10451661D01*
Y10473396D01*
D02*
G37*
G36*
X10457767Y10468707D02*
X10452931D01*
Y10465287D01*
X10453796D01*
X10454845Y10465425D01*
X10455824Y1046583D01*
X10456663Y10466475D01*
X10457307Y10467314D01*
X10457712Y10468292D01*
X10457767Y10468707D01*
D02*
G37*
G36*
X10451661D02*
X10446825D01*
X1044688Y10468292D01*
X10447284Y10467314D01*
X10447928Y10466475D01*
X10448768Y1046583D01*
X10449746Y10465425D01*
X10450796Y10465287D01*
X10451661D01*
Y10468707D01*
D02*
G37*
G36*
X10508134Y10468887D02*
X10504551D01*
Y10464977D01*
X10509462D01*
Y10467559D01*
X1050936Y10468068D01*
X10509072Y10468499D01*
X10508641Y10468787D01*
X10508134Y10468887D01*
D02*
G37*
G36*
X10503281D02*
X10499698D01*
X10499191Y10468787D01*
X1049876Y10468499D01*
X10498472Y10468068D01*
X1049837Y10467559D01*
Y10464977D01*
X10503281D01*
Y10468887D01*
D02*
G37*
G36*
X10433142Y10468884D02*
X10429561D01*
Y10464974D01*
X1043447D01*
Y10467556D01*
X10434369Y10468065D01*
X10434081Y10468496D01*
X1043365Y10468783D01*
X10433142Y10468884D01*
D02*
G37*
G36*
X1042829D02*
X10424707D01*
X10424198Y10468783D01*
X10423767Y10468496D01*
X1042348Y10468065D01*
X10423379Y10467556D01*
Y10464974D01*
X1042829D01*
Y10468884D01*
D02*
G37*
G36*
X10509462Y10463707D02*
X10504551D01*
Y10459796D01*
X10508134D01*
X10508641Y10459897D01*
X10509072Y10460186D01*
X1050936Y10460616D01*
X10509462Y10461124D01*
Y10463707D01*
D02*
G37*
G36*
X10503281D02*
X1049837D01*
Y10461124D01*
X10498472Y10460616D01*
X1049876Y10460186D01*
X10499191Y10459897D01*
X10499698Y10459796D01*
X10503281D01*
Y10463707D01*
D02*
G37*
G36*
X1043447Y10463705D02*
X10429561D01*
Y10459794D01*
X10433142D01*
X1043365Y10459895D01*
X10434081Y10460182D01*
X10434369Y10460613D01*
X1043447Y10461122D01*
Y10463705D01*
D02*
G37*
G36*
X1042829D02*
X10423379D01*
Y10461122D01*
X1042348Y10460613D01*
X10423767Y10460182D01*
X10424198Y10459895D01*
X10424707Y10459794D01*
X1042829D01*
Y10463705D01*
D02*
G37*
G36*
X10478296Y10463896D02*
X10475295D01*
X10474247Y10463759D01*
X10473269Y10463353D01*
X10472429Y10462709D01*
X10471785Y10461869D01*
X10471379Y10460891D01*
X10471241Y10459841D01*
X10471379Y10458793D01*
X10471785Y10457815D01*
X10472429Y10456975D01*
X10473269Y10456331D01*
X10474247Y10455925D01*
X10475295Y10455787D01*
X10478296D01*
X10479346Y10455925D01*
X10480323Y10456331D01*
X10481163Y10456975D01*
X10481808Y10457815D01*
X10482213Y10458793D01*
X10482351Y10459841D01*
X10482213Y10460891D01*
X10481808Y10461869D01*
X10481163Y10462709D01*
X10480323Y10463353D01*
X10479346Y10463759D01*
X10478296Y10463896D01*
D02*
G37*
G36*
X10442538Y10426742D02*
Y10403149D01*
X10458809D01*
Y1040811D01*
X10458647Y10410565D01*
X10458168Y10412979D01*
X10457377Y10415309D01*
X10456288Y10417515D01*
X10454921Y10419561D01*
X10453298Y10421411D01*
X10451449Y10423033D01*
X10449403Y10424401D01*
X10447196Y10425488D01*
X10444867Y10426279D01*
X10442538Y10426742D01*
D02*
G37*
G36*
X10437458D02*
X10435129Y10426279D01*
X10432799Y10425488D01*
X10430593Y10424401D01*
X10428547Y10423033D01*
X10426697Y10421411D01*
X10425074Y10419561D01*
X10423707Y10417515D01*
X1042262Y10415309D01*
X10421829Y10412979D01*
X10421349Y10410565D01*
X10421188Y1040811D01*
Y10403149D01*
X10437458D01*
Y10426742D01*
D02*
G37*
G36*
X10458809Y1039807D02*
X10442538D01*
Y10374478D01*
X10444867Y1037494D01*
X10447196Y10375731D01*
X10449403Y1037682D01*
X10451449Y10378187D01*
X10453298Y1037981D01*
X10454921Y10381659D01*
X10456288Y10383705D01*
X10457377Y10385912D01*
X10458168Y10388241D01*
X10458647Y10390654D01*
X10458809Y1039311D01*
Y1039807D01*
D02*
G37*
G36*
X10437458D02*
X10421188D01*
Y1039311D01*
X10421349Y10390654D01*
X10421829Y10388241D01*
X1042262Y10385912D01*
X10423707Y10383705D01*
X10425074Y10381659D01*
X10426697Y1037981D01*
X10428547Y10378187D01*
X10430593Y1037682D01*
X10432799Y10375731D01*
X10435129Y1037494D01*
X10437458Y10374478D01*
Y1039807D01*
D02*
G37*
G36*
X10391512Y10368783D02*
X1038793D01*
Y10364873D01*
X10392841D01*
Y10367456D01*
X10392739Y10367964D01*
X10392451Y10368395D01*
X1039202Y10368683D01*
X10391512Y10368783D01*
D02*
G37*
G36*
X1038666D02*
X10383077D01*
X1038257Y10368683D01*
X10382139Y10368395D01*
X10381851Y10367964D01*
X10381749Y10367456D01*
Y10364873D01*
X1038666D01*
Y10368783D01*
D02*
G37*
G36*
X10502188Y10369507D02*
Y10364697D01*
X10506997D01*
X1050686Y10365145D01*
X10506139Y10366495D01*
X10505168Y10367678D01*
X10503986Y10368649D01*
X10502635Y1036937D01*
X10502188Y10369507D01*
D02*
G37*
G36*
X10476787D02*
Y10364697D01*
X10481597D01*
X10481461Y10365145D01*
X1048074Y10366495D01*
X10479768Y10367678D01*
X10478585Y10368649D01*
X10477235Y1036937D01*
X10476787Y10369507D01*
D02*
G37*
G36*
X10497107Y10369506D02*
X1049666Y1036937D01*
X1049531Y10368649D01*
X10494127Y10367678D01*
X10493156Y10366495D01*
X10492434Y10365145D01*
X10492299Y10364697D01*
X10497107D01*
Y10369506D01*
D02*
G37*
G36*
X10471707D02*
X1047126Y1036937D01*
X1046991Y10368649D01*
X10468727Y10367678D01*
X10467755Y10366495D01*
X10467034Y10365145D01*
X10466898Y10364697D01*
X10471707D01*
Y10369506D01*
D02*
G37*
G36*
X10499647Y10362157D02*
D01*
D01*
D01*
D02*
G37*
G36*
X10392841Y10363604D02*
X1038793D01*
Y10359692D01*
X10391512D01*
X1039202Y10359794D01*
X10392451Y10360082D01*
X10392739Y10360513D01*
X10392841Y10361021D01*
Y10363604D01*
D02*
G37*
G36*
X1038666D02*
X10381749D01*
Y10361021D01*
X10381851Y10360513D01*
X10382139Y10360082D01*
X1038257Y10359794D01*
X10383077Y10359692D01*
X1038666D01*
Y10363604D01*
D02*
G37*
G36*
X10497107Y10359617D02*
X10492299D01*
X10492434Y10359169D01*
X10493156Y1035782D01*
X10494127Y10356637D01*
X1049531Y10355665D01*
X1049666Y10354944D01*
X10497107Y10354808D01*
Y10359617D01*
D02*
G37*
G36*
X10471707D02*
X10466898D01*
X10467034Y10359169D01*
X10467755Y1035782D01*
X10468727Y10356637D01*
X1046991Y10355665D01*
X1047126Y10354944D01*
X10471707Y10354808D01*
Y10359617D01*
D02*
G37*
G36*
X10506997D02*
X10502188D01*
Y10354808D01*
X10502635Y10354944D01*
X10503986Y10355665D01*
X10505168Y10356637D01*
X10506139Y1035782D01*
X1050686Y10359169D01*
X10506997Y10359617D01*
D02*
G37*
G36*
X10481597D02*
X10476787D01*
Y10354808D01*
X10477235Y10354944D01*
X10478585Y10355665D01*
X10479768Y10356637D01*
X1048074Y1035782D01*
X10481461Y10359169D01*
X10481597Y10359617D01*
D02*
G37*
G36*
X10502441Y10344106D02*
Y10339297D01*
X10507251D01*
X10507114Y10339745D01*
X10506393Y10341095D01*
X10505422Y10342278D01*
X1050424Y10343248D01*
X10502889Y10343971D01*
X10502441Y10344106D01*
D02*
G37*
G36*
X10497362Y10344106D02*
X10496914Y10343971D01*
X10495564Y10343248D01*
X10494381Y10342278D01*
X10493409Y10341095D01*
X10492688Y10339745D01*
X10492552Y10339297D01*
X10497362D01*
Y10344106D01*
D02*
G37*
G36*
X10407538Y10340571D02*
Y10333149D01*
X1041496D01*
X10414532Y10334559D01*
X10413579Y10336343D01*
X10412295Y10337906D01*
X10410731Y10339191D01*
X10408948Y10340144D01*
X10407538Y10340571D01*
D02*
G37*
G36*
X10402458D02*
X10401049Y10340144D01*
X10399265Y10339191D01*
X10397701Y10337906D01*
X10396417Y10336343D01*
X10395464Y10334559D01*
X10395037Y10333149D01*
X10402458D01*
Y10340571D01*
D02*
G37*
G36*
X10507251Y10334218D02*
X10502441D01*
Y10329408D01*
X10502889Y10329543D01*
X1050424Y10330265D01*
X10505422Y10331237D01*
X10506393Y10332419D01*
X10507114Y1033377D01*
X10507251Y10334218D01*
D02*
G37*
G36*
X10497362D02*
X10492552D01*
X10492688Y1033377D01*
X10493409Y10332419D01*
X10494381Y10331237D01*
X10495564Y10330265D01*
X10496914Y10329543D01*
X10497362Y10329408D01*
Y10334218D01*
D02*
G37*
G36*
X10380345Y10651069D02*
Y10641982D01*
X10383765D01*
Y10647098D01*
X10383627Y10648147D01*
X10383221Y10649126D01*
X10382577Y10649965D01*
X10381737Y10650609D01*
X10380759Y10651014D01*
X10380345Y10651069D01*
D02*
G37*
G36*
X10379075D02*
X10378661Y10651014D01*
X10377683Y10650609D01*
X10376843Y10649965D01*
X10376199Y10649126D01*
X10375793Y10648147D01*
X10375656Y10647098D01*
Y10641982D01*
X10379075D01*
Y10651069D01*
D02*
G37*
G36*
X10383765Y10640713D02*
X10380345D01*
Y10631627D01*
X10380759Y10631681D01*
X10381737Y10632086D01*
X10382577Y10632731D01*
X10383221Y10633571D01*
X10383627Y10634548D01*
X10383765Y10635598D01*
Y10640713D01*
D02*
G37*
G36*
X10379075D02*
X10375656D01*
Y10635598D01*
X10375793Y10634548D01*
X10376199Y10633571D01*
X10376843Y10632731D01*
X10377683Y10632086D01*
X10378661Y10631681D01*
X10379075Y10631627D01*
Y10640713D01*
D02*
G37*
G36*
X1036701Y10651152D02*
X10365961Y10651014D01*
X10364983Y10650609D01*
X10364143Y10649965D01*
X10363499Y10649126D01*
X10363093Y10648147D01*
X10362955Y10647098D01*
Y10635598D01*
X10363093Y10634548D01*
X10363499Y10633571D01*
X10364143Y10632731D01*
X10364983Y10632086D01*
X10365961Y10631681D01*
X1036701Y10631543D01*
X10368059Y10631681D01*
X10369037Y10632086D01*
X10369877Y10632731D01*
X10370521Y10633571D01*
X10370927Y10634548D01*
X10371064Y10635598D01*
Y10647098D01*
X10370927Y10648147D01*
X10370521Y10649126D01*
X10369877Y10649965D01*
X10369037Y10650609D01*
X10368059Y10651014D01*
X1036701Y10651152D01*
D02*
G37*
G36*
X10316844Y10651069D02*
Y10641982D01*
X10320265D01*
Y10647098D01*
X10320127Y10648147D01*
X10319722Y10649126D01*
X10319077Y10649965D01*
X10318237Y10650609D01*
X1031726Y10651014D01*
X10316844Y10651069D01*
D02*
G37*
G36*
X10315575D02*
X10315161Y10651014D01*
X10314182Y10650609D01*
X10313344Y10649965D01*
X10312699Y10649126D01*
X10312294Y10648147D01*
X10312156Y10647098D01*
Y10641982D01*
X10315575D01*
Y10651069D01*
D02*
G37*
G36*
X10320265Y10640713D02*
X10316844D01*
Y10631627D01*
X1031726Y10631681D01*
X10318237Y10632086D01*
X10319077Y10632731D01*
X10319722Y10633571D01*
X10320127Y10634548D01*
X10320265Y10635598D01*
Y10640713D01*
D02*
G37*
G36*
X10315575D02*
X10312156D01*
Y10635598D01*
X10312294Y10634548D01*
X10312699Y10633571D01*
X10313344Y10632731D01*
X10314182Y10632086D01*
X10315161Y10631681D01*
X10315575Y10631627D01*
Y10640713D01*
D02*
G37*
G36*
X1032891Y10651152D02*
X1032786Y10651014D01*
X10326882Y10650609D01*
X10326042Y10649965D01*
X10325399Y10649126D01*
X10324994Y10648147D01*
X10324855Y10647098D01*
Y10635598D01*
X10324994Y10634548D01*
X10325399Y10633571D01*
X10326042Y10632731D01*
X10326882Y10632086D01*
X1032786Y10631681D01*
X1032891Y10631543D01*
X1032996Y10631681D01*
X10330938Y10632086D01*
X10331777Y10632731D01*
X10332422Y10633571D01*
X10332826Y10634548D01*
X10332965Y10635598D01*
Y10647098D01*
X10332826Y10648147D01*
X10332422Y10649126D01*
X10331777Y10649965D01*
X10330938Y10650609D01*
X1032996Y10651014D01*
X1032891Y10651152D01*
D02*
G37*
G36*
X1030351D02*
X10302461Y10651014D01*
X10301483Y10650609D01*
X10300643Y10649965D01*
X10299999Y10649126D01*
X10299594Y10648147D01*
X10299456Y10647098D01*
Y10635598D01*
X10299594Y10634548D01*
X10299999Y10633571D01*
X10300643Y10632731D01*
X10301483Y10632086D01*
X10302461Y10631681D01*
X1030351Y10631543D01*
X10304559Y10631681D01*
X10305537Y10632086D01*
X10306377Y10632731D01*
X10307021Y10633571D01*
X10307427Y10634548D01*
X10307565Y10635598D01*
Y10647098D01*
X10307427Y10648147D01*
X10307021Y10649126D01*
X10306377Y10649965D01*
X10305537Y10650609D01*
X10304559Y10651014D01*
X1030351Y10651152D01*
D02*
G37*
G36*
X10112872Y1063147D02*
Y10626661D01*
X10117681D01*
X10117545Y10627109D01*
X10116823Y10628458D01*
X10115852Y10629642D01*
X10114669Y10630613D01*
X10113319Y10631334D01*
X10112872Y1063147D01*
D02*
G37*
G36*
X10107792Y1063147D02*
X10107344Y10631334D01*
X10105994Y10630613D01*
X10104811Y10629642D01*
X1010384Y10628458D01*
X10103118Y10627109D01*
X10102982Y10626661D01*
X10107792D01*
Y1063147D01*
D02*
G37*
G36*
X10117681Y10621581D02*
X10112872D01*
Y10616772D01*
X10113319Y10616908D01*
X10114669Y10617629D01*
X10115852Y106186D01*
X10116823Y10619784D01*
X10117545Y10621133D01*
X10117681Y10621581D01*
D02*
G37*
G36*
X10107792D02*
X10102982D01*
X10103118Y10621133D01*
X1010384Y10619784D01*
X10104811Y106186D01*
X10105994Y10617629D01*
X10107344Y10616908D01*
X10107792Y10616772D01*
Y10621581D01*
D02*
G37*
G36*
X10112872Y10606071D02*
Y10601261D01*
X10117681D01*
X10117545Y10601709D01*
X10116823Y10603059D01*
X10115852Y10604242D01*
X10114669Y10605212D01*
X10113319Y10605934D01*
X10112872Y10606071D01*
D02*
G37*
G36*
X10107792Y10606071D02*
X10107344Y10605934D01*
X10105994Y10605212D01*
X10104811Y10604242D01*
X1010384Y10603059D01*
X10103118Y10601709D01*
X10102982Y10601261D01*
X10107792D01*
Y10606071D01*
D02*
G37*
G36*
X1022958Y1062161D02*
X10223458D01*
Y10600103D01*
X10230964D01*
Y10620226D01*
X10230859Y10620756D01*
X10230558Y10621205D01*
X1023011Y10621504D01*
X1022958Y1062161D01*
D02*
G37*
G36*
X10218378D02*
X10212255D01*
X10211725Y10621504D01*
X10211276Y10621205D01*
X10210977Y10620756D01*
X10210871Y10620226D01*
Y10600103D01*
X10218378D01*
Y1062161D01*
D02*
G37*
G36*
X10117681Y1059618D02*
X10112872D01*
Y10591372D01*
X10113319Y10591508D01*
X10114669Y10592229D01*
X10115852Y10593201D01*
X10116823Y10594384D01*
X10117545Y10595734D01*
X10117681Y1059618D01*
D02*
G37*
G36*
X10107792D02*
X10102982D01*
X10103118Y10595734D01*
X1010384Y10594384D01*
X10104811Y10593201D01*
X10105994Y10592229D01*
X10107344Y10591508D01*
X10107792Y10591372D01*
Y1059618D01*
D02*
G37*
G36*
X10112872Y1058067D02*
Y10575861D01*
X10117681D01*
X10117545Y10576309D01*
X10116823Y10577659D01*
X10115852Y10578842D01*
X10114669Y10579813D01*
X10113319Y10580535D01*
X10112872Y1058067D01*
D02*
G37*
G36*
X10107792Y1058067D02*
X10107344Y10580535D01*
X10105994Y10579813D01*
X10104811Y10578842D01*
X1010384Y10577659D01*
X10103118Y10576309D01*
X10102982Y10575861D01*
X10107792D01*
Y1058067D01*
D02*
G37*
G36*
X10230964Y10595022D02*
X10223458D01*
Y10573517D01*
X1022958D01*
X1023011Y10573622D01*
X10230558Y10573922D01*
X10230859Y10574371D01*
X10230964Y10574901D01*
Y10595022D01*
D02*
G37*
G36*
X10218378D02*
X10210871D01*
Y10574901D01*
X10210977Y10574371D01*
X10211276Y10573922D01*
X10211725Y10573622D01*
X10212255Y10573517D01*
X10218378D01*
Y10595022D01*
D02*
G37*
G36*
X10117681Y10570781D02*
X10112872D01*
Y10565972D01*
X10113319Y10566108D01*
X10114669Y1056683D01*
X10115852Y105678D01*
X10116823Y10568983D01*
X10117545Y10570333D01*
X10117681Y10570781D01*
D02*
G37*
G36*
X10107792D02*
X10102982D01*
X10103118Y10570333D01*
X1010384Y10568983D01*
X10104811Y105678D01*
X10105994Y1056683D01*
X10107344Y10566108D01*
X10107792Y10565972D01*
Y10570781D01*
D02*
G37*
G36*
X10112872Y1055527D02*
Y10550461D01*
X10117681D01*
X10117545Y10550909D01*
X10116823Y10552258D01*
X10115852Y10553442D01*
X10114669Y10554413D01*
X10113319Y10555134D01*
X10112872Y1055527D01*
D02*
G37*
G36*
X10107792Y1055527D02*
X10107344Y10555134D01*
X10105994Y10554413D01*
X10104811Y10553442D01*
X1010384Y10552258D01*
X10103118Y10550909D01*
X10102982Y10550461D01*
X10107792D01*
Y1055527D01*
D02*
G37*
G36*
X10117681Y10545381D02*
X10112872D01*
Y10540573D01*
X10113319Y10540708D01*
X10114669Y10541429D01*
X10115852Y105424D01*
X10116823Y10543584D01*
X10117545Y10544933D01*
X10117681Y10545381D01*
D02*
G37*
G36*
X10107792D02*
X10102982D01*
X10103118Y10544933D01*
X1010384Y10543584D01*
X10104811Y105424D01*
X10105994Y10541429D01*
X10107344Y10540708D01*
X10107792Y10540573D01*
Y10545381D01*
D02*
G37*
G36*
X10112872Y10529871D02*
Y10525061D01*
X10117681D01*
X10117545Y10525509D01*
X10116823Y10526859D01*
X10115852Y10528042D01*
X10114669Y10529012D01*
X10113319Y10529734D01*
X10112872Y10529871D01*
D02*
G37*
G36*
X10107792Y10529871D02*
X10107344Y10529734D01*
X10105994Y10529012D01*
X10104811Y10528042D01*
X1010384Y10526859D01*
X10103118Y10525509D01*
X10102982Y10525061D01*
X10107792D01*
Y10529871D01*
D02*
G37*
G36*
X10117681Y1051998D02*
X10112872D01*
Y10515172D01*
X10113319Y10515308D01*
X10114669Y10516029D01*
X10115852Y10517001D01*
X10116823Y10518184D01*
X10117545Y10519534D01*
X10117681Y1051998D01*
D02*
G37*
G36*
X10107792D02*
X10102982D01*
X10103118Y10519534D01*
X1010384Y10518184D01*
X10104811Y10517001D01*
X10105994Y10516029D01*
X10107344Y10515308D01*
X10107792Y10515172D01*
Y1051998D01*
D02*
G37*
G36*
X10112872Y10496156D02*
Y10482803D01*
X10119144D01*
Y10487762D01*
X10118975Y10489481D01*
X10118473Y10491135D01*
X10117659Y10492659D01*
X10116562Y10493994D01*
X10115228Y1049509D01*
X10113704Y10495905D01*
X10112872Y10496156D01*
D02*
G37*
G36*
X10107792Y10496157D02*
X10106959Y10495905D01*
X10105436Y1049509D01*
X101041Y10493994D01*
X10103004Y10492659D01*
X1010219Y10491135D01*
X10101688Y10489481D01*
X10101519Y10487762D01*
Y10482803D01*
X10107792D01*
Y10496157D01*
D02*
G37*
G36*
X10324154Y10486741D02*
X10318496D01*
Y10482736D01*
X10325502D01*
Y10485393D01*
X10325399Y10485908D01*
X10325107Y10486346D01*
X10324669Y10486638D01*
X10324154Y10486741D01*
D02*
G37*
G36*
X10313416D02*
X10307759D01*
X10307242Y10486638D01*
X10306805Y10486346D01*
X10306512Y10485908D01*
X1030641Y10485393D01*
Y10482736D01*
X10313416D01*
Y10486741D01*
D02*
G37*
G36*
X10325502Y10477655D02*
X10318496D01*
Y1047365D01*
X10324154D01*
X10324669Y10473752D01*
X10325107Y10474044D01*
X10325399Y10474481D01*
X10325502Y10474998D01*
Y10477655D01*
D02*
G37*
G36*
X10313416D02*
X1030641D01*
Y10474998D01*
X10306512Y10474481D01*
X10306805Y10474044D01*
X10307242Y10473752D01*
X10307759Y1047365D01*
X10313416D01*
Y10477655D01*
D02*
G37*
G36*
X10119144Y10477723D02*
X10112872D01*
Y10464369D01*
X10113704Y1046462D01*
X10115228Y10465436D01*
X10116562Y10466531D01*
X10117659Y10467866D01*
X10118473Y1046939D01*
X10118975Y10471044D01*
X10119144Y10472762D01*
Y10477723D01*
D02*
G37*
G36*
X10107792D02*
X10101519D01*
Y10472762D01*
X10101688Y10471044D01*
X1010219Y1046939D01*
X10103004Y10467866D01*
X101041Y10466531D01*
X10105436Y10465436D01*
X10106959Y1046462D01*
X10107792Y10464369D01*
Y10477723D01*
D02*
G37*
G36*
X10322538Y10426742D02*
Y10403149D01*
X10338809D01*
Y1040811D01*
X10338647Y10410565D01*
X10338168Y10412979D01*
X10337377Y10415309D01*
X10336288Y10417515D01*
X10334921Y10419561D01*
X10333298Y10421411D01*
X10331449Y10423033D01*
X10329403Y10424401D01*
X10327196Y10425488D01*
X10324867Y10426279D01*
X10322538Y10426742D01*
D02*
G37*
G36*
X10317458D02*
X10315129Y10426279D01*
X10312799Y10425488D01*
X10310593Y10424401D01*
X10308547Y10423033D01*
X10306697Y10421411D01*
X10305074Y10419561D01*
X10303707Y10417515D01*
X1030262Y10415309D01*
X10301829Y10412979D01*
X10301349Y10410565D01*
X10301188Y1040811D01*
Y10403149D01*
X10317458D01*
Y10426742D01*
D02*
G37*
G36*
X10338809Y1039807D02*
X10322538D01*
Y10374478D01*
X10324867Y1037494D01*
X10327196Y10375731D01*
X10329403Y1037682D01*
X10331449Y10378187D01*
X10333298Y1037981D01*
X10334921Y10381659D01*
X10336288Y10383705D01*
X10337377Y10385912D01*
X10338168Y10388241D01*
X10338647Y10390654D01*
X10338809Y1039311D01*
Y1039807D01*
D02*
G37*
G36*
X10317458D02*
X10301188D01*
Y1039311D01*
X10301349Y10390654D01*
X10301829Y10388241D01*
X1030262Y10385912D01*
X10303707Y10383705D01*
X10305074Y10381659D01*
X10306697Y1037981D01*
X10308547Y10378187D01*
X10310593Y1037682D01*
X10312799Y10375731D01*
X10315129Y1037494D01*
X10317458Y10374478D01*
Y1039807D01*
D02*
G37*
G36*
X10382538Y10485571D02*
Y10478149D01*
X1038996D01*
X10389532Y10479559D01*
X10388579Y10481343D01*
X10387295Y10482906D01*
X10385731Y10484191D01*
X10383948Y10485144D01*
X10382538Y10485571D01*
D02*
G37*
G36*
X10377458D02*
X10376049Y10485144D01*
X10374265Y10484191D01*
X10372701Y10482906D01*
X10371417Y10481343D01*
X10370464Y10479559D01*
X10370037Y10478149D01*
X10377458D01*
Y10485571D01*
D02*
G37*
G36*
X1038996Y1047307D02*
X10382538D01*
Y10465648D01*
X10383948Y10466075D01*
X10385731Y1046703D01*
X10387295Y10468313D01*
X10388579Y10469877D01*
X10389532Y10471661D01*
X1038996Y1047307D01*
D02*
G37*
G36*
X10377458D02*
X10370037D01*
X10370464Y10471661D01*
X10371417Y10469877D01*
X10372701Y10468313D01*
X10374265Y1046703D01*
X10376049Y10466075D01*
X10377458Y10465648D01*
Y1047307D01*
D02*
G37*
G36*
X10622218Y10454888D02*
X10618634D01*
Y10450978D01*
X10623546D01*
Y1045356D01*
X10623445Y10454067D01*
X10623157Y10454498D01*
X10622726Y10454786D01*
X10622218Y10454888D01*
D02*
G37*
G36*
X10617365D02*
X10613783D01*
X10613274Y10454786D01*
X10612843Y10454498D01*
X10612556Y10454067D01*
X10612455Y1045356D01*
Y10450978D01*
X10617365D01*
Y10454888D01*
D02*
G37*
G36*
X10585363Y10452207D02*
X10579032D01*
Y10449543D01*
X10582148D01*
X10583002Y10449656D01*
X10583798Y10449985D01*
X1058448Y10450509D01*
X10585005Y10451193D01*
X10585333Y10451989D01*
X10585363Y10452207D01*
D02*
G37*
G36*
X10577762D02*
X10571433D01*
X10571462Y10451989D01*
X10571792Y10451193D01*
X10572316Y10450509D01*
X10572999Y10449985D01*
X10573794Y10449656D01*
X10574648Y10449543D01*
X10577762D01*
Y10452207D01*
D02*
G37*
G36*
X10623546Y10449707D02*
X10618634D01*
Y10445796D01*
X10622218D01*
X10622726Y10445897D01*
X10623157Y10446185D01*
X10623445Y10446616D01*
X10623546Y10447124D01*
Y10449707D01*
D02*
G37*
G36*
X10617365D02*
X10612455D01*
Y10447124D01*
X10612556Y10446616D01*
X10612843Y10446185D01*
X10613274Y10445897D01*
X10613783Y10445796D01*
X10617365D01*
Y10449707D01*
D02*
G37*
G36*
X10596072Y10517137D02*
X10592742D01*
Y10512977D01*
X10597402D01*
Y10515807D01*
X10597301Y10516316D01*
X10597013Y10516748D01*
X10596581Y10517036D01*
X10596072Y10517137D01*
D02*
G37*
G36*
X10591472D02*
X10588142D01*
X10587632Y10517036D01*
X10587201Y10516748D01*
X10586913Y10516316D01*
X10586812Y10515807D01*
Y10512977D01*
X10591472D01*
Y10517137D01*
D02*
G37*
G36*
X10597402Y10511707D02*
X10592742D01*
Y10507546D01*
X10596072D01*
X10596581Y10507648D01*
X10597013Y10507936D01*
X10597301Y10508368D01*
X10597402Y10508877D01*
Y10511707D01*
D02*
G37*
G36*
X10591472D02*
X10586812D01*
Y10508877D01*
X10586913Y10508368D01*
X10587201Y10507936D01*
X10587632Y10507648D01*
X10588142Y10507546D01*
X10591472D01*
Y10511707D01*
D02*
G37*
G36*
X10628872Y10503137D02*
X10626783D01*
Y10498977D01*
X10630194D01*
Y10501814D01*
X10630094Y10502321D01*
X10629807Y10502749D01*
X10629377Y10503036D01*
X10628872Y10503137D01*
D02*
G37*
G36*
X10625514D02*
X10623427D01*
X1062292Y10503036D01*
X10622491Y10502749D01*
X10622205Y10502321D01*
X10622103Y10501814D01*
Y10498977D01*
X10625514D01*
Y10503137D01*
D02*
G37*
G36*
X10630194Y10497706D02*
X10626783D01*
Y10493546D01*
X10628872D01*
X10629377Y10493647D01*
X10629807Y10493933D01*
X10630094Y10494363D01*
X10630194Y10494869D01*
Y10497706D01*
D02*
G37*
G36*
X10625514D02*
X10622103D01*
Y10494869D01*
X10622205Y10494363D01*
X10622491Y10493933D01*
X1062292Y10493647D01*
X10623427Y10493546D01*
X10625514D01*
Y10497706D01*
D02*
G37*
G36*
X10598168Y10409805D02*
X10585527D01*
X10584783Y10409707D01*
X10584091Y10409419D01*
X10583495Y10408962D01*
X10583038Y10408367D01*
X1058275Y10407675D01*
X10582653Y1040693D01*
Y1039429D01*
X1058275Y10393546D01*
X10583038Y10392853D01*
X10583495Y10392257D01*
X10584091Y10391801D01*
X10584783Y10391514D01*
X10585527Y10391415D01*
X10598168D01*
X10598911Y10391514D01*
X10599604Y10391801D01*
X106002Y10392257D01*
X10600657Y10392853D01*
X10600944Y10393546D01*
X10601041Y1039429D01*
Y1039802D01*
X10617787D01*
Y10396646D01*
X10617888Y10396135D01*
X10618176Y10395704D01*
X10618608Y10395416D01*
X10619117Y10395315D01*
X10626047D01*
X10626556Y10395416D01*
X10626987Y10395704D01*
X10627277Y10396135D01*
X10627378Y10396646D01*
Y10404575D01*
X10627277Y10405084D01*
X10626987Y10405516D01*
X10626556Y10405804D01*
X10626047Y10405906D01*
X10619117D01*
X10618608Y10405804D01*
X10618176Y10405516D01*
X10617888Y10405084D01*
X10617787Y10404575D01*
Y10403199D01*
X10601041D01*
Y1040693D01*
X10600944Y10407675D01*
X10600657Y10408367D01*
X106002Y10408962D01*
X10599604Y10409419D01*
X10598911Y10409707D01*
X10598168Y10409805D01*
D02*
G37*
%LPD*%
D15*
X10591847Y1040061D02*
X10622582D01*
X10566448Y1031907D02*
X10626129D01*
X10474502D02*
X10566448D01*
Y1040061D01*
X10439917Y10478842D02*
X10452296D01*
X10200998Y10088936D02*
X10205824D01*
X10217056Y10077704D01*
X10178288Y10111646D02*
X10200998Y10088936D01*
X10178288Y10111646D02*
Y10143762D01*
X10212332Y10177806D01*
X10334128Y10453695D02*
Y104902D01*
X10341764Y10497834D02*
X10352203D01*
X10334128Y104902D02*
X10341764Y10497834D01*
X10638669Y10249216D02*
X10664253D01*
X10438384Y10459841D02*
Y10477308D01*
X10633475Y10249216D02*
X10638669D01*
X10438384Y10456832D02*
Y10459841D01*
X10212332Y10177806D02*
Y10186262D01*
X10636582Y1040061D02*
X106474D01*
X10636082D02*
X10636582D01*
X106474Y10341071D02*
Y1040061D01*
X10638282Y10341071D02*
X106474D01*
Y10270487D02*
Y10341071D01*
X10343387Y103259D02*
Y10453695D01*
X106474Y1040061D02*
Y10517913D01*
X1064597Y10519342D02*
X106474Y10517913D01*
X10616649Y10519342D02*
X1064597D01*
X10358153Y10503784D02*
Y10505602D01*
Y10526453D01*
X1035431Y10530295D02*
X10358153Y10526453D01*
X10352203Y10497834D02*
X10358153Y10503784D01*
Y10505602D02*
X10366653D01*
X1035431Y10530295D02*
Y10548348D01*
X10638669Y10261757D02*
X106474Y10270487D01*
X10162332Y10186262D02*
Y10233452D01*
X10167112Y10238232D01*
X10388669D01*
Y10186757D02*
Y10238232D01*
X10343387Y103259D02*
X10350219Y1031907D01*
X10476796Y10478842D02*
X10503916D01*
X10474502Y1031907D02*
Y10336757D01*
X10343387Y10453695D02*
X10435247D01*
X10438384Y10456832D01*
Y10477308D02*
X10439917Y10478842D01*
X10474248Y10438357D02*
X1048725D01*
Y10478842D01*
Y10435336D02*
Y10438357D01*
X10350219Y1031907D02*
X10474502D01*
X10626129D02*
X10628884D01*
X10647087Y10647511D02*
X10668254Y10626344D01*
X10493756Y10627678D02*
Y10647511D01*
X10647087D01*
X10638669Y10186757D02*
Y10249216D01*
X10626129Y10256562D02*
Y1031907D01*
Y10256562D02*
X10633475Y10249216D01*
X10664253D02*
X10668254Y10253218D01*
Y10626344D01*
D17*
X1063375Y10341071D02*
X10638282D01*
X10628884Y1031907D02*
X1063375D01*
D18*
Y1031907D02*
D03*
Y10341071D02*
D03*
D19*
X10500868Y10504841D02*
D03*
Y10519342D02*
D03*
X10428925Y10464338D02*
D03*
Y10478839D02*
D03*
X10618Y10450342D02*
D03*
Y10464841D02*
D03*
X10503916Y10478842D02*
D03*
Y10464342D02*
D03*
X10387295Y10364238D02*
D03*
Y10349738D02*
D03*
D20*
X10478599Y10504841D02*
D03*
X104646D02*
D03*
X10428925Y10491842D02*
D03*
X10414924D02*
D03*
X10636582Y1040061D02*
D03*
X10622582D02*
D03*
X10449618Y10627678D02*
D03*
X10435619D02*
D03*
X10368998Y10349738D02*
D03*
X10354998D02*
D03*
X10604Y10478842D02*
D03*
X10618D02*
D03*
D21*
X1060715Y10498342D02*
D03*
X10626149D02*
D03*
X10616649Y10519342D02*
D03*
D22*
X10592107Y10512341D02*
D03*
Y10498342D02*
D03*
D23*
X1041781Y10641348D02*
D03*
X1040511D02*
D03*
X1039241D02*
D03*
X10379709D02*
D03*
X1036701D02*
D03*
X1035431D02*
D03*
X1034161D02*
D03*
X1032891D02*
D03*
X1031621D02*
D03*
X1030351D02*
D03*
X10290811D02*
D03*
X1027811D02*
D03*
X1041781Y10548348D02*
D03*
X1040511D02*
D03*
X1039241D02*
D03*
X10379709D02*
D03*
X1036701D02*
D03*
X1035431D02*
D03*
X1034161D02*
D03*
X1032891D02*
D03*
X1031621D02*
D03*
X1030351D02*
D03*
X10290811D02*
D03*
X1027811D02*
D03*
D24*
X10493756Y10572178D02*
D03*
X10506456D02*
D03*
X10519156D02*
D03*
X10531855D02*
D03*
X10544556D02*
D03*
X10557256D02*
D03*
X10569956D02*
D03*
X10493756Y10627678D02*
D03*
X10506456D02*
D03*
X10519156D02*
D03*
X10531855D02*
D03*
X10544556D02*
D03*
X10557256D02*
D03*
X10569956D02*
D03*
D25*
X10578398Y10452842D02*
D03*
Y10459342D02*
D03*
Y10465842D02*
D03*
Y10472341D02*
D03*
Y10478842D02*
D03*
Y10485342D02*
D03*
Y10491842D02*
D03*
Y10498342D02*
D03*
Y10504841D02*
D03*
Y10511342D02*
D03*
X10522397Y10452842D02*
D03*
Y10459342D02*
D03*
Y10465842D02*
D03*
Y10472341D02*
D03*
Y10478842D02*
D03*
Y10485342D02*
D03*
Y10491842D02*
D03*
Y10498342D02*
D03*
Y10504841D02*
D03*
Y10511342D02*
D03*
D26*
X10476796Y10459841D02*
D03*
Y10478842D02*
D03*
X10452296Y10459841D02*
D03*
Y10469342D02*
D03*
Y10478842D02*
D03*
D27*
X10479257Y10647511D02*
D03*
X10493756D02*
D03*
X10381152Y10505602D02*
D03*
X10366653D02*
D03*
D28*
X10220917Y10597563D02*
D03*
Y10534563D02*
D03*
D29*
X10315956Y10480195D02*
D03*
Y10453695D02*
D03*
D51*
X1005Y1071D02*
D03*
X1071D02*
D03*
X1071Y1005D02*
D03*
X1005D02*
D03*
D53*
X10438384Y10459841D02*
X10452296D01*
X10395161Y10503662D02*
X10398881Y10507382D01*
X10450808D01*
X10395161Y10492648D02*
Y10503662D01*
X10397701Y1050261D02*
X10399933Y10504841D01*
X104646D01*
X10397701Y10490107D02*
Y1050261D01*
X10414924Y10485536D02*
Y10491842D01*
X10404998Y1047561D02*
X10414924Y10485536D01*
X10400985Y10502302D02*
X10449186D01*
X10457106Y10494381D02*
X10510536D01*
X10449186Y10502302D02*
X10457106Y10494381D01*
X1040024Y10486274D02*
Y10501558D01*
X10394093Y10480127D02*
X1040024Y10486274D01*
X10394093Y10467759D02*
Y10480127D01*
X10354998Y1047561D02*
Y10488621D01*
X10355742Y10489364D01*
X10396957D01*
X10347471Y10491904D02*
X10394417D01*
X10340358Y10484791D02*
X10347471Y10491904D01*
X10450808Y10507382D02*
X10481038Y10537612D01*
X10505712D02*
X10506456Y10538356D01*
Y10572178D01*
X10481038Y10537612D02*
X10505712D01*
X10510536Y10494381D02*
X10514496Y10498342D01*
X10522397D01*
X10340358Y10465914D02*
X10345657Y10460616D01*
X10340358Y10465914D02*
Y10484791D01*
X10394417Y10491904D02*
X10395161Y10492648D01*
X10345657Y10460616D02*
X10386951D01*
X1040024Y10501558D02*
X10400985Y10502302D01*
X10386951Y10460616D02*
X10394093Y10467759D01*
X10396957Y10489364D02*
X10397701Y10490107D01*
X10539281Y10493546D02*
X10560127D01*
X10560872Y1049429D01*
Y10549366D01*
X10537311Y10468424D02*
Y10491575D01*
X10539281Y10493546D01*
X10534729Y10465842D02*
X10537311Y10468424D01*
X10522397Y10465842D02*
X10534729D01*
X10560872Y10549366D02*
X10561615Y1055011D01*
X1064641D01*
X1064641Y1055011D01*
X10397065Y10633669D02*
Y10649126D01*
X10395277Y10650913D02*
Y1066365D01*
Y10650913D02*
X10397065Y10649126D01*
X10568605Y10465054D02*
X10570718Y10462941D01*
Y10459974D02*
Y10462941D01*
Y10459974D02*
X1057135Y10459342D01*
X10578398D01*
X10556494Y10465054D02*
X10568605D01*
X10570972Y10478436D02*
X10571378Y10478842D01*
X10570972Y10475504D02*
Y10478436D01*
X10568142Y10472675D02*
X10570972Y10475504D01*
X10553337Y10472675D02*
X10568142D01*
X10571378Y10478842D02*
X10578398D01*
X1057141Y10465842D02*
X10578398D01*
X10569657Y10467594D02*
X1057141Y10465842D01*
X10555442Y10467594D02*
X10569657D01*
X10571401Y10472341D02*
X10578398D01*
X10569194Y10470134D02*
X10571401Y10472341D01*
X1055439Y10470134D02*
X10569194D01*
X1053012Y10414329D02*
Y10458638D01*
X10528748Y10412958D02*
X1053012Y10414329D01*
X10529415Y10459342D02*
X1053012Y10458638D01*
X10522397Y10459342D02*
X10529415D01*
X10499647Y10412958D02*
X10528748D01*
X1048725Y10402136D02*
Y10435336D01*
Y10402136D02*
X10488345Y10401042D01*
X10387295Y10349738D02*
X10549611D01*
X10618Y10464841D02*
Y10478842D01*
X10331447Y10602209D02*
X10391172D01*
X10330179Y10600944D02*
X10331447Y10602209D01*
X10330179Y10559412D02*
Y10600944D01*
X10324Y10555771D02*
X1032764Y10559412D01*
X10330179D02*
X10333564Y10556027D01*
X10346689Y10559193D02*
X10349265Y10556619D01*
Y10541061D02*
Y10556619D01*
Y10541061D02*
X10351135Y10539189D01*
X1034415Y10558141D02*
X10346593Y10555698D01*
Y1054014D02*
Y10555698D01*
Y1054014D02*
X10348595Y10538137D01*
X10500868Y10504841D02*
X10522397D01*
X10478599D02*
X10500868D01*
X10428925Y10491842D02*
X10522397D01*
X10428925Y10478839D02*
Y10491842D01*
X10354998Y1033061D02*
Y10349738D01*
X10368998D02*
X10387295D01*
X10522397Y10511342D02*
X10543455D01*
X10595756Y10464841D02*
X10618D01*
X10578398Y10478842D02*
X10604D01*
X10405917Y10519852D02*
X10418101D01*
X1040511Y10520659D02*
X10405917Y10519852D01*
X1040511Y10520659D02*
Y10548348D01*
X1039368Y10604718D02*
Y10630284D01*
X10391172Y10602209D02*
X1039368Y10604718D01*
Y10630284D02*
X10397065Y10633669D01*
X10514076Y10582273D02*
Y1058775D01*
X1051196Y10580159D02*
X10514076Y10582273D01*
X10557256Y10572178D02*
Y10590388D01*
X10556606Y10591038D02*
X10557256Y10590388D01*
X10324Y10540212D02*
Y10555771D01*
X10324406Y10516577D02*
Y10523126D01*
X10319041Y10528491D02*
X10324406Y10523126D01*
X10319041Y10528491D02*
Y10535253D01*
X1033145Y10533894D02*
Y10538555D01*
Y10533894D02*
X10337587Y10527758D01*
X10345175D01*
X1032891Y10532842D02*
Y10548348D01*
X103165Y10519852D02*
Y10536305D01*
X10319041Y10535253D02*
X10324Y10540212D01*
X1031875Y10558141D02*
X10320865Y10556027D01*
Y1054067D02*
Y10556027D01*
X103165Y10536305D02*
X10320865Y1054067D01*
X1041781Y1059444D02*
Y10641348D01*
X104435Y10519852D02*
Y10569965D01*
X10442715Y1057075D02*
X104435Y10569965D01*
X103805Y1057075D02*
X10442715D01*
X10379709Y1056996D02*
X103805Y1057075D01*
X10379709Y10548348D02*
Y1056996D01*
X10349805Y10507111D02*
Y10523126D01*
X10348784Y1050609D02*
X10349805Y10507111D01*
X10345175Y10527758D02*
X10349805Y10523126D01*
X10333564Y1054067D02*
Y10556027D01*
X1033145Y10538555D02*
X10333564Y1054067D01*
X1032891Y10532842D02*
X10341899Y10519852D01*
X10348595Y10527928D02*
Y10538137D01*
Y10527928D02*
X10352345Y10524178D01*
X10351135Y10528981D02*
X10354885Y10525231D01*
X10351135Y10528981D02*
Y10539189D01*
X10354885Y10505006D02*
Y10525231D01*
X10352345Y10506058D02*
Y10524178D01*
X10349836Y1050355D02*
X10352345Y10506058D01*
X10280587Y1050101D02*
X10350889D01*
X10281639Y1050355D02*
X10349836D01*
X10350889Y1050101D02*
X10354885Y10505006D01*
X10291859Y1050609D02*
X10348784D01*
X10525044Y10591038D02*
X10556606D01*
X10524236Y10590229D02*
X10525044Y10591038D01*
X10524236Y10582273D02*
Y10590229D01*
X10523993Y10593578D02*
X10569045D01*
X10521696Y10591282D02*
X10523993Y10593578D01*
X10521696Y10581221D02*
Y10591282D01*
X10569956Y10594489D02*
Y10627678D01*
X10569045Y10593578D02*
X10569956Y10594489D01*
X10524236Y10582273D02*
X10526351Y10580159D01*
Y10564198D02*
Y10580159D01*
X10522136Y10559983D02*
X10526351Y10564198D01*
X10521696Y10581221D02*
X10523811Y10579106D01*
Y1056525D02*
Y10579106D01*
X10521084Y10562523D02*
X10523811Y1056525D01*
X10517228Y10562523D02*
X10521084D01*
X10516176Y10559983D02*
X10522136D01*
X1051196Y10564198D02*
X10516176Y10559983D01*
X1051196Y10564198D02*
Y10580159D01*
X10516616Y10581221D02*
Y10590134D01*
X10519156Y10572178D02*
Y10591187D01*
X10514501Y10579106D02*
X10516616Y10581221D01*
X10514501Y1056525D02*
Y10579106D01*
X10304445Y10511947D02*
X10319774D01*
X1030351Y10512882D02*
X10304445Y10511947D01*
X1030351Y10512882D02*
Y10548348D01*
X10588256Y10472341D02*
X10595756Y10464841D01*
X10578398Y10472341D02*
X10588256D01*
X10319774Y10511947D02*
X10324406Y10516577D01*
X10290811Y10507139D02*
X10291859Y1050609D01*
X10290811Y10507139D02*
Y10548348D01*
X10280649Y1050454D02*
X10281639Y1050355D01*
X10280649Y1050454D02*
Y10538555D01*
X1027811Y10503488D02*
X10280587Y1050101D01*
X10440251Y10657168D02*
X104435Y10660416D01*
X10592107Y10498342D02*
X1060715D01*
X10578398D02*
X10592107D01*
X1036701Y10520142D02*
X103673Y10519852D01*
X1036701Y10520142D02*
Y10548348D01*
X1039241Y10520142D02*
X103927Y10519852D01*
X1039241Y10520142D02*
Y10548348D01*
X10514501Y1056525D02*
X10517228Y10562523D01*
X10413156Y10633669D02*
X10415165Y1063166D01*
X10280649Y10538555D02*
X10282765Y1054067D01*
X10290811Y10614155D02*
Y10641348D01*
Y10614155D02*
X10292083Y10612882D01*
X1028827Y10613103D02*
X1029103Y10610342D01*
X10578398Y10485342D02*
X10585417D01*
X10588752Y10488676D01*
X10637501Y10432034D02*
X10638536Y10433069D01*
Y10487437D01*
X10637296Y10488676D02*
X10638536Y10487437D01*
X10588752Y10488676D02*
X10637296D01*
X10449618Y10627678D02*
X10493756D01*
X10506456D01*
X10499647Y10438357D02*
X10520784D01*
X10522397Y10439972D01*
Y10452842D01*
X10578398Y10511342D02*
Y10531348D01*
X10579414Y10532365D01*
X10499647Y10387557D02*
X10505513Y10393422D01*
X10474248Y10387557D02*
Y10395437D01*
X10474773Y10395962D01*
X10474248Y10399227D02*
Y10412958D01*
Y10399227D02*
X10474973Y10398502D01*
X10557256Y10627678D02*
Y10643285D01*
X10558306Y10644336D01*
X10543455Y10511342D02*
X10544556Y10512443D01*
Y10572178D01*
X10558306Y10644336D02*
X10645773D01*
X10665079Y10625029D01*
X10549611Y10349738D02*
X10556642Y10356769D01*
X10554103Y10462662D02*
X10556494Y10465054D01*
X10551562Y10463715D02*
X10555442Y10467594D01*
X10549022Y10464767D02*
X1055439Y10470134D01*
X10546482Y10465819D02*
X10553337Y10472675D01*
X10488345Y10401042D02*
X10545408D01*
X10546482Y10402117D01*
Y10465819D01*
X1054646Y10398502D02*
X10549022Y10401064D01*
X10547512Y10395962D02*
X10551562Y10400012D01*
X10548564Y10393422D02*
X10554103Y1039896D01*
X10474973Y10398502D02*
X1054646D01*
X10549022Y10401064D02*
Y10464767D01*
X10474773Y10395962D02*
X10547512D01*
X10551562Y10400012D02*
Y10463715D01*
X10505513Y10393422D02*
X10548564D01*
X10554103Y1039896D02*
Y10462662D01*
X10556642Y10356769D02*
Y10430912D01*
X10557764Y10432034D01*
X10637501D01*
X10579414Y10532365D02*
X10664189D01*
X10665079Y10533253D01*
Y10625029D01*
X104435Y10660416D02*
Y10672252D01*
X10407993Y10657168D02*
X10440251D01*
X1028827Y10613103D02*
Y10631235D01*
X10286155Y10633351D02*
X1028827Y10631235D01*
X10286155Y10633351D02*
Y10649026D01*
X1027811Y10503488D02*
Y10548348D01*
X10282765Y1054067D02*
Y10556027D01*
X1027811Y10560681D02*
X10282765Y10556027D01*
X1027811Y10560681D02*
Y10641348D01*
X1031621Y10548348D02*
Y10608632D01*
X103145Y10610342D02*
X1031621Y10608632D01*
X1029103Y10610342D02*
X103145D01*
X1031875Y10558141D02*
Y10608641D01*
X1032045Y10610342D01*
X10338789D01*
X1034161Y10613164D01*
Y10641348D01*
X1032764Y10559412D02*
Y10601996D01*
X10330394Y1060475D01*
X10389866D01*
X1039114Y10606024D01*
Y10630284D01*
X10387755Y10633669D02*
X1039114Y10630284D01*
X10292083Y10612882D02*
X10337737D01*
X1033907Y10614215D01*
Y10631555D01*
X10336956Y10633669D02*
X1033907Y10631555D01*
X10286155Y10649026D02*
X10288882Y10651753D01*
X10296001D01*
X103165Y10672252D01*
X10336956Y10633669D02*
Y10649026D01*
X10339681Y10651753D01*
X10348826D01*
X10349655Y10650924D01*
Y10633669D02*
Y10650924D01*
Y10633669D02*
X10352382Y10630944D01*
X10356238D01*
X10387755Y10633669D02*
Y10649026D01*
X1040511Y10641348D02*
Y10654283D01*
X10407993Y10657168D01*
X10413156Y10633669D02*
Y10649026D01*
X10415881Y10651753D01*
X10434716D01*
X10435619Y1065085D01*
Y10627678D02*
Y1065085D01*
X10516764Y10593578D02*
X10519156Y10591187D01*
X10515712Y10591038D02*
X10516616Y10590134D01*
X10513328Y10588499D02*
X10514076Y1058775D01*
X1041781Y1059444D02*
X10418672Y10593578D01*
X10516764D01*
X10414406D02*
X10415165Y10594336D01*
Y1063166D01*
X1034161Y10548348D02*
Y10587517D01*
X10347671Y10593578D01*
X10414406D01*
X1034415Y10558141D02*
Y10586465D01*
X10348723Y10591038D01*
X10346689Y10559193D02*
Y10585413D01*
X10349775Y10588499D01*
X10513328D01*
X10348723Y10591038D02*
X10515712D01*
X10387755Y10649026D02*
X103927Y10653971D01*
Y10672252D01*
X10395277Y1066365D02*
X10403879Y10672252D01*
X10418101D01*
X10341899D02*
X1035254D01*
X1035431Y10641348D02*
Y10670482D01*
X1035254Y10672252D02*
X1035431Y10670482D01*
X10356238Y10630944D02*
X10358965Y10633669D01*
Y10649026D01*
X10356851Y10651141D02*
X10358965Y10649026D01*
X10356851Y10651141D02*
Y10670928D01*
X10358174Y10672252D01*
X103673D01*
D54*
X10217056Y10077704D02*
X10542938D01*
X10515005Y10186757D02*
X10542938Y10158824D01*
X10438669Y10186757D02*
X10515005D01*
X10542938Y10127704D02*
Y10158824D01*
X10388667Y10261757D02*
X10388672Y10186757D01*
X10417086Y10127704D02*
X10479615D01*
X10388669Y10156121D02*
X10417086Y10127704D01*
X10388669Y10156121D02*
Y10186672D01*
X10388672Y1018667D02*
Y10186757D01*
X10217056Y10127704D02*
X10279615D01*
X10438669Y10186757D02*
Y10261757D01*
X10279615Y10127704D02*
X10329615D01*
D55*
X10334128Y10453695D02*
X10343387D01*
X10315956D02*
X10334128D01*
X10264331D02*
X10315956D01*
X10264331D02*
Y10480262D01*
X10223683Y10453695D02*
X10264331D01*
X10220917Y1045646D02*
X10223683Y10453695D01*
X10220917Y1045646D02*
Y10534563D01*
D56*
X10503916Y10478842D02*
X10522397D01*
D57*
X1064641Y1062011D02*
D03*
Y1055011D02*
D03*
X10479615Y10127704D02*
D03*
X10429615D02*
D03*
X10329615D02*
D03*
X10279615D02*
D03*
X10388669Y10261757D02*
D03*
Y10186757D02*
D03*
X10438669Y10261757D02*
D03*
Y10186757D02*
D03*
X10638669D02*
D03*
Y10261757D02*
D03*
D58*
X10110331Y10522521D02*
D03*
Y10547921D02*
D03*
Y10573322D02*
D03*
Y10598721D02*
D03*
Y10624121D02*
D03*
X10474502Y10336757D02*
D03*
X10499901D02*
D03*
X10499647Y10438357D02*
D03*
Y10412958D02*
D03*
Y10387557D02*
D03*
Y10362157D02*
D03*
X10474248D02*
D03*
Y10387557D02*
D03*
Y10412958D02*
D03*
Y10438357D02*
D03*
D59*
X10542938Y10127704D02*
D03*
Y10077704D02*
D03*
Y10027704D02*
D03*
X10217056D02*
D03*
Y10077704D02*
D03*
Y10127704D02*
D03*
X10354998Y1047561D02*
D03*
X10404998D02*
D03*
X10379998D02*
D03*
X10354998Y1033061D02*
D03*
X10404998D02*
D03*
D60*
X10439998Y1040061D02*
D03*
D61*
X10319998D02*
D03*
D62*
X1061Y1003D02*
D03*
X1065D02*
D03*
X10150004D02*
D03*
X10110004D02*
D03*
D63*
X104435Y10672252D02*
D03*
X10418101D02*
D03*
X103927D02*
D03*
X103673D02*
D03*
X10341899D02*
D03*
X103165D02*
D03*
Y10519852D02*
D03*
X10341899D02*
D03*
X103673D02*
D03*
X103927D02*
D03*
X10418101D02*
D03*
X104435D02*
D03*
D64*
X10591847Y1040061D02*
D03*
D65*
X10566448D02*
D03*
D66*
X10264331Y10480262D02*
D03*
X10110331D02*
D03*
X10212332Y10186262D02*
D03*
X10162332D02*
D03*
D67*
X10381152Y1051369D02*
D03*
X10509554Y10519342D02*
D03*
X10420604Y10464338D02*
D03*
X10328108Y1048004D02*
D03*
X10304019D02*
D03*
X10316047Y10489685D02*
D03*
X10395922Y10364238D02*
D03*
X10511987Y10464342D02*
D03*
X10633456Y10498328D02*
D03*
X10592107Y1051941D02*
D03*
X10569956Y10560729D02*
D03*
X10460546Y10469342D02*
D03*
X10444172Y10469329D02*
D03*
X10513314Y10485342D02*
D03*
X10503916Y10457294D02*
D03*
X10496025Y10464342D02*
D03*
X1056894Y10452842D02*
D03*
X1058799Y10452863D02*
D03*
X10619117Y10498342D02*
D03*
X10626149Y10506202D02*
D03*
X10626047Y10450342D02*
D03*
X10381152Y10497566D02*
D03*
X1031621Y1062863D02*
D03*
Y10654792D02*
D03*
X10379709Y10628313D02*
D03*
X10113772Y10499548D02*
D03*
X10122244Y10483618D02*
D03*
Y10476105D02*
D03*
X10122408Y104902D02*
D03*
X10122244Y10469373D02*
D03*
X10113772Y10461104D02*
D03*
X10106914Y10499548D02*
D03*
X10217764Y10569283D02*
D03*
X10235544Y10601649D02*
D03*
Y10593922D02*
D03*
X10206588Y10601649D02*
D03*
Y10593922D02*
D03*
X10217764Y10625074D02*
D03*
X10224516D02*
D03*
Y10569283D02*
D03*
X10493756Y10560729D02*
D03*
Y10583672D02*
D03*
X10531855D02*
D03*
Y10560729D02*
D03*
X10479257Y10639044D02*
D03*
X10544556Y10639552D02*
D03*
Y10615676D02*
D03*
X10531847Y10485342D02*
D03*
X10106914Y10461104D02*
D03*
X10569956Y10583672D02*
D03*
X10388092Y10505602D02*
D03*
X10379709Y1065403D02*
D03*
X10471658Y10647511D02*
D03*
M02*
